<?xml version="1.0" encoding="UTF-8"?>
<svg id="Layer_1" data-name="Layer 1" xmlns="http://www.w3.org/2000/svg" xmlns:xlink="http://www.w3.org/1999/xlink" viewBox="0 0 375 369.5975">
  <defs>
    <style>
      .cls-1 {
        fill: none;
      }

      .cls-2 {
        fill: #fff;
      }

      .cls-3 {
        clip-path: url(#clippath);
      }
    </style>
    <clipPath id="clippath">
      <path class="cls-1" d="M193.6041,149.291c-.1312,4.9372-.1866,9.6928-.4034,14.4434-.2773,6.0063-1.1699,11.9471-2.3854,17.8324-.1614.7818-.3379,1.5583-.5296,2.33-.3127,1.2961-1.0035,1.76-2.2694,1.4222-3.3234-.8825-6.667-1.7095-9.9449-2.7534-3.6714-1.1751-7.3377-2.4156-10.9031-3.8832-3.6159-1.4877-7.141-3.2075-10.6359-4.9776-6.0467-3.0612-11.7454-6.7023-17.1969-10.7266-6.5459-4.8262-12.5624-10.2576-18.1249-16.1934-5.2146-5.5726-9.8743-11.579-14.045-17.9736-4.8816-7.494-8.9716-15.4016-12.2648-23.7176-2.693-6.803-4.8665-13.7727-6.2988-20.944-.8523-4.2513-1.5583-8.548-2.0021-12.8598-.4992-4.8262-.7968-9.6876-.8674-14.5392-.0908-5.9962.3429-11.9874,1.2558-17.9231.5497-3.5755,1.2255-7.1409,1.8559-10.7065.1966-1.0995,1.1095-1.7651,2.2088-1.4826,3.3587.8674,6.7628,1.6389,10.0407,2.7484,4.6649,1.5836,9.3145,3.2477,13.818,5.2298,4.5589,2.0071,9.0473,4.2463,13.3592,6.7324,6.904,3.984,13.344,8.6539,19.3906,13.8786,6.435,5.5575,12.3253,11.6193,17.5046,18.3417,3.1469,4.0899,5.9911,8.4168,8.8355,12.7338,3.1268,4.7455,5.7189,9.8089,7.9782,15.0183,1.8357,4.2412,3.4596,8.5833,4.9625,12.9506,1.1649,3.389,2.108,6.8636,2.9553,10.3434.7918,3.2578,1.4776,6.5559,1.9517,9.8692.7111,4.9726,1.1952,9.9753,1.755,14.8066h0ZM91.6228,29.9715c-7.5949,40.9146,1.1952,77.5576,27.5403,109.5611,17.8778,21.7155,40.9095,35.5589,68.3843,42.4024,6.551-33.239,1.5987-64.3901-15.8353-93.1862-18.4426-30.4704-45.3474-49.7803-80.0893-58.7772h0Z"/>
    </clipPath>
  </defs>
  <path class="cls-2" d="M311.3249,278.6311c-7.8004,0-15.8794-.7892-24.0152-2.3463-8.7775-1.6756-17.057-4.1025-24.6077-7.2129-4.7141-1.9429-9.336-4.2601-13.8067-6.4993l-.314-.1576c-4.7695-2.3892-9.5579-5.3822-14.64-9.1481-3.3726-2.5064-6.9242-5.3873-10.8578-8.809-2.3955-2.0828-4.8111-4.4178-7.8306-7.5734-2.6072-2.7308-4.8035-5.2435-6.7174-7.6806-2.1937-2.7913-4.3056-5.6697-6.348-8.4529-.8699-1.1858-1.7349-2.364-2.5985-3.5258l-.1148-.1797c-.7186-1.3251-1.4347-2.6319-2.1445-3.9273-1.6529-3.0139-3.2125-5.8601-4.738-8.8078-2.5241-4.8785-4.7928-10.3932-6.9349-16.8597-.2572-.766-.5005-1.5476-.7281-2.3343-.307-1.0641-.2502-1.9801.169-2.7246.4098-.7281,1.129-1.2362,2.1377-1.5091l2.0418-.5567c2.6123-.7148,5.3129-1.4543,8.0197-2.0481,3.1318-.6877,7.2708-1.5495,11.5045-2.1143,4.0874-.5478,8.2669-.8227,11.8159-1.0194,6.4274-.3593,13.1347-.1343,20.5027.6877,7.8988.8869,15.9916,2.5744,24.0581,5.0172,7.2166,2.188,14.4132,5.0941,21.3903,8.6363,8.0261,4.0742,15.6739,8.9767,22.7304,14.5707,6.203,4.9195,11.4756,9.8832,16.1215,15.174,3.2225,3.6726,5.9205,7.0226,8.248,10.2432,2.8733,3.9689,5.5953,8.0967,8.0904,12.2674,3.0649,5.125,5.7491,10.6346,7.9782,16.3762.9973,2.567,1.9416,5.1932,2.8556,7.7311l.9027,2.5014c.3378.9355.2887,1.9013-.1362,2.722-.4111.7968-1.1397,1.373-2.05,1.6252-.7212.2005-1.4448.4085-2.1685.6153-2.6009.7426-5.2902,1.5117-8.011,2.0525-4.3345.8649-9.4734,1.8281-14.7069,2.4056-5.2461.5711-10.3256.8611-15.0977.8611h0ZM191.6739,186.0457c11.0216,31.252,30.8876,54.9501,59.0672,70.4513,29.8374,16.4077,62.1446,20.1496,96.0444,11.1301-13.9479-38.2494-39.906-64.7155-77.1743-78.6766-24.9066-9.3278-51.1193-10.3018-77.9372-2.9048h-.0001Z"/>
  <path class="cls-2" d="M274.9025,222.0754c-3.8517,0-7.8874-.2484-12.2245-.7489-4.2122-.4861-8.7283-1.2027-13.8067-2.1913-3.0964-.6046-6.4552-1.4448-10.5677-2.6444-3.6386-1.0685-6.7968-2.1445-9.655-3.2906-3.2654-1.3131-6.5094-2.7365-9.6449-4.1132-1.3704-.6014-2.7321-1.199-4.0824-1.7821l-.1916-.0995c-1.3276-.815-2.6426-1.6138-3.9462-2.4062-2.8935-1.7575-5.6268-3.4174-8.379-5.1843-4.6358-2.9691-9.3574-6.6084-14.434-11.1257-.6083-.5415-1.2066-1.0931-1.7947-1.6554-.8006-.771-1.209-1.5949-1.2185-2.4509-.0088-.8377.3599-1.6378,1.0962-2.3778l1.6138-1.6264c1.8659-1.8849,3.795-3.8346,5.797-5.6609,2.5694-2.3381,5.6356-5.0664,8.9111-7.5855,3.2376-2.4988,6.5825-4.7418,9.7155-6.793,5.4188-3.5409,11.342-6.6992,18.1097-9.6569,7.2935-3.1878,15.1469-5.7756,23.3419-7.6907,7.3289-1.7122,15.012-2.7951,22.8377-3.22,8.9981-.4854,18.0694-.0687,26.9641,1.2451,7.808,1.153,14.8545,2.8153,21.5441,5.0809,4.5956,1.5526,8.6073,3.104,12.2622,4.7423,4.516,2.021,8.9364,4.233,13.1373,6.5737,5.2095,2.9035,10.2891,6.3322,15.0965,10.192,2.1434,1.7216,4.2678,3.5201,6.324,5.2593l2.045,1.7273c.7577.6374,1.2003,1.4984,1.2431,2.4244.0416.897-.3013,1.7614-.9657,2.434-.5307.5427-1.0641,1.0931-1.5961,1.644-1.8722,1.9359-3.8075,3.9374-5.8802,5.7574-3.3474,2.937-7.3364,6.3556-11.5399,9.4376-4.2324,3.1047-8.4862,5.8966-12.6442,8.299-6.735,3.8952-14.127,7.2539-21.9676,9.9828-8.4409,2.9389-16.825,4.9782-24.9204,6.0611-5.1615.6871-10.4316.996-15.5289,1.2954-1.6529.0984-3.3334.1476-5.0506.1476h-.0005.0001ZM192.4758,184.2579c25.1738,21.5548,54.2397,32.1389,86.3654,31.4658,34.0396-.7136,63.8883-13.6334,88.7406-38.4031-31.2028-26.1478-66.9053-36.0845-106.1532-29.533-26.2241,4.378-49.4147,16.6454-68.9529,36.4703h0Z"/>
  <path class="cls-2" d="M222.4216,191.0301l-.1071-.0031c-1.5217-.0403-3.0259-.0731-4.5173-.1052-3.418-.0744-6.6467-.145-9.9462-.2994-5.5284-.2547-11.439-1.0464-18.0668-2.42-.7905-.1588-1.5886-.3404-2.3822-.5371-1.0717-.2629-1.8382-.7697-2.2744-1.5053-.4275-.7205-.5075-1.6-.2377-2.6142l.5396-2.0507c.6853-2.6173,1.3938-5.3242,2.2341-7.9637.972-3.0529,2.2958-7.0648,3.926-11.0242,1.5747-3.8289,3.4218-7.5811,5.0204-10.7468,2.9111-5.7604,6.4615-11.4592,10.8527-17.4208,4.7152-6.4003,10.2235-12.5692,16.3712-18.3348,5.5109-5.1667,11.6243-9.9488,18.1702-14.2133,7.5432-4.9183,15.6096-9.0927,23.9748-12.4073,7.3541-2.9136,14.2883-5.0008,21.1986-6.3808,4.7027-.9437,8.9515-1.6075,12.9872-2.028,4.9384-.5062,9.8719-.8006,14.6666-.8756,5.9861-.0908,12.0946.3392,18.1665,1.2784,2.635.4047,5.2977.8845,7.8723,1.3484l2.8657.5125c.9709.1702,1.7815.691,2.282,1.4675.4879.7553.6267,1.6768.3908,2.5954-.1955.7564-.3846,1.513-.5749,2.2694-.6506,2.5978-1.3238,5.2846-2.2064,7.8855-1.4336,4.221-3.1797,9.1784-5.2726,13.9442-2.113,4.8066-4.4038,9.3524-6.8069,13.5123-3.8895,6.7458-8.611,13.3509-14.0324,19.6309-5.9307,6.868-12.0013,12.6632-18.556,17.7176-4.0433,3.1198-8.3652,5.9697-12.5434,8.7265l-.2711.1784c-4.4405,2.9306-9.4268,5.5827-15.2415,8.1074-3.8655,1.675-8.1358,3.312-13.0553,5.0047-2.9868,1.0326-6.2181,1.958-10.4758,2.9993-3.6789.8957-6.9531,1.5432-10.0081,1.9794-3.5516.5082-7.1385.904-10.6069,1.286-1.4209.1563-2.8318.312-4.2299.4741l-.1059.0126h-.0001,0ZM191.5756,182.2879c32.5683,6.0751,63.0147.7111,90.5171-15.9507,29.1251-17.6414,48.5184-43.7621,57.6627-77.6497-40.0862-7.0408-75.9792,2.2164-106.6915,27.5258-20.5242,16.9095-34.4771,39.1337-41.4882,66.0745h-.0001Z"/>
  <path class="cls-2" d="M188.4173,186.2934c-.5364,0-1.0219-.1198-1.4511-.3606-.7312-.4098-1.2406-1.131-1.5148-2.1427l-.5491-2.0147c-.7181-2.623-1.46-5.3356-2.0557-8.0512-.6884-3.1563-1.5501-7.3156-2.1093-11.5108-.5548-4.1347-.829-8.2933-1.0244-11.8154-.3575-6.4779-.1305-13.1876.6928-20.514.8889-7.9209,2.577-16.02,5.0172-24.0719,2.1793-7.2034,5.0809-14.403,8.6261-21.3984,4.076-8.0318,8.9767-15.6808,14.5657-22.7361,4.9107-6.198,9.8732-11.473,15.1683-16.1272,3.6411-3.2068,6.9909-5.9067,10.2388-8.2537,4.0105-2.9042,8.137-5.6281,12.2622-8.0954,5.1187-3.0612,10.6245-5.7473,16.3636-7.9826,2.5694-.9973,5.1943-1.9422,7.7335-2.8563l2.5014-.9033c.9317-.3361,1.8974-.29,2.7194.1356.7981.4116,1.3755,1.1404,1.6276,2.052.2118.7627.4299,1.5268.6481,2.2908.7312,2.5632,1.4877,5.214,2.0198,7.8925.8662,4.3667,1.8281,9.5283,2.4005,14.7132.5661,5.2013.8561,10.2828.8611,15.106,0,7.8041-.7892,15.8857-2.3463,24.0214-1.7045,8.9281-4.0635,16.9826-7.2129,24.6236-1.9177,4.6667-4.2046,9.2408-6.4173,13.6649l-.2294.459c-2.3942,4.7808-5.3873,9.5712-9.1481,14.6463-2.5202,3.3959-5.3986,6.9487-8.8039,10.8635-2.1017,2.4176-4.5085,4.9076-7.5747,7.8363-2.7056,2.5877-5.2158,4.7865-7.6731,6.7206-2.6032,2.0415-5.2297,4.0425-7.8777,6.019-5.2646,3.9294-11.1823,6.9114-17.0011,9.9248-4.8868,2.5329-10.4001,4.8055-16.8553,6.9456-.7791.2547-1.552.4961-2.3349.7231-.4489.1312-.8712.1966-1.267.1966v-.0005h.0001ZM272.1603,24.1702c-38.2404,13.9618-64.694,39.9312-78.642,77.2084-9.3228,24.9129-10.298,51.1387-2.9035,77.9775,31.2394-11.0324,54.923-30.9084,70.4141-59.0955,16.404-29.85,20.1459-62.1711,11.1314-96.0904h0Z"/>
  <path class="cls-2" d="M187.0967,190.1231c-.8233,0-1.6125-.3676-2.3463-1.0931l-1.5571-1.5469c-1.9075-1.8887-3.8801-3.8422-5.7289-5.8726-2.3173-2.5468-5.0298-5.5966-7.5829-8.9099-2.4812-3.2206-4.7298-6.5756-6.7893-9.7212-3.5427-5.427-6.701-11.3514-9.6563-18.1142-3.1904-7.3143-5.7744-15.1709-7.6819-23.3533-1.7153-7.3509-2.8001-15.0384-3.2245-22.8477-.4867-8.9856-.0662-18.0624,1.2501-26.9787,1.1561-7.8288,2.8165-14.879,5.0758-21.5541,1.5508-4.5912,3.1021-8.6036,4.7418-12.2661,2.0179-4.5129,4.2299-8.9351,6.5743-13.1436,2.9124-5.2347,6.3397-10.3162,10.1876-15.1027,1.6964-2.1156,3.4727-4.2173,5.1912-6.2503l1.789-2.1206c.6367-.7583,1.4959-1.2003,2.4181-1.2444.8876-.0422,1.7614.2976,2.4377.9613.5554.546,1.1158,1.0881,1.6756,1.6302,1.9245,1.8628,3.914,3.7893,5.7252,5.8556,2.9439,3.3618,6.3681,7.3616,9.4306,11.5392,3.099,4.2293,5.889,8.4862,8.2946,12.6544,3.8882,6.7281,7.2444,14.1213,9.9777,21.9727,2.9389,8.4466,4.9787,16.8357,6.0618,24.9356.6858,5.1578.9947,10.4266,1.2936,15.5226.3202,5.3766.1236,11.021-.6001,17.2909-.4854,4.2142-1.2027,8.7321-2.1913,13.8124-.6153,3.1595-1.4562,6.5195-2.6451,10.5747-1.0566,3.624-2.1332,6.7842-3.2906,9.6594-1.3112,3.2748-2.7384,6.5277-4.1177,9.6733-.5976,1.3636-1.1927,2.7183-1.7714,4.0629l-.0995.1904c-.788,1.2854-1.5609,2.5593-2.3286,3.8226-1.7828,2.9376-3.4671,5.7119-5.2562,8.5071-2.9691,4.6402-6.6089,9.3637-11.1275,14.4408-.532.6046-1.0905,1.2047-1.6541,1.7947-.764.7975-1.5842,1.2066-2.4377,1.2185h-.0378v.0004h-.0001ZM180.0685,7.4189c-26.1377,31.2117-36.0701,66.9331-29.5223,106.2024,4.3774,26.2335,16.6391,49.4336,36.4546,68.9824,21.546-25.1852,32.1251-54.2447,31.4505-86.4-.7085-34.0529-13.6214-63.9161-38.383-88.7848,0,0,.0001,0,.0001,0Z"/>
  <g class="cls-3">
    <path class="cls-2" d="M77.7795,26.6029l6.4199,163.3759,116.1473-4.5641-6.4199-163.3759s-116.1473,4.5641-116.1473,4.564Z"/>
  </g>
  <path class="cls-2" d="M188.7414,186.9277c-.3492,0-.7212-.0523-1.1126-.157l-2.0494-.539c-2.6173-.6853-5.3242-1.3938-7.9637-2.2341-3.2963-1.0553-7.1814-2.3463-11.0192-3.9254-3.844-1.5816-7.5879-3.4287-10.7431-5.0268-5.7856-2.9288-11.4806-6.481-17.4106-10.8583-6.4053-4.7229-12.5724-10.2318-18.3291-16.3749-5.1458-5.4995-9.9254-11.6162-14.207-18.1803-4.9164-7.5476-9.0895-15.6172-12.4034-23.9849-2.9068-7.3447-4.992-14.2801-6.3751-21.203-.9475-4.7266-1.6094-8.9792-2.0236-13.0004-.5106-4.9385-.805-9.875-.8749-14.671-.0901-5.9773.3379-12.0921,1.2733-18.1734.4085-2.6584.8926-5.345,1.3604-7.9428l.5005-2.797c.1752-.979.6997-1.7916,1.4764-2.2908.752-.4835,1.6711-.6228,2.5865-.3858.754.1948,1.5086.384,2.263.5736,2.5998.6525,5.2877,1.3276,7.8855,2.207,4.2166,1.431,9.169,3.1771,13.9416,5.2776,4.7727,2.101,9.3165,4.3913,13.5047,6.8063,6.732,3.8844,13.3339,8.6092,19.6226,14.0431,6.8605,5.9256,12.6544,11.9969,17.7125,18.5617,3.1355,4.076,6.0038,8.4295,8.7775,12.6392l.1223.1847c2.9326,4.4512,5.5827,9.4381,8.1017,15.2472,1.6768,3.875,3.3139,8.1465,5.0047,13.0597,1.0376,3.0177,1.9895,6.3467,2.9943,10.477.8952,3.6809,1.5419,6.955,1.9794,10.0118.5082,3.5497.9027,7.1328,1.2834,10.5981.1576,1.4272.314,2.8449.4765,4.2488l.0126.1059-.0026.1065c-.0403,1.5148-.0744,3.0126-.1071,4.4985-.0756,3.4274-.1463,6.6651-.2976,9.974-.2559,5.5247-1.0452,11.4345-2.4156,18.0675-.1651.8012-.3455,1.5974-.5421,2.3885-.2572,1.066-.7627,1.8344-1.499,2.2726-.4439.2635-.9468.3958-1.504.3958h.0004,0ZM90.4383,28.1196c-.0435.0442-.0908.1305-.1148.2661l-.5018,2.8033c-.4653,2.5795-.9455,5.2467-1.3484,7.8666-.9097,5.9161-1.3263,11.862-1.2381,17.6723.068,4.709.3575,9.5561.8592,14.4075.4041,3.9254,1.0521,8.086,1.9813,12.7187,1.3472,6.7458,3.382,13.5117,6.2225,20.6867,3.2396,8.1811,7.3194,16.071,12.1268,23.4504,4.1851,6.4173,8.8563,12.3953,13.883,17.7668,5.6306,6.0088,11.6602,11.3955,17.9194,16.0106,5.7945,4.2778,11.3494,7.7431,16.9839,10.5955,3.1034,1.5722,6.781,3.3864,10.5287,4.9284,3.7395,1.5394,7.5527,2.8058,10.7897,3.8416,2.5626.8163,5.2304,1.5148,7.8105,2.19l2.062.5427c.1412.0372.237.0505.2963.0542.0315-.0636.0794-.1802.1261-.3763.1891-.7621.3619-1.5193.5194-2.2814,1.3376-6.4772,2.108-12.2333,2.3551-17.5979.15-3.2724.2206-6.493.2963-9.9021.0315-1.4555.0643-2.9219.1034-4.4051-.1588-1.3743-.3114-2.7623-.4653-4.1593-.3794-3.4412-.7717-6.9998-1.2722-10.5016-.4236-2.9597-1.0527-6.1418-1.9239-9.7269-.9834-4.0376-1.9101-7.2822-2.9168-10.2097-1.6649-4.8394-3.2742-9.0403-4.9201-12.8423-2.4491-5.647-5.0179-10.4846-7.854-14.7882l-.1216-.1854c-2.7441-4.1643-5.5814-8.4711-8.6495-12.459-4.9321-6.4016-10.5898-12.3291-17.2959-18.121-6.1457-5.3104-12.5919-9.9241-19.1599-13.7141-4.0937-2.3608-8.5398-4.6012-13.2136-6.6587-4.6667-2.0538-9.5421-3.7723-13.6951-5.1818-2.4825-.8403-5.1112-1.5003-7.6528-2.1389-.7614-.1909-1.5224-.382-2.2807-.5781-.0542-.0133-.1576-.0302-.2119.0037-.007.0044-.0138.0101-.0214.017l1.5558.4028c35.4201,9.1728,62.6716,29.1755,80.9983,59.4543,17.3205,28.6088,22.7115,60.3209,16.0244,94.2546l-.3064,1.5495-1.5318-.382c-28.2627-7.0395-51.5384-21.4747-69.1817-42.9053-26.219-31.8502-35.5916-69.1256-27.8573-110.7903l.2932-1.5779h-.0003ZM92.8124,31.8407c-7.0344,40.1077,2.2177,76.0107,27.5113,106.737,16.9032,20.5323,39.118,34.4909,66.0481,41.5071,6.0712-32.5884.7104-63.0475-15.945-90.5575-17.6351-29.1365-43.7424-48.5378-77.6144-57.6866h0Z"/>
  <path class="cls-2" d="M285.962,342.508c-.3228,0-.6518-.0454-.9796-.1362l-2.4509-.6733c-2.6387-.7212-5.3658-1.4662-8.0399-2.272-5.889-1.7714-11.5891-4.0168-16.9435-6.6732-4.3106-2.1357-8.6388-4.5262-12.8637-7.1033-3.418-2.0891-6.9683-4.5186-10.8539-7.4285-5.6634-4.2425-11.0229-9.1116-16.385-14.886-6.121-6.5888-11.6055-13.8307-16.2993-21.5264-4.076-6.6745-7.5356-13.6251-10.2828-20.6552-3.0681-7.8509-5.3861-15.7899-6.8894-23.5978-1.3957-7.2533-2.1471-13.9252-2.2958-20.3961-.0826-3.5503-.1369-7.7355.087-11.8613.2301-4.1826.7395-8.2316,1.2072-11.6414.3744-2.717.8926-5.4421,1.3938-8.0777l.4078-2.1603c.1935-1.0313.6449-1.7896,1.3427-2.2562.7129-.4772,1.6258-.602,2.7069-.3763.7931.1645,1.5886.3455,2.3791.5415,6.5964,1.6232,12.2698,3.4545,17.3445,5.5966,3.0422,1.2829,5.9874,2.6085,9.1053,4.0124,1.3604.6121,2.7321,1.2298,4.1228,1.8489l.1891.1002c1.1977.752,2.4119,1.5047,3.6323,2.2624,2.9603,1.8357,6.0202,3.7344,9.0031,5.7169,2.5744,1.7133,5.2511,3.708,8.1811,6.0977,3.3953,2.7775,5.9118,5.004,8.1634,7.2198,3.7445,3.6815,6.8938,6.9985,9.6261,10.1404,4.153,4.7651,7.5117,9.3038,10.2703,13.8766l.2093.3479c2.5707,4.2678,5.231,8.6804,7.5293,13.2142,3.6916,7.2861,6.7602,15.3537,9.1216,23.9799,2.1887,8.0084,3.6083,16.003,4.2186,23.7642.3757,4.8061.4854,9.8946.3265,15.1267-.1601,5.231-.7161,10.4455-1.2394,14.8569-.3265,2.751-.8788,5.4882-1.4133,8.1358-.15.7426-.3,1.4852-.445,2.2278-.1866.9355-.7098,1.7058-1.4751,2.176-.5144.3164-1.1006.4778-1.7109.4778l-.0003.0004h0ZM190.2694,187.4337c-5.2625,27.3373-2.2322,53.407,9.0132,77.5104,16.8326,36.0719,45.2427,59.8829,84.4566,70.7923,6.3228-34.5263.0567-66.4528-18.6342-94.9159-17.6521-26.8822-42.8233-44.8375-74.8356-53.3868h0Z"/>
  <path class="cls-2" d="M195.3503,369.3612c-.8926,0-1.7461-.3732-2.4144-1.059l-1.9416-1.9656c-1.8735-1.8911-3.8101-3.8466-5.671-5.8247-4.2085-4.472-8.0248-9.2692-11.3425-14.258-2.6766-4.0294-5.2271-8.2631-7.5822-12.5849-1.9296-3.539-3.7905-7.4171-5.6905-11.8576-2.7749-6.4779-4.9832-13.3767-6.7502-21.089-2.0065-8.7599-3.1368-17.7757-3.3605-26.7939-.1916-7.8205.2856-15.5693,1.4183-23.033,1.2589-8.2946,3.22-16.3308,5.8298-23.8821,2.4233-6.9948,5.1074-13.1498,8.2058-18.8183,1.6787-3.0732,3.7047-6.6915,6.0051-10.2255,2.3381-3.5806,4.8943-6.9456,6.8605-9.4772,1.6882-2.1767,3.5081-4.2842,5.2675-6.3215l1.4152-1.6422c.6783-.7955,1.448-1.228,2.2851-1.2847.8592-.0606,1.7089.2875,2.5348,1.0256.6064.544,1.204,1.0956,1.7929,1.663,4.8855,4.6876,8.8846,9.1103,12.2219,13.5186,2.0072,2.6527,3.9083,5.2953,5.9231,8.0935.8574,1.1915,1.7222,2.3936,2.6022,3.6052l.1135.1809c.6669,1.262,1.3477,2.5322,2.0336,3.8107,1.639,3.0581,3.3334,6.2201,4.9183,9.4166,1.3704,2.7636,2.6905,5.8298,4.0371,9.3733,1.5508,4.09,2.6186,7.2772,3.4633,10.3359,1.4032,5.0557,2.4723,9.5037,3.2691,13.5974,1.2141,6.2043,1.8546,11.8172,1.9593,17.1578l.0101.5622c.0921,4.9297.1878,10.0282-.0883,15.0511-.4413,8.1395-1.8155,16.6611-4.0861,25.3277-2.0953,8.0173-4.8615,15.6524-8.2215,22.6926-2.0715,4.3471-4.5186,8.809-7.2747,13.2608-2.7623,4.4593-5.8475,8.6943-8.5014,12.2471-1.6718,2.2405-3.539,4.3546-5.3444,6.3996-.4841.5484-.9696,1.0969-1.4498,1.6479-.6153.7124-1.4524,1.122-2.3526,1.1485-.0315.0013-.063.0013-.0945.0013h-.0004v.0002ZM188.348,186.753c-18.222,21.0372-28.6246,45.1287-30.9286,71.6338-3.452,39.6563,9.2491,74.4877,37.7557,103.5547,22.7343-26.7347,33.2655-57.5177,31.3024-91.5195-1.8508-32.1157-14.6767-60.2567-38.1295-83.6692h0Z"/>
  <path class="cls-2" d="M102.381,348.7438c-.5207,0-1.0288-.1249-1.4902-.3719-.8132-.4362-1.3988-1.204-1.649-2.1609l-.696-2.6665c-.6764-2.5808-1.3755-5.2499-2.0008-7.8988-1.4095-5.9824-2.3179-12.0442-2.6999-18.0165-.3007-4.8098-.3934-9.7546-.2749-14.6968.0984-4.0244.4249-8.3148.9985-13.1171.839-7.0288,2.3752-14.1068,4.6957-21.6374,2.642-8.5997,6.1676-16.9738,10.4802-24.8864,3.7375-6.8612,8.023-13.3339,12.7376-19.2369,5.2467-6.5642,10.9617-12.5421,16.9883-17.7674,5.5796-4.837,10.9788-8.8247,16.5072-12.1911,3-1.8281,6.5724-3.9531,10.3144-5.8512,3.7905-1.9258,7.6976-3.5648,10.6788-4.7771,2.5525-1.0395,5.1856-1.9573,7.7317-2.8449l2.0323-.7104c.9904-.3468,1.8716-.3354,2.6218.0334.7678.377,1.3326,1.1012,1.6807,2.1522.2534.7773.4955,1.5545.7212,2.3312,1.8899,6.5151,3.1406,12.3468,3.8265,17.8293.4098,3.278.735,6.4936,1.0792,9.897.15,1.4846.3013,2.9811.4614,4.4941l.0114.1071-.0037.1071c-.0529,1.4386-.0995,2.8904-.145,4.3522-.1084,3.4589-.2219,7.0357-.4463,10.5836-.1966,3.0977-.585,6.4149-1.1863,10.1404-.6897,4.2361-1.378,7.6302-2.1672,10.6825-1.2998,5.0368-2.5959,9.423-3.9614,13.4082-2.0551,5.9887-4.3068,11.1692-6.8844,15.8378l-.1822.3304c-2.4119,4.3711-4.9057,8.8909-7.6863,13.1537-4.5098,6.9216-9.8076,13.4297-16.1965,19.8938-5.8355,5.903-12.0472,11.1314-18.4641,15.539-3.9759,2.7296-8.3255,5.3697-12.9286,7.8457-4.5912,2.4635-9.3915,4.5956-13.4821,6.3556-2.548,1.0944-5.2,1.9845-7.765,2.8443-.7129.2395-1.4253.4791-2.1351.7225-.3726.1273-.7502.1904-1.1215.1904h-.0001v-.0002ZM186.001,186.6811c-26.2966,9.1065-47.3464,24.7653-62.5854,46.5609-22.8067,32.6174-29.214,69.1357-19.0534,108.5688,33.0474-11.7781,57.5523-33.1709,72.8505-63.6021,14.4434-28.733,17.3974-59.5192,8.7882-91.5276h.0001,0Z"/>
  <path class="cls-2" d="M61.8566,286.9509c-1.5198,0-3.0548-.0227-4.6024-.0706-5.2253-.1601-10.4404-.7161-14.8525-1.2394-2.7257-.3241-5.4403-.8738-8.0658-1.4045-.764-.1551-1.5281-.3101-2.2927-.459-.9248-.1802-1.6938-.6984-2.166-1.4587-.4872-.7842-.6121-1.7411-.3523-2.6955l.7697-2.804c.691-2.5278,1.4058-5.1414,2.176-7.6996,1.7739-5.9004,4.0181-11.6042,6.6688-16.9511,2.1307-4.303,4.5212-8.6325,7.1032-12.8687,2.0791-3.4091,4.5066-6.9594,7.4228-10.8552,4.2273-5.659,9.0952-11.0216,14.8816-16.3944,6.5964-6.1343,13.8357-11.6219,21.5163-16.3093,6.6563-4.0679,13.6018-7.5293,20.6438-10.2885,7.8477-3.0688,15.7836-5.3867,23.5884-6.8894,7.2482-1.3957,13.9183-2.1471,20.3917-2.2958,3.5484-.0826,7.7329-.1356,11.8563.087,3.3599.1854,6.9474.5572,11.6337,1.2078,2.7233.375,5.4567.8952,8.0998,1.3982l2.1314.4028c1.0301.1935,1.789.6449,2.2556,1.3427.4765.7124.6039,1.6232.377,2.7069-.1651.7968-.3404,1.5867-.5371,2.3822-1.6289,6.6139-3.4596,12.29-5.5966,17.3508-1.2891,3.0574-2.6218,6.0196-4.0332,9.1551-.6057,1.3465-1.216,2.7037-1.8281,4.0793l-.1002.1885c-.7747,1.2331-1.5489,2.4837-2.3286,3.7419-1.8123,2.9263-3.6872,5.9515-5.6457,8.8985-1.7336,2.6061-3.7288,5.2814-6.099,8.1824-2.6975,3.3108-4.9876,5.9067-7.2065,8.1698-3.6682,3.7318-6.9834,6.8826-10.136,9.6323-4.784,4.1643-9.3234,7.5242-13.8786,10.2716l-.3997.2408c-4.2481,2.5632-8.6414,5.2133-13.1511,7.5028-7.2885,3.6929-15.3531,6.7615-23.9704,9.1216-7.9914,2.1913-15.9835,3.6122-23.7548,4.2236-3.382.2648-6.9052.3971-10.5187.3971v.0004h0ZM36.1608,278.3689c34.5067,6.3329,66.42.063,94.8756-18.6393,26.8727-17.6596,44.8185-42.8441,53.3578-74.871-27.3292-5.2625-53.3849-2.2309-77.47,9.0184-36.0587,16.8427-59.8595,45.2642-70.7633,84.4919h-.0001Z"/>
  <path class="cls-2" d="M90.1742,228.3067c-2.4932,0-4.9971-.0454-7.4827-.1791-8.156-.447-16.6737-1.8218-25.3188-4.0868-8.0292-2.1055-15.6614-4.8735-22.6831-8.2272-4.3598-2.0841-8.8192-4.5331-13.2558-7.2797-4.4878-2.7826-8.7068-5.8613-12.2427-8.5065-2.1988-1.6396-4.2721-3.4722-6.278-5.2435-.5863-.5182-1.1725-1.0357-1.7619-1.5489-.7148-.6222-1.1227-1.4594-1.1498-2.3564-.0271-.9228.3468-1.8136,1.054-2.5077l1.7512-1.7317c1.9624-1.9442,3.991-3.9544,6.0436-5.8847,4.4506-4.1996,9.2446-8.0178,14.2468-11.3476,3.9601-2.6382,8.1925-5.1912,12.5788-7.5867,3.5529-1.9365,7.4304-3.7981,11.8544-5.6911,6.4722-2.7769,13.3673-4.987,21.0783-6.7552,8.7857-2.0122,17.7976-3.1431,26.7858-3.3605,7.8136-.1935,15.5586.2862,23.0217,1.4183,8.304,1.2608,16.3364,3.2238,23.8727,5.8348,6.9985,2.427,13.1504,5.1105,18.8083,8.2058,3.2818,1.7979,6.7912,3.7697,10.2224,6.0113,3.5781,2.3369,6.943,4.893,9.4747,6.8592,2.1805,1.6982,4.2936,3.5219,6.3366,5.2857l1.6226,1.3969c.7942.6827,1.2255,1.4518,1.2822,2.2877.058.8542-.2862,1.7065-1.0212,2.5342-.546.6096-1.0982,1.2078-1.6654,1.7953-4.7084,4.9082-9.1299,8.9093-13.5136,12.2282-2.5544,1.9341-5.1258,3.8338-7.7023,5.7306-5.3659,3.9389-11.4452,6.9217-17.3952,9.8695-2.7743,1.3755-5.8387,2.6962-9.3669,4.0376-4.0124,1.5224-7.2942,2.6243-10.3289,3.4671-5.0104,1.3901-9.4571,2.4598-13.5936,3.2698-6.1866,1.2103-11.7964,1.8495-17.1484,1.9542l-.1898.0031c-2.6105.0511-5.2669.1034-7.9353.1034l-.0004.0004ZM7.4177,190.6116c26.7196,22.7437,57.4887,33.2781,91.4816,31.3176,32.0999-1.8552,60.2284-14.6886,83.6289-38.1497-21.0328-18.2314-45.1135-28.6403-71.5999-30.9438-39.6469-3.4576-74.4599,9.2559-103.5107,37.7759h0Z"/>
  <path class="cls-2" d="M149.9163,191.74c-4.5967.097-9.195-.1108-13.7977-.4028-3.1034-.2017-6.416-.5913-10.1297-1.1908-4.2293-.6877-7.6207-1.3748-10.6755-2.1616-5.0708-1.315-9.4558-2.6129-13.4058-3.9676-5.9905-2.0608-11.1686-4.3137-15.8322-6.8888l-.2515-.1387c-4.3944-2.4251-8.9395-4.9328-13.2274-7.7298-6.8416-4.4657-13.5313-9.9185-19.8843-16.2079-5.896-5.833-11.1218-12.0467-15.5326-18.4678-2.7113-3.9487-5.3495-8.3016-7.8413-12.9394-2.49-4.6397-4.6081-9.4218-6.3511-13.4884-1.0798-2.5147-1.9611-5.1351-2.8134-7.6692-.2508-.7451-.5012-1.4902-.7564-2.2322-.3077-.8926-.2427-1.8206.1828-2.6116.4382-.815,1.2066-1.4001,2.1635-1.6472l2.5259-.6613c2.6249-.6903,5.3393-1.4032,8.0342-2.0393,5.976-1.4089,12.0341-2.3173,18.0064-2.6999,4.8112-.3051,9.7553-.3991,14.6931-.2749,3.9739.0927,8.2618.4192,13.1064.9985,7.0226.8384,14.0986,2.3747,21.6317,4.6957,8.611,2.6514,16.9807,6.1796,24.8769,10.4852,6.8649,3.7476,13.3333,8.0368,19.2268,12.7483,6.5693,5.2542,12.5453,10.9718,17.7624,16.9933,4.8363,5.5846,8.8203,10.9858,12.181,16.5123,1.8382,3.017,3.9715,6.6027,5.8512,10.3201,1.8924,3.7301,3.4766,7.4927,4.7764,10.6812,1.047,2.5707,1.9687,5.2227,2.8607,7.7877l.6903,1.9788c.3486.986.3385,1.8685-.0302,2.6212-.377.7697-1.1025,1.3365-2.1565,1.6844-.7697.2534-1.5476.4955-2.3255.7225-6.5384,1.8956-12.3682,3.1488-17.8242,3.8309-2.7655.3457-5.5412.609-8.3097.9033-2.4746.2631-4.9493.4036-7.4243.4559h-.0002ZM26.1579,99.1173c11.7737,33.0625,33.1557,57.5788,63.5732,72.8814,28.7274,14.4504,59.5015,17.4062,91.4923,8.7938-9.1053-26.306-24.7578-47.3653-46.542-62.6119-32.6016-22.8181-69.1054-29.2284-108.5235-19.0635h0Z"/>
</svg>