<?xml version="1.0" encoding="UTF-8"?>
<svg id="Layer_1" data-name="Layer 1" xmlns="http://www.w3.org/2000/svg" viewBox="0 0 72 72">
  <defs>
    <style>
      .cls-1 {
        fill: #fff;
      }
    </style>
  </defs>
  <path class="cls-1" d="M36,0C16.1177,0,0,16.1177,0,36s16.1177,36,36,36,36-16.1177,36-36S55.8823,0,36,0ZM24.9587,57h-9.085v-29.3333h9.085v29.3333ZM20.3725,23.8257c-2.9677,0-5.3725-2.4236-5.3725-5.4128s2.4048-5.4128,5.3725-5.4128,5.3711,2.4237,5.3711,5.4128-2.4034,5.4128-5.3711,5.4128ZM59,57h-9.0406v-15.3982c0-4.2218-1.6041-6.5811-4.9457-6.5811-3.6351,0-5.5344,2.4552-5.5344,6.5811v15.3982h-8.7126v-29.3333h8.7126v3.9512s2.6196-4.8474,8.8444-4.8474,10.6763,3.7994,10.6763,11.6574v18.5721Z"/>
</svg>