<svg xmlns="http://www.w3.org/2000/svg" xmlns:xlink="http://www.w3.org/1999/xlink" width="500" zoomAndPan="magnify" viewBox="0 0 375 374.999991" height="500" preserveAspectRatio="xMidYMid meet" version="1.0"><defs><g/><clipPath id="5a23ccc359"><path d="M 318 124.210938 L 340 124.210938 L 340 164 L 318 164 Z M 318 124.210938 " clip-rule="nonzero"/></clipPath><clipPath id="571b9ccd42"><path d="M 318 121 L 339 121 L 339 140.296875 L 318 140.296875 Z M 318 121 " clip-rule="nonzero"/></clipPath></defs><rect x="-37.5" width="450" fill="#ffffff" y="-37.499999" height="449.999989" fill-opacity="1"/><rect x="-37.5" width="450" fill="#f1f2f1" y="-37.499999" height="449.999989" fill-opacity="1"/><path fill="#0c0c0e" d="M 308.691406 167.125 C 306.515625 167.320312 304.15625 167.296875 302.003906 167.492188 C 299.949219 167.675781 296.945312 168.832031 295.308594 167.667969 L 295.308594 144.902344 C 295.308594 143.527344 292.898438 141.992188 291.519531 141.824219 C 287.84375 141.386719 285.503906 142.507812 285.164062 146.335938 C 284.882812 149.507812 285.679688 168.375 285.023438 169.316406 L 272.15625 171.101562 L 272.15625 144.902344 C 272.15625 144.671875 271.050781 143.007812 270.703125 142.742188 C 268.601562 141.140625 263.457031 141.382812 262.367188 144.15625 L 261.855469 172.550781 C 261.855469 172.550781 248.644531 175.796875 248.644531 175.796875 C 248.644531 170.453125 248.621094 165.105469 248.644531 159.757812 C 248.6875 150.113281 246.628906 138.867188 255.566406 132.308594 C 258.863281 129.886719 262.984375 128.71875 267.054688 128.753906 C 269.078125 128.773438 271.101562 129.085938 273.035156 129.683594 C 273.613281 129.867188 278.511719 132.398438 278.546875 132.378906 C 284.304688 129.066406 290.617188 127.644531 297.09375 129.914062 C 312.417969 135.277344 308.691406 154.394531 308.691406 167.125 Z M 308.691406 167.125 " fill-opacity="1" fill-rule="nonzero"/><path fill="#52a2c1" d="M 85.148438 186.277344 C 85.128906 185.917969 85.15625 185.550781 85.148438 185.195312 C 85.832031 185.632812 86.667969 185.160156 87.09375 185.210938 C 87.355469 185.238281 87.292969 185.851562 87.5625 185.914062 C 88.28125 186.078125 89.171875 185.785156 89.953125 185.929688 C 90.25 185.988281 90.898438 187.292969 91.195312 187.347656 C 92.75 187.644531 94.910156 187.742188 96.476562 188.089844 C 96.746094 188.152344 96.679688 188.71875 96.976562 188.792969 C 97.789062 189 100.347656 189.25 100.984375 189.609375 C 101.210938 189.742188 101.472656 190.726562 101.777344 191.085938 C 102.050781 191.402344 102.488281 191.304688 102.511719 191.335938 C 104.265625 193.8125 108.863281 202.847656 109.648438 205.707031 C 111.046875 210.828125 111.066406 225.90625 109.347656 230.867188 C 103.378906 248.078125 73.933594 243.941406 73.933594 224.761719 L 73.933594 208.136719 L 74.476562 207.597656 L 86.777344 207.597656 L 87.320312 208.136719 L 87.320312 225.84375 C 87.320312 226.628906 89.480469 228.386719 90.414062 228.535156 C 93.640625 229.042969 96.996094 228.578125 97.453125 224.769531 C 97.945312 220.703125 97.734375 211.578125 96.316406 207.824219 C 94.511719 203.054688 85.355469 189.835938 85.148438 186.277344 Z M 85.148438 186.277344 " fill-opacity="1" fill-rule="nonzero"/><path fill="#0c0c0e" d="M 77.550781 171.460938 C 76.035156 167.492188 74.34375 163.625 73.980469 159.3125 C 72.695312 144.074219 74.785156 127.242188 94.367188 128.832031 C 101.410156 129.402344 110.46875 136.359375 110.46875 143.820312 L 110.46875 163.152344 L 97.445312 163.152344 L 97.445312 146.351562 C 97.445312 144.71875 96.070312 142.242188 94.289062 141.917969 C 91.128906 141.34375 87.734375 141.960938 87.320312 145.628906 C 86.964844 148.78125 86.96875 156.558594 87.316406 159.722656 C 87.847656 164.5625 95.925781 177.015625 98.59375 182.058594 C 98.816406 182.476562 99.835938 184.246094 99.613281 184.46875 C 95.429688 183.578125 91.433594 181.972656 87.320312 180.855469 C 87.367188 180.648438 87.246094 180.25 87.320312 180.132812 C 87.558594 179.75 88.203125 179.421875 88.546875 178.652344 C 89.285156 176.992188 89.382812 174.746094 88.25 173.242188 C 85.949219 170.191406 82.269531 170.789062 79 171.460938 C 78.585938 171.546875 77.871094 171.347656 77.550781 171.460938 Z M 77.550781 171.460938 " fill-opacity="1" fill-rule="nonzero"/><path fill="#0c0c0e" d="M 191.675781 129.1875 L 191.855469 192.519531 C 191.628906 193.300781 180.449219 194.945312 178.835938 194.589844 L 178.835938 129.1875 Z M 191.675781 129.1875 " fill-opacity="1" fill-rule="nonzero"/><path fill="#0c0c0e" d="M 168.707031 129.1875 L 168.707031 195.671875 L 155.683594 195.3125 C 155.488281 195.3125 156.144531 195.113281 155.683594 195.3125 L 155.683594 129.1875 Z M 168.707031 129.1875 " fill-opacity="1" fill-rule="nonzero"/><path fill="#59b4b3" d="M 308.691406 205.066406 L 308.148438 241.199219 L 295.671875 241.199219 L 295.671875 206.152344 C 296.3125 206.445312 296.894531 205.636719 297.164062 207.546875 C 298.027344 207.628906 298.964844 207.675781 299.828125 207.59375 C 301.660156 207.410156 306.800781 205.761719 308.691406 205.066406 Z M 308.691406 205.066406 " fill-opacity="1" fill-rule="nonzero"/><path fill="#8b533c" d="M 87.320312 180.855469 C 80.242188 178.941406 73.035156 177.066406 65.914062 175.320312 C 61.039062 174.121094 56.066406 173.167969 51.144531 172.183594 C 51 171.253906 51.234375 171.621094 51.65625 171.429688 C 53.144531 170.746094 55.261719 170.488281 56.925781 169.828125 C 57.570312 169.574219 61.804688 167.679688 61.953125 167.445312 C 62.503906 166.566406 58.75 162.324219 58.125 162.140625 C 56.925781 161.789062 52.164062 162.285156 50.644531 162.472656 C 46.847656 162.9375 41.050781 165.136719 37.484375 163.636719 C 36.949219 163.410156 36.878906 162.636719 36.238281 162.335938 C 35.230469 161.859375 31.324219 161.851562 33.761719 159.695312 C 35.675781 158.003906 39.082031 158.113281 41.476562 158.539062 C 42.582031 158.738281 44.574219 159.882812 45.484375 159.804688 C 45.976562 159.761719 50.027344 157.449219 51.316406 156.996094 C 52.417969 156.609375 57.734375 155.078125 58.542969 155.191406 C 60.375 156.402344 62.363281 157.367188 64.136719 158.667969 C 65.789062 159.878906 73.289062 165.957031 73.695312 167.183594 C 73.980469 168.046875 74.613281 172.546875 75.023438 172.910156 C 76.066406 173.351562 77.207031 171.585938 77.550781 171.460938 C 77.871094 171.347656 78.585938 171.546875 79 171.460938 C 78.273438 172.421875 78.902344 172.003906 79.191406 172.34375 C 81.191406 174.695312 84.074219 175.828125 85.753906 178.082031 C 86.003906 178.414062 85.972656 180.226562 87.320312 180.132812 C 87.246094 180.25 87.367188 180.648438 87.320312 180.855469 Z M 87.320312 180.855469 " fill-opacity="1" fill-rule="nonzero"/><path fill="#59b4b3" d="M 303.628906 183.023438 C 303.921875 184.382812 303.328125 184.878906 301.988281 184.855469 C 300.382812 184.828125 300.824219 183.808594 300.371094 183.023438 C 299.871094 182.160156 297.414062 181.503906 295.351562 181.355469 C 295.339844 181.429688 295.320312 181.503906 295.304688 181.578125 C 295.308594 181.578125 295.308594 181.578125 295.308594 181.578125 C 295.074219 188.660156 295.621094 195.824219 295.308594 202.898438 L 298.921875 203.621094 C 299.269531 203.304688 297.285156 201.523438 298.75 201.808594 C 300 202.050781 301.628906 204.046875 302.691406 203.992188 C 303.023438 203.972656 307.855469 201.441406 308.632812 201.023438 C 308.800781 200.933594 308.65625 200.394531 308.691406 200.371094 L 308.691406 183.746094 C 308.699219 183.746094 308.710938 183.746094 308.71875 183.746094 C 308.714844 183.671875 308.710938 183.597656 308.703125 183.523438 L 304.550781 183.003906 M 303.035156 189.507812 C 301.691406 189.910156 300.75 187.449219 302.042969 187.03125 C 303.878906 186.433594 304.402344 189.097656 303.035156 189.507812 Z M 305.730469 191.359375 C 305.03125 191.359375 305.03125 190.273438 305.730469 190.273438 C 306.429688 190.273438 306.429688 191.359375 305.730469 191.359375 Z M 305.730469 191.359375 " fill-opacity="1" fill-rule="nonzero"/><path fill="#be4348" d="M 326.417969 159.175781 C 329.3125 163.003906 333.121094 163.921875 337.84375 163.539062 C 338.570312 163.480469 338.730469 163.488281 339.078125 162.789062 C 339.054688 163.796875 339.160156 164.808594 339.027344 165.8125 L 338.484375 166.351562 L 326.648438 166.714844 C 325.453125 166.3125 325.539062 161.570312 325.710938 160.449219 C 325.824219 159.691406 326.410156 159.25 326.417969 159.175781 Z M 326.417969 159.175781 " fill-opacity="1" fill-rule="nonzero"/><path fill="#6db6b9" d="M 226.613281 188.496094 C 226.726562 188.53125 226.832031 188.574219 226.941406 188.613281 L 226.941406 186.640625 L 230.199219 185.195312 C 228.449219 185.609375 226.816406 185.109375 226.582031 187.539062 C 226.550781 187.84375 226.527344 188.152344 226.5 188.464844 C 226.539062 188.476562 226.574219 188.484375 226.613281 188.496094 Z M 226.613281 188.496094 " fill-opacity="1" fill-rule="nonzero"/><path fill="#56abba" d="M 26.550781 161.34375 C 27.253906 161.167969 27.132812 161.796875 27.566406 162.042969 C 27.769531 162.160156 28.3125 161.96875 28.625 162.152344 C 29.433594 162.621094 30.882812 166.144531 32.335938 166.402344 C 32.597656 167.195312 32.65625 167.207031 33.058594 167.847656 C 33.414062 168.410156 32.546875 168.15625 33.785156 168.570312 C 33.789062 168.820312 33.921875 169.308594 33.597656 169.300781 C 31.671875 168.773438 29.902344 167.671875 28.359375 166.402344 C 28.273438 166.332031 27.839844 166.386719 27.472656 166.039062 C 26.132812 164.761719 26.074219 162.976562 26.550781 161.34375 Z M 26.550781 161.34375 " fill-opacity="1" fill-rule="nonzero"/><path fill="#52a2c1" d="M 32.335938 166.402344 C 30.882812 166.144531 29.433594 162.621094 28.625 162.152344 C 28.3125 161.96875 27.769531 162.160156 27.566406 162.042969 C 27.132812 161.796875 27.253906 161.167969 26.550781 161.34375 C 27.566406 157.839844 29.835938 158.074219 31.0625 161.355469 C 31.632812 162.878906 31.792969 164.757812 32.335938 166.402344 Z M 32.335938 166.402344 " fill-opacity="1" fill-rule="nonzero"/><path fill="#6db6b9" d="M 31.25 170.734375 C 27.84375 170.089844 24.699219 172.382812 21.488281 171.457031 C 20.695312 170.386719 24.863281 169.003906 25.644531 168.933594 C 27.40625 168.765625 30.292969 169.039062 31.25 170.738281 Z M 31.25 170.734375 " fill-opacity="1" fill-rule="nonzero"/><path fill="#6db6b9" d="M 27.242188 165.796875 C 28.808594 165.707031 31.671875 168.773438 33.597656 169.300781 C 33.921875 169.308594 33.789062 168.820312 33.785156 168.570312 C 32.546875 168.15625 33.414062 168.410156 33.058594 167.847656 C 33.082031 168.089844 33.777344 168.332031 33.785156 168.570312 C 34.207031 168.714844 36.496094 170.238281 35.953125 170.738281 C 33.195312 170.003906 28.898438 168.226562 27.242188 165.796875 Z M 27.242188 165.796875 " fill-opacity="1" fill-rule="nonzero"/><g clip-path="url(#5a23ccc359)"><path fill="#4d3128" d="M 334.53125 145.832031 C 329.714844 138.222656 327.191406 130.046875 321.566406 123.375 C 321.136719 122.867188 320.820312 122.261719 320.585938 121.640625 C 317.234375 121.84375 318.867188 125.773438 318.847656 127.925781 C 318.835938 129.039062 318.226562 130.546875 318.445312 131.460938 C 318.546875 131.871094 320.242188 132.265625 320.722656 133.25 C 321.578125 135.011719 321.410156 138.855469 321.964844 141.039062 C 322.832031 144.445312 325.28125 146.605469 326.417969 149.78125 C 326.429688 150.023438 326.398438 150.265625 326.417969 150.503906 C 326.578125 152.683594 326.515625 153.457031 326.417969 155.5625 C 326.40625 155.804688 326.4375 156.046875 326.417969 156.285156 C 326.375 156.761719 326.464844 157.257812 326.417969 157.730469 C 326.390625 157.964844 326.453125 158.226562 326.417969 158.453125 C 326.382812 158.679688 326.441406 158.941406 326.417969 159.175781 C 329.3125 163.003906 333.121094 163.921875 337.84375 163.539062 C 338.570312 163.480469 338.730469 163.488281 339.078125 162.789062 C 339.179688 158.011719 337.101562 149.894531 334.53125 145.832031 Z M 334.53125 145.832031 " fill-opacity="1" fill-rule="nonzero"/></g><path fill="#56abba" d="M 192.195312 197.339844 C 192.195312 197.339844 196.558594 196.035156 196.558594 196.035156 C 195.355469 196.140625 194.164062 195.894531 192.945312 196.398438 L 192.578125 194.589844 C 190.085938 194.96875 187.308594 195.097656 184.984375 196.035156 C 184.863281 196.046875 184.742188 196.023438 184.621094 196.035156 C 172.160156 197.171875 161.171875 197.863281 148.636719 196.75 C 119.71875 194.183594 92.488281 183.648438 64.445312 177.148438 C 53.09375 174.519531 41.777344 171.714844 29.980469 172.183594 C 29.542969 172.203125 28.636719 171.914062 28.722656 172.542969 C 47.113281 175.273438 65.082031 179.996094 83.0625 184.5625 L 85.148438 186.277344 C 85.128906 185.917969 85.15625 185.550781 85.148438 185.195312 C 85.832031 185.636719 86.667969 185.160156 87.09375 185.210938 C 87.355469 185.238281 87.292969 185.851562 87.5625 185.914062 C 88.28125 186.078125 89.171875 185.785156 89.953125 185.929688 C 90.25 185.988281 90.898438 187.292969 91.195312 187.347656 C 92.75 187.644531 94.910156 187.742188 96.476562 188.089844 C 96.746094 188.152344 96.679688 188.71875 96.976562 188.792969 C 97.789062 189 100.347656 189.25 100.984375 189.609375 C 101.210938 189.742188 101.472656 190.726562 101.777344 191.085938 C 102.050781 191.402344 102.488281 191.304688 102.511719 191.335938 C 102.617188 190.960938 101.644531 190.09375 102.6875 190.253906 C 106.617188 190.847656 112.375 193.390625 116.542969 194.484375 C 121.679688 195.832031 126.925781 196.820312 132.121094 197.890625 C 132.128906 201.828125 132.136719 205.765625 132.144531 209.703125 C 132.15625 215.566406 131.214844 222.5625 132.648438 228.28125 C 133.023438 229.78125 133.707031 231.183594 134.429688 232.546875 C 134.675781 233.011719 134.929688 233.472656 135.203125 233.921875 C 137.949219 238.394531 142.71875 240.871094 147.828125 241.492188 C 150.425781 241.808594 153.101562 241.664062 155.644531 241.027344 C 156.277344 240.871094 162.210938 238.101562 162.078125 238.003906 C 166.652344 241.324219 171.878906 242.179688 177.476562 241.46875 C 183.429688 240.714844 188.503906 236.335938 190.867188 230.964844 C 192.921875 226.300781 192.4375 219.96875 192.453125 214.933594 C 192.46875 209.066406 192.195312 203.207031 192.195312 197.339844 Z M 154.527344 227.777344 C 154.363281 227.972656 154.164062 228.140625 153.925781 228.273438 C 153.425781 228.550781 152.835938 228.597656 152.265625 228.640625 C 150.050781 228.800781 147.386719 228.75 146.195312 226.878906 C 145.570312 225.894531 145.550781 224.660156 145.550781 223.492188 C 145.554688 217.558594 145.554688 211.625 145.554688 205.6875 C 145.554688 203.53125 144.757812 200.6875 146.820312 199.734375 C 147.460938 199.4375 155.328125 200.128906 155.328125 200.007812 C 155.328125 208.164062 155.324219 216.316406 155.324219 224.46875 C 155.324219 225.617188 155.226562 226.945312 154.53125 227.777344 Z M 178.777344 225.117188 C 178.707031 225.847656 178.535156 226.554688 178.125 227.15625 C 176.972656 228.824219 174.539062 228.875 172.542969 228.523438 C 171.539062 228.34375 170.488281 228.074219 169.769531 227.351562 C 168.746094 226.316406 168.699219 224.691406 168.71875 223.234375 C 168.742188 221.203125 168.34375 199.769531 169.101562 199.664062 C 172.324219 199.179688 175.601562 199.089844 178.84375 199.390625 C 178.839844 207.496094 178.832031 215.601562 178.828125 223.707031 C 178.828125 224.171875 178.824219 224.648438 178.777344 225.117188 Z M 178.777344 225.117188 " fill-opacity="1" fill-rule="nonzero"/><path fill="#be4348" d="M 79 171.460938 C 82.269531 170.789062 85.949219 170.191406 88.25 173.242188 C 89.382812 174.746094 89.285156 176.992188 88.546875 178.652344 C 88.203125 179.421875 87.558594 179.75 87.320312 180.132812 C 85.972656 180.226562 86.003906 178.414062 85.753906 178.082031 C 84.074219 175.828125 81.191406 174.695312 79.191406 172.34375 C 78.902344 172.003906 78.273438 172.421875 79 171.460938 Z M 79 171.460938 " fill-opacity="1" fill-rule="nonzero"/><path fill="#448187" d="M 328.460938 169.710938 L 327.886719 170.242188 C 328.480469 172.117188 328.183594 173.503906 326.792969 174.910156 C 325.546875 176.167969 323.410156 176.871094 321.828125 177.566406 C 319.644531 178.527344 317.527344 179.402344 315.113281 179.507812 C 313.632812 179.570312 312.171875 179.738281 310.707031 179.835938 C 309.914062 179.886719 309.125 179.742188 308.332031 179.773438 C 303.644531 179.96875 300.28125 179.234375 295.671875 178.6875 C 295.550781 178.675781 295.425781 178.703125 295.308594 178.6875 C 294.835938 178.632812 294.332031 178.746094 293.863281 178.6875 C 291.023438 178.359375 288.253906 177.421875 285.542969 177.964844 C 285.558594 178.449219 285.53125 178.929688 285.542969 179.410156 C 287.15625 179.769531 288.328125 179.21875 288.234375 181.234375 L 288.664062 181.53125 C 290.03125 181.664062 291.410156 181.542969 292.777344 181.578125 C 294.3125 180.878906 299.609375 181.707031 300.371094 183.023438 C 300.585938 181.660156 302.167969 181.183594 303.179688 182.046875 C 303.429688 182.261719 303.453125 182.769531 303.628906 183.023438 C 303.78125 183.25 303.660156 182.71875 303.628906 183.023438 L 304.550781 183.003906 L 310.5 183.746094 C 311.996094 183.785156 314.03125 184.503906 315.40625 185.167969 C 316.734375 185.808594 316.480469 186.941406 315.308594 187.289062 C 313.96875 187.6875 311.882812 186.378906 311.046875 188.089844 C 310.789062 188.625 310.945312 189.335938 310.660156 189.871094 C 309.785156 191.515625 308.605469 191.902344 309.070312 194.390625 C 309.382812 196.074219 312.382812 198.449219 312.308594 198.738281 C 311.789062 199.960938 308.953125 200.195312 308.691406 200.371094 C 308.65625 200.394531 308.800781 200.933594 308.632812 201.023438 C 307.855469 201.441406 303.023438 203.972656 302.691406 203.992188 C 301.628906 204.046875 300 202.050781 298.75 201.808594 C 297.285156 201.523438 299.269531 203.304688 298.921875 203.621094 L 295.308594 202.898438 C 295.273438 203.714844 295.6875 204.699219 294.65625 204.765625 L 294.585938 205.242188 C 294.894531 205.609375 295.226562 205.949219 295.671875 206.152344 C 296.3125 206.445312 296.894531 205.636719 297.164062 207.546875 C 298.027344 207.628906 298.964844 207.675781 299.828125 207.59375 C 301.660156 207.410156 306.800781 205.761719 308.691406 205.066406 C 313.675781 203.230469 316.542969 200.667969 319.898438 196.566406 C 321.398438 194.730469 322.917969 191.027344 324.964844 190.066406 C 327.226562 189.007812 328.460938 189.566406 330.394531 187.179688 C 334.355469 182.285156 336.152344 175.214844 337.988281 169.296875 Z M 328.460938 169.710938 " fill-opacity="1" fill-rule="nonzero"/><path fill="#5aafb8" d="M 220.800781 186.945312 C 218.636719 188.710938 215.960938 189.851562 213.1875 190.058594 L 213.1875 241.730469 L 226.941406 241.730469 L 226.941406 186.945312 Z M 220.800781 186.945312 " fill-opacity="1" fill-rule="nonzero"/><path fill="#59b4b3" d="M 336.003906 167.488281 C 332.152344 167.332031 328.269531 167.613281 324.410156 167.472656 C 324.410156 167.472656 311.949219 168.570312 311.949219 168.570312 C 309.070312 168.746094 306.296875 169.070312 303.445312 169.292969 C 281.675781 170.976562 259.421875 174.019531 238.519531 180.316406 C 223.917969 184.714844 209.761719 190.492188 194.867188 193.90625 C 194.21875 194.054688 193.78125 194.109375 193.304688 194.589844 C 193.074219 194.625 192.808594 194.554688 192.578125 194.589844 L 192.945312 196.398438 C 194.164062 195.894531 195.355469 196.140625 196.558594 196.035156 C 196.679688 196.023438 196.800781 196.046875 196.921875 196.035156 C 199.265625 195.765625 200.640625 195.066406 202.707031 194.589844 C 202.921875 194.539062 203.21875 194.640625 203.429688 194.589844 C 206.464844 193.851562 209.363281 192.929688 212.359375 192.101562 C 212.78125 191.984375 213.089844 191.695312 213.492188 191.804688 C 213.6875 191.625 213.890625 191.449219 214.09375 191.277344 C 214.773438 190.71875 215.503906 190.222656 216.289062 189.847656 C 219.40625 188.351562 223.046875 187.390625 226.5 188.464844 C 226.527344 188.152344 226.550781 187.84375 226.582031 187.539062 C 226.816406 185.109375 228.449219 185.609375 230.199219 185.195312 C 236.394531 183.71875 242.351562 181.277344 248.644531 180.132812 L 248.644531 241.359375 L 252.597656 241.359375 C 252.859375 241.359375 253.128906 241.359375 253.402344 241.359375 L 261.675781 241.359375 L 261.675781 238.914062 L 262.027344 177.78125 L 262.191406 177.222656 L 272.160156 175.4375 L 272.160156 241.199219 L 285 241.199219 L 285.597656 241.195312 C 285.179688 221.078125 286.058594 199.324219 285.542969 179.410156 C 285.53125 178.929688 285.558594 178.449219 285.542969 177.964844 C 285.539062 177.902344 285.183594 177.382812 285.15625 176.746094 C 285.117188 175.960938 285 173.417969 285.519531 173.066406 C 288.859375 172.355469 292.300781 172.277344 295.671875 171.824219 L 295.671875 178.6875 C 300.28125 179.234375 303.644531 179.96875 308.332031 179.773438 C 308.425781 179.769531 308.523438 179.769531 308.617188 179.769531 C 308.640625 179.59375 308.667969 179.417969 308.695312 179.242188 L 309.046875 170.183594 C 309.25 170.007812 309.59375 170.089844 309.777344 170.015625 L 337.265625 167.84375 C 337.351562 167.214844 336.445312 167.503906 336.007812 167.488281 Z M 211.28125 190.019531 C 211.398438 189.992188 211.507812 189.960938 211.613281 189.925781 C 211.507812 189.960938 211.398438 189.992188 211.28125 190.019531 Z M 211.28125 190.019531 " fill-opacity="1" fill-rule="nonzero"/><path fill="#59b4b3" d="M 310.503906 169.621094 C 310.550781 169.621094 310.597656 169.625 310.644531 169.636719 C 310.597656 169.625 310.550781 169.621094 310.503906 169.621094 Z M 310.503906 169.621094 " fill-opacity="1" fill-rule="nonzero"/><path fill="#59b4b3" d="M 321.941406 168.242188 C 322.929688 168.242188 323.886719 168.351562 324.800781 168.550781 L 329.308594 168.207031 C 329.390625 167.574219 328.488281 167.867188 328.046875 167.847656 C 325.890625 167.753906 323.738281 168.011719 321.589844 168.25 C 321.707031 168.246094 321.824219 168.242188 321.941406 168.242188 Z M 321.941406 168.242188 " fill-opacity="1" fill-rule="nonzero"/><path fill="#0c0c0e" d="M 226.945312 182.03125 L 226.945312 129.207031 L 213.1875 129.207031 L 213.1875 186.886719 C 215.796875 186.242188 218.277344 185.183594 220.890625 184.550781 C 222.871094 183.574219 224.96875 183.019531 226.945312 182.03125 Z M 226.945312 182.03125 " fill-opacity="1" fill-rule="nonzero"/><path fill="#0c0c0e" d="M 145.402344 194.476562 L 145.402344 129.207031 L 131.648438 129.207031 L 131.648438 192.164062 C 135.101562 192.671875 138.476562 193.148438 141.867188 193.96875 C 143.035156 193.988281 144.238281 194.453125 145.402344 194.476562 Z M 145.402344 194.476562 " fill-opacity="1" fill-rule="nonzero"/><g clip-path="url(#571b9ccd42)"><path fill="#4d3128" d="M 334.414062 145.835938 C 329.597656 138.230469 327.074219 130.050781 321.445312 123.378906 C 321.015625 122.871094 320.703125 122.265625 320.46875 121.648438 C 317.117188 121.847656 318.75 125.777344 318.730469 127.933594 C 318.71875 129.042969 318.105469 130.554688 318.328125 131.464844 C 318.429688 131.878906 320.125 132.273438 320.601562 133.253906 C 321.460938 135.015625 321.292969 138.859375 321.847656 141.042969 C 322.714844 144.449219 325.164062 146.609375 326.296875 149.789062 C 326.3125 150.027344 326.28125 150.273438 326.296875 150.511719 C 326.460938 152.691406 326.398438 153.460938 326.296875 155.570312 C 326.289062 155.808594 326.320312 156.054688 326.296875 156.292969 C 326.257812 156.765625 326.347656 157.265625 326.296875 157.738281 C 326.273438 157.972656 326.332031 158.234375 326.296875 158.460938 C 326.261719 158.6875 326.324219 158.949219 326.296875 159.183594 C 329.191406 163.007812 333.003906 163.929688 337.726562 163.542969 C 338.453125 163.484375 338.613281 163.492188 338.957031 162.796875 C 339.0625 158.015625 336.984375 149.898438 334.414062 145.835938 Z M 334.414062 145.835938 " fill-opacity="1" fill-rule="nonzero"/></g><g fill="#000000" fill-opacity="1"><g transform="translate(78.177979, 120.643528)"><g><path d="M 1.707031 -13.890625 L 4.410156 -13.890625 C 5.519531 -13.890625 6.378906 -13.753906 6.988281 -13.488281 C 7.605469 -13.214844 8.09375 -12.796875 8.449219 -12.230469 C 8.808594 -11.667969 8.988281 -11.042969 8.988281 -10.355469 C 8.988281 -9.710938 8.828125 -9.128906 8.515625 -8.597656 C 8.199219 -8.070312 7.738281 -7.644531 7.128906 -7.316406 L 7.046875 -7.476562 L 7.101562 -7.644531 C 7.839844 -7.394531 8.410156 -7.097656 8.8125 -6.757812 C 9.214844 -6.414062 9.53125 -6 9.757812 -5.511719 C 9.984375 -5.027344 10.09375 -4.5 10.09375 -3.933594 C 10.09375 -2.78125 9.675781 -1.808594 8.832031 -1.011719 C 7.992188 -0.21875 6.871094 0.179688 5.472656 0.179688 L 1.527344 0.179688 L 1.527344 -13.890625 Z M 1.707031 -13.53125 L 1.707031 -13.710938 L 1.882812 -13.710938 L 1.882812 0 L 1.707031 0 L 1.707031 -0.179688 L 5.472656 -0.179688 C 6.777344 -0.179688 7.816406 -0.542969 8.585938 -1.273438 C 9.355469 -1.996094 9.738281 -2.882812 9.738281 -3.933594 C 9.738281 -4.449219 9.636719 -4.925781 9.433594 -5.363281 C 9.230469 -5.800781 8.945312 -6.175781 8.578125 -6.484375 C 8.210938 -6.796875 7.679688 -7.070312 6.988281 -7.304688 L 6.597656 -7.4375 L 6.960938 -7.632812 C 7.511719 -7.925781 7.925781 -8.3125 8.207031 -8.78125 C 8.488281 -9.253906 8.628906 -9.777344 8.628906 -10.355469 C 8.628906 -10.972656 8.46875 -11.535156 8.148438 -12.039062 C 7.828125 -12.542969 7.394531 -12.917969 6.84375 -13.160156 C 6.28125 -13.40625 5.46875 -13.53125 4.410156 -13.53125 Z M 3.226562 -12.367188 L 3.226562 -7.976562 L 3.046875 -7.976562 L 3.046875 -8.15625 L 3.832031 -8.15625 C 4.757812 -8.15625 5.433594 -8.242188 5.863281 -8.410156 C 6.273438 -8.574219 6.601562 -8.832031 6.84375 -9.183594 C 7.082031 -9.535156 7.203125 -9.925781 7.203125 -10.355469 C 7.203125 -10.925781 7.003906 -11.371094 6.609375 -11.691406 C 6.207031 -12.023438 5.546875 -12.1875 4.632812 -12.1875 L 3.046875 -12.1875 L 3.046875 -12.367188 Z M 2.867188 -12.546875 L 4.632812 -12.546875 C 5.632812 -12.546875 6.367188 -12.355469 6.835938 -11.96875 C 7.320312 -11.578125 7.558594 -11.039062 7.558594 -10.355469 C 7.558594 -9.851562 7.417969 -9.394531 7.136719 -8.980469 C 6.855469 -8.570312 6.476562 -8.269531 5.992188 -8.078125 C 5.523438 -7.890625 4.804688 -7.800781 3.832031 -7.800781 L 2.867188 -7.800781 Z M 3.226562 -6.597656 L 3.226562 -1.34375 L 3.046875 -1.34375 L 3.046875 -1.519531 L 4.742188 -1.519531 C 5.71875 -1.519531 6.429688 -1.613281 6.875 -1.800781 C 7.308594 -1.984375 7.65625 -2.265625 7.917969 -2.652344 C 8.179688 -3.039062 8.3125 -3.457031 8.3125 -3.90625 C 8.3125 -4.46875 8.128906 -4.960938 7.757812 -5.382812 C 7.386719 -5.804688 6.871094 -6.097656 6.210938 -6.257812 C 5.757812 -6.367188 4.960938 -6.417969 3.820312 -6.417969 L 3.046875 -6.417969 L 3.046875 -6.597656 Z M 2.867188 -6.777344 L 3.820312 -6.777344 C 4.992188 -6.777344 5.816406 -6.71875 6.296875 -6.605469 C 7.027344 -6.429688 7.605469 -6.097656 8.027344 -5.617188 C 8.457031 -5.128906 8.667969 -4.558594 8.667969 -3.90625 C 8.667969 -3.382812 8.519531 -2.898438 8.214844 -2.453125 C 7.910156 -2.007812 7.511719 -1.679688 7.011719 -1.46875 C 6.523438 -1.265625 5.769531 -1.164062 4.742188 -1.164062 L 2.867188 -1.164062 Z M 2.867188 -6.777344 "/></g></g></g><g fill="#000000" fill-opacity="1"><g transform="translate(91.290069, 120.643528)"><g><path d="M 1.667969 -13.890625 L 3.226562 -13.890625 L 3.226562 -1.324219 L 3.046875 -1.324219 L 3.046875 -1.503906 L 8.492188 -1.503906 L 8.492188 0.179688 L 1.488281 0.179688 L 1.488281 -13.890625 Z M 1.667969 -13.53125 L 1.667969 -13.710938 L 1.847656 -13.710938 L 1.847656 0 L 1.667969 0 L 1.667969 -0.179688 L 8.3125 -0.179688 L 8.3125 0 L 8.132812 0 L 8.132812 -1.324219 L 8.3125 -1.324219 L 8.3125 -1.144531 L 2.867188 -1.144531 L 2.867188 -13.710938 L 3.046875 -13.710938 L 3.046875 -13.53125 Z M 1.667969 -13.53125 "/></g></g></g><g fill="#000000" fill-opacity="1"><g transform="translate(102.259597, 120.643528)"><g><path d="M 7.433594 -13.785156 L 13.945312 0.179688 L 12.078125 0.179688 L 9.875 -4.433594 L 10.039062 -4.511719 L 10.039062 -4.332031 L 4.128906 -4.332031 L 4.128906 -4.511719 L 4.289062 -4.433594 L 2.097656 0.179688 L 0.175781 0.179688 L 6.820312 -13.890625 L 7.382812 -13.890625 Z M 7.109375 -13.632812 L 7.269531 -13.710938 L 7.269531 -13.53125 L 6.933594 -13.53125 L 6.933594 -13.710938 L 7.097656 -13.632812 L 0.617188 0.078125 L 0.457031 0 L 0.457031 -0.179688 L 1.984375 -0.179688 L 1.984375 0 L 1.824219 -0.078125 L 4.015625 -4.691406 L 10.152344 -4.691406 L 12.351562 -0.078125 L 12.191406 0 L 12.191406 -0.179688 L 13.664062 -0.179688 L 13.664062 0 L 13.5 0.0742188 Z M 7.261719 -10.726562 L 4.90625 -5.757812 L 4.742188 -5.835938 L 4.742188 -6.011719 L 9.433594 -6.011719 L 9.433594 -5.835938 L 9.269531 -5.757812 L 6.941406 -10.726562 L 7.101562 -10.800781 Z M 7.101562 -11.222656 L 9.714844 -5.65625 L 4.460938 -5.65625 L 6.941406 -10.878906 Z M 7.101562 -11.222656 "/></g></g></g><g fill="#000000" fill-opacity="1"><g transform="translate(118.529638, 120.643528)"><g><path d="M 14.546875 -11.023438 L 13.324219 -10.085938 L 13.214844 -10.226562 C 12.632812 -10.980469 11.941406 -11.550781 11.128906 -11.941406 C 10.320312 -12.328125 9.425781 -12.523438 8.453125 -12.523438 C 7.390625 -12.523438 6.40625 -12.269531 5.503906 -11.761719 C 4.597656 -11.25 3.898438 -10.566406 3.402344 -9.710938 C 2.90625 -8.851562 2.65625 -7.886719 2.65625 -6.8125 C 2.65625 -5.191406 3.214844 -3.839844 4.324219 -2.757812 C 5.433594 -1.671875 6.839844 -1.128906 8.539062 -1.128906 C 10.402344 -1.128906 11.964844 -1.859375 13.21875 -3.324219 L 13.328125 -3.449219 L 14.691406 -2.417969 L 14.578125 -2.273438 C 13.875 -1.382812 13 -0.691406 11.953125 -0.207031 C 10.90625 0.28125 9.742188 0.523438 8.453125 0.523438 C 6 0.523438 4.0625 -0.296875 2.640625 -1.933594 C 1.449219 -3.316406 0.855469 -4.980469 0.855469 -6.933594 C 0.855469 -8.992188 1.578125 -10.722656 3.019531 -12.128906 C 4.460938 -13.53125 6.265625 -14.234375 8.433594 -14.234375 C 9.742188 -14.234375 10.925781 -13.972656 11.980469 -13.457031 C 13.039062 -12.9375 13.90625 -12.207031 14.582031 -11.269531 L 14.683594 -11.128906 Z M 14.328125 -11.308594 L 14.4375 -11.164062 L 14.292969 -11.0625 C 13.652344 -11.949219 12.828125 -12.640625 11.824219 -13.132812 C 10.816406 -13.628906 9.6875 -13.875 8.433594 -13.875 C 6.363281 -13.875 4.644531 -13.207031 3.269531 -11.871094 C 1.898438 -10.535156 1.214844 -8.890625 1.214844 -6.933594 C 1.214844 -5.070312 1.78125 -3.480469 2.914062 -2.167969 C 4.261719 -0.613281 6.109375 0.164062 8.453125 0.164062 C 9.6875 0.164062 10.804688 -0.0664062 11.804688 -0.53125 C 12.800781 -0.992188 13.628906 -1.648438 14.296875 -2.496094 L 14.4375 -2.386719 L 14.328125 -2.242188 L 13.246094 -3.0625 L 13.355469 -3.207031 L 13.492188 -3.089844 C 12.164062 -1.542969 10.511719 -0.773438 8.539062 -0.773438 C 6.742188 -0.773438 5.253906 -1.347656 4.074219 -2.5 C 2.890625 -3.652344 2.300781 -5.089844 2.300781 -6.8125 C 2.300781 -7.949219 2.566406 -8.976562 3.09375 -9.890625 C 3.621094 -10.804688 4.367188 -11.53125 5.328125 -12.070312 C 6.285156 -12.613281 7.328125 -12.882812 8.453125 -12.882812 C 9.480469 -12.882812 10.425781 -12.675781 11.285156 -12.261719 C 12.144531 -11.851562 12.882812 -11.246094 13.496094 -10.445312 L 13.355469 -10.335938 L 13.246094 -10.476562 Z M 14.328125 -11.308594 "/></g></g></g><g fill="#000000" fill-opacity="1"><g transform="translate(136.197003, 120.643528)"><g><path d="M 1.667969 -13.890625 L 3.246094 -13.890625 L 3.246094 -8.566406 L 3.066406 -8.566406 L 2.945312 -8.695312 L 8.464844 -13.890625 L 10.847656 -13.890625 L 3.925781 -7.429688 L 3.800781 -7.558594 L 3.933594 -7.679688 L 11.316406 0.179688 L 9.011719 0.179688 L 2.9375 -6.269531 L 3.066406 -6.394531 L 3.246094 -6.394531 L 3.246094 0.179688 L 1.488281 0.179688 L 1.488281 -13.890625 Z M 1.667969 -13.53125 L 1.667969 -13.710938 L 1.847656 -13.710938 L 1.847656 0 L 1.667969 0 L 1.667969 -0.179688 L 3.066406 -0.179688 L 3.066406 0 L 2.886719 0 L 2.886719 -6.84375 L 9.21875 -0.121094 L 9.085938 0 L 9.085938 -0.179688 L 10.90625 -0.179688 L 10.90625 0 L 10.773438 0.121094 L 3.550781 -7.566406 L 10.269531 -13.839844 L 10.390625 -13.710938 L 10.390625 -13.53125 L 8.539062 -13.53125 L 8.539062 -13.710938 L 8.660156 -13.578125 L 2.886719 -8.152344 L 2.886719 -13.710938 L 3.066406 -13.710938 L 3.066406 -13.53125 Z M 1.667969 -13.53125 "/></g></g></g><g fill="#000000" fill-opacity="1"><g transform="translate(149.62582, 120.643528)"><g/></g></g><g fill="#000000" fill-opacity="1"><g transform="translate(157.064776, 120.643528)"><g><path d="M 1.660156 -13.890625 L 4.390625 -13.890625 C 5.96875 -13.890625 7.039062 -13.820312 7.601562 -13.679688 C 8.421875 -13.476562 9.09375 -13.0625 9.617188 -12.429688 C 10.140625 -11.796875 10.402344 -11.007812 10.402344 -10.054688 C 10.402344 -9.101562 10.148438 -8.308594 9.636719 -7.683594 C 9.125 -7.058594 8.425781 -6.640625 7.535156 -6.425781 C 6.898438 -6.273438 5.722656 -6.195312 4.007812 -6.195312 L 3.027344 -6.195312 L 3.027344 -6.375 L 3.207031 -6.375 L 3.207031 0.179688 L 1.480469 0.179688 L 1.480469 -13.890625 Z M 1.660156 -13.53125 L 1.660156 -13.710938 L 1.839844 -13.710938 L 1.839844 0 L 1.660156 0 L 1.660156 -0.179688 L 3.027344 -0.179688 L 3.027344 0 L 2.851562 0 L 2.851562 -6.554688 L 4.007812 -6.554688 C 5.695312 -6.554688 6.84375 -6.625 7.453125 -6.773438 C 8.261719 -6.96875 8.898438 -7.347656 9.359375 -7.910156 C 9.816406 -8.46875 10.046875 -9.183594 10.046875 -10.054688 C 10.046875 -10.921875 9.808594 -11.636719 9.339844 -12.203125 C 8.867188 -12.773438 8.261719 -13.148438 7.515625 -13.332031 C 6.984375 -13.464844 5.941406 -13.53125 4.390625 -13.53125 Z M 3.207031 -12.378906 L 3.207031 -7.71875 L 3.027344 -7.71875 L 3.03125 -7.894531 L 5.351562 -7.867188 C 6.265625 -7.867188 6.929688 -7.949219 7.34375 -8.113281 C 7.742188 -8.269531 8.058594 -8.523438 8.285156 -8.871094 C 8.515625 -9.226562 8.628906 -9.621094 8.628906 -10.054688 C 8.628906 -10.480469 8.515625 -10.871094 8.285156 -11.222656 C 8.058594 -11.570312 7.757812 -11.820312 7.386719 -11.96875 C 7 -12.121094 6.355469 -12.199219 5.453125 -12.199219 L 3.027344 -12.199219 L 3.027344 -12.378906 Z M 2.851562 -12.554688 L 5.453125 -12.554688 C 6.402344 -12.554688 7.089844 -12.472656 7.515625 -12.300781 C 7.960938 -12.125 8.316406 -11.832031 8.585938 -11.417969 C 8.851562 -11.003906 8.988281 -10.550781 8.988281 -10.054688 C 8.988281 -9.546875 8.851562 -9.089844 8.585938 -8.675781 C 8.316406 -8.261719 7.945312 -7.964844 7.476562 -7.777344 C 7.019531 -7.601562 6.308594 -7.511719 5.347656 -7.511719 L 2.851562 -7.539062 Z M 2.851562 -12.554688 "/></g></g></g><g fill="#000000" fill-opacity="1"><g transform="translate(170.512224, 120.643528)"><g><path d="M 1.675781 -13.890625 L 9.714844 -13.890625 L 9.714844 -12.179688 L 3.046875 -12.179688 L 3.046875 -12.359375 L 3.226562 -12.359375 L 3.226562 -8.070312 L 3.046875 -8.070312 L 3.046875 -8.25 L 9.65625 -8.25 L 9.65625 -6.550781 L 3.046875 -6.550781 L 3.046875 -6.730469 L 3.226562 -6.730469 L 3.226562 -1.351562 L 3.046875 -1.351562 L 3.046875 -1.53125 L 9.65625 -1.53125 L 9.65625 0.179688 L 1.5 0.179688 L 1.5 -13.890625 Z M 1.675781 -13.53125 L 1.675781 -13.710938 L 1.855469 -13.710938 L 1.855469 0 L 1.675781 0 L 1.675781 -0.179688 L 9.476562 -0.179688 L 9.476562 0 L 9.300781 0 L 9.300781 -1.351562 L 9.476562 -1.351562 L 9.476562 -1.171875 L 2.867188 -1.171875 L 2.867188 -6.90625 L 9.476562 -6.90625 L 9.476562 -6.730469 L 9.300781 -6.730469 L 9.300781 -8.070312 L 9.476562 -8.070312 L 9.476562 -7.890625 L 2.867188 -7.890625 L 2.867188 -12.539062 L 9.535156 -12.539062 L 9.535156 -12.359375 L 9.355469 -12.359375 L 9.355469 -13.710938 L 9.535156 -13.710938 L 9.535156 -13.53125 Z M 1.675781 -13.53125 "/></g></g></g><g fill="#000000" fill-opacity="1"><g transform="translate(182.897706, 120.643528)"><g><path d="M 8.203125 -14.234375 C 10.324219 -14.234375 12.105469 -13.523438 13.539062 -12.101562 C 14.972656 -10.683594 15.6875 -8.933594 15.6875 -6.859375 C 15.6875 -4.804688 14.972656 -3.058594 13.542969 -1.625 C 12.113281 -0.191406 10.371094 0.523438 8.3125 0.523438 C 6.234375 0.523438 4.476562 -0.191406 3.042969 -1.617188 C 1.609375 -3.042969 0.894531 -4.769531 0.894531 -6.792969 C 0.894531 -8.144531 1.21875 -9.394531 1.871094 -10.546875 C 2.523438 -11.699219 3.414062 -12.601562 4.542969 -13.253906 C 5.667969 -13.90625 6.890625 -14.234375 8.203125 -14.234375 Z M 8.203125 -13.875 C 6.953125 -13.875 5.792969 -13.566406 4.722656 -12.945312 C 3.648438 -12.324219 2.804688 -11.464844 2.183594 -10.367188 C 1.5625 -9.273438 1.25 -8.082031 1.25 -6.792969 C 1.25 -4.867188 1.933594 -3.226562 3.296875 -1.871094 C 4.65625 -0.511719 6.332031 0.164062 8.3125 0.164062 C 10.269531 0.164062 11.929688 -0.515625 13.289062 -1.878906 C 14.648438 -3.242188 15.328125 -4.902344 15.328125 -6.859375 C 15.328125 -8.835938 14.648438 -10.5 13.285156 -11.847656 C 11.921875 -13.199219 10.226562 -13.875 8.203125 -13.875 Z M 8.265625 -12.535156 C 7.285156 -12.535156 6.355469 -12.277344 5.476562 -11.765625 C 4.597656 -11.253906 3.910156 -10.5625 3.417969 -9.699219 C 2.921875 -8.832031 2.675781 -7.863281 2.675781 -6.792969 C 2.675781 -5.214844 3.222656 -3.882812 4.316406 -2.796875 C 5.410156 -1.710938 6.726562 -1.167969 8.265625 -1.167969 C 9.296875 -1.167969 10.25 -1.417969 11.128906 -1.917969 C 12.003906 -2.417969 12.6875 -3.097656 13.175781 -3.964844 C 13.667969 -4.832031 13.914062 -5.796875 13.914062 -6.859375 C 13.914062 -7.914062 13.667969 -8.867188 13.175781 -9.71875 C 12.6875 -10.570312 11.996094 -11.253906 11.105469 -11.765625 C 10.210938 -12.277344 9.265625 -12.535156 8.265625 -12.535156 Z M 8.265625 -12.890625 C 9.332031 -12.890625 10.335938 -12.621094 11.28125 -12.074219 C 12.230469 -11.53125 12.964844 -10.804688 13.488281 -9.898438 C 14.007812 -8.992188 14.269531 -7.980469 14.269531 -6.859375 C 14.269531 -5.734375 14.011719 -4.710938 13.488281 -3.789062 C 12.964844 -2.867188 12.238281 -2.136719 11.304688 -1.605469 C 10.375 -1.074219 9.359375 -0.808594 8.265625 -0.808594 C 6.628906 -0.808594 5.226562 -1.386719 4.0625 -2.542969 C 2.898438 -3.699219 2.320312 -5.117188 2.320312 -6.792969 C 2.320312 -7.925781 2.582031 -8.953125 3.105469 -9.875 C 3.632812 -10.796875 4.363281 -11.53125 5.296875 -12.074219 C 6.230469 -12.621094 7.222656 -12.890625 8.265625 -12.890625 Z M 8.265625 -12.890625 "/></g></g></g><g fill="#000000" fill-opacity="1"><g transform="translate(201.636352, 120.643528)"><g><path d="M 1.660156 -13.890625 L 4.390625 -13.890625 C 5.96875 -13.890625 7.039062 -13.820312 7.601562 -13.679688 C 8.421875 -13.476562 9.09375 -13.0625 9.617188 -12.429688 C 10.140625 -11.796875 10.402344 -11.007812 10.402344 -10.054688 C 10.402344 -9.101562 10.148438 -8.308594 9.636719 -7.683594 C 9.125 -7.058594 8.425781 -6.640625 7.535156 -6.425781 C 6.898438 -6.273438 5.722656 -6.195312 4.007812 -6.195312 L 3.027344 -6.195312 L 3.027344 -6.375 L 3.207031 -6.375 L 3.207031 0.179688 L 1.480469 0.179688 L 1.480469 -13.890625 Z M 1.660156 -13.53125 L 1.660156 -13.710938 L 1.839844 -13.710938 L 1.839844 0 L 1.660156 0 L 1.660156 -0.179688 L 3.027344 -0.179688 L 3.027344 0 L 2.851562 0 L 2.851562 -6.554688 L 4.007812 -6.554688 C 5.695312 -6.554688 6.84375 -6.625 7.453125 -6.773438 C 8.261719 -6.96875 8.898438 -7.347656 9.359375 -7.910156 C 9.816406 -8.46875 10.046875 -9.183594 10.046875 -10.054688 C 10.046875 -10.921875 9.808594 -11.636719 9.339844 -12.203125 C 8.867188 -12.773438 8.261719 -13.148438 7.515625 -13.332031 C 6.984375 -13.464844 5.941406 -13.53125 4.390625 -13.53125 Z M 3.207031 -12.378906 L 3.207031 -7.71875 L 3.027344 -7.71875 L 3.03125 -7.894531 L 5.351562 -7.867188 C 6.265625 -7.867188 6.929688 -7.949219 7.34375 -8.113281 C 7.742188 -8.269531 8.058594 -8.523438 8.285156 -8.871094 C 8.515625 -9.226562 8.628906 -9.621094 8.628906 -10.054688 C 8.628906 -10.480469 8.515625 -10.871094 8.285156 -11.222656 C 8.058594 -11.570312 7.757812 -11.820312 7.386719 -11.96875 C 7 -12.121094 6.355469 -12.199219 5.453125 -12.199219 L 3.027344 -12.199219 L 3.027344 -12.378906 Z M 2.851562 -12.554688 L 5.453125 -12.554688 C 6.402344 -12.554688 7.089844 -12.472656 7.515625 -12.300781 C 7.960938 -12.125 8.316406 -11.832031 8.585938 -11.417969 C 8.851562 -11.003906 8.988281 -10.550781 8.988281 -10.054688 C 8.988281 -9.546875 8.851562 -9.089844 8.585938 -8.675781 C 8.316406 -8.261719 7.945312 -7.964844 7.476562 -7.777344 C 7.019531 -7.601562 6.308594 -7.511719 5.347656 -7.511719 L 2.851562 -7.539062 Z M 2.851562 -12.554688 "/></g></g></g><g fill="#000000" fill-opacity="1"><g transform="translate(215.083801, 120.643528)"><g><path d="M 1.667969 -13.890625 L 3.226562 -13.890625 L 3.226562 -1.324219 L 3.046875 -1.324219 L 3.046875 -1.503906 L 8.492188 -1.503906 L 8.492188 0.179688 L 1.488281 0.179688 L 1.488281 -13.890625 Z M 1.667969 -13.53125 L 1.667969 -13.710938 L 1.847656 -13.710938 L 1.847656 0 L 1.667969 0 L 1.667969 -0.179688 L 8.3125 -0.179688 L 8.3125 0 L 8.132812 0 L 8.132812 -1.324219 L 8.3125 -1.324219 L 8.3125 -1.144531 L 2.867188 -1.144531 L 2.867188 -13.710938 L 3.046875 -13.710938 L 3.046875 -13.53125 Z M 1.667969 -13.53125 "/></g></g></g><g fill="#000000" fill-opacity="1"><g transform="translate(226.053328, 120.643528)"><g><path d="M 1.675781 -13.890625 L 9.714844 -13.890625 L 9.714844 -12.179688 L 3.046875 -12.179688 L 3.046875 -12.359375 L 3.226562 -12.359375 L 3.226562 -8.070312 L 3.046875 -8.070312 L 3.046875 -8.25 L 9.65625 -8.25 L 9.65625 -6.550781 L 3.046875 -6.550781 L 3.046875 -6.730469 L 3.226562 -6.730469 L 3.226562 -1.351562 L 3.046875 -1.351562 L 3.046875 -1.53125 L 9.65625 -1.53125 L 9.65625 0.179688 L 1.5 0.179688 L 1.5 -13.890625 Z M 1.675781 -13.53125 L 1.675781 -13.710938 L 1.855469 -13.710938 L 1.855469 0 L 1.675781 0 L 1.675781 -0.179688 L 9.476562 -0.179688 L 9.476562 0 L 9.300781 0 L 9.300781 -1.351562 L 9.476562 -1.351562 L 9.476562 -1.171875 L 2.867188 -1.171875 L 2.867188 -6.90625 L 9.476562 -6.90625 L 9.476562 -6.730469 L 9.300781 -6.730469 L 9.300781 -8.070312 L 9.476562 -8.070312 L 9.476562 -7.890625 L 2.867188 -7.890625 L 2.867188 -12.539062 L 9.535156 -12.539062 L 9.535156 -12.359375 L 9.355469 -12.359375 L 9.355469 -13.710938 L 9.535156 -13.710938 L 9.535156 -13.53125 Z M 1.675781 -13.53125 "/></g></g></g><g fill="#000000" fill-opacity="1"><g transform="translate(238.43881, 120.643528)"><g/></g></g><g fill="#000000" fill-opacity="1"><g transform="translate(245.877767, 120.643528)"><g><path d="M 0.894531 -13.890625 L 2.4375 -13.890625 L 5.261719 -3.878906 L 5.089844 -3.832031 L 4.921875 -3.898438 L 8.902344 -13.890625 L 9.421875 -13.890625 L 13.355469 -3.894531 L 13.1875 -3.832031 L 13.015625 -3.878906 L 15.894531 -13.890625 L 17.667969 -13.890625 L 13.628906 0.179688 L 13.113281 0.179688 L 9.003906 -10.308594 L 9.171875 -10.375 L 9.335938 -10.308594 L 5.144531 0.179688 L 4.628906 0.179688 L 0.660156 -13.890625 Z M 0.894531 -13.53125 L 0.894531 -13.710938 L 1.066406 -13.757812 L 4.933594 -0.046875 L 4.761719 0 L 4.761719 -0.179688 L 5.023438 -0.179688 L 5.023438 0 L 4.855469 -0.0664062 L 9.171875 -10.859375 L 13.402344 -0.0664062 L 13.234375 0 L 13.234375 -0.179688 L 13.496094 -0.179688 L 13.496094 0 L 13.324219 -0.0507812 L 17.257812 -13.757812 L 17.429688 -13.710938 L 17.429688 -13.53125 L 16.03125 -13.53125 L 16.03125 -13.710938 L 16.203125 -13.660156 L 13.214844 -3.273438 L 9.136719 -13.644531 L 9.300781 -13.710938 L 9.300781 -13.53125 L 9.023438 -13.53125 L 9.023438 -13.710938 L 9.1875 -13.644531 L 5.058594 -3.273438 L 2.128906 -13.660156 L 2.300781 -13.710938 L 2.300781 -13.53125 Z M 0.894531 -13.53125 "/></g></g></g><g fill="#000000" fill-opacity="1"><g transform="translate(266.349094, 120.643528)"><g><path d="M 1.292969 -13.890625 L 3.023438 -13.890625 L 3.023438 0.179688 L 1.292969 0.179688 Z M 1.652344 -13.53125 L 1.652344 -0.179688 L 2.664062 -0.179688 L 2.664062 -13.53125 Z M 1.652344 -13.53125 "/></g></g></g><g fill="#000000" fill-opacity="1"><g transform="translate(272.81924, 120.643528)"><g><path d="M 1.667969 -13.890625 L 3.226562 -13.890625 L 3.226562 -1.324219 L 3.046875 -1.324219 L 3.046875 -1.503906 L 8.492188 -1.503906 L 8.492188 0.179688 L 1.488281 0.179688 L 1.488281 -13.890625 Z M 1.667969 -13.53125 L 1.667969 -13.710938 L 1.847656 -13.710938 L 1.847656 0 L 1.667969 0 L 1.667969 -0.179688 L 8.3125 -0.179688 L 8.3125 0 L 8.132812 0 L 8.132812 -1.324219 L 8.3125 -1.324219 L 8.3125 -1.144531 L 2.867188 -1.144531 L 2.867188 -13.710938 L 3.046875 -13.710938 L 3.046875 -13.53125 Z M 1.667969 -13.53125 "/></g></g></g><g fill="#000000" fill-opacity="1"><g transform="translate(283.788767, 120.643528)"><g><path d="M 1.667969 -13.890625 L 3.226562 -13.890625 L 3.226562 -1.324219 L 3.046875 -1.324219 L 3.046875 -1.503906 L 8.492188 -1.503906 L 8.492188 0.179688 L 1.488281 0.179688 L 1.488281 -13.890625 Z M 1.667969 -13.53125 L 1.667969 -13.710938 L 1.847656 -13.710938 L 1.847656 0 L 1.667969 0 L 1.667969 -0.179688 L 8.3125 -0.179688 L 8.3125 0 L 8.132812 0 L 8.132812 -1.324219 L 8.3125 -1.324219 L 8.3125 -1.144531 L 2.867188 -1.144531 L 2.867188 -13.710938 L 3.046875 -13.710938 L 3.046875 -13.53125 Z M 1.667969 -13.53125 "/></g></g></g><g fill="#000000" fill-opacity="1"><g transform="translate(294.763906, 120.643528)"><g/></g></g><g fill="#000000" fill-opacity="1"><g transform="translate(78.177979, 120.643528)"><g><path d="M 1.703125 -13.71875 L 4.40625 -13.71875 C 5.5 -13.71875 6.335938 -13.585938 6.921875 -13.328125 C 7.503906 -13.066406 7.960938 -12.671875 8.296875 -12.140625 C 8.640625 -11.609375 8.8125 -11.015625 8.8125 -10.359375 C 8.8125 -9.742188 8.660156 -9.1875 8.359375 -8.6875 C 8.066406 -8.1875 7.628906 -7.785156 7.046875 -7.484375 C 7.765625 -7.234375 8.316406 -6.945312 8.703125 -6.625 C 9.085938 -6.300781 9.382812 -5.90625 9.59375 -5.4375 C 9.8125 -4.976562 9.921875 -4.476562 9.921875 -3.9375 C 9.921875 -2.832031 9.515625 -1.898438 8.703125 -1.140625 C 7.898438 -0.378906 6.820312 0 5.46875 0 L 1.703125 0 Z M 3.046875 -12.375 L 3.046875 -7.984375 L 3.828125 -7.984375 C 4.785156 -7.984375 5.484375 -8.070312 5.921875 -8.25 C 6.367188 -8.425781 6.722656 -8.703125 6.984375 -9.078125 C 7.253906 -9.460938 7.390625 -9.890625 7.390625 -10.359375 C 7.390625 -10.984375 7.164062 -11.472656 6.71875 -11.828125 C 6.28125 -12.191406 5.585938 -12.375 4.640625 -12.375 Z M 3.046875 -6.59375 L 3.046875 -1.34375 L 4.75 -1.34375 C 5.75 -1.34375 6.476562 -1.441406 6.9375 -1.640625 C 7.40625 -1.835938 7.78125 -2.140625 8.0625 -2.546875 C 8.351562 -2.960938 8.5 -3.414062 8.5 -3.90625 C 8.5 -4.507812 8.296875 -5.039062 7.890625 -5.5 C 7.492188 -5.957031 6.945312 -6.269531 6.25 -6.4375 C 5.789062 -6.539062 4.984375 -6.59375 3.828125 -6.59375 Z M 3.046875 -6.59375 "/></g></g></g><g fill="#000000" fill-opacity="1"><g transform="translate(91.290069, 120.643528)"><g><path d="M 1.671875 -13.71875 L 3.046875 -13.71875 L 3.046875 -1.328125 L 8.3125 -1.328125 L 8.3125 0 L 1.671875 0 Z M 1.671875 -13.71875 "/></g></g></g><g fill="#000000" fill-opacity="1"><g transform="translate(102.259597, 120.643528)"><g><path d="M 7.265625 -13.71875 L 13.671875 0 L 12.1875 0 L 10.046875 -4.515625 L 4.125 -4.515625 L 1.984375 0 L 0.453125 0 L 6.9375 -13.71875 Z M 7.109375 -10.8125 L 4.75 -5.84375 L 9.4375 -5.84375 Z M 7.109375 -10.8125 "/></g></g></g><g fill="#000000" fill-opacity="1"><g transform="translate(118.529638, 120.643528)"><g><path d="M 14.4375 -11.171875 L 13.359375 -10.34375 C 12.765625 -11.113281 12.046875 -11.695312 11.203125 -12.09375 C 10.367188 -12.5 9.453125 -12.703125 8.453125 -12.703125 C 7.359375 -12.703125 6.34375 -12.4375 5.40625 -11.90625 C 4.476562 -11.382812 3.757812 -10.679688 3.25 -9.796875 C 2.738281 -8.910156 2.484375 -7.914062 2.484375 -6.8125 C 2.484375 -5.144531 3.054688 -3.75 4.203125 -2.625 C 5.347656 -1.507812 6.796875 -0.953125 8.546875 -0.953125 C 10.460938 -0.953125 12.066406 -1.703125 13.359375 -3.203125 L 14.4375 -2.390625 C 13.757812 -1.515625 12.90625 -0.835938 11.875 -0.359375 C 10.851562 0.109375 9.710938 0.34375 8.453125 0.34375 C 6.054688 0.34375 4.164062 -0.453125 2.78125 -2.046875 C 1.613281 -3.398438 1.03125 -5.03125 1.03125 -6.9375 C 1.03125 -8.945312 1.734375 -10.632812 3.140625 -12 C 4.554688 -13.375 6.320312 -14.0625 8.4375 -14.0625 C 9.71875 -14.0625 10.875 -13.804688 11.90625 -13.296875 C 12.9375 -12.796875 13.78125 -12.085938 14.4375 -11.171875 Z M 14.4375 -11.171875 "/></g></g></g><g fill="#000000" fill-opacity="1"><g transform="translate(136.197003, 120.643528)"><g><path d="M 1.671875 -13.71875 L 3.0625 -13.71875 L 3.0625 -8.5625 L 8.546875 -13.71875 L 10.390625 -13.71875 L 3.796875 -7.5625 L 10.90625 0 L 9.09375 0 L 3.0625 -6.390625 L 3.0625 0 L 1.671875 0 Z M 1.671875 -13.71875 "/></g></g></g><g fill="#000000" fill-opacity="1"><g transform="translate(149.62582, 120.643528)"><g/></g></g><g fill="#000000" fill-opacity="1"><g transform="translate(157.064776, 120.643528)"><g><path d="M 1.65625 -13.71875 L 4.390625 -13.71875 C 5.953125 -13.71875 7.007812 -13.648438 7.5625 -13.515625 C 8.34375 -13.316406 8.984375 -12.914062 9.484375 -12.3125 C 9.984375 -11.71875 10.234375 -10.96875 10.234375 -10.0625 C 10.234375 -9.144531 9.988281 -8.390625 9.5 -7.796875 C 9.007812 -7.203125 8.34375 -6.800781 7.5 -6.59375 C 6.875 -6.445312 5.710938 -6.375 4.015625 -6.375 L 3.03125 -6.375 L 3.03125 0 L 1.65625 0 Z M 3.03125 -12.375 L 3.03125 -7.71875 L 5.34375 -7.6875 C 6.289062 -7.6875 6.976562 -7.769531 7.40625 -7.9375 C 7.84375 -8.113281 8.1875 -8.390625 8.4375 -8.765625 C 8.6875 -9.148438 8.8125 -9.582031 8.8125 -10.0625 C 8.8125 -10.519531 8.6875 -10.9375 8.4375 -11.3125 C 8.1875 -11.695312 7.859375 -11.96875 7.453125 -12.125 C 7.046875 -12.289062 6.378906 -12.375 5.453125 -12.375 Z M 3.03125 -12.375 "/></g></g></g><g fill="#000000" fill-opacity="1"><g transform="translate(170.512224, 120.643528)"><g><path d="M 1.671875 -13.71875 L 9.53125 -13.71875 L 9.53125 -12.359375 L 3.046875 -12.359375 L 3.046875 -8.078125 L 9.484375 -8.078125 L 9.484375 -6.734375 L 3.046875 -6.734375 L 3.046875 -1.359375 L 9.484375 -1.359375 L 9.484375 0 L 1.671875 0 Z M 1.671875 -13.71875 "/></g></g></g><g fill="#000000" fill-opacity="1"><g transform="translate(182.897706, 120.643528)"><g><path d="M 8.203125 -14.0625 C 10.273438 -14.0625 12.007812 -13.367188 13.40625 -11.984375 C 14.8125 -10.597656 15.515625 -8.890625 15.515625 -6.859375 C 15.515625 -4.847656 14.816406 -3.144531 13.421875 -1.75 C 12.023438 -0.351562 10.320312 0.34375 8.3125 0.34375 C 6.28125 0.34375 4.566406 -0.347656 3.171875 -1.734375 C 1.773438 -3.128906 1.078125 -4.816406 1.078125 -6.796875 C 1.078125 -8.109375 1.394531 -9.328125 2.03125 -10.453125 C 2.664062 -11.578125 3.53125 -12.457031 4.625 -13.09375 C 5.726562 -13.738281 6.921875 -14.0625 8.203125 -14.0625 Z M 8.265625 -12.71875 C 7.253906 -12.71875 6.296875 -12.453125 5.390625 -11.921875 C 4.484375 -11.390625 3.773438 -10.675781 3.265625 -9.78125 C 2.753906 -8.894531 2.5 -7.898438 2.5 -6.796875 C 2.5 -5.171875 3.0625 -3.796875 4.1875 -2.671875 C 5.320312 -1.546875 6.679688 -0.984375 8.265625 -0.984375 C 9.328125 -0.984375 10.3125 -1.238281 11.21875 -1.75 C 12.125 -2.269531 12.828125 -2.976562 13.328125 -3.875 C 13.835938 -4.769531 14.09375 -5.765625 14.09375 -6.859375 C 14.09375 -7.953125 13.835938 -8.9375 13.328125 -9.8125 C 12.828125 -10.6875 12.113281 -11.390625 11.1875 -11.921875 C 10.269531 -12.453125 9.296875 -12.71875 8.265625 -12.71875 Z M 8.265625 -12.71875 "/></g></g></g><g fill="#000000" fill-opacity="1"><g transform="translate(201.636352, 120.643528)"><g><path d="M 1.65625 -13.71875 L 4.390625 -13.71875 C 5.953125 -13.71875 7.007812 -13.648438 7.5625 -13.515625 C 8.34375 -13.316406 8.984375 -12.914062 9.484375 -12.3125 C 9.984375 -11.71875 10.234375 -10.96875 10.234375 -10.0625 C 10.234375 -9.144531 9.988281 -8.390625 9.5 -7.796875 C 9.007812 -7.203125 8.34375 -6.800781 7.5 -6.59375 C 6.875 -6.445312 5.710938 -6.375 4.015625 -6.375 L 3.03125 -6.375 L 3.03125 0 L 1.65625 0 Z M 3.03125 -12.375 L 3.03125 -7.71875 L 5.34375 -7.6875 C 6.289062 -7.6875 6.976562 -7.769531 7.40625 -7.9375 C 7.84375 -8.113281 8.1875 -8.390625 8.4375 -8.765625 C 8.6875 -9.148438 8.8125 -9.582031 8.8125 -10.0625 C 8.8125 -10.519531 8.6875 -10.9375 8.4375 -11.3125 C 8.1875 -11.695312 7.859375 -11.96875 7.453125 -12.125 C 7.046875 -12.289062 6.378906 -12.375 5.453125 -12.375 Z M 3.03125 -12.375 "/></g></g></g><g fill="#000000" fill-opacity="1"><g transform="translate(215.083801, 120.643528)"><g><path d="M 1.671875 -13.71875 L 3.046875 -13.71875 L 3.046875 -1.328125 L 8.3125 -1.328125 L 8.3125 0 L 1.671875 0 Z M 1.671875 -13.71875 "/></g></g></g><g fill="#000000" fill-opacity="1"><g transform="translate(226.053328, 120.643528)"><g><path d="M 1.671875 -13.71875 L 9.53125 -13.71875 L 9.53125 -12.359375 L 3.046875 -12.359375 L 3.046875 -8.078125 L 9.484375 -8.078125 L 9.484375 -6.734375 L 3.046875 -6.734375 L 3.046875 -1.359375 L 9.484375 -1.359375 L 9.484375 0 L 1.671875 0 Z M 1.671875 -13.71875 "/></g></g></g><g fill="#000000" fill-opacity="1"><g transform="translate(238.43881, 120.643528)"><g/></g></g><g fill="#000000" fill-opacity="1"><g transform="translate(245.877767, 120.643528)"><g><path d="M 0.890625 -13.71875 L 2.296875 -13.71875 L 5.09375 -3.828125 L 9.03125 -13.71875 L 9.296875 -13.71875 L 13.1875 -3.828125 L 16.03125 -13.71875 L 17.4375 -13.71875 L 13.5 0 L 13.234375 0 L 9.171875 -10.375 L 5.03125 0 L 4.765625 0 Z M 0.890625 -13.71875 "/></g></g></g><g fill="#000000" fill-opacity="1"><g transform="translate(266.349094, 120.643528)"><g><path d="M 1.46875 -13.71875 L 2.84375 -13.71875 L 2.84375 0 L 1.46875 0 Z M 1.46875 -13.71875 "/></g></g></g><g fill="#000000" fill-opacity="1"><g transform="translate(272.81924, 120.643528)"><g><path d="M 1.671875 -13.71875 L 3.046875 -13.71875 L 3.046875 -1.328125 L 8.3125 -1.328125 L 8.3125 0 L 1.671875 0 Z M 1.671875 -13.71875 "/></g></g></g><g fill="#000000" fill-opacity="1"><g transform="translate(283.788767, 120.643528)"><g><path d="M 1.671875 -13.71875 L 3.046875 -13.71875 L 3.046875 -1.328125 L 8.3125 -1.328125 L 8.3125 0 L 1.671875 0 Z M 1.671875 -13.71875 "/></g></g></g><g fill="#000000" fill-opacity="1"><g transform="translate(294.763906, 120.643528)"><g/></g></g></svg>