<?xml version="1.0" encoding="UTF-8"?>
<svg id="Layer_1" data-name="Layer 1" xmlns="http://www.w3.org/2000/svg" xmlns:xlink="http://www.w3.org/1999/xlink" viewBox="0 0 256 256">
  <defs>
    <style>
      .cls-1 {
        fill: #3e6c4c;
      }

      .cls-2 {
        clip-path: url(#clippath);
      }
    </style>
    <clipPath id="clippath">
      <path class="cls-1" d="M132.1167,102.3863c-.0896,3.3718-.1274,6.6197-.2755,9.864-.1894,4.102-.799,8.1592-1.6291,12.1785-.1102.5339-.2307,1.0642-.3617,1.5913-.2136.8851-.6853,1.202-1.5499.9712-2.2697-.6027-4.5532-1.1675-6.7918-1.8805-2.5074-.8025-5.0112-1.6497-7.4462-2.652-2.4695-1.016-4.8769-2.1905-7.2637-3.3994-4.1295-2.0906-8.0215-4.5773-11.7445-7.3257-4.4705-3.2961-8.5794-7.0053-12.3783-11.0592-3.5613-3.8058-6.7436-7.9078-9.5919-12.275-3.3339-5.118-6.1271-10.5184-8.3762-16.1978-1.8391-4.6461-3.3236-9.406-4.3017-14.3036-.5821-2.9034-1.0642-5.8378-1.3673-8.7825-.341-3.2961-.5442-6.6161-.5924-9.9295-.062-4.095.2342-8.1867.8576-12.2405.3754-2.4418.8369-4.8769,1.2674-7.3119.1343-.7509.7577-1.2055,1.5085-1.0125,2.2938.5924,4.6186,1.1193,6.8573,1.877,3.1859,1.0815,6.3613,2.218,9.4369,3.5716,3.1135,1.3708,6.1788,2.9,9.1236,4.5979,4.7151,2.7209,9.1132,5.9102,13.2427,9.4783,4.3948,3.7955,8.4175,7.9353,11.9546,12.5264,2.1491,2.7932,4.0916,5.7482,6.0342,8.6965,2.1354,3.2409,3.9057,6.6989,5.4487,10.2567,1.2537,2.8965,2.3627,5.8619,3.3891,8.8445.7956,2.3145,1.4396,4.6875,2.0183,7.0639.5407,2.2249,1.0091,4.4773,1.3329,6.7401.4856,3.396.8163,6.8126,1.1986,10.1121h0ZM62.4691,20.8978c-5.1869,27.9424.8163,52.9676,18.8085,74.8241,12.2095,14.8305,27.9389,24.2847,46.7027,28.9585,4.4739-22.7004,1.0918-43.9749-10.8146-63.641-12.5953-20.8096-30.9698-33.9972-54.6966-40.1416h0Z"/>
    </clipPath>
  </defs>
  <path class="cls-1" d="M212.5135,190.7184c-5.3272,0-10.8448-.539-16.4011-1.6024-5.9945-1.1444-11.649-2.8018-16.8057-4.926-3.2194-1.3269-6.3759-2.9094-9.4292-4.4387l-.2144-.1077c-3.2573-1.6317-6.5275-3.6757-9.9983-6.2477-2.3033-1.7117-4.7288-3.6793-7.4153-6.016-1.636-1.4224-3.2857-3.0171-5.3479-5.1722-1.7806-1.865-3.2806-3.581-4.5876-5.2454-1.4982-1.9063-2.9405-3.8721-4.3353-5.7729-.5941-.8098-1.1848-1.6145-1.7746-2.4079l-.0784-.1227c-.4908-.905-.9798-1.7974-1.4646-2.6821-1.1288-2.0583-2.1939-4.0021-3.2358-6.0152-1.7238-3.3318-3.2732-7.098-4.7361-11.5142-.1756-.5231-.3418-1.0569-.4973-1.5942-.2097-.7267-.1709-1.3523.1154-1.8607.2799-.4973.771-.8442,1.4599-1.0306l1.3944-.3802c1.784-.4882,3.6284-.9932,5.477-1.3987,2.1388-.4697,4.9656-1.0582,7.8569-1.444,2.7915-.3741,5.6458-.5618,8.0696-.6962,4.3896-.2454,8.9703-.0917,14.0022.4697,5.3944.6057,10.9214,1.7582,16.4303,3.4265,4.9285,1.4943,9.8434,3.479,14.6084,5.8981,5.4814,2.7825,10.7044,6.1306,15.5236,9.951,4.2363,3.3597,7.8372,6.7497,11.0101,10.363,2.2008,2.5082,4.0434,4.796,5.6329,6.9955,1.9623,2.7105,3.8213,5.5296,5.5253,8.3779,2.0932,3.5001,3.9263,7.2628,5.4486,11.184.6811,1.7531,1.326,3.5467,1.9502,5.2799l.6165,1.7083c.2307.6389.1972,1.2985-.093,1.859-.2807.5442-.7784.9377-1.4,1.1099-.4925.1369-.9867.279-1.481.4202-1.7763.5072-3.6129,1.0324-5.4711,1.4017-2.9602.5907-6.4698,1.2485-10.044,1.6429-3.5828.3901-7.0518.5881-10.3109.5881h0ZM130.7985,127.4878c7.5272,21.3434,21.0946,37.5279,40.3396,48.1143,20.3773,11.2056,42.4413,13.7611,65.593,7.6012-9.5257-26.1222-27.2536-44.1971-52.7058-53.7317-17.0098-6.3704-34.9116-7.0355-53.2268-1.9838h0Z"/>
  <path class="cls-1" d="M187.639,152.0941c-2.6305,0-5.3867-.1696-8.3487-.5115-2.8767-.332-5.9609-.8214-9.4292-1.4965-2.1147-.4129-4.4085-.9867-7.2172-1.806-2.485-.7297-4.6418-1.4646-6.5938-2.2473-2.2301-.8968-4.4455-1.8689-6.5869-2.8091-.9359-.4107-1.8659-.8188-2.788-1.2171l-.1309-.068c-.9067-.5566-1.8048-1.1021-2.695-1.6433-1.9761-1.2003-3.8428-2.3339-5.7224-3.5406-3.166-2.0277-6.3906-4.5132-9.8576-7.5982-.4155-.3698-.824-.7465-1.2257-1.1305-.5467-.5266-.8257-1.0893-.8322-1.6738-.006-.5721.2458-1.1185.7487-1.6239l1.1021-1.1108c1.2743-1.2873,2.5918-2.6188,3.959-3.8661,1.7548-1.5968,3.8488-3.4601,6.0858-5.1804,2.2111-1.7065,4.4954-3.2384,6.6352-4.6393,3.7008-2.4182,7.7459-4.5751,12.3679-6.5951,4.9811-2.1771,10.3445-3.9444,15.9413-5.2523,5.0052-1.1693,10.2523-1.9089,15.5969-2.199,6.1452-.3315,12.3404-.0469,18.415.8503,5.3325.7874,10.1448,1.9227,14.7134,3.4699,3.1385,1.0603,5.8783,2.1199,8.3744,3.2388,3.0842,1.3802,6.1031,2.8909,8.972,4.4894,3.5578,1.9829,7.0269,4.3246,10.3101,6.9606,1.4638,1.1757,2.9146,2.404,4.3189,3.5918l1.3966,1.1796c.5175.4353.8197,1.0233.849,1.6557.0284.6126-.2058,1.2029-.6595,1.6623-.3625.3707-.7267.7465-1.09,1.1228-1.2786,1.3221-2.6003,2.689-4.0159,3.932-2.2861,2.0058-5.0103,4.3405-7.8811,6.4453-2.8905,2.1203-5.7956,4.0271-8.6353,5.6678-4.5997,2.6602-9.6479,4.954-15.0027,6.8177-5.7646,2.0071-11.4905,3.3998-17.0192,4.1394-3.525.4692-7.1242.6802-10.6054.8847-1.1288.0672-2.2766.1008-3.4493.1008h-.0003,0ZM131.3461,126.2668c17.1923,14.7207,37.0427,21.9491,58.9828,21.4894,23.2471-.4873,43.6322-9.3109,60.6049-26.2272-21.3098-17.8575-45.6926-24.6437-72.4967-20.1694-17.9096,2.9899-33.7475,11.3679-47.091,24.9072h0Z"/>
  <path class="cls-1" d="M151.7974,130.8919l-.0732-.0021c-1.0393-.0275-2.0665-.0499-3.0851-.0719-2.3343-.0508-4.5394-.099-6.7927-.2045-3.7756-.174-7.8122-.7146-12.3386-1.6527-.5399-.1085-1.0849-.2325-1.6269-.3668-.7319-.1795-1.2554-.5257-1.5533-1.0281-.2919-.4921-.3466-1.0927-.1623-1.7854l.3686-1.4005c.468-1.7875.9519-3.6361,1.5258-5.4388.6638-2.085,1.5679-4.8248,2.6813-7.5289,1.0754-2.615,2.3369-5.1774,3.4287-7.3395,1.9881-3.9341,4.4128-7.826,7.4118-11.8974,3.2202-4.371,6.9821-8.5841,11.1806-12.5217,3.7636-3.5286,7.9388-6.7945,12.4093-9.7069,5.1516-3.3589,10.6605-6.2098,16.3735-8.4735,5.0224-1.9898,9.7581-3.4153,14.4775-4.3577,3.2117-.6445,6.1134-1.0978,8.8696-1.385,3.3727-.3457,6.7419-.5467,10.0165-.598,4.0882-.062,8.26.2316,12.4067.8731,1.7995.2764,3.6181.6041,5.3763.9209l1.9571.35c.6631.1162,1.2167.4719,1.5585,1.0022.3332.5158.428,1.1452.2669,1.7725-.1335.5166-.2627,1.0333-.3926,1.5499-.4443,1.7742-.9041,3.6091-1.5068,5.3854-.9791,2.8827-2.1715,6.2684-3.6009,9.5231-1.4431,3.2827-3.0076,6.3871-4.6488,9.2282-2.6563,4.607-5.8809,9.1179-9.5833,13.4068-4.0504,4.6905-8.1962,8.6483-12.6727,12.1001-2.7613,2.1306-5.713,4.077-8.5664,5.9597l-.1852.1219c-3.0326,2.0015-6.438,3.8127-10.4091,5.5369-2.6399,1.1439-5.5563,2.2619-8.916,3.4179-2.0398.7052-4.2466,1.3372-7.1544,2.0484-2.5125.6117-4.7486,1.0539-6.835,1.3518-2.4256.347-4.8752.6174-7.2439.8783-.9704.1068-1.9339.2131-2.8888.3238l-.0723.0086h0,0ZM130.7313,124.9214c22.2423,4.1489,43.0355.4856,61.8182-10.8934,19.8908-12.0481,33.1353-29.8871,39.3804-53.0304-27.3767-4.8084-51.8896,1.5137-72.8644,18.7986-14.0169,11.5483-23.5459,26.7262-28.3341,45.1252h0Z"/>
  <path class="cls-1" d="M128.5744,127.6569c-.3663,0-.6979-.0818-.991-.2463-.4994-.2799-.8472-.7724-1.0345-1.4634l-.375-1.3759c-.4904-1.7913-.9971-3.6439-1.4039-5.4986-.4701-2.1556-1.0587-4.9962-1.4405-7.8613-.3789-2.8237-.5661-5.6639-.6996-8.0693-.2441-4.424-.0891-9.0064.4731-14.0099.6071-5.4095,1.76-10.9408,3.4265-16.4398,1.4883-4.9195,3.4699-9.8364,5.8912-14.6139,2.7837-5.4852,6.1306-10.7092,9.9475-15.5275,3.3537-4.2329,6.7428-7.8354,10.3591-11.014,2.4867-2.1901,4.7744-4.034,6.9925-5.6368,2.7389-1.9834,5.5571-3.8437,8.3744-5.5287,3.4958-2.0906,7.256-3.9251,11.1754-5.4517,1.7548-.6811,3.5474-1.3264,5.2816-1.9507l1.7083-.6169c.6363-.2295,1.2958-.198,1.8572.0926.5451.2811.9394.7788,1.1116,1.4014.1447.5209.2936,1.0427.4426,1.5645.4994,1.7505,1.016,3.5608,1.3794,5.3901.5915,2.9822,1.2485,6.5073,1.6394,10.0483.3866,3.5522.5847,7.0226.5881,10.3165,0,5.3298-.539,10.8491-1.6024,16.4053-1.1641,6.0974-2.7752,11.5982-4.926,16.8165-1.3097,3.1871-2.8715,6.311-4.3827,9.3324l-.1567.3134c-1.6351,3.265-3.6793,6.5366-6.2477,10.0026-1.7212,2.3192-3.6869,4.7456-6.0126,7.4192-1.4353,1.6511-3.0791,3.3516-5.1731,5.3517-1.8478,1.7673-3.5621,3.2689-5.2403,4.5898-1.7779,1.3942-3.5716,2.7608-5.3801,4.1107-3.5954,2.6835-7.6369,4.7201-11.6108,6.7781-3.3374,1.7298-7.1027,3.2819-11.5112,4.7435-.5321.174-1.0599.3388-1.5946.4938-.3066.0896-.595.1343-.8653.1343v-.0003h0ZM185.7662,16.9358c-26.1161,9.5352-44.1824,27.2708-53.7081,52.729-6.367,17.0141-7.033,34.9249-1.9829,53.2543,21.3348-7.5345,37.5094-21.1087,48.0889-40.3589,11.203-20.3859,13.7585-42.4594,7.6021-65.6244h0Z"/>
  <path class="cls-1" d="M127.6725,130.2724c-.5623,0-1.1012-.251-1.6024-.7465l-1.0634-1.0565c-1.3027-1.2898-2.6499-2.624-3.9126-4.0107-1.5826-1.7393-3.4351-3.8222-5.1787-6.085-1.6945-2.1995-3.2302-4.4908-4.6367-6.639-2.4195-3.7063-4.5764-7.7524-6.5947-12.371-2.1789-4.9953-3.9436-10.3609-5.2463-15.949-1.1714-5.0202-1.9123-10.2704-2.2021-15.6037-.3324-6.1366-.0452-12.3356.8538-18.4249.7896-5.3466,1.9235-10.1615,3.4665-14.7203,1.0591-3.1355,2.1186-5.8758,3.2384-8.3771,1.3781-3.0821,2.8888-6.1022,4.4899-8.9763,1.989-3.575,4.3297-7.0454,6.9576-10.3143,1.1586-1.4448,2.3717-2.8802,3.5453-4.2686l1.2218-1.4483c.4349-.5179,1.0216-.8197,1.6514-.8499.6062-.0288,1.2029.2032,1.6648.6565.3793.3729.7621.7431,1.1444,1.1133,1.3144,1.2722,2.673,2.5879,3.91,3.999,2.0105,2.296,4.3491,5.0276,6.4406,7.8807,2.1164,2.8884,4.0219,5.7956,5.6648,8.6423,2.6554,4.5949,4.9475,9.6441,6.8142,15.0061,2.0071,5.7685,3.4002,11.4978,4.1399,17.0296.4684,3.5225.6793,7.1208.8835,10.6011.2187,3.6719.0844,7.5267-.4098,11.8087-.3315,2.8781-.8214,5.9636-1.4965,9.4331-.4202,2.1578-.9945,4.4524-1.8064,7.2219-.7216,2.475-1.4568,4.6333-2.2473,6.5968-.8955,2.2365-1.8702,4.4581-2.8122,6.6063-.4081.9313-.8145,1.8564-1.2098,2.7747l-.068.1301c-.5382.8778-1.066,1.7479-1.5903,2.6106-1.2175,2.0062-2.3678,3.9009-3.5897,5.8099-2.0277,3.169-4.5135,6.3949-7.5995,9.8623-.3633.4129-.7448.8227-1.1296,1.2257-.5218.5446-1.0819.824-1.6648.8322h-.0258v.0003h0ZM122.8726,5.4956c-17.8506,21.3159-24.6339,45.7116-20.1621,72.5303,2.9895,17.916,11.3636,33.7604,24.8964,47.1112,14.7147-17.2001,21.9397-37.0461,21.479-59.0064-.4839-23.2562-9.3027-43.6511-26.2134-60.6351,0,0,0,0,0,0Z"/>
  <g>
    <path class="cls-1" d="M132.1167,102.3863c-.0896,3.3718-.1274,6.6197-.2755,9.864-.1894,4.102-.799,8.1592-1.6291,12.1785-.1102.5339-.2307,1.0642-.3617,1.5913-.2136.8851-.6853,1.202-1.5499.9712-2.2697-.6027-4.5532-1.1675-6.7918-1.8805-2.5074-.8025-5.0112-1.6497-7.4462-2.652-2.4695-1.016-4.8769-2.1905-7.2637-3.3994-4.1295-2.0906-8.0215-4.5773-11.7445-7.3257-4.4705-3.2961-8.5794-7.0053-12.3783-11.0592-3.5613-3.8058-6.7436-7.9078-9.5919-12.275-3.3339-5.118-6.1271-10.5184-8.3762-16.1978-1.8391-4.6461-3.3236-9.406-4.3017-14.3036-.5821-2.9034-1.0642-5.8378-1.3673-8.7825-.341-3.2961-.5442-6.6161-.5924-9.9295-.062-4.095.2342-8.1867.8576-12.2405.3754-2.4418.8369-4.8769,1.2674-7.3119.1343-.7509.7577-1.2055,1.5085-1.0125,2.2938.5924,4.6186,1.1193,6.8573,1.877,3.1859,1.0815,6.3613,2.218,9.4369,3.5716,3.1135,1.3708,6.1788,2.9,9.1236,4.5979,4.7151,2.7209,9.1132,5.9102,13.2427,9.4783,4.3948,3.7955,8.4175,7.9353,11.9546,12.5264,2.1491,2.7932,4.0916,5.7482,6.0342,8.6965,2.1354,3.2409,3.9057,6.6989,5.4487,10.2567,1.2537,2.8965,2.3627,5.8619,3.3891,8.8445.7956,2.3145,1.4396,4.6875,2.0183,7.0639.5407,2.2249,1.0091,4.4773,1.3329,6.7401.4856,3.396.8163,6.8126,1.1986,10.1121h0ZM62.4691,20.8978c-5.1869,27.9424.8163,52.9676,18.8085,74.8241,12.2095,14.8305,27.9389,24.2847,46.7027,28.9585,4.4739-22.7004,1.0918-43.9749-10.8146-63.641-12.5953-20.8096-30.9698-33.9972-54.6966-40.1416h0Z"/>
    <g class="cls-2">
      <path class="cls-1" d="M53.0149,18.5971l4.3844,111.5767,79.3221-3.117-4.3844-111.5767s-79.3221,3.117-79.3221,3.117Z"/>
    </g>
  </g>
  <path class="cls-1" d="M128.7957,128.0901c-.2385,0-.4925-.0357-.7599-.1072l-1.3996-.3681c-1.7875-.468-3.6361-.9519-5.4388-1.5258-2.2512-.7207-4.9045-1.6024-7.5255-2.6808-2.6253-1.0802-5.1821-2.3416-7.3369-3.433-3.9513-2.0002-7.8406-4.4261-11.8905-7.4156-4.3745-3.2254-8.5863-6.9877-12.5178-11.1832-3.5143-3.7559-6.7785-7.9332-9.7026-12.4161-3.3576-5.1546-6.2076-10.6657-8.4709-16.3804-1.9852-5.016-3.4093-9.7525-4.3538-14.4805-.6471-3.228-1.0991-6.1323-1.382-8.8786-.3487-3.3727-.5497-6.7441-.5975-10.0195-.0615-4.0822.2307-8.2582.8696-12.4115.279-1.8155.6096-3.6503.9291-5.4245l.3418-1.9102c.1196-.6686.4779-1.2235,1.0083-1.5645.5136-.3302,1.1413-.4253,1.7664-.2635.5149.1331,1.0303.2622,1.5455.3917,1.7755.4456,3.6112.9067,5.3854,1.5073,2.8797.9773,6.2619,2.1698,9.5213,3.6043,3.2595,1.4349,6.3626,2.999,9.223,4.6483,4.5975,2.6529,9.1063,5.8796,13.4012,9.5906,4.6854,4.0468,8.6423,8.1932,12.0967,12.6766,2.1414,2.7837,4.1003,5.7569,5.9945,8.6319l.0835.1262c2.0028,3.0399,3.8127,6.4457,5.533,10.413,1.1452,2.6464,2.2632,5.5636,3.4179,8.919.7086,2.0609,1.3587,4.3344,2.0449,7.1552.6114,2.5138,1.053,4.7499,1.3518,6.8375.347,2.4242.6165,4.8713.8765,7.2379.1077.9747.2144,1.9429.3254,2.9017l.0086.0723-.0018.0727c-.0275,1.0345-.0508,2.0574-.0732,3.0722-.0517,2.3407-.0999,4.5519-.2032,6.8117-.1748,3.7731-.7138,7.8091-1.6497,12.3391-.1128.5472-.2359,1.0909-.3702,1.6312-.1756.728-.5209,1.2528-1.0237,1.5521-.3031.18-.6466.2703-1.0272.2703h.0003,0ZM61.6602,19.633c-.0297.0302-.062.0891-.0784.1817l-.3427,1.9145c-.3178,1.7616-.6458,3.5832-.9209,5.3725-.6212,4.0404-.9058,8.1011-.8456,12.0692.0465,3.216.2441,6.5263.5868,9.8395.276,2.6808.7185,5.5223,1.3531,8.6862.9201,4.607,2.3097,9.2277,4.2496,14.1279,2.2125,5.5873,4.9987,10.9756,8.2819,16.0153,2.8582,4.3827,6.0484,8.4653,9.4813,12.1337,3.8454,4.1037,7.9633,7.7825,12.2379,10.9343,3.9573,2.9215,7.751,5.2881,11.5991,7.2361,2.1194,1.0737,4.631,2.3127,7.1905,3.3658,2.5538,1.0513,5.158,1.9162,7.3687,2.6236,1.7501.5575,3.572,1.0345,5.3341,1.4956l1.4083.3707c.0965.0254.1619.0345.2024.037.0215-.0435.0542-.1231.0861-.257.1292-.5205.2471-1.0376.3547-1.5581.9135-4.4236,1.4396-8.3547,1.6084-12.0184.1024-2.2348.1507-4.4343.2024-6.7626.0215-.994.0439-1.9955.0706-3.0085-.1085-.9386-.2127-1.8865-.3178-2.8406-.2591-2.3502-.527-4.7805-.8688-7.172-.2893-2.0213-.7189-4.1945-1.3139-6.6429-.6716-2.7574-1.3045-4.9733-1.992-6.9727-1.137-3.3051-2.2361-6.174-3.3602-8.7706-1.6726-3.8566-3.4269-7.1604-5.3638-10.0995l-.083-.1266c-1.8741-2.844-3.8118-5.7853-5.9071-8.5088-3.3684-4.3719-7.2323-8.4201-11.8122-12.3757-4.1972-3.6267-8.5996-6.7776-13.0852-9.366-2.7958-1.6123-5.8322-3.1424-9.0241-4.5476-3.1871-1.4026-6.5167-2.5762-9.353-3.5389-1.6954-.5739-3.4907-1.0246-5.2265-1.4607-.52-.1304-1.0397-.2609-1.5576-.3948-.037-.0091-.1077-.0206-.1447.0026-.0048.003-.0094.0069-.0146.0116l1.0625.2751c24.1899,6.2645,42.8013,19.9252,55.3174,40.604,11.8289,19.5383,15.5107,41.1959,10.9438,64.3707l-.2092,1.0582-1.0461-.2609c-19.3019-4.8076-35.1979-14.6661-47.2472-29.302-17.9061-21.7519-24.3071-47.209-19.025-75.6636l.2002-1.0776h-.0002ZM63.2815,22.1743c-4.8041,27.3913,1.5146,51.9111,18.7887,72.8954,11.5439,14.0224,26.7154,23.5554,45.1072,28.3471,4.1463-22.2561.4852-43.0579-10.8896-61.8458-12.0438-19.8986-29.8737-33.1486-53.0063-39.3967h0Z"/>
  <path class="cls-1" d="M195.192,234.3429c-.2204,0-.4452-.031-.669-.093l-1.6738-.4598c-1.8021-.4925-3.6645-1.0014-5.4908-1.5516-4.0219-1.2098-7.9147-2.7432-11.5715-4.5574-2.9439-1.4586-5.8998-3.0912-8.7852-4.8511-2.3343-1.4268-4.759-3.086-7.4126-5.0732-3.8678-2.8974-7.5281-6.2227-11.19-10.1663-4.1803-4.4998-7.9259-9.4456-11.1315-14.7013-2.7837-4.5583-5.1464-9.3052-7.0226-14.1063-2.0954-5.3617-3.6784-10.7837-4.7051-16.116-.9532-4.9536-1.4664-9.5101-1.5679-13.9294-.0564-2.4247-.0935-5.2829.0594-8.1006.1571-2.8565.505-5.6217.8245-7.9504.2557-1.8555.6096-3.7166.9519-5.5166l.2785-1.4753c.1322-.7043.4404-1.2222.917-1.5409.4869-.3259,1.1103-.4111,1.8487-.257.5416.1123,1.0849.2359,1.6248.3698,4.505,1.1086,8.3796,2.3593,11.8453,3.8222,2.0776.8761,4.0891,1.7815,6.2184,2.7402.929.418,1.8659.8399,2.8156,1.2627l.1292.0684c.818.5136,1.6472,1.0276,2.4807,1.5451,2.0217,1.2537,4.1115,2.5504,6.1486,3.9043,1.7582,1.1701,3.5862,2.5323,5.5873,4.1644,2.3188,1.8969,4.0374,3.4175,5.5752,4.9307,2.5573,2.5143,4.7081,4.7796,6.5741,6.9253,2.8363,3.2543,5.1301,6.354,7.014,9.477l.1429.2376c1.7556,2.9146,3.5725,5.9282,5.1421,9.0246,2.5211,4.976,4.6169,10.4857,6.2296,16.3769,1.4948,5.4693,2.4643,10.9291,2.8811,16.2297.2566,3.2823.3315,6.7574.223,10.3307-.1093,3.5725-.4891,7.1337-.8464,10.1465-.223,1.8788-.6002,3.7481-.9652,5.5563-.1025.5072-.2049,1.0143-.3039,1.5215-.1274.6389-.4848,1.165-1.0074,1.4861-.3513.2161-.7516.3263-1.1684.3263l-.0002.0003h0ZM129.8393,128.4357c-3.594,18.6699-1.5245,36.474,6.1555,52.9353,11.4957,24.6351,30.8983,40.8967,57.6792,48.3472,4.3181-23.5795.0387-45.3836-12.7261-64.8223-12.0554-18.3591-29.246-30.6215-51.1086-36.4602h0Z"/>
  <path class="cls-1" d="M133.3092,252.6821c-.6096,0-1.1925-.2549-1.6489-.7233l-1.326-1.3424c-1.2795-1.2915-2.6021-2.627-3.873-3.978-2.8742-3.0541-5.4805-6.3303-7.7463-9.7374-1.8279-2.7519-3.5698-5.6432-5.1782-8.5948-1.3178-2.4169-2.5887-5.0655-3.8863-8.0981-1.8951-4.424-3.4033-9.1356-4.61-14.4026-1.3703-5.9825-2.1423-12.1398-2.2951-18.2988-.1309-5.341.195-10.633.9686-15.7303.8597-5.6648,2.199-11.153,3.9814-16.3102,1.655-4.7771,3.4881-8.9806,5.6041-12.8519,1.1465-2.0988,2.5301-4.57,4.1011-6.9834,1.5968-2.4453,3.3425-4.7435,4.6854-6.4724,1.1529-1.4866,2.3958-2.9258,3.5974-4.3173l.9665-1.1215c.4633-.5433.9889-.8387,1.5606-.8774.5868-.0414,1.1671.1964,1.7311.7004.4141.3716.8223.7482,1.2244,1.1357,3.3365,3.2014,6.0677,6.2218,8.3469,9.2325,1.3708,1.8116,2.6692,3.6164,4.0452,5.5274.5855.8137,1.1762,1.6347,1.7772,2.4621l.0775.1235c.4555.8619.9204,1.7294,1.3889,2.6025,1.1193,2.0885,2.2766,4.248,3.3589,6.431.9359,1.8874,1.8375,3.9814,2.7571,6.4014,1.0591,2.7932,1.7884,4.9699,2.3653,7.0588.9583,3.4527,1.6885,6.4905,2.2326,9.2863.8292,4.2372,1.2666,8.0705,1.3381,11.7178l.0069.384c.0629,3.3667.1283,6.8487-.0603,10.279-.3014,5.5589-1.2399,11.3786-2.7906,17.2974-1.431,5.4754-3.3201,10.6897-5.6149,15.4978-1.4147,2.9689-3.086,6.016-4.9682,9.0564-1.8865,3.0455-3.9935,5.9377-5.806,8.3641-1.1417,1.5301-2.4169,2.974-3.6499,4.3706-.3306.3746-.6622.7491-.9902,1.1254-.4202.4865-.9919.7663-1.6067.7844-.0215.0009-.043.0009-.0645.0009h-.0003,0ZM128.527,127.9708c-12.4446,14.3673-19.549,30.8204-21.1225,48.9219-2.3575,27.0831,6.3166,50.8709,25.785,70.7221,15.5262-18.2583,22.7185-39.2814,21.3778-62.5027-1.264-21.9332-10.0234-41.152-26.0404-57.1414h0Z"/>
  <path class="cls-1" d="M69.8163,238.6016c-.3556,0-.7026-.0853-1.0177-.254-.5554-.2979-.9553-.8223-1.1262-1.4758l-.4753-1.8211c-.4619-1.7625-.9394-3.5854-1.3665-5.3944-.9626-4.0856-1.583-8.2255-1.8439-12.3042-.2054-3.2849-.2687-6.6619-.1877-10.0371.0672-2.7484.2902-5.6785.6819-8.9583.573-4.8003,1.6222-9.6342,3.2069-14.7771,1.8043-5.8731,4.2122-11.5922,7.1574-16.996,2.5525-4.6858,5.4793-9.1063,8.6991-13.1377,3.5832-4.483,7.4863-8.5656,11.6021-12.1342,3.8105-3.3034,7.4979-6.0268,11.2735-8.3258,2.0488-1.2485,4.4886-2.6998,7.0442-3.996,2.5887-1.3152,5.2571-2.4346,7.293-3.2625,1.7432-.71,3.5414-1.3367,5.2803-1.9429l1.388-.4852c.6764-.2368,1.2782-.2291,1.7906.0228.5243.2575.9101.7521,1.1478,1.4698.1731.5309.3384,1.0617.4925,1.5921,1.2907,4.4494,2.1448,8.4322,2.6133,12.1764.2799,2.2387.502,4.4348.737,6.7591.1024,1.0139.2058,2.0359.3151,3.0692l.0078.0732-.0026.0732c-.0362.9825-.068,1.974-.099,2.9723-.0741,2.3623-.1516,4.805-.3048,7.228-.1343,2.1156-.3995,4.381-.8102,6.9253-.471,2.893-.9411,5.211-1.4801,7.2956-.8877,3.4399-1.7728,6.4354-2.7054,9.1571-1.4035,4.09-2.9413,7.628-4.7017,10.8164l-.1244.2256c-1.6472,2.9852-3.3503,6.072-5.2493,8.9832-3.08,4.7271-6.698,9.1717-11.0613,13.5863-3.9853,4.0314-8.2276,7.6021-12.6099,10.6123-2.7153,1.8642-5.6858,3.6672-8.8295,5.3582-3.1355,1.6825-6.4139,3.1385-9.2075,4.3405-1.7401.7474-3.5513,1.3553-5.3031,1.9425-.4869.1635-.9734.3272-1.4582.4934-.2545.0869-.5124.13-.7659.13h-.0001ZM126.9242,127.9217c-17.9591,6.2193-32.3349,16.9133-42.7424,31.7985-15.5757,22.2759-19.9515,47.2158-13.0124,74.1465,22.5695-8.0438,39.305-22.6539,49.7529-43.4367,9.864-19.6231,11.8815-40.6483,6.0018-62.5083h0,0Z"/>
  <path class="cls-1" d="M42.1404,196.4004c-1.0379,0-2.0863-.0155-3.1432-.0482-3.5686-.1093-7.1302-.4891-10.1435-.8464-1.8615-.2213-3.7154-.5967-5.5085-.9592-.5218-.1059-1.0436-.2118-1.5658-.3134-.6316-.1231-1.1568-.477-1.4792-.9962-.3328-.5356-.418-1.1891-.2406-1.8409l.5257-1.915c.4719-1.7264.9601-3.5113,1.4861-5.2584,1.2115-4.0296,2.7441-7.925,4.5544-11.5767,1.4552-2.9387,3.0877-5.8955,4.8511-8.7886,1.4199-2.3282,3.0778-4.7529,5.0693-7.4135,2.887-3.8648,6.2115-7.5272,10.1633-11.1965,4.505-4.1894,9.449-7.9371,14.6944-11.1384,4.5459-2.7781,9.2893-5.1421,14.0986-7.0265,5.3595-2.0958,10.7793-3.6788,16.1096-4.7051,4.9501-.9532,9.5055-1.4664,13.9264-1.5679,2.4234-.0564,5.2811-.0926,8.0972.0594,2.2946.1266,4.7447.3805,7.9452.8248,1.8599.2561,3.7266.6114,5.5317.9549l1.4556.2751c.7035.1322,1.2218.4404,1.5404.917.3254.4865.4125,1.1086.2575,1.8487-.1128.5442-.2325,1.0836-.3668,1.6269-1.1124,4.517-2.3627,8.3934-3.8222,11.8496-.8804,2.088-1.7906,4.111-2.7544,6.2524-.4137.9196-.8305,1.8465-1.2485,2.7859l-.0684.1287c-.5291.8421-1.0578,1.6962-1.5903,2.5555-1.2377,1.9985-2.5181,4.0646-3.8557,6.0772-1.184,1.7798-2.5465,3.6069-4.1653,5.5881-1.8422,2.2611-3.4063,4.034-4.9217,5.5795-2.5052,2.5486-4.7693,4.7004-6.9223,6.5783-3.2672,2.844-6.3674,5.1386-9.4783,7.0149l-.273.1644c-2.9012,1.7505-5.9016,3.5604-8.9815,5.124-4.9776,2.522-10.4853,4.6177-16.3705,6.2296-5.4577,1.4965-10.9158,2.4669-16.2232,2.8845-2.3097.1808-4.7159.2712-7.1837.2712v.0003h0ZM24.5916,190.5394c23.5661,4.325,45.3612.043,64.7948-12.7296,18.3525-12.0605,30.6086-29.2602,36.4404-51.1327-18.6643-3.594-36.4589-1.5236-52.9077,6.159-24.6261,11.5026-40.8807,30.9129-48.3274,57.7033h0Z"/>
  <path class="cls-1" d="M61.4798,156.3497c-1.7027,0-3.4127-.031-5.1103-.1223-5.5701-.3053-11.3872-1.2442-17.2913-2.791-5.4835-1.438-10.6958-3.3283-15.4913-5.6187-2.9775-1.4233-6.023-3.0958-9.053-4.9717-3.0649-1.9003-5.9463-4.0029-8.3611-5.8094-1.5016-1.1198-2.9176-2.3713-4.2875-3.581-.4004-.3539-.8008-.7073-1.2033-1.0578-.4882-.4249-.7667-.9967-.7852-1.6093-.0185-.6302.2368-1.2386.7198-1.7126l1.1959-1.1826c1.3402-1.3278,2.7256-2.7007,4.1274-4.0189,3.0395-2.8681,6.3135-5.4757,9.7298-7.7498,2.7045-1.8018,5.595-3.5453,8.5906-5.1813,2.4264-1.3226,5.0745-2.5939,8.0959-3.8867,4.4201-1.8964,9.1291-3.4058,14.3953-4.6134,6.0002-1.3742,12.1548-2.1466,18.2932-2.2951,5.3362-.1322,10.6257.1955,15.7225.9686,5.6712.8611,11.1569,2.2017,16.3037,3.9849,4.7796,1.6575,8.981,3.4902,12.845,5.6041,2.2413,1.2279,4.638,2.5745,6.9813,4.1054,2.4436,1.596,4.7417,3.3416,6.4707,4.6845,1.4892,1.1598,2.9323,2.4053,4.3276,3.6099l1.1081.954c.5424.4662.8369.9915.8757,1.5624.0396.5833-.1955,1.1654-.6974,1.7307-.3729.4163-.75.8248-1.1374,1.2261-3.2156,3.3521-6.2352,6.0845-9.229,8.3512-1.7445,1.3209-3.5006,2.6183-5.2602,3.9137-3.6646,2.6901-7.8165,4.7272-11.88,6.7403-1.8947.9394-3.9875,1.8413-6.3971,2.7574-2.7402,1.0397-4.9815,1.7922-7.0541,2.3678-3.4218.9493-6.4586,1.6799-9.2837,2.2331-4.2251.8266-8.0563,1.2631-11.7114,1.3346l-.1296.0021c-1.7828.0349-3.597.0706-5.4194.0706l-.0003.0003ZM4.9617,130.606c18.248,15.5327,39.2616,22.7271,62.4769,21.3882,21.9225-1.267,41.1326-10.0315,57.1139-26.0541-14.3643-12.451-30.81-19.5598-48.8988-21.1329-27.0766-2.3614-50.852,6.3213-70.6921,25.7989h0Z"/>
  <path class="cls-1" d="M102.2803,131.3766c-3.1393.0662-6.2797-.0757-9.4231-.2751-2.1194-.1377-4.3818-.4038-6.918-.8133-2.8884-.4697-5.2045-.9389-7.2908-1.4762-3.4631-.8981-6.4578-1.7845-9.1554-2.7096-4.0912-1.4074-7.6275-2.946-10.8125-4.7047l-.1718-.0947c-3.0011-1.6562-6.1052-3.3688-9.0336-5.279-4.6724-3.0498-9.2411-6.7738-13.5799-11.0691-4.0266-3.9836-7.5956-8.2273-10.6079-12.6125-1.8517-2.6968-3.6534-5.6695-5.3552-8.8369-1.7005-3.1687-3.1471-6.4346-4.3374-9.2118-.7375-1.7174-1.3393-3.507-1.9214-5.2377-.1713-.5088-.3423-1.0177-.5166-1.5245-.2101-.6096-.1658-1.2434.1249-1.7836.2993-.5566.824-.9562,1.4776-1.125l1.7251-.4516c1.7927-.4714,3.6465-.9583,5.4869-1.3927,4.0813-.9622,8.2186-1.5826,12.2974-1.8439,3.2858-.2083,6.6623-.2725,10.0346-.1877,2.714.0633,5.6424.2863,8.951.6819,4.796.5726,9.6285,1.6218,14.7733,3.2069,5.8809,1.8108,11.5969,4.2204,16.9895,7.1608,4.6884,2.5594,9.1059,5.4887,13.1308,8.7064,4.4864,3.5883,8.5678,7.4931,12.1307,11.6055,3.3029,3.814,6.0238,7.5027,8.319,11.277,1.2554,2.0604,2.7123,4.5093,3.996,7.0481,1.2924,2.5474,2.3743,5.1171,3.262,7.2947.7151,1.7556,1.3445,3.5668,1.9537,5.3186l.4714,1.3514c.2381.6734.2312,1.2761-.0206,1.7901-.2575.5257-.753.9127-1.4728,1.1504-.5257.1731-1.0569.3384-1.5882.4934-4.4654,1.2946-8.4468,2.1505-12.173,2.6163-1.8887.2361-3.7844.4159-5.6751.6169-1.69.1797-3.3801.2756-5.0704.3113h-.0001ZM17.7602,68.1205c8.0408,22.5799,22.6435,39.3231,43.4169,49.7739,19.6192,9.8688,40.6362,11.8875,62.4842,6.0057-6.2184-17.9656-16.9082-32.3479-31.7856-42.7604-22.2651-15.5835-47.1951-19.9614-74.1155-13.0193h0Z"/>
</svg>