<?xml version="1.0" encoding="UTF-8"?>
<svg id="Layer_1" data-name="Layer 1" xmlns="http://www.w3.org/2000/svg" xmlns:xlink="http://www.w3.org/1999/xlink" viewBox="0 0 375 375">
  <defs>
    <style>
      .cls-1 {
        fill: #fff;
      }

      .cls-2 {
        clip-path: url(#clippath);
      }
    </style>
    <clipPath id="clippath">
      <path class="cls-1" d="M192.0508,126.6953c-.1016,3.8242-.1445,7.5078-.3125,11.1875-.2148,4.6523-.9062,9.2539-1.8477,13.8125-.125.6055-.2617,1.207-.4102,1.8047-.2422,1.0039-.7773,1.3633-1.7578,1.1016-2.5742-.6836-5.1641-1.3242-7.7031-2.1328-2.8438-.9102-5.6836-1.8711-8.4453-3.0078-2.8008-1.1523-5.5312-2.4844-8.2383-3.8555-4.6836-2.3711-9.0977-5.1914-13.3203-8.3086-5.0703-3.7383-9.7305-7.9453-14.0391-12.543-4.0391-4.3164-7.6484-8.9688-10.8789-13.9219-3.7812-5.8047-6.9492-11.9297-9.5-18.3711-2.0859-5.2695-3.7695-10.668-4.8789-16.2227-.6602-3.293-1.207-6.6211-1.5508-9.9609-.3867-3.7383-.6172-7.5039-.6719-11.2617-.0703-4.6445.2656-9.2852.9727-13.8828.4258-2.7695.9492-5.5312,1.4375-8.293.1523-.8516.8594-1.3672,1.7109-1.1484,2.6016.6719,5.2383,1.2695,7.7773,2.1289,3.6133,1.2266,7.2148,2.5156,10.7031,4.0508,3.5312,1.5547,7.0078,3.2891,10.3477,5.2148,5.3477,3.0859,10.3359,6.7031,15.0195,10.75,4.9844,4.3047,9.5469,9,13.5586,14.207,2.4375,3.168,4.6406,6.5195,6.8438,9.8633,2.4219,3.6758,4.4297,7.5977,6.1797,11.6328,1.4219,3.2852,2.6797,6.6484,3.8438,10.0312.9023,2.625,1.6328,5.3164,2.2891,8.0117.6133,2.5234,1.1445,5.0781,1.5117,7.6445.5508,3.8516.9258,7.7266,1.3594,11.4688h0ZM113.0586,34.2734c-5.8828,31.6914.9258,60.0742,21.332,84.8633,13.8477,16.8203,31.6875,27.543,52.9688,32.8438,5.0742-25.7461,1.2383-49.875-12.2656-72.1797-14.2852-23.6016-35.125-38.5586-62.0352-45.5273h0Z"/>
    </clipPath>
  </defs>
  <path class="cls-1" d="M283.2344,226.8789c-6.042,0-12.2998-.6113-18.6016-1.8174-6.7988-1.2979-13.2119-3.1777-19.0605-5.5869-3.6514-1.5049-7.2314-3.2998-10.6943-5.0342l-.2432-.1221c-3.6943-1.8506-7.4033-4.1689-11.3398-7.0859-2.6123-1.9414-5.3633-4.1729-8.4102-6.8232-1.8555-1.6133-3.7266-3.4219-6.0654-5.8662-2.0195-2.1152-3.7207-4.0615-5.2031-5.9492-1.6992-2.1621-3.335-4.3916-4.917-6.5474-.6738-.9185-1.3438-1.8311-2.0127-2.731l-.0889-.1392c-.5566-1.0264-1.1113-2.0386-1.6611-3.042-1.2803-2.3345-2.4883-4.5391-3.6699-6.8223-1.9551-3.7788-3.7124-8.0503-5.3716-13.0591-.1992-.5933-.3877-1.1987-.564-1.8081-.2378-.8242-.1938-1.5337.1309-2.1104.3174-.564.8745-.9575,1.6558-1.1689l1.5815-.4312c2.0234-.5537,4.1152-1.1265,6.2119-1.5864,2.4258-.5327,5.6318-1.2002,8.9111-1.6377,3.166-.4243,6.4033-.6372,9.1523-.7896,4.9785-.2783,10.1738-.104,15.8809.5327,6.1182.687,12.3867,1.9941,18.6348,3.8862,5.5898,1.6948,11.1641,3.9458,16.5684,6.6895,6.2168,3.1558,12.1406,6.9531,17.6064,11.2861,4.8047,3.8105,8.8887,7.6553,12.4873,11.7534,2.4961,2.8447,4.5859,5.4395,6.3887,7.9341,2.2256,3.0742,4.334,6.2715,6.2666,9.502,2.374,3.9697,4.4531,8.2373,6.1797,12.6846.7725,1.9883,1.5039,4.0225,2.2119,5.9883l.6992,1.9375c.2617.7246.2236,1.4727-.1055,2.1084-.3184.6172-.8828,1.0635-1.5879,1.2588-.5586.1553-1.1191.3164-1.6797.4766-2.0146.5752-4.0977,1.1709-6.2051,1.5898-3.3574.6699-7.3379,1.416-11.3916,1.8633-4.0635.4424-7.998.667-11.6943.667h0ZM190.5557,155.1646c8.5371,24.207,23.9248,42.563,45.752,54.5698,23.1113,12.709,48.1357,15.6074,74.3936,8.6211-10.8037-29.627-30.9102-50.127-59.7773-60.9409-19.292-7.2251-39.5957-7.9795-60.3682-2.25h-.0001Z"/>
  <path class="cls-1" d="M255.0225,183.0723c-2.9834,0-6.1094-.1924-9.4688-.5801-3.2627-.3765-6.7607-.9316-10.6943-1.6973-2.3984-.4683-5-1.1191-8.1855-2.0483-2.8184-.8276-5.2646-1.6611-7.4785-2.5488-2.5293-1.0171-5.042-2.1196-7.4707-3.186-1.0615-.4658-2.1162-.9287-3.1621-1.3804l-.1484-.0771c-1.0283-.6313-2.0469-1.25-3.0566-1.8638-2.2412-1.3613-4.3584-2.647-6.4902-4.0156-3.5908-2.2998-7.248-5.1187-11.1802-8.6177-.4712-.4194-.9346-.8467-1.3901-1.2822-.6201-.5972-.9365-1.2354-.9438-1.8984-.0068-.6489.2788-1.2686.8491-1.8418l1.25-1.2598c1.4453-1.46,2.9395-2.9702,4.4902-4.3848,1.9902-1.811,4.3652-3.9243,6.9023-5.8755,2.5078-1.9355,5.0986-3.6729,7.5254-5.2617,4.1973-2.7427,8.7852-5.189,14.0273-7.48,5.6494-2.4692,11.7324-4.4736,18.0801-5.957,5.6768-1.3262,11.6279-2.165,17.6895-2.4941,6.9697-.376,13.9961-.0532,20.8857.9644,6.0479.8931,11.5059,2.1807,16.6875,3.9355,3.5596,1.2026,6.667,2.4043,9.498,3.6733,3.498,1.5654,6.9219,3.2788,10.1758,5.0918,4.0352,2.249,7.9697,4.9048,11.6934,7.8945,1.6602,1.3335,3.3057,2.7266,4.8984,4.0737l1.584,1.3379c.5869.4937.9297,1.1606.9629,1.8779.0322.6948-.2334,1.3643-.748,1.8853-.4111.4204-.8242.8467-1.2363,1.2734-1.4502,1.4995-2.9492,3.0498-4.5547,4.4595-2.5928,2.2749-5.6826,4.9229-8.9385,7.3101-3.2783,2.4048-6.5732,4.5674-9.7939,6.4282-5.2168,3.0171-10.9424,5.6187-17.0156,7.7324-6.5381,2.2764-13.0322,3.856-19.3027,4.6948-3.998.5322-8.0801.7715-12.0283,1.0034-1.2803.0762-2.582.1143-3.9121.1143h-.0004ZM191.1768,153.7798c19.499,16.6958,42.0127,24.894,66.8965,24.3726,26.3662-.5527,49.4863-10.5601,68.7363-29.7461-24.1689-20.2534-51.8232-27.9502-82.2236-22.8755-20.3125,3.3911-38.2754,12.8931-53.4092,28.249h0Z"/>
  <path class="cls-1" d="M214.3721,159.0254l-.083-.0024c-1.1787-.0312-2.3438-.0566-3.499-.0815-2.6475-.0576-5.1484-.1123-7.7041-.2319-4.2822-.1973-8.8604-.8105-13.9941-1.8745-.6123-.123-1.2305-.2637-1.8452-.416-.8301-.2036-1.4238-.5962-1.7617-1.166-.3311-.5581-.3931-1.2393-.1841-2.0249l.418-1.5884c.5308-2.0273,1.0796-4.124,1.7305-6.1685.7529-2.3647,1.7783-5.4722,3.041-8.5391,1.2197-2.9658,2.6504-5.8721,3.8887-8.3242,2.2549-4.4619,5.0049-8.876,8.4062-13.4937,3.6523-4.9575,7.9189-9.7358,12.6807-14.2017,4.2686-4.002,9.0039-7.7061,14.0742-11.0093,5.8428-3.8096,12.0908-7.043,18.5703-9.6104,5.6963-2.2568,11.0674-3.8735,16.4199-4.9424,3.6426-.731,6.9336-1.2451,10.0596-1.5708,3.8252-.3921,7.6465-.6201,11.3604-.6782,4.6367-.0703,9.3682.2627,14.0713.9902,2.041.3135,4.1035.6851,6.0977,1.0444l2.2197.397c.752.1318,1.3799.5352,1.7676,1.1367.3779.585.4854,1.2988.3027,2.0103-.1514.5859-.2979,1.1719-.4453,1.7578-.5039,2.0122-1.0254,4.0933-1.709,6.1079-1.1104,3.2695-2.4629,7.1094-4.084,10.8008-1.6367,3.7231-3.4111,7.2441-5.2725,10.4663-3.0127,5.2251-6.6699,10.3413-10.8691,15.2056-4.5938,5.3198-9.2959,9.8086-14.373,13.7236-3.1318,2.4165-6.4795,4.624-9.7158,6.7593l-.21.1382c-3.4395,2.27-7.3018,4.3242-11.8057,6.2798-2.9941,1.2974-6.3018,2.5654-10.1123,3.8765-2.3135.7998-4.8164,1.5166-8.1143,2.3232-2.8496.6938-5.3857,1.1953-7.752,1.5332-2.751.3936-5.5293.7002-8.2158.9961-1.1006.1211-2.1934.2417-3.2764.3672l-.082.0098h-.0001ZM190.4795,152.2539c25.2266,4.7056,48.8096.5508,70.1123-12.355,22.5596-13.6646,37.5811-33.897,44.6641-60.1455-31.0498-5.4536-58.8516,1.7168-82.6406,21.3208-15.8975,13.0977-26.7051,30.312-32.1357,51.1797h0Z"/>
  <path class="cls-1" d="M188.0332,155.3564c-.4155,0-.7915-.0928-1.124-.2793-.5664-.3174-.9609-.876-1.1733-1.6597l-.4253-1.5605c-.5562-2.0317-1.1309-4.1328-1.5923-6.2363-.5332-2.4448-1.2007-5.6665-1.6338-8.916-.4297-3.2026-.6421-6.4238-.7935-9.1519-.2769-5.0176-.1011-10.2148.5366-15.8896.6885-6.1353,1.9961-12.4087,3.8862-18.6455,1.688-5.5796,3.9355-11.1562,6.6816-16.5747,3.1572-6.2212,6.9531-12.146,11.2822-17.6108,3.8037-4.8008,7.6475-8.8867,11.749-12.4917,2.8203-2.4839,5.415-4.5752,7.9307-6.3931,3.1064-2.2495,6.3027-4.3594,9.498-6.2705,3.9648-2.3711,8.2295-4.4517,12.6748-6.1831,1.9902-.7725,4.0234-1.5044,5.9902-2.2124l1.9375-.6997c.7217-.2603,1.4697-.2246,2.1064.105.6182.3188,1.0654.8833,1.2607,1.5894.1641.5908.333,1.1826.502,1.7744.5664,1.9854,1.1523,4.0386,1.5645,6.1133.6709,3.3823,1.416,7.3804,1.8594,11.3965.4385,4.0288.6631,7.9648.667,11.7007,0,6.0449-.6113,12.3047-1.8174,18.6064-1.3203,6.9155-3.1475,13.1543-5.5869,19.0728-1.4854,3.6147-3.2568,7.1577-4.9707,10.5845l-.1777.3555c-1.8545,3.7031-4.1729,7.4136-7.0859,11.3447-1.9521,2.6304-4.1816,5.3823-6.8193,8.4146-1.6279,1.8726-3.4922,3.8013-5.8672,6.0698-2.0957,2.0044-4.04,3.7075-5.9434,5.2056-2.0164,1.5813-4.0508,3.1312-6.1019,4.6622-4.0778,3.0436-8.6615,5.3534-13.1686,7.6875-3.7852,1.9619-8.0557,3.7222-13.0557,5.3799-.6035.1973-1.2021.3843-1.8086.5601-.3477.1016-.6748.1523-.9814.1523v-.0004ZM252.8984,29.7798c-29.6201,10.8145-50.1104,30.9297-60.9141,59.8037-7.2212,19.2969-7.9766,39.6108-2.249,60.3994,24.1973-8.5454,42.542-23.9409,54.541-45.7739,12.7061-23.1211,15.6045-48.1562,8.6221-74.4292h0Z"/>
  <path class="cls-1" d="M187.0103,158.3228c-.6377,0-1.249-.2847-1.8174-.8467l-1.2061-1.1982c-1.4775-1.4629-3.0054-2.9761-4.4375-4.5488-1.7949-1.9727-3.896-4.335-5.8735-6.9014-1.9219-2.4946-3.6636-5.0933-5.2588-7.5298-2.7441-4.2036-5.1904-8.7925-7.4795-14.0308-2.4712-5.6655-4.4727-11.751-5.9502-18.0889-1.3286-5.6938-2.1689-11.6484-2.4976-17.6973-.377-6.96-.0513-13.9907.9683-20.897.8955-6.064,2.1816-11.5249,3.9316-16.6953,1.2012-3.5562,2.4028-6.6641,3.6729-9.501,1.563-3.4956,3.2764-6.9209,5.0923-10.1807,2.2559-4.0547,4.9106-7.9907,7.8911-11.6982,1.314-1.6387,2.6899-3.2666,4.021-4.8413l1.3857-1.6426c.4932-.5874,1.1587-.9297,1.873-.9639.6875-.0327,1.3643.2305,1.8882.7446.4302.4229.8643.8428,1.2979,1.2627,1.4907,1.4429,3.0317,2.9351,4.4346,4.5356,2.2803,2.604,4.9326,5.7021,7.3047,8.938,2.4004,3.2759,4.5615,6.5732,6.4248,9.8018,3.0117,5.2114,5.6113,10.938,7.7285,17.0195,2.2764,6.5425,3.8564,13.0405,4.6953,19.3145.5312,3.9951.7705,8.0762,1.002,12.0234.248,4.1646.0957,8.5366-.4648,13.3931-.376,3.2642-.9316,6.7637-1.6973,10.6987-.4766,2.4473-1.1279,5.0498-2.0488,8.1909-.8184,2.8071-1.6523,5.2549-2.5488,7.4819-1.0156,2.5366-2.1211,5.0562-3.1895,7.4927-.4629,1.0562-.9238,2.1055-1.3721,3.147l-.0771.1475c-.6104.9956-1.209,1.9824-1.8037,2.9609-1.3809,2.2754-2.6855,4.4243-4.0713,6.5894-2.2998,3.5942-5.1191,7.2529-8.6191,11.1855-.4121.4683-.8447.9331-1.2812,1.3901-.5918.6177-1.2271.9346-1.8882.9438h-.0293v.0003ZM181.5664,16.8047c-20.2456,24.1758-27.939,51.8447-22.8672,82.2617,3.3906,20.3198,12.8882,38.29,28.2368,53.4321,16.689-19.5078,24.8833-42.0166,24.3608-66.9233-.5488-26.3765-10.5508-49.5078-29.7305-68.7705h.0001Z"/>
  <g>
    <path class="cls-1" d="M192.0508,126.6953c-.1016,3.8242-.1445,7.5078-.3125,11.1875-.2148,4.6523-.9062,9.2539-1.8477,13.8125-.125.6055-.2617,1.207-.4102,1.8047-.2422,1.0039-.7773,1.3633-1.7578,1.1016-2.5742-.6836-5.1641-1.3242-7.7031-2.1328-2.8438-.9102-5.6836-1.8711-8.4453-3.0078-2.8008-1.1523-5.5312-2.4844-8.2383-3.8555-4.6836-2.3711-9.0977-5.1914-13.3203-8.3086-5.0703-3.7383-9.7305-7.9453-14.0391-12.543-4.0391-4.3164-7.6484-8.9688-10.8789-13.9219-3.7812-5.8047-6.9492-11.9297-9.5-18.3711-2.0859-5.2695-3.7695-10.668-4.8789-16.2227-.6602-3.293-1.207-6.6211-1.5508-9.9609-.3867-3.7383-.6172-7.5039-.6719-11.2617-.0703-4.6445.2656-9.2852.9727-13.8828.4258-2.7695.9492-5.5312,1.4375-8.293.1523-.8516.8594-1.3672,1.7109-1.1484,2.6016.6719,5.2383,1.2695,7.7773,2.1289,3.6133,1.2266,7.2148,2.5156,10.7031,4.0508,3.5312,1.5547,7.0078,3.2891,10.3477,5.2148,5.3477,3.0859,10.3359,6.7031,15.0195,10.75,4.9844,4.3047,9.5469,9,13.5586,14.207,2.4375,3.168,4.6406,6.5195,6.8438,9.8633,2.4219,3.6758,4.4297,7.5977,6.1797,11.6328,1.4219,3.2852,2.6797,6.6484,3.8438,10.0312.9023,2.625,1.6328,5.3164,2.2891,8.0117.6133,2.5234,1.1445,5.0781,1.5117,7.6445.5508,3.8516.9258,7.7266,1.3594,11.4688h0ZM113.0586,34.2734c-5.8828,31.6914.9258,60.0742,21.332,84.8633,13.8477,16.8203,31.6875,27.543,52.9688,32.8438,5.0742-25.7461,1.2383-49.875-12.2656-72.1797-14.2852-23.6016-35.125-38.5586-62.0352-45.5273h0Z"/>
    <g class="cls-2">
      <path class="cls-1" d="M102.3359,31.6641l4.9727,126.5469,89.9648-3.5352-4.9727-126.5469s-89.9648,3.5352-89.9648,3.5352Z"/>
    </g>
  </g>
  <path class="cls-1" d="M188.2842,155.8477c-.2705,0-.5586-.0405-.8618-.1216l-1.5874-.4175c-2.0273-.5308-4.124-1.0796-6.1685-1.7305-2.5532-.8174-5.5625-1.8174-8.5352-3.0405-2.9775-1.2251-5.8774-2.6558-8.3213-3.8936-4.4814-2.2686-8.8926-5.02-13.4858-8.4106-4.9614-3.6582-9.7383-7.9253-14.1973-12.6836-3.9858-4.2598-7.688-8.9976-11.0044-14.082-3.8081-5.8462-7.0405-12.0967-9.6074-18.5781-2.2515-5.689-3.8667-11.061-4.938-16.4233-.7339-3.6611-1.2466-6.9551-1.5674-10.0698-.3955-3.8252-.6235-7.6489-.6777-11.3638-.0698-4.6299.2617-9.3662.9863-14.0767.3164-2.0591.6914-4.1401,1.0537-6.1523l.3877-2.1665c.1357-.7583.542-1.3877,1.1436-1.7744.5825-.3745,1.2944-.4824,2.0034-.2988.584.1509,1.1685.2974,1.7529.4443,2.0137.5054,4.0957,1.0283,6.1079,1.7095,3.2661,1.1084,7.1021,2.4609,10.7988,4.0879,3.6968,1.6274,7.2163,3.4014,10.4604,5.272,5.2144,3.0088,10.3281,6.6685,15.1992,10.8774,5.314,4.5898,9.8018,9.2925,13.7197,14.3774,2.4287,3.1572,4.6504,6.5293,6.7988,9.79l.0947.1431c2.2715,3.4478,4.3242,7.3105,6.2754,11.8101,1.2988,3.0015,2.5669,6.3101,3.8765,10.1157.8037,2.3374,1.541,4.916,2.3193,8.1152.6934,2.8511,1.1943,5.3872,1.5332,7.7549.3936,2.7495.6992,5.5249.9941,8.209.1221,1.1055.2432,2.2036.3691,3.291l.0098.082-.002.0825c-.0312,1.1733-.0576,2.3335-.083,3.4844-.0586,2.6548-.1133,5.1626-.2305,7.7256-.1982,4.2793-.8096,8.8569-1.8711,13.9946-.1279.6206-.2676,1.2373-.4199,1.8501-.1992.8257-.5908,1.4209-1.1611,1.7603-.3438.2041-.7334.3066-1.165.3066h.0003ZM112.1411,32.8389c-.0337.0342-.0703.1011-.0889.2061l-.3887,2.1714c-.3604,1.998-.7324,4.064-1.0444,6.0933-.7046,4.5825-1.0273,9.188-.959,13.6885.0527,3.6475.2769,7.4019.6655,11.1597.313,3.0405.8149,6.2632,1.5347,9.8516,1.0435,5.2251,2.6196,10.4658,4.8198,16.0234,2.5093,6.3369,5.6694,12.4482,9.3931,18.1641,3.2417,4.9707,6.8599,9.6011,10.7534,13.7617,4.3613,4.6543,9.0317,8.8267,13.8799,12.4014,4.4883,3.3135,8.791,5.9976,13.1553,8.207,2.4038,1.2178,5.2524,2.623,8.1553,3.8174,2.8965,1.1924,5.8501,2.1733,8.3574,2.9756,1.9849.6323,4.0513,1.1733,6.0498,1.6963l1.5972.4204c.1094.0288.1836.0391.2295.042.0244-.0493.0615-.1396.0977-.2915.1465-.5903.2803-1.1768.4023-1.7671,1.0361-5.0171,1.6328-9.4756,1.8242-13.6309.1162-2.5347.1709-5.0293.2295-7.6699.0244-1.1274.0498-2.2632.0801-3.4121-.123-1.0645-.2412-2.1396-.3604-3.2217-.2939-2.6655-.5977-5.4219-.9854-8.1343-.3281-2.2925-.8154-4.7573-1.4902-7.5342-.7617-3.1274-1.4795-5.6406-2.2593-7.9082-1.2896-3.7485-2.5361-7.0024-3.811-9.9473-1.897-4.374-3.8867-8.1211-6.0835-11.4546l-.0942-.1436c-2.1255-3.2256-4.3232-6.5615-6.6997-9.6504-3.8203-4.9585-8.2026-9.5498-13.397-14.0361-4.7603-4.1133-9.7534-7.687-14.8408-10.6226-3.1709-1.8286-6.6147-3.564-10.2349-5.1577-3.6147-1.5908-7.3911-2.9219-10.6079-4.0137-1.9229-.6509-3.959-1.1621-5.9277-1.6567-.5898-.1479-1.1792-.2959-1.7666-.4478-.042-.0103-.1221-.0234-.1641.0029-.0054.0034-.0107.0078-.0166.0132l1.2051.312c27.4355,7.105,48.5439,22.5986,62.7393,46.0518,13.416,22.1597,17.5918,46.7231,12.4121,73.0073l-.2373,1.2002-1.1865-.2959c-21.8916-5.4526-39.9204-16.6338-53.5864-33.2334-20.3086-24.6704-27.5684-53.543-21.5776-85.8154l.2271-1.2222h-.0002ZM113.98,35.7212c-5.4487,31.0664,1.7178,58.876,21.3096,82.6758,13.0928,15.9038,30.2998,26.7158,51.1592,32.1504,4.7026-25.2422.5503-48.835-12.3506-70.1436-13.6597-22.5684-33.8818-37.5962-60.1182-44.6826Z"/>
  <path class="cls-1" d="M263.5889,276.3564c-.25,0-.5049-.0352-.7588-.1055l-1.8984-.5215c-2.0439-.5586-4.1562-1.1357-6.2275-1.7598-4.5615-1.3721-8.9766-3.1113-13.124-5.1689-3.3389-1.6543-6.6914-3.5059-9.9639-5.502-2.6475-1.6182-5.3975-3.5-8.4072-5.7539-4.3867-3.2861-8.5381-7.0576-12.6914-11.5303-4.7412-5.1035-8.9893-10.7129-12.625-16.6738-3.1572-5.1699-5.8369-10.5537-7.9648-15.999-2.3765-6.0811-4.1719-12.2305-5.3364-18.2783-1.0811-5.6182-1.6631-10.7861-1.7783-15.7983-.064-2.75-.106-5.9917.0674-9.1875.1782-3.2397.5728-6.376.9351-9.0171.29-2.1045.6914-4.2153,1.0796-6.2568l.3159-1.6733c.1499-.7988.4995-1.3862,1.04-1.7476.5522-.3696,1.2593-.4663,2.0967-.2915.6143.1274,1.2305.2676,1.8428.4194,5.1094,1.2573,9.5039,2.6758,13.4346,4.335,2.3564.9937,4.6377,2.0205,7.0527,3.1079,1.0537.4741,2.1162.9526,3.1934,1.4321l.1465.0776c.9277.5825,1.8682,1.1655,2.8135,1.7524,2.293,1.4219,4.6631,2.8926,6.9736,4.4282,1.9941,1.3271,4.0674,2.8721,6.3369,4.7231,2.6299,2.1514,4.5791,3.876,6.3232,5.5923,2.9004,2.8516,5.3398,5.4209,7.4561,7.8545,3.2168,3.6909,5.8184,7.2065,7.9551,10.7485l.1621.2695c1.9912,3.3057,4.0518,6.7236,5.832,10.2354,2.8594,5.6436,5.2363,11.8926,7.0654,18.5742,1.6953,6.2031,2.7949,12.3955,3.2676,18.4072.291,3.7227.376,7.6641.2529,11.7168-.124,4.0518-.5547,8.0908-.96,11.5078-.2529,2.1309-.6807,4.251-1.0947,6.3018-.1162.5752-.2324,1.1504-.3447,1.7256-.1445.7246-.5498,1.3213-1.1426,1.6855-.3984.2451-.8525.3701-1.3252.3701l-.0002.0003ZM189.4678,156.2397c-4.0762,21.1748-1.729,41.3677,6.9814,60.0376,13.0381,27.9404,35.0439,46.3838,65.418,54.834,4.8975-26.7432.0439-51.4727-14.4336-73.5195-13.6729-20.8223-33.1699-34.73-57.9658-41.3521h0Z"/>
  <path class="cls-1" d="M193.4033,297.1562c-.6914,0-1.3525-.2891-1.8701-.8203l-1.5039-1.5225c-1.4512-1.4648-2.9512-2.9795-4.3926-4.5117-3.2598-3.4639-6.2158-7.1797-8.7856-11.0439-2.0732-3.1211-4.0488-6.4004-5.873-9.748-1.4946-2.7412-2.936-5.7451-4.4077-9.1846-2.1494-5.0176-3.8599-10.3613-5.2285-16.335-1.5542-6.7852-2.4297-13.7686-2.603-20.7539-.1484-6.0576.2212-12.0596,1.0986-17.8408.9751-6.4248,2.4941-12.6494,4.5156-18.4985,1.877-5.418,3.9561-10.1855,6.356-14.5762,1.3003-2.3804,2.8696-5.1831,4.6514-7.9204,1.811-2.7734,3.791-5.3799,5.314-7.3408,1.3076-1.686,2.7173-3.3184,4.0801-4.8965l1.0962-1.272c.5254-.6162,1.1216-.9512,1.77-.9951.6655-.0469,1.3237.2227,1.9634.7944.4697.4214.9326.8486,1.3887,1.2881,3.7842,3.6309,6.8818,7.0566,9.4668,10.4712,1.5547,2.0547,3.0273,4.1016,4.5879,6.269.6641.9229,1.334,1.854,2.0156,2.7925l.0879.1401c.5166.9775,1.0439,1.9614,1.5752,2.9517,1.2695,2.3687,2.582,4.8179,3.8096,7.2939,1.0615,2.1406,2.084,4.5156,3.127,7.2603,1.2012,3.168,2.0283,5.6367,2.6826,8.0059,1.0869,3.916,1.915,7.3613,2.5322,10.5322.9404,4.8057,1.4365,9.1533,1.5176,13.29l.0078.4355c.0713,3.8184.1455,7.7676-.0684,11.6582-.3418,6.3047-1.4062,12.9053-3.165,19.6182-1.623,6.21-3.7656,12.124-6.3682,17.5771-1.6045,3.3672-3.5,6.8232-5.6348,10.2715-2.1396,3.4541-4.5293,6.7344-6.585,9.4863-1.2949,1.7354-2.7412,3.373-4.1396,4.957-.375.4248-.751.8496-1.123,1.2764-.4766.5518-1.125.8691-1.8223.8896-.0244.001-.0488.001-.0732.001h-.0003ZM187.9795,155.7124c-14.1143,16.2949-22.1719,34.9556-23.9565,55.4858-2.6738,30.7168,7.1641,57.6963,29.2446,80.2109,17.6094-20.708,25.7666-44.5518,24.2461-70.8887-1.4336-24.876-11.3682-46.6733-29.5342-64.8081h0Z"/>
  <path class="cls-1" d="M121.3916,281.1865c-.4033,0-.7969-.0967-1.1543-.2881-.6299-.3379-1.0835-.9326-1.2773-1.6738l-.5391-2.0654c-.5239-1.999-1.0654-4.0664-1.5498-6.1182-1.0918-4.6338-1.7954-9.3291-2.0913-13.9551-.2329-3.7256-.3047-7.5557-.2129-11.3838.0762-3.1172.3291-6.4404.7734-10.1602.6499-5.4443,1.8398-10.9268,3.6372-16.7598,2.0464-6.6611,4.7773-13.1475,8.1177-19.2764,2.895-5.3145,6.2144-10.3281,9.8662-14.9004,4.064-5.0845,8.4907-9.7148,13.1587-13.7622,4.3218-3.7466,8.5039-6.8354,12.7861-9.4429,2.3237-1.416,5.0908-3.062,7.9893-4.5322,2.936-1.4917,5.9624-2.7612,8.2715-3.7002,1.9771-.8052,4.0166-1.5161,5.9888-2.2036l1.5742-.5503c.7671-.2686,1.4497-.2598,2.0308.0259.5947.292,1.0322.853,1.3018,1.667.1963.6021.3838,1.2041.5586,1.8057,1.4639,5.0464,2.4326,9.5635,2.9639,13.8101.3174,2.5391.5693,5.0298.8359,7.666.1162,1.1499.2334,2.3091.3574,3.481l.0088.083-.0029.083c-.041,1.1143-.0771,2.2388-.1123,3.3711-.084,2.6792-.1719,5.4497-.3457,8.1978-.1523,2.3994-.4531,4.9688-.9189,7.8545-.5342,3.2812-1.0674,5.9102-1.6787,8.2744-1.0068,3.9014-2.0107,7.2988-3.0684,10.3857-1.5918,4.6387-3.3359,8.6514-5.3325,12.2676l-.1411.2559c-1.8682,3.3857-3.7998,6.8867-5.9536,10.1885-3.4932,5.3613-7.5967,10.4023-12.5454,15.4092-4.52,4.5723-9.3315,8.6221-14.3018,12.0361-3.0796,2.1143-6.4487,4.1592-10.0142,6.0771-3.5562,1.9082-7.2744,3.5596-10.4429,4.9229-1.9736.8477-4.0278,1.5371-6.0146,2.2031-.5522.1855-1.104.3711-1.6538.5596-.2886.0986-.5811.1475-.8687.1475h-.0001ZM186.1616,155.6567c-20.3687,7.0537-36.6733,19.1826-48.4771,36.0649-17.6655,25.2646-22.6284,53.5508-14.7583,84.0947,25.5977-9.123,44.5786-25.6934,56.4282-49.2646,11.1875-22.2559,13.4756-46.1021,6.8071-70.895h.0001Z"/>
  <path class="cls-1" d="M90.0024,233.3232c-1.1772,0-2.3662-.0176-3.5649-.0547-4.0474-.124-8.0869-.5547-11.5044-.96-2.1113-.251-4.2139-.6768-6.2476-1.0879-.5918-.1201-1.1836-.2402-1.7759-.3555-.7163-.1396-1.312-.541-1.6777-1.1299-.3774-.6074-.4741-1.3486-.2729-2.0879l.5962-2.1719c.5352-1.958,1.0889-3.9824,1.6855-5.9639,1.374-4.5703,3.1123-8.9883,5.1655-13.1299,1.6504-3.333,3.502-6.6865,5.502-9.9678,1.6104-2.6406,3.4907-5.3906,5.7495-8.4082,3.2744-4.3833,7.0449-8.5371,11.5269-12.6987,5.1094-4.7515,10.7168-9.002,16.666-12.6328,5.1558-3.1509,10.5356-5.832,15.9902-7.9692,6.0786-2.377,12.2256-4.1724,18.271-5.3364,5.6143-1.0811,10.7808-1.6631,15.7949-1.7783,2.7485-.064,5.9897-.105,9.1836.0674,2.6025.1436,5.3813.4316,9.0112.9355,2.1094.2905,4.2266.6934,6.2739,1.083l1.6509.312c.7979.1499,1.3857.4995,1.7471,1.04.3691.5518.4678,1.2573.292,2.0967-.1279.6172-.2637,1.229-.416,1.8452-1.2617,5.123-2.6797,9.5195-4.335,13.4395-.9985,2.3682-2.0308,4.6626-3.124,7.0913-.4692,1.043-.9419,2.0942-1.416,3.1597l-.0776.146c-.6001.9551-1.1997,1.9238-1.8037,2.8984-1.4038,2.2666-2.856,4.6099-4.373,6.8926-1.3428,2.0186-2.8882,4.0908-4.7241,6.3379-2.0894,2.5645-3.8633,4.5752-5.582,6.3281-2.8413,2.8906-5.4092,5.3311-7.8511,7.4609-3.7056,3.2256-7.2217,5.8281-10.75,7.9561l-.3096.1865c-3.2905,1.9854-6.6934,4.0381-10.1865,5.8115-5.6455,2.8604-11.8921,5.2373-18.5669,7.0654-6.1899,1.6973-12.3804,2.7979-18.3999,3.2715-2.6196.2051-5.3486.3076-8.1475.3076v.0003ZM70.0991,226.6758c26.728,4.9053,51.4473.0488,73.4883-14.4375,20.8149-13.6787,34.7153-33.186,41.3296-57.9932-21.1685-4.0762-41.3506-1.728-60.0063,6.9854-27.9302,13.0459-46.3657,35.0605-54.8115,65.4453h-.0001Z"/>
  <path class="cls-1" d="M111.9365,187.8989c-1.9312,0-3.8706-.0352-5.7959-.1387-6.3174-.3462-12.915-1.4111-19.6113-3.1655-6.2192-1.6309-12.1309-3.7749-17.5698-6.3726-3.377-1.6143-6.8311-3.5112-10.2676-5.6387-3.4761-2.1553-6.7441-4.54-9.4829-6.5889-1.7031-1.27-3.3091-2.6895-4.8628-4.0615-.4541-.4014-.9082-.8022-1.3647-1.1997-.5537-.4819-.8696-1.1304-.8906-1.8252-.021-.7148.2686-1.4048.8164-1.9424l1.3564-1.3413c1.52-1.5059,3.0913-3.063,4.6812-4.5581,3.4473-3.2529,7.1606-6.2104,11.0352-8.7896,3.0674-2.0435,6.3457-4.021,9.7432-5.8765,2.752-1.5,5.7554-2.9419,9.1821-4.4082,5.0132-2.1509,10.354-3.8628,16.3267-5.2324,6.8052-1.5586,13.7856-2.4346,20.7476-2.603,6.0522-.1499,12.0513.2217,17.832,1.0986,6.4321.9766,12.6538,2.4971,18.4912,4.5195,5.4209,1.8799,10.186,3.9585,14.5684,6.356,2.542,1.3926,5.2603,2.9199,7.918,4.6562,2.7715,1.8101,5.3779,3.79,7.3389,5.313,1.689,1.3154,3.3257,2.728,4.9082,4.0942l1.2568,1.082c.6152.5288.9492,1.1245.9932,1.772.0449.6616-.2217,1.3218-.791,1.9629-.4229.4722-.8506.9355-1.29,1.3906-3.647,3.8018-7.0718,6.9009-10.4673,9.4717-1.9786,1.4981-3.9703,2.9696-5.966,4.4388-4.1563,3.051-8.8652,5.3614-13.4739,7.6447-2.1489,1.0654-4.5225,2.0884-7.2554,3.1274-3.1079,1.1792-5.6499,2.0327-8.0005,2.6855-3.8809,1.0767-7.3252,1.9053-10.5293,2.5327-4.792.9375-9.1372,1.4326-13.2827,1.5137l-.147.0024c-2.022.0396-4.0796.0801-6.1465.0801l-.0003.0003ZM47.8354,158.7012c20.6963,17.6167,44.5293,25.7764,70.8594,24.2578,24.8638-1.437,46.6514-11.3774,64.7769-29.5498-16.2915-14.1216-34.9438-22.1841-55.4595-23.9683-30.7095-2.6782-57.6748,7.1694-80.1768,29.2603h0Z"/>
  <path class="cls-1" d="M158.2113,159.5752c-3.5605.0751-7.1222-.0858-10.6874-.312-2.4038-.1562-4.9697-.458-7.8462-.9224-3.2759-.5327-5.9028-1.0649-8.269-1.6743-3.9277-1.0186-7.3242-2.0239-10.3838-3.0732-4.6401-1.5962-8.6509-3.3413-12.2632-5.3359l-.1948-.1074c-3.4038-1.8784-6.9243-3.8208-10.2456-5.9873-5.2993-3.459-10.481-7.6826-15.4019-12.5542-4.5669-4.5181-8.6147-9.3311-12.0312-14.3047-2.1001-3.0586-4.1436-6.4302-6.0737-10.0225-1.9287-3.5938-3.5693-7.2979-4.9194-10.4478-.8364-1.9478-1.519-3.9775-2.1792-5.9404-.1943-.5771-.3882-1.1543-.5859-1.729-.2383-.6914-.188-1.4102.1416-2.0229.3394-.6313.9346-1.0845,1.6758-1.2759l1.9565-.5122c2.0332-.5347,4.1357-1.0869,6.2231-1.5796,4.6289-1.0913,9.3213-1.7949,13.9473-2.0913,3.7266-.2363,7.5562-.3091,11.3809-.2129,3.0781.0718,6.3994.3247,10.1519.7734,5.4395.6494,10.9204,1.8394,16.7554,3.6372,6.6699,2.0537,13.1528,4.7866,19.269,8.1216,5.3174,2.9028,10.3276,6.2251,14.8926,9.8745,5.0884,4.0698,9.7173,8.4985,13.7583,13.1626,3.7461,4.3257,6.832,8.5093,9.4351,12.79,1.4238,2.3369,3.0762,5.1143,4.5322,7.9937,1.4658,2.8892,2.6929,5.8037,3.6997,8.2734.811,1.9912,1.5249,4.0454,2.2158,6.0322l.5347,1.5327c.27.7637.2622,1.4473-.0234,2.0303-.292.5962-.854,1.0352-1.6704,1.3047-.5962.1963-1.1987.3838-1.8013.5596-5.0645,1.4683-9.5801,2.439-13.8062,2.9673-2.1421.2678-4.2921.4717-6.4365.6997-1.9168.2038-3.8336.3126-5.7507.3531h-.0001ZM62.3511,87.832c9.1196,25.6094,25.6816,44.5991,49.2422,56.4521,22.2515,11.1929,46.0884,13.4824,70.8677,6.8115-7.0527-20.376-19.1768-36.688-36.0503-48.4976-25.2524-17.6743-53.5273-22.6396-84.0596-14.7661h0Z"/>
  <path class="cls-1" d="M260.0781,347.1406c-.4492,0-.8291-.1611-1.1279-.4795-.2891-.3125-.4346-.6807-.4346-1.0947v-27.7812c0-.4492.1367-.8301.4062-1.1328.2881-.3213.6768-.4844,1.1562-.4844.459,0,.8398.1621,1.1309.4824.292.2959.4434.6807.4434,1.1348v1.8916c.0469-.0625.0938-.123.1416-.1836.5752-.7168,1.249-1.3389,2.0029-1.8486.7705-.5195,1.6172-.9102,2.5186-1.1611.9023-.2637,1.8613-.3975,2.8486-.3975,1.9727,0,3.751.4951,5.2861,1.4717,1.5332.9727,2.7656,2.3301,3.6611,4.0322.8984,1.6973,1.3535,3.6729,1.3535,5.8711,0,2.1914-.4551,4.1729-1.3535,5.8896-.8945,1.709-2.1328,3.0801-3.6797,4.0752-1.5469.9902-3.3057,1.4922-5.2285,1.4922-1.0176,0-2-.1543-2.9209-.46-.9307-.3135-1.7822-.7354-2.5312-1.2568-.748-.5205-1.4268-1.1475-2.0156-1.8623-.0283-.0342-.0557-.0693-.083-.1035v10.3311c0,.416-.1504.7852-.4482,1.0967-.2861.3154-.667.4775-1.126.4775h0ZM260.0781,316.7539c-.3096,0-.5449.0947-.7188.2891s-.2578.4375-.2578.7422v27.7812c0,.2656.0908.4932.2773.6953.373.3965,1.0449.3887,1.3965.002.1973-.207.291-.4336.291-.6973v-11.1611c-.29-.458-.5371-.9336-.7393-1.4219l-.0879-.2119,1.4131-1.0439v2.5059c.165.251.3447.4961.5371.7354.5537.6709,1.1924,1.2607,1.8965,1.752.7031.4883,1.5049.8857,2.3828,1.1816.8594.2852,1.7793.4297,2.7344.4297,1.8086,0,3.4619-.4707,4.9121-1.3994,1.46-.9395,2.6299-2.2354,3.4766-3.8535.8545-1.6318,1.2871-3.5225,1.2871-5.6182,0-2.1016-.4326-3.9854-1.2861-5.5977-.8477-1.6113-2.0107-2.8936-3.457-3.8115-1.4395-.915-3.1123-1.3799-4.9717-1.3799-.9316,0-1.835.126-2.6875.375-.8438.2354-1.6338.5996-2.3516,1.083-.7051.4775-1.335,1.0596-1.873,1.7295-.2217.2773-.4219.5732-.5996.8857v2.1465l-1.2383-.7178.0732-.2256c.1543-.4766.3477-.9287.5791-1.3545v-2.8086c0-.2988-.0928-.5381-.2832-.7314-.1855-.2051-.4141-.2998-.7051-.2998h0ZM260.959,332.9688c.0342.0781.0703.1553.1074.2314v-.3105l-.1074.0791h0ZM347.0625,339.043c-1.5703,0-3.1064-.3086-4.5654-.917-1.4727-.6152-2.793-1.6494-3.9258-3.0723l-.0127-.0186c-.2627-.3867-.3887-.7822-.375-1.1748.0205-.4316.2471-.7793.6738-1.0342.2598-.2197.6006-.3281.9697-.2852.3662.0332.708.2041,1.0127.5098.7656.9824,1.6729,1.7656,2.7217,2.3535,1.0518.584,2.3174.8809,3.7588.8809.7578,0,1.5205-.1309,2.2676-.3906.7461-.2598,1.3408-.6387,1.8174-1.1592.46-.498.6924-1.1387.6924-1.9033,0-.8105-.2256-1.4434-.6895-1.9355-.4756-.5049-1.1055-.9102-1.873-1.2051-.7764-.2998-1.6328-.5703-2.5449-.8018-1.0039-.2686-1.957-.5654-2.8359-.8838-.9258-.3291-1.7617-.7549-2.4834-1.2627-.7295-.5244-1.3242-1.1631-1.7695-1.9004-.4482-.7598-.6748-1.6875-.6748-2.7607,0-1.2539.3467-2.3721,1.0312-3.3232.6875-.9473,1.623-1.6943,2.7812-2.2207,1.1611-.5283,2.4854-.7959,3.9375-.7959.7363,0,1.5322.0967,2.3662.2891.8408.1816,1.6865.499,2.5107.9414.8271.4414,1.5732,1.0498,2.2178,1.8066.2949.2988.4521.6621.4521,1.0645,0,.4111-.1758.7793-.5225,1.0928-.6299.4727-1.4678.4561-1.957-.1123-.6445-.7217-1.4287-1.2793-2.3291-1.6553-.8984-.3877-1.874-.583-2.9023-.583-.7822,0-1.5322.1309-2.2305.3887-.6709.25-1.2412.6328-1.6914,1.1387-.4277.4727-.6445,1.1201-.6445,1.9258.0488.7275.3135,1.3389.7861,1.7979.4961.4844,1.166.8945,1.9932,1.2188.8496.333,1.8193.6445,2.8818.9268.9043.2246,1.7969.5,2.6484.8174.8506.3164,1.6211.7246,2.2891,1.2139.6738.4922,1.2168,1.1211,1.6133,1.8682.4082.7393.6162,1.6865.6162,2.8135,0,1.3174-.374,2.4697-1.1113,3.4248-.7178.9443-1.6963,1.6787-2.9092,2.1816-1.1914.4922-2.5342.7412-3.9912.7412v-.0004ZM339.0371,334.6973c1.0684,1.3408,2.3086,2.3125,3.6855,2.8877,1.3877.5781,2.8477.8721,4.3398.8721,1.3799,0,2.6475-.2344,3.7666-.6963,1.1152-.4629,2.0127-1.1348,2.668-1.9971.6582-.8516.9912-1.8838.9912-3.0684,0-1.0264-.1836-1.8789-.5459-2.5342-.3564-.6729-.8418-1.2354-1.4434-1.6748-.625-.457-1.3477-.8398-2.1484-1.1377-.8311-.3086-1.7021-.5781-2.5889-.7988-1.0889-.2891-2.0801-.6074-2.9512-.9492-.8994-.3525-1.6357-.8047-2.1875-1.3438-.5791-.5625-.9033-1.3018-.9619-2.1982-.001-.9746.2666-1.7539.793-2.3369.5137-.5762,1.1611-1.0127,1.9238-1.2969.7646-.2822,1.583-.4248,2.4346-.4248,1.1094,0,2.1621.2119,3.1318.6289.9785.4092,1.834,1.0176,2.54,1.8086.3008.3486.7959.3066,1.1455.0459.2002-.1826.3076-.3975.3076-.6396,0-.2461-.0977-.4658-.2988-.6689-.6104-.7168-1.2988-1.2783-2.0615-1.6855-.7871-.4229-1.5596-.7119-2.3623-.8867-.7939-.1826-1.5459-.2744-2.2383-.2744-1.3672,0-2.6104.25-3.6953.7432-1.0645.4844-1.9219,1.167-2.5479,2.0303-.6104.8486-.9209,1.8516-.9209,2.9805,0,.9668.1992,1.7949.5918,2.46.4033.667.9443,1.2471,1.6064,1.7236.6758.4756,1.4639.876,2.3418,1.1885.8643.3135,1.8008.6055,2.7852.8682.9316.2363,1.8105.5137,2.6084.8223.8496.3271,1.5527.7812,2.0879,1.3496.5635.5977.8496,1.3848.8496,2.3379,0,.917-.2852,1.6904-.8467,2.2998-.5352.585-1.2275,1.0283-2.0566,1.3164-.8086.2812-1.6367.4229-2.46.4229-1.543,0-2.9033-.3213-4.0449-.9551-1.1182-.627-2.085-1.4609-2.874-2.4785-.1846-.1807-.3984-.292-.6309-.3135-.2227-.0205-.4033.0361-.5752.1797-.3711.2256-.4189.4385-.4258.5811-.0098.2598.0811.5342.2676.8125l.0002-.0004ZM327.3789,339.043c-2.1758,0-4.1143-.5156-5.7627-1.5322-1.6396-1.0186-2.9355-2.4248-3.8525-4.1797-.9111-1.7549-1.373-3.7617-1.373-5.9639,0-2.1162.4707-4.0664,1.3975-5.7988.9268-1.7451,2.2432-3.165,3.9111-4.2188,1.6738-1.0664,3.6416-1.6074,5.8477-1.6074,1.3887,0,2.6738.1543,3.8213.459,1.1611.3037,2.1191.7275,2.8447,1.2617.7754.5635,1.1699,1.2012,1.1699,1.8926,0,.3457-.1201.6846-.3584,1.0059-.248.3428-.6074.5254-1.0361.5254-.4043,0-.7461-.1045-1.0146-.3105-.2441-.2002-.4648-.4072-.6807-.6377-.1826-.2002-.46-.3916-.8271-.5693-.333-.1592-.8281-.3057-1.5127-.4453-.665-.1416-1.4316-.2129-2.2812-.2129-1.5283,0-2.9258.3877-4.1533,1.1514-1.2275.7686-2.2119,1.8184-2.9258,3.1182-.709,1.2959-1.0693,2.7715-1.0693,4.3867,0,1.6475.3467,3.1533,1.0303,4.4746.6885,1.3096,1.6445,2.3535,2.8398,3.1006,1.1992.751,2.624,1.1318,4.2354,1.1318,1.0986,0,1.958-.0967,2.5557-.2871.623-.2041,1.1367-.4209,1.5664-.6631.501-.2891.8662-.5732,1.083-.8428.2988-.3711.7002-.5586,1.1934-.5586.458,0,.8105.1445,1.0488.4287.2305.2646.3496.6094.3496,1.0205,0,.5449-.3613,1.1113-1.1055,1.7324-.6982.5801-1.6523,1.0879-2.835,1.5088-1.1914.418-2.5723.6299-4.1064.6299h-.0003ZM327.5469,316.3281c-2.0928,0-3.9551.5107-5.5342,1.5166-1.5811.999-2.8281,2.3447-3.707,4-.8818,1.6465-1.3291,3.5039-1.3291,5.5225,0,2.1074.4395,4.0234,1.3066,5.6934.8682,1.6592,2.0928,2.9893,3.6416,3.9521,1.5537.958,3.3887,1.4443,5.4541,1.4443,1.4678,0,2.7832-.2012,3.9111-.5967,1.1172-.3975,2.0107-.8711,2.6553-1.4062.585-.4883.8945-.9316.8945-1.2822,0-.2695-.0684-.4785-.209-.6396-.126-.1494-.3271-.2236-.6035-.2236-.3154,0-.5498.1084-.7363.3398-.2656.3311-.6748.6533-1.25.9844-.4658.2627-1.0137.4951-1.6768.7119-.6572.21-1.5762.3154-2.7354.3154-1.7236,0-3.2529-.4102-4.5459-1.2207-1.2852-.8027-2.3105-1.9219-3.0498-3.3262-.7275-1.4072-1.0957-3.0039-1.0957-4.7461,0-1.7148.3838-3.2852,1.1416-4.668.7627-1.3896,1.8154-2.5107,3.1289-3.334,1.3232-.8232,2.8242-1.2402,4.4639-1.2402.8906,0,1.6982.0752,2.4004.2246.7305.1494,1.2695.3105,1.6484.4912.4346.2119.7725.4463,1.0039.7002.1953.209.3965.3984.6133.5762.1592.1211.374.1836.6504.1836.2432,0,.4229-.0908.5635-.2852.165-.2236.2451-.4395.2451-.6602,0-.5-.3047-.9648-.9297-1.4189-.667-.4912-1.5576-.8838-2.6484-1.1689-1.0986-.292-2.334-.4395-3.6719-.4395h0ZM241.7539,339.043c-1.9775,0-3.7715-.5166-5.332-1.5361-1.5547-1.0186-2.793-2.4336-3.6797-4.2041-.8838-1.7676-1.332-3.7783-1.332-5.9785,0-2.2471.4551-4.2627,1.3535-5.9902.9023-1.7344,2.1426-3.1143,3.6836-4.1006,1.543-.9893,3.3135-1.4912,5.2637-1.4912,1.2529,0,2.4463.2236,3.5469.665,1.0996.4395,2.0674,1.0479,2.877,1.8086.4238.3896.8018.8135,1.1309,1.2686v-1.6172c0-.4424.1484-.8252.4424-1.1377.2969-.3154.6768-.4756,1.1318-.4756.4521,0,.8311.1602,1.1279.4756.2939.3125.4424.6953.4424,1.1377v19.1758c0,.4199-.1572.791-.4688,1.1016-.6523.6533-1.6582.6055-2.2334-.0068-.293-.3066-.4424-.6758-.4424-1.0947v-1.8623c-.3584.4902-.7783.959-1.2578,1.4014-.7988.7344-1.7412,1.333-2.7998,1.7812-1.0625.4512-2.2246.6797-3.4541.6797v-.0002ZM241.7109,316.3281c-1.8359,0-3.5.4707-4.9473,1.3994-1.4541.9307-2.625,2.2344-3.4805,3.877-.8535,1.6436-1.2871,3.5674-1.2871,5.7197,0,2.1084.4277,4.0312,1.2695,5.7168.8408,1.6768,2.0107,3.0137,3.4775,3.9756,1.4629.9561,3.1494,1.4404,5.0107,1.4404,1.1504,0,2.2354-.2129,3.2256-.6328.9971-.4219,1.8818-.9854,2.6309-1.6729.6846-.6328,1.2412-1.3203,1.6553-2.0439v-2.3164l1.3125-.6211v.4629c0,.8467-.2354,1.7139-.6992,2.5762-.0088.0176-.0176.0342-.0273.0508v2.7832c0,.2666.0928.4932.2822.6924.3564.3789.9648.4209,1.3936-.0049.1992-.2002.2969-.4248.2969-.6875v-19.1758c0-.293-.0928-.5332-.2842-.7373-.3682-.3926-1.0381-.3887-1.4043,0-.1914.2041-.2842.4443-.2842.7373v2.5566c.0713.1348.1396.2715.2041.4102.458.9863.6904,2.0254.6904,3.0879v.5723l-1.4092-1.0146c.4531,1.1709.6826,2.46.6826,3.8447,0,1.7363-.3457,3.3379-1.0283,4.7598-.6924,1.4199-1.6504,2.5469-2.8477,3.3506-1.209.8135-2.6133,1.2256-4.1709,1.2256s-2.9619-.4121-4.1709-1.2256c-1.1992-.8047-2.1592-1.9316-2.8535-3.3486-.6846-1.415-1.0303-3.0166-1.0303-4.7617,0-1.7734.3467-3.3643,1.0312-4.7295.6924-1.3809,1.6611-2.4795,2.8799-3.2666,1.2236-.7979,2.6182-1.2031,4.1436-1.2031,1.5566,0,2.9609.4189,4.1729,1.2461,1.2012.8262,2.1572,1.9424,2.8438,3.3184.0986.1992.1914.4023.2764.6094v-2.7256c-.3965-.7119-.9092-1.3584-1.5303-1.9277-.7578-.7129-1.6641-1.2812-2.6953-1.6934-1.0312-.4141-2.1514-.624-3.3291-.624v-.0003ZM241.9727,318.7109c-1.4102,0-2.6963.373-3.8242,1.1084-1.1309.7305-2.0303,1.7529-2.6758,3.0391-.6426,1.2812-.9688,2.7842-.9688,4.4658,0,1.6562.3271,3.1719.9707,4.5049.6484,1.3223,1.541,2.3721,2.6533,3.1191,1.1113.7471,2.4053,1.126,3.8447,1.126s2.7334-.3789,3.8447-1.126c1.1104-.7451,2-1.7949,2.6455-3.1191.6436-1.3408.9707-2.8564.9707-4.5049,0-1.6113-.3262-3.083-.9697-4.373-.6406-1.2861-1.5322-2.3281-2.6494-3.0967-1.1123-.7588-2.4053-1.1436-3.8418-1.1436h0ZM249.8516,332.1621v.5439c.0518-.2002.0889-.3994.1123-.5967l-.1123.0527h0ZM249.8516,323.127l.2822.2031c-.043-.4756-.1367-.9453-.2822-1.4053v1.2021h0ZM200.9727,339.043c-2.2207,0-4.3096-.3926-6.208-1.166-1.9014-.7803-3.5762-1.8877-4.9795-3.291-1.3984-1.4053-2.501-3.0791-3.2788-4.9746-.7744-1.9014-1.1665-3.9902-1.1665-6.209,0-2.2109.3921-4.2959,1.166-6.1963.7773-1.9023,1.8809-3.5771,3.2783-4.9795,1.4043-1.4004,3.0801-2.5029,4.9805-3.2793,1.9014-.7793,3.9902-1.1738,6.208-1.1738,1.5205,0,3.0156.1807,4.4424.5361,1.4355.3633,2.7324.916,3.8535,1.6436.251.1729.4336.374.5479.6035.1211.2051.1875.4463.1875.7012,0,.4805-.1602.874-.4756,1.1709-.4434.4238-.9453.5342-1.502.3721-.1494-.0518-.2822-.1035-.4111-.168-.9521-.5312-1.9902-.9521-3.0996-1.2568-1.1055-.3037-2.2979-.458-3.543-.458-2.3789,0-4.5244.5469-6.376,1.624-1.8477,1.0703-3.3174,2.5664-4.3682,4.4482-1.0459,1.8789-1.5762,4.0361-1.5762,6.4121,0,2.3838.5303,4.5488,1.5762,6.4355,1.0518,1.8721,2.5215,3.3672,4.3682,4.4443,1.8496,1.0723,3.9951,1.6162,6.376,1.6162,1.2432,0,2.5107-.1816,3.7676-.54,1.1074-.3125,2.0908-.7275,2.9316-1.2354v-7.9941h-6.4414c-.4541,0-.8418-.1572-1.1523-.4688-.3066-.3164-.4609-.6855-.4609-1.1016,0-.4775.1582-.8662.4697-1.1533.3135-.2803.6973-.4209,1.1436-.4209h8.1406c.4463,0,.8232.1514,1.1211.4492s.4492.6768.4492,1.125v10.2695c0,.2822-.0723.5488-.2158.793-.1299.2246-.3037.4189-.5303.5947-1.2939.877-2.7344,1.5713-4.2969,2.0752-1.5693.499-3.2266.752-4.9258.752h0ZM200.9727,308.3594c-2.1406,0-4.1553.3809-5.9863,1.1309-1.8281.7461-3.4385,1.8066-4.7871,3.1514-1.3428,1.3457-2.4028,2.957-3.1504,4.7861-.7451,1.8291-1.123,3.8398-1.123,5.9746,0,2.1426.3779,4.1572,1.123,5.9873.748,1.8232,1.8086,3.4326,3.1514,4.7822,1.3477,1.3486,2.958,2.4121,4.7861,3.1621,1.8281.7451,3.8418,1.123,5.9863,1.123,1.6387,0,3.2363-.2441,4.7471-.7246,1.5088-.4863,2.8994-1.1562,4.1318-1.9912.1504-.1172.2754-.2568.3672-.416.0928-.1562.1367-.3184.1367-.4971v-10.2695c0-.292-.0908-.5244-.2773-.7109s-.418-.2773-.707-.2773h-8.1406c-.3018,0-.5469.0879-.75.2695-.1855.1709-.2773.4072-.2773.7188,0,.2617.0957.4873.292.6904.2002.1992.4346.2939.7354.2939h6.4414v-.9707l1.6699,1.5566h-1.084v7.6143l.3662-.2441-.374,1.6143-.5781-.0664v-.2461c-.8154.4561-1.7441.832-2.7715,1.1221-1.3086.3721-2.6309.5615-3.9277.5615-2.4854,0-4.7305-.5703-6.6709-1.6953-1.9385-1.1309-3.4805-2.7002-4.585-4.665-1.0957-1.9766-1.6504-4.2373-1.6504-6.7217,0-2.4766.5547-4.7305,1.6504-6.6973,1.1025-1.9756,2.6455-3.5469,4.5859-4.6699,1.9414-1.1299,4.1865-1.7031,6.6699-1.7031,1.2979,0,2.542.1611,3.6992.4795,1.1533.3174,2.2363.7559,3.2168,1.3037.0938.0469.2031.0889.3164.127.3125.0908.6211.0459.9209-.2393.1992-.1875.292-.4238.292-.7451,0-.1514-.0381-.2891-.1162-.4219-.0791-.1572-.1963-.2842-.3584-.3955-1.0615-.6885-2.2988-1.2158-3.6719-1.5625-1.3789-.3438-2.8262-.5186-4.2988-.5186h-.0002ZM138.1484,339.043c-1.5659,0-3.1021-.3086-4.5654-.917-1.4727-.6152-2.7935-1.6494-3.9258-3.0723l-.0142-.0205c-.2637-.3945-.3882-.791-.3696-1.1758.0156-.4248.2422-.7725.6738-1.0312.2505-.2158.5942-.3301.9702-.2852.3628.0332.7036.2051,1.0083.5098.7661.9834,1.6748,1.7666,2.7251,2.3535,1.0522.584,2.3174.8809,3.7593.8809.7578,0,1.521-.1309,2.2671-.3906.7397-.2588,1.3496-.6484,1.813-1.1582.4673-.5029.6934-1.125.6934-1.9043,0-.8135-.2256-1.4463-.689-1.9346-.4722-.5049-1.1006-.9102-1.8691-1.2061-.7905-.3037-1.6484-.5742-2.5488-.8018-1.0015-.2686-1.9546-.5654-2.8364-.8838-.9219-.3291-1.7573-.7539-2.4824-1.2617-.729-.5273-1.3223-1.166-1.7666-1.9014-.4507-.7568-.6787-1.6855-.6787-2.7607,0-1.251.3481-2.3691,1.0356-3.3232.6802-.9434,1.6143-1.6904,2.7764-2.2207,1.1611-.5283,2.4873-.7959,3.9419-.7959.7319,0,1.5283.0967,2.3662.2881.8462.1846,1.6909.502,2.5073.9424.8267.4414,1.5728,1.0498,2.2168,1.8066.2979.2959.4565.6602.4565,1.0645,0,.4072-.1753.7744-.5205,1.0908-.6284.4707-1.4595.4619-1.9609-.1084-.6475-.7256-1.4307-1.2832-2.3267-1.6572-.9023-.3867-1.8794-.583-2.9067-.583-.7832,0-1.5322.1309-2.2261.3877-.6797.2539-1.2349.627-1.6968,1.1406-.4268.4756-.6436,1.123-.6436,1.9248.0537.7412.311,1.3359.7861,1.7979.4941.4834,1.166.8926,1.9966,1.2188.8579.3359,1.8276.6475,2.8818.9268.9126.2275,1.8052.5029,2.6484.8174.8545.3174,1.6235.7266,2.2866,1.2139.668.4854,1.2119,1.1133,1.6157,1.8672.4087.748.6167,1.6953.6167,2.8145,0,1.3125-.374,2.4648-1.1113,3.4248-.7217.9443-1.7007,1.6787-2.9087,2.1816-1.1919.4922-2.5361.7412-3.9956.7412v-.0003ZM130.124,334.6982c1.0684,1.3398,2.3076,2.3115,3.6846,2.8867,1.3911.5781,2.8516.8721,4.3398.8721,1.3823,0,2.6514-.2344,3.771-.6963,1.1113-.4629,2.0093-1.1348,2.668-1.9971.6577-.8564.9907-1.8877.9907-3.0684,0-1.0195-.1841-1.873-.5464-2.5352-.3628-.6777-.8486-1.2393-1.4458-1.6729-.6206-.457-1.3418-.8398-2.145-1.1387-.8232-.3057-1.6948-.5752-2.5903-.7988-1.0796-.2852-2.0708-.6045-2.9497-.9492-.9043-.3535-1.6416-.8066-2.1919-1.3438-.5742-.5576-.8984-1.2969-.9624-2.1973-.0005-.9707.2666-1.75.793-2.3369.5195-.5781,1.1685-1.0146,1.9282-1.2979.7598-.2822,1.5776-.4248,2.4307-.4248,1.1074,0,2.1621.2119,3.1353.6289.9746.4072,1.8291,1.0156,2.5366,1.8086.3091.3516.8037.3027,1.1489.0459.1997-.1846.3081-.4004.3081-.6396,0-.2471-.0986-.4648-.3008-.668-.6123-.7178-1.3013-1.2793-2.064-1.6865-.769-.415-1.562-.7129-2.3579-.8867-.7979-.1826-1.5498-.2744-2.2383-.2744-1.3701,0-2.6147.25-3.6987.7432-1.0684.4873-1.9243,1.1699-2.5439,2.0303-.6138.8525-.9253,1.8555-.9253,2.9805,0,.9688.2002,1.7959.5957,2.459.4023.666.9424,1.2471,1.6035,1.7256.6782.4746,1.4673.875,2.3408,1.1875.8672.3135,1.8042.6045,2.7856.8682.9194.2324,1.7993.5098,2.6113.8223.8525.3281,1.5542.7822,2.0854,1.3506.5625.5928.8486,1.3789.8486,2.3369,0,.9219-.2852,1.6963-.8477,2.3008-.5273.5811-1.2183,1.0244-2.0518,1.3154-.8091.2812-1.6367.4229-2.46.4229-1.5425,0-2.9033-.3213-4.0444-.9551-1.1201-.626-2.0884-1.46-2.8784-2.4785-.1841-.1807-.3975-.292-.6274-.3135-.2192-.0234-.4038.0352-.5732.1777-.3765.2295-.4224.4395-.4272.5801-.0127.2578.0767.5312.2646.8164h0ZM65.1094,339.043c-2.0635,0-3.9595-.5068-5.6348-1.5059-1.6733-1.0156-3.0107-2.415-3.9771-4.1611-.9707-1.7568-1.4624-3.7637-1.4624-5.9658,0-2.2246.4922-4.2334,1.4629-5.9707.9668-1.7393,2.3042-3.1377,3.9746-4.1543,1.6753-1.0244,3.5718-1.543,5.6367-1.543,2.1187,0,4.0327.5195,5.6895,1.5439,1.6592,1.0156,2.9863,2.4141,3.9424,4.1553.9546,1.7295,1.4385,3.7383,1.4385,5.9688,0,2.208-.4839,4.2148-1.438,5.9648-.9556,1.7471-2.2827,3.1475-3.9448,4.1602-1.6567,1.001-3.5703,1.5078-5.6875,1.5078h0ZM65.1094,316.3281c-1.9556,0-3.749.4902-5.3315,1.457-1.583.9639-2.8506,2.2891-3.7676,3.9395-.9219,1.6494-1.3892,3.5625-1.3892,5.6855,0,2.1016.4673,4.0137,1.3892,5.6826.9165,1.6553,2.1836,2.9814,3.7666,3.9414,1.5815.9434,3.376,1.4229,5.3325,1.4229,2.0093,0,3.8203-.4785,5.3838-1.4229,1.5718-.958,2.8286-2.2842,3.7339-3.9404.9067-1.6621,1.3667-3.5742,1.3667-5.6836,0-2.1309-.4595-4.0439-1.3662-5.6865-.9067-1.6514-2.1636-2.9756-3.7358-3.9385-1.564-.9668-3.3745-1.457-5.3823-1.457h0ZM90.0781,338.918c-2.7349,0-4.9448-.7715-6.5679-2.2939-1.6294-1.5283-2.4556-3.7676-2.4556-6.6553v-12.0195c0-.4092.145-.7764.4316-1.0918.2993-.3184.6787-.4785,1.1309-.4785.4595,0,.8408.1602,1.1333.4766.292.3115.4409.6797.4409,1.0938v12.0195c0,1.958.5234,3.459,1.5557,4.4619,1.0322,1.002,2.4893,1.5107,4.3311,1.5107,1.875,0,3.3545-.5088,4.3984-1.5117,1.0444-1.0039,1.5742-2.5049,1.5742-4.4609v-12.0195c0-.4131.1406-.7793.418-1.0898.2798-.3184.6694-.4805,1.1562-.4805.4614,0,.8423.1611,1.1309.4785.2905.3096.4395.6777.4395,1.0918v12.0195c0,2.8896-.8359,5.1289-2.4844,6.6562-1.6382,1.5215-3.8696,2.293-6.6328,2.293h0ZM82.6172,316.9648c-.2876,0-.5171.0947-.7007.29-.1846.2041-.2759.4316-.2759.6943v12.0195c0,2.7188.7642,4.8145,2.271,6.2275,1.5107,1.417,3.5854,2.1357,6.1665,2.1357,2.6104,0,4.7075-.7188,6.2344-2.1367,1.5239-1.4121,2.2969-3.5068,2.2969-6.2266v-12.0195c0-.2637-.0928-.4902-.2837-.6943-.1792-.1963-.4072-.29-.7007-.29-.3154,0-.5498.0928-.7173.2832-.1826.2041-.271.4336-.271.7012v12.0195c0,2.1211-.5898,3.7646-1.7539,4.8828-1.1567,1.1123-2.7734,1.6758-4.8047,1.6758-1.9995,0-3.5942-.5645-4.7393-1.6768-1.1504-1.1172-1.7334-2.7598-1.7334-4.8818v-12.0195c0-.2637-.0928-.4902-.2842-.6943-.1836-.1982-.4067-.29-.7041-.29h0ZM310.0273,338.6172c-.4492,0-.8291-.1611-1.1279-.4795-.293-.3066-.4424-.6758-.4424-1.0947v-19.6016c0-.4189.1494-.7881.4443-1.0967.2969-.3164.6768-.4775,1.126-.4775.457,0,.8379.1621,1.1328.4805.292.3057.4414.6748.4414,1.0938v19.6016c0,.4219-.1592.792-.4727,1.1016-.3096.3135-.6797.4727-1.1016.4727v-.0002ZM310.0273,316.4531c-.2852,0-.5146.0967-.7002.2939-.1914.2012-.2842.4277-.2842.6943v19.6016c0,.2666.0928.4932.2822.6924.3594.3828.9736.418,1.3877-.0039l.0029-.0029c.2021-.1982.2998-.4229.2998-.6855v-19.6016c0-.2666-.0928-.4932-.2822-.6924-.1855-.2002-.415-.2959-.7061-.2959h0ZM300.8672,338.6172c-.4795,0-.8682-.1631-1.1562-.4844-.2744-.3086-.4141-.6748-.4141-1.0898v-12.0586c0-1.1162-.1729-2.1426-.5127-3.0498-.3379-.8896-.8682-1.5771-1.623-2.0996-.7363-.5186-1.7539-.7803-3.0244-.7803-1.1396,0-2.2363.2686-3.2598.7988-1.0166.5332-1.8486,1.2559-2.4727,2.1465-.6152.8848-.9277,1.8887-.9277,2.9844v12.0586c0,.4199-.1572.791-.4688,1.1016-.3027.3125-.6748.4727-1.1016.4727-.4844,0-.874-.1631-1.1572-.4863-.2695-.3066-.4053-.6729-.4053-1.0879v-28.9766c0-.415.1436-.7832.4277-1.0957.3047-.3193.6846-.4785,1.1348-.4785.4512,0,.8418.165,1.1299.4766.292.3115.4404.6807.4404,1.0977v11.5801c.3838-.4795.8203-.9268,1.3066-1.3389.8242-.6914,1.7412-1.2402,2.7256-1.6309,1.0078-.3926,2.0342-.5908,3.0537-.5908,1.8389,0,3.3555.4062,4.5068,1.209,1.1484.7881,2.0088,1.8779,2.5576,3.2402.541,1.3359.8145,2.834.8145,4.4492v12.0586c0,.4219-.1592.7939-.4736,1.1035-.3066.3115-.6787.4707-1.1006.4707h0ZM294.1367,318.4688c1.3936,0,2.5244.2979,3.3604.8848.8408.583,1.459,1.3828,1.8359,2.375.3652.9736.5498,2.0693.5498,3.2559v12.0586c0,.2705.0869.499.2656.6992.1738.1943.4092.2891.7188.2891.2627,0,.4873-.0977.6855-.2998.2051-.2012.3027-.4258.3027-.6885v-12.0586c0-1.54-.2598-2.9629-.7715-4.2305-.5049-1.2529-1.2949-2.2549-2.3477-2.9775-1.0537-.7334-2.457-1.1045-4.1738-1.1045-.9463,0-1.9014.1855-2.8389.5508-.9248.3662-1.7871.8828-2.5625,1.5332-.6641.5625-1.2295,1.1963-1.6846,1.8867v1.3164l-1.6309,2.4854.0684-1.1035c.0576-.9199.3516-1.8291.873-2.7021.0342-.0566.0684-.1123.1035-.168v-12.4043c0-.2666-.0928-.4941-.2842-.6982-.3594-.3877-1.0293-.3936-1.4062.002-.1807.1992-.2705.4277-.2705.6963v28.9766c0,.2725.085.502.2598.7012.1689.1934.4043.2871.7168.2871.2666,0,.4902-.0977.6846-.2979.2021-.2031.2998-.4277.2998-.6904v-12.0586c0-1.2178.3477-2.335,1.0332-3.3193.6777-.9697,1.5811-1.7539,2.6826-2.3311,1.1084-.5742,2.2959-.8652,3.5303-.8652v-.0003ZM286.8906,321.7305c-.0195.0449-.0371.0908-.0547.1367l.0547-.1367ZM217.8438,338.6172c-.4795,0-.8682-.1631-1.1562-.4844-.2705-.3145-.4062-.6797-.4062-1.0898v-19.0938c0-.4141.1455-.7822.4336-1.0938.2979-.3164.6768-.4766,1.1289-.4766.459,0,.8408.1602,1.1328.4766.293.3115.4414.6797.4414,1.0938v2.499c.3574-.6494.7842-1.2637,1.2734-1.834.7314-.8477,1.6152-1.5439,2.627-2.0693,1.0156-.5322,2.1748-.8027,3.4434-.8027.5439,0,1.084.1172,1.6074.3496.5879.251.9004.7031.9004,1.3066,0,.5029-.1436.9014-.4258,1.1836-.5078.5078-1.2256.5508-1.9766.1943-.2637-.126-.6172-.1904-1.0508-.1904-.7373,0-1.4883.2246-2.2334.666-.7617.4424-1.4668,1.0566-2.0986,1.8281-.6289.7646-1.1387,1.6348-1.5166,2.5869-.3643.9395-.5498,1.8984-.5498,2.8486v10.5273c0,.4219-.1592.7939-.4736,1.1035-.3018.3105-.6738.4707-1.1006.4707v.0002ZM217.8438,316.9648c-.2881,0-.5166.0947-.7002.29-.1855.2012-.2764.4287-.2764.6943v19.0938c0,.2656.0879.502.2607.7031.3174.3535.9805.4199,1.4004-.0127.2061-.2031.3037-.4277.3037-.6904v-10.5273c0-.6172.0723-1.2373.2158-1.8545l-.8848.1738.0332-.3877c.0791-.915.293-1.8359.6357-2.7393v-3.7588c0-.2637-.0928-.4902-.2842-.6943-.1836-.1982-.4062-.29-.7041-.29h.0002ZM218.832,324.0381c-.0029.0234-.0068.0469-.0098.0703l.0098-.002v-.0684h0ZM219.418,321.8164v1.6465c.001-.0039.0029-.0068.0039-.0107.4014-1.0107.9424-1.9326,1.6094-2.7441.6758-.8252,1.4346-1.4854,2.2549-1.9619.835-.4941,1.6865-.7461,2.5303-.7461.5225,0,.9609.083,1.3027.248.5195.2451.9736.2588,1.3105-.0801.168-.1689.2539-.4277.2539-.7695,0-.3652-.1748-.6094-.5488-.7695-.4512-.2002-.9121-.3008-1.373-.3008-1.1729,0-2.2402.248-3.1729.7363-.9463.4922-1.7705,1.1416-2.4531,1.9316-.6826.7959-1.2344,1.6797-1.6396,2.627-.0264.0645-.0527.1289-.0781.1934h-.0001ZM167.3477,338.6172c-.4795,0-.8687-.1631-1.1558-.4844-.2773-.3057-.4185-.6729-.4185-1.0898v-12.0586c0-1.126-.1724-2.1523-.5122-3.0488-.3281-.875-.873-1.5811-1.6201-2.1016-.7363-.5176-1.7544-.7793-3.0278-.7793-1.1411,0-2.2363.2686-3.2554.7988-1.0132.5293-1.8472,1.252-2.4775,2.1475-.6123.8799-.9233,1.8838-.9233,2.9834v12.0586c0,.4219-.1592.7939-.4741,1.1035-.3013.3105-.6729.4707-1.1001.4707-.4795,0-.8687-.1631-1.1558-.4844-.271-.3145-.4067-.6797-.4067-1.0898v-28.9766c0-.417.1455-.7861.4331-1.0977.3032-.3174.6821-.4766,1.1294-.4766.4551,0,.8354.1602,1.1318.4756.2935.3125.4424.6816.4424,1.0986v11.5781c.3809-.4756.8179-.9229,1.3066-1.3369.8169-.6885,1.7339-1.2373,2.7261-1.6309,1.0029-.3926,2.0283-.5908,3.0493-.5908,1.8428,0,3.3594.4062,4.5078,1.209,1.1509.79,2.0132,1.8809,2.561,3.2402.5376,1.3301.8101,2.8271.8101,4.4492v12.0586c0,.4248-.1582.7959-.4702,1.1035-.312.3115-.6826.4707-1.1001.4707v.0002ZM160.6133,318.4688c1.3965,0,2.5283.2979,3.3638.8848.8452.5889,1.4624,1.3887,1.8325,2.376.3647.9619.5498,2.0576.5498,3.2549v12.0586c0,.2705.0879.499.2676.6973.1753.1963.4106.291.7207.291.2598,0,.4849-.0986.6875-.3008.2002-.1973.2969-.4219.2969-.6875v-12.0586c0-1.5469-.2583-2.9697-.7681-4.2305-.5039-1.25-1.2949-2.252-2.3511-2.9775-1.0498-.7334-2.4536-1.1045-4.1738-1.1045-.9478,0-1.9014.1855-2.8345.5498-.9321.3701-1.7949.8867-2.5625,1.5332-.6704.5674-1.2358,1.2012-1.6851,1.8867v1.3174l-1.6396,2.4893.0737-1.1084c.0615-.9229.3564-1.8311.877-2.7012.0337-.0566.0679-.1133.103-.1689v-12.4033c0-.2666-.0928-.4941-.2842-.6982-.3623-.3867-1.0273-.3936-1.4062.002-.1836.1992-.2744.4277-.2744.6963v28.9766c0,.2656.0879.502.2612.7031.1699.1904.4053.2852.7153.2852.2661,0,.4897-.0977.6841-.2979.2061-.2031.3042-.4277.3042-.6904v-12.0586c0-1.2217.3462-2.3389,1.0288-3.3193.686-.9746,1.5898-1.7578,2.687-2.3311,1.104-.5742,2.2905-.8652,3.5264-.8652v-.0002ZM153.3711,321.7295c-.019.0459-.0371.0918-.0552.1367l.0552-.1367ZM123.1914,338.6172c-.4497,0-.8291-.1611-1.1274-.4795-.2935-.3066-.4429-.6758-.4429-1.0947v-19.6016c0-.4189.1494-.7881.4443-1.0967.2969-.3164.6763-.4775,1.126-.4775.457,0,.8384.1621,1.1333.4805.2915.3057.4409.6748.4409,1.0938v19.6016c0,.4219-.1587.792-.4727,1.1016-.3091.3135-.6802.4727-1.1016.4727v-.0002ZM123.1914,316.4531c-.2852,0-.5146.0967-.7007.2939-.1914.2012-.2837.4277-.2837.6943v19.6016c0,.2666.0923.4932.2822.6924.3599.3818.9741.417,1.3877-.0039l.0034-.0029c.2012-.1982.2993-.4229.2993-.6855v-19.6016c0-.2666-.0923-.4932-.2822-.6924-.1851-.2002-.415-.2959-.7061-.2959h0ZM106.8672,338.6172c-.4795,0-.8687-.1631-1.1558-.4844-.271-.3145-.4067-.6797-.4067-1.0898v-19.0938c0-.4141.1455-.7822.4331-1.0938.2979-.3164.6772-.4766,1.1294-.4766.4595,0,.8408.1602,1.1333.4766.292.3115.4409.6797.4409,1.0938v2.499c.3579-.6494.7837-1.2637,1.2734-1.834.7314-.8477,1.6147-1.5439,2.6265-2.0693,1.0161-.5322,2.1748-.8027,3.4438-.8027.5439,0,1.0845.1172,1.6069.3496.5884.251.9009.7031.9009,1.3066,0,.5029-.1431.9014-.4258,1.1836-.5068.5078-1.2256.5508-1.9771.1943-.2637-.126-.6167-.1904-1.0503-.1904-.7368,0-1.4883.2246-2.2334.666-.7617.4424-1.4673,1.0566-2.0986,1.8281-.6284.7646-1.1387,1.6348-1.5166,2.5869-.3647.9395-.5498,1.8984-.5498,2.8486v10.5273c0,.4219-.1592.7939-.4741,1.1035-.3013.3105-.6729.4707-1.1001.4707v.0002ZM106.8672,316.9648c-.2876,0-.5171.0947-.7007.29-.1851.2012-.2759.4287-.2759.6943v19.0938c0,.2656.0879.502.2612.7031.1699.1904.4053.2852.7153.2852.2661,0,.4897-.0977.6841-.2979.2061-.2031.3042-.4277.3042-.6904v-10.5273c0-.6172.0723-1.2373.2158-1.8545l-.8848.1738.0332-.3877c.0791-.915.2925-1.8359.6357-2.7393v-3.7588c0-.2637-.0928-.4902-.2842-.6943-.1836-.1982-.4067-.29-.7041-.29h.0002ZM107.8555,324.0381c-.0034.0234-.0063.0469-.0098.0703l.0098-.002v-.0684h0ZM108.4414,321.8164v1.6465c.0015-.0039.0029-.0068.0039-.0107.4014-1.0107.9424-1.9326,1.6094-2.7441.6758-.8252,1.4346-1.4854,2.2554-1.9619.8345-.4941,1.6865-.7461,2.5298-.7461.5225,0,.9609.083,1.3027.248.519.2441.9712.2578,1.3105-.0801.1685-.1689.2539-.4277.2539-.7695,0-.3652-.1743-.6094-.5488-.7695-.4512-.2002-.9116-.3008-1.373-.3008-1.1729,0-2.2407.248-3.1724.7363-.9463.4922-1.7715,1.1416-2.4536,1.9316-.6826.7959-1.2344,1.6797-1.6396,2.627-.0269.0645-.0527.1289-.0781.1934h0ZM47.3359,338.6172c-.4473,0-.8276-.1602-1.1299-.4775-.2949-.3086-.4443-.6777-.4443-1.0967v-28.9766c0-.4199.1587-.792.4727-1.1055.6406-.6436,1.646-.6055,2.2275.0049.2979.3174.4482.6865.4482,1.1006v28.9766c0,.4219-.1592.7939-.4741,1.1035-.312.3115-.6826.4707-1.1001.4707h0ZM47.3359,307.0781c-.2627,0-.4873.0977-.6875.2969-.2021.2031-.3008.4287-.3008.6914v28.9766c0,.2666.0923.4932.2822.6924.3643.3809.9692.4189,1.3936-.0049.2026-.2002.3008-.4248.3008-.6875v-28.9766c0-.2637-.0942-.4912-.2876-.6982-.186-.1943-.4155-.29-.7007-.29h0ZM23.6406,338.6172c-.478,0-.8721-.1611-1.1704-.4795-.2935-.3066-.4429-.6758-.4429-1.0947v-27.2734c0-.415.1572-.7852.4668-1.1006.3179-.3125.688-.4697,1.1035-.4697h15.5156c.4438,0,.8218.1504,1.1235.4473.2983.2891.4507.667.4507,1.123,0,.4199-.1509.7842-.4492,1.082-.3032.2939-.6807.4414-1.125.4414h-13.8984v10.1211h11.9844c.4458,0,.8208.1514,1.1152.4512.2949.2852.4473.6465.4473,1.0684,0,.4551-.1528.832-.4541,1.1182-.2939.2754-.666.4131-1.1084.4131h-11.9844v12.5781c0,.4209-.1514.791-.4497,1.0986-.2954.3145-.6748.4756-1.1245.4756h0ZM23.5977,308.7852c-.2598,0-.4849.0977-.689.2988-.1978.2002-.2954.4258-.2954.6855v27.2734c0,.2666.0923.4932.2822.6924.1875.1992.4307.2959.7451.2959.2852,0,.5146-.0967.7007-.2939.1943-.2012.2876-.4268.2876-.6943l-.0117-12.5781h-.6514l1.2104-1.3652-.9834-1.6855h.436v-10.1211h-.4585l1.0444-1.4531v.8672h13.8984c.291,0,.5244-.0898.7139-.2734.1836-.1826.2744-.4014.2744-.6641,0-.2949-.0898-.5254-.2739-.7031-.1929-.1895-.4258-.2812-.7144-.2812h-15.5156l.0002-.0002ZM25.2148,323.8789h11.9844c.293,0,.5239-.083.7061-.2529.1812-.1729.2705-.3994.2705-.6924,0-.2607-.0898-.4746-.2739-.6523-.188-.1914-.416-.2812-.7026-.2812h-11.9844v1.8789h-.0001ZM65.1094,336.6602c-1.5859,0-3.0459-.4102-4.3394-1.2207-1.2861-.8037-2.3179-1.9072-3.0664-3.2793-.7417-1.376-1.1177-2.9736-1.1177-4.75,0-1.7725.3755-3.373,1.1167-4.7598.749-1.3926,1.7812-2.5049,3.0684-3.3057,1.2925-.8096,2.7524-1.2197,4.3384-1.2197,1.6396,0,3.1172.4111,4.3916,1.2217,1.2764.7988,2.2944,1.9111,3.0244,3.3066.7349,1.3887,1.1074,2.9902,1.1074,4.7568,0,1.7715-.373,3.3682-1.1084,4.7471-.7295,1.375-1.7471,2.4785-3.0244,3.2822-1.2734.8096-2.751,1.2207-4.3906,1.2207h0ZM65.1094,318.7109c-1.4741,0-2.8296.3809-4.0278,1.1309-1.2002.7461-2.1626,1.7842-2.8623,3.0859-.6948,1.2998-1.0474,2.8076-1.0474,4.4824,0,1.6787.3525,3.1826,1.0469,4.4707.6992,1.2812,1.6626,2.3125,2.8623,3.0615,1.1987.751,2.5542,1.1318,4.0283,1.1318,1.5264,0,2.8984-.3799,4.0771-1.1299,1.1909-.749,2.1392-1.7793,2.8203-3.0625.6899-1.293,1.04-2.7979,1.04-4.4717,0-1.6699-.3501-3.1787-1.0405-4.4844-.6812-1.3027-1.6294-2.3398-2.8179-3.084-1.1807-.751-2.5527-1.1309-4.0791-1.1309v.0002ZM268.9453,336.5273c-1.582,0-2.999-.3936-4.209-1.1709-1.2031-.7842-2.1621-1.876-2.8496-3.248-.6846-1.3809-1.0312-2.9443-1.0312-4.6475,0-1.7383.3477-3.2959,1.0322-4.6299.6895-1.3389,1.6475-2.4092,2.8477-3.1826,1.2129-.7832,2.6289-1.1797,4.21-1.1797,1.5605,0,2.9561.3975,4.1455,1.1807,1.1865.7725,2.1445,1.8506,2.8447,3.2041.7061,1.335,1.0645,2.8857,1.0645,4.6074,0,1.71-.3574,3.2744-1.0635,4.6494-.6992,1.3701-1.6572,2.4619-2.8457,3.2441-1.1885.7783-2.583,1.1729-4.1455,1.1729h0ZM268.9453,319.0547c-1.4658,0-2.7754.3652-3.8916,1.0859-1.1133.7178-2.0029,1.7129-2.6445,2.958-.6426,1.25-.9678,2.7178-.9678,4.3623,0,1.6123.3262,3.0879.9697,4.3857.6406,1.2764,1.5293,2.292,2.6436,3.0176,1.1123.7139,2.4219,1.0771,3.8906,1.0771,1.4463,0,2.7334-.3623,3.8242-1.0771,1.1025-.7256,1.9922-1.7412,2.6455-3.0205.6631-1.293.999-2.7666.999-4.3828,0-1.625-.3359-3.084-.9971-4.3359-.6553-1.2637-1.5449-2.2676-2.6475-2.9844-1.0938-.7207-2.3799-1.0859-3.8242-1.0859h.0001ZM310.0273,313.6016c-.666,0-1.1826-.1621-1.5352-.4805h0c-.3633-.3252-.5469-.7949-.5469-1.3945v-.4258c0-.6025.2002-1.0732.5938-1.4014.3838-.3145.8984-.4736,1.5312-.4736.6133,0,1.1025.1621,1.4551.4824.3613.3232.5449.793.5449,1.3926v.4258c0,.5996-.1836,1.0693-.5469,1.3945-.3506.3184-.8545.4805-1.4961.4805h0ZM310.0703,310.0117c-.501,0-.8799.1113-1.1582.3398-.2559.2129-.3809.5234-.3809.9492v.4258c0,.4326.1152.7451.3516.957l.002.002c.2412.2188.626.3301,1.1426.3301.4912,0,.8623-.1113,1.1035-.3301.2383-.2139.3535-.5264.3535-.959v-.4258c0-.4326-.1152-.7451-.3516-.957-.2432-.2207-.5996-.332-1.0625-.332ZM123.1914,313.6016c-.6665,0-1.1831-.1621-1.5356-.4805h0c-.3628-.3252-.5464-.7949-.5464-1.3945v-.4258c0-.6025.1997-1.0732.5938-1.4014.3833-.3145.8979-.4736,1.5312-.4736.6128,0,1.1021.1621,1.4546.4824.3613.3232.5454.793.5454,1.3926v.4258c0,.5996-.1841,1.0693-.5464,1.3945-.3516.3184-.8555.4805-1.4966.4805ZM123.2344,310.0117c-.501,0-.8794.1113-1.1577.3398-.2559.2129-.3813.5234-.3813.9492v.4258c0,.4326.1152.7451.3521.957l.001.002c.2417.2188.626.3301,1.1431.3301.4912,0,.8623-.1113,1.104-.3301.2378-.2139.353-.5264.353-.959v-.4258c0-.4326-.1152-.7451-.3521-.957-.2427-.2207-.5996-.332-1.062-.332h0Z"/>
  <path class="cls-1" d="M23.6409,338.3244c-.3984,0-.7188-.125-.9688-.375-.2422-.2578-.3594-.5625-.3594-.9062v-27.2812c0-.332.1289-.6289.3906-.8906.2578-.2578.5547-.3906.8906-.3906h15.5156c.375,0,.6797.125.9219.375.2383.2422.3594.543.3594.9062,0,.3438-.1211.6367-.3594.875-.2422.2422-.5469.3594-.9219.3594h-14.3594l.1719-.25v11.3438l-.2188-.3906h12.5c.3633,0,.6641.1211.9062.3594.2383.2422.3594.5312.3594.875,0,.375-.1211.6797-.3594.9062-.2422.2188-.543.3281-.9062.3281h-12.5781l.2969-.3438v13.2188c0,.3438-.125.6484-.375.9062-.2422.25-.543.375-.9062.375h0Z"/>
  <path class="cls-1" d="M48.6218,337.0432c0,.3438-.1328.6484-.3906.9062-.2617.25-.5586.375-.8906.375-.375,0-.6836-.125-.9219-.375-.2422-.2578-.3594-.5625-.3594-.9062v-28.9844c0-.3438.125-.6406.375-.8906.2578-.2578.5625-.3906.9062-.3906.3633,0,.6641.1328.9062.3906.25.25.375.5469.375.8906v28.9844h0Z"/>
  <path class="cls-1" d="M75.8926,327.4182c0,2.1562-.4688,4.0938-1.4062,5.8125s-2.2188,3.0703-3.8438,4.0469c-1.6172.9805-3.4609,1.4688-5.5312,1.4688-2.0234,0-3.8516-.4883-5.4844-1.4688-1.6367-.9766-2.9297-2.3281-3.875-4.0469-.9492-1.7188-1.4219-3.6562-1.4219-5.8125,0-2.1875.4727-4.1328,1.4219-5.8438.9453-1.707,2.2383-3.0547,3.875-4.0469,1.6328-1,3.4609-1.5,5.4844-1.5,2.0703,0,3.9141.5,5.5312,1.5,1.625.9922,2.9062,2.3398,3.8438,4.0469.9375,1.7109,1.4062,3.6562,1.4062,5.8438ZM73.3301,327.4182c0-1.7383-.3555-3.2812-1.0625-4.625-.7109-1.3516-1.6836-2.4219-2.9219-3.2031-1.2305-.7812-2.6406-1.1719-4.2344-1.1719-1.5312,0-2.9297.3906-4.1875,1.1719-1.25.7812-2.2422,1.8516-2.9688,3.2031-.7188,1.3438-1.0781,2.8867-1.0781,4.625,0,1.7305.3594,3.2617,1.0781,4.5938.7266,1.3359,1.7188,2.3984,2.9688,3.1875,1.2578.7812,2.6562,1.1719,4.1875,1.1719,1.5938,0,3.0039-.3906,4.2344-1.1719,1.2383-.7891,2.2109-1.8516,2.9219-3.1875.707-1.332,1.0625-2.8633,1.0625-4.5938Z"/>
  <path class="cls-1" d="M97.6337,316.6682c.3633,0,.6641.1328.9062.3906.2383.25.3594.5469.3594.8906v12.0156c0,2.8125-.7969,4.9609-2.3906,6.4375-1.5859,1.4805-3.7266,2.2188-6.4219,2.2188-2.6797,0-4.8047-.7383-6.375-2.2188-1.5742-1.4766-2.3594-3.625-2.3594-6.4375v-12.0156c0-.3438.1172-.6406.3594-.8906.2383-.2578.5391-.3906.9062-.3906.375,0,.6797.1328.9219.3906.2383.25.3594.5469.3594.8906v12.0156c0,2.0547.5469,3.6094,1.6406,4.6719s2.6094,1.5938,4.5469,1.5938c1.957,0,3.4883-.5312,4.5938-1.5938,1.1133-1.0625,1.6719-2.6172,1.6719-4.6719v-12.0156c0-.3438.1094-.6406.3281-.8906.2266-.2578.5469-.3906.9531-.3906Z"/>
  <path class="cls-1" d="M106.8675,338.3244c-.3984,0-.7109-.125-.9375-.375-.2188-.2578-.3281-.5625-.3281-.9062v-19.0938c0-.3438.1172-.6406.3594-.8906.2383-.2578.5391-.3906.9062-.3906.375,0,.6797.1328.9219.3906.2383.25.3594.5469.3594.8906v6.3906l-.6406.125c.082-.9883.332-1.9727.75-2.9531.4141-.9766.9766-1.8789,1.6875-2.7031.707-.832,1.5508-1.5039,2.5312-2.0156.9766-.5078,2.082-.7656,3.3125-.7656.5078,0,1.0039.1094,1.4844.3281.4766.2109.7188.5586.7188,1.0469,0,.418-.1172.7422-.3438.9688-.2188.2305-.4844.3438-.7969.3438-.2617,0-.543-.0664-.8438-.2031-.293-.1445-.6836-.2188-1.1719-.2188-.793,0-1.5898.2344-2.3906.7031-.793.4688-1.5156,1.1055-2.1719,1.9062-.6484.793-1.1641,1.6797-1.5469,2.6562-.3867.9805-.5781,1.9648-.5781,2.9531v10.5312c0,.3438-.1328.6484-.3906.9062-.25.25-.5469.375-.8906.375h0Z"/>
  <path class="cls-1" d="M124.4784,337.0432c0,.3438-.1328.6484-.3906.9062-.25.25-.5469.375-.8906.375-.375,0-.6836-.125-.9219-.375-.2422-.2578-.3594-.5625-.3594-.9062v-19.6094c0-.332.1172-.6289.3594-.8906.2383-.2578.5469-.3906.9219-.3906.3633,0,.6641.1328.9062.3906.25.2617.375.5586.375.8906,0,0,0,19.6094,0,19.6094ZM123.1971,313.3088c-.5938,0-1.043-.1328-1.3438-.4062-.3047-.2695-.4531-.6602-.4531-1.1719v-.4219c0-.5078.1602-.8984.4844-1.1719.332-.2695.7852-.4062,1.3594-.4062.5391,0,.957.1367,1.25.4062.3008.2734.4531.6641.4531,1.1719v.4219c0,.5117-.1523.9023-.4531,1.1719-.293.2734-.7266.4062-1.2969.4062Z"/>
  <path class="cls-1" d="M129.8798,334.8713c-.2188-.3438-.3242-.6758-.3125-1,.0078-.3203.1875-.5859.5312-.7969.2266-.1953.4883-.2812.7812-.25.3008.0312.582.1719.8438.4219.7578,1,1.6875,1.8086,2.7812,2.4219,1.0938.6055,2.3945.9062,3.9062.9062.7891,0,1.5781-.1328,2.3594-.4062.7812-.2695,1.4258-.6797,1.9375-1.2344.5195-.5508.7812-1.2539.7812-2.1094,0-.875-.2617-1.582-.7812-2.125-.5117-.5391-1.1719-.9688-1.9844-1.2812-.8047-.3125-1.6562-.582-2.5625-.8125-.9688-.2578-1.9141-.5508-2.8281-.875-.9062-.3203-1.7109-.7344-2.4062-1.2344-.6875-.5-1.2461-1.1016-1.6719-1.8125-.4297-.707-.6406-1.5703-.6406-2.5938,0-1.1953.3203-2.25.9688-3.1562.6562-.9141,1.5469-1.6289,2.6719-2.1406,1.125-.5078,2.3945-.7656,3.8125-.7656.707,0,1.4727.0938,2.2969.2812.832.1875,1.6445.4961,2.4375.9219.7891.4297,1.5,1.0078,2.125,1.7344.2578.2617.3906.5586.3906.8906,0,.3242-.1406.6094-.4219.8594-.2305.1797-.4961.2656-.7969.2656-.293,0-.543-.1133-.75-.3438-.6797-.7695-1.4844-1.3516-2.4219-1.75-.9375-.3945-1.9492-.5938-3.0312-.5938-.8242,0-1.6016.1367-2.3281.4062-.7188.2734-1.3242.6797-1.8125,1.2188-.4805.5312-.7188,1.2422-.7188,2.125.0625.8242.3516,1.4922.875,2,.5312.5117,1.2266.9375,2.0938,1.2812.8633.3438,1.8359.6562,2.9219.9375.9062.2305,1.7734.5,2.6094.8125.8438.3125,1.582.7031,2.2188,1.1719.6445.4688,1.1562,1.0586,1.5312,1.7656.3828.7109.5781,1.6055.5781,2.6875,0,1.25-.3516,2.3359-1.0469,3.25-.6875.9062-1.6172,1.6016-2.7812,2.0781-1.168.4766-2.4609.7188-3.875.7188-1.543,0-3.0312-.2969-4.4688-.8906-1.4297-.5938-2.6992-1.5859-3.8125-2.9844h0Z"/>
  <path class="cls-1" d="M161.0394,316.3713c1.7891,0,3.2383.3867,4.3438,1.1562,1.1133.7617,1.9297,1.7969,2.4531,3.1094.5312,1.3047.7969,2.75.7969,4.3438v12.0625c0,.3438-.1328.6484-.3906.9062-.25.25-.5469.375-.8906.375-.3984,0-.7109-.125-.9375-.375-.2305-.2578-.3438-.5625-.3438-.9062v-12.0625c0-1.1641-.1797-2.2188-.5312-3.1562-.3555-.9375-.9336-1.6797-1.7344-2.2344-.793-.5508-1.8555-.8281-3.1875-.8281-1.1992,0-2.3281.2773-3.3906.8281-1.0625.5547-1.9219,1.2969-2.5781,2.2344s-.9844,1.9922-.9844,3.1562v12.0625c0,.3438-.1328.6484-.3906.9062-.25.25-.5469.375-.8906.375-.3984,0-.7109-.125-.9375-.375-.2188-.2578-.3281-.5625-.3281-.9062v-28.9844c0-.3438.1172-.6406.3594-.8906.2383-.2578.5391-.3906.9062-.3906.375,0,.6797.1328.9219.3906.2383.25.3594.5469.3594.8906v13.8125l-.9844,1.4844c.0625-.875.3359-1.7266.8281-2.5625.5-.8438,1.1445-1.5977,1.9375-2.2656.8008-.6641,1.6875-1.1914,2.6562-1.5781.9688-.3828,1.9453-.5781,2.9375-.5781h-.0001Z"/>
  <path class="cls-1" d="M200.9745,338.7463c-2.1875,0-4.2188-.3828-6.0938-1.1406-1.875-.7695-3.5078-1.8438-4.8906-3.2188-1.375-1.3828-2.4492-3.0156-3.2188-4.8906-.7617-1.875-1.1406-3.9062-1.1406-6.0938s.3789-4.2188,1.1406-6.0938c.7695-1.875,1.8438-3.5,3.2188-4.875,1.3828-1.3828,3.0156-2.457,4.8906-3.2188,1.875-.7695,3.9062-1.1562,6.0938-1.1562,1.5078,0,2.9688.1797,4.375.5312,1.4062.3555,2.6602.8906,3.7656,1.6094.1953.1367.3438.2969.4375.4844.1016.1875.1562.3828.1562.5781,0,.3984-.1328.7148-.3906.9531-.25.2422-.5156.3594-.7969.3594-.1484,0-.2812-.0195-.4062-.0625-.125-.0391-.2461-.0859-.3594-.1406-.9688-.5391-2.0234-.9688-3.1562-1.2812-1.1367-.3125-2.3438-.4688-3.625-.4688-2.4492,0-4.625.5586-6.5312,1.6719-1.8984,1.1055-3.3867,2.625-4.4688,4.5625-1.0742,1.9297-1.6094,4.1094-1.6094,6.5469,0,2.4492.5352,4.6406,1.6094,6.5781,1.082,1.9297,2.5703,3.4492,4.4688,4.5625,1.9062,1.1055,4.082,1.6562,6.5312,1.6562,1.2812,0,2.5664-.1797,3.8594-.5469,1.2891-.375,2.4062-.875,3.3438-1.5l-.2188.8906v-9.7969l.6406.5938h-7.375c-.3672,0-.6797-.125-.9375-.375-.25-.2578-.375-.5625-.375-.9062,0-.3945.125-.707.375-.9375.2578-.2266.5703-.3438.9375-.3438h8.1406c.375,0,.6797.1211.9219.3594.2383.2422.3594.5469.3594.9219v10.2656c0,.2305-.0586.4453-.1719.6406-.1172.1992-.2734.3711-.4688.5156-1.25.8555-2.6523,1.5312-4.2031,2.0312-1.543.4883-3.1523.7344-4.8281.7344v.0002Z"/>
  <path class="cls-1" d="M217.8438,338.3244c-.3984,0-.7109-.125-.9375-.375-.2188-.2578-.3281-.5625-.3281-.9062v-19.0938c0-.3438.1172-.6406.3594-.8906.2383-.2578.5391-.3906.9062-.3906.375,0,.6797.1328.9219.3906.2383.25.3594.5469.3594.8906v6.3906l-.6406.125c.082-.9883.332-1.9727.75-2.9531.4141-.9766.9766-1.8789,1.6875-2.7031.707-.832,1.5508-1.5039,2.5312-2.0156.9766-.5078,2.082-.7656,3.3125-.7656.5078,0,1.0039.1094,1.4844.3281.4766.2109.7188.5586.7188,1.0469,0,.418-.1172.7422-.3438.9688-.2188.2305-.4844.3438-.7969.3438-.2617,0-.543-.0664-.8438-.2031-.293-.1445-.6836-.2188-1.1719-.2188-.793,0-1.5898.2344-2.3906.7031-.793.4688-1.5156,1.1055-2.1719,1.9062-.6484.793-1.1641,1.6797-1.5469,2.6562-.3867.9805-.5781,1.9648-.5781,2.9531v10.5312c0,.3438-.1328.6484-.3906.9062-.25.25-.5469.375-.8906.375h0Z"/>
  <path class="cls-1" d="M250.8453,316.5432c.3633,0,.6641.1328.9062.3906.2383.25.3594.5625.3594.9375v19.1719c0,.3438-.1328.6484-.3906.9062-.25.25-.543.375-.875.375-.375,0-.6836-.125-.9219-.375-.2422-.2578-.3594-.5625-.3594-.9062v-5.0625l.7188-.3438c0,.793-.2188,1.6016-.6562,2.4219-.4375.8242-1.043,1.5938-1.8125,2.3125-.7734.7109-1.6797,1.2812-2.7188,1.7188-1.0312.4375-2.1484.6562-3.3438.6562-1.9297,0-3.6523-.4922-5.1719-1.4844-1.5234-1-2.7148-2.3633-3.5781-4.0938-.8672-1.7266-1.2969-3.6758-1.2969-5.8438,0-2.2188.4375-4.1719,1.3125-5.8594.8828-1.6875,2.0781-3.0156,3.5781-3.9844,1.5078-.9688,3.2188-1.4531,5.125-1.4531,1.2188,0,2.3594.2148,3.4219.6406,1.0703.4297,2.0039,1.0117,2.7969,1.75.7891.7422,1.4062,1.5898,1.8438,2.5469.4453.9492.6719,1.9336.6719,2.9531l-.8906-.6406v-5.4062c0-.375.1172-.6875.3594-.9375.2383-.2578.5469-.3906.9219-.3906h-.0001ZM241.9703,336.3713c1.5078,0,2.8438-.3906,4-1.1719,1.1641-.7891,2.082-1.875,2.75-3.25.6758-1.375,1.0156-2.9141,1.0156-4.625,0-1.6758-.3398-3.1797-1.0156-4.5156-.668-1.332-1.5859-2.3945-2.75-3.1875-1.1562-.8008-2.4922-1.2031-4-1.2031-1.4805,0-2.8086.3867-3.9844,1.1562-1.1797.7617-2.1016,1.8125-2.7656,3.1562-.668,1.3359-1,2.8672-1,4.5938,0,1.7109.332,3.25,1,4.625.6641,1.375,1.582,2.4609,2.75,3.25,1.1641.7812,2.5,1.1719,4,1.1719Z"/>
  <path class="cls-1" d="M269.156,316.3713c1.9375,0,3.6484.4805,5.1406,1.4375,1.4883.9492,2.6719,2.2578,3.5469,3.9219.8828,1.6562,1.3281,3.5625,1.3281,5.7188,0,2.168-.4453,4.0898-1.3281,5.7656-.875,1.6797-2.0703,3-3.5781,3.9688-1.5.9609-3.1875,1.4375-5.0625,1.4375-.9922,0-1.9336-.1484-2.8281-.4375-.8984-.3008-1.7148-.707-2.4531-1.2188-.7422-.5078-1.3984-1.1133-1.9688-1.8125-.5625-.6953-1.0156-1.457-1.3594-2.2812l.7656-.5625v13.2656c0,.332-.1211.6289-.3594.8906-.2422.2578-.5469.3906-.9219.3906-.3672,0-.668-.1328-.9062-.3906-.2422-.2617-.3594-.5586-.3594-.8906v-27.7969c0-.3633.1094-.6719.3281-.9219.2266-.2578.5391-.3906.9375-.3906.375,0,.6797.1328.9219.3906.2383.25.3594.5586.3594.9219v4.6094l-.5938-.3438c.2812-.8828.6953-1.6719,1.25-2.3594.5625-.6953,1.2109-1.2969,1.9531-1.7969.7383-.5,1.5469-.875,2.4219-1.125.8828-.2578,1.8047-.3906,2.7656-.3906h.0001ZM268.9529,318.7619c-1.543,0-2.8984.375-4.0625,1.125-1.1562.75-2.0703,1.7773-2.7344,3.0781-.668,1.293-1,2.7891-1,4.4844,0,1.6797.332,3.1875,1,4.5312.6641,1.3359,1.5781,2.375,2.7344,3.125,1.1641.75,2.5195,1.125,4.0625,1.125,1.5,0,2.8203-.375,3.9688-1.125,1.1562-.75,2.0703-1.7891,2.75-3.125.6875-1.3438,1.0312-2.8516,1.0312-4.5312,0-1.6758-.3438-3.1641-1.0312-4.4688-.6797-1.3125-1.5938-2.3438-2.75-3.0938-1.1484-.75-2.4688-1.125-3.9688-1.125h0Z"/>
  <path class="cls-1" d="M294.5604,316.3713c1.7891,0,3.2383.3867,4.3438,1.1562,1.1133.7617,1.9297,1.7969,2.4531,3.1094.5312,1.3047.7969,2.75.7969,4.3438v12.0625c0,.3438-.1328.6484-.3906.9062-.25.25-.5469.375-.8906.375-.3984,0-.7109-.125-.9375-.375-.2305-.2578-.3438-.5625-.3438-.9062v-12.0625c0-1.1641-.1797-2.2188-.5312-3.1562-.3555-.9375-.9336-1.6797-1.7344-2.2344-.793-.5508-1.8555-.8281-3.1875-.8281-1.1992,0-2.3281.2773-3.3906.8281-1.0625.5547-1.9219,1.2969-2.5781,2.2344s-.9844,1.9922-.9844,3.1562v12.0625c0,.3438-.1328.6484-.3906.9062-.25.25-.5469.375-.8906.375-.3984,0-.7109-.125-.9375-.375-.2188-.2578-.3281-.5625-.3281-.9062v-28.9844c0-.3438.1172-.6406.3594-.8906.2383-.2578.5391-.3906.9062-.3906.375,0,.6797.1328.9219.3906.2383.25.3594.5469.3594.8906v13.8125l-.9844,1.4844c.0625-.875.3359-1.7266.8281-2.5625.5-.8438,1.1445-1.5977,1.9375-2.2656.8008-.6641,1.6875-1.1914,2.6562-1.5781.9688-.3828,1.9453-.5781,2.9375-.5781h-.0001Z"/>
  <path class="cls-1" d="M311.3141,337.0432c0,.3438-.1328.6484-.3906.9062-.25.25-.5469.375-.8906.375-.375,0-.6836-.125-.9219-.375-.2422-.2578-.3594-.5625-.3594-.9062v-19.6094c0-.332.1172-.6289.3594-.8906.2383-.2578.5469-.3906.9219-.3906.3633,0,.6641.1328.9062.3906.25.2617.375.5586.375.8906v19.6094ZM310.0328,313.3088c-.5938,0-1.043-.1328-1.3438-.4062-.3047-.2695-.4531-.6602-.4531-1.1719v-.4219c0-.5078.1602-.8984.4844-1.1719.332-.2695.7852-.4062,1.3594-.4062.5391,0,.957.1367,1.25.4062.3008.2734.4531.6641.4531,1.1719v.4219c0,.5117-.1523.9023-.4531,1.1719-.293.2734-.7266.4062-1.2969.4062Z"/>
  <path class="cls-1" d="M327.5436,316.0275c1.3633,0,2.6133.1523,3.75.4531,1.1328.3047,2.0508.7109,2.75,1.2188.6953.5117,1.0469,1.0625,1.0469,1.6562,0,.2812-.1016.5586-.2969.8281-.1992.2734-.4688.4062-.8125.4062-.3359,0-.6094-.082-.8281-.25-.2109-.1758-.4219-.375-.6406-.5938-.2109-.2266-.5156-.4414-.9219-.6406-.3672-.1758-.8906-.332-1.5781-.4688-.6797-.1445-1.4609-.2188-2.3438-.2188-1.5859,0-3.0156.4023-4.2969,1.2031-1.2812.793-2.293,1.8672-3.0312,3.2188-.7422,1.3438-1.1094,2.8555-1.1094,4.5312,0,1.7109.3516,3.2461,1.0625,4.6094.7188,1.3555,1.7031,2.4297,2.9531,3.2188,1.25.7812,2.7109,1.1719,4.3906,1.1719,1.1328,0,2.0156-.0977,2.6406-.2969.625-.207,1.1641-.4375,1.625-.6875.5312-.3125.9141-.6172,1.1562-.9219.25-.3008.5703-.4531.9688-.4531.3633,0,.6406.1094.8281.3281.1875.2109.2812.4844.2812.8281,0,.4609-.3359.9648-1,1.5156-.668.5547-1.5859,1.0391-2.75,1.4531-1.168.4062-2.5078.6094-4.0156.6094-2.125,0-3.9922-.4922-5.5938-1.4844-1.6055-1-2.8555-2.3594-3.75-4.0781-.8984-1.7188-1.3438-3.6562-1.3438-5.8125,0-2.0703.4531-3.9609,1.3594-5.6719.9062-1.707,2.1758-3.0781,3.8125-4.1094,1.6328-1.0391,3.5312-1.5625,5.6875-1.5625l.0002.0004Z"/>
  <path class="cls-1" d="M338.7914,334.8713c-.2188-.3438-.3242-.6758-.3125-1,.0078-.3203.1875-.5859.5312-.7969.2266-.1953.4883-.2812.7812-.25.3008.0312.582.1719.8438.4219.7578,1,1.6875,1.8086,2.7812,2.4219,1.0938.6055,2.3945.9062,3.9062.9062.7891,0,1.5781-.1328,2.3594-.4062.7812-.2695,1.4258-.6797,1.9375-1.2344.5195-.5508.7812-1.2539.7812-2.1094,0-.875-.2617-1.582-.7812-2.125-.5117-.5391-1.1719-.9688-1.9844-1.2812-.8047-.3125-1.6562-.582-2.5625-.8125-.9688-.2578-1.9141-.5508-2.8281-.875-.9062-.3203-1.7109-.7344-2.4062-1.2344-.6875-.5-1.2461-1.1016-1.6719-1.8125-.4297-.707-.6406-1.5703-.6406-2.5938,0-1.1953.3203-2.25.9688-3.1562.6562-.9141,1.5469-1.6289,2.6719-2.1406,1.125-.5078,2.3945-.7656,3.8125-.7656.707,0,1.4727.0938,2.2969.2812.832.1875,1.6445.4961,2.4375.9219.7891.4297,1.5,1.0078,2.125,1.7344.2578.2617.3906.5586.3906.8906,0,.3242-.1406.6094-.4219.8594-.2305.1797-.4961.2656-.7969.2656-.293,0-.543-.1133-.75-.3438-.6797-.7695-1.4844-1.3516-2.4219-1.75-.9375-.3945-1.9492-.5938-3.0312-.5938-.8242,0-1.6016.1367-2.3281.4062-.7188.2734-1.3242.6797-1.8125,1.2188-.4805.5312-.7188,1.2422-.7188,2.125.0625.8242.3516,1.4922.875,2,.5312.5117,1.2266.9375,2.0938,1.2812.8633.3438,1.8359.6562,2.9219.9375.9062.2305,1.7734.5,2.6094.8125.8438.3125,1.582.7031,2.2188,1.1719.6445.4688,1.1562,1.0586,1.5312,1.7656.3828.7109.5781,1.6055.5781,2.6875,0,1.25-.3516,2.3359-1.0469,3.25-.6875.9062-1.6172,1.6016-2.7812,2.0781-1.168.4766-2.4609.7188-3.875.7188-1.543,0-3.0312-.2969-4.4688-.8906-1.4297-.5938-2.6992-1.5859-3.8125-2.9844h0Z"/>
</svg>