<?xml version="1.0" encoding="UTF-8"?>
<svg id="Layer_1" data-name="Layer 1" xmlns="http://www.w3.org/2000/svg" viewBox="0 0 800 265.5916">
  <defs>
    <style>
      .cls-1, .cls-2 {
        fill: #fff;
      }

      .cls-1, .cls-3 {
        opacity: .6;
      }
    </style>
  </defs>
  <path class="cls-1" d="M85.7369,243.0256c-.0444.0166-.0388.0222-.0111.0166l.0111-.0166Z"/>
  <g class="cls-3">
    <polygon class="cls-2" points="799.9889 91.6043 799.9889 91.6098 800 91.6043 799.9889 91.6043"/>
    <polygon class="cls-2" points="799.9889 91.6099 799.9889 91.6098 799.9885 91.6099 799.9889 91.6099"/>
    <polygon class="cls-2" points="799.9778 91.6136 799.9885 91.6099 799.9778 91.6099 799.9778 91.6136"/>
    <path class="cls-2" d="M746.8392,75.2108l-28.2075,26.6663-61.1606-74.2443c-17.1917,17.6352-24.4542,29.1056-37.294,41.657l-30.5692,14.6304-40.9086-13.7267-18.0399,18.3227-63.722-77.2602-64.2154,76.7557-13.8265-13.3942-.8039.8649-37.8317,40.127-27.5922-23.4175c-14.5861,12.7899-33.4465,31.107-48.1379,45.1553-1.5079-1.2086-8.8759-10.5778-9.4635-11.3428-4.0249-5.2113-7.9888-10.4503-12.18-15.5341-2.711-3.2875-5.4219-6.5751-8.1329-9.8626-3.3042-4.0083-6.6084-8.011-9.9126-12.0193-3.5425-4.291-7.0796-8.5875-10.6221-12.8785-3.4206-4.1469-6.8467-8.2993-10.2673-12.4461l-8.8426-10.722c-2.1178-2.5668-4.2356-5.1337-6.3533-7.7005-.9314-1.1309-1.8628-2.2563-2.7941-3.3873-.0167-.0166-.0333-.0388-.0444-.0554l-64.2098,76.7723-13.7878-13.505-.8427.9813-37.8318,40.127-27.5921-23.4175c-15.645,13.7156-36.2462,33.8401-51.3035,48.1823.1608.3215,6.2535,6.6361,7.0685,7.5065,3.7865,4.0582,7.5397,8.2217,11.0269,12.546l-16.7704,2.9382v2.6444l17.2971-2.772L.8427,227.6245l.3549,2.1843-.2551,2.467,47.3008-14.3088-19.5923,33.2691h-5.9375L1.5079,233.3459,0,235.0644l19.6588,16.1772H1.1199v2.0457l137.567.0056.1276.2551.5156-.2551,148.3721.0056h512.2701v-3.5814l-26.6275-17.8515c2.4837-2.0623,23.412-18.3836,26.6275-21.0336v-4.6015l-31.3398-33.5074,31.3398,6.3866v-2.0457l-32.8755-7.4233,13.6159-18.6165,19.2651,15.2902v-3.0658l-17.4523-14.0705,17.4523-14.0705v-3.0658l-19.2596,15.3678-19.7752-17.918,39.0292.5101v-2.0457l-40.5759-.7706,14.1259-22.6359,26.4556,20.8507v-3.0657l-24.6538-19.9526,24.6538-8.704v-2.064l-26.8381,9.1215-26.3004-25.5243v-.0004ZM721.4481,103.1855l23.5894-23.3455-4.668,35.1707c-4.6459-2.7109-17.1252-10.0234-19.1544-11.5757l.2329-.2495h.0001ZM564.056,206.7073h0l-30.1035-49.097,44.6841,10.7386c.6708.6874-5.4774,15.9666-6.2812,18.04-2.1344,5.4885-5.6659,14.9464-8.2993,20.3185h0ZM564.3775,210.1113c-.1442-.0554-.2051-.0776-.0222-.0499l.0222.0499ZM136.0702,155.0157l-25.7349,40.382-29.721-10.9603,55.4559-29.4216h0ZM81.6343,181.111h0l39.822-47.068,16.6707,17.1418-56.4927,29.9261h0ZM139.1693,154.5113h0l.7151-1.0534,17.2471,41.9841-44.6785.5101,26.7162-41.4408h0ZM142.2406,152.9755l55.9771,7.6783-39.0237,34.2726-16.9533-41.9509h0ZM201.86,158.0482l-14.9409-41.9121,49.3022,24.5541-34.3613,17.358ZM237.5241,142.2979l20.7897,40.8532-53.9203-23.2679,33.1306-17.5853h0ZM199.7589,158.5971l-56.4927-7.6783,41.5961-33.7625,14.8965,41.4409h0ZM200.5128,162.6941l21.3331,38.8796-60.0851-5.8766,38.7521-33.003h-.0001ZM225.4494,203.8799l32.8256-15.5784-16.9034,39.883-15.9222-24.3046ZM239.8193,230.2302l-47.8608,18.7163,31.2401-43.7471c1.07-.1885,15.9055,23.9997,16.6207,25.0308h0ZM224.7287,201.5404l-20.8507-38.8463,54.4802,22.5416c-9.092,4.4739-24.5374,11.8307-33.6295,16.3047h0ZM240.8505,142.747l49.3021,18.938-28.9448,21.4106-20.3573-40.3487h0ZM294.0999,160.1549l18.3171-25.0197,32.0162,17.8681-50.3333,7.1516h0ZM345.9689,155.5645l-23.9553,27.5422-26.8825-20.6456,50.8378-6.8967h0ZM292.0652,159.4564c-1.2917-1.6411-3.9195-5.0172-4.7234-6.1315-.449-.6265-6.9964-9.1586-10.2285-13.3831l32.3931-5.361-17.4412,24.8755h0ZM291.9156,163.6809l20.9727,34.766-49.4352-13.4939,28.4625-21.2721h0ZM315.6104,198.9791l-18.5778-32.116,25.563,20.0081,31.8277,22.3087-38.813-10.2008h0ZM353.4421,211.3088l-45.0333,17.358,6.4753-27.4868,38.558,10.1288h0ZM324.913,185.4851l54.4359-16.1107-20.3351,39.3619-34.1007-23.2513h0ZM382.4313,168.6039l44.1685-.7595-64.1876,40.4152,20.0192-39.6557h0ZM472.8749,127.8893l-14.9354-41.9121,49.3022,24.5541-34.3668,17.358ZM508.5391,112.1334l20.7897,40.8588-53.9203-23.2679,33.1306-17.5909h0ZM492.8608,171.4202l-60.0851-5.8765,38.7521-33.0031,21.333,38.8796ZM470.7793,128.4381l-56.4981-7.6783,41.5961-33.7625,14.902,41.4409h0ZM469.2381,130.495l-39.0237,34.2725-16.9534-41.9509,55.9771,7.6783h0ZM428.1465,165.2775l-44.6785.51,26.7162-41.4353.6154-.8815,17.347,41.8068h0ZM407.0851,124.8568l-25.7349,40.382-29.7209-10.9603,55.4559-29.4216h-.0001ZM352.6493,150.952l39.8165-47.0679h0l16.6706,17.1418-56.4871,29.9261ZM427.1208,170.4002l-22.1313,56.2376-41.5406-16.0774,63.672-40.1602h-.0001ZM430.4583,169.8957l24.3933,38.3528-47.2509,17.9125,22.8576-56.2653ZM432.7757,168.3544l59.065,5.1115-34.6661,33.2414-24.3989-38.3529ZM494.2135,175.0404c1.1476,1.6244,15.9056,23.9997,16.6207,25.0309l-50.3333,6.6472,33.7126-31.678h0ZM496.4644,173.7209h0l32.8256-15.5784-16.9034,39.8831-15.9221-24.3046h-.0001ZM495.7437,171.3814l-20.8507-38.8463,54.6631,22.6136c-9.2806,4.5405-25.0586,11.925-33.8124,16.2327h0ZM511.8654,112.588l49.3021,18.938-28.9448,21.4106-20.3573-40.3487h0ZM572.7821,100.8848l26.3947,10.1732-31.3953,10.7275c-.1995.0499-7.4454,2.5114-7.6007,2.5779l12.6014-23.4786h0ZM557.8356,121.7854c-2.4726-3.2377-7.0574-8.2327-9.6409-11.7975l21.1945-8.6652-11.5536,20.4626h0ZM665.9422,168.87l-42.1061-11.2542c7.4899-1.9071,13.189-3.4039,17.4745-4.5737,7.828,4.862,16.8812,11.8307,24.6316,15.8279ZM643.9828,152.3103c.001-.0003.0021-.0006.0031-.0009l52.7751-14.1362-23.9609,32.188-28.8173-18.051h0ZM700.6417,138.14l25.7518,24.9521-50.4164,7.7202,24.6646-32.6723h0ZM644.892,149.4108l22.536-21.2277,29.3329,7.4233-51.869,13.8043h.0001ZM641.2313,149.6647l-9.1791-23.2612,32.3497,1.0255c-.7844.7288-17.4973,16.8678-23.1707,22.2357h0ZM638.7216,149.9264l-33.8956-8.1718,24.9199-14.2756,8.9756,22.4474h0ZM636.6149,151.318c-.8149.2162-3.5648.9203-16.5265,4.6458l-14.7469-11.1433,31.2734,6.4975ZM619.9775,160.6872l21.8265,25.563-38.5137-1.2695,16.6872-24.2935ZM600.5682,184.7811l-17.8237-16.1827,34.9212-8.9479-17.0975,25.1306h0ZM622.8049,160.1716l46.7298,12.2798-24.8589,13.2556-21.8708-25.5353h-.0001ZM672.8112,174.0647l23.9553,23.9553-48.2766-11.5092,24.3212-12.4461h0ZM675.7107,173.7154l51.3589-7.9167-25.9345,32.6482-25.4244-24.7314h0ZM728.1119,168.1105l1.2751-1.7963,9.4968,30.1756-34.4111,1.5357,23.6393-29.915h-.0001ZM704.9826,138.6833l40.6425,10.7164c-2.5114,2.395-12.6457,11.2042-15.5119,13.6214l-25.1306-24.3378ZM707.0449,136.6376h20.7953v-.0056c3.0658,2.4393,9.0366,6.869,12.9839,9.7185l-33.7792-9.713h0ZM700.8701,134.5863l-6.9579-24.2286,29.2821,22.1995,2.345,2.0291h-24.6693.0001ZM698.4863,134.0253l-28.946-7.6329,21.9822-16.6161,6.9638,24.249ZM667.3373,124.512l-14.7394-36.4836,38.1588,19.426c-6.7701,5.0375-14.5766,10.7234-23.4194,17.0576h0ZM665.4323,125.3668l-32.8644-1.0201,17.7184-35.8082,15.1461,36.8283h-.0001ZM630.4999,123.3266l-25.6685-12.0303,42.6218-23.2789-16.9533,35.3093h0ZM621.9623,121.863h0c.7706.3826,4.8953,2.2398,6.9243,3.587l-26.1063,14.7524.5322-27.6531c6.0318,2.7554,14.4308,7.2459,18.6498,9.3138h0ZM617.1501,157.5992l-35.4312,8.704.5156-37.8651,34.9156,29.1611ZM600.718,140.2079l-19.4481-16.0718c-6.37,2.0956-2.3284.7817-17.3026,5.7878-.438-.8926-1.7907-3.2432-2.0291-3.7089l39.0514-13.5882-.2717,27.5811h.0002ZM564.8155,131.2711l.3825.8094c5.4996-2.1344,12.9396-4.3797,14.9741-5.1724l-.7651,35.2982-14.5916-30.9351h0ZM578.6365,166.2976l-44.1685-11.5037,28.5013-21.2277,15.6672,32.7314h0ZM581.4528,170.4057l17.1973,15.6006-31.8277,20.2076,14.6304-35.8082ZM599.9584,188.3015l.7208-.4713,16.4765,26.051-48.7866-5.361,31.5893-20.2187ZM602.7748,187.2869l39.0292,1.0201-21.8265,25.0585-17.2028-26.0786h.0001ZM644.6314,189.3382h0l29.0225,33.2358-51.869-7.9223,22.8465-25.3135ZM647.9689,189.3327l50.3278,11.2542-21.7599,21.4495-28.5679-32.7036h0ZM701.1296,201.6179h0l21.8265,20.4516-43.1428.51,21.3163-20.9616h0ZM703.2751,200.4593c10.844-1.0533,24.3766-1.009,35.0875-1.9071l-12.6512,21.9484-22.4363-20.0413h0ZM740.425,199.0512l26.6996,30.6967-39.0293-7.6783,12.3297-23.0184h0ZM732.2088,166.3143h0l30.3032,5.117-22.087,23.0129-8.2162-28.1299h0ZM732.7188,163.7419l14.6304-12.7899.1902-.1877,14.8716,18.2311-29.6923-5.2536h.0002ZM747.2551,147.3042c-5.0172-2.9772-14.9188-10.3173-17.6187-11.9583l26.0454-5.494c-.8094,1.6133-7.6839,15.9943-8.4268,17.4523h.0001ZM729.6309,133.0451l11.548-14.8078c4.3077,3.1877,5.5938,4.2023,13.1003,9.6908l-24.6483,5.117h0ZM738.856,116.9899l.5433.2606c-2.4227,4.1025-5.9653,8.327-11.3041,14.769l-7.1794-25.5797,17.9402,10.5501ZM725.0073,130.9994l-30.2976-22.7745,23.5562-2.7442,6.7415,25.5187h-.0001ZM716.7912,103.3685l-23.6449,2.3561-8.7095-41.7458,32.3544,39.3896h0ZM681.6593,61.0239l8.9368,43.8802-38.0037-19.4481-.7817-.3438,28.7786-23.1847,1.07-.9037h0ZM658.2418,32.5116h0l.1664-1.3417,21.8874,27.8749-28.7176,23.3511,6.6638-49.8842h0ZM655.6805,32.2565l-6.9355,50.6327-23.8722-14.5417,30.8077-36.091ZM622.3558,71.2082l.5489-1.1476,24.5485,14.3976.6154.4213c-13.7434,7.4788-28.1853,16.1827-42.2059,23.1016l16.4932-36.7729h-.0002ZM619.2014,72.1618l-16.2159,35.9468c-1.2031-1.7519-3.0991-4.5737-3.8974-5.9265-1.1421-1.9071-7.9777-14.7247-8.5931-15.8501l28.7064-14.1702h0ZM600.2023,109.0011l-26.184-10.4891,14.1148-10.9936,12.0692,21.4827ZM587.2407,85.5836c-4.1968,3.5148-11.3429,8.2881-15.0296,11.5591l-18.2285-22.9241,33.2581,11.3651h0ZM550.3901,74.213l19.5146,24.288-22.78,9.9125c-3.282-4.6014,0,0-2.1234-3.0325l5.3887-31.168h.0002ZM547.8122,74.723l-4.6181,28.6511c-1.7851-2.0513-10.0733-11.354-10.6277-12.5349l15.2458-16.1162ZM559.6318,128.4381l-48.2765-18.6664,19.1819-17.103,29.0945,35.7694h.0001ZM529.3177,90.3292l-19.5035,17.6519-11.2985-54.2307,30.8021,36.5789h-.0001ZM507.7574,107.4599h0l-49.2966-23.7834,37.2275-31.9719,12.0692,55.7553h-.0001ZM468.2014,15.8908l26.6663,33.4133-37.4437,32.0717,10.7774-65.4849h0ZM465.119,16.3898h0l-10.2674,64.9804-21.078-26.3281,31.3453-38.6523h0ZM453.7983,85.1345l-41.0527,33.5851,20.2741-60.3679,20.7786,26.7827h0ZM429.6822,59.8819l-19.7696,58.8266-15.6284-17.0587,35.3979-41.7679h0ZM389.8823,78.8144c7.4011,7.2404,9.9569,9.3193,11.7753,11.1378l-23.3289,27.2318,11.5536-38.3696h0ZM387.0494,80.3501l-13.1835,42.217c-2.9494-.9813-10.3394-2.9716-21.7433-5.3831l34.9268-36.8339h0ZM350.5981,118.7196l20.762,5.9431c-6.1759,7.5896-14.7634,18.2228-21.2776,25.2692l.5156-31.2123h0ZM357.9161,158.7579c5.6437,1.9847,15.8279,5.8211,21.455,8.4156l-53.4268,15.5009,23.5284-27.1597c3.7421,1.5412,6.3977,2.528,8.4434,3.2432ZM347.4935,151.9666l-33.6849-19.1709c9.1143-3.9307,25.5409-10.5224,34.7327-13.5549l-1.0478,32.7258ZM323.3773,95.6957h0l.0887-.4435c4.5682,3.3541,11.8696,9.9236,15.839,13.4884,1.8849,1.6964,6.5031,5.4442,7.7061,7.1627.2993.438.7151.5101.5045,1.2807l-33.38,12.7953,9.2417-34.2836h0ZM320.7994,97.2313l-10.4004,34.6606-34.2781,6.2758,44.6785-40.9364ZM288.6169,158.5971l-48.2766-18.6664,19.182-17.103,29.0945,35.7694h0ZM258.3027,120.4881l-19.5035,17.6519-11.2985-54.2307,30.8021,36.5789h0ZM224.6732,81.8636h0l12.0691,55.7608-49.2966-23.7834,37.2275-31.9774h0ZM197.1865,46.0498l26.6663,33.4132-37.4437,32.0717,10.7774-65.4849h0ZM194.1041,46.5488l-10.2674,64.9803-21.078-26.3281,31.3454-38.6522h0ZM182.7833,115.2935l-41.0528,33.5851,20.2742-60.3679,20.7786,26.7827h0ZM158.6672,90.0409l-19.7697,58.8266-15.6284-17.0587,35.398-41.7679h.0001ZM118.8618,108.9734c2.5447,2.5336,8.1662,7.6395,11.8086,11.1045l-23.3566,27.265,11.548-38.3695ZM116.0344,110.5091l-13.6159,42.7825c-6.7858-1.8073-6.431-1.5689-21.3109-5.9486,0,0,34.9268-36.8339,34.9268-36.8339ZM79.5831,148.8786h0l21.0836,6.0317c-6.187,7.5841-15.1072,18.1619-21.5936,25.1805l.51-31.2123h0ZM86.9011,188.9168c5.8433,2.0513,16.0719,5.799,21.5437,8.388l-53.5155,15.5285,22.974-26.5166c1.7408-.499,6.9521,1.8849,8.9978,2.6001ZM74.9539,185.7236l-23.9553,27.5422-26.8825-20.6456,50.8378-6.8966ZM23.0849,190.3139l18.3171-25.0198,32.0162,17.8681-50.3334,7.1517h.0001ZM76.4785,182.1255l-34.0897-19.1044c9.1475-3.9417,25.9678-10.5944,35.1375-13.6214,0,0-1.0478,32.7258-1.0478,32.7258ZM52.3624,125.8546c.7761-.2106.8482.194,1.2862.5045,4.4684,3.1157,10.4281,8.7594,14.6359,12.5349,1.8849,1.6964,6.5031,5.4442,7.7061,7.1627.2993.438.7151.5101.5045,1.2806l-33.38,12.7954,9.2473-34.2781ZM49.7845,127.3903l-10.4004,34.6606-34.2726,6.2757s44.673-40.9363,44.673-40.9363ZM3.5592,170.5276l34.9323-5.7823-17.6353,25.1473-.8926-.9314c-5.5328-6.1649-9.5633-11.4593-16.4045-18.4336h0ZM2.0513,229.5539l18.9769-35.642,28.2408,21.4828-47.2177,14.1592ZM31.3398,251.2362l20.2408-34.2116,28.8672,34.2116H31.3398ZM53.8981,215.6441l54.4359-16.1107-25.8569,50.2668s-28.579-34.1561-28.579-34.1561ZM84.3398,251.1641l27.0765-52.4067,44.1685-.7595-70.9678,52.9556-.2772.2107h0ZM87.9821,251.2362l34.1895-25.4355,12.7122,25.4355h-46.9017ZM136.874,249.4177l-12.5847-25.1861,31.8167-23.6725-19.2319,48.8586h0ZM138.9087,250.6153l20.5347-50.5551,16.4045,32.238-36.9391,18.3171h0ZM143.4769,251.2417l33.5463-16.6373,8.4656,16.6373h-42.0119ZM161.7607,198.5134l59.0651,5.1115-32.9587,47.6112-26.1064-52.7227h0ZM191.7313,251.2362l49.6292-18.9658.4047,18.9658h-50.0339,0ZM243.8331,251.2362l-.4158-18.9603,51.614,18.9603h-51.1982ZM243.2343,230.0417c2.7166-7.451,11.6201-28.3461,16.3768-39.6169l1.0423-2.3063,35.4756,60.756-52.8947-18.8328h0ZM262.3831,186.8711l49.8177,13.5161c.0333,0,.0665-.0056.1053-.0056l-11.9305,50.6272-37.9926-64.1378h.0002ZM320.7994,251.2362h-17.7073l3.975-16.8646c4.6514,3.1323,9.3082,6.2702,13.9596,9.4025l11.0767,7.4621h-11.304ZM308.004,231.7492l48.7422-18.8826-20.8674,37.7985-27.8749-18.9159h.0001ZM360.6824,212.4619l41.2746,15.7614-62.6575,21.9817,21.3829-37.743h0ZM343.9176,251.2362l61.3381-21.4883c11.6256,7.0574,23.5562,13.7046,34.705,21.4883h-96.0431ZM408.1219,228.4672l46.7297-17.6519-11.8141,39.3896-34.9156-21.7377h0ZM445.0943,251.2362l13.0948-41.4353,53.1607,41.4353h-66.2555ZM461.0165,209.0247l51.3589-6.9077,1.0201,47.5835-52.379-40.6758h0ZM530.6261,160.2603h0l1.0422-2.3063,30.536,49.2744-47.9495-7.3457c2.711-7.451,11.6146-28.3461,16.3713-39.6224h0ZM515.4745,250.6374v-.4434c.0056-.0111.0056-.0167.0111-.0222l-.0111-.5655v-.0499l-1.0422-47.4394,48.2766,7.3235c-34.2116,27.7363-45.1609,39.0348-47.2343,41.1969h-.0001ZM518.0303,251.2417c.0998-.1385.1829-.2606.255-.3604,12.0469-11.3318,33.7958-30.0148,46.4304-40.0493l19.049,40.4097h-65.7344ZM567.338,210.3053l49.8122,6.1427-31.0737,33.7514-18.7385-39.8941ZM588.3938,251.2362l31.5727-33.7958,31.0903,33.7958h-62.663,0ZM622.8049,217.4737l51.359,7.1627-21.2388,25.0308-30.1202-32.1935h0ZM655.6749,251.2362l21.3884-25.5464,38.7077,25.5464h-60.0961ZM679.8076,225.3959l45.2052-1.2751-5.4053,26.6108-39.7999-25.3358h0ZM727.0696,224.1153l40.0549,8.1939-44.6785,17.9014,4.6236-26.0953ZM797.9432,251.2306h-70.8736l44.1241-17.7184,26.7495,17.7184ZM771.5652,230.208l-27.5478-31.1514,53.4102,10.2286-25.8624,20.9228ZM797.4332,207.234l-54.4359-10.9936c2.2841-2.9106,20.9616-22.5084,22.2644-23.7557l32.1714,34.7493h.0001ZM765.0259,168.1881l-14.7021-18.0234,27.5892.2828-12.8871,17.7405h0ZM777.9075,148.3907c-5.178-.1441-22.0759-.2439-28.1465-.4158l8.3769-17.4911,19.7697,17.9069h-.0001ZM757.0123,125.8325l-.2549.3493c-3.3984-2.2453-11.0768-7.3901-13.749-9.6077l27.204-12.18-13.2001,21.4384h0ZM742.4818,114.6282l4.618-35.2982,23.6227,23.0184-28.2407,12.2798h0Z"/>
  </g>
</svg>