<svg xmlns="http://www.w3.org/2000/svg" xmlns:xlink="http://www.w3.org/1999/xlink" width="1366" zoomAndPan="magnify" viewBox="0 0 1024.5 489.749987" height="653" preserveAspectRatio="xMidYMid meet" version="1.0"><defs><clipPath id="229f1d1d6a"><path d="M 0.0117188 123 L 259 123 L 259 368 L 0.0117188 368 Z M 0.0117188 123 " clip-rule="nonzero"/></clipPath><clipPath id="d598be6d77"><path d="M 52.710938 185.644531 L 315 185.644531 L 315 489.5 L 52.710938 489.5 Z M 52.710938 185.644531 " clip-rule="nonzero"/></clipPath><clipPath id="a26de661c9"><path d="M 790 72 L 1023.988281 72 L 1023.988281 317 L 790 317 Z M 790 72 " clip-rule="nonzero"/></clipPath><clipPath id="84e6950e95"><path d="M 677 82 L 1023.988281 82 L 1023.988281 489.5 L 677 489.5 Z M 677 82 " clip-rule="nonzero"/></clipPath><clipPath id="681773b184"><path d="M 677.21875 199.039062 L 923.898438 82.417969 L 1066.792969 384.671875 L 820.109375 501.292969 Z M 677.21875 199.039062 " clip-rule="nonzero"/></clipPath><clipPath id="618d700213"><path d="M 58 57 L 346.988281 57 L 346.988281 351 L 58 351 Z M 58 57 " clip-rule="nonzero"/></clipPath><clipPath id="b899f07453"><path d="M 0.21875 117.039062 L 246.898438 0.417969 L 389.792969 302.671875 L 143.109375 419.292969 Z M 0.21875 117.039062 " clip-rule="nonzero"/></clipPath><clipPath id="05d5af6adf"><path d="M 246.625 0.546875 L -0.0585938 117.167969 L 142.835938 419.421875 L 389.519531 302.800781 Z M 246.625 0.546875 " clip-rule="nonzero"/></clipPath><clipPath id="35221a5f84"><path d="M 246.625 0.546875 L -0.0585938 117.167969 L 142.835938 419.421875 L 389.519531 302.800781 Z M 246.625 0.546875 " clip-rule="nonzero"/></clipPath><clipPath id="ebc20b2503"><path d="M 158 112 L 178 112 L 178 120 L 158 120 Z M 158 112 " clip-rule="nonzero"/></clipPath><clipPath id="be63924ceb"><path d="M 0.21875 117.039062 L 246.898438 0.417969 L 389.792969 302.671875 L 143.109375 419.292969 Z M 0.21875 117.039062 " clip-rule="nonzero"/></clipPath><clipPath id="7a702ad2d2"><path d="M 246.625 0.546875 L -0.0585938 117.167969 L 142.835938 419.421875 L 389.519531 302.800781 Z M 246.625 0.546875 " clip-rule="nonzero"/></clipPath><clipPath id="bacdbf47f2"><path d="M 246.625 0.546875 L -0.0585938 117.167969 L 142.835938 419.421875 L 389.519531 302.800781 Z M 246.625 0.546875 " clip-rule="nonzero"/></clipPath><clipPath id="f3a8bdf876"><path d="M 165 126 L 184 126 L 184 138 L 165 138 Z M 165 126 " clip-rule="nonzero"/></clipPath><clipPath id="de1e805830"><path d="M 0.21875 117.039062 L 246.898438 0.417969 L 389.792969 302.671875 L 143.109375 419.292969 Z M 0.21875 117.039062 " clip-rule="nonzero"/></clipPath><clipPath id="43cf3090f8"><path d="M 246.625 0.546875 L -0.0585938 117.167969 L 142.835938 419.421875 L 389.519531 302.800781 Z M 246.625 0.546875 " clip-rule="nonzero"/></clipPath><clipPath id="d9f7207f04"><path d="M 246.625 0.546875 L -0.0585938 117.167969 L 142.835938 419.421875 L 389.519531 302.800781 Z M 246.625 0.546875 " clip-rule="nonzero"/></clipPath><clipPath id="ebc6dc5512"><path d="M 162 132 L 191 132 L 191 216 L 162 216 Z M 162 132 " clip-rule="nonzero"/></clipPath><clipPath id="49d2eb8987"><path d="M 0.21875 117.039062 L 246.898438 0.417969 L 389.792969 302.671875 L 143.109375 419.292969 Z M 0.21875 117.039062 " clip-rule="nonzero"/></clipPath><clipPath id="ef1e564f62"><path d="M 246.625 0.546875 L -0.0585938 117.167969 L 142.835938 419.421875 L 389.519531 302.800781 Z M 246.625 0.546875 " clip-rule="nonzero"/></clipPath><clipPath id="1e7a085fd2"><path d="M 246.625 0.546875 L -0.0585938 117.167969 L 142.835938 419.421875 L 389.519531 302.800781 Z M 246.625 0.546875 " clip-rule="nonzero"/></clipPath><clipPath id="510bdf4468"><rect x="0" width="347" y="0" height="408"/></clipPath><clipPath id="c0ae8b8923"><path d="M 381 247 L 702 247 L 702 489.5 L 381 489.5 Z M 381 247 " clip-rule="nonzero"/></clipPath><clipPath id="6b87ef4d3c"><path d="M 369.421875 163.699219 L 642.28125 163.699219 L 642.28125 489.5 L 369.421875 489.5 Z M 369.421875 163.699219 " clip-rule="nonzero"/></clipPath><clipPath id="7ac1bc04d4"><path d="M 0.421875 0.699219 L 272.976562 0.699219 L 272.976562 326.5 L 0.421875 326.5 Z M 0.421875 0.699219 " clip-rule="nonzero"/></clipPath><clipPath id="e2b37eff8b"><rect x="0" width="274" y="0" height="327"/></clipPath></defs><g clip-path="url(#229f1d1d6a)"><path fill="#cee8d9" d="M -33.746094 176.605469 C -65.242188 216.363281 -76.636719 284.667969 -33.746094 329.160156 C 9.144531 373.652344 80.332031 356.175781 130.585938 364.113281 C 180.835938 372.050781 242.804688 372.050781 255.480469 302.144531 C 268.21875 232.238281 238.003906 214.761719 152.15625 165.46875 C 66.3125 116.175781 26.683594 100.300781 -33.746094 176.605469 Z M -33.746094 176.605469 " fill-opacity="1" fill-rule="nonzero"/></g><g clip-path="url(#d598be6d77)"><path fill="#2c6560" d="M 184.699219 186.054688 C 181.519531 186.667969 178.558594 187.753906 174.855469 189.628906 C 172.023438 191.066406 170.496094 192.285156 166.578125 196.207031 C 158.691406 204.179688 158.125 204.398438 147.84375 204.484375 C 137.777344 204.574219 137.820312 204.53125 132.855469 213.589844 C 126.582031 224.875 126.144531 229.972656 130.71875 238.296875 C 133.507812 243.390625 135.6875 247.921875 136.46875 250.1875 C 137.734375 253.890625 137.167969 260.121094 135.46875 261.167969 C 134.640625 261.648438 133.070312 260.339844 131.503906 257.945312 C 130.761719 256.722656 128.847656 252.191406 127.363281 247.878906 C 124.140625 238.730469 122.265625 235.59375 117.34375 230.976562 C 113.683594 227.535156 108.628906 224.789062 104.054688 223.742188 L 101.222656 223.046875 L 98.171875 224.964844 C 93.164062 228.054688 77.085938 238.207031 73.339844 240.648438 C 66.367188 245.136719 59.222656 252.148438 56.261719 257.378906 C 52.90625 263.347656 51.992188 268.835938 53.253906 274.894531 C 53.953125 278.160156 57.828125 287.875 60.75 293.714844 C 63.230469 298.722656 67.414062 306.175781 67.894531 306.480469 C 68.589844 306.914062 71.988281 302.515625 73.601562 299.074219 C 74.515625 297.15625 75.867188 293.234375 76.605469 290.359375 C 78.4375 283.433594 80.003906 280.296875 83.1875 277.289062 C 89.894531 270.882812 105.101562 267.398438 110.285156 271.058594 C 112.070312 272.320312 111.8125 273.671875 109.414062 275.980469 C 107.367188 277.941406 106.496094 278.640625 94.90625 287.308594 C 82.925781 296.285156 73.558594 303.691406 72.773438 304.867188 C 71.335938 306.960938 66.671875 315.5 64.667969 319.769531 C 61.097656 327.347656 60.53125 332.578125 62.882812 337.152344 C 65.976562 343.296875 88.5 371.398438 90.332031 371.398438 C 91.289062 371.398438 91.203125 371.746094 95.125 357.019531 C 100.308594 337.328125 102.574219 330.574219 106.714844 322.296875 C 112.421875 310.878906 117.824219 304.386719 126.277344 298.769531 C 131.066406 295.585938 137.035156 292.496094 137.472656 292.929688 C 137.863281 293.277344 136.382812 295.9375 132.375 301.949219 C 122.964844 316.152344 109.71875 344.339844 103.488281 363.554688 C 101.136719 370.785156 99 378.933594 98.390625 383.160156 C 97.738281 387.734375 97.867188 396.796875 98.652344 401.808594 L 99.351562 406.296875 L 98 412.789062 C 94.210938 431.390625 90.855469 455.222656 88.371094 480.972656 C 87.019531 495.523438 86.191406 506.722656 86.453125 507.15625 C 86.585938 507.375 89.199219 507.550781 92.292969 507.550781 L 97.867188 507.550781 L 98.128906 504.367188 C 98.304688 502.667969 98.785156 496.308594 99.261719 490.339844 C 101.222656 466.070312 102.878906 453.175781 108.28125 421.371094 C 108.457031 420.457031 108.71875 420.019531 109.066406 420.148438 C 110.632812 420.714844 133.898438 425.378906 137.820312 425.902344 C 139.914062 426.164062 140.085938 426.074219 140.566406 425.03125 C 142.089844 421.632812 143.527344 410.871094 144.964844 391.222656 C 145.835938 379.9375 146.097656 375.710938 147.40625 350.398438 L 148.058594 338.066406 L 150.238281 330.136719 C 152.808594 320.8125 154.8125 314.539062 155.945312 312.273438 C 157.46875 309.226562 161.957031 308.222656 163.699219 310.445312 C 164.878906 311.925781 164.832031 312.972656 163.484375 319.203125 C 161.566406 328.003906 157.863281 354.839844 156.597656 369.21875 C 153.722656 400.9375 155.335938 416.664062 162.089844 422.894531 C 164.007812 424.59375 171.761719 428.996094 181.519531 433.875 C 192.890625 439.582031 214.242188 447.640625 215.242188 446.640625 C 215.632812 446.246094 215.242188 444.941406 213.675781 441.457031 C 208.316406 429.386719 201.519531 410.390625 197.945312 397.667969 C 192.019531 376.320312 190.320312 357.148438 193.371094 345.300781 C 194.984375 338.894531 196.332031 337.28125 198.46875 339.113281 C 199.601562 340.070312 199.6875 340.464844 199.820312 343.816406 C 199.90625 345.777344 199.6875 350.570312 199.296875 354.363281 C 198.511719 362.292969 198.382812 373.183594 199.035156 378.585938 C 200.996094 394.792969 207.964844 412.832031 221.167969 436.097656 C 224.433594 441.847656 229.226562 449.210938 230.316406 450.167969 C 231.277344 450.996094 266.523438 455.484375 267.175781 454.832031 C 267.4375 454.570312 266.4375 452 264.039062 447.121094 C 256.195312 430.78125 239.378906 393.09375 235.71875 383.507812 C 233.890625 378.804688 232.148438 372.703125 232.148438 371.136719 C 232.148438 368.476562 234.71875 369.304688 237.984375 373.007812 C 243.171875 378.847656 255.71875 399.457031 259.945312 408.953125 C 263.34375 416.664062 264.78125 422.066406 265.128906 428.691406 C 265.304688 432.699219 265.5625 434.179688 266.4375 436.097656 C 268.003906 439.710938 276.585938 452.304688 277.328125 452.128906 C 277.675781 452.042969 279.289062 449.429688 280.855469 446.335938 C 286.257812 435.878906 290.484375 431 294.84375 430.171875 C 296.0625 429.910156 296.628906 429.34375 298.589844 426.335938 C 303.207031 419.191406 303.554688 417.710938 301.421875 413.703125 C 299.679688 410.304688 295.496094 404.335938 291.835938 399.933594 C 287.523438 394.75 276.628906 383.859375 272.316406 380.414062 C 270.355469 378.847656 268.832031 377.496094 268.917969 377.410156 C 269.441406 376.84375 281.773438 385.25 286.476562 389.390625 C 292.792969 394.925781 302.03125 406.382812 303.992188 411.175781 C 304.339844 411.960938 304.820312 412.527344 305.082031 412.4375 C 305.996094 412.175781 308.304688 406.90625 308.828125 403.898438 C 309.261719 401.371094 309.21875 400.457031 308.652344 398.148438 C 307.957031 395.445312 305.777344 391.960938 303.859375 390.480469 C 303.292969 390.042969 299.460938 386.820312 295.277344 383.335938 C 287.042969 376.40625 283.6875 373.097656 280.074219 368.347656 C 278.808594 366.648438 277.589844 365.078125 277.371094 364.816406 C 277.195312 364.558594 279.027344 365.078125 281.46875 365.949219 C 283.949219 366.867188 288.308594 368.347656 291.183594 369.21875 C 303.339844 372.878906 308.957031 376.015625 311.660156 380.632812 C 314.1875 385.035156 314.359375 384.378906 314.753906 366.167969 C 315.101562 351.179688 314.753906 347.609375 312.835938 344.820312 C 311.179688 342.378906 309.351562 341.640625 301.289062 340.160156 C 286.476562 337.457031 280.246094 335.015625 264.519531 325.605469 C 247.484375 315.453125 235.195312 310.488281 222.386719 308.660156 C 216.636719 307.785156 213.457031 306.785156 209.054688 304.433594 C 204.917969 302.253906 203.390625 300.816406 203.390625 299.203125 C 203.390625 298.113281 203.695312 297.808594 205.699219 296.894531 C 206.921875 296.328125 210.015625 295.457031 212.496094 294.890625 C 216.460938 294.0625 217.898438 293.976562 224.261719 294.195312 C 229.53125 294.367188 232.929688 294.714844 236.851562 295.542969 C 247.484375 297.722656 259.550781 302.382812 266.742188 307.089844 C 269.136719 308.703125 277.503906 313.496094 285.300781 317.808594 C 293.101562 322.078125 300.59375 326.347656 302.03125 327.261719 C 303.425781 328.175781 304.644531 328.875 304.734375 328.785156 C 304.863281 328.699219 304.734375 327.261719 304.515625 325.605469 C 303.816406 320.769531 302.816406 310.3125 301.855469 298.59375 C 300.941406 287.308594 300.332031 284.128906 298.761719 282.125 C 297.457031 280.425781 296.367188 280.121094 289.351562 279.421875 C 282.121094 278.683594 278.375 277.507812 273.886719 274.632812 C 267.917969 270.796875 265.5625 270.054688 259.203125 270.054688 C 254.191406 270.054688 250.882812 270.535156 243.476562 272.277344 C 231.449219 275.109375 220.6875 275.152344 204.699219 272.453125 C 194.632812 270.753906 193.808594 270.40625 194.503906 268.488281 C 194.984375 267.050781 195.984375 266.703125 203.742188 265.351562 C 206.660156 264.828125 212.148438 263.433594 215.941406 262.214844 C 221.082031 260.515625 223.433594 259.949219 225.394531 259.949219 C 228.3125 259.949219 236.375 261.472656 245.480469 263.738281 C 248.832031 264.566406 253.410156 265.65625 255.675781 266.179688 C 267.046875 268.835938 279.679688 272.191406 283.296875 273.585938 C 283.949219 273.804688 284.734375 274.019531 285.082031 274.019531 C 286.652344 274.019531 286.128906 262.953125 284.210938 256.375 C 281.554688 247.3125 276.980469 241.824219 268.613281 237.816406 C 261.425781 234.417969 253.886719 233.242188 245.480469 234.199219 C 239.421875 234.941406 235.9375 234.546875 232.539062 232.847656 L 230.492188 231.847656 L 217.898438 235.941406 C 205.351562 240.082031 194.894531 243.085938 193.066406 243.085938 C 191.847656 243.085938 191.714844 241.605469 192.71875 240.125 C 194.765625 237.25 211.363281 229.929688 225.132812 225.835938 C 238.464844 221.871094 245 221.695312 253.582031 225.007812 C 255.152344 225.617188 249.835938 213.898438 246.570312 209.539062 C 241.296875 202.480469 234.195312 197.558594 226.65625 195.597656 C 221.167969 194.203125 211.84375 194.335938 206.441406 195.859375 C 201.125 197.382812 198.078125 199.605469 193.195312 205.488281 C 187.097656 212.851562 182.785156 215.902344 175.726562 217.859375 C 169.757812 219.472656 168.492188 218.601562 170.628906 214.246094 C 172.414062 210.628906 175.769531 206.925781 181.042969 202.917969 C 190.015625 196.035156 196.160156 192.589844 201.386719 191.457031 C 203.042969 191.152344 204.480469 190.761719 204.613281 190.632812 C 205.003906 190.195312 198.292969 187.320312 194.808594 186.40625 C 191.324219 185.535156 187.925781 185.402344 184.699219 186.054688 Z M 195.898438 188.84375 C 197.945312 189.453125 198.992188 190.371094 197.640625 190.371094 C 195.59375 190.371094 185.746094 196.46875 178.382812 202.308594 C 172.589844 206.882812 168.1875 212.632812 167.449219 216.511719 C 167.097656 218.425781 168.320312 220.214844 170.324219 220.605469 C 172.5 221.042969 178.035156 219.648438 182.304688 217.601562 C 187.011719 215.335938 189.753906 212.9375 194.941406 206.664062 C 198.644531 202.132812 200.820312 200.304688 204.046875 198.996094 C 208.226562 197.253906 209.230469 197.121094 217.117188 197.121094 C 225.65625 197.121094 226.960938 197.382812 232.363281 200.085938 C 238.027344 202.917969 242.167969 206.664062 245.914062 212.371094 C 247.917969 215.507812 250.578125 220.867188 250.226562 221.214844 C 250.183594 221.304688 248.789062 221.128906 247.136719 220.824219 C 239.902344 219.558594 226.699219 222.261719 211.886719 228.054688 C 200.515625 232.5 192.847656 236.507812 191.148438 238.863281 C 188.839844 242.042969 189.753906 245.265625 192.933594 245.265625 C 194.808594 245.265625 206.484375 241.953125 218.421875 238.035156 L 229.75 234.285156 L 232.363281 235.246094 C 235.761719 236.464844 241.382812 236.8125 247.089844 236.160156 C 250.839844 235.679688 252.230469 235.722656 255.890625 236.246094 C 270.921875 238.554688 279.246094 245.398438 282.46875 258.117188 C 283.472656 262.082031 284.386719 271.40625 283.777344 271.40625 C 283.601562 271.40625 281.292969 270.710938 278.589844 269.882812 C 275.933594 269.054688 271.226562 267.789062 268.089844 267.050781 C 264.996094 266.308594 256.851562 264.347656 250.011719 262.695312 C 226.613281 257.074219 225.480469 256.941406 217.289062 259.601562 C 210.40625 261.820312 205.699219 263 199.777344 264 C 194.765625 264.828125 193.152344 265.570312 192.5 267.3125 C 191.800781 269.097656 191.976562 270.101562 193.285156 271.40625 C 194.632812 272.757812 195.8125 273.0625 205.570312 274.675781 C 221.777344 277.375 233.453125 277.203125 245.4375 274.019531 C 250.578125 272.628906 254.847656 272.191406 260.511719 272.367188 C 266.480469 272.539062 266.4375 272.539062 273.058594 276.589844 C 277.71875 279.421875 282.207031 280.816406 288.4375 281.472656 C 291.140625 281.734375 294.101562 282.125 295.015625 282.34375 C 298.066406 283.128906 298.851562 285.699219 299.679688 297.765625 C 300.15625 304.824219 301.726562 320.8125 302.117188 323.121094 C 302.292969 323.90625 302.25 324.5625 302.117188 324.5625 C 301.945312 324.5625 298.152344 322.511719 293.667969 320.03125 C 289.179688 317.546875 283.949219 314.671875 282.035156 313.667969 C 276.71875 310.835938 270.617188 307.21875 267.175781 304.910156 C 260.554688 300.46875 247.136719 295.414062 235.808594 293.191406 C 228.574219 291.710938 218.464844 291.535156 212.671875 292.710938 C 207.398438 293.800781 203.785156 295.109375 202.300781 296.503906 C 201.476562 297.285156 201.214844 297.941406 201.214844 299.335938 C 201.214844 300.945312 201.476562 301.425781 203.085938 302.996094 C 205.351562 305.128906 212.0625 308.527344 216.027344 309.574219 C 217.59375 309.964844 220.730469 310.53125 222.996094 310.878906 C 228.3125 311.707031 233.671875 313.015625 237.332031 314.367188 C 244.609375 317.109375 256.109375 322.863281 263.734375 327.566406 C 277.285156 335.976562 287.085938 339.851562 300.769531 342.207031 C 310.003906 343.773438 311.441406 344.691406 312.3125 349.351562 C 312.792969 351.921875 312.835938 371.832031 312.402344 375.273438 L 312.09375 377.453125 L 309.699219 375.316406 C 306.519531 372.484375 300.941406 369.960938 292.707031 367.519531 C 281.378906 364.164062 277.675781 362.597656 272.796875 359.152344 C 269.441406 356.757812 267.65625 354.710938 265.519531 350.613281 C 260.640625 341.421875 253.234375 334.972656 243.300781 331.402344 C 236.765625 329.046875 227.3125 329.398438 225.4375 332.054688 C 224.828125 332.925781 224.828125 333.144531 225.523438 334.320312 C 226.65625 336.324219 229.621094 338.109375 236.808594 341.117188 C 257.546875 349.832031 270.707031 359.066406 279.679688 371.179688 C 282.511719 375.011719 286.78125 379.066406 294.625 385.46875 C 302.773438 392.046875 305.558594 395.011719 306.386719 397.800781 C 306.78125 399.0625 307.085938 400.71875 307.085938 401.460938 C 307.085938 402.941406 305.910156 407.339844 305.386719 407.90625 C 305.167969 408.082031 303.992188 406.730469 302.726562 404.859375 C 299.15625 399.585938 293.972656 393.398438 290.222656 389.957031 C 281.816406 382.160156 270.355469 374.882812 257.894531 369.4375 C 254.804688 368.085938 254.628906 368.085938 254.0625 368.828125 C 253.757812 369.261719 253.496094 369.742188 253.496094 369.914062 C 253.496094 370.089844 255.542969 371.441406 258.070312 372.964844 C 269.222656 379.589844 279.550781 388.738281 290.660156 401.808594 C 294.449219 406.296875 299.546875 413.921875 300.203125 416.183594 C 300.855469 418.320312 300.507812 419.277344 297.414062 424.160156 C 295.277344 427.558594 295.015625 427.816406 292.707031 428.644531 C 288.523438 430.171875 283.992188 435.574219 279.15625 444.679688 C 278.15625 446.683594 277.152344 448.296875 276.9375 448.296875 C 276.542969 448.296875 270.007812 438.625 268.484375 435.792969 C 267.65625 434.179688 267.4375 433.132812 267.4375 430.476562 C 267.4375 426.378906 266.480469 420.367188 265.128906 416.054688 C 262.601562 407.996094 255.152344 394.183594 245.523438 379.675781 C 239.988281 371.351562 235.9375 367.257812 233.191406 367.257812 C 229.402344 367.257812 229.140625 370.527344 232.105469 379.804688 C 234.5 387.167969 255.675781 435.355469 262.601562 449.035156 C 263.691406 451.257812 264.171875 452.652344 263.863281 452.652344 C 263.125 452.652344 255.0625 451.695312 242.429688 450.082031 C 236.722656 449.339844 231.753906 448.511719 231.449219 448.253906 C 229.402344 446.554688 218.683594 427.863281 213.761719 417.316406 C 206.050781 400.9375 203.21875 392.441406 201.429688 380.285156 C 200.601562 374.359375 200.601562 362.421875 201.429688 354.40625 C 202.390625 345.429688 202.300781 341.726562 201.125 339.375 C 200.558594 338.285156 199.515625 337.066406 198.730469 336.628906 C 197.511719 335.933594 197.207031 335.886719 195.855469 336.453125 C 193.851562 337.328125 192.675781 339.375 191.367188 344.472656 C 189.363281 352.007812 189.40625 366.515625 191.453125 378.585938 C 194.066406 394.007812 200.515625 415.183594 208.839844 435.398438 C 210.625 439.757812 212.105469 443.460938 212.105469 443.589844 C 212.105469 443.980469 205.089844 441.714844 198.597656 439.191406 C 189.363281 435.574219 168.015625 424.941406 163.875 421.847656 C 161.871094 420.410156 159.648438 415.445312 158.472656 409.957031 C 157.601562 405.859375 157.46875 404.203125 157.515625 394.488281 C 157.515625 383.246094 157.949219 375.796875 159.429688 362.246094 C 161.128906 346.519531 164.832031 321.074219 165.835938 318.417969 C 166.621094 316.457031 166.882812 312.929688 166.402344 311.183594 C 165.398438 307.480469 161.433594 306.042969 157.46875 308.003906 C 154.160156 309.574219 152.894531 312.578125 147.84375 330.792969 L 145.925781 337.71875 L 145.011719 355.40625 C 143.660156 382.679688 142.394531 399.847656 140.871094 412.570312 C 140.128906 418.363281 139.042969 423.898438 138.5625 423.898438 C 137.820312 423.898438 118.824219 420.195312 113.859375 419.0625 C 108.105469 417.796875 106.667969 417.578125 106.667969 418.058594 C 106.667969 418.234375 105.886719 422.808594 104.925781 428.210938 C 101.09375 450.082031 98.304688 472.652344 96.648438 495.351562 C 96.386719 498.835938 96.082031 502.496094 95.953125 503.496094 L 95.734375 505.371094 L 88.804688 505.371094 L 88.804688 503.453125 C 88.804688 500.402344 90.898438 476.308594 92.117188 465.722656 C 94.210938 446.8125 97.738281 424.464844 101.050781 408.472656 C 101.484375 406.339844 101.484375 405.164062 100.875 401.285156 C 99.871094 395.097656 99.785156 392.660156 100.222656 387.515625 C 101.222656 375.929688 106.015625 360.59375 115.164062 339.546875 C 120.21875 328.003906 127.320312 314.0625 131.589844 307.21875 C 140.347656 293.367188 140.828125 292.449219 139.78125 291.230469 C 138.386719 289.574219 134.640625 290.96875 125.882812 296.460938 C 120.613281 299.726562 113.859375 306.347656 110.328125 311.707031 C 102.964844 322.816406 99.046875 333.230469 92.117188 359.851562 C 91.289062 363.117188 90.417969 366.300781 90.15625 366.953125 L 89.679688 368.128906 L 88.023438 366.300781 C 78.394531 355.667969 65.234375 338.199219 63.929688 334.277344 C 62.578125 330.136719 64.625 323.6875 70.898438 312.449219 L 74.691406 305.609375 L 80.136719 301.339844 C 83.097656 298.984375 90.460938 293.367188 96.429688 288.878906 C 102.445312 284.347656 108.238281 279.902344 109.414062 278.945312 C 113.945312 275.199219 114.816406 272.410156 112.160156 269.925781 C 110.285156 268.097656 108.0625 267.484375 103.578125 267.484375 C 95.777344 267.484375 86.367188 271.144531 81.355469 276.15625 C 77.871094 279.640625 76.347656 282.734375 74.472656 289.921875 C 73.730469 292.800781 72.46875 296.503906 71.640625 298.203125 C 70.203125 301.296875 68.589844 303.605469 68.199219 303.210938 C 67.675781 302.644531 61.226562 289.921875 59.832031 286.65625 C 55.652344 276.984375 55.128906 275.066406 55.085938 269.882812 C 55.085938 265.917969 55.257812 264.652344 56.042969 262.605469 C 58.917969 255.417969 66.105469 247.75 75.519531 241.78125 C 77.914062 240.253906 82.445312 237.421875 85.539062 235.464844 C 88.675781 233.503906 93.554688 230.410156 96.472656 228.578125 L 101.746094 225.269531 L 104.535156 226.050781 C 110.199219 227.664062 114.511719 230.453125 118.476562 235.027344 C 121.746094 238.816406 122.789062 240.867188 125.144531 248.011719 C 126.230469 251.367188 127.800781 255.332031 128.542969 256.898438 C 131.9375 263.652344 136.164062 265.480469 138.257812 261.082031 C 139.433594 258.683594 139.652344 253.457031 138.691406 250.277344 C 137.910156 247.574219 135.03125 241.476562 133.070312 238.382812 C 130.804688 234.765625 130.023438 232.238281 130.023438 228.273438 C 130.023438 225.3125 130.285156 224.003906 131.15625 221.695312 C 132.460938 218.339844 137.210938 209.800781 138.605469 208.320312 C 139.957031 206.839844 142.222656 206.445312 148.800781 206.535156 C 158.167969 206.621094 159.867188 205.96875 166.140625 199.476562 C 168.535156 196.992188 171.675781 194.160156 173.113281 193.203125 C 176.464844 190.980469 181.652344 188.757812 184.65625 188.234375 C 187.75 187.667969 192.980469 187.972656 195.898438 188.84375 Z M 240.597656 332.664062 C 242.039062 333.058594 244.914062 334.234375 246.960938 335.277344 C 254.410156 339.113281 259.855469 344.296875 262.90625 350.398438 L 264.476562 353.492188 L 263.253906 352.664062 C 255.238281 347.347656 247.875 343.46875 238.507812 339.59375 C 231.84375 336.804688 229.402344 335.539062 227.832031 334.101562 L 226.789062 333.101562 L 228.269531 332.578125 C 230.40625 331.792969 237.417969 331.835938 240.597656 332.664062 Z M 240.597656 332.664062 " fill-opacity="1" fill-rule="nonzero"/></g><path fill="#2c6560" d="M 171.414062 249.230469 C 168.535156 249.929688 162.523438 253.109375 161.128906 254.675781 C 159.519531 256.507812 159.476562 257.640625 160.957031 258.597656 C 161.914062 259.25 162.4375 259.296875 164.746094 258.859375 C 170.191406 257.855469 177.25 253.371094 177.25 250.929688 C 177.25 249.101562 174.898438 248.402344 171.414062 249.230469 Z M 174.59375 251.628906 C 172.894531 253.675781 167.710938 256.15625 163.746094 256.8125 L 161.785156 257.117188 L 162.65625 256.15625 C 164.484375 254.152344 171.238281 251.015625 173.941406 250.972656 C 175.027344 250.929688 175.117188 251.015625 174.59375 251.628906 Z M 174.59375 251.628906 " fill-opacity="1" fill-rule="nonzero"/><path fill="#2c6560" d="M 167.796875 265.785156 C 166.75 265.960938 165.269531 266.441406 164.398438 266.875 C 162.875 267.574219 160.257812 270.1875 160.257812 271.015625 C 160.257812 271.929688 161.566406 273.976562 162.875 275.066406 C 164.007812 275.980469 164.660156 276.199219 166.707031 276.199219 C 170.019531 276.15625 172.285156 275.066406 175.507812 271.972656 C 177.597656 269.882812 178.121094 269.140625 178.121094 268.050781 C 178.121094 265.960938 176.859375 265.308594 172.894531 265.351562 C 171.109375 265.394531 168.796875 265.570312 167.796875 265.785156 Z M 175.246094 267.3125 C 176.378906 267.746094 176.074219 268.488281 173.894531 270.621094 C 171.195312 273.195312 169.539062 274.019531 166.835938 274.019531 C 164.964844 274.019531 164.527344 273.847656 163.570312 272.671875 C 162.261719 271.144531 162.523438 270.101562 164.527344 269.054688 C 166.792969 267.878906 173.808594 266.746094 175.246094 267.3125 Z M 175.246094 267.3125 " fill-opacity="1" fill-rule="nonzero"/><path fill="#2c6560" d="M 157.90625 277.15625 C 156.46875 279.207031 156.949219 280.164062 163.179688 288.050781 C 172.675781 300.117188 185.355469 315.410156 191.324219 321.988281 C 197.773438 329.136719 208.445312 337.980469 211.582031 338.808594 C 212.238281 338.9375 212.847656 338.808594 213.28125 338.371094 C 213.890625 337.804688 213.804688 337.5 212.714844 335.628906 C 209.925781 330.792969 204.828125 323.210938 201.78125 319.332031 C 198.554688 315.28125 161.21875 277.636719 159.476562 276.679688 C 158.734375 276.285156 158.472656 276.375 157.90625 277.15625 Z M 180.78125 300.46875 C 190.015625 309.746094 198.859375 319.027344 200.429688 321.074219 C 203.785156 325.433594 210.101562 335.015625 209.796875 335.277344 C 209.316406 335.757812 201.867188 329.570312 196.59375 324.34375 C 189.753906 317.546875 167.492188 290.839844 160.085938 280.554688 C 158.515625 278.378906 166.097656 285.699219 180.78125 300.46875 Z M 180.78125 300.46875 " fill-opacity="1" fill-rule="nonzero"/><g clip-path="url(#a26de661c9)"><path fill="#c7e5c9" d="M 818.828125 125.269531 C 787.332031 165.023438 775.933594 233.332031 818.828125 277.824219 C 861.71875 322.3125 932.90625 304.835938 983.15625 312.777344 C 1033.410156 320.714844 1095.378906 320.714844 1108.054688 250.808594 C 1120.792969 180.902344 1090.578125 163.425781 1004.730469 114.132812 C 918.886719 64.839844 879.257812 48.960938 818.828125 125.269531 Z M 818.828125 125.269531 " fill-opacity="1" fill-rule="nonzero"/></g><g clip-path="url(#84e6950e95)"><g clip-path="url(#681773b184)"><g transform="matrix(1, 0, 0, 1, 677, 82)"><g clip-path="url(#510bdf4468)"><g clip-path="url(#618d700213)"><g clip-path="url(#b899f07453)"><g clip-path="url(#05d5af6adf)"><g clip-path="url(#35221a5f84)"><path fill="#2c6560" d="M 122.746094 59.589844 C 126.007812 58.75 129.277344 58.457031 133.589844 58.570312 C 136.890625 58.664062 138.867188 59.132812 144.292969 61.078125 C 155.25 65.066406 155.878906 65.019531 165.582031 60.535156 C 175.082031 56.144531 175.019531 56.121094 183.714844 62.433594 C 194.625 70.25 197.300781 74.847656 196.699219 84.703125 C 196.34375 90.734375 196.308594 95.960938 196.578125 98.4375 C 197.035156 102.480469 200.335938 108.085938 202.398438 108.3125 C 203.390625 108.394531 204.285156 106.46875 204.691406 103.519531 C 204.847656 102.046875 204.636719 96.933594 204.113281 92.222656 C 203.078125 82.1875 203.441406 78.410156 206.019531 71.878906 C 207.929688 67.019531 211.460938 62.191406 215.296875 59.175781 L 217.648438 57.261719 L 221.367188 57.710938 C 227.449219 58.390625 247.070312 60.789062 251.675781 61.417969 C 260.222656 62.539062 270.058594 65.957031 275.164062 69.554688 C 280.96875 73.671875 284.269531 78.425781 285.773438 84.679688 C 286.570312 88.0625 287.242188 98.917969 287.09375 105.703125 C 286.984375 111.515625 286.363281 120.375 286.050781 120.875 C 285.589844 121.59375 280.4375 118.96875 277.394531 116.449219 C 275.683594 115.054688 272.671875 111.96875 270.695312 109.59375 C 265.898438 103.898438 263.03125 101.644531 258.703125 100.234375 C 249.550781 97.195312 233.710938 100.675781 230.464844 106.417969 C 229.347656 108.398438 230.191406 109.554688 233.472656 110.660156 C 236.265625 111.59375 237.394531 111.859375 252.140625 114.859375 C 267.390625 117.972656 279.488281 120.769531 280.746094 121.527344 C 283.027344 122.855469 291.203125 128.808594 294.984375 131.933594 C 301.710938 137.46875 304.566406 142.132812 304.386719 147.476562 C 304.210938 154.628906 295.527344 191.050781 293.804688 191.863281 C 292.90625 192.289062 293.140625 192.578125 282.914062 180.480469 C 269.289062 164.273438 264.160156 158.933594 256.589844 152.988281 C 246.152344 144.796875 238.191406 141.097656 227.746094 139.570312 C 221.828125 138.710938 214.84375 138.453125 214.628906 139.058594 C 214.414062 139.558594 216.988281 141.398438 223.429688 145.269531 C 238.585938 154.4375 263.558594 175.046875 277.953125 190.339844 C 283.378906 196.089844 289.007812 202.800781 291.457031 206.5 C 294.105469 210.511719 298.007812 219.085938 299.496094 224.144531 L 300.835938 228.671875 L 304.992188 234.175781 C 316.820312 249.976562 330.5625 270.886719 344.339844 293.984375 C 352.074219 307.0625 357.828125 317.21875 357.777344 317.746094 C 357.75 318.007812 355.371094 319.332031 352.464844 320.707031 L 347.222656 323.1875 L 345.5625 320.3125 C 344.644531 318.792969 341.367188 313.027344 338.265625 307.628906 C 325.636719 285.691406 318.351562 274.304688 299.140625 246.8125 C 298.570312 246.027344 298.128906 245.734375 297.859375 246.011719 C 296.636719 247.242188 276.839844 261.960938 273.386719 264.195312 C 271.539062 265.371094 271.335938 265.367188 270.421875 264.597656 C 267.476562 262.078125 261.34375 252.605469 251.261719 234.773438 C 245.429688 224.554688 243.304688 220.699219 230.828125 197.484375 L 224.734375 186.1875 L 219.164062 179.703125 C 212.605469 172.082031 207.933594 167.074219 205.863281 165.449219 C 203.074219 163.257812 198.410156 164.3125 197.757812 167.175781 C 197.3125 169.089844 197.816406 170.054688 201.855469 175.308594 C 207.566406 182.730469 222.972656 206.308594 230.550781 219.261719 C 247.347656 247.796875 252.820312 263.296875 249.242188 272.152344 C 248.195312 274.601562 242.863281 282.183594 235.855469 291.109375 C 227.703125 301.527344 211.21875 318.589844 209.832031 318.089844 C 209.289062 317.898438 209.078125 316.496094 209.003906 312.519531 C 208.679688 298.796875 206.625 277.921875 204.332031 264.375 C 200.414062 241.675781 193.492188 222.902344 185.359375 213.121094 C 181 207.816406 179.011719 206.902344 177.820312 209.570312 C 177.179688 210.972656 177.273438 211.382812 178.640625 214.59375 C 179.429688 216.472656 181.765625 220.882812 183.816406 224.269531 C 188.078125 231.375 193.039062 241.554688 194.828125 246.921875 C 200.1875 263.027344 201.648438 283.078125 199.578125 310.8125 C 199.0625 317.671875 197.828125 326.722656 197.230469 328.105469 C 196.699219 329.3125 165.5625 349.191406 164.660156 348.867188 C 164.296875 348.738281 164.097656 345.875 164.179688 340.226562 C 164.292969 321.382812 163.351562 278.488281 162.53125 267.851562 C 162.164062 262.617188 161.089844 256.109375 160.394531 254.632812 C 159.210938 252.136719 157.164062 254.058594 155.738281 258.988281 C 153.457031 266.78125 150.824219 291.726562 151.070312 302.53125 C 151.304688 311.289062 152.351562 317.007812 154.96875 323.386719 C 156.585938 327.230469 156.996094 328.742188 157.03125 330.929688 C 157.164062 335.023438 154.691406 350.675781 153.917969 350.839844 C 153.550781 350.914062 150.875 349.171875 148.023438 346.960938 C 138.300781 339.535156 132.160156 336.824219 127.695312 337.984375 C 126.433594 338.277344 125.648438 338 122.472656 336.042969 C 114.957031 331.378906 113.96875 330.144531 114.195312 325.425781 C 114.324219 321.457031 115.601562 313.988281 117.085938 308.226562 C 118.835938 301.4375 124.234375 286.359375 126.757812 281.207031 C 127.90625 278.863281 128.738281 276.914062 128.617188 276.871094 C 127.875 276.570312 120.023438 289.953125 117.4375 295.933594 C 113.960938 303.941406 110.371094 318.816406 110.65625 324.195312 C 110.675781 325.085938 110.476562 325.832031 110.195312 325.863281 C 109.21875 326.027344 104.703125 322.097656 102.878906 319.503906 C 101.34375 317.320312 100.980469 316.441406 100.484375 314.019531 C 99.941406 311.171875 100.4375 306.925781 101.582031 304.683594 C 101.921875 304.023438 104.09375 299.289062 106.476562 294.152344 C 111.136719 283.984375 112.820312 279.378906 114.105469 273.308594 C 114.539062 271.152344 114.988281 269.132812 115.078125 268.792969 C 115.125 268.46875 113.636719 269.773438 111.730469 271.675781 C 109.804688 273.640625 106.367188 276.96875 104.050781 279.066406 C 94.253906 287.90625 90.363281 293.351562 89.878906 298.894531 C 89.457031 304.152344 89.003906 303.617188 80.542969 286.671875 C 73.554688 272.738281 72.292969 269.226562 72.855469 265.753906 C 73.328125 262.726562 74.71875 261.214844 81.636719 256.242188 C 94.359375 247.121094 99.132812 242.058594 109.734375 226.226562 C 121.234375 209.113281 130.578125 198.984375 141.804688 191.574219 C 146.820312 188.199219 149.367188 185.84375 152.457031 181.675781 C 155.378906 177.789062 156.171875 175.761719 155.457031 174.246094 C 154.972656 173.222656 154.550781 173.070312 152.261719 173.101562 C 150.863281 173.109375 147.566406 173.667969 144.980469 174.238281 C 140.886719 175.222656 139.496094 175.777344 133.617188 178.808594 C 128.738281 181.316406 125.699219 183.152344 122.378906 185.675781 C 113.355469 192.445312 104.085938 202.191406 99.417969 209.808594 C 97.882812 212.386719 92.148438 220.609375 86.734375 228.128906 C 81.300781 235.609375 76.15625 242.949219 75.210938 244.449219 C 74.308594 245.929688 73.46875 247.125 73.351562 247.082031 C 73.1875 247.058594 72.671875 245.648438 72.140625 243.996094 C 70.648438 239.140625 66.941406 228.867188 62.636719 217.425781 C 58.480469 206.414062 57.640625 203.152344 58.226562 200.570312 C 58.699219 198.394531 59.585938 197.625 65.871094 193.851562 C 72.339844 189.941406 75.339844 187.171875 78.277344 182.472656 C 82.1875 176.21875 84.066406 174.476562 90.046875 171.648438 C 94.757812 169.421875 98.082031 168.402344 105.816406 166.75 C 118.378906 164.066406 128.511719 159.328125 142.34375 149.683594 C 151.046875 143.613281 151.667969 142.917969 150.164062 141.425781 C 149.074219 140.289062 147.976562 140.40625 140.085938 142.582031 C 137.109375 143.386719 131.332031 144.515625 127.226562 145.054688 C 121.640625 145.742188 119.175781 146.253906 117.332031 147.125 C 114.589844 148.421875 107.691406 153.4375 100.140625 159.613281 C 97.355469 161.882812 93.539062 164.9375 91.640625 166.4375 C 82.132812 173.988281 71.75 182.753906 68.96875 185.671875 C 68.453125 186.167969 67.8125 186.722656 67.484375 186.875 C 66.007812 187.574219 61.582031 176.9375 60.460938 169.902344 C 58.933594 160.203125 60.792969 153.011719 66.875 145.527344 C 72.121094 139.140625 78.683594 134.683594 87.011719 131.847656 C 93.035156 129.851562 96.136719 127.9375 98.574219 124.828125 L 100.054688 122.976562 L 113.710938 121.230469 C 127.34375 119.546875 138.507812 117.726562 140.226562 116.914062 C 141.375 116.371094 140.839844 114.917969 139.238281 113.972656 C 136.035156 112.179688 117.179688 112.675781 102.421875 114.945312 C 88.128906 117.140625 81.90625 119.882812 75.3125 126.808594 C 74.109375 128.078125 73.894531 114.699219 75.03125 109.152344 C 76.851562 100.175781 81.335938 92.394531 87.550781 87.203125 C 92.089844 83.453125 100.914062 79.433594 106.667969 78.464844 C 112.34375 77.535156 116.195312 78.269531 123.398438 81.628906 C 132.402344 85.839844 137.8125 86.789062 145.316406 85.496094 C 151.644531 84.359375 152.445312 82.976562 148.5 79.832031 C 145.214844 77.226562 140.417969 75.238281 133.679688 73.8125 C 122.183594 71.328125 114.882812 70.824219 109.464844 72.082031 C 107.773438 72.53125 106.246094 72.800781 106.066406 72.738281 C 105.503906 72.5 110.53125 66.816406 113.402344 64.410156 C 116.289062 62.039062 119.425781 60.40625 122.746094 59.589844 Z M 113.460938 67.1875 C 111.808594 68.667969 111.230469 69.992188 112.5 69.394531 C 114.425781 68.484375 126.390625 69.839844 135.90625 72.058594 C 143.386719 73.78125 150.078125 77.234375 152.496094 80.546875 C 153.675781 82.195312 153.324219 84.417969 151.613281 85.675781 C 149.761719 87.054688 143.941406 88.199219 139.015625 88.171875 C 133.585938 88.136719 129.941406 87.101562 122.28125 83.507812 C 116.785156 80.894531 113.925781 80.144531 110.316406 80.347656 C 105.609375 80.570312 104.609375 80.890625 97.195312 84.394531 C 89.171875 88.191406 88.058594 89.015625 84.179688 93.957031 C 80.117188 99.132812 77.890625 104.496094 76.902344 111.523438 C 76.414062 115.363281 76.296875 121.582031 76.78125 121.753906 C 76.859375 121.816406 78.09375 121.035156 79.511719 120.011719 C 85.75 115.609375 99.359375 112.285156 115.855469 111.148438 C 128.519531 110.273438 137.507812 110.632812 140.152344 112.089844 C 143.734375 114.050781 144.308594 117.488281 141.316406 118.902344 C 139.558594 119.734375 127.109375 121.808594 114.148438 123.429688 L 101.835938 124.941406 L 99.804688 127.003906 C 97.152344 129.660156 92.023438 132.484375 86.367188 134.40625 C 82.632812 135.621094 81.34375 136.28125 78.136719 138.398438 C 65.035156 147.25 60.25 157.375 62.875 170.765625 C 63.695312 174.9375 66.976562 184.109375 67.550781 183.839844 C 67.714844 183.761719 69.574219 182.078125 71.746094 180.101562 C 73.875 178.140625 77.738281 174.863281 80.355469 172.773438 C 82.933594 170.703125 89.722656 165.238281 95.414062 160.644531 C 114.910156 144.964844 115.914062 144.339844 124.796875 143.195312 C 132.253906 142.226562 137.199219 141.242188 143.214844 139.550781 C 148.289062 138.101562 150.136719 138.082031 151.523438 139.429688 C 152.972656 140.796875 153.253906 141.816406 152.605469 143.628906 C 151.9375 145.496094 150.96875 146.304688 142.511719 152.160156 C 128.476562 161.898438 117.425781 166.925781 104.75 169.257812 C 99.296875 170.234375 95.089844 171.71875 89.84375 174.402344 C 84.3125 177.21875 84.351562 177.199219 79.929688 183.949219 C 76.804688 188.683594 73.207031 191.988281 67.640625 195.371094 C 65.21875 196.816406 62.605469 198.5 61.84375 199.113281 C 59.324219 201.203125 59.730469 203.96875 64.316406 215.679688 C 67 222.527344 72.632812 238.253906 73.289062 240.597656 C 73.476562 241.414062 73.804688 242.007812 73.929688 241.949219 C 74.09375 241.871094 76.746094 238.261719 79.859375 233.933594 C 82.976562 229.605469 86.609375 224.582031 87.96875 222.785156 C 91.707031 217.761719 95.832031 211.652344 98.039062 207.953125 C 102.289062 200.832031 112.65625 190.121094 122.316406 183 C 128.457031 178.390625 137.882812 173.738281 143.851562 172.269531 C 149.289062 170.949219 153.269531 170.570312 155.28125 171.222656 C 156.40625 171.59375 156.945312 172.089844 157.5625 173.402344 C 158.28125 174.914062 158.246094 175.484375 157.429688 177.671875 C 156.246094 180.6875 151.449219 186.863281 148.1875 189.605469 C 146.890625 190.671875 144.191406 192.597656 142.21875 193.933594 C 137.589844 197.074219 133.132812 200.683594 130.292969 203.578125 C 124.675781 209.390625 116.417969 219.910156 111.34375 227.71875 C 102.34375 241.644531 94.851562 249.644531 83.039062 257.933594 C 75.054688 263.511719 74.109375 265.011719 75.363281 269.78125 C 76.054688 272.410156 84.859375 291.144531 86.800781 294.1875 L 88.054688 296.097656 L 89.359375 293.027344 C 91.089844 288.953125 95.207031 284.097656 101.863281 278.144531 C 111.019531 269.960938 113.804688 266.839844 116.859375 261.4375 C 118.949219 257.691406 119.71875 254.972656 119.90625 250.175781 C 120.40625 239.367188 124.503906 230.015625 132.253906 222.242188 C 137.351562 217.128906 146.390625 213.253906 149.332031 214.917969 C 150.292969 215.46875 150.390625 215.671875 150.257812 217.085938 C 150.085938 219.476562 148.09375 222.46875 142.671875 228.492188 C 127.050781 245.894531 118.789062 260.425781 115.734375 275.796875 C 114.777344 280.660156 112.5625 286.363281 108.039062 295.871094 C 103.304688 305.671875 102 309.699219 102.460938 312.6875 C 102.652344 314.046875 103.101562 315.738281 103.429688 316.4375 C 104.089844 317.828125 107.152344 321.441406 107.894531 321.742188 C 108.175781 321.808594 108.679688 320.015625 109.035156 317.695312 C 110.050781 311.152344 112.175781 303.03125 114.167969 298.132812 C 118.605469 287.066406 126.144531 275.136719 135.4375 264.480469 C 137.742188 261.835938 137.90625 261.757812 138.769531 262.203125 C 139.25 262.476562 139.707031 262.808594 139.785156 262.972656 C 139.863281 263.136719 138.539062 265.316406 136.839844 267.875 C 129.300781 279.054688 123.660156 292.242188 119.023438 309.464844 C 117.457031 315.367188 116.050781 324.796875 116.445312 327.21875 C 116.78125 329.515625 117.53125 330.261719 122.609375 333.472656 C 126.125 335.71875 126.488281 335.847656 129.027344 335.601562 C 133.632812 335.175781 140.292969 338.238281 148.886719 344.648438 C 150.71875 346.089844 152.375 347.160156 152.582031 347.0625 C 152.949219 346.886719 154.792969 334.890625 154.96875 331.550781 C 155.03125 329.667969 154.773438 328.589844 153.589844 326.09375 C 151.769531 322.242188 150 316.164062 149.351562 311.511719 C 148.148438 302.8125 149.011719 286.519531 151.617188 268.605469 C 153.117188 258.324219 155.105469 252.675781 157.6875 251.453125 C 161.25 249.769531 162.949219 252.726562 164.285156 262.765625 C 165.304688 270.75 166.816406 325.453125 166.382812 341.386719 C 166.347656 343.960938 166.515625 345.484375 166.804688 345.347656 C 167.5 345.019531 174.648438 340.535156 185.808594 333.40625 C 190.84375 330.175781 195.144531 327.191406 195.316406 326.808594 C 196.484375 324.300781 198.253906 301.972656 198.195312 289.871094 C 198.164062 271.046875 197.050781 261.804688 193.328125 249.585938 C 191.472656 243.648438 186.167969 232.425781 181.828125 225.261719 C 176.941406 217.25 175.375 213.730469 175.4375 210.996094 C 175.484375 209.722656 175.925781 208.109375 176.46875 207.351562 C 177.304688 206.15625 177.574219 205.976562 179.09375 205.910156 C 181.367188 205.839844 183.382812 207.242188 186.875 211.449219 C 192.109375 217.644531 198.515625 231.300781 201.953125 243.554688 C 206.347656 259.214844 209.695312 281.980469 210.859375 304.679688 C 211.113281 309.570312 211.367188 313.707031 211.425781 313.832031 C 211.601562 314.199219 217.1875 308.953125 222.164062 303.691406 C 229.242188 296.191406 244.582031 276.710938 247.097656 271.964844 C 248.34375 269.722656 248.226562 264.066406 246.890625 258.382812 C 245.890625 254.148438 245.277344 252.535156 240.917969 243.421875 C 235.925781 232.855469 232.203125 226.046875 224.792969 213.96875 C 216.207031 199.941406 201.417969 177.667969 199.296875 175.617188 C 197.6875 174.121094 195.875 170.921875 195.550781 169.070312 C 194.84375 165.144531 197.933594 162.03125 202.53125 162.113281 C 206.339844 162.117188 208.863281 164.378906 221.707031 179.25 L 226.585938 184.910156 L 235.308594 201.128906 C 248.695312 226.167969 257.511719 241.738281 264.597656 253.019531 C 267.867188 258.136719 271.351562 262.855469 271.800781 262.640625 C 272.496094 262.3125 288.707031 250.390625 292.871094 247.117188 C 297.714844 243.375 298.972656 242.53125 299.183594 242.980469 C 299.261719 243.144531 302.03125 247.097656 305.332031 251.75 C 318.65625 270.601562 331.304688 290.578125 342.949219 311.175781 C 344.742188 314.335938 346.65625 317.640625 347.222656 318.523438 L 348.261719 320.1875 L 351.535156 318.640625 L 354.773438 317.109375 L 353.917969 315.308594 C 352.566406 312.441406 339.894531 290.726562 334.042969 281.316406 C 323.671875 264.472656 310.425781 245.03125 300.207031 231.476562 C 298.847656 229.664062 298.328125 228.554688 297.175781 224.640625 C 295.371094 218.378906 294.367188 216.046875 291.671875 211.410156 C 285.582031 200.960938 274.261719 188.675781 256.3125 172.960938 C 246.429688 164.355469 233.558594 154.40625 226.507812 149.875 C 212.121094 140.746094 211.261719 140.097656 211.703125 138.484375 C 212.277344 136.308594 216.417969 135.957031 227.089844 137.222656 C 233.496094 137.953125 242.789062 141.175781 248.484375 144.644531 C 260.34375 151.816406 268.65625 159.863281 286.996094 181.804688 C 289.226562 184.507812 291.460938 187.109375 291.996094 187.609375 L 292.96875 188.5 L 293.710938 186.046875 C 298.039062 171.773438 302.640625 149.507812 302.128906 145.242188 C 301.558594 140.75 296.769531 135.597656 285.875 127.820312 L 279.273438 123.074219 L 272.257812 121.484375 C 268.425781 120.589844 259.007812 118.578125 251.40625 117.011719 C 243.738281 115.425781 236.320312 113.820312 234.789062 113.445312 C 228.863281 111.933594 226.804688 109.703125 228.199219 106.1875 C 229.148438 103.632812 230.964844 102.074219 235.183594 100.078125 C 242.511719 96.613281 252.984375 95.871094 259.921875 98.355469 C 264.746094 100.082031 267.554688 102.3125 272.507812 108.238281 C 274.484375 110.609375 277.316406 113.53125 278.847656 114.757812 C 281.574219 117.027344 284.117188 118.480469 284.3125 117.9375 C 284.550781 117.175781 284.957031 102.351562 284.816406 98.660156 C 284.449219 87.710938 284.089844 85.675781 281.828125 80.785156 C 280.066406 77.058594 279.339844 75.945312 277.691406 74.371094 C 271.796875 68.890625 261.632812 64.878906 250.132812 63.449219 C 247.203125 63.082031 241.6875 62.433594 237.90625 61.964844 C 234.085938 61.515625 228.125 60.777344 224.570312 60.355469 L 218.144531 59.585938 L 215.871094 61.558594 C 211.261719 65.59375 208.449219 70.128906 206.753906 76.191406 C 205.367188 81.207031 205.292969 83.597656 206.257812 91.355469 C 206.726562 94.996094 207.011719 99.417969 207.011719 101.222656 C 206.820312 109.078125 203.660156 112.675781 199.738281 109.46875 C 197.570312 107.742188 195.042969 102.921875 194.527344 99.507812 C 194.066406 96.621094 194.058594 89.609375 194.527344 85.832031 C 195.050781 81.425781 194.664062 78.703125 192.902344 74.976562 C 191.585938 72.191406 190.757812 71.078125 188.914062 69.292969 C 186.195312 66.722656 177.9375 60.804688 175.96875 60.03125 C 174.039062 59.242188 171.734375 59.878906 165.589844 62.882812 C 156.824219 67.128906 154.9375 67.269531 146.15625 63.957031 C 142.800781 62.6875 138.59375 61.417969 136.816406 61.15625 C 132.675781 60.558594 126.8125 60.773438 123.757812 61.617188 C 120.597656 62.460938 115.820312 65.070312 113.460938 67.1875 Z M 135.351562 222.230469 C 134.175781 223.238281 131.996094 225.621094 130.535156 227.515625 C 125.238281 234.429688 122.421875 241.722656 122.265625 248.808594 L 122.167969 252.414062 L 122.945312 251.09375 C 128.117188 242.535156 133.316406 235.621094 140.398438 227.8125 C 145.425781 222.230469 147.15625 219.957031 147.992188 217.910156 L 148.527344 216.503906 L 146.902344 216.667969 C 144.550781 216.878906 137.976562 220.039062 135.351562 222.230469 Z M 135.351562 222.230469 " fill-opacity="1" fill-rule="nonzero"/></g></g></g></g><g clip-path="url(#ebc20b2503)"><g clip-path="url(#be63924ceb)"><g clip-path="url(#7a702ad2d2)"><g clip-path="url(#bacdbf47f2)"><path fill="#2c6560" d="M 163.308594 113.0625 C 166.324219 112.441406 173.386719 112.757812 175.394531 113.613281 C 177.722656 114.617188 178.265625 115.664062 177.300781 117.222656 C 176.691406 118.261719 176.21875 118.535156 173.855469 119.152344 C 168.289062 120.628906 159.660156 119.550781 158.578125 117.253906 C 157.765625 115.535156 159.664062 113.835938 163.308594 113.0625 Z M 161.386719 116.730469 C 163.890625 117.898438 169.867188 117.929688 173.886719 116.78125 L 175.863281 116.199219 L 174.621094 115.683594 C 172.007812 114.613281 164.265625 114.664062 161.710938 115.824219 C 160.664062 116.269531 160.621094 116.390625 161.386719 116.730469 Z M 161.386719 116.730469 " fill-opacity="1" fill-rule="nonzero"/></g></g></g></g><g clip-path="url(#f3a8bdf876)"><g clip-path="url(#de1e805830)"><g clip-path="url(#43cf3090f8)"><g clip-path="url(#d9f7207f04)"><path fill="#2c6560" d="M 174.066406 127.019531 C 175.125 126.71875 176.730469 126.511719 177.742188 126.53125 C 179.488281 126.511719 183.105469 127.804688 183.472656 128.582031 C 183.878906 129.445312 183.5625 131.949219 182.816406 133.554688 C 182.160156 134.917969 181.640625 135.414062 179.714844 136.324219 C 176.585938 137.753906 173.972656 137.734375 169.566406 136.261719 C 166.671875 135.222656 165.851562 134.761719 165.367188 133.738281 C 164.4375 131.769531 165.335938 130.59375 169.082031 128.875 C 170.777344 128.121094 173.027344 127.257812 174.066406 127.019531 Z M 167.742188 131.761719 C 166.871094 132.675781 167.484375 133.238281 170.480469 134.273438 C 174.164062 135.492188 176.085938 135.535156 178.625 134.332031 C 180.386719 133.5 180.71875 133.144531 181.097656 131.613281 C 181.648438 129.597656 180.9375 128.730469 178.589844 128.636719 C 175.9375 128.539062 168.839844 130.589844 167.742188 131.761719 Z M 167.742188 131.761719 " fill-opacity="1" fill-rule="nonzero"/></g></g></g></g><g clip-path="url(#ebc6dc5512)"><g clip-path="url(#49d2eb8987)"><g clip-path="url(#ef1e564f62)"><g clip-path="url(#1e7a085fd2)"><path fill="#2c6560" d="M 188.414062 133.3125 C 190.675781 134.597656 190.652344 135.710938 188.300781 145.894531 C 184.734375 161.457031 179.613281 181.464844 176.925781 190.300781 C 174.039062 199.882812 167.9375 212.9375 165.355469 215.109375 C 164.800781 215.523438 164.167969 215.671875 163.566406 215.457031 C 162.742188 215.195312 162.6875 214.871094 162.878906 212.625 C 163.351562 206.839844 164.773438 197.449219 165.917969 192.449219 C 167.148438 187.207031 185.515625 135.234375 186.726562 133.558594 C 187.25 132.863281 187.535156 132.828125 188.414062 133.3125 Z M 177.273438 165.386719 C 172.714844 178.210938 168.523438 190.867188 167.960938 193.488281 C 166.742188 199.074219 165.066406 210.890625 165.46875 211 C 166.132812 211.238281 170.382812 202.113281 173.015625 194.855469 C 176.425781 185.425781 185.484375 150.429688 187.878906 137.476562 C 188.382812 134.730469 184.511719 144.980469 177.273438 165.386719 Z M 177.273438 165.386719 " fill-opacity="1" fill-rule="nonzero"/></g></g></g></g></g></g></g></g><g clip-path="url(#c0ae8b8923)"><path fill="#e7f3e1" d="M 409.414062 300.675781 C 377.917969 340.433594 366.523438 408.738281 409.414062 453.230469 C 452.304688 497.722656 523.492188 480.246094 573.746094 488.183594 C 624 496.121094 685.964844 496.121094 698.640625 426.214844 C 711.382812 356.308594 681.164062 338.832031 595.320312 289.539062 C 509.472656 240.246094 469.84375 224.371094 409.414062 300.675781 Z M 409.414062 300.675781 " fill-opacity="1" fill-rule="nonzero"/></g><g clip-path="url(#6b87ef4d3c)"><g transform="matrix(1, 0, 0, 1, 369, 163)"><g clip-path="url(#e2b37eff8b)"><g clip-path="url(#7ac1bc04d4)"><path fill="#2c6560" d="M 135.75 1.132812 C 139.054688 1.769531 142.136719 2.902344 145.984375 4.847656 C 148.929688 6.34375 150.515625 7.613281 154.59375 11.6875 C 162.792969 19.976562 163.378906 20.203125 174.070312 20.292969 C 184.535156 20.386719 184.488281 20.339844 189.652344 29.761719 C 196.175781 41.492188 196.628906 46.792969 191.871094 55.445312 C 188.972656 60.746094 186.707031 65.457031 185.894531 67.8125 C 184.578125 71.660156 185.167969 78.140625 186.933594 79.226562 C 187.796875 79.726562 189.425781 78.367188 191.058594 75.875 C 191.828125 74.605469 193.820312 69.894531 195.359375 65.410156 C 198.710938 55.898438 200.660156 52.636719 205.777344 47.835938 C 209.582031 44.257812 214.835938 41.402344 219.59375 40.316406 L 222.539062 39.589844 L 225.707031 41.585938 C 230.917969 44.800781 247.632812 55.355469 251.527344 57.890625 C 258.777344 62.558594 266.203125 69.851562 269.285156 75.285156 C 272.773438 81.492188 273.722656 87.199219 272.410156 93.496094 C 271.6875 96.890625 267.652344 106.992188 264.621094 113.0625 C 262.039062 118.273438 257.6875 126.019531 257.191406 126.335938 C 256.464844 126.789062 252.933594 122.214844 251.257812 118.636719 C 250.304688 116.640625 248.902344 112.566406 248.132812 109.574219 C 246.230469 102.375 244.597656 99.113281 241.292969 95.984375 C 234.316406 89.328125 218.507812 85.703125 213.117188 89.507812 C 211.257812 90.824219 211.53125 92.226562 214.023438 94.628906 C 216.152344 96.664062 217.058594 97.390625 229.105469 106.40625 C 241.5625 115.734375 251.300781 123.4375 252.117188 124.660156 C 253.613281 126.832031 258.457031 135.710938 260.542969 140.152344 C 264.257812 148.03125 264.847656 153.46875 262.398438 158.222656 C 259.183594 164.613281 235.765625 193.828125 233.863281 193.828125 C 232.867188 193.828125 232.957031 194.191406 228.878906 178.878906 C 223.488281 158.40625 221.132812 151.382812 216.832031 142.777344 C 210.898438 130.910156 205.28125 124.160156 196.492188 118.316406 C 191.507812 115.011719 185.304688 111.796875 184.851562 112.246094 C 184.441406 112.609375 185.984375 115.375 190.152344 121.625 C 199.933594 136.390625 213.707031 165.699219 220.183594 185.675781 C 222.628906 193.195312 224.847656 201.664062 225.484375 206.058594 C 226.160156 210.816406 226.027344 220.238281 225.210938 225.445312 L 224.484375 230.109375 L 225.890625 236.859375 C 229.832031 256.203125 233.320312 280.980469 235.902344 307.75 C 237.304688 322.878906 238.164062 334.519531 237.894531 334.972656 C 237.757812 335.199219 235.039062 335.382812 231.824219 335.382812 L 226.027344 335.382812 L 225.753906 332.074219 C 225.574219 330.308594 225.074219 323.695312 224.578125 317.488281 C 222.539062 292.257812 220.816406 278.851562 215.199219 245.785156 C 215.019531 244.832031 214.746094 244.378906 214.382812 244.515625 C 212.753906 245.105469 188.566406 249.953125 184.488281 250.496094 C 182.3125 250.765625 182.132812 250.675781 181.636719 249.589844 C 180.050781 246.054688 178.554688 234.867188 177.058594 214.4375 C 176.152344 202.707031 175.882812 198.3125 174.523438 171.996094 L 173.84375 159.175781 L 171.578125 150.933594 C 168.90625 141.238281 166.824219 134.714844 165.644531 132.359375 C 164.058594 129.1875 159.394531 128.148438 157.582031 130.457031 C 156.359375 131.996094 156.40625 133.085938 157.808594 139.5625 C 159.800781 148.710938 163.652344 176.617188 164.964844 191.5625 C 167.957031 224.539062 166.277344 240.890625 159.257812 247.371094 C 157.265625 249.136719 149.203125 253.710938 139.054688 258.785156 C 127.234375 264.71875 105.039062 273.097656 103.996094 272.054688 C 103.585938 271.648438 103.996094 270.289062 105.625 266.664062 C 111.199219 254.117188 118.265625 234.367188 121.976562 221.140625 C 128.140625 198.945312 129.90625 179.015625 126.734375 166.695312 C 125.058594 160.035156 123.65625 158.359375 121.433594 160.261719 C 120.257812 161.257812 120.167969 161.667969 120.03125 165.15625 C 119.941406 167.195312 120.167969 172.175781 120.574219 176.117188 C 121.390625 184.359375 121.527344 195.683594 120.847656 201.300781 C 118.808594 218.152344 111.558594 236.90625 97.835938 261.09375 C 94.4375 267.074219 89.457031 274.730469 88.324219 275.726562 C 87.324219 276.585938 50.679688 281.25 50 280.570312 C 49.730469 280.300781 50.769531 277.628906 53.261719 272.554688 C 61.417969 255.566406 78.902344 216.386719 82.707031 206.421875 C 84.609375 201.527344 86.421875 195.1875 86.421875 193.554688 C 86.421875 190.792969 83.746094 191.652344 80.351562 195.503906 C 74.960938 201.574219 61.914062 223 57.519531 232.875 C 53.988281 240.890625 52.492188 246.507812 52.128906 253.394531 C 51.949219 257.5625 51.675781 259.101562 50.769531 261.09375 C 49.140625 264.855469 40.21875 277.945312 39.445312 277.765625 C 39.085938 277.671875 37.410156 274.957031 35.777344 271.738281 C 30.160156 260.867188 25.765625 255.792969 21.238281 254.933594 C 19.96875 254.664062 19.378906 254.074219 17.34375 250.949219 C 12.539062 243.519531 12.179688 241.980469 14.398438 237.8125 C 16.210938 234.277344 20.558594 228.074219 24.363281 223.496094 C 28.847656 218.109375 40.171875 206.78125 44.65625 203.203125 C 46.695312 201.574219 48.28125 200.167969 48.1875 200.078125 C 47.644531 199.492188 34.828125 208.234375 29.933594 212.535156 C 23.367188 218.289062 13.761719 230.203125 11.726562 235.183594 C 11.363281 236 10.863281 236.589844 10.59375 236.5 C 9.640625 236.226562 7.242188 230.746094 6.695312 227.621094 C 6.246094 224.992188 6.289062 224.042969 6.878906 221.640625 C 7.601562 218.832031 9.867188 215.207031 11.859375 213.667969 C 12.449219 213.214844 16.4375 209.863281 20.785156 206.238281 C 29.347656 199.039062 32.832031 195.59375 36.59375 190.65625 C 37.90625 188.890625 39.175781 187.261719 39.402344 186.988281 C 39.582031 186.714844 37.679688 187.261719 35.144531 188.167969 C 32.5625 189.117188 28.03125 190.65625 25.042969 191.5625 C 12.40625 195.367188 6.5625 198.628906 3.753906 203.429688 C 1.125 208.007812 0.945312 207.328125 0.535156 188.390625 C 0.175781 172.808594 0.535156 169.097656 2.53125 166.195312 C 4.25 163.660156 6.152344 162.890625 14.535156 161.351562 C 29.933594 158.542969 36.414062 156.003906 52.765625 146.222656 C 70.476562 135.667969 83.25 130.503906 96.566406 128.601562 C 102.546875 127.695312 105.851562 126.652344 110.425781 124.207031 C 114.730469 121.941406 116.316406 120.445312 116.316406 118.769531 C 116.316406 117.636719 116 117.320312 113.914062 116.371094 C 112.648438 115.78125 109.429688 114.875 106.847656 114.285156 C 102.726562 113.425781 101.230469 113.335938 94.617188 113.5625 C 89.136719 113.742188 85.605469 114.105469 81.527344 114.964844 C 70.476562 117.230469 57.929688 122.078125 50.453125 126.96875 C 47.964844 128.644531 39.265625 133.628906 31.15625 138.113281 C 23.050781 142.550781 15.257812 146.992188 13.761719 147.941406 C 12.3125 148.894531 11.046875 149.617188 10.957031 149.527344 C 10.820312 149.4375 10.957031 147.941406 11.179688 146.222656 C 11.90625 141.191406 12.949219 130.320312 13.945312 118.136719 C 14.894531 106.40625 15.53125 103.097656 17.160156 101.015625 C 18.519531 99.246094 19.652344 98.929688 26.945312 98.207031 C 34.464844 97.4375 38.359375 96.210938 43.027344 93.222656 C 49.230469 89.238281 51.675781 88.46875 58.289062 88.46875 C 63.5 88.46875 66.941406 88.964844 74.644531 90.777344 C 87.144531 93.722656 98.332031 93.765625 114.957031 90.957031 C 125.421875 89.191406 126.28125 88.828125 125.558594 86.835938 C 125.058594 85.339844 124.015625 84.980469 115.953125 83.574219 C 112.917969 83.03125 107.210938 81.582031 103.269531 80.3125 C 97.925781 78.546875 95.480469 77.957031 93.441406 77.957031 C 90.40625 77.957031 82.027344 79.542969 72.558594 81.898438 C 69.070312 82.757812 64.316406 83.890625 61.960938 84.433594 C 50.136719 87.199219 37 90.6875 33.242188 92.136719 C 32.5625 92.363281 31.746094 92.589844 31.382812 92.589844 C 29.753906 92.589844 30.296875 81.082031 32.289062 74.242188 C 35.054688 64.820312 39.808594 59.113281 48.507812 54.945312 C 55.980469 51.414062 63.816406 50.191406 72.558594 51.1875 C 78.855469 51.957031 82.480469 51.550781 86.011719 49.78125 L 88.140625 48.742188 L 101.230469 53 C 114.277344 57.300781 125.148438 60.429688 127.050781 60.429688 C 128.320312 60.429688 128.457031 58.886719 127.414062 57.347656 C 125.285156 54.359375 108.027344 46.75 93.714844 42.492188 C 79.851562 38.367188 73.058594 38.1875 64.132812 41.628906 C 62.503906 42.265625 68.03125 30.078125 71.425781 25.550781 C 76.90625 18.210938 84.292969 13.09375 92.128906 11.054688 C 97.835938 9.605469 107.527344 9.742188 113.144531 11.324219 C 118.671875 12.910156 121.84375 15.222656 126.914062 21.335938 C 133.257812 28.992188 137.742188 32.164062 145.078125 34.199219 C 151.285156 35.878906 152.597656 34.972656 150.378906 30.441406 C 148.523438 26.683594 145.035156 22.832031 139.554688 18.664062 C 130.222656 11.507812 123.835938 7.929688 118.398438 6.75 C 116.679688 6.433594 115.183594 6.027344 115.046875 5.890625 C 114.640625 5.4375 121.617188 2.449219 125.238281 1.496094 C 128.863281 0.589844 132.398438 0.453125 135.75 1.132812 Z M 124.109375 4.03125 C 121.976562 4.667969 120.890625 5.617188 122.296875 5.617188 C 124.425781 5.617188 134.660156 11.960938 142.316406 18.03125 C 148.339844 22.785156 152.917969 28.765625 153.6875 32.796875 C 154.050781 34.789062 152.78125 36.648438 150.695312 37.054688 C 148.433594 37.507812 142.679688 36.058594 138.238281 33.929688 C 133.347656 31.574219 130.496094 29.082031 125.105469 22.558594 C 121.253906 17.847656 118.988281 15.945312 115.636719 14.585938 C 111.289062 12.777344 110.246094 12.640625 102.046875 12.640625 C 93.167969 12.640625 91.8125 12.910156 86.195312 15.71875 C 80.304688 18.664062 76 22.558594 72.105469 28.492188 C 70.023438 31.753906 67.257812 37.328125 67.621094 37.6875 C 67.667969 37.78125 69.117188 37.597656 70.839844 37.28125 C 78.355469 35.96875 92.082031 38.777344 107.484375 44.800781 C 119.304688 49.421875 127.277344 53.589844 129.042969 56.035156 C 131.445312 59.339844 130.496094 62.691406 127.1875 62.691406 C 125.238281 62.691406 113.101562 59.25 100.6875 55.171875 L 88.910156 51.277344 L 86.195312 52.273438 C 82.660156 53.542969 76.816406 53.90625 70.882812 53.226562 C 66.988281 52.726562 65.539062 52.773438 61.734375 53.316406 C 46.105469 55.71875 37.453125 62.828125 34.101562 76.054688 C 33.058594 80.175781 32.109375 89.871094 32.742188 89.871094 C 32.925781 89.871094 35.324219 89.144531 38.132812 88.285156 C 40.898438 87.425781 45.789062 86.113281 49.050781 85.339844 C 52.265625 84.570312 60.738281 82.53125 67.847656 80.8125 C 92.171875 74.96875 93.351562 74.832031 101.867188 77.59375 C 109.023438 79.90625 113.914062 81.128906 120.074219 82.171875 C 125.285156 83.03125 126.960938 83.800781 127.640625 85.613281 C 128.367188 87.46875 128.183594 88.511719 126.824219 89.871094 C 125.421875 91.277344 124.199219 91.59375 114.050781 93.269531 C 97.199219 96.078125 85.0625 95.894531 72.605469 92.589844 C 67.257812 91.140625 62.820312 90.6875 56.933594 90.867188 C 50.726562 91.050781 50.769531 91.050781 43.886719 95.261719 C 39.039062 98.207031 34.375 99.65625 27.894531 100.335938 C 25.085938 100.605469 22.007812 101.015625 21.054688 101.242188 C 17.886719 102.054688 17.070312 104.730469 16.210938 117.277344 C 15.710938 124.613281 14.082031 141.238281 13.671875 143.640625 C 13.492188 144.453125 13.535156 145.132812 13.671875 145.132812 C 13.855469 145.132812 17.796875 143.003906 22.460938 140.421875 C 27.125 137.839844 32.5625 134.851562 34.554688 133.808594 C 40.082031 130.863281 46.421875 127.105469 50 124.703125 C 56.886719 120.085938 70.839844 114.828125 82.617188 112.519531 C 90.132812 110.980469 100.644531 110.796875 106.667969 112.023438 C 112.148438 113.152344 115.910156 114.511719 117.449219 115.960938 C 118.308594 116.777344 118.582031 117.457031 118.582031 118.90625 C 118.582031 120.582031 118.308594 121.082031 116.632812 122.710938 C 114.277344 124.929688 107.300781 128.464844 103.179688 129.550781 C 101.550781 129.960938 98.289062 130.546875 95.933594 130.910156 C 90.40625 131.769531 84.835938 133.128906 81.03125 134.535156 C 73.464844 137.386719 61.507812 143.367188 53.578125 148.257812 C 39.492188 157 29.300781 161.03125 15.078125 163.480469 C 5.472656 165.109375 3.980469 166.0625 3.074219 170.90625 C 2.574219 173.582031 2.53125 194.28125 2.984375 197.859375 L 3.300781 200.125 L 5.792969 197.90625 C 9.097656 194.960938 14.894531 192.332031 23.457031 189.796875 C 35.234375 186.308594 39.085938 184.679688 44.15625 181.101562 C 47.644531 178.609375 49.503906 176.480469 51.722656 172.222656 C 56.796875 162.664062 64.496094 155.960938 74.824219 152.246094 C 81.617188 149.800781 91.449219 150.160156 93.394531 152.925781 C 94.03125 153.832031 94.03125 154.058594 93.304688 155.28125 C 92.128906 157.363281 89.046875 159.222656 81.574219 162.347656 C 60.011719 171.40625 46.332031 181.007812 37 193.601562 C 34.058594 197.585938 29.617188 201.800781 21.464844 208.460938 C 12.992188 215.300781 10.09375 218.378906 9.234375 221.277344 C 8.828125 222.59375 8.507812 224.3125 8.507812 225.082031 C 8.507812 226.625 9.730469 231.199219 10.277344 231.789062 C 10.503906 231.96875 11.726562 230.5625 13.039062 228.617188 C 16.753906 223.136719 22.144531 216.703125 26.039062 213.125 C 34.78125 205.015625 46.695312 197.453125 59.648438 191.789062 C 62.867188 190.386719 63.046875 190.386719 63.636719 191.15625 C 63.953125 191.609375 64.222656 192.105469 64.222656 192.289062 C 64.222656 192.46875 62.09375 193.875 59.46875 195.457031 C 47.871094 202.34375 37.136719 211.855469 25.585938 225.445312 C 21.644531 230.109375 16.34375 238.039062 15.667969 240.394531 C 14.988281 242.613281 15.347656 243.609375 18.566406 248.683594 C 20.785156 252.214844 21.054688 252.488281 23.457031 253.347656 C 27.804688 254.933594 32.515625 260.550781 37.542969 270.019531 C 38.585938 272.101562 39.628906 273.777344 39.855469 273.777344 C 40.261719 273.777344 47.058594 263.722656 48.640625 260.777344 C 49.503906 259.101562 49.730469 258.015625 49.730469 255.25 C 49.730469 250.992188 50.726562 244.742188 52.128906 240.257812 C 54.757812 231.878906 62.503906 217.519531 72.515625 202.433594 C 78.265625 193.78125 82.480469 189.523438 85.332031 189.523438 C 89.273438 189.523438 89.546875 192.921875 86.464844 202.570312 C 83.972656 210.226562 61.960938 260.324219 54.757812 274.546875 C 53.625 276.859375 53.125 278.308594 53.445312 278.308594 C 54.214844 278.308594 62.59375 277.3125 75.730469 275.636719 C 81.664062 274.863281 86.828125 274.003906 87.144531 273.730469 C 89.273438 271.964844 100.417969 252.535156 105.535156 241.570312 C 113.554688 224.539062 116.496094 215.707031 118.355469 203.070312 C 119.214844 196.910156 119.214844 184.496094 118.355469 176.164062 C 117.359375 166.832031 117.449219 162.980469 118.671875 160.535156 C 119.261719 159.402344 120.347656 158.132812 121.164062 157.679688 C 122.429688 156.957031 122.75 156.910156 124.152344 157.5 C 126.238281 158.40625 127.460938 160.535156 128.816406 165.835938 C 130.902344 173.671875 130.855469 188.753906 128.726562 201.300781 C 126.011719 217.335938 119.304688 239.351562 110.652344 260.371094 C 108.796875 264.898438 107.257812 268.75 107.257812 268.886719 C 107.257812 269.292969 114.550781 266.9375 121.300781 264.308594 C 130.902344 260.550781 153.097656 249.5 157.402344 246.28125 C 159.484375 244.789062 161.792969 239.625 163.019531 233.917969 C 163.921875 229.660156 164.058594 227.9375 164.015625 217.835938 C 164.015625 206.148438 163.5625 198.402344 162.019531 184.316406 C 160.253906 167.964844 156.40625 141.511719 155.363281 138.746094 C 154.546875 136.707031 154.273438 133.039062 154.773438 131.226562 C 155.816406 127.378906 159.9375 125.882812 164.058594 127.921875 C 167.503906 129.550781 168.816406 132.675781 174.070312 151.609375 L 176.0625 158.8125 L 177.015625 177.203125 C 178.417969 205.558594 179.730469 223.40625 181.316406 236.632812 C 182.085938 242.660156 183.21875 248.410156 183.71875 248.410156 C 184.488281 248.410156 204.238281 244.5625 209.402344 243.382812 C 215.382812 242.070312 216.875 241.84375 216.875 242.339844 C 216.875 242.523438 217.691406 247.277344 218.6875 252.894531 C 222.675781 275.636719 225.574219 299.097656 227.292969 322.699219 C 227.566406 326.324219 227.882812 330.128906 228.019531 331.167969 L 228.246094 333.117188 L 235.449219 333.117188 L 235.449219 331.125 C 235.449219 327.953125 233.273438 302.902344 232.003906 291.898438 C 229.832031 272.238281 226.160156 249 222.71875 232.375 C 222.265625 230.15625 222.265625 228.933594 222.902344 224.902344 C 223.941406 218.46875 224.03125 215.933594 223.578125 210.589844 C 222.539062 198.539062 217.554688 182.59375 208.042969 160.714844 C 202.789062 148.710938 195.40625 134.21875 190.964844 127.105469 C 181.859375 112.699219 181.363281 111.75 182.449219 110.480469 C 183.898438 108.761719 187.796875 110.210938 196.898438 115.917969 C 202.382812 119.3125 209.402344 126.199219 213.070312 131.769531 C 220.726562 143.320312 224.804688 154.148438 232.003906 181.824219 C 232.867188 185.222656 233.773438 188.527344 234.042969 189.207031 L 234.542969 190.429688 L 236.261719 188.527344 C 246.273438 177.476562 259.953125 159.3125 261.3125 155.234375 C 262.714844 150.933594 260.585938 144.226562 254.066406 132.542969 L 250.125 125.429688 L 244.460938 120.992188 C 241.382812 118.542969 233.726562 112.699219 227.519531 108.035156 C 221.269531 103.324219 215.246094 98.703125 214.023438 97.707031 C 209.3125 93.8125 208.40625 90.914062 211.167969 88.332031 C 213.117188 86.429688 215.425781 85.792969 220.09375 85.792969 C 228.199219 85.792969 237.984375 89.597656 243.195312 94.808594 C 246.816406 98.433594 248.402344 101.648438 250.351562 109.121094 C 251.121094 112.113281 252.433594 115.960938 253.296875 117.730469 C 254.789062 120.945312 256.464844 123.347656 256.875 122.9375 C 257.417969 122.347656 264.121094 109.121094 265.570312 105.726562 C 269.917969 95.667969 270.460938 93.675781 270.507812 88.285156 C 270.507812 84.164062 270.328125 82.851562 269.511719 80.722656 C 266.523438 73.246094 259.046875 65.273438 249.261719 59.070312 C 246.773438 57.484375 242.0625 54.539062 238.84375 52.5 C 235.582031 50.460938 230.511719 47.246094 227.476562 45.34375 L 221.996094 41.902344 L 219.09375 42.71875 C 213.207031 44.394531 208.722656 47.292969 204.601562 52.046875 C 201.203125 55.988281 200.117188 58.117188 197.671875 65.546875 C 196.539062 69.035156 194.90625 73.15625 194.136719 74.789062 C 190.605469 81.808594 186.210938 83.710938 184.035156 79.136719 C 182.8125 76.644531 182.585938 71.207031 183.582031 67.902344 C 184.398438 65.09375 187.386719 58.753906 189.425781 55.535156 C 191.78125 51.777344 192.597656 49.148438 192.597656 45.027344 C 192.597656 41.945312 192.324219 40.585938 191.417969 38.1875 C 190.058594 34.699219 185.121094 25.820312 183.671875 24.28125 C 182.269531 22.742188 179.914062 22.332031 173.074219 22.421875 C 163.335938 22.515625 161.566406 21.835938 155.046875 15.085938 C 152.554688 12.503906 149.292969 9.558594 147.796875 8.5625 C 144.308594 6.253906 138.917969 3.941406 135.792969 3.398438 C 132.578125 2.808594 127.140625 3.128906 124.109375 4.03125 Z M 77.632812 153.558594 C 76.136719 153.964844 73.148438 155.191406 71.019531 156.277344 C 63.273438 160.261719 57.609375 165.652344 54.441406 171.996094 L 52.808594 175.210938 L 54.078125 174.351562 C 62.414062 168.824219 70.066406 164.792969 79.808594 160.761719 C 86.738281 157.863281 89.273438 156.546875 90.90625 155.054688 L 91.992188 154.011719 L 90.453125 153.46875 C 88.230469 152.652344 80.9375 152.699219 77.632812 153.558594 Z M 77.632812 153.558594 " fill-opacity="1" fill-rule="nonzero"/></g><path fill="#2c6560" d="M 149.5625 66.816406 C 152.554688 67.539062 158.804688 70.847656 160.253906 72.476562 C 161.929688 74.378906 161.976562 75.558594 160.4375 76.554688 C 159.4375 77.234375 158.894531 77.277344 156.496094 76.824219 C 150.832031 75.785156 143.496094 71.117188 143.496094 68.582031 C 143.496094 66.679688 145.941406 65.953125 149.5625 66.816406 Z M 146.257812 69.304688 C 148.023438 71.433594 153.414062 74.015625 157.535156 74.695312 L 159.574219 75.015625 L 158.667969 74.015625 C 156.765625 71.933594 149.746094 68.671875 146.9375 68.625 C 145.804688 68.582031 145.714844 68.671875 146.257812 69.304688 Z M 146.257812 69.304688 " fill-opacity="1" fill-rule="nonzero"/><path fill="#2c6560" d="M 153.324219 84.027344 C 154.410156 84.210938 155.953125 84.707031 156.855469 85.160156 C 158.441406 85.886719 161.160156 88.601562 161.160156 89.464844 C 161.160156 90.414062 159.800781 92.542969 158.441406 93.675781 C 157.265625 94.628906 156.585938 94.855469 154.457031 94.855469 C 151.015625 94.808594 148.660156 93.675781 145.304688 90.460938 C 143.132812 88.285156 142.589844 87.515625 142.589844 86.382812 C 142.589844 84.210938 143.902344 83.53125 148.023438 83.574219 C 149.882812 83.621094 152.28125 83.800781 153.324219 84.027344 Z M 145.578125 85.613281 C 144.402344 86.066406 144.71875 86.835938 146.984375 89.054688 C 149.789062 91.726562 151.511719 92.589844 154.320312 92.589844 C 156.269531 92.589844 156.722656 92.40625 157.71875 91.183594 C 159.078125 89.597656 158.804688 88.511719 156.722656 87.425781 C 154.367188 86.203125 147.074219 85.023438 145.578125 85.613281 Z M 145.578125 85.613281 " fill-opacity="1" fill-rule="nonzero"/><path fill="#2c6560" d="M 163.605469 95.851562 C 165.101562 97.980469 164.601562 98.976562 158.125 107.175781 C 148.25 119.722656 135.070312 135.621094 128.863281 142.460938 C 122.160156 149.890625 111.0625 159.085938 107.800781 159.945312 C 107.121094 160.082031 106.488281 159.945312 106.035156 159.492188 C 105.398438 158.902344 105.492188 158.585938 106.621094 156.640625 C 109.523438 151.609375 114.820312 143.730469 117.992188 139.699219 C 121.34375 135.484375 160.164062 96.347656 161.976562 95.351562 C 162.746094 94.945312 163.019531 95.035156 163.605469 95.851562 Z M 139.824219 120.085938 C 130.222656 129.734375 121.027344 139.382812 119.398438 141.511719 C 115.910156 146.039062 109.339844 156.003906 109.65625 156.277344 C 110.15625 156.773438 117.902344 150.34375 123.382812 144.90625 C 130.496094 137.839844 153.640625 110.074219 161.339844 99.382812 C 162.972656 97.117188 155.089844 104.730469 139.824219 120.085938 Z M 139.824219 120.085938 " fill-opacity="1" fill-rule="nonzero"/></g></g></g></svg>