<?xml version="1.0" encoding="UTF-8"?>
<svg id="Layer_1" data-name="Layer 1" xmlns="http://www.w3.org/2000/svg" xmlns:xlink="http://www.w3.org/1999/xlink" viewBox="0 0 72 72">
  <defs>
    <style>
      .cls-1 {
        fill: none;
      }

      .cls-2 {
        fill: #fff;
      }

      .cls-3 {
        clip-path: url(#clippath);
      }
    </style>
    <clipPath id="clippath">
      <rect class="cls-1" x="5.3736" y="4.4516" width="61.2527" height="61.2528"/>
    </clipPath>
  </defs>
  <g class="cls-3">
    <path class="cls-2" d="M35.9582,4.4516c-1.0031,0-2.0025.0494-2.998.1444-.9955.0988-1.9873.247-2.9676.4408-.9841.1976-1.9531.4408-2.9144.7296-.9575.2926-1.8999.6308-2.8233,1.0107-.9272.3838-1.8315.8132-2.7131,1.2843-.8854.4712-1.7441.9879-2.5763,1.5427-.8322.5586-1.6377,1.1551-2.4129,1.7897-.7714.6346-1.5123,1.3071-2.2229,2.0139-.7068.7106-1.3793,1.4515-2.0139,2.2267-.6384.7714-1.2311,1.5769-1.7897,2.4091-.5548.8322-1.0715,1.6909-1.5427,2.5763-.4712.8816-.9006,1.7859-1.2843,2.7131-.3838.9234-.7182,1.8657-1.0107,2.8271-.2888.9575-.532,1.9265-.7296,2.9106-.1938.9803-.342,1.9721-.4408,2.9676-.0988.9993-.1444,1.9987-.1444,2.998,0,1.0031.0456,2.0025.1444,2.998.0988.9993.247,1.9873.4408,2.9714.1976.9803.4408,1.9531.7296,2.9106.2926.9575.627,1.8999,1.0107,2.8271.3838.9234.8132,1.8277,1.2843,2.7131.4712.8816.9879,1.7403,1.5427,2.5725.5586.836,1.1513,1.6377,1.7897,2.4129.6346.7752,1.3071,1.5161,2.0139,2.2229.7106.7106,1.4515,1.3793,2.2229,2.0177.7752.6346,1.5807,1.2311,2.4129,1.7859.8322.5586,1.6909,1.0715,2.5763,1.5427.8816.475,1.7859.9006,2.7131,1.2843.9234.3838,1.8657.722,2.8233,1.0107.9613.2926,1.9303.5358,2.9144.7296.9803.1976,1.9721.342,2.9676.4408s1.9949.1482,2.998.1482,2.0025-.0494,2.998-.1482,1.9873-.2432,2.9676-.4408c.9841-.1938,1.9531-.437,2.9144-.7296.9575-.2888,1.8999-.627,2.8271-1.0107.9234-.3838,1.8277-.8094,2.7131-1.2843.8816-.4712,1.7403-.9841,2.5725-1.5427.8322-.5548,1.6377-1.1513,2.4129-1.7859.7714-.6384,1.5161-1.3071,2.2229-2.0177.7068-.7068,1.3793-1.4477,2.0139-2.2229.6384-.7752,1.2349-1.5769,1.7897-2.4129.5586-.8322,1.0715-1.6909,1.5427-2.5725.4712-.8854.9006-1.7897,1.2843-2.7131.3838-.9272.722-1.8695,1.0107-2.8271.2926-.9575.5358-1.9303.7296-2.9106.1938-.9841.342-1.9721.4408-2.9714.0988-.9955.1482-1.9949.1482-2.998,0-.9993-.0494-1.9987-.1482-2.998-.0988-.9955-.247-1.9873-.4408-2.9676-.1976-.9841-.4408-1.9531-.7296-2.9106-.2926-.9613-.627-1.8999-1.0107-2.8271s-.8132-1.8315-1.2843-2.7131c-.4712-.8854-.9879-1.7403-1.5427-2.5763-.5586-.8322-1.1551-1.6339-1.7897-2.4091s-1.3071-1.5161-2.0139-2.2229c-.7106-.7106-1.4515-1.3831-2.2267-2.0177-.7714-.6346-1.5769-1.2311-2.4091-1.7859-.8322-.5586-1.6909-1.0715-2.5763-1.5465-.8816-.4712-1.7859-.8968-2.7131-1.2805-.9234-.3838-1.8657-.722-2.8233-1.0107-.9613-.2926-1.9303-.5358-2.9144-.7296-.9803-.1976-1.9721-.3458-2.9676-.4408-.9955-.0988-1.9949-.1482-2.998-.1482ZM21.8685,19.9434h28.1793c.6004,0,1.1855.1064,1.7479.3154s1.0753.5092,1.5313.9006.8284.8512,1.1171,1.3755c.2926.5282.4826,1.0867.5738,1.6833-.4028.2204-15.887,9.1461-16.9091,9.7275-.6688.38-1.3831.57-2.1507.57s-1.4819-.19-2.1507-.57c-1.0031-.57-16.5253-9.4121-16.9091-9.6515.0798-.6042.266-1.1703.551-1.7061.2888-.5358.6612-1.0031,1.1171-1.4021.4598-.399.9689-.7068,1.5389-.9196.57-.2166,1.1551-.323,1.7631-.323ZM55.075,45.1019c0,.3306-.0342.6574-.0988.9803s-.1596.6384-.285.9424-.2812.5966-.4636.8702c-.1862.2736-.3952.5282-.627.76-.2318.2356-.4864.4408-.76.627-.2774.1824-.5662.3382-.8702.4636s-.6194.2242-.9424.2888-.6498.095-.9803.095h-28.1793c-.3306,0-.6574-.0304-.9803-.095s-.6384-.1634-.9424-.2888-.5928-.2812-.8664-.4636c-.2774-.1862-.5282-.3914-.7638-.627-.2318-.2318-.4408-.4864-.6232-.76-.1862-.2736-.3382-.5662-.4674-.8702-.1254-.304-.2204-.6194-.285-.9424s-.0988-.6498-.0988-.9803v-18.524l15.982,9.1195c.4788.2736.9841.4788,1.5161.6194s1.0715.2128,1.6225.2128,1.0943-.0722,1.6263-.2128,1.0373-.3458,1.5161-.6194l15.9706-9.1955v18.6Z"/>
  </g>
</svg>