<?xml version="1.0" encoding="UTF-8"?>
<svg id="Layer_1" data-name="Layer 1" xmlns="http://www.w3.org/2000/svg" viewBox="0 0 375 375">
  <defs>
    <style>
      .cls-1 {
        fill: #2b6560;
      }
    </style>
  </defs>
  <path class="cls-1" d="M260.08,347.14c-.45,0-.83-.16-1.13-.48-.29-.31-.43-.68-.43-1.09v-27.78c0-.45.14-.83.41-1.13.29-.32.68-.48,1.16-.48s.84.16,1.13.48c.29.3.44.68.44,1.13v1.89c.05-.06.09-.12.14-.18.58-.72,1.25-1.34,2-1.85.77-.52,1.62-.91,2.52-1.16.9-.26,1.86-.4,2.85-.4,1.97,0,3.75.5,5.29,1.47,1.53.97,2.77,2.33,3.66,4.03.9,1.7,1.35,3.67,1.35,5.87s-.46,4.17-1.35,5.89c-.89,1.71-2.13,3.08-3.68,4.08-1.55.99-3.31,1.49-5.23,1.49-1.02,0-2-.15-2.92-.46-.93-.31-1.78-.74-2.53-1.26-.75-.52-1.43-1.15-2.02-1.86-.03-.03-.06-.07-.08-.1v10.33c0,.42-.15.79-.45,1.1-.29.32-.67.48-1.13.48h0v-.01ZM260.08,316.75c-.31,0-.54.09-.72.29s-.26.44-.26.74v27.78c0,.27.09.49.28.7.37.4,1.04.39,1.4,0,.2-.21.29-.43.29-.7v-11.16c-.29-.46-.54-.93-.74-1.42l-.09-.21,1.41-1.04v2.51c.17.25.34.5.54.74.55.67,1.19,1.26,1.9,1.75.7.49,1.5.89,2.38,1.18.86.29,1.78.43,2.73.43,1.81,0,3.46-.47,4.91-1.4,1.46-.94,2.63-2.24,3.48-3.85.85-1.63,1.29-3.52,1.29-5.62s-.43-3.99-1.29-5.6c-.85-1.61-2.01-2.89-3.46-3.81-1.44-.92-3.11-1.38-4.97-1.38-.93,0-1.83.13-2.69.38-.84.24-1.63.6-2.35,1.08-.71.48-1.33,1.06-1.87,1.73-.22.28-.42.57-.6.89v2.15l-1.24-.72.07-.23c.15-.48.35-.93.58-1.35v-2.81c0-.3-.09-.54-.28-.73-.19-.21-.41-.3-.71-.3h0l.0099-.02ZM260.96,332.97c.03.08.07.16.11.23v-.31l-.11.08h0ZM347.06,339.04c-1.57,0-3.11-.31-4.57-.92-1.47-.62-2.79-1.65-3.93-3.07v-.02c-.28-.39-.4-.78-.39-1.17.02-.43.25-.78.67-1.03.26-.22.6-.33.97-.29.37.03.71.2,1.01.51.77.98,1.67,1.77,2.72,2.35,1.05.58,2.32.88,3.76.88.76,0,1.52-.13,2.27-.39s1.34-.64,1.82-1.16c.46-.5.69-1.14.69-1.9,0-.81-.23-1.44-.69-1.94-.48-.5-1.11-.91-1.87-1.21-.78-.3-1.63-.57-2.54-.8-1-.27-1.96-.57-2.84-.88-.93-.33-1.76-.75-2.48-1.26-.73-.52-1.32-1.16-1.77-1.9-.45-.76-.67-1.69-.67-2.76,0-1.25.35-2.37,1.03-3.32.69-.95,1.62-1.69,2.78-2.22s2.49-.8,3.94-.8c.74,0,1.53.1,2.37.29.84.18,1.69.5,2.51.94.83.44,1.57,1.05,2.22,1.81.29.3.45.66.45,1.06s-.18.78-.52,1.09c-.63.47-1.47.46-1.96-.11-.64-.72-1.43-1.28-2.33-1.66-.9-.39-1.87-.58-2.9-.58-.78,0-1.53.13-2.23.39-.67.25-1.24.63-1.69,1.14-.43.47-.64,1.12-.64,1.93.05.73.31,1.34.79,1.8.5.48,1.17.89,1.99,1.22.85.33,1.82.64,2.88.93.9.22,1.8.5,2.65.82s1.62.72,2.29,1.21,1.22,1.12,1.61,1.87c.41.74.62,1.69.62,2.81,0,1.32-.37,2.47-1.11,3.42-.72.94-1.7,1.68-2.91,2.18-1.19.49-2.53.74-3.99.74h-.01ZM339.04,334.7c1.07,1.34,2.31,2.31,3.69,2.89,1.39.58,2.85.87,4.34.87,1.38,0,2.65-.23,3.77-.7,1.12-.46,2.01-1.13,2.67-2,.66-.85.99-1.88.99-3.07,0-1.03-.18-1.88-.55-2.53-.36-.67-.84-1.24-1.44-1.67-.62-.46-1.35-.84-2.15-1.14-.83-.31-1.7-.58-2.59-.8-1.09-.29-2.08-.61-2.95-.95-.9-.35-1.64-.8-2.19-1.34-.58-.56-.9-1.3-.96-2.2,0-.97.27-1.75.79-2.34.51-.58,1.16-1.01,1.92-1.3.76-.28,1.58-.42,2.43-.42,1.11,0,2.16.21,3.13.63.98.41,1.83,1.02,2.54,1.81.3.35.8.31,1.15.05.2-.18.31-.4.31-.64s-.1-.47-.3-.67c-.61-.72-1.3-1.28-2.06-1.69-.79-.42-1.56-.71-2.36-.89-.79-.18-1.55-.27-2.24-.27-1.37,0-2.61.25-3.7.74-1.06.48-1.92,1.17-2.55,2.03-.61.85-.92,1.85-.92,2.98,0,.97.2,1.79.59,2.46.4.67.94,1.25,1.61,1.72.68.48,1.46.88,2.34,1.19.86.31,1.8.61,2.79.87.93.24,1.81.51,2.61.82.85.33,1.55.78,2.09,1.35.56.6.85,1.38.85,2.34s-.29,1.69-.85,2.3c-.54.58-1.23,1.03-2.06,1.32-.81.28-1.64.42-2.46.42-1.54,0-2.9-.32-4.04-.96-1.12-.63-2.08-1.46-2.87-2.48-.18-.18-.4-.29-.63-.31-.22-.02-.4.04-.58.18-.37.23-.42.44-.43.58,0,.26.08.53.27.81h0v.0101ZM327.38,339.04c-2.18,0-4.11-.52-5.76-1.53-1.64-1.02-2.94-2.42-3.85-4.18-.91-1.75-1.37-3.76-1.37-5.96s.47-4.07,1.4-5.8c.93-1.75,2.24-3.17,3.91-4.22,1.67-1.07,3.64-1.61,5.85-1.61,1.39,0,2.67.15,3.82.46,1.16.3,2.12.73,2.84,1.26.78.56,1.17,1.2,1.17,1.89,0,.35-.12.68-.36,1.01-.25.34-.61.53-1.04.53-.4,0-.75-.1-1.01-.31-.24-.2-.46-.41-.68-.64-.18-.2-.46-.39-.83-.57-.33-.16-.83-.31-1.51-.45-.67-.14-1.43-.21-2.28-.21-1.53,0-2.93.39-4.15,1.15-1.23.77-2.21,1.82-2.93,3.12-.71,1.3-1.07,2.77-1.07,4.39s.35,3.15,1.03,4.47c.69,1.31,1.64,2.35,2.84,3.1,1.2.75,2.62,1.13,4.24,1.13,1.1,0,1.96-.1,2.56-.29.62-.2,1.14-.42,1.57-.66.5-.29.87-.57,1.08-.84.3-.37.7-.56,1.19-.56.46,0,.81.14,1.05.43.23.26.35.61.35,1.02,0,.54-.36,1.11-1.11,1.73-.7.58-1.65,1.09-2.83,1.51-1.19.42-2.57.63-4.11.63h-.01ZM327.55,316.33c-2.09,0-3.96.51-5.53,1.52-1.58,1-2.83,2.34-3.71,4-.88,1.65-1.33,3.5-1.33,5.52s.44,4.02,1.31,5.69c.87,1.66,2.09,2.99,3.64,3.95,1.55.96,3.39,1.44,5.45,1.44,1.47,0,2.78-.2,3.91-.6,1.12-.4,2.01-.87,2.66-1.41.58-.49.89-.93.89-1.28,0-.27-.07-.48-.21-.64-.13-.15-.33-.22-.6-.22-.32,0-.55.11-.74.34-.27.33-.67.65-1.25.98-.47.26-1.01.5-1.68.71-.66.21-1.58.32-2.74.32-1.72,0-3.25-.41-4.55-1.22-1.29-.8-2.31-1.92-3.05-3.33-.73-1.41-1.1-3-1.1-4.75s.38-3.29,1.14-4.67c.76-1.39,1.82-2.51,3.13-3.33,1.32-.82,2.82-1.24,4.46-1.24.89,0,1.7.08,2.4.22.73.15,1.27.31,1.65.49.43.21.77.45,1,.7.2.21.4.4.61.58.16.12.37.18.65.18.24,0,.42-.09.56-.29.17-.22.25-.44.25-.66,0-.5-.3-.96-.93-1.42-.67-.49-1.56-.88-2.65-1.17-1.1-.29-2.33-.44-3.67-.44h0l.0299.0301ZM241.75,339.04c-1.98,0-3.77-.52-5.33-1.54-1.55-1.02-2.79-2.43-3.68-4.2-.88-1.77-1.33-3.78-1.33-5.98s.46-4.26,1.35-5.99c.9-1.73,2.14-3.11,3.68-4.1,1.54-.99,3.31-1.49,5.26-1.49,1.25,0,2.45.22,3.55.67,1.1.44,2.07,1.05,2.88,1.81.42.39.8.81,1.13,1.27v-1.62c0-.44.15-.83.44-1.14.3-.32.68-.48,1.13-.48s.83.16,1.13.48c.29.31.44.7.44,1.14v19.18c0,.42-.16.79-.47,1.1-.65.65-1.66.61-2.23,0-.29-.31-.44-.68-.44-1.09v-1.86c-.36.49-.78.96-1.26,1.4-.8.73-1.74,1.33-2.8,1.78s-2.22.68-3.45.68h0v-.02ZM241.71,316.33c-1.84,0-3.5.47-4.95,1.4s-2.62,2.23-3.48,3.88c-.85,1.64-1.29,3.57-1.29,5.72s.43,4.03,1.27,5.72c.84,1.68,2.01,3.01,3.48,3.98,1.46.96,3.15,1.44,5.01,1.44,1.15,0,2.24-.21,3.23-.63,1-.42,1.88-.99,2.63-1.67.68-.63,1.24-1.32,1.66-2.04v-2.32l1.31-.62v.46c0,.85-.24,1.71-.7,2.58,0,.02-.02.03-.03.05v2.78c0,.27.09.49.28.69.36.38.96.42,1.39,0,.2-.2.3-.42.3-.69v-19.18c0-.29-.09-.53-.28-.74-.37-.39-1.04-.39-1.4,0-.19.2-.28.44-.28.74v2.56c.07.13.14.27.2.41.46.99.69,2.03.69,3.09v.57l-1.41-1.01c.45,1.17.68,2.46.68,3.84,0,1.74-.35,3.34-1.03,4.76-.69,1.42-1.65,2.55-2.85,3.35-1.21.81-2.61,1.23-4.17,1.23s-2.96-.41-4.17-1.23c-1.2-.8-2.16-1.93-2.85-3.35-.68-1.42-1.03-3.02-1.03-4.76s.35-3.36,1.03-4.73c.69-1.38,1.66-2.48,2.88-3.27,1.22-.8,2.62-1.2,4.14-1.2s2.96.42,4.17,1.25c1.2.83,2.16,1.94,2.84,3.32.1.2.19.4.28.61v-2.73c-.4-.71-.91-1.36-1.53-1.93-.76-.71-1.66-1.28-2.7-1.69-1.03-.41-2.15-.62-3.33-.62h0l.01-.0199ZM241.97,318.71c-1.41,0-2.7.37-3.82,1.11-1.13.73-2.03,1.75-2.68,3.04-.64,1.28-.97,2.78-.97,4.47s.33,3.17.97,4.5c.65,1.32,1.54,2.37,2.65,3.12s2.41,1.13,3.84,1.13,2.73-.38,3.84-1.13,2-1.79,2.65-3.12c.64-1.34.97-2.86.97-4.5s-.33-3.08-.97-4.37-1.53-2.33-2.65-3.1c-1.11-.76-2.41-1.14-3.84-1.14h0l.01-.01ZM249.85,332.16v.54c.05-.2.09-.4.11-.6l-.11.05h0v.01ZM249.85,323.13l.28.2c-.04-.48-.14-.95-.28-1.41v1.2h0v.01ZM200.97,339.04c-2.22,0-4.31-.39-6.21-1.17-1.9-.78-3.58-1.89-4.98-3.29-1.4-1.41-2.5-3.08-3.28-4.97-.77-1.9-1.17-3.99-1.17-6.21s.39-4.3,1.17-6.2c.78-1.9,1.88-3.58,3.28-4.98,1.4-1.4,3.08-2.5,4.98-3.28s3.99-1.17,6.21-1.17c1.52,0,3.02.18,4.44.54,1.44.36,2.73.92,3.85,1.64.25.17.43.37.55.6.12.21.19.45.19.7,0,.48-.16.87-.48,1.17-.44.42-.95.53-1.5.37-.15-.05-.28-.1-.41-.17-.95-.53-1.99-.95-3.1-1.26-1.11-.3-2.3-.46-3.54-.46-2.38,0-4.52.55-6.38,1.62-1.85,1.07-3.32,2.57-4.37,4.45-1.05,1.88-1.58,4.04-1.58,6.41s.53,4.55,1.58,6.44c1.05,1.87,2.52,3.37,4.37,4.44,1.85,1.07,4,1.62,6.38,1.62,1.24,0,2.51-.18,3.77-.54,1.11-.31,2.09-.73,2.93-1.24v-7.99h-6.44c-.45,0-.84-.16-1.15-.47-.31-.32-.46-.69-.46-1.1,0-.48.16-.87.47-1.15s.7-.42,1.14-.42h8.14c.45,0,.82.15,1.12.45s.45.68.45,1.12v10.27c0,.28-.07.55-.22.79-.13.22-.3.42-.53.59-1.29.88-2.73,1.57-4.3,2.08-1.57.5-3.23.75-4.93.75h0l.01.02ZM200.97,308.36c-2.14,0-4.16.38-5.99,1.13s-3.44,1.81-4.79,3.15c-1.34,1.35-2.4,2.96-3.15,4.79-.75,1.83-1.12,3.84-1.12,5.97s.38,4.16,1.12,5.99c.75,1.82,1.81,3.43,3.15,4.78,1.35,1.35,2.96,2.41,4.79,3.16,1.83.75,3.84,1.12,5.99,1.12,1.64,0,3.24-.24,4.75-.72,1.51-.49,2.9-1.16,4.13-1.99.15-.12.28-.26.37-.42s.14-.32.14-.5v-10.27c0-.29-.09-.52-.28-.71s-.42-.28-.71-.28h-8.14c-.3,0-.55.09-.75.27-.19.17-.28.41-.28.72,0,.26.1.49.29.69.2.2.43.29.74.29h6.44v-.97l1.67,1.56h-1.08v7.61l.37-.24-.37,1.61-.58-.07v-.25c-.82.46-1.74.83-2.77,1.12-1.31.37-2.63.56-3.93.56-2.49,0-4.73-.57-6.67-1.7s-3.48-2.7-4.59-4.67c-1.1-1.98-1.65-4.24-1.65-6.72s.55-4.73,1.65-6.7c1.1-1.98,2.65-3.55,4.59-4.67,1.94-1.13,4.19-1.7,6.67-1.7,1.3,0,2.54.16,3.7.48,1.15.32,2.24.76,3.22,1.3.09.05.2.09.32.13.31.09.62.05.92-.24.2-.19.29-.42.29-.75,0-.15-.04-.29-.12-.42-.08-.16-.2-.28-.36-.4-1.06-.69-2.3-1.22-3.67-1.56-1.38-.34-2.83-.52-4.3-.52h0l-.01.0401ZM138.15,339.04c-1.57,0-3.1-.31-4.57-.92-1.47-.62-2.79-1.65-3.93-3.07v-.02c-.28-.39-.4-.79-.38-1.18.02-.42.24-.77.67-1.03.25-.22.59-.33.97-.29.36.03.7.21,1.01.51.77.98,1.67,1.77,2.73,2.35,1.05.58,2.32.88,3.76.88.76,0,1.52-.13,2.27-.39.74-.26,1.35-.65,1.81-1.16.47-.5.69-1.12.69-1.9s-.23-1.45-.69-1.93c-.47-.5-1.1-.91-1.87-1.21-.79-.3-1.65-.57-2.55-.8-1-.27-1.95-.57-2.84-.88-.92-.33-1.76-.75-2.48-1.26-.73-.53-1.32-1.17-1.77-1.9-.45-.76-.68-1.69-.68-2.76,0-1.25.35-2.37,1.04-3.32.68-.94,1.61-1.69,2.78-2.22,1.16-.53,2.49-.8,3.94-.8.73,0,1.53.1,2.37.29.85.18,1.69.5,2.51.94.83.44,1.57,1.05,2.22,1.81.3.3.46.66.46,1.06s-.18.77-.52,1.09c-.63.47-1.46.46-1.96-.11-.65-.73-1.43-1.28-2.33-1.66-.9-.39-1.88-.58-2.91-.58-.78,0-1.53.13-2.23.39-.68.25-1.23.63-1.7,1.14-.43.48-.64,1.12-.64,1.92.05.74.31,1.34.79,1.8.49.48,1.17.89,2,1.22.86.34,1.83.65,2.88.93.91.23,1.81.5,2.65.82.85.32,1.62.73,2.29,1.21.67.49,1.21,1.11,1.62,1.87.41.75.62,1.7.62,2.81,0,1.31-.37,2.46-1.11,3.42-.72.94-1.7,1.68-2.91,2.18-1.19.49-2.54.74-4,.74h0l-.0099.0099ZM130.12,334.7c1.07,1.34,2.31,2.31,3.68,2.89,1.39.58,2.85.87,4.34.87,1.38,0,2.65-.23,3.77-.7,1.11-.46,2.01-1.13,2.67-2,.66-.86.99-1.89.99-3.07,0-1.02-.18-1.87-.55-2.54-.36-.68-.85-1.24-1.45-1.67-.62-.46-1.34-.84-2.15-1.14-.82-.31-1.69-.58-2.59-.8-1.08-.29-2.07-.6-2.95-.95-.9-.35-1.64-.81-2.19-1.34-.57-.56-.9-1.3-.96-2.2,0-.97.27-1.75.79-2.34.52-.58,1.17-1.01,1.93-1.3.76-.28,1.58-.42,2.43-.42,1.11,0,2.16.21,3.14.63.97.41,1.83,1.02,2.54,1.81.31.35.8.3,1.15.05.2-.18.31-.4.31-.64s-.1-.46-.3-.67c-.61-.72-1.3-1.28-2.06-1.69-.77-.42-1.56-.71-2.36-.89-.8-.18-1.55-.27-2.24-.27-1.37,0-2.61.25-3.7.74-1.07.49-1.92,1.17-2.54,2.03-.61.85-.93,1.86-.93,2.98,0,.97.2,1.8.6,2.46.4.67.94,1.25,1.6,1.73.68.47,1.47.88,2.34,1.19s1.8.6,2.79.87c.92.23,1.8.51,2.61.82.85.33,1.55.78,2.09,1.35.56.59.85,1.38.85,2.34s-.29,1.7-.85,2.3c-.53.58-1.22,1.02-2.05,1.32-.81.28-1.64.42-2.46.42-1.54,0-2.9-.32-4.04-.96-1.12-.63-2.09-1.46-2.88-2.48-.18-.18-.4-.29-.63-.31-.22-.02-.4.04-.57.18-.38.23-.42.44-.43.58-.01.26.08.53.26.82h0ZM65.11,339.04c-2.06,0-3.96-.51-5.63-1.51-1.67-1.02-3.01-2.42-3.98-4.16-.97-1.76-1.46-3.76-1.46-5.97s.49-4.23,1.46-5.97c.97-1.74,2.3-3.14,3.97-4.15,1.68-1.02,3.57-1.54,5.64-1.54s4.03.52,5.69,1.54c1.66,1.02,2.99,2.41,3.94,4.16.95,1.73,1.44,3.74,1.44,5.97s-.48,4.21-1.44,5.96-2.28,3.15-3.94,4.16c-1.66,1-3.57,1.51-5.69,1.51h0ZM65.11,316.33c-1.96,0-3.75.49-5.33,1.46-1.58.96-2.85,2.29-3.77,3.94-.92,1.65-1.39,3.56-1.39,5.69s.47,4.01,1.39,5.68c.92,1.66,2.18,2.98,3.77,3.94,1.58.94,3.38,1.42,5.33,1.42s3.82-.48,5.38-1.42c1.57-.96,2.83-2.28,3.73-3.94.91-1.66,1.37-3.57,1.37-5.68s-.46-4.04-1.37-5.69-2.16-2.98-3.74-3.94c-1.56-.97-3.37-1.46-5.38-1.46h.01ZM90.08,338.92c-2.73,0-4.94-.77-6.57-2.29-1.63-1.53-2.46-3.77-2.46-6.66v-12.02c0-.41.14-.78.43-1.09.3-.32.68-.48,1.13-.48s.84.16,1.13.48c.29.31.44.68.44,1.09v12.02c0,1.96.52,3.46,1.56,4.46,1.03,1,2.49,1.51,4.33,1.51s3.35-.51,4.4-1.51c1.04-1,1.57-2.5,1.57-4.46v-12.02c0-.41.14-.78.42-1.09.28-.32.67-.48,1.16-.48.46,0,.84.16,1.13.48.29.31.44.68.44,1.09v12.02c0,2.89-.84,5.13-2.48,6.66-1.64,1.52-3.87,2.29-6.63,2.29h0ZM82.62,316.96c-.29,0-.52.09-.7.29s-.28.43-.28.69v12.02c0,2.72.76,4.81,2.27,6.23,1.51,1.42,3.59,2.14,6.17,2.14s4.71-.72,6.23-2.14c1.52-1.41,2.3-3.51,2.3-6.23v-12.02c0-.26-.09-.49-.28-.69-.18-.2-.41-.29-.7-.29-.32,0-.55.09-.72.28-.18.2-.27.43-.27.7v12.02c0,2.12-.59,3.76-1.75,4.88-1.16,1.11-2.77,1.68-4.8,1.68s-3.59-.56-4.74-1.68-1.73-2.76-1.73-4.88v-12.02c0-.26-.09-.49-.28-.69-.18-.2-.41-.29-.7-.29h-.02ZM310.03,338.62c-.45,0-.83-.16-1.13-.48-.29-.31-.44-.68-.44-1.09v-19.6c0-.42.15-.79.44-1.1.3-.32.68-.48,1.13-.48s.84.16,1.13.48c.29.31.44.67.44,1.09v19.6c0,.42-.16.79-.47,1.1s-.68.47-1.1.47h0v.01ZM310.03,316.45c-.29,0-.51.1-.7.29-.19.2-.28.43-.28.69v19.6c0,.27.09.49.28.69.36.38.97.42,1.39,0h0c.2-.2.3-.43.3-.69v-19.6c0-.27-.09-.49-.28-.69s-.42-.3-.71-.3h0v.01ZM300.87,338.62c-.48,0-.87-.16-1.16-.48-.27-.31-.41-.67-.41-1.09v-12.06c0-1.12-.17-2.14-.51-3.05-.34-.89-.87-1.58-1.62-2.1-.74-.52-1.75-.78-3.02-.78-1.14,0-2.24.27-3.26.8-1.02.53-1.85,1.26-2.47,2.15-.62.88-.93,1.89-.93,2.98v12.06c0,.42-.16.79-.47,1.1-.3.31-.67.47-1.1.47-.48,0-.87-.16-1.16-.49-.27-.31-.41-.67-.41-1.09v-28.98c0-.42.14-.78.43-1.1.3-.32.68-.48,1.13-.48s.84.17,1.13.48.44.68.44,1.1v11.58c.38-.48.82-.93,1.31-1.34.82-.69,1.74-1.24,2.73-1.63,1.01-.39,2.03-.59,3.05-.59,1.84,0,3.36.41,4.51,1.21,1.15.79,2.01,1.88,2.56,3.24.54,1.34.81,2.83.81,4.45v12.06c0,.42-.16.79-.47,1.1s-.68.47-1.1.47h0l-.01.01ZM294.14,318.47c1.39,0,2.52.3,3.36.88.84.58,1.46,1.38,1.84,2.38.37.97.55,2.07.55,3.26v12.06c0,.27.09.5.27.7.17.19.41.29.72.29.26,0,.49-.1.69-.3.21-.2.3-.43.3-.69v-12.06c0-1.54-.26-2.96-.77-4.23-.5-1.25-1.29-2.25-2.35-2.98-1.05-.73-2.46-1.1-4.17-1.1-.95,0-1.9.19-2.84.55-.92.37-1.79.88-2.56,1.53-.66.56-1.23,1.2-1.68,1.89v1.32l-1.63,2.49.07-1.1c.06-.92.35-1.83.87-2.7.03-.06.07-.11.1-.17v-12.4c0-.27-.09-.49-.28-.7-.36-.39-1.03-.39-1.41,0-.18.2-.27.43-.27.7v28.98c0,.27.08.5.26.7.17.19.4.29.72.29.27,0,.49-.1.68-.3.2-.2.3-.43.3-.69v-12.06c0-1.22.35-2.33,1.03-3.32.68-.97,1.58-1.75,2.68-2.33,1.11-.57,2.3-.87,3.53-.87h0l-.0099-.0201ZM286.89,321.73s-.04.09-.05.14l.05-.14ZM217.84,338.62c-.48,0-.87-.16-1.16-.48-.27-.31-.41-.68-.41-1.09v-19.09c0-.41.15-.78.43-1.09.3-.32.68-.48,1.13-.48s.84.16,1.13.48c.29.31.44.68.44,1.09v2.5c.36-.65.78-1.26,1.27-1.83.73-.85,1.62-1.54,2.63-2.07,1.02-.53,2.17-.8,3.44-.8.54,0,1.08.12,1.61.35.59.25.9.7.9,1.31,0,.5-.14.9-.43,1.18-.51.51-1.23.55-1.98.19-.26-.13-.62-.19-1.05-.19-.74,0-1.49.22-2.23.67-.76.44-1.47,1.06-2.1,1.83-.63.76-1.14,1.63-1.52,2.59-.36.94-.55,1.9-.55,2.85v10.53c0,.42-.16.79-.47,1.1-.3.31-.67.47-1.1.47h0l.02-.02ZM217.84,316.96c-.29,0-.52.09-.7.29-.19.2-.28.43-.28.69v19.09c0,.27.09.5.26.7.32.35.98.42,1.4-.01.21-.2.3-.43.3-.69v-10.53c0-.62.07-1.24.22-1.85l-.88.17.03-.39c.08-.92.29-1.84.64-2.74v-3.76c0-.26-.09-.49-.28-.69-.18-.2-.41-.29-.7-.29h0l-.01.01ZM218.83,324.04v.07h0v-.07h0ZM219.42,321.82v1.65-.01c.4-1.01.94-1.93,1.61-2.74.68-.83,1.43-1.49,2.25-1.96.84-.49,1.69-.75,2.53-.75.52,0,.96.08,1.3.25.52.25.97.26,1.31-.08.17-.17.25-.43.25-.77,0-.37-.17-.61-.55-.77-.45-.2-.91-.3-1.37-.3-1.17,0-2.24.25-3.17.74-.95.49-1.77,1.14-2.45,1.93-.68.8-1.23,1.68-1.64,2.63-.03.06-.05.13-.08.19h0l.01-.01ZM167.35,338.62c-.48,0-.87-.16-1.16-.48-.28-.31-.42-.67-.42-1.09v-12.06c0-1.13-.17-2.15-.51-3.05-.33-.88-.87-1.58-1.62-2.1-.74-.52-1.75-.78-3.03-.78-1.14,0-2.24.27-3.26.8-1.01.53-1.85,1.25-2.48,2.15-.61.88-.92,1.88-.92,2.98v12.06c0,.42-.16.79-.47,1.1-.3.31-.67.47-1.1.47-.48,0-.87-.16-1.16-.48-.27-.31-.41-.68-.41-1.09v-28.98c0-.42.15-.79.43-1.1.3-.32.68-.48,1.13-.48s.84.16,1.13.48c.29.31.44.68.44,1.1v11.58c.38-.48.82-.92,1.31-1.34.82-.69,1.73-1.24,2.73-1.63s2.03-.59,3.05-.59c1.84,0,3.36.41,4.51,1.21,1.15.79,2.01,1.88,2.56,3.24.54,1.33.81,2.83.81,4.45v12.06c0,.42-.16.8-.47,1.1-.31.31-.68.47-1.1.47h.01ZM160.61,318.47c1.4,0,2.53.3,3.36.88.85.59,1.46,1.39,1.83,2.38.36.96.55,2.06.55,3.25v12.06c0,.27.09.5.27.7.18.2.41.29.72.29.26,0,.48-.1.69-.3.2-.2.3-.42.3-.69v-12.06c0-1.55-.26-2.97-.77-4.23-.5-1.25-1.29-2.25-2.35-2.98-1.05-.73-2.45-1.1-4.17-1.1-.95,0-1.9.19-2.83.55-.93.37-1.79.89-2.56,1.53-.67.57-1.24,1.2-1.69,1.89v1.32l-1.64,2.49.07-1.11c.06-.92.36-1.83.88-2.7.03-.06.07-.11.1-.17v-12.4c0-.27-.09-.49-.28-.7-.36-.39-1.03-.39-1.41,0-.18.2-.27.43-.27.7v28.98c0,.27.09.5.26.7.17.19.41.29.72.29.27,0,.49-.1.68-.3.21-.2.3-.43.3-.69v-12.06c0-1.22.35-2.34,1.03-3.32.69-.97,1.59-1.76,2.69-2.33,1.1-.57,2.29-.87,3.53-.87h-.01ZM153.37,321.73s-.04.09-.06.14l.06-.14ZM123.19,338.62c-.45,0-.83-.16-1.13-.48-.29-.31-.44-.68-.44-1.09v-19.6c0-.42.15-.79.44-1.1.3-.32.68-.48,1.13-.48s.84.16,1.13.48c.29.31.44.67.44,1.09v19.6c0,.42-.16.79-.47,1.1s-.68.47-1.1.47h0v.01ZM123.19,316.45c-.29,0-.51.1-.7.29-.19.2-.28.43-.28.69v19.6c0,.27.09.49.28.69.36.38.97.42,1.39,0h0c.2-.2.3-.43.3-.69v-19.6c0-.27-.09-.49-.28-.69s-.42-.3-.71-.3h0v.01ZM106.87,338.62c-.48,0-.87-.16-1.16-.48-.27-.31-.41-.68-.41-1.09v-19.09c0-.41.15-.78.43-1.09.3-.32.68-.48,1.13-.48s.84.16,1.13.48c.29.31.44.68.44,1.09v2.5c.36-.65.78-1.26,1.27-1.83.73-.85,1.61-1.54,2.63-2.07s2.17-.8,3.44-.8c.54,0,1.08.12,1.61.35.59.25.9.7.9,1.31,0,.5-.14.9-.43,1.18-.51.51-1.23.55-1.98.19-.26-.13-.62-.19-1.05-.19-.74,0-1.49.22-2.23.67-.76.44-1.47,1.06-2.1,1.83-.63.76-1.14,1.63-1.52,2.59-.36.94-.55,1.9-.55,2.85v10.53c0,.42-.16.79-.47,1.1-.3.31-.67.47-1.1.47h0l.02-.02ZM106.87,316.96c-.29,0-.52.09-.7.29-.19.2-.28.43-.28.69v19.09c0,.27.09.5.26.7.17.19.41.29.72.29.27,0,.49-.1.68-.3.21-.2.3-.43.3-.69v-10.53c0-.62.07-1.24.22-1.85l-.88.17.03-.39c.08-.92.29-1.84.64-2.74v-3.76c0-.26-.09-.49-.28-.69-.18-.2-.41-.29-.7-.29h0l-.01.01ZM107.86,324.04v.07h0v-.07h0ZM108.44,321.82v1.65-.01c.4-1.01.94-1.93,1.61-2.74.68-.83,1.43-1.49,2.26-1.96.83-.49,1.69-.75,2.53-.75.52,0,.96.08,1.3.25.52.24.97.26,1.31-.08.17-.17.25-.43.25-.77,0-.37-.17-.61-.55-.77-.45-.2-.91-.3-1.37-.3-1.17,0-2.24.25-3.17.74-.95.49-1.77,1.14-2.45,1.93-.68.8-1.23,1.68-1.64,2.63-.03.06-.05.13-.08.19h0v-.01ZM47.34,338.62c-.45,0-.83-.16-1.13-.48-.29-.31-.44-.68-.44-1.1v-28.98c0-.42.16-.79.47-1.11.64-.64,1.65-.61,2.23,0,.3.32.45.69.45,1.1v28.98c0,.42-.16.79-.47,1.1s-.68.47-1.1.47h0l-.01.02ZM47.34,307.08c-.26,0-.49.1-.69.3-.2.2-.3.43-.3.69v28.98c0,.27.09.49.28.69.36.38.97.42,1.39,0,.2-.2.3-.42.3-.69v-28.98c0-.26-.09-.49-.29-.7-.19-.19-.42-.29-.7-.29h.01ZM23.64,338.62c-.48,0-.87-.16-1.17-.48-.29-.31-.44-.68-.44-1.09v-27.27c0-.42.16-.79.47-1.1.32-.31.69-.47,1.1-.47h15.52c.44,0,.82.15,1.12.45.3.29.45.67.45,1.12,0,.42-.15.78-.45,1.08-.3.29-.68.44-1.12.44h-13.9v10.12h11.98c.45,0,.82.15,1.12.45.29.29.45.65.45,1.07,0,.46-.15.83-.45,1.12-.29.28-.67.41-1.11.41h-11.98v12.58c0,.42-.15.79-.45,1.1-.3.31-.67.48-1.12.48h0l-.02-.01ZM23.6,308.79c-.26,0-.48.1-.69.3-.2.2-.3.43-.3.69v27.27c0,.27.09.49.28.69s.43.3.75.3c.29,0,.51-.1.7-.29.19-.2.29-.43.29-.69v-12.58h-.66l1.21-1.37-.98-1.69h.44v-10.12h-.46l1.04-1.45v.87h13.9c.29,0,.52-.09.71-.27.18-.18.27-.4.27-.66,0-.29-.09-.53-.27-.7-.19-.19-.43-.28-.71-.28h-15.52v-.02ZM25.21,323.88h11.98c.29,0,.52-.08.71-.25.18-.17.27-.4.27-.69,0-.26-.09-.47-.27-.65-.19-.19-.42-.28-.7-.28h-11.98v1.88h0l-.01-.01ZM65.11,336.66c-1.59,0-3.05-.41-4.34-1.22-1.29-.8-2.32-1.91-3.07-3.28-.74-1.38-1.12-2.97-1.12-4.75s.38-3.37,1.12-4.76c.75-1.39,1.78-2.5,3.07-3.31s2.75-1.22,4.34-1.22,3.12.41,4.39,1.22c1.28.8,2.29,1.91,3.02,3.31.73,1.39,1.11,2.99,1.11,4.76s-.37,3.37-1.11,4.75c-.73,1.38-1.75,2.48-3.02,3.28-1.27.81-2.75,1.22-4.39,1.22h0ZM65.11,318.71c-1.47,0-2.83.38-4.03,1.13-1.2.75-2.16,1.78-2.86,3.09-.69,1.3-1.05,2.81-1.05,4.48s.35,3.18,1.05,4.47c.7,1.28,1.66,2.31,2.86,3.06s2.55,1.13,4.03,1.13,2.9-.38,4.08-1.13c1.19-.75,2.14-1.78,2.82-3.06.69-1.29,1.04-2.8,1.04-4.47s-.35-3.18-1.04-4.48c-.68-1.3-1.63-2.34-2.82-3.08-1.18-.75-2.55-1.13-4.08-1.13h0v-.01ZM268.95,336.53c-1.58,0-3-.39-4.21-1.17-1.2-.78-2.16-1.88-2.85-3.25-.68-1.38-1.03-2.94-1.03-4.65s.35-3.3,1.03-4.63c.69-1.34,1.65-2.41,2.85-3.18,1.21-.78,2.63-1.18,4.21-1.18s2.96.4,4.15,1.18c1.19.77,2.14,1.85,2.84,3.2.71,1.33,1.06,2.89,1.06,4.61s-.36,3.27-1.06,4.65c-.7,1.37-1.66,2.46-2.85,3.24s-2.58,1.17-4.15,1.17h0l.01.01ZM268.95,319.05c-1.47,0-2.78.37-3.89,1.09-1.11.72-2,1.71-2.64,2.96s-.97,2.72-.97,4.36.33,3.09.97,4.39c.64,1.28,1.53,2.29,2.64,3.02,1.11.71,2.42,1.08,3.89,1.08s2.73-.36,3.82-1.08c1.1-.73,1.99-1.74,2.65-3.02.66-1.29,1-2.77,1-4.38s-.34-3.08-1-4.34-1.54-2.27-2.65-2.98c-1.09-.72-2.38-1.09-3.82-1.09h0v-.01ZM310.03,313.6c-.67,0-1.18-.16-1.54-.48h0c-.36-.33-.55-.79-.55-1.39v-.43c0-.6.2-1.07.59-1.4.38-.31.9-.47,1.53-.47s1.1.16,1.46.48.54.79.54,1.39v.43c0,.6-.18,1.07-.55,1.39-.35.32-.85.48-1.5.48h.02ZM310.07,310.01c-.5,0-.88.11-1.16.34-.26.21-.38.52-.38.95v.43c0,.43.12.75.35.96h0c.24.22.63.33,1.14.33s.86-.11,1.1-.33c.24-.21.35-.53.35-.96v-.43c0-.43-.12-.75-.35-.96-.24-.22-.6-.33-1.06-.33h.01ZM123.19,313.6c-.67,0-1.18-.16-1.54-.48h0c-.36-.33-.55-.79-.55-1.39v-.43c0-.6.2-1.07.59-1.4.38-.31.9-.47,1.53-.47s1.1.16,1.45.48c.36.32.55.79.55,1.39v.43c0,.6-.18,1.07-.55,1.39-.35.32-.86.48-1.5.48h.02ZM123.23,310.01c-.5,0-.88.11-1.16.34-.26.21-.38.52-.38.95v.43c0,.43.12.75.35.96h0c.24.22.63.33,1.14.33s.86-.11,1.1-.33c.24-.21.35-.53.35-.96v-.43c0-.43-.12-.75-.35-.96-.24-.22-.6-.33-1.06-.33h.01Z"/>
  <path class="cls-1" d="M23.64,338.32c-.4,0-.72-.12-.97-.38-.24-.26-.36-.56-.36-.91v-27.28c0-.33.13-.63.39-.89s.55-.39.89-.39h15.52c.38,0,.68.12.92.38.24.24.36.54.36.91,0,.34-.12.64-.36.88s-.55.36-.92.36h-14.36l.17-.25v11.34l-.22-.39h12.5c.36,0,.66.12.91.36.24.24.36.53.36.88,0,.38-.12.68-.36.91-.24.22-.54.33-.91.33h-12.58l.3-.34v13.22c0,.34-.12.65-.38.91-.24.25-.54.38-.91.38h0l.01-.0299Z"/>
  <path class="cls-1" d="M48.62,337.04c0,.34-.13.65-.39.91-.26.25-.56.38-.89.38-.38,0-.68-.12-.92-.38-.24-.26-.36-.56-.36-.91v-28.98c0-.34.12-.64.38-.89.26-.26.56-.39.91-.39.36,0,.66.13.91.39.25.25.38.55.38.89v28.98h-.02Z"/>
  <path class="cls-1" d="M75.89,327.42c0,2.16-.47,4.09-1.41,5.81s-2.22,3.07-3.84,4.05c-1.62.98-3.46,1.47-5.53,1.47s-3.85-.49-5.48-1.47c-1.64-.98-2.93-2.33-3.88-4.05s-1.42-3.66-1.42-5.81.47-4.13,1.42-5.84c.95-1.71,2.24-3.05,3.88-4.05,1.63-1,3.46-1.5,5.48-1.5s3.91.5,5.53,1.5c1.62.99,2.91,2.34,3.84,4.05.94,1.71,1.41,3.66,1.41,5.84ZM73.33,327.42c0-1.74-.36-3.28-1.06-4.62-.71-1.35-1.68-2.42-2.92-3.2-1.23-.78-2.64-1.17-4.23-1.17s-2.93.39-4.19,1.17c-1.25.78-2.24,1.85-2.97,3.2-.72,1.34-1.08,2.89-1.08,4.62s.36,3.26,1.08,4.59c.73,1.34,1.72,2.4,2.97,3.19,1.26.78,2.66,1.17,4.19,1.17s3-.39,4.23-1.17c1.24-.79,2.21-1.85,2.92-3.19.71-1.33,1.06-2.86,1.06-4.59Z"/>
  <path class="cls-1" d="M97.63,316.67c.36,0,.66.13.91.39.24.25.36.55.36.89v12.02c0,2.81-.8,4.96-2.39,6.44s-3.73,2.22-6.42,2.22-4.8-.74-6.38-2.22c-1.57-1.48-2.36-3.62-2.36-6.44v-12.02c0-.34.12-.64.36-.89.24-.26.54-.39.91-.39s.68.13.92.39c.24.25.36.55.36.89v12.02c0,2.05.55,3.61,1.64,4.67s2.61,1.59,4.55,1.59,3.49-.53,4.59-1.59c1.11-1.06,1.67-2.62,1.67-4.67v-12.02c0-.34.11-.64.33-.89.23-.26.55-.39.95-.39Z"/>
  <path class="cls-1" d="M106.87,338.32c-.4,0-.71-.12-.94-.38-.22-.26-.33-.56-.33-.91v-19.09c0-.34.12-.64.36-.89.24-.26.54-.39.91-.39s.68.13.92.39c.24.25.36.55.36.89v6.39l-.64.12c.08-.99.33-1.97.75-2.95.41-.98.98-1.88,1.69-2.7.71-.83,1.55-1.5,2.53-2.02.98-.51,2.08-.77,3.31-.77.51,0,1,.11,1.48.33.48.21.72.56.72,1.05,0,.42-.12.74-.34.97-.22.23-.48.34-.8.34-.26,0-.54-.07-.84-.2-.29-.14-.68-.22-1.17-.22-.79,0-1.59.23-2.39.7-.79.47-1.52,1.11-2.17,1.91-.65.79-1.16,1.68-1.55,2.66s-.58,1.96-.58,2.95v10.53c0,.34-.13.65-.39.91-.25.25-.55.38-.89.38h0Z"/>
  <path class="cls-1" d="M124.48,337.04c0,.34-.13.65-.39.91-.25.25-.55.38-.89.38-.38,0-.68-.12-.92-.38s-.36-.56-.36-.91v-19.61c0-.33.12-.63.36-.89s.55-.39.92-.39.66.13.91.39.38.56.38.89v19.61h-.01ZM123.2,313.31c-.59,0-1.04-.13-1.34-.41-.3-.27-.45-.66-.45-1.17v-.42c0-.51.16-.9.48-1.17.33-.27.79-.41,1.36-.41.54,0,.96.14,1.25.41.3.27.45.66.45,1.17v.42c0,.51-.15.9-.45,1.17-.29.27-.73.41-1.3.41Z"/>
  <path class="cls-1" d="M129.88,334.87c-.22-.34-.32-.68-.31-1,0-.32.19-.59.53-.8.23-.2.49-.28.78-.25.3.03.58.17.84.42.76,1,1.69,1.81,2.78,2.42,1.09.61,2.39.91,3.91.91.79,0,1.58-.13,2.36-.41.78-.27,1.43-.68,1.94-1.23.52-.55.78-1.25.78-2.11s-.26-1.58-.78-2.12c-.51-.54-1.17-.97-1.98-1.28-.8-.31-1.66-.58-2.56-.81-.97-.26-1.91-.55-2.83-.88-.91-.32-1.71-.73-2.41-1.23-.69-.5-1.25-1.1-1.67-1.81-.43-.71-.64-1.57-.64-2.59,0-1.2.32-2.25.97-3.16.66-.91,1.55-1.63,2.67-2.14s2.39-.77,3.81-.77c.71,0,1.47.09,2.3.28s1.64.5,2.44.92c.79.43,1.5,1.01,2.12,1.73.26.26.39.56.39.89s-.14.61-.42.86c-.23.18-.5.27-.8.27s-.54-.11-.75-.34c-.68-.77-1.48-1.35-2.42-1.75-.94-.39-1.95-.59-3.03-.59-.82,0-1.6.14-2.33.41-.72.27-1.32.68-1.81,1.22-.48.53-.72,1.24-.72,2.12.06.82.35,1.49.88,2s1.23.94,2.09,1.28,1.84.66,2.92.94c.91.23,1.77.5,2.61.81s1.58.7,2.22,1.17,1.16,1.06,1.53,1.77c.38.71.58,1.61.58,2.69,0,1.25-.35,2.34-1.05,3.25-.69.91-1.62,1.6-2.78,2.08-1.17.48-2.46.72-3.88.72-1.54,0-3.03-.3-4.47-.89-1.43-.59-2.7-1.59-3.81-2.98h0v-.02Z"/>
  <path class="cls-1" d="M161.04,316.37c1.79,0,3.24.39,4.34,1.16,1.11.76,1.93,1.8,2.45,3.11.53,1.3.8,2.75.8,4.34v12.06c0,.34-.13.65-.39.91-.25.25-.55.38-.89.38-.4,0-.71-.12-.94-.38s-.34-.56-.34-.91v-12.06c0-1.16-.18-2.22-.53-3.16-.36-.94-.93-1.68-1.73-2.23-.79-.55-1.86-.83-3.19-.83-1.2,0-2.33.28-3.39.83s-1.92,1.3-2.58,2.23-.98,1.99-.98,3.16v12.06c0,.34-.13.65-.39.91-.25.25-.55.38-.89.38-.4,0-.71-.12-.94-.38-.22-.26-.33-.56-.33-.91v-28.98c0-.34.12-.64.36-.89.24-.26.54-.39.91-.39s.68.13.92.39c.24.25.36.55.36.89v13.81l-.98,1.48c.06-.88.34-1.73.83-2.56.5-.84,1.14-1.6,1.94-2.27.8-.66,1.69-1.19,2.66-1.58.97-.38,1.95-.58,2.94-.58h0l-.02.01Z"/>
  <path class="cls-1" d="M200.97,338.75c-2.19,0-4.22-.38-6.09-1.14-1.88-.77-3.51-1.84-4.89-3.22s-2.45-3.02-3.22-4.89c-.76-1.88-1.14-3.91-1.14-6.09s.38-4.22,1.14-6.09c.77-1.88,1.84-3.5,3.22-4.88s3.02-2.46,4.89-3.22c1.88-.77,3.91-1.16,6.09-1.16,1.51,0,2.97.18,4.38.53,1.41.36,2.66.89,3.77,1.61.2.14.34.3.44.48.1.19.16.38.16.58,0,.4-.13.71-.39.95-.25.24-.52.36-.8.36-.15,0-.28-.02-.41-.06-.12-.04-.25-.09-.36-.14-.97-.54-2.02-.97-3.16-1.28s-2.34-.47-3.62-.47c-2.45,0-4.62.56-6.53,1.67-1.9,1.11-3.39,2.62-4.47,4.56-1.07,1.93-1.61,4.11-1.61,6.55s.54,4.64,1.61,6.58c1.08,1.93,2.57,3.45,4.47,4.56,1.91,1.11,4.08,1.66,6.53,1.66,1.28,0,2.57-.18,3.86-.55,1.29-.38,2.41-.88,3.34-1.5l-.22.89v-9.8l.64.59h-7.38c-.37,0-.68-.12-.94-.38-.25-.26-.38-.56-.38-.91,0-.39.12-.71.38-.94.26-.23.57-.34.94-.34h8.14c.38,0,.68.12.92.36s.36.55.36.92v10.27c0,.23-.06.45-.17.64-.12.2-.27.37-.47.52-1.25.86-2.65,1.53-4.2,2.03-1.54.49-3.15.73-4.83.73h0v.0201Z"/>
  <path class="cls-1" d="M217.84,338.32c-.4,0-.71-.12-.94-.38-.22-.26-.33-.56-.33-.91v-19.09c0-.34.12-.64.36-.89.24-.26.54-.39.91-.39s.68.13.92.39c.24.25.36.55.36.89v6.39l-.64.12c.08-.99.33-1.97.75-2.95.41-.98.98-1.88,1.69-2.7.71-.83,1.55-1.5,2.53-2.02.98-.51,2.08-.77,3.31-.77.51,0,1,.11,1.48.33.48.21.72.56.72,1.05,0,.42-.12.74-.34.97s-.48.34-.8.34c-.26,0-.54-.07-.84-.2-.29-.14-.68-.22-1.17-.22-.79,0-1.59.23-2.39.7-.79.47-1.52,1.11-2.17,1.91-.65.79-1.16,1.68-1.55,2.66s-.58,1.96-.58,2.95v10.53c0,.34-.13.65-.39.91-.25.25-.55.38-.89.38h0Z"/>
  <path class="cls-1" d="M250.85,316.54c.36,0,.66.13.91.39.24.25.36.56.36.94v19.17c0,.34-.13.65-.39.91-.25.25-.54.38-.88.38-.38,0-.68-.12-.92-.38s-.36-.56-.36-.91v-5.06l.72-.34c0,.79-.22,1.6-.66,2.42s-1.04,1.59-1.81,2.31c-.77.71-1.68,1.28-2.72,1.72-1.03.44-2.15.66-3.34.66-1.93,0-3.65-.49-5.17-1.48-1.52-1-2.71-2.36-3.58-4.09s-1.3-3.68-1.3-5.84.44-4.17,1.31-5.86c.88-1.69,2.08-3.02,3.58-3.98,1.51-.97,3.22-1.45,5.12-1.45,1.22,0,2.36.21,3.42.64,1.07.43,2,1.01,2.8,1.75.79.74,1.41,1.59,1.84,2.55.45.95.67,1.93.67,2.95l-.89-.64v-5.41c0-.38.12-.69.36-.94.24-.26.55-.39.92-.39h0l.01-.02ZM241.97,336.37c1.51,0,2.84-.39,4-1.17,1.16-.79,2.08-1.88,2.75-3.25.68-1.38,1.02-2.91,1.02-4.62s-.34-3.18-1.02-4.52c-.67-1.33-1.59-2.39-2.75-3.19s-2.49-1.2-4-1.2-2.81.39-3.98,1.16c-1.18.76-2.1,1.81-2.77,3.16-.67,1.34-1,2.87-1,4.59s.33,3.25,1,4.62c.66,1.38,1.58,2.46,2.75,3.25,1.16.78,2.5,1.17,4,1.17Z"/>
  <path class="cls-1" d="M269.16,316.37c1.94,0,3.65.48,5.14,1.44,1.49.95,2.67,2.26,3.55,3.92.88,1.66,1.33,3.56,1.33,5.72s-.45,4.09-1.33,5.77c-.88,1.68-2.07,3-3.58,3.97-1.5.96-3.19,1.44-5.06,1.44-.99,0-1.93-.15-2.83-.44-.9-.3-1.71-.71-2.45-1.22-.74-.51-1.4-1.11-1.97-1.81-.56-.7-1.02-1.46-1.36-2.28l.77-.56v13.27c0,.33-.12.63-.36.89s-.55.39-.92.39-.67-.13-.91-.39-.36-.56-.36-.89v-27.8c0-.36.11-.67.33-.92.23-.26.54-.39.94-.39.38,0,.68.13.92.39.24.25.36.56.36.92v4.61l-.59-.34c.28-.88.7-1.67,1.25-2.36.56-.7,1.21-1.3,1.95-1.8.74-.5,1.55-.88,2.42-1.12.88-.26,1.8-.39,2.77-.39h0l-.01-.02ZM268.95,318.76c-1.54,0-2.9.38-4.06,1.12-1.16.75-2.07,1.78-2.73,3.08-.67,1.29-1,2.79-1,4.48s.33,3.19,1,4.53c.66,1.34,1.58,2.38,2.73,3.12,1.16.75,2.52,1.12,4.06,1.12s2.82-.38,3.97-1.12c1.16-.75,2.07-1.79,2.75-3.12.69-1.34,1.03-2.85,1.03-4.53s-.34-3.16-1.03-4.47c-.68-1.31-1.59-2.34-2.75-3.09-1.15-.75-2.47-1.12-3.97-1.12h0Z"/>
  <path class="cls-1" d="M294.56,316.37c1.79,0,3.24.39,4.34,1.16,1.11.76,1.93,1.8,2.45,3.11.53,1.3.8,2.75.8,4.34v12.06c0,.34-.13.65-.39.91s-.55.38-.89.38c-.4,0-.71-.12-.94-.38s-.34-.56-.34-.91v-12.06c0-1.16-.18-2.22-.53-3.16-.36-.94-.93-1.68-1.73-2.23-.79-.55-1.86-.83-3.19-.83-1.2,0-2.33.28-3.39.83-1.06.55-1.92,1.3-2.58,2.23s-.98,1.99-.98,3.16v12.06c0,.34-.13.65-.39.91s-.55.38-.89.38c-.4,0-.71-.12-.94-.38-.22-.26-.33-.56-.33-.91v-28.98c0-.34.12-.64.36-.89.24-.26.54-.39.91-.39s.68.13.92.39c.24.25.36.55.36.89v13.81l-.98,1.48c.06-.88.34-1.73.83-2.56.5-.84,1.14-1.6,1.94-2.27.8-.66,1.69-1.19,2.66-1.58.97-.38,1.95-.58,2.94-.58h0l-.0199.01Z"/>
  <path class="cls-1" d="M311.31,337.04c0,.34-.13.65-.39.91s-.55.38-.89.38c-.38,0-.68-.12-.92-.38-.24-.26-.36-.56-.36-.91v-19.61c0-.33.12-.63.36-.89s.55-.39.92-.39.66.13.91.39.38.56.38.89v19.61h-.01ZM310.03,313.31c-.59,0-1.04-.13-1.34-.41-.3-.27-.45-.66-.45-1.17v-.42c0-.51.16-.9.48-1.17.33-.27.79-.41,1.36-.41.54,0,.96.14,1.25.41.3.27.45.66.45,1.17v.42c0,.51-.15.9-.45,1.17-.29.27-.73.41-1.3.41Z"/>
  <path class="cls-1" d="M327.54,316.03c1.36,0,2.61.15,3.75.45,1.13.3,2.05.71,2.75,1.22s1.05,1.06,1.05,1.66c0,.28-.1.56-.3.83-.2.27-.47.41-.81.41s-.61-.08-.83-.25c-.21-.18-.42-.38-.64-.59-.21-.23-.52-.44-.92-.64-.37-.18-.89-.33-1.58-.47-.68-.14-1.46-.22-2.34-.22-1.59,0-3.02.4-4.3,1.2-1.28.79-2.29,1.87-3.03,3.22-.74,1.34-1.11,2.86-1.11,4.53s.35,3.25,1.06,4.61c.72,1.36,1.7,2.43,2.95,3.22,1.25.78,2.71,1.17,4.39,1.17,1.13,0,2.02-.1,2.64-.3.62-.21,1.16-.44,1.62-.69.53-.31.91-.62,1.16-.92.25-.3.57-.45.97-.45.36,0,.64.11.83.33.19.21.28.48.28.83,0,.46-.34.96-1,1.52-.67.55-1.59,1.04-2.75,1.45-1.17.41-2.51.61-4.02.61-2.12,0-3.99-.49-5.59-1.48-1.61-1-2.86-2.36-3.75-4.08-.9-1.72-1.34-3.66-1.34-5.81s.45-3.96,1.36-5.67c.91-1.71,2.18-3.08,3.81-4.11,1.63-1.04,3.53-1.56,5.69-1.56h0v-.02Z"/>
  <path class="cls-1" d="M338.79,334.87c-.22-.34-.32-.68-.31-1,0-.32.19-.59.53-.8.23-.2.49-.28.78-.25.3.03.58.17.84.42.76,1,1.69,1.81,2.78,2.42,1.09.61,2.39.91,3.91.91.79,0,1.58-.13,2.36-.41.78-.27,1.43-.68,1.94-1.23.52-.55.78-1.25.78-2.11s-.26-1.58-.78-2.12c-.51-.54-1.17-.97-1.98-1.28-.8-.31-1.66-.58-2.56-.81-.97-.26-1.91-.55-2.83-.88-.91-.32-1.71-.73-2.41-1.23-.69-.5-1.25-1.1-1.67-1.81-.43-.71-.64-1.57-.64-2.59,0-1.2.32-2.25.97-3.16.66-.91,1.55-1.63,2.67-2.14,1.12-.51,2.39-.77,3.81-.77.71,0,1.47.09,2.3.28s1.64.5,2.44.92c.79.43,1.5,1.01,2.12,1.73.26.26.39.56.39.89s-.14.61-.42.86c-.23.18-.5.27-.8.27s-.54-.11-.75-.34c-.68-.77-1.48-1.35-2.42-1.75-.94-.39-1.95-.59-3.03-.59-.82,0-1.6.14-2.33.41-.72.27-1.32.68-1.81,1.22-.48.53-.72,1.24-.72,2.12.06.82.35,1.49.88,2s1.23.94,2.09,1.28,1.84.66,2.92.94c.91.23,1.77.5,2.61.81s1.58.7,2.22,1.17,1.16,1.06,1.53,1.77c.38.71.58,1.61.58,2.69,0,1.25-.35,2.34-1.05,3.25-.69.91-1.62,1.6-2.78,2.08-1.17.48-2.46.72-3.88.72-1.54,0-3.03-.3-4.47-.89-1.43-.59-2.7-1.59-3.81-2.98h0v-.02Z"/>
  <g>
    <path class="cls-1" d="M187.2,162.04c.54.02,1.06.29,1.52.78l.99,1.06c1.21,1.3,2.46,2.64,3.63,4.03,1.46,1.74,3.17,3.83,4.77,6.09,1.55,2.19,2.95,4.47,4.23,6.6,2.2,3.68,4.13,7.68,5.9,12.23,1.91,4.92,3.41,10.18,4.45,15.64.94,4.9,1.45,10.01,1.52,15.18.08,5.95-.44,11.94-1.54,17.79-.97,5.14-2.26,9.76-3.93,14.11-1.15,2.99-2.28,5.6-3.46,7.98-1.45,2.93-3.03,5.79-4.69,8.51-2.06,3.38-4.46,6.65-7.13,9.71-1.18,1.35-2.41,2.69-3.6,3.99l-1.24,1.35c-.44.48-1.02.75-1.63.76-.59,0-1.16-.24-1.59-.7-.35-.38-.71-.75-1.06-1.12-1.22-1.28-2.49-2.61-3.63-4.02-1.86-2.3-4.01-5.03-5.92-7.88-1.94-2.88-3.67-5.76-5.14-8.58-2.39-4.55-4.41-9.52-6.01-14.78-1.72-5.66-2.84-11.26-3.34-16.64-.32-3.43-.38-6.92-.44-10.29-.07-3.56.21-7.29.86-11.41.43-2.77,1.03-5.74,1.82-9.07.49-2.07,1.14-4.27,2.03-6.92.79-2.37,1.59-4.43,2.43-6.29.95-2.13,1.98-4.24,2.98-6.28.43-.89.86-1.76,1.28-2.64l.07-.12c.55-.83,1.1-1.65,1.64-2.46,1.26-1.89,2.44-3.68,3.7-5.48,2.09-2.99,4.62-6.01,7.74-9.25.37-.39.75-.77,1.14-1.14.53-.51,1.08-.76,1.64-.74h.02-.01ZM186.98,282.95c18.1-19.93,25.62-43.27,22.33-69.39-2.19-17.45-9.68-33.11-22.25-46.55-14.91,16.07-22.67,34.99-23.08,56.25-.44,22.52,7.3,42.6,23,59.69h0Z"/>
    <path class="cls-1" d="M188.32,162.43c.46.29.77.78.93,1.44l.32,1.41c.4,1.73.81,3.52,1.13,5.31.4,2.24.83,4.91,1.09,7.66.25,2.68.32,5.35.36,7.83.06,4.29-.27,8.71-1.01,13.54-.8,5.22-2.13,10.52-3.96,15.77-1.64,4.71-3.75,9.4-6.27,13.91-2.9,5.19-6.35,10.12-10.23,14.64-3.41,3.97-6.83,7.32-10.46,10.25-2.49,2.02-4.77,3.71-6.99,5.18-2.72,1.81-5.52,3.5-8.32,5.02-3.48,1.9-7.19,3.53-11.03,4.84-1.7.58-3.43,1.13-5.11,1.66l-1.75.55c-.62.2-1.26.14-1.79-.16-.51-.29-.88-.79-1.02-1.4-.12-.5-.24-1-.36-1.5-.42-1.72-.85-3.5-1.13-5.3-.46-2.92-.96-6.37-1.19-9.78-.24-3.46-.29-6.82-.16-10,.2-5.13.94-10.45,2.19-15.81,1.34-5.76,3.17-11.17,5.43-16.08,1.44-3.13,3.13-6.18,4.76-9.13,1.72-3.12,3.83-6.2,6.45-9.45,1.76-2.18,3.76-4.46,6.11-6.95,1.46-1.55,3.12-3.13,5.22-4.98,1.87-1.65,3.59-3.04,5.25-4.24,1.89-1.37,3.84-2.68,5.72-3.95.82-.55,1.63-1.1,2.43-1.64l.12-.07c.89-.44,1.78-.88,2.65-1.31,2.03-1.01,3.96-1.97,5.94-2.9,3.3-1.54,7-2.9,11.32-4.14.51-.15,1.04-.29,1.56-.42.71-.18,1.31-.11,1.79.18h.02v.01h0l-.01.01ZM127.67,267.03c25.64-8.21,43.82-24.66,54.04-48.93,6.83-16.21,8.17-33.51,4.01-51.44-20.94,6.46-37.13,18.96-48.12,37.18-11.64,19.28-14.98,40.54-9.93,63.19h0Z"/>
    <path class="cls-1" d="M189.1,163.33c.25.48.28,1.06.08,1.71l-.43,1.39c-.52,1.7-1.06,3.45-1.68,5.16-.78,2.14-1.73,4.67-2.89,7.18-1.12,2.44-2.4,4.79-3.61,6.96-2.09,3.74-4.59,7.41-7.64,11.22-3.3,4.12-7.11,8.04-11.31,11.68-3.78,3.26-7.95,6.26-12.39,8.91-5.11,3.05-10.56,5.59-16.18,7.56-4.94,1.73-9.58,2.92-14.18,3.65-3.16.5-5.99.83-8.64.99-3.26.21-6.53.27-9.72.19-3.96-.1-7.99-.54-11.97-1.32-1.76-.34-3.54-.74-5.26-1.12l-1.79-.4c-.64-.14-1.16-.51-1.47-1.03-.3-.51-.37-1.12-.19-1.72.15-.49.29-.99.44-1.48.5-1.7,1.02-3.46,1.67-5.15,1.06-2.76,2.35-5.99,3.86-9.07,1.52-3.11,3.16-6.06,4.86-8.75,2.74-4.34,6.04-8.58,9.8-12.6,4.04-4.32,8.33-8.09,12.74-11.21,2.81-1.99,5.8-3.79,8.69-5.53,3.05-1.84,6.42-3.46,10.31-4.96,2.62-1.01,5.48-1.98,8.76-2.96,2.04-.61,4.26-1.15,7-1.7,2.45-.5,4.63-.84,6.67-1.04,2.32-.24,4.66-.4,6.93-.56.98-.07,1.96-.14,2.92-.21h.14c.99.07,1.98.13,2.95.19,2.27.14,4.41.27,6.6.46,3.63.31,7.51.99,11.88,2.08.52.13,1.04.27,1.56.42.7.2,1.19.56,1.46,1.05v.02h.01l.02-.01ZM84.28,223.59c26.31,5.71,50.28.55,71.26-15.35,14.02-10.63,23.83-24.94,29.19-42.55-21.37-4.88-41.64-2.14-60.26,8.14-19.72,10.88-33.24,27.62-40.19,49.76h0Z"/>
    <path class="cls-1" d="M189.32,164.5c-.02.54-.29,1.06-.78,1.52l-1.06.99c-1.3,1.21-2.64,2.46-4.03,3.63-1.74,1.46-3.83,3.17-6.09,4.77-2.19,1.55-4.47,2.95-6.6,4.23-3.68,2.2-7.68,4.13-12.23,5.9-4.92,1.91-10.18,3.41-15.64,4.45-4.9.94-10.01,1.45-15.18,1.52-5.95.08-11.94-.44-17.79-1.54-5.14-.97-9.76-2.26-14.11-3.93-2.99-1.15-5.6-2.28-7.98-3.46-2.93-1.45-5.79-3.03-8.51-4.69-3.38-2.06-6.65-4.46-9.71-7.13-1.35-1.18-2.69-2.41-3.99-3.6l-1.35-1.24c-.48-.44-.75-1.02-.76-1.63,0-.59.24-1.16.7-1.59.38-.35.75-.71,1.12-1.06,1.28-1.22,2.61-2.49,4.02-3.63,2.3-1.86,5.03-4.01,7.88-5.92,2.88-1.94,5.76-3.67,8.58-5.14,4.55-2.39,9.52-4.41,14.78-6.01,5.66-1.72,11.26-2.84,16.64-3.34,3.43-.32,6.92-.38,10.29-.44,3.56-.07,7.29.21,11.41.86,2.77.43,5.74,1.03,9.07,1.82,2.07.49,4.27,1.14,6.92,2.03,2.37.79,4.43,1.59,6.29,2.43,2.13.95,4.24,1.98,6.28,2.98.89.43,1.76.86,2.64,1.28l.12.07c.83.55,1.65,1.1,2.46,1.64,1.89,1.26,3.68,2.44,5.48,3.7,2.99,2.09,6.01,4.62,9.25,7.74.39.37.77.75,1.14,1.14.51.53.76,1.08.74,1.64v.02h0v-.01ZM68.41,164.28c19.93,18.1,43.27,25.62,69.39,22.33,17.45-2.19,33.11-9.68,46.55-22.25-16.07-14.91-34.99-22.67-56.25-23.08-22.52-.44-42.6,7.3-59.69,23h0Z"/>
    <path class="cls-1" d="M188.93,165.62c-.29.46-.78.77-1.44.93l-1.41.32c-1.73.4-3.52.81-5.31,1.13-2.24.4-4.91.83-7.66,1.09-2.68.25-5.35.32-7.83.36-4.29.06-8.71-.27-13.54-1.01-5.22-.8-10.52-2.13-15.77-3.96-4.71-1.64-9.4-3.75-13.91-6.27-5.19-2.9-10.12-6.35-14.64-10.23-3.97-3.41-7.32-6.83-10.25-10.46-2.02-2.49-3.71-4.77-5.18-6.99-1.81-2.72-3.5-5.52-5.02-8.32-1.9-3.48-3.53-7.19-4.84-11.03-.58-1.7-1.13-3.43-1.66-5.11l-.55-1.75c-.2-.62-.14-1.26.16-1.79.29-.51.79-.88,1.4-1.02.5-.12,1-.24,1.5-.36,1.72-.42,3.5-.85,5.3-1.13,2.92-.46,6.37-.96,9.78-1.19,3.46-.24,6.82-.29,10-.16,5.13.2,10.45.94,15.81,2.19,5.76,1.34,11.17,3.17,16.08,5.43,3.13,1.44,6.18,3.13,9.13,4.76,3.12,1.72,6.2,3.83,9.45,6.45,2.18,1.76,4.46,3.76,6.95,6.11,1.55,1.46,3.13,3.12,4.98,5.22,1.65,1.87,3.04,3.59,4.24,5.25,1.37,1.89,2.68,3.84,3.95,5.72.55.82,1.1,1.63,1.64,2.43l.07.12c.44.89.88,1.78,1.31,2.65,1.01,2.03,1.97,3.96,2.9,5.94,1.54,3.3,2.9,7,4.14,11.32.15.51.29,1.04.42,1.56.18.71.11,1.31-.18,1.79v.02h-.01l-.01-.01ZM84.33,104.97c8.21,25.64,24.66,43.82,48.93,54.04,16.21,6.83,33.51,8.17,51.44,4.01-6.46-20.94-18.96-37.13-37.18-48.12-19.28-11.64-40.54-14.98-63.19-9.93h0Z"/>
    <path class="cls-1" d="M188.03,166.4c-.48.25-1.06.28-1.71.08l-1.39-.43c-1.7-.52-3.45-1.06-5.16-1.68-2.14-.78-4.67-1.73-7.18-2.89-2.44-1.12-4.79-2.4-6.96-3.61-3.74-2.09-7.41-4.59-11.22-7.64-4.12-3.3-8.04-7.11-11.68-11.31-3.26-3.78-6.26-7.95-8.91-12.39-3.05-5.11-5.59-10.56-7.56-16.18-1.73-4.94-2.92-9.58-3.65-14.18-.5-3.16-.83-5.99-.99-8.64-.21-3.26-.27-6.53-.19-9.72.1-3.96.54-7.99,1.32-11.97.34-1.76.74-3.54,1.12-5.26l.4-1.79c.14-.64.51-1.16,1.03-1.47.51-.3,1.12-.37,1.72-.19.49.15.99.29,1.48.44,1.7.5,3.46,1.02,5.15,1.67,2.76,1.06,5.99,2.35,9.07,3.86,3.11,1.52,6.06,3.16,8.75,4.86,4.34,2.74,8.58,6.04,12.6,9.8,4.32,4.04,8.09,8.33,11.21,12.74,1.99,2.81,3.79,5.8,5.53,8.69,1.84,3.05,3.46,6.42,4.96,10.31,1.01,2.62,1.98,5.48,2.96,8.76.61,2.04,1.15,4.26,1.7,7,.5,2.45.84,4.63,1.04,6.67.24,2.32.4,4.66.56,6.93.07.98.14,1.96.21,2.92v.14c-.07.99-.13,1.98-.19,2.95-.14,2.27-.27,4.41-.46,6.6-.31,3.63-.99,7.51-2.08,11.88-.13.52-.27,1.04-.42,1.56-.2.7-.56,1.19-1.05,1.46h-.02v.01h0l.01.02ZM127.76,61.58c-5.71,26.31-.55,50.28,15.35,71.26,10.63,14.02,24.94,23.83,42.55,29.19,4.88-21.37,2.14-41.64-8.14-60.26-10.88-19.72-27.62-33.24-49.76-40.19h0Z"/>
    <path class="cls-1" d="M186.86,166.62c-.54-.02-1.06-.29-1.52-.78l-.99-1.06c-1.21-1.3-2.46-2.64-3.63-4.03-1.46-1.74-3.17-3.83-4.77-6.09-1.55-2.19-2.95-4.47-4.23-6.6-2.2-3.68-4.13-7.68-5.9-12.23-1.91-4.92-3.41-10.18-4.45-15.64-.94-4.9-1.45-10.01-1.52-15.18-.08-5.95.44-11.94,1.54-17.79.97-5.14,2.26-9.76,3.93-14.11,1.15-2.99,2.28-5.6,3.46-7.98,1.45-2.93,3.03-5.79,4.69-8.51,2.06-3.38,4.46-6.65,7.13-9.71,1.18-1.35,2.41-2.69,3.6-3.99l1.24-1.35c.44-.48,1.02-.75,1.63-.76.59,0,1.16.24,1.59.7.35.38.71.75,1.06,1.12,1.22,1.28,2.49,2.61,3.63,4.02,1.86,2.3,4.01,5.03,5.92,7.88,1.94,2.88,3.67,5.76,5.14,8.58,2.39,4.55,4.41,9.52,6.01,14.78,1.72,5.66,2.84,11.26,3.34,16.64.32,3.43.38,6.92.44,10.29.07,3.56-.21,7.29-.86,11.41-.43,2.77-1.03,5.74-1.82,9.07-.49,2.07-1.14,4.27-2.03,6.92-.79,2.37-1.59,4.43-2.43,6.29-.95,2.13-1.98,4.24-2.98,6.28-.43.89-.86,1.76-1.28,2.64l-.07.12c-.55.83-1.1,1.65-1.64,2.46-1.26,1.89-2.44,3.68-3.7,5.48-2.09,2.99-4.62,6.01-7.74,9.25-.37.39-.75.77-1.14,1.14-.53.51-1.08.76-1.64.74h-.02.01ZM187.08,45.71c-18.1,19.93-25.62,43.27-22.33,69.39,2.19,17.45,9.68,33.11,22.25,46.55,14.91-16.07,22.67-34.99,23.08-56.25.44-22.52-7.3-42.6-23-59.69h0Z"/>
    <path class="cls-1" d="M185.74,166.23c-.46-.29-.77-.78-.93-1.44l-.32-1.41c-.4-1.73-.81-3.52-1.13-5.31-.4-2.24-.83-4.91-1.09-7.66-.25-2.68-.32-5.35-.36-7.83-.06-4.29.27-8.71,1.01-13.54.8-5.22,2.13-10.52,3.96-15.77,1.64-4.71,3.75-9.4,6.27-13.91,2.9-5.19,6.35-10.12,10.23-14.64,3.41-3.97,6.83-7.32,10.46-10.25,2.49-2.02,4.77-3.71,6.99-5.18,2.72-1.81,5.52-3.5,8.32-5.02,3.48-1.9,7.19-3.53,11.03-4.84,1.7-.58,3.43-1.13,5.11-1.66l1.75-.55c.62-.2,1.26-.14,1.79.16.51.29.88.79,1.02,1.4.12.5.24,1,.36,1.5.42,1.72.85,3.5,1.13,5.3.46,2.92.96,6.37,1.19,9.78.24,3.46.29,6.82.16,10-.2,5.13-.94,10.45-2.19,15.81-1.34,5.76-3.17,11.17-5.43,16.08-1.44,3.13-3.13,6.18-4.76,9.13-1.72,3.12-3.83,6.2-6.45,9.45-1.76,2.18-3.76,4.46-6.11,6.95-1.46,1.55-3.12,3.13-5.22,4.98-1.87,1.65-3.59,3.04-5.25,4.24-1.89,1.37-3.84,2.68-5.72,3.95-.82.55-1.63,1.1-2.43,1.64l-.12.07c-.89.44-1.78.88-2.65,1.31-2.03,1.01-3.96,1.97-5.94,2.9-3.3,1.54-7,2.9-11.32,4.14-.51.15-1.04.29-1.56.42-.71.18-1.31.11-1.79-.18h-.02v-.01h0l.0099-.01ZM246.38,61.63c-25.64,8.21-43.82,24.66-54.04,48.93-6.83,16.21-8.17,33.51-4.01,51.44,20.94-6.46,37.13-18.96,48.12-37.18,11.64-19.28,14.98-40.54,9.93-63.19h0Z"/>
    <path class="cls-1" d="M184.96,165.33c-.25-.48-.28-1.06-.08-1.71l.43-1.39c.52-1.7,1.06-3.45,1.68-5.16.78-2.14,1.73-4.67,2.89-7.18,1.12-2.44,2.4-4.79,3.61-6.96,2.09-3.74,4.59-7.41,7.64-11.22,3.3-4.12,7.11-8.04,11.31-11.68,3.78-3.26,7.95-6.26,12.39-8.91,5.11-3.05,10.56-5.59,16.18-7.56,4.94-1.73,9.58-2.92,14.18-3.65,3.16-.5,5.99-.83,8.64-.99,3.26-.21,6.53-.27,9.72-.19,3.96.1,7.99.54,11.97,1.32,1.76.34,3.54.74,5.26,1.12l1.79.4c.64.14,1.16.51,1.47,1.03.3.51.37,1.12.19,1.72-.15.49-.29.99-.44,1.48-.5,1.7-1.02,3.46-1.67,5.15-1.06,2.76-2.35,5.99-3.86,9.07-1.52,3.11-3.16,6.06-4.86,8.75-2.74,4.34-6.04,8.58-9.8,12.6-4.04,4.32-8.33,8.09-12.74,11.21-2.81,1.99-5.8,3.79-8.69,5.53-3.05,1.84-6.42,3.46-10.31,4.96-2.62,1.01-5.48,1.98-8.76,2.96-2.04.61-4.26,1.15-7,1.7-2.45.5-4.63.84-6.67,1.04-2.32.24-4.66.4-6.93.56-.98.07-1.96.14-2.92.21h-.14c-.99-.07-1.98-.13-2.95-.19-2.27-.14-4.41-.27-6.6-.46-3.63-.31-7.51-.99-11.88-2.08-.52-.13-1.04-.27-1.56-.42-.7-.2-1.19-.56-1.46-1.05v-.02h-.01l-.0201.01ZM289.78,105.07c-26.31-5.71-50.28-.55-71.26,15.35-14.02,10.63-23.83,24.94-29.19,42.55,21.37,4.88,41.64,2.14,60.26-8.14,19.72-10.88,33.24-27.62,40.19-49.76h0Z"/>
    <path class="cls-1" d="M184.74,164.16c.02-.54.29-1.06.78-1.52l1.06-.99c1.3-1.21,2.64-2.46,4.03-3.63,1.74-1.46,3.83-3.17,6.09-4.77,2.19-1.55,4.47-2.95,6.6-4.23,3.68-2.2,7.68-4.13,12.23-5.9,4.92-1.91,10.18-3.41,15.64-4.45,4.9-.94,10.01-1.45,15.18-1.52,5.95-.08,11.94.44,17.79,1.54,5.14.97,9.76,2.26,14.11,3.93,2.99,1.15,5.6,2.28,7.98,3.46,2.93,1.45,5.79,3.03,8.51,4.69,3.38,2.06,6.65,4.46,9.71,7.13,1.35,1.18,2.69,2.41,3.99,3.6l1.35,1.24c.48.44.75,1.02.76,1.63,0,.59-.24,1.16-.7,1.59-.38.35-.75.71-1.12,1.06-1.28,1.22-2.61,2.49-4.02,3.63-2.3,1.86-5.03,4.01-7.88,5.92-2.88,1.94-5.76,3.67-8.58,5.14-4.55,2.39-9.52,4.41-14.78,6.01-5.66,1.72-11.26,2.84-16.64,3.34-3.43.32-6.92.38-10.29.44-3.56.07-7.29-.21-11.41-.86-2.77-.43-5.74-1.03-9.07-1.82-2.07-.49-4.27-1.14-6.92-2.03-2.37-.79-4.43-1.59-6.29-2.43-2.13-.95-4.24-1.98-6.28-2.98-.89-.43-1.76-.86-2.64-1.28l-.12-.07c-.83-.55-1.65-1.1-2.46-1.64-1.89-1.26-3.68-2.44-5.48-3.7-2.99-2.09-6.01-4.62-9.25-7.74-.39-.37-.77-.75-1.14-1.14-.51-.53-.76-1.08-.74-1.64v-.02h0v.01ZM305.65,164.38c-19.93-18.1-43.27-25.62-69.39-22.33-17.45,2.19-33.11,9.68-46.55,22.25,16.07,14.91,34.99,22.67,56.25,23.08,22.52.44,42.6-7.3,59.69-23h0Z"/>
    <path class="cls-1" d="M185.13,163.04c.29-.46.78-.77,1.44-.93l1.41-.32c1.73-.4,3.52-.81,5.31-1.13,2.24-.4,4.91-.83,7.66-1.09,2.68-.25,5.35-.32,7.83-.36,4.29-.06,8.71.27,13.54,1.01,5.22.8,10.52,2.13,15.77,3.96,4.71,1.64,9.4,3.75,13.91,6.27,5.19,2.9,10.12,6.35,14.64,10.23,3.97,3.41,7.32,6.83,10.25,10.46,2.02,2.49,3.71,4.77,5.18,6.99,1.81,2.72,3.5,5.52,5.02,8.32,1.9,3.48,3.53,7.19,4.84,11.03.58,1.7,1.13,3.43,1.66,5.11l.55,1.75c.2.62.14,1.26-.16,1.79-.29.51-.79.88-1.4,1.02-.5.12-1,.24-1.5.36-1.72.42-3.5.85-5.3,1.13-2.92.46-6.37.96-9.78,1.19-3.46.24-6.82.29-10,.16-5.13-.2-10.45-.94-15.81-2.19-5.76-1.34-11.17-3.17-16.08-5.43-3.13-1.44-6.18-3.13-9.13-4.76-3.12-1.72-6.2-3.83-9.45-6.45-2.18-1.76-4.46-3.76-6.95-6.11-1.55-1.46-3.13-3.12-4.98-5.22-1.65-1.87-3.04-3.59-4.24-5.25-1.37-1.89-2.68-3.84-3.95-5.72-.55-.82-1.1-1.63-1.64-2.43l-.07-.12c-.44-.89-.88-1.78-1.31-2.65-1.01-2.03-1.97-3.96-2.9-5.94-1.54-3.3-2.9-7-4.14-11.32-.15-.51-.29-1.04-.42-1.56-.18-.71-.11-1.31.18-1.79v-.02h.01l.01.0099ZM289.73,223.68c-8.21-25.64-24.66-43.82-48.93-54.04-16.21-6.83-33.51-8.17-51.44-4.01,6.46,20.94,18.96,37.13,37.18,48.12,19.28,11.64,40.54,14.98,63.19,9.93h0Z"/>
    <path class="cls-1" d="M186.03,162.26c.48-.25,1.06-.28,1.71-.08l1.39.43c1.7.52,3.45,1.06,5.16,1.68,2.14.78,4.67,1.73,7.18,2.89,2.44,1.12,4.79,2.4,6.96,3.61,3.74,2.09,7.41,4.59,11.22,7.64,4.12,3.3,8.04,7.11,11.68,11.31,3.26,3.78,6.26,7.95,8.91,12.39,3.05,5.11,5.59,10.56,7.56,16.18,1.73,4.94,2.92,9.58,3.65,14.18.5,3.16.83,5.99.99,8.64.21,3.26.27,6.53.19,9.72-.1,3.96-.54,7.99-1.32,11.97-.34,1.76-.74,3.54-1.12,5.26l-.4,1.79c-.14.64-.51,1.16-1.03,1.47-.51.3-1.12.37-1.72.19-.49-.15-.99-.29-1.48-.44-1.7-.5-3.46-1.02-5.15-1.67-2.76-1.06-5.99-2.35-9.07-3.86-3.11-1.52-6.06-3.16-8.75-4.86-4.34-2.74-8.58-6.04-12.6-9.8-4.32-4.04-8.09-8.33-11.21-12.74-1.99-2.81-3.79-5.8-5.53-8.69-1.84-3.05-3.46-6.42-4.96-10.31-1.01-2.62-1.98-5.48-2.96-8.76-.61-2.04-1.15-4.26-1.7-7-.5-2.45-.84-4.63-1.04-6.67-.24-2.32-.4-4.66-.56-6.93-.07-.98-.14-1.96-.21-2.92v-.14c.07-.99.13-1.98.19-2.95.14-2.27.27-4.41.46-6.6.31-3.63.99-7.51,2.08-11.88.13-.52.27-1.04.42-1.56.2-.7.56-1.19,1.05-1.46h.02v-.01h0l-.01-.02ZM246.29,267.08c5.71-26.31.55-50.28-15.35-71.26-10.63-14.02-24.94-23.83-42.55-29.19-4.88,21.37-2.14,41.64,8.14,60.26,10.88,19.72,27.62,33.24,49.76,40.19h0Z"/>
  </g>
</svg>