<?xml version="1.0" encoding="UTF-8"?>
<svg id="Layer_1" data-name="Layer 1" xmlns="http://www.w3.org/2000/svg" xmlns:xlink="http://www.w3.org/1999/xlink" viewBox="0 0 72 72">
  <defs>
    <style>
      .cls-1 {
        fill: none;
      }

      .cls-2 {
        fill: #fff;
      }

      .cls-3 {
        clip-path: url(#clippath);
      }
    </style>
    <clipPath id="clippath">
      <rect class="cls-1" x="4.9642" y="4.8397" width="61.2528" height="61.2528"/>
    </clipPath>
  </defs>
  <g class="cls-3">
    <path class="cls-2" d="M35.5906,4.8397c-16.9167,0-30.6264,13.7059-30.6264,30.6264s13.7097,30.6264,30.6264,30.6264,30.6264-13.7097,30.6264-30.6264S52.5111,4.8397,35.5906,4.8397ZM51.4547,47.2645c0,1.0259-.4408,2.0063-1.2007,2.7055-.7562.6992-1.7859,1.0411-2.8157.9424-3.53-.3306-6.946-1.2615-10.1455-2.7777-3.112-1.4857-5.9163-3.4692-8.3672-5.9049-2.4357-2.4395-4.4344-5.2589-5.9049-8.3672-1.5161-3.1994-2.4623-6.6041-2.7777-10.1455-.0152-.1102-.0152-.2204-.0152-.3306,0-.9196.3458-1.8011.9575-2.4889.6992-.7562,1.6757-1.1969,2.7055-1.1969h4.9245c1.8771,0,3.4312,1.3945,3.6402,3.245.1216,1.0905.342,2.1697.6612,3.2108.4028,1.3109.0494,2.7169-.9082,3.6744l-1.9949,1.9949c2.0937,3.8226,5.2779,7.0068,9.1005,9.1043l1.9987-1.9987c.9537-.9537,2.3635-1.3109,3.6744-.9044,1.0411.3192,2.1203.5396,3.2108.6612,1.8505.209,3.245,1.7745,3.245,3.6364v4.9397h.0114Z"/>
  </g>
</svg>