<?xml version="1.0" encoding="UTF-8"?>
<svg id="Layer_1" data-name="Layer 1" xmlns="http://www.w3.org/2000/svg" xmlns:xlink="http://www.w3.org/1999/xlink" viewBox="0 0 62.9688 40.9792">
  <defs>
    <style>
      .cls-1 {
        fill: none;
      }

      .cls-2 {
        fill: #bbd5be;
      }

      .cls-3 {
        clip-path: url(#clippath-1);
      }

      .cls-4 {
        clip-path: url(#clippath);
      }
    </style>
    <clipPath id="clippath">
      <rect class="cls-1" x="32.9688" width="30" height="40.9792"/>
    </clipPath>
    <clipPath id="clippath-1">
      <rect class="cls-1" width="31.6354" height="40.9792"/>
    </clipPath>
  </defs>
  <g class="cls-4">
    <path class="cls-2" d="M33.1042,15.3178c.5052-6.9219,3.9792-13.0521,11.4948-14.8958C45.7448.1407,46.9219,0,48.1042,0,56.1927,0,62.75,6.5574,62.75,14.6511c0,3.5729-1.3333,7.0729-3.7083,9.7396-1.1771,1.3125-2.5833,2.4167-4.1458,3.2344-1.8177.9531-3.6146,1.1302-5.5521,1.651-1.7865.4792-1.7865,2.9167-1.3333,4.3594.7708,2.474,2.6146,4.1198,5.2083,4.4271.5313.0625,1.0729.0833,1.5938.2031,1.0313.2396,1.9219,1.1146.776,1.849-1.776,1.1302-4.6927.9219-6.6563.5417-2.2552-.4427-4.3854-1.4375-6.2656-2.7448-6.3333-4.3958-10.1823-14.0885-9.5625-22.5938Z"/>
  </g>
  <g class="cls-3">
    <path class="cls-2" d="M.724,15.3178C1.2292,8.3959,4.7031,2.2657,12.2188.4219,13.3646.1407,14.5417,0,15.724,0,23.8125,0,30.3698,6.5574,30.3698,14.6511c0,3.5729-1.3333,7.0729-3.7083,9.7396-1.1719,1.3125-2.5833,2.4167-4.1406,3.2344-1.8229.9531-3.6198,1.1302-5.5521,1.651-1.7917.4792-1.7865,2.9167-1.3385,4.3594.776,2.474,2.6146,4.1198,5.2083,4.4271.5313.0625,1.0729.0833,1.5938.2031,1.0313.2396,1.9219,1.1146.776,1.849-1.7708,1.1302-4.6927.9219-6.651.5417-2.2604-.4427-4.3854-1.4375-6.2708-2.7448C3.9531,33.5157.1042,23.823.724,15.3178Z"/>
  </g>
</svg>