<?xml version="1.0" encoding="UTF-8"?>
<svg id="Layer_1" data-name="Layer 1" xmlns="http://www.w3.org/2000/svg" xmlns:xlink="http://www.w3.org/1999/xlink" viewBox="0 0 62.9688 40.9844">
  <defs>
    <style>
      .cls-1 {
        fill: none;
      }

      .cls-2 {
        fill: #bbd5be;
      }

      .cls-3 {
        clip-path: url(#clippath-1);
      }

      .cls-4 {
        clip-path: url(#clippath-3);
      }

      .cls-5 {
        clip-path: url(#clippath-2);
      }

      .cls-6 {
        clip-path: url(#clippath);
      }
    </style>
    <clipPath id="clippath">
      <rect class="cls-1" width="62.9688" height="40.9844"/>
    </clipPath>
    <clipPath id="clippath-1">
      <rect class="cls-1" x="-.776" y="-.6405" width="64" height="42.6666"/>
    </clipPath>
    <clipPath id="clippath-2">
      <rect class="cls-1" y=".0001" width="29.8906" height="40.9844"/>
    </clipPath>
    <clipPath id="clippath-3">
      <rect class="cls-1" x="31.224" y=".0001" width="31.1198" height="40.9844"/>
    </clipPath>
  </defs>
  <g class="cls-6">
    <g class="cls-3">
      <g>
        <g class="cls-5">
          <path class="cls-2" d="M29.7396,15.3178c-.5052-6.9167-3.9792-13.0521-11.4948-14.8958C17.1042.1407,15.9219.0001,14.7448.0001,6.6563.0001.099,6.5574.099,14.6512c0,3.5729,1.3281,7.0729,3.7083,9.7396,1.1719,1.3125,2.5781,2.4167,4.1406,3.2344,1.8177.9531,3.6146,1.1302,5.5521,1.651,1.7917.4792,1.7865,2.9167,1.3333,4.3594-.7708,2.474-2.6146,4.1198-5.2031,4.4271-.5313.0625-1.0729.0833-1.599.2031-1.0313.2448-1.9219,1.1146-.7708,1.849,1.7708,1.1302,4.6875.9219,6.651.5417,2.2604-.4427,4.3854-1.4375,6.2708-2.7448,6.3281-4.3958,10.1823-14.0885,9.5573-22.5938Z"/>
        </g>
        <g class="cls-4">
          <path class="cls-2" d="M62.1198,15.3178c-.5052-6.9167-3.9792-13.0521-11.4948-14.8958C49.4792.1407,48.3021.0001,47.125.0001,39.0313.0001,32.474,6.5574,32.474,14.6512c0,3.5729,1.3333,7.0729,3.7135,9.7396,1.1719,1.3125,2.5781,2.4167,4.1406,3.2344,1.8177.9531,3.6146,1.1302,5.5521,1.651,1.7917.4792,1.7865,2.9167,1.3333,4.3594-.7708,2.474-2.6146,4.1198-5.2031,4.4271-.5313.0625-1.0729.0833-1.599.2031-1.0313.2448-1.9219,1.1146-.7708,1.849,1.7708,1.1302,4.6875.9219,6.651.5417,2.2552-.4427,4.3854-1.4375,6.2708-2.7448,6.3281-4.3958,10.1823-14.0885,9.5573-22.5938Z"/>
        </g>
      </g>
    </g>
  </g>
</svg>