<?xml version="1.0" encoding="UTF-8"?>
<svg id="Layer_1" data-name="Layer 1" xmlns="http://www.w3.org/2000/svg" xmlns:xlink="http://www.w3.org/1999/xlink" viewBox="0 0 1440 1024">
  <defs>
    <style>
      .cls-1, .cls-2 {
        fill: none;
      }

      .cls-3 {
        fill: #004b18;
      }

      .cls-4 {
        fill: url(#linear-gradient);
      }

      .cls-5 {
        clip-path: url(#clippath-1);
      }

      .cls-6 {
        clip-path: url(#clippath-3);
      }

      .cls-7 {
        clip-path: url(#clippath-4);
      }

      .cls-8 {
        clip-path: url(#clippath-2);
      }

      .cls-9 {
        clip-path: url(#clippath-5);
      }

      .cls-10 {
        fill: #004908;
      }

      .cls-2 {
        stroke: #004908;
        stroke-width: 3px;
      }

      .cls-11 {
        clip-path: url(#clippath);
      }
    </style>
    <clipPath id="clippath">
      <rect class="cls-1" x="192" y="910.6667" width="137.3333" height="54.6667"/>
    </clipPath>
    <clipPath id="clippath-1">
      <rect class="cls-1" y="990.9896" width="1440" height="33.0104"/>
    </clipPath>
    <clipPath id="clippath-2">
      <rect class="cls-1" y="990.6667" width="1440" height="33.3333"/>
    </clipPath>
    <clipPath id="clippath-3">
      <rect class="cls-1" y="990.9896" width="1439.974" height="33.0104"/>
    </clipPath>
    <linearGradient id="linear-gradient" x1="-3465.3047" y1="2226.7342" x2="7701.7044" y2="2226.7342" gradientTransform="translate(446.8474 1294.6298) scale(.1289 -.1289)" gradientUnits="userSpaceOnUse">
      <stop offset="0" stop-color="#6f9d82"/>
      <stop offset=".0078" stop-color="#6f9d82"/>
      <stop offset=".0156" stop-color="#709e83"/>
      <stop offset=".0234" stop-color="#719e83"/>
      <stop offset=".0312" stop-color="#729f84"/>
      <stop offset=".0391" stop-color="#73a085"/>
      <stop offset=".0469" stop-color="#73a085"/>
      <stop offset=".0547" stop-color="#74a186"/>
      <stop offset=".0625" stop-color="#75a186"/>
      <stop offset=".0703" stop-color="#76a287"/>
      <stop offset=".0781" stop-color="#77a388"/>
      <stop offset=".0859" stop-color="#77a388"/>
      <stop offset=".0938" stop-color="#78a489"/>
      <stop offset=".1016" stop-color="#79a489"/>
      <stop offset=".1094" stop-color="#7aa58a"/>
      <stop offset=".1172" stop-color="#7ba58b"/>
      <stop offset=".125" stop-color="#7ba68b"/>
      <stop offset=".1328" stop-color="#7ca78c"/>
      <stop offset=".1406" stop-color="#7da78c"/>
      <stop offset=".1484" stop-color="#7ea88d"/>
      <stop offset=".1562" stop-color="#7fa88e"/>
      <stop offset=".1641" stop-color="#7fa98e"/>
      <stop offset=".1719" stop-color="#80aa8f"/>
      <stop offset=".1797" stop-color="#81aa8f"/>
      <stop offset=".1875" stop-color="#82ab90"/>
      <stop offset=".1953" stop-color="#83ab91"/>
      <stop offset=".2031" stop-color="#84ac91"/>
      <stop offset=".2109" stop-color="#84ad92"/>
      <stop offset=".2188" stop-color="#85ad92"/>
      <stop offset=".2266" stop-color="#86ae93"/>
      <stop offset=".2344" stop-color="#87ae94"/>
      <stop offset=".2422" stop-color="#88af94"/>
      <stop offset=".25" stop-color="#88af95"/>
      <stop offset=".2578" stop-color="#89b095"/>
      <stop offset=".2656" stop-color="#8ab196"/>
      <stop offset=".2734" stop-color="#8bb196"/>
      <stop offset=".2812" stop-color="#8cb297"/>
      <stop offset=".2891" stop-color="#8cb298"/>
      <stop offset=".2969" stop-color="#8db398"/>
      <stop offset=".3047" stop-color="#8eb499"/>
      <stop offset=".3125" stop-color="#8fb499"/>
      <stop offset=".3203" stop-color="#90b59a"/>
      <stop offset=".3281" stop-color="#90b59b"/>
      <stop offset=".3359" stop-color="#91b69b"/>
      <stop offset=".3438" stop-color="#92b69c"/>
      <stop offset=".3516" stop-color="#93b79c"/>
      <stop offset=".3594" stop-color="#94b89d"/>
      <stop offset=".3672" stop-color="#94b89e"/>
      <stop offset=".375" stop-color="#95b99e"/>
      <stop offset=".3828" stop-color="#96b99f"/>
      <stop offset=".3906" stop-color="#97ba9f"/>
      <stop offset=".3984" stop-color="#98bba0"/>
      <stop offset=".4062" stop-color="#98bba1"/>
      <stop offset=".4141" stop-color="#99bca1"/>
      <stop offset=".4219" stop-color="#9abca2"/>
      <stop offset=".4297" stop-color="#9bbda2"/>
      <stop offset=".4375" stop-color="#9cbea3"/>
      <stop offset=".4453" stop-color="#9cbea4"/>
      <stop offset=".4531" stop-color="#9dbfa4"/>
      <stop offset=".4609" stop-color="#9ebfa5"/>
      <stop offset=".4688" stop-color="#9fc0a5"/>
      <stop offset=".4766" stop-color="#a0c0a6"/>
      <stop offset=".4844" stop-color="#a0c1a7"/>
      <stop offset=".4922" stop-color="#a1c2a7"/>
      <stop offset=".5" stop-color="#a2c2a8"/>
      <stop offset=".5078" stop-color="#a3c3a8"/>
      <stop offset=".5156" stop-color="#a4c3a9"/>
      <stop offset=".5234" stop-color="#a5c4a9"/>
      <stop offset=".5312" stop-color="#a5c5aa"/>
      <stop offset=".5391" stop-color="#a6c5ab"/>
      <stop offset=".5469" stop-color="#a7c6ab"/>
      <stop offset=".5547" stop-color="#a8c6ac"/>
      <stop offset=".5625" stop-color="#a9c7ac"/>
      <stop offset=".5703" stop-color="#a9c7ad"/>
      <stop offset=".5781" stop-color="#aac8ae"/>
      <stop offset=".5859" stop-color="#abc9ae"/>
      <stop offset=".5938" stop-color="#acc9af"/>
      <stop offset=".6016" stop-color="#adcaaf"/>
      <stop offset=".6094" stop-color="#adcab0"/>
      <stop offset=".6172" stop-color="#aecbb1"/>
      <stop offset=".625" stop-color="#afccb1"/>
      <stop offset=".6328" stop-color="#b0ccb2"/>
      <stop offset=".6406" stop-color="#b1cdb2"/>
      <stop offset=".6484" stop-color="#b1cdb3"/>
      <stop offset=".6562" stop-color="#b2ceb4"/>
      <stop offset=".6641" stop-color="#b3cfb4"/>
      <stop offset=".6719" stop-color="#b4cfb5"/>
      <stop offset=".6797" stop-color="#b5d0b5"/>
      <stop offset=".6875" stop-color="#b5d0b6"/>
      <stop offset=".6953" stop-color="#b6d1b7"/>
      <stop offset=".7031" stop-color="#b7d1b7"/>
      <stop offset=".7109" stop-color="#b8d2b8"/>
      <stop offset=".7188" stop-color="#b9d3b8"/>
      <stop offset=".7266" stop-color="#b9d3b9"/>
      <stop offset=".7344" stop-color="#bad4ba"/>
      <stop offset=".7422" stop-color="#bbd4ba"/>
      <stop offset=".75" stop-color="#bcd5bb"/>
      <stop offset=".7578" stop-color="#bdd6bb"/>
      <stop offset=".7656" stop-color="#bdd6bc"/>
      <stop offset=".7734" stop-color="#bed7bc"/>
      <stop offset=".7812" stop-color="#bfd7bd"/>
      <stop offset=".7891" stop-color="#c0d8be"/>
      <stop offset=".7969" stop-color="#c1d8be"/>
      <stop offset=".8047" stop-color="#c1d9bf"/>
      <stop offset=".8125" stop-color="#c2dabf"/>
      <stop offset=".8203" stop-color="#c3dac0"/>
      <stop offset=".8281" stop-color="#c4dbc1"/>
      <stop offset=".8359" stop-color="#c5dbc1"/>
      <stop offset=".8438" stop-color="#c5dcc2"/>
      <stop offset=".8516" stop-color="#c6ddc2"/>
      <stop offset=".8594" stop-color="#c7ddc3"/>
      <stop offset=".8672" stop-color="#c8dec4"/>
      <stop offset=".875" stop-color="#c9dec4"/>
      <stop offset=".8828" stop-color="#cadfc5"/>
      <stop offset=".8906" stop-color="#cadfc5"/>
      <stop offset=".8984" stop-color="#cbe0c6"/>
      <stop offset=".9062" stop-color="#cce1c7"/>
      <stop offset=".9141" stop-color="#cde1c7"/>
      <stop offset=".9219" stop-color="#cee2c8"/>
      <stop offset=".9297" stop-color="#cee2c8"/>
      <stop offset=".9375" stop-color="#cfe3c9"/>
      <stop offset=".9453" stop-color="#d0e4ca"/>
      <stop offset=".9531" stop-color="#d1e4ca"/>
      <stop offset=".9609" stop-color="#d2e5cb"/>
      <stop offset=".9688" stop-color="#d2e5cb"/>
      <stop offset=".9766" stop-color="#d3e6cc"/>
      <stop offset=".9844" stop-color="#d4e7cc"/>
      <stop offset=".9922" stop-color="#d5e7cd"/>
      <stop offset="1" stop-color="#d6e8ce"/>
    </linearGradient>
    <clipPath id="clippath-4">
      <rect class="cls-1" x="469.6667" y="994.6667" width="501.3333" height="24"/>
    </clipPath>
    <clipPath id="clippath-5">
      <rect class="cls-1" x="469.8802" y="1000" width="14.4531" height="14.6667"/>
    </clipPath>
  </defs>
  <path class="cls-2" d="M421.6771,973.3959v-62.9688"/>
  <g class="cls-11">
    <g>
      <path class="cls-3" d="M217.7291,926.0617c.7344.375,1.1667.9531,1.2917,1.7292.125.7813-.0781,1.4948-.6042,2.1458-.375.5-.849.7813-1.4167.8333-.5729.0573-1.1458-.0521-1.7292-.3333-.6823-.3021-1.3906-.5417-2.125-.7083-.7396-.1771-1.5156-.2708-2.3333-.2708-1.5156,0-2.8698.2448-4.0625.7292-1.1823.474-2.1875,1.1563-3.0208,2.0417-.8333.875-1.474,1.9167-1.9167,3.125-.4323,1.1979-.6458,2.5156-.6458,3.9583,0,1.7083.2396,3.1979.7292,4.4583.5,1.25,1.1771,2.3021,2.0417,3.1458.8594.8333,1.8802,1.4583,3.0625,1.875,1.1771.4063,2.4479.6042,3.8125.6042.7604,0,1.5208-.0677,2.2708-.2083.75-.151,1.4792-.4062,2.1875-.7708.5833-.276,1.1563-.375,1.7292-.2917.5677.0833,1.0521.375,1.4583.875.5521.7083.7552,1.4323.6042,2.1667-.1563.7396-.5833,1.2813-1.2917,1.625-.724.3646-1.474.6615-2.25.8958-.7656.2396-1.5365.4167-2.3125.5417-.7813.125-1.5781.1875-2.3958.1875-2.0156,0-3.9271-.3229-5.7292-.9583-1.7917-.6354-3.3958-1.5885-4.8125-2.8542-1.4167-1.2604-2.5312-2.8333-3.3333-4.7083-.8073-1.8854-1.2083-4.0833-1.2083-6.5833,0-2.151.3646-4.1302,1.1042-5.9375.7344-1.8177,1.776-3.3854,3.125-4.7083,1.3594-1.3333,2.9635-2.3646,4.8125-3.1042,1.8438-.75,3.8594-1.125,6.0417-1.125,1.2344,0,2.4375.1406,3.6042.4167,1.1771.2813,2.2813.6823,3.3125,1.2083Z"/>
      <path class="cls-3" d="M228.5258,951.4367c0,.7396-.25,1.349-.75,1.8333-.4896.4896-1.0938.7292-1.8125.7292-.7083,0-1.3021-.2396-1.7708-.7292-.474-.4844-.7083-1.0938-.7083-1.8333v-25.9167c0-.7188.2396-1.3229.7292-1.8125.4844-.5,1.0937-.75,1.8333-.75.7187,0,1.3125.25,1.7708.75.4688.4896.7083,1.0938.7083,1.8125v25.9167Z"/>
      <path class="cls-3" d="M239.1205,951.4367c0,.7396-.2396,1.349-.7083,1.8333-.474.4896-1.0729.7292-1.7917.7292-.7396,0-1.3437-.2396-1.8125-.7292-.474-.4844-.7083-1.0938-.7083-1.8333v-17.3125c0-.7344.2344-1.3437.7083-1.8333.4688-.4844,1.0729-.7292,1.8125-.7292.7187,0,1.3177.2448,1.7917.7292.4687.4896.7083,1.099.7083,1.8333v17.3125ZM236.558,928.8325c-.9479,0-1.6146-.151-2-.4583-.3906-.3021-.5833-.8438-.5833-1.625v-.8125c0-.8021.2135-1.3542.6458-1.6458.4271-.2917,1.0885-.4375,1.9792-.4375.9844,0,1.6719.1563,2.0625.4583.3854.3073.5833.849.5833,1.625v.8125c0,.8073-.2083,1.3542-.625,1.6458s-1.1042.4375-2.0625.4375Z"/>
      <path class="cls-3" d="M254.8518,954.4159c-2.375,0-4.4375-.4896-6.1875-1.4792-1.75-1-3.0938-2.3438-4.0208-4.0417-.9323-1.7083-1.3958-3.6354-1.3958-5.7917,0-2.526.5052-4.6719,1.5208-6.4375,1.0104-1.776,2.3437-3.1354,4-4.0833,1.651-.9583,3.401-1.4375,5.25-1.4375,1.4271,0,2.776.2917,4.0417.875,1.276.5833,2.401,1.3906,3.375,2.4167.9844,1.0156,1.7604,2.1979,2.3333,3.5417.5677,1.349.8542,2.7708.8542,4.2708-.0313.6823-.2917,1.2292-.7917,1.6458s-1.0938.625-1.7708.625h-16.0208l-1.25-4.1875h15.3958l-.9375.8333v-1.125c-.0573-.8177-.3438-1.5469-.8542-2.1875-.5156-.6354-1.1615-1.1458-1.9375-1.5208-.7656-.3854-1.5781-.5833-2.4375-.5833-.849,0-1.6354.1198-2.3542.3542-.724.224-1.3542.599-1.8958,1.125-.5313.5312-.9479,1.2448-1.25,2.1458-.3073.8906-.4583,2.0208-.4583,3.3958,0,1.5.3125,2.7812.9375,3.8333.6354,1.0417,1.4479,1.8438,2.4375,2.3958,1,.5417,2.0521.8125,3.1667.8125,1.0417,0,1.8646-.0833,2.4792-.25.6094-.1667,1.1042-.3646,1.4792-.6042.375-.25.7187-.4583,1.0417-.625.5-.25.9687-.375,1.4167-.375.6094,0,1.1146.2187,1.5208.6458.4167.4167.625.9062.625,1.4583,0,.75-.3958,1.4323-1.1875,2.0417-.724.625-1.7448,1.1667-3.0625,1.625-1.3073.4583-2.6615.6875-4.0625.6875Z"/>
      <path class="cls-3" d="M281.0341,931.145c2.0677,0,3.6354.4375,4.7083,1.3125,1.0833.8646,1.8229,2.0156,2.2292,3.4583.401,1.4323.6042,3.0313.6042,4.7917v10.7292c0,.7396-.2448,1.349-.7292,1.8333-.474.4896-1.0729.7292-1.7917.7292-.724,0-1.3281-.2396-1.8125-.7292-.474-.4844-.7083-1.0938-.7083-1.8333v-10.7292c0-.9271-.1198-1.7604-.3542-2.5-.2396-.7344-.6615-1.3229-1.2708-1.7708-.6146-.4583-1.4948-.6875-2.6458-.6875-1.125,0-2.0729.2292-2.8333.6875-.7656.4479-1.3542,1.0365-1.7708,1.7708-.4062.7396-.6042,1.5729-.6042,2.5v10.7292c0,.7396-.2396,1.349-.7083,1.8333-.474.4896-1.0729.7292-1.7917.7292-.7396,0-1.3437-.2396-1.8125-.7292-.474-.4844-.7083-1.0938-.7083-1.8333v-17.3125c0-.7344.2344-1.3437.7083-1.8333.4688-.4844,1.0729-.7292,1.8125-.7292.7187,0,1.3177.2448,1.7917.7292.4687.4896.7083,1.099.7083,1.8333v1.7917l-.625-.125c.25-.4687.6094-.9792,1.0833-1.5208.4844-.5417,1.0469-1.0469,1.6875-1.5208.6354-.4844,1.3594-.875,2.1667-1.1667.8177-.2917,1.7083-.4375,2.6667-.4375Z"/>
      <path class="cls-3" d="M294.2806,931.9784h9.9375c.6667,0,1.2187.2292,1.6667.6875.4583.4479.6875,1,.6875,1.6667,0,.6406-.2292,1.1823-.6875,1.625-.4479.4323-1,.6458-1.6667.6458h-9.9375c-.6667,0-1.2292-.2188-1.6875-.6667-.4479-.4583-.6667-1.0208-.6667-1.6875,0-.6354.2187-1.1719.6667-1.6042.4583-.4427,1.0208-.6667,1.6875-.6667ZM298.7598,926.7492c.7344,0,1.3333.2448,1.7917.7292.4583.4896.6875,1.0938.6875,1.8125v18.6667c0,.3906.0729.7187.2292.9792.151.25.3594.4323.625.5417.2604.1146.5521.1667.875.1667.3333,0,.6354-.0625.9167-.1875.276-.125.5937-.1875.9583-.1875.3854,0,.7396.1823,1.0625.5417.3333.3646.5.8646.5,1.5,0,.7917-.4323,1.4375-1.2917,1.9375-.849.5-1.7656.75-2.75.75-.5833,0-1.2396-.0469-1.9583-.1458-.7083-.0938-1.375-.3333-2-.7083s-1.1458-.9479-1.5625-1.7292c-.4167-.7917-.625-1.875-.625-3.25v-18.875c0-.7188.2396-1.3229.7292-1.8125.4844-.4844,1.0885-.7292,1.8125-.7292Z"/>
      <path class="cls-3" d="M309.8717,950.52c-.2813-.3854-.4063-.8854-.375-1.5.026-.625.3958-1.1562,1.1042-1.6042.4427-.276.9167-.3958,1.4167-.3542s.9896.3021,1.4792.7708c.8021.8073,1.651,1.4375,2.5417,1.8958.901.4479,2.0208.6667,3.3542.6667.4271-.026.8958-.0885,1.3958-.1875.5-.0937.9375-.3177,1.3125-.6667.375-.3594.5625-.901.5625-1.625,0-.6094-.2083-1.0937-.625-1.4583-.4167-.375-.974-.6875-1.6667-.9375-.6823-.25-1.4375-.4844-2.2708-.7083-.8646-.25-1.75-.526-2.6667-.8333-.9062-.3021-1.7396-.6979-2.5-1.1875-.75-.5-1.3646-1.151-1.8333-1.9583-.474-.8021-.7083-1.8229-.7083-3.0625,0-1.401.3854-2.5885,1.1667-3.5625.776-.9844,1.7812-1.7396,3.0208-2.2708,1.25-.526,2.5625-.7917,3.9375-.7917.875,0,1.7812.1042,2.7292.3125.9427.2083,1.8437.5521,2.7083,1.0208.875.4583,1.6042,1.0625,2.1875,1.8125.3177.4167.5052.9271.5625,1.5208.0521.5833-.2187,1.1146-.8125,1.5833-.4167.3333-.9062.4792-1.4583.4375-.5573-.0417-1.0156-.2292-1.375-.5625-.4896-.6094-1.125-1.0938-1.9167-1.4583-.7917-.375-1.7083-.5625-2.75-.5625-.4167,0-.875.0521-1.375.1458-.4896.099-.9115.3125-1.2708.6458-.3646.3229-.5417.8281-.5417,1.5208,0,.6406.2083,1.1562.625,1.5417.4167.375.9792.6823,1.6875.9167.7188.2396,1.4896.4688,2.3125.6875.8333.224,1.6771.4896,2.5417.7917.875.3073,1.6719.7187,2.3958,1.2292.7188.5,1.3021,1.1458,1.75,1.9375.4583.7917.6875,1.8073.6875,3.0417,0,1.4323-.4271,2.6563-1.2708,3.6667-.8333,1-1.8854,1.7604-3.1458,2.2708-1.25.5104-2.5365.7708-3.8542.7708-1.6562,0-3.3073-.2865-4.9583-.8542-1.6406-.5677-3.0104-1.5833-4.1042-3.0417Z"/>
    </g>
  </g>
  <g class="cls-5">
    <g class="cls-8">
      <g class="cls-6">
        <path class="cls-4" d="M0,990.9896v33.0104h1439.974v-33.0104H0Z"/>
      </g>
    </g>
  </g>
  <g class="cls-7">
    <g>
      <g class="cls-9">
        <path class="cls-10" d="M477.4114,1013.5226c-.9062,0-1.75-.1563-2.5417-.4792-.7812-.3333-1.4688-.7917-2.0625-1.375-.599-.5833-1.0729-1.2708-1.4167-2.0625-.3333-.8021-.5-1.6667-.5-2.5833,0-.9583.1667-1.8229.5-2.6042.3437-.7917.8177-1.4792,1.4167-2.0625.5937-.5937,1.2813-1.0521,2.0625-1.375.7917-.3333,1.6354-.5,2.5417-.5.8854,0,1.7188.1667,2.5.5.7917.3229,1.4844.7813,2.0833,1.375.5938.5833,1.0625,1.2708,1.3958,2.0625.3437.7812.5208,1.6458.5208,2.6042,0,.9167-.1771,1.7813-.5208,2.5833-.3333.7917-.8021,1.4792-1.3958,2.0625-.599.5833-1.2917,1.0417-2.0833,1.375-.7812.3229-1.6146.4792-2.5.4792ZM477.4114,1012.6476c.7604,0,1.4844-.1354,2.1667-.4167.6771-.276,1.276-.6667,1.7917-1.1667.526-.5104.9375-1.1094,1.2292-1.7917.2917-.6927.4375-1.4427.4375-2.25,0-.8177-.1458-1.5677-.4375-2.25-.2917-.6771-.7031-1.276-1.2292-1.7917-.5156-.5104-1.1146-.9063-1.7917-1.1875-.6823-.2917-1.4062-.4375-2.1667-.4375-.7812,0-1.5104.1458-2.1875.4375-.6667.2812-1.2656.6771-1.7917,1.1875-.5156.5156-.9167,1.1146-1.2083,1.7917-.2917.6823-.4375,1.4323-.4375,2.25,0,.8073.1458,1.5573.4375,2.25.2917.6823.6927,1.2813,1.2083,1.7917.526.5,1.125.8906,1.7917,1.1667.6771.2813,1.4063.4167,2.1875.4167ZM477.7447,1010.6476c-.7396,0-1.3906-.151-1.9583-.4583-.5573-.3177-.9948-.7552-1.3125-1.3125-.3229-.5521-.4792-1.1719-.4792-1.8542,0-.6667.151-1.276.4583-1.8333.3021-.5521.7396-.9896,1.3125-1.3125.5677-.3333,1.2292-.5,1.9792-.5.7917,0,1.4896.2031,2.1042.6042.125.0729.1979.1823.2292.3333.026.1406-.0104.2656-.1042.375-.0729.1146-.1667.1771-.2917.1875-.125,0-.2396-.026-.3333-.0833-.2396-.151-.4948-.2708-.7708-.3542-.2656-.0833-.5417-.125-.8333-.125-.5729,0-1.0625.125-1.4792.375-.4167.2396-.7396.5573-.9583.9583-.224.3906-.3333.849-.3333,1.375,0,.5313.1094.9948.3333,1.3958.2187.4062.5417.724.9583.9583.4167.224.9063.3333,1.4792.3333.2917,0,.5677-.0417.8333-.125.2604-.0833.5208-.1927.7708-.3333.0937-.0677.2083-.0885.3333-.0625.125.0156.2187.0729.2917.1667.0937.1146.1302.2448.1042.3958-.0312.1406-.099.2448-.2083.3125-.3073.1823-.6458.3281-1.0208.4375-.3646.099-.7292.1458-1.1042.1458Z"/>
      </g>
      <path class="cls-10" d="M498.5449,1012.4185c.151,0,.276.0573.375.1667.1094.099.1667.2188.1667.3542,0,.1667-.0573.3021-.1667.3958-.099.099-.224.1458-.375.1458h-6.9167c-.1667,0-.3125-.0417-.4375-.125-.1146-.0937-.1667-.2396-.1667-.4375,0-.125.0521-.25.1667-.375l4.25-4.7083c.6771-.75,1.1875-1.4271,1.5208-2.0417.3437-.625.5208-1.1875.5208-1.6875,0-.8021-.25-1.4479-.75-1.9375-.4896-.5-1.1458-.75-1.9792-.75-.3906,0-.7708.0833-1.1458.25-.375.1562-.7083.3646-1,.625-.2917.25-.5156.5417-.6667.875-.0729.125-.1458.2188-.2292.2708-.0833.0417-.1771.0625-.2708.0625-.1562,0-.2865-.0417-.3958-.125-.1146-.0938-.1667-.2135-.1667-.3542,0-.0833.0208-.1667.0625-.25.0521-.0937.125-.1979.2083-.3125.2188-.375.526-.7188.9167-1.0417.3854-.3177.8229-.5729,1.3125-.7708.5-.1927.9792-.2917,1.4375-.2917.7917,0,1.4688.1563,2.0417.4583.5833.3073,1.026.7396,1.3333,1.2917.3177.5417.4792,1.1875.4792,1.9375,0,.6406-.2031,1.3438-.6042,2.1042-.4062.75-1,1.5625-1.7917,2.4375l-3.6042,4.0417-.1667-.2083h6.0417Z"/>
      <path class="cls-10" d="M505.5126,1013.6685c-.9896,0-1.8125-.2917-2.4792-.875-.6563-.5938-1.1458-1.3958-1.4792-2.3958-.3333-1.0104-.5-2.1354-.5-3.375,0-1.2604.1667-2.3958.5-3.3958.3333-1.0104.8229-1.8125,1.4792-2.3958.6667-.5833,1.4896-.875,2.4792-.875,1.0104,0,1.8438.2917,2.5.875.6667.5833,1.1667,1.3854,1.5,2.3958.3333,1,.5,2.1354.5,3.3958,0,1.2396-.1667,2.3646-.5,3.375-.3333,1-.8333,1.8021-1.5,2.3958-.6562.5833-1.4896.875-2.5.875ZM505.5126,1012.5226c.7344,0,1.3438-.2292,1.8333-.6875.4844-.4583.8542-1.1042,1.1042-1.9375s.375-1.7917.375-2.875c0-1.1094-.125-2.0833-.375-2.9167s-.6198-1.4792-1.1042-1.9375c-.4896-.4583-1.099-.6875-1.8333-.6875-.7083,0-1.3073.2292-1.7917.6875-.4896.4583-.8542,1.1042-1.1042,1.9375s-.375,1.8073-.375,2.9167c0,1.0833.125,2.0417.375,2.875s.6146,1.4792,1.1042,1.9375c.4844.4583,1.0833.6875,1.7917.6875Z"/>
      <path class="cls-10" d="M519.7796,1012.4185c.151,0,.276.0573.375.1667.1094.099.1667.2188.1667.3542,0,.1667-.0573.3021-.1667.3958-.099.099-.224.1458-.375.1458h-6.9167c-.1667,0-.3125-.0417-.4375-.125-.1146-.0937-.1667-.2396-.1667-.4375,0-.125.0521-.25.1667-.375l4.25-4.7083c.6771-.75,1.1875-1.4271,1.5208-2.0417.3437-.625.5208-1.1875.5208-1.6875,0-.8021-.25-1.4479-.75-1.9375-.4896-.5-1.1458-.75-1.9792-.75-.3906,0-.7708.0833-1.1458.25-.375.1562-.7083.3646-1,.625-.2917.25-.5156.5417-.6667.875-.0729.125-.1458.2188-.2292.2708-.0833.0417-.1771.0625-.2708.0625-.1562,0-.2865-.0417-.3958-.125-.1146-.0938-.1667-.2135-.1667-.3542,0-.0833.0208-.1667.0625-.25.0521-.0937.125-.1979.2083-.3125.2188-.375.526-.7188.9167-1.0417.3854-.3177.8229-.5729,1.3125-.7708.5-.1927.9792-.2917,1.4375-.2917.7917,0,1.4688.1563,2.0417.4583.5833.3073,1.026.7396,1.3333,1.2917.3177.5417.4792,1.1875.4792,1.9375,0,.6406-.2031,1.3438-.6042,2.1042-.4062.75-1,1.5625-1.7917,2.4375l-3.6042,4.0417-.1667-.2083h6.0417Z"/>
      <path class="cls-10" d="M525.6014,1013.5226c-.5156,0-1.0313-.0833-1.5417-.25-.5-.1667-.9531-.4167-1.3542-.75-.0729-.0677-.125-.1458-.1667-.2292s-.0625-.1667-.0625-.25c0-.125.0469-.2396.1458-.3542.0938-.125.2188-.1875.375-.1875.1354,0,.276.0573.4167.1667.3177.25.6667.4479,1.0417.5833.375.125.7552.1875,1.1458.1875.7187,0,1.3542-.1354,1.8958-.4167.5417-.276.9583-.6667,1.25-1.1667.3021-.5104.4583-1.1094.4583-1.7917,0-.625-.1406-1.1667-.4167-1.625-.2812-.4687-.6667-.8385-1.1667-1.1042-.4896-.2604-1.0729-.3958-1.75-.3958-.4479,0-.849.0729-1.2083.2083-.3646.1406-.6823.2813-.9583.4167-.2656.1406-.474.2083-.625.2083-.1562,0-.2812-.0313-.375-.1042-.0833-.0833-.1406-.1771-.1667-.2917-.0312-.1094-.0365-.2188-.0208-.3333l.7917-4.9375c.0104-.1094.0677-.2135.1667-.3125.1094-.0938.25-.1458.4167-.1458h5.5625c.151,0,.276.0573.375.1667.1094.1146.1667.2396.1667.375,0,.1667-.0573.3073-.1667.4167-.099.099-.224.1458-.375.1458h-5.3125l.1667-.1667-.75,4.375-.3333-.25c.1667-.1094.3958-.2292.6875-.3542.3021-.125.6458-.2292,1.0208-.3125.375-.0938.7708-.1458,1.1875-.1458.8021,0,1.5208.1771,2.1458.5208.625.349,1.1146.8333,1.4792,1.4583.375.625.5625,1.3438.5625,2.1458,0,.9063-.1979,1.6979-.5833,2.375-.3906.6667-.9375,1.1875-1.6458,1.5625-.6979.375-1.5208.5625-2.4792.5625Z"/>
      <path class="cls-10" d="M538.698,1013.481c-.1823,0-.3281-.0521-.4375-.1667-.099-.1094-.1458-.2396-.1458-.3958v-11.8125c0-.151.0521-.2813.1667-.3958.1094-.1094.2396-.1667.3958-.1667h6.7292c.151,0,.276.0573.375.1667.1094.099.1667.2292.1667.3958,0,.1406-.0573.2656-.1667.375-.099.099-.224.1458-.375.1458h-6.2292l.0625-.1042v4.9167l-.0833-.1667h5.4167c.151,0,.2812.0573.3958.1667.1094.099.1667.224.1667.375,0,.1563-.0573.2865-.1667.3958-.1146.099-.2448.1458-.3958.1458h-5.4583l.125-.1667v5.7292c0,.1562-.0573.2865-.1667.3958-.099.1146-.224.1667-.375.1667Z"/>
      <path class="cls-10" d="M549.5333,1012.9185c0,.1562-.0573.2865-.1667.3958-.1146.1146-.2448.1667-.3958.1667-.1667,0-.3073-.0521-.4167-.1667-.099-.1094-.1458-.2396-.1458-.3958v-12.5625c0-.1354.0521-.2604.1667-.375.1094-.1094.2396-.1667.3958-.1667.1667,0,.2969.0573.3958.1667.1094.1146.1667.2396.1667.375v12.5625Z"/>
      <path class="cls-10" d="M561.3464,1008.7518c0,.9323-.2031,1.7708-.6042,2.5208-.4062.75-.9583,1.3437-1.6667,1.7708-.6979.4167-1.4948.625-2.3958.625-.875,0-1.6667-.2083-2.375-.625-.7083-.4271-1.2708-1.0208-1.6875-1.7708s-.625-1.5885-.625-2.5208c0-.9427.2083-1.7812.625-2.5208.4167-.75.9792-1.3385,1.6875-1.7708.7083-.4271,1.5-.6458,2.375-.6458.901,0,1.6979.2187,2.3958.6458.7083.4323,1.2604,1.0208,1.6667,1.7708.401.7396.6042,1.5781.6042,2.5208ZM560.2422,1008.7518c0-.75-.1562-1.4167-.4583-2-.3073-.5833-.7292-1.0417-1.2708-1.375-.5313-.3438-1.1406-.5208-1.8333-.5208-.6667,0-1.2708.1771-1.8125.5208-.5417.3333-.974.7917-1.2917,1.375-.3073.5833-.4583,1.25-.4583,2s.151,1.4167.4583,2c.3177.5729.75,1.0312,1.2917,1.375.5417.3333,1.1458.5,1.8125.5.6927,0,1.3021-.1667,1.8333-.5.5417-.3438.9635-.8021,1.2708-1.375.3021-.5833.4583-1.25.4583-2Z"/>
      <path class="cls-10" d="M570.7797,1004.0851c.151,0,.2812.0573.3958.1667.1094.1146.1667.2448.1667.3958v5.2083c0,1.224-.349,2.1563-1.0417,2.7917-.6979.6406-1.625.9583-2.7917.9583-1.1563,0-2.0781-.3177-2.7708-.9583-.6823-.6354-1.0208-1.5677-1.0208-2.7917v-5.2083c0-.151.0469-.2813.1458-.3958.1094-.1094.25-.1667.4167-.1667.151,0,.276.0573.375.1667.1094.1146.1667.2448.1667.3958v5.2083c0,.8906.2344,1.5729.7083,2.0417.4844.4583,1.1458.6875,1.9792.6875.8437,0,1.5052-.2292,1.9792-.6875.4844-.4687.7292-1.151.7292-2.0417v-5.2083c0-.151.0469-.2813.1458-.3958.0938-.1094.2344-.1667.4167-.1667Z"/>
      <path class="cls-10" d="M574.7954,1013.481c-.1823,0-.3229-.0521-.4167-.1667-.099-.1094-.1458-.2396-.1458-.3958v-8.2708c0-.151.0469-.2813.1458-.3958.1094-.1094.25-.1667.4167-.1667.151,0,.276.0573.375.1667.1094.1146.1667.2448.1667.3958v2.7708l-.2708.0625c.0417-.4271.1458-.8594.3125-1.2917.1771-.4271.4219-.8177.7292-1.1667.3177-.3594.6875-.651,1.1042-.875.4271-.2187.9062-.3333,1.4375-.3333.2187,0,.4375.0521.6458.1458.2083.0833.3125.2292.3125.4375,0,.1979-.0521.3437-.1458.4375-.099.099-.2188.1458-.3542.1458-.1146,0-.2292-.026-.3542-.0833-.125-.0677-.2917-.1042-.5-.1042-.349,0-.6979.1042-1.0417.3125-.349.1979-.6667.4687-.9583.8125-.2812.349-.5.7396-.6667,1.1667-.1667.4167-.25.8438-.25,1.2708v4.5625c0,.1562-.0573.2865-.1667.3958-.1146.1146-.2396.1667-.375.1667Z"/>
      <path class="cls-10" d="M582.4314,1012.9185c0,.1562-.0573.2865-.1667.3958-.1146.1146-.2448.1667-.3958.1667-.1667,0-.3073-.0521-.4167-.1667-.099-.1094-.1458-.2396-.1458-.3958v-8.5c0-.1354.0469-.2604.1458-.375.1094-.1094.25-.1667.4167-.1667.151,0,.2812.0573.3958.1667.1094.1146.1667.2396.1667.375v8.5ZM581.8689,1002.6268c-.2656,0-.4688-.0521-.6042-.1667-.125-.1094-.1875-.276-.1875-.5v-.1875c0-.2187.0677-.3854.2083-.5.151-.125.3438-.1875.5833-.1875.2344,0,.4167.0625.5417.1875.1354.1146.2083.2813.2083.5v.1875c0,.224-.0729.3906-.2083.5-.125.1146-.3073.1667-.5417.1667Z"/>
      <path class="cls-10" d="M584.7614,1011.981c-.099-.1354-.1458-.276-.1458-.4167.0104-.151.0938-.2708.25-.3542.0938-.0833.2083-.1146.3333-.1042.1354,0,.2552.0573.3542.1667.3333.4323.7344.7865,1.2083,1.0625.4844.2656,1.0521.3958,1.7083.3958.3437,0,.6875-.0521,1.0208-.1667.3333-.125.6094-.3021.8333-.5417.2188-.25.3333-.5521.3333-.9167,0-.3854-.1146-.6979-.3333-.9375-.224-.2344-.5104-.4167-.8542-.5417-.349-.1354-.724-.2552-1.125-.3542-.4167-.1094-.8229-.2344-1.2083-.375-.3906-.151-.7396-.3333-1.0417-.5417-.3073-.2187-.5573-.4844-.75-.7917-.1823-.3021-.2708-.6771-.2708-1.125,0-.5104.1354-.9635.4167-1.3542.2917-.401.6771-.7135,1.1667-.9375.4844-.2187,1.0417-.3333,1.6667-.3333.3021,0,.6302.0417.9792.125.3594.0833.7135.2187,1.0625.3958.3438.1823.651.4323.9167.75.1094.1146.1667.2448.1667.3958,0,.1406-.0573.2656-.1667.375-.1146.0729-.2292.1042-.3542.1042s-.2292-.0469-.3125-.1458c-.3073-.3333-.6615-.5833-1.0625-.75-.4063-.1771-.8437-.2708-1.3125-.2708-.3646,0-.7031.0625-1.0208.1875-.3073.1146-.5625.2865-.7708.5208-.2083.2396-.3125.5417-.3125.9167.026.3646.151.6562.375.875.2344.224.5417.4115.9167.5625.375.1406.7917.2708,1.25.3958.401.099.7813.2188,1.1458.3542.3594.1406.6771.3125.9583.5208.276.1979.5.4479.6667.75.1667.3073.25.6979.25,1.1667,0,.5417-.1562,1.0156-.4583,1.4167-.2917.3906-.6979.6875-1.2083.8958-.5.2083-1.0625.3125-1.6875.3125-.6563,0-1.2917-.125-1.9167-.375-.625-.2604-1.1823-.6979-1.6667-1.3125Z"/>
      <path class="cls-10" d="M598.2832,1003.9601c.776,0,1.401.1667,1.875.5.4844.3333.8385.7865,1.0625,1.3542.2344.5729.3542,1.1979.3542,1.875v5.2292c0,.1562-.0573.2865-.1667.3958-.1146.1146-.2448.1667-.3958.1667-.1667,0-.3073-.0521-.4167-.1667-.099-.1094-.1458-.2396-.1458-.3958v-5.2292c0-.5-.0781-.9479-.2292-1.3542-.1563-.4167-.4063-.7396-.75-.9792-.3333-.2344-.7917-.3542-1.375-.3542-.5156,0-1.0104.1198-1.4792.3542-.4583.2396-.8333.5625-1.125.9792-.2812.4062-.4167.8542-.4167,1.3542v5.2292c0,.1562-.0573.2865-.1667.3958-.1146.1146-.2396.1667-.375.1667-.1823,0-.3229-.0521-.4167-.1667-.099-.1094-.1458-.2396-.1458-.3958v-12.5625c0-.1354.0469-.2604.1458-.375.1094-.1094.25-.1667.4167-.1667.151,0,.276.0573.375.1667.1094.1146.1667.2396.1667.375v6l-.4167.6458c.026-.3854.1458-.7604.3542-1.125.2187-.3594.5-.6875.8333-.9792.3437-.2917.7292-.5208,1.1458-.6875.4271-.1667.8594-.25,1.2917-.25Z"/>
      <path class="cls-10" d="M615.5965,1013.6685c-.9479,0-1.8281-.1667-2.6458-.5-.8073-.3333-1.5156-.7969-2.125-1.3958-.599-.5937-1.0625-1.2969-1.3958-2.1042-.3229-.8177-.4792-1.6979-.4792-2.6458,0-.9583.1562-1.8385.4792-2.6458.3333-.8177.7969-1.526,1.3958-2.125.6094-.5938,1.3177-1.0625,2.125-1.3958.8177-.3333,1.6979-.5,2.6458-.5.651,0,1.2813.0781,1.8958.2292.6094.1562,1.151.3906,1.625.7083.0938.0573.1667.125.2083.2083s.0625.1667.0625.25c0,.1667-.0573.3073-.1667.4167-.1146.099-.2292.1458-.3542.1458-.0729,0-.1354-.0052-.1875-.0208-.0573-.0104-.1042-.0312-.1458-.0625-.4167-.2344-.875-.4219-1.375-.5625-.4896-.1354-1.0104-.2083-1.5625-.2083-1.0573,0-2,.2448-2.8333.7292-.8229.4896-1.4687,1.1458-1.9375,1.9792-.474.8333-.7083,1.7865-.7083,2.8542,0,1.0573.2344,2,.7083,2.8333.4688.8333,1.1146,1.4948,1.9375,1.9792.8333.4896,1.776.7292,2.8333.7292.5521,0,1.1094-.0729,1.6667-.2292.5677-.1667,1.0521-.3854,1.4583-.6667l-.1042.3958v-4.25l.2917.25h-3.2083c-.1562,0-.2865-.0521-.3958-.1667-.1146-.1094-.1667-.2344-.1667-.375,0-.1771.0521-.3177.1667-.4167.1094-.0937.2396-.1458.3958-.1458h3.5417c.151,0,.276.0573.375.1667.1094.099.1667.2292.1667.3958v4.4375c0,.099-.0312.1979-.0833.2917-.0417.0833-.1042.1562-.1875.2083-.5417.375-1.1563.6771-1.8333.8958-.6667.2083-1.3646.3125-2.0833.3125Z"/>
      <path class="cls-10" d="M622.9199,1013.481c-.1823,0-.3229-.0521-.4167-.1667-.099-.1094-.1458-.2396-.1458-.3958v-8.2708c0-.151.0469-.2813.1458-.3958.1094-.1094.25-.1667.4167-.1667.151,0,.276.0573.375.1667.1094.1146.1667.2448.1667.3958v2.7708l-.2708.0625c.0417-.4271.1458-.8594.3125-1.2917.1771-.4271.4219-.8177.7292-1.1667.3177-.3594.6875-.651,1.1042-.875.4271-.2187.9062-.3333,1.4375-.3333.2187,0,.4375.0521.6458.1458.2083.0833.3125.2292.3125.4375,0,.1979-.0521.3437-.1458.4375-.099.099-.2188.1458-.3542.1458-.1146,0-.2292-.026-.3542-.0833-.125-.0677-.2917-.1042-.5-.1042-.349,0-.6979.1042-1.0417.3125-.349.1979-.6667.4687-.9583.8125-.2812.349-.5.7396-.6667,1.1667-.1667.4167-.25.8438-.25,1.2708v4.5625c0,.1562-.0573.2865-.1667.3958-.1146.1146-.2396.1667-.375.1667Z"/>
      <path class="cls-10" d="M637.2226,1004.0435c.151,0,.276.0573.375.1667.1094.1146.1667.2448.1667.3958v8.3125c0,.1562-.0573.2865-.1667.3958-.1146.1146-.2396.1667-.375.1667-.1667,0-.3073-.0521-.4167-.1667-.099-.1094-.1458-.2396-.1458-.3958v-2.1875l.3125-.1458c0,.349-.099.7031-.2917,1.0625-.1823.349-.4375.6771-.7708.9792-.3333.3073-.7292.5573-1.1875.75-.4479.1927-.9271.2917-1.4375.2917-.849,0-1.599-.2135-2.25-.6458-.6562-.4271-1.1771-1.0208-1.5625-1.7708-.375-.75-.5625-1.5938-.5625-2.5417,0-.9583.1875-1.8021.5625-2.5417.3854-.7344.9063-1.3125,1.5625-1.7292.651-.4167,1.3958-.625,2.2292-.625.526,0,1.0208.099,1.4792.2917.4688.1823.875.4323,1.2083.75.3438.3229.6146.6875.8125,1.1042.1927.4062.2917.8281.2917,1.2708l-.3958-.2708v-2.3542c0-.151.0469-.2813.1458-.3958.1094-.1094.25-.1667.4167-.1667ZM633.3684,1012.6268c.651,0,1.2292-.1667,1.7292-.5.5104-.3438.9167-.8177,1.2083-1.4167.2917-.5938.4375-1.2604.4375-2,0-.7188-.1458-1.375-.4375-1.9583s-.6979-1.0417-1.2083-1.375c-.5-.3438-1.0781-.5208-1.7292-.5208-.6406,0-1.2188.1667-1.7292.5-.5156.3333-.9167.7917-1.2083,1.375-.2813.5729-.4167,1.2292-.4167,1.9792,0,.7396.1354,1.4062.4167,2,.2917.599.6875,1.0729,1.1875,1.4167.5104.3333,1.0938.5,1.75.5Z"/>
      <path class="cls-10" d="M645.1721,1003.9601c.8333,0,1.5677.2083,2.2083.625.651.4167,1.1667.9896,1.5417,1.7083.3854.7083.5833,1.5365.5833,2.4792,0,.9323-.1979,1.7656-.5833,2.5-.375.724-.8906,1.2917-1.5417,1.7083-.6563.4167-1.3906.625-2.2083.625-.4323,0-.8437-.0625-1.2292-.1875-.375-.125-.7292-.2969-1.0625-.5208-.3229-.2187-.6042-.4844-.8542-.7917-.2396-.3021-.4323-.6354-.5833-1l.3333-.2292v5.75c0,.1354-.0573.2604-.1667.375-.099.1094-.224.1667-.375.1667-.1667,0-.3073-.0573-.4167-.1667-.099-.1146-.1458-.2396-.1458-.375v-12.0625c0-.151.0469-.2813.1458-.3958.0938-.1094.2344-.1667.4167-.1667.151,0,.276.0573.375.1667.1094.1146.1667.2448.1667.3958v2l-.25-.1458c.125-.375.3021-.7135.5417-1.0208.2344-.3021.5104-.5625.8333-.7708.3177-.2188.6667-.3854,1.0417-.5.3854-.1094.7969-.1667,1.2292-.1667ZM645.0679,1005.0018c-.6667,0-1.25.1667-1.75.5-.5.3229-.8958.7656-1.1875,1.3333-.2917.5573-.4375,1.2031-.4375,1.9375,0,.724.1458,1.375.4375,1.9583s.6875,1.0417,1.1875,1.375c.5.3229,1.0833.4792,1.75.4792.651,0,1.2292-.1562,1.7292-.4792.5-.3333.8958-.7917,1.1875-1.375.3021-.5833.4583-1.2344.4583-1.9583,0-.7344-.1562-1.3802-.4583-1.9375-.2917-.5677-.6875-1.0104-1.1875-1.3333-.5-.3333-1.0781-.5-1.7292-.5Z"/>
      <path class="cls-10" d="M656.1841,1003.9601c.776,0,1.401.1667,1.875.5.4844.3333.8385.7865,1.0625,1.3542.2344.5729.3542,1.1979.3542,1.875v5.2292c0,.1562-.0573.2865-.1667.3958-.1146.1146-.2448.1667-.3958.1667-.1667,0-.3073-.0521-.4167-.1667-.099-.1094-.1458-.2396-.1458-.3958v-5.2292c0-.5-.0781-.9479-.2292-1.3542-.1563-.4167-.4063-.7396-.75-.9792-.3333-.2344-.7917-.3542-1.375-.3542-.5156,0-1.0104.1198-1.4792.3542-.4583.2396-.8333.5625-1.125.9792-.2812.4062-.4167.8542-.4167,1.3542v5.2292c0,.1562-.0573.2865-.1667.3958-.1146.1146-.2396.1667-.375.1667-.1823,0-.3229-.0521-.4167-.1667-.099-.1094-.1458-.2396-.1458-.3958v-12.5625c0-.1354.0469-.2604.1458-.375.1094-.1094.25-.1667.4167-.1667.151,0,.276.0573.375.1667.1094.1146.1667.2396.1667.375v6l-.4167.6458c.026-.3854.1458-.7604.3542-1.125.2187-.3594.5-.6875.8333-.9792.3437-.2917.7292-.5208,1.1458-.6875.4271-.1667.8594-.25,1.2917-.25Z"/>
      <path class="cls-10" d="M663.4521,1012.9185c0,.1562-.0573.2865-.1667.3958-.1146.1146-.2448.1667-.3958.1667-.1667,0-.3073-.0521-.4167-.1667-.099-.1094-.1458-.2396-.1458-.3958v-8.5c0-.1354.0469-.2604.1458-.375.1094-.1094.25-.1667.4167-.1667.151,0,.2812.0573.3958.1667.1094.1146.1667.2396.1667.375v8.5ZM662.8896,1002.6268c-.2656,0-.4688-.0521-.6042-.1667-.125-.1094-.1875-.276-.1875-.5v-.1875c0-.2187.0677-.3854.2083-.5.151-.125.3438-.1875.5833-.1875.2344,0,.4167.0625.5417.1875.1354.1146.2083.2813.2083.5v.1875c0,.224-.0729.3906-.2083.5-.125.1146-.3073.1667-.5417.1667Z"/>
      <path class="cls-10" d="M670.4904,1003.8143c.5833,0,1.1146.0729,1.6042.2083.5.125.901.3021,1.2083.5208.3021.224.4583.4583.4583.7083,0,.125-.0521.25-.1458.375-.0833.1146-.1979.1667-.3333.1667-.1563,0-.2813-.0312-.375-.1042-.0833-.0833-.1771-.1719-.2708-.2708-.099-.0938-.2292-.1875-.3958-.2708-.1667-.0677-.3958-.1302-.6875-.1875-.2917-.0677-.6354-.1042-1.0208-.1042-.6823,0-1.3021.1771-1.8542.5208-.5573.3333-.9948.8021-1.3125,1.3958-.3229.5833-.4792,1.2396-.4792,1.9583,0,.7396.151,1.4063.4583,2,.3021.5833.7292,1.0521,1.2708,1.3958.5417.3333,1.1719.5,1.8958.5.5,0,.8802-.0417,1.1458-.125.276-.0833.5104-.1771.7083-.2917.2344-.1354.401-.2708.5-.3958.1094-.1354.25-.2083.4167-.2083s.2917.0521.375.1458c.0833.099.125.2188.125.3542,0,.2083-.1458.4323-.4375.6667-.2917.2396-.6979.4479-1.2083.625-.5.1771-1.0781.2708-1.7292.2708-.9167,0-1.7292-.2135-2.4375-.6458-.6979-.4271-1.2396-1.0208-1.625-1.7708-.3906-.75-.5833-1.5885-.5833-2.5208,0-.901.1927-1.7187.5833-2.4583.401-.7344.9583-1.3229,1.6667-1.7708.7083-.4583,1.5312-.6875,2.4792-.6875Z"/>
      <path class="cls-10" d="M675.3552,1011.981c-.099-.1354-.1458-.276-.1458-.4167.0104-.151.0938-.2708.25-.3542.0938-.0833.2083-.1146.3333-.1042.1354,0,.2552.0573.3542.1667.3333.4323.7344.7865,1.2083,1.0625.4844.2656,1.0521.3958,1.7083.3958.3437,0,.6875-.0521,1.0208-.1667.3333-.125.6094-.3021.8333-.5417.2188-.25.3333-.5521.3333-.9167,0-.3854-.1146-.6979-.3333-.9375-.224-.2344-.5104-.4167-.8542-.5417-.349-.1354-.724-.2552-1.125-.3542-.4167-.1094-.8229-.2344-1.2083-.375-.3906-.151-.7396-.3333-1.0417-.5417-.3073-.2187-.5573-.4844-.75-.7917-.1823-.3021-.2708-.6771-.2708-1.125,0-.5104.1354-.9635.4167-1.3542.2917-.401.6771-.7135,1.1667-.9375.4844-.2187,1.0417-.3333,1.6667-.3333.3021,0,.6302.0417.9792.125.3594.0833.7135.2187,1.0625.3958.3438.1823.651.4323.9167.75.1094.1146.1667.2448.1667.3958,0,.1406-.0573.2656-.1667.375-.1146.0729-.2292.1042-.3542.1042s-.2292-.0469-.3125-.1458c-.3073-.3333-.6615-.5833-1.0625-.75-.4063-.1771-.8437-.2708-1.3125-.2708-.3646,0-.7031.0625-1.0208.1875-.3073.1146-.5625.2865-.7708.5208-.2083.2396-.3125.5417-.3125.9167.026.3646.151.6562.375.875.2344.224.5417.4115.9167.5625.375.1406.7917.2708,1.25.3958.401.099.7813.2188,1.1458.3542.3594.1406.6771.3125.9583.5208.276.1979.5.4479.6667.75.1667.3073.25.6979.25,1.1667,0,.5417-.1562,1.0156-.4583,1.4167-.2917.3906-.6979.6875-1.2083.8958-.5.2083-1.0625.3125-1.6875.3125-.6563,0-1.2917-.125-1.9167-.375-.625-.2604-1.1823-.6979-1.6667-1.3125Z"/>
      <path class="cls-10" d="M684.7103,1013.481c-.2083,0-.3698-.0677-.4792-.2083-.1146-.1354-.1667-.3125-.1667-.5208v-.375c0-.2188.0521-.3958.1667-.5208.1094-.125.2708-.1875.4792-.1875h.125c.2083,0,.3646.0625.4792.1875.1094.125.1667.3021.1667.5208v.375c0,.2083-.0573.3854-.1667.5208-.1146.1406-.2708.2083-.4792.2083h-.125Z"/>
      <path class="cls-10" d="M702.7049,1000.5435c.151,0,.2708.0521.3542.1458.0938.099.1458.224.1458.375v11.8333c0,.1823-.0573.3281-.1667.4375-.1146.099-.2448.1458-.3958.1458-.0729,0-.1562-.0104-.25-.0417-.0833-.026-.1458-.0729-.1875-.1458l-8.25-11.1042.3125-.1667v10.9583c0,.1406-.0521.2604-.1458.3542-.099.099-.224.1458-.375.1458-.1563,0-.2813-.0469-.375-.1458-.099-.0938-.1458-.2135-.1458-.3542v-11.875c0-.1927.0521-.3333.1667-.4167.1094-.0937.2344-.1458.375-.1458.0677,0,.1458.0208.2292.0625.0937.0313.1667.0781.2083.1458l8.1667,10.9792-.1875.3333v-11c0-.151.0469-.276.1458-.375.1094-.0937.2344-.1458.375-.1458Z"/>
      <path class="cls-10" d="M710.6799,1013.6685c-.9479,0-1.7865-.1979-2.5208-.6042-.724-.4167-1.2917-.9844-1.7083-1.7083-.4063-.7187-.6042-1.5677-.6042-2.5417,0-1.0521.2083-1.9479.625-2.6875.4167-.7344.9479-1.3021,1.6042-1.7083.6667-.401,1.3646-.6042,2.1042-.6042.5417,0,1.0677.099,1.5833.2917.5104.1979.9635.4792,1.3542.8542.401.375.7187.8333.9583,1.375.25.5417.3854,1.1667.4167,1.875-.0156.1562-.0781.2865-.1875.3958-.1146.099-.2448.1458-.3958.1458h-7.3958l-.2292-1h7.2708l-.2292.2292v-.375c-.0573-.5833-.2448-1.0729-.5625-1.4792-.3229-.401-.7083-.7083-1.1667-.9167s-.9323-.3125-1.4167-.3125c-.375,0-.7604.0781-1.1458.2292-.375.1406-.724.3698-1.0417.6875-.3229.3073-.5781.7031-.7708,1.1875-.1979.4896-.2917,1.0625-.2917,1.7292,0,.724.1458,1.3854.4375,1.9792.2917.599.7135,1.0729,1.2708,1.4167.5677.3333,1.2396.5,2.0208.5.4271,0,.8177-.0625,1.1667-.1875.3437-.125.6458-.2813.8958-.4792.2604-.2083.4792-.4219.6458-.6458.1354-.1094.276-.1667.4167-.1667.125,0,.2292.0521.3125.1458.0938.099.1458.2083.1458.3333,0,.1562-.0625.2865-.1875.3958-.3646.4479-.8438.8333-1.4375,1.1667-.5833.3177-1.2292.4792-1.9375.4792Z"/>
      <path class="cls-10" d="M728.0591,1003.8351c.1354,0,.2604.0521.375.1458.125.099.1875.2396.1875.4167,0,.0313-.0104.0729-.0208.125-.0156.0417-.0313.0781-.0417.1042l-2.8333,8.5c-.0573.1146-.1406.2031-.25.2708-.099.0729-.2031.0938-.3125.0833-.224-.0104-.3906-.1302-.5-.3542l-2.6042-6.125.3333.0625-2.3125,6.0625c-.099.224-.2656.3438-.5.3542-.1146.0104-.224-.0104-.3333-.0833-.1146-.0677-.1823-.1563-.2083-.2708l-2.9167-8.5c-.0417-.0833-.0625-.1562-.0625-.2292,0-.1667.0469-.2969.1458-.3958.1094-.1094.25-.1667.4167-.1667.1094,0,.2135.0365.3125.1042.0937.0573.1563.1458.1875.2708l2.625,7.875-.3542-.0208,2.3958-6.0208c.0938-.2188.2708-.3333.5208-.3333.125,0,.2292.0312.3125.0833.0833.0573.151.1406.2083.25l2.5208,6.0417h-.3958l2.6042-7.875c.0677-.25.2344-.375.5-.375Z"/>
      <path class="cls-10" d="M743.7729,1000.481c.1667,0,.2969.0573.3958.1667.1094.1146.1667.2396.1667.375,0,.0729-.0156.1354-.0417.1875-.0156.0573-.0365.1146-.0625.1667l-4.3542,5.9792.2292-.7292v6.2917c0,.1562-.0573.2865-.1667.3958-.1146.1146-.25.1667-.4167.1667-.1562,0-.2865-.0521-.3958-.1667-.099-.1094-.1458-.2396-.1458-.3958v-6.1667l.0833.4375-4.2292-5.7708c-.0573-.0677-.099-.1302-.125-.1875-.0156-.0677-.0208-.1354-.0208-.2083,0-.151.0625-.276.1875-.375.125-.1094.2552-.1667.3958-.1667.1927,0,.3438.0833.4583.25l3.9792,5.4167-.2708-.0417,3.8542-5.375c.125-.1667.2813-.25.4792-.25Z"/>
      <path class="cls-10" d="M754.9163,1008.7518c0,.9323-.2031,1.7708-.6042,2.5208-.4062.75-.9583,1.3437-1.6667,1.7708-.6979.4167-1.4948.625-2.3958.625-.875,0-1.6667-.2083-2.375-.625-.7083-.4271-1.2708-1.0208-1.6875-1.7708s-.625-1.5885-.625-2.5208c0-.9427.2083-1.7812.625-2.5208.4167-.75.9792-1.3385,1.6875-1.7708.7083-.4271,1.5-.6458,2.375-.6458.901,0,1.6979.2187,2.3958.6458.7083.4323,1.2604,1.0208,1.6667,1.7708.401.7396.6042,1.5781.6042,2.5208ZM753.8122,1008.7518c0-.75-.1562-1.4167-.4583-2-.3073-.5833-.7292-1.0417-1.2708-1.375-.5313-.3438-1.1406-.5208-1.8333-.5208-.6667,0-1.2708.1771-1.8125.5208-.5417.3333-.974.7917-1.2917,1.375-.3073.5833-.4583,1.25-.4583,2s.151,1.4167.4583,2c.3177.5729.75,1.0312,1.2917,1.375.5417.3333,1.1458.5,1.8125.5.6927,0,1.3021-.1667,1.8333-.5.5417-.3438.9635-.8021,1.2708-1.375.3021-.5833.4583-1.25.4583-2Z"/>
      <path class="cls-10" d="M757.8497,1013.481c-.1823,0-.3229-.0521-.4167-.1667-.099-.1094-.1458-.2396-.1458-.3958v-8.2708c0-.151.0469-.2813.1458-.3958.1094-.1094.25-.1667.4167-.1667.151,0,.276.0573.375.1667.1094.1146.1667.2448.1667.3958v2.7708l-.2708.0625c.0417-.4271.1458-.8594.3125-1.2917.1771-.4271.4219-.8177.7292-1.1667.3177-.3594.6875-.651,1.1042-.875.4271-.2187.9062-.3333,1.4375-.3333.2187,0,.4375.0521.6458.1458.2083.0833.3125.2292.3125.4375,0,.1979-.0521.3437-.1458.4375-.099.099-.2188.1458-.3542.1458-.1146,0-.2292-.026-.3542-.0833-.125-.0677-.2917-.1042-.5-.1042-.349,0-.6979.1042-1.0417.3125-.349.1979-.6667.4687-.9583.8125-.2812.349-.5.7396-.6667,1.1667-.1667.4167-.25.8438-.25,1.2708v4.5625c0,.1562-.0573.2865-.1667.3958-.1146.1146-.2396.1667-.375.1667Z"/>
      <path class="cls-10" d="M765.069,1013.481c-.1667,0-.3073-.0521-.4167-.1667-.099-.1094-.1458-.2396-.1458-.3958v-12.5625c0-.1354.0469-.2604.1458-.375.1094-.1094.25-.1667.4167-.1667s.2969.0573.3958.1667c.1094.1146.1667.2396.1667.375v12.5625c0,.1562-.0573.2865-.1667.3958-.099.1146-.2292.1667-.3958.1667ZM771.3607,1004.0018c.125,0,.2396.0625.3542.1875.1094.1146.1667.2396.1667.375,0,.1563-.0625.2917-.1875.4167l-6.2083,5.2917-.0625-1.3125,5.5417-4.7708c.1094-.125.2396-.1875.3958-.1875ZM771.5065,1013.481c-.1667,0-.3073-.0677-.4167-.2083l-4.2083-4.4583.8333-.7708,4.1667,4.4583c.1094.125.1667.2656.1667.4167,0,.1823-.0729.3229-.2083.4167-.125.099-.2396.1458-.3333.1458Z"/>
      <path class="cls-10" d="M775.7689,1013.6268c0,.3333-.099.651-.2917.9583-.1979.3177-.4375.5833-.7292.7917-.2813.2083-.5573.3125-.8333.3125-.099,0-.1979-.0365-.2917-.1042-.0833-.0573-.125-.1771-.125-.3542,0-.1667.0521-.2656.1667-.2917.125-.0156.2708-.0729.4375-.1667.2083-.099.3646-.224.4792-.375.1094-.1406.1667-.3073.1667-.5,0-.1667-.0521-.2917-.1458-.375-.0833-.0833-.1875-.125-.3125-.125-.0833,0-.1771.0156-.2708.0417-.0833.0156-.1615.0469-.2292.1042-.0573-.0677-.1146-.1354-.1667-.2083-.0417-.0677-.0625-.1562-.0625-.2708.026-.2083.1458-.3854.3542-.5417.2083-.1667.4427-.25.7083-.25.3333,0,.6042.1406.8125.4167.2188.2656.3333.5781.3333.9375Z"/>
      <path class="cls-10" d="M792.6703,1000.5435c.151,0,.2708.0521.3542.1458.0938.099.1458.224.1458.375v11.8333c0,.1823-.0573.3281-.1667.4375-.1146.099-.2448.1458-.3958.1458-.0729,0-.1562-.0104-.25-.0417-.0833-.026-.1458-.0729-.1875-.1458l-8.25-11.1042.3125-.1667v10.9583c0,.1406-.0521.2604-.1458.3542-.099.099-.224.1458-.375.1458-.1563,0-.2813-.0469-.375-.1458-.099-.0938-.1458-.2135-.1458-.3542v-11.875c0-.1927.0521-.3333.1667-.4167.1094-.0937.2344-.1458.375-.1458.0677,0,.1458.0208.2292.0625.0937.0313.1667.0781.2083.1458l8.1667,10.9792-.1875.3333v-11c0-.151.0469-.276.1458-.375.1094-.0937.2344-.1458.375-.1458Z"/>
      <path class="cls-10" d="M804.3536,1000.481c.1667,0,.2969.0573.3958.1667.1094.1146.1667.2396.1667.375,0,.0729-.0156.1354-.0417.1875-.0156.0573-.0365.1146-.0625.1667l-4.3542,5.9792.2292-.7292v6.2917c0,.1562-.0573.2865-.1667.3958-.1146.1146-.25.1667-.4167.1667-.1562,0-.2865-.0521-.3958-.1667-.099-.1094-.1458-.2396-.1458-.3958v-6.1667l.0833.4375-4.2292-5.7708c-.0573-.0677-.099-.1302-.125-.1875-.0156-.0677-.0208-.1354-.0208-.2083,0-.151.0625-.276.1875-.375.125-.1094.2552-.1667.3958-.1667.1927,0,.3438.0833.4583.25l3.9792,5.4167-.2708-.0417,3.8542-5.375c.125-.1667.2813-.25.4792-.25Z"/>
      <path class="cls-10" d="M806.8512,1013.481c-.2083,0-.3698-.0677-.4792-.2083-.1146-.1354-.1667-.3125-.1667-.5208v-.375c0-.2188.0521-.3958.1667-.5208.1094-.125.2708-.1875.4792-.1875h.125c.2083,0,.3646.0625.4792.1875.1094.125.1667.3021.1667.5208v.375c0,.2083-.0573.3854-.1667.5208-.1146.1406-.2708.2083-.4792.2083h-.125Z"/>
      <path class="cls-10" d="M819.6999,1001.9601l-4.5,11.1667c-.0417.125-.1146.224-.2083.2917-.0833.0573-.1823.0833-.2917.0833-.1667,0-.2917-.0417-.375-.125-.0833-.0938-.1354-.2135-.1458-.3542-.0156-.0677-.0104-.1458.0208-.2292l4.875-11.9375c.0521-.1354.1302-.2344.2292-.2917.0937-.0521.1979-.0833.3125-.0833.125,0,.2344.0365.3333.1042.0938.0729.1667.1615.2083.2708l4.8542,11.8958c.026.0729.0417.1406.0417.2083,0,.1823-.0573.3229-.1667.4167-.1146.0833-.2396.125-.375.125-.125,0-.2396-.0313-.3333-.1042-.099-.0677-.1667-.1563-.2083-.2708l-4.6042-11.2292.3333.0625ZM816.2832,1009.7518l.4583-1.1042h5.7292l.2292,1.1042h-6.4167Z"/>
      <path class="cls-10" d="M828.2821,1012.9185c0,.1562-.0573.2865-.1667.3958-.1146.1146-.2448.1667-.3958.1667-.1667,0-.3073-.0521-.4167-.1667-.099-.1094-.1458-.2396-.1458-.3958v-12.5625c0-.1354.0521-.2604.1667-.375.1094-.1094.2396-.1667.3958-.1667.1667,0,.2969.0573.3958.1667.1094.1146.1667.2396.1667.375v12.5625Z"/>
      <path class="cls-10" d="M832.5328,1012.9185c0,.1562-.0573.2865-.1667.3958-.1146.1146-.2448.1667-.3958.1667-.1667,0-.3073-.0521-.4167-.1667-.099-.1094-.1458-.2396-.1458-.3958v-12.5625c0-.1354.0521-.2604.1667-.375.1094-.1094.2396-.1667.3958-.1667.1667,0,.2969.0573.3958.1667.1094.1146.1667.2396.1667.375v12.5625Z"/>
      <path class="cls-10" d="M841.162,1013.481c-.1823,0-.3229-.0521-.4167-.1667-.099-.1094-.1458-.2396-.1458-.3958v-8.2708c0-.151.0469-.2813.1458-.3958.1094-.1094.25-.1667.4167-.1667.151,0,.276.0573.375.1667.1094.1146.1667.2448.1667.3958v2.7708l-.2708.0625c.0417-.4271.1458-.8594.3125-1.2917.1771-.4271.4219-.8177.7292-1.1667.3177-.3594.6875-.651,1.1042-.875.4271-.2187.9062-.3333,1.4375-.3333.2187,0,.4375.0521.6458.1458.2083.0833.3125.2292.3125.4375,0,.1979-.0521.3437-.1458.4375-.099.099-.2188.1458-.3542.1458-.1146,0-.2292-.026-.3542-.0833-.125-.0677-.2917-.1042-.5-.1042-.349,0-.6979.1042-1.0417.3125-.349.1979-.6667.4687-.9583.8125-.2812.349-.5.7396-.6667,1.1667-.1667.4167-.25.8438-.25,1.2708v4.5625c0,.1562-.0573.2865-.1667.3958-.1146.1146-.2396.1667-.375.1667Z"/>
      <path class="cls-10" d="M848.798,1012.9185c0,.1562-.0573.2865-.1667.3958-.1146.1146-.2448.1667-.3958.1667-.1667,0-.3073-.0521-.4167-.1667-.099-.1094-.1458-.2396-.1458-.3958v-8.5c0-.1354.0469-.2604.1458-.375.1094-.1094.25-.1667.4167-.1667.151,0,.2812.0573.3958.1667.1094.1146.1667.2396.1667.375v8.5ZM848.2355,1002.6268c-.2656,0-.4688-.0521-.6042-.1667-.125-.1094-.1875-.276-.1875-.5v-.1875c0-.2187.0677-.3854.2083-.5.151-.125.3438-.1875.5833-.1875.2344,0,.4167.0625.5417.1875.1354.1146.2083.2813.2083.5v.1875c0,.224-.0729.3906-.2083.5-.125.1146-.3073.1667-.5417.1667Z"/>
      <path class="cls-10" d="M855.6071,1003.8143c.5521,0,1.0625.099,1.5208.2917.4687.1979.8802.4479,1.2292.75.3594.2917.6354.6146.8333.9583.1927.3333.2917.6563.2917.9583l-.3125-.4375v-1.7292c0-.151.0469-.2813.1458-.3958.1094-.1094.25-.1667.4167-.1667s.2969.0573.3958.1667c.0937.1146.1458.2448.1458.3958v8c0,.9844-.2031,1.8177-.6042,2.5-.4063.6771-.9531,1.1927-1.6458,1.5417-.6979.3437-1.4896.5208-2.375.5208-.4323,0-.8906-.0573-1.375-.1667-.474-.1146-.875-.25-1.2083-.4167s-.5208-.349-.5625-.5417c-.099-.1146-.1458-.224-.1458-.3333.0104-.099.0677-.1823.1667-.25.125-.0833.25-.099.375-.0417.1354.0677.3438.1562.625.2708.125.0417.2917.0937.5.1667.2083.0833.4479.151.7292.2083.2917.0521.6042.0833.9375.0833,1.0938,0,1.9479-.3229,2.5625-.9583.6094-.6406.9167-1.474.9167-2.5v-1.7708l.2083.0417c-.1146.4479-.2917.8333-.5417,1.1667s-.5521.6198-.8958.8542c-.349.224-.724.3906-1.125.5-.4062.125-.8021.1875-1.1875.1875-.849,0-1.6146-.2135-2.2917-.6458-.6823-.4271-1.224-1.0104-1.625-1.75-.4063-.75-.6042-1.5937-.6042-2.5417,0-.9271.1979-1.7708.6042-2.5208.401-.75.9375-1.3333,1.6042-1.75.6771-.4271,1.4427-.6458,2.2917-.6458ZM855.7321,1004.856c-.6823,0-1.2917.1771-1.8333.5208-.5312.3333-.9479.7917-1.25,1.375-.2917.5833-.4375,1.2448-.4375,1.9792,0,.7396.1458,1.4063.4375,2,.3021.5833.7188,1.0521,1.25,1.3958.5417.3333,1.151.5,1.8333.5.6771,0,1.2812-.1667,1.8125-.5.526-.3333.9427-.7917,1.25-1.375.3177-.5833.4792-1.2552.4792-2.0208,0-.7604-.1615-1.4375-.4792-2.0208-.3073-.5833-.724-1.0312-1.25-1.3542-.5313-.3333-1.1354-.5-1.8125-.5Z"/>
      <path class="cls-10" d="M867.5143,1003.9601c.776,0,1.401.1667,1.875.5.4844.3333.8385.7865,1.0625,1.3542.2344.5729.3542,1.1979.3542,1.875v5.2292c0,.1562-.0573.2865-.1667.3958-.1146.1146-.2448.1667-.3958.1667-.1667,0-.3073-.0521-.4167-.1667-.099-.1094-.1458-.2396-.1458-.3958v-5.2292c0-.5-.0781-.9479-.2292-1.3542-.1563-.4167-.4063-.7396-.75-.9792-.3333-.2344-.7917-.3542-1.375-.3542-.5156,0-1.0104.1198-1.4792.3542-.4583.2396-.8333.5625-1.125.9792-.2812.4062-.4167.8542-.4167,1.3542v5.2292c0,.1562-.0573.2865-.1667.3958-.1146.1146-.2396.1667-.375.1667-.1823,0-.3229-.0521-.4167-.1667-.099-.1094-.1458-.2396-.1458-.3958v-12.5625c0-.1354.0469-.2604.1458-.375.1094-.1094.25-.1667.4167-.1667.151,0,.276.0573.375.1667.1094.1146.1667.2396.1667.375v6l-.4167.6458c.026-.3854.1458-.7604.3542-1.125.2187-.3594.5-.6875.8333-.9792.3437-.2917.7292-.5208,1.1458-.6875.4271-.1667.8594-.25,1.2917-.25Z"/>
      <path class="cls-10" d="M873.0948,1004.0851h4.2917c.151,0,.276.0573.375.1667.0938.099.1458.2188.1458.3542,0,.1406-.0521.2604-.1458.3542-.099.099-.224.1458-.375.1458h-4.2917c-.1562,0-.2865-.0469-.3958-.1458-.099-.1094-.1458-.2344-.1458-.375,0-.1354.0469-.2552.1458-.3542.1094-.0937.2396-.1458.3958-.1458ZM874.9907,1001.4601c.1667,0,.2969.0573.3958.1667.1094.1146.1667.2448.1667.3958v9.2708c0,.349.0417.6146.125.7917.0938.1667.2135.2812.3542.3333.151.0573.3021.0833.4583.0833.0937,0,.1875-.0104.2708-.0417.0833-.026.1719-.0417.2708-.0417.1094,0,.1979.0417.2708.125.0833.0833.125.1979.125.3333,0,.1667-.099.3125-.2917.4375-.1979.1146-.4323.1667-.7083.1667-.1146,0-.2812-.0052-.5-.0208-.224-.026-.4531-.0938-.6875-.2083-.224-.125-.4115-.3333-.5625-.625-.1562-.2917-.2292-.7135-.2292-1.2708v-9.3333c0-.151.0469-.2813.1458-.3958.1094-.1094.2396-.1667.3958-.1667Z"/>
      <path class="cls-10" d="M879.4224,1011.981c-.099-.1354-.1458-.276-.1458-.4167.0104-.151.0938-.2708.25-.3542.0938-.0833.2083-.1146.3333-.1042.1354,0,.2552.0573.3542.1667.3333.4323.7344.7865,1.2083,1.0625.4844.2656,1.0521.3958,1.7083.3958.3437,0,.6875-.0521,1.0208-.1667.3333-.125.6094-.3021.8333-.5417.2188-.25.3333-.5521.3333-.9167,0-.3854-.1146-.6979-.3333-.9375-.224-.2344-.5104-.4167-.8542-.5417-.349-.1354-.724-.2552-1.125-.3542-.4167-.1094-.8229-.2344-1.2083-.375-.3906-.151-.7396-.3333-1.0417-.5417-.3073-.2187-.5573-.4844-.75-.7917-.1823-.3021-.2708-.6771-.2708-1.125,0-.5104.1354-.9635.4167-1.3542.2917-.401.6771-.7135,1.1667-.9375.4844-.2187,1.0417-.3333,1.6667-.3333.3021,0,.6302.0417.9792.125.3594.0833.7135.2187,1.0625.3958.3438.1823.651.4323.9167.75.1094.1146.1667.2448.1667.3958,0,.1406-.0573.2656-.1667.375-.1146.0729-.2292.1042-.3542.1042s-.2292-.0469-.3125-.1458c-.3073-.3333-.6615-.5833-1.0625-.75-.4063-.1771-.8437-.2708-1.3125-.2708-.3646,0-.7031.0625-1.0208.1875-.3073.1146-.5625.2865-.7708.5208-.2083.2396-.3125.5417-.3125.9167.026.3646.151.6562.375.875.2344.224.5417.4115.9167.5625.375.1406.7917.2708,1.25.3958.401.099.7813.2188,1.1458.3542.3594.1406.6771.3125.9583.5208.276.1979.5.4479.6667.75.1667.3073.25.6979.25,1.1667,0,.5417-.1562,1.0156-.4583,1.4167-.2917.3906-.6979.6875-1.2083.8958-.5.2083-1.0625.3125-1.6875.3125-.6563,0-1.2917-.125-1.9167-.375-.625-.2604-1.1823-.6979-1.6667-1.3125Z"/>
      <path class="cls-10" d="M894.2394,1013.481c-.1823,0-.3229-.0521-.4167-.1667-.099-.1094-.1458-.2396-.1458-.3958v-8.2708c0-.151.0469-.2813.1458-.3958.1094-.1094.25-.1667.4167-.1667.151,0,.276.0573.375.1667.1094.1146.1667.2448.1667.3958v2.7708l-.2708.0625c.0417-.4271.1458-.8594.3125-1.2917.1771-.4271.4219-.8177.7292-1.1667.3177-.3594.6875-.651,1.1042-.875.4271-.2187.9062-.3333,1.4375-.3333.2187,0,.4375.0521.6458.1458.2083.0833.3125.2292.3125.4375,0,.1979-.0521.3437-.1458.4375-.099.099-.2188.1458-.3542.1458-.1146,0-.2292-.026-.3542-.0833-.125-.0677-.2917-.1042-.5-.1042-.349,0-.6979.1042-1.0417.3125-.349.1979-.6667.4687-.9583.8125-.2812.349-.5.7396-.6667,1.1667-.1667.4167-.25.8438-.25,1.2708v4.5625c0,.1562-.0573.2865-.1667.3958-.1146.1146-.2396.1667-.375.1667Z"/>
      <path class="cls-10" d="M905.063,1013.6685c-.9479,0-1.7865-.1979-2.5208-.6042-.724-.4167-1.2917-.9844-1.7083-1.7083-.4063-.7187-.6042-1.5677-.6042-2.5417,0-1.0521.2083-1.9479.625-2.6875.4167-.7344.9479-1.3021,1.6042-1.7083.6667-.401,1.3646-.6042,2.1042-.6042.5417,0,1.0677.099,1.5833.2917.5104.1979.9635.4792,1.3542.8542.401.375.7187.8333.9583,1.375.25.5417.3854,1.1667.4167,1.875-.0156.1562-.0781.2865-.1875.3958-.1146.099-.2448.1458-.3958.1458h-7.3958l-.2292-1h7.2708l-.2292.2292v-.375c-.0573-.5833-.2448-1.0729-.5625-1.4792-.3229-.401-.7083-.7083-1.1667-.9167s-.9323-.3125-1.4167-.3125c-.375,0-.7604.0781-1.1458.2292-.375.1406-.724.3698-1.0417.6875-.3229.3073-.5781.7031-.7708,1.1875-.1979.4896-.2917,1.0625-.2917,1.7292,0,.724.1458,1.3854.4375,1.9792.2917.599.7135,1.0729,1.2708,1.4167.5677.3333,1.2396.5,2.0208.5.4271,0,.8177-.0625,1.1667-.1875.3437-.125.6458-.2813.8958-.4792.2604-.2083.4792-.4219.6458-.6458.1354-.1094.276-.1667.4167-.1667.125,0,.2292.0521.3125.1458.0938.099.1458.2083.1458.3333,0,.1562-.0625.2865-.1875.3958-.3646.4479-.8438.8333-1.4375,1.1667-.5833.3177-1.2292.4792-1.9375.4792Z"/>
      <path class="cls-10" d="M910.6922,1011.981c-.099-.1354-.1458-.276-.1458-.4167.0104-.151.0938-.2708.25-.3542.0938-.0833.2083-.1146.3333-.1042.1354,0,.2552.0573.3542.1667.3333.4323.7344.7865,1.2083,1.0625.4844.2656,1.0521.3958,1.7083.3958.3437,0,.6875-.0521,1.0208-.1667.3333-.125.6094-.3021.8333-.5417.2188-.25.3333-.5521.3333-.9167,0-.3854-.1146-.6979-.3333-.9375-.224-.2344-.5104-.4167-.8542-.5417-.349-.1354-.724-.2552-1.125-.3542-.4167-.1094-.8229-.2344-1.2083-.375-.3906-.151-.7396-.3333-1.0417-.5417-.3073-.2187-.5573-.4844-.75-.7917-.1823-.3021-.2708-.6771-.2708-1.125,0-.5104.1354-.9635.4167-1.3542.2917-.401.6771-.7135,1.1667-.9375.4844-.2187,1.0417-.3333,1.6667-.3333.3021,0,.6302.0417.9792.125.3594.0833.7135.2187,1.0625.3958.3438.1823.651.4323.9167.75.1094.1146.1667.2448.1667.3958,0,.1406-.0573.2656-.1667.375-.1146.0729-.2292.1042-.3542.1042s-.2292-.0469-.3125-.1458c-.3073-.3333-.6615-.5833-1.0625-.75-.4063-.1771-.8437-.2708-1.3125-.2708-.3646,0-.7031.0625-1.0208.1875-.3073.1146-.5625.2865-.7708.5208-.2083.2396-.3125.5417-.3125.9167.026.3646.151.6562.375.875.2344.224.5417.4115.9167.5625.375.1406.7917.2708,1.25.3958.401.099.7813.2188,1.1458.3542.3594.1406.6771.3125.9583.5208.276.1979.5.4479.6667.75.1667.3073.25.6979.25,1.1667,0,.5417-.1562,1.0156-.4583,1.4167-.2917.3906-.6979.6875-1.2083.8958-.5.2083-1.0625.3125-1.6875.3125-.6563,0-1.2917-.125-1.9167-.375-.625-.2604-1.1823-.6979-1.6667-1.3125Z"/>
      <path class="cls-10" d="M924.1723,1013.6685c-.9479,0-1.7865-.1979-2.5208-.6042-.724-.4167-1.2917-.9844-1.7083-1.7083-.4063-.7187-.6042-1.5677-.6042-2.5417,0-1.0521.2083-1.9479.625-2.6875.4167-.7344.9479-1.3021,1.6042-1.7083.6667-.401,1.3646-.6042,2.1042-.6042.5417,0,1.0677.099,1.5833.2917.5104.1979.9635.4792,1.3542.8542.401.375.7187.8333.9583,1.375.25.5417.3854,1.1667.4167,1.875-.0156.1562-.0781.2865-.1875.3958-.1146.099-.2448.1458-.3958.1458h-7.3958l-.2292-1h7.2708l-.2292.2292v-.375c-.0573-.5833-.2448-1.0729-.5625-1.4792-.3229-.401-.7083-.7083-1.1667-.9167s-.9323-.3125-1.4167-.3125c-.375,0-.7604.0781-1.1458.2292-.375.1406-.724.3698-1.0417.6875-.3229.3073-.5781.7031-.7708,1.1875-.1979.4896-.2917,1.0625-.2917,1.7292,0,.724.1458,1.3854.4375,1.9792.2917.599.7135,1.0729,1.2708,1.4167.5677.3333,1.2396.5,2.0208.5.4271,0,.8177-.0625,1.1667-.1875.3437-.125.6458-.2813.8958-.4792.2604-.2083.4792-.4219.6458-.6458.1354-.1094.276-.1667.4167-.1667.125,0,.2292.0521.3125.1458.0938.099.1458.2083.1458.3333,0,.1562-.0625.2865-.1875.3958-.3646.4479-.8438.8333-1.4375,1.1667-.5833.3177-1.2292.4792-1.9375.4792Z"/>
      <path class="cls-10" d="M930.9057,1013.481c-.1823,0-.3229-.0521-.4167-.1667-.099-.1094-.1458-.2396-.1458-.3958v-8.2708c0-.151.0469-.2813.1458-.3958.1094-.1094.25-.1667.4167-.1667.151,0,.276.0573.375.1667.1094.1146.1667.2448.1667.3958v2.7708l-.2708.0625c.0417-.4271.1458-.8594.3125-1.2917.1771-.4271.4219-.8177.7292-1.1667.3177-.3594.6875-.651,1.1042-.875.4271-.2187.9062-.3333,1.4375-.3333.2187,0,.4375.0521.6458.1458.2083.0833.3125.2292.3125.4375,0,.1979-.0521.3437-.1458.4375-.099.099-.2188.1458-.3542.1458-.1146,0-.2292-.026-.3542-.0833-.125-.0677-.2917-.1042-.5-.1042-.349,0-.6979.1042-1.0417.3125-.349.1979-.6667.4687-.9583.8125-.2812.349-.5.7396-.6667,1.1667-.1667.4167-.25.8438-.25,1.2708v4.5625c0,.1562-.0573.2865-.1667.3958-.1146.1146-.2396.1667-.375.1667Z"/>
      <path class="cls-10" d="M937.2292,1003.8351c.1094,0,.2135.0365.3125.1042.0937.0573.1667.1458.2083.2708l3.2292,7.6875-.2292.1458,3.3125-7.8333c.0938-.25.2708-.3646.5208-.3542.125,0,.2396.0417.3542.125.1094.0729.1667.1823.1667.3333,0,.0729-.0104.1354-.0208.1875-.0156.0417-.0313.0833-.0417.125l-3.625,8.5c-.099.224-.2656.3438-.5.3542-.1146.0104-.224-.0104-.3333-.0833-.099-.0677-.1771-.1563-.2292-.2708l-3.625-8.5c-.0156-.026-.0312-.0625-.0417-.1042-.0156-.0521-.0208-.1042-.0208-.1458,0-.1354.0469-.2604.1458-.375.0938-.1094.2344-.1667.4167-.1667Z"/>
      <path class="cls-10" d="M951.5057,1013.6685c-.9479,0-1.7865-.1979-2.5208-.6042-.724-.4167-1.2917-.9844-1.7083-1.7083-.4063-.7187-.6042-1.5677-.6042-2.5417,0-1.0521.2083-1.9479.625-2.6875.4167-.7344.9479-1.3021,1.6042-1.7083.6667-.401,1.3646-.6042,2.1042-.6042.5417,0,1.0677.099,1.5833.2917.5104.1979.9635.4792,1.3542.8542.401.375.7187.8333.9583,1.375.25.5417.3854,1.1667.4167,1.875-.0156.1562-.0781.2865-.1875.3958-.1146.099-.2448.1458-.3958.1458h-7.3958l-.2292-1h7.2708l-.2292.2292v-.375c-.0573-.5833-.2448-1.0729-.5625-1.4792-.3229-.401-.7083-.7083-1.1667-.9167s-.9323-.3125-1.4167-.3125c-.375,0-.7604.0781-1.1458.2292-.375.1406-.724.3698-1.0417.6875-.3229.3073-.5781.7031-.7708,1.1875-.1979.4896-.2917,1.0625-.2917,1.7292,0,.724.1458,1.3854.4375,1.9792.2917.599.7135,1.0729,1.2708,1.4167.5677.3333,1.2396.5,2.0208.5.4271,0,.8177-.0625,1.1667-.1875.3437-.125.6458-.2813.8958-.4792.2604-.2083.4792-.4219.6458-.6458.1354-.1094.276-.1667.4167-.1667.125,0,.2292.0521.3125.1458.0938.099.1458.2083.1458.3333,0,.1562-.0625.2865-.1875.3958-.3646.4479-.8438.8333-1.4375,1.1667-.5833.3177-1.2292.4792-1.9375.4792Z"/>
      <path class="cls-10" d="M965.4267,999.8143c.151,0,.276.0573.375.1667.1094.099.1667.224.1667.375v12.5625c0,.1562-.0573.2865-.1667.3958-.1146.1146-.2396.1667-.375.1667-.1667,0-.3073-.0521-.4167-.1667-.099-.1094-.1458-.2396-.1458-.3958v-2.1875l.3125-.2708c0,.349-.0937.7083-.2708,1.0833-.1823.375-.4479.724-.7917,1.0417-.3333.3229-.7292.5833-1.1875.7917-.4479.1927-.9271.2917-1.4375.2917-.8333,0-1.5833-.2135-2.25-.6458-.6562-.4271-1.1771-1.0104-1.5625-1.75-.375-.75-.5625-1.5937-.5625-2.5417,0-.9271.1875-1.7708.5625-2.5208.3854-.75.9063-1.3333,1.5625-1.75.651-.4271,1.3958-.6458,2.2292-.6458.5,0,.9792.099,1.4375.2917.4583.1823.8594.4323,1.2083.75.3438.3229.625.6875.8333,1.1042.2083.4062.3125.8281.3125,1.2708l-.3958-.2708v-6.6042c0-.1354.0469-.2604.1458-.375.1094-.1094.25-.1667.4167-.1667ZM961.5725,1012.6268c.6667,0,1.25-.1667,1.75-.5.5-.3438.8958-.8125,1.1875-1.3958s.4375-1.25.4375-2c0-.7344-.1458-1.3958-.4375-1.9792s-.6979-1.0417-1.2083-1.375c-.5-.3438-1.0781-.5208-1.7292-.5208-.6406,0-1.2188.1771-1.7292.5208-.5156.3333-.9167.7917-1.2083,1.375-.2813.5833-.4167,1.2448-.4167,1.9792,0,.7396.1354,1.4063.4167,2,.2917.5833.6927,1.0521,1.2083,1.3958.5104.3333,1.0885.5,1.7292.5Z"/>
      <path class="cls-10" d="M969.022,1013.481c-.2083,0-.3698-.0677-.4792-.2083-.1146-.1354-.1667-.3125-.1667-.5208v-.375c0-.2188.0521-.3958.1667-.5208.1094-.125.2708-.1875.4792-.1875h.125c.2083,0,.3646.0625.4792.1875.1094.125.1667.3021.1667.5208v.375c0,.2083-.0573.3854-.1667.5208-.1146.1406-.2708.2083-.4792.2083h-.125Z"/>
    </g>
  </g>
</svg>