<?xml version="1.0" encoding="UTF-8"?>
<svg id="Layer_1" data-name="Layer 1" xmlns="http://www.w3.org/2000/svg" xmlns:xlink="http://www.w3.org/1999/xlink" viewBox="0 0 72 72">
  <defs>
    <style>
      .cls-1 {
        fill: none;
      }

      .cls-2 {
        fill: #fff;
      }

      .cls-3 {
        clip-path: url(#clippath);
      }
    </style>
    <clipPath id="clippath">
      <rect class="cls-1" x="4.9675" y="5.9075" width="61.2528" height="61.2528"/>
    </clipPath>
  </defs>
  <path class="cls-2" d="M27.9677,31.5599c0,.4978.0456.9917.1444,1.4819s.2394.9613.4332,1.4249c.19.4598.4218.8968.6992,1.3109s.5928.798.9462,1.1513c.3496.3496.7334.665,1.1475.9424s.8512.5092,1.3147.703c.4598.19.9348.3344,1.4211.4294.4902.0988.9841.1482,1.4819.1482s.9917-.0494,1.4819-.1482c.4864-.095.9613-.2394,1.4211-.4294.4598-.1938.9006-.4256,1.3147-.703s.7942-.5928,1.1475-.9424c.3534-.3534.6688-.7372.9462-1.1513.2736-.4142.5092-.8512.6992-1.3109.19-.4636.3344-.9348.4332-1.4249.095-.4902.1444-.9841.1444-1.4819-.4104-10.0733-14.766-10.0733-15.1764,0ZM35.5559,37.1342c-.3648,0-.7296-.038-1.0867-.1102-.361-.0722-.7106-.1748-1.0487-.3154s-.6574-.3154-.9613-.5168c-.304-.2052-.5852-.437-.8474-.6954-.2584-.2584-.4864-.5396-.6916-.8474-.2014-.304-.3762-.6232-.513-.9613-.1406-.342-.247-.6878-.3192-1.0487-.0684-.3572-.1064-.722-.1064-1.0867,0-.3686.038-.7296.1102-1.0905.0722-.3572.1786-.7068.3192-1.0449s.3116-.6574.513-.9651c.2052-.304.437-.5852.6954-.8436s.5434-.4902.8474-.6916c.304-.2052.627-.3762.9651-.5168.3382-.1368.6878-.2432,1.0449-.3154.361-.0722.722-.1064,1.0867-.1064.3686,0,.7296.038,1.0905.1102.3572.0722.7068.1748,1.0449.3154s.6612.3154.9651.5168c.304.2052.5852.437.8436.6954s.4902.5396.6916.8474c.2052.304.3762.6232.5168.9613.1406.342.2432.6878.3154,1.0487.0722.3572.1064.722.1064,1.0867,0,.3686-.038.7296-.1064,1.0905-.0722.3572-.1786.7068-.3192,1.0449s-.3116.6574-.5168.9651c-.2052.304-.437.5852-.6954.8436s-.5396.4902-.8436.6916c-.3078.2052-.627.3762-.9651.5168-.3382.1368-.6878.2432-1.0487.3154-.3572.0722-.722.1064-1.0867.1064Z"/>
  <g class="cls-3">
    <path class="cls-2" d="M35.5559,5.9075c-1.0031,0-2.0025.0494-2.998.1444-.9955.0988-1.9873.247-2.9676.4408-.9841.1976-1.9531.4408-2.9144.7296-.9575.2926-1.8999.6308-2.8271,1.0107-.9234.3838-1.8277.8132-2.7131,1.2843-.8816.4712-1.7403.9879-2.5725,1.5427-.8322.5586-1.6377,1.1551-2.4129,1.7897-.7714.6346-1.5161,1.3071-2.2229,2.0139-.7068.7106-1.3793,1.4515-2.0139,2.2267-.6384.7714-1.2349,1.5769-1.7897,2.4091-.5586.8322-1.0715,1.6909-1.5427,2.5763-.4712.8816-.9006,1.7859-1.2843,2.7131-.3838.9234-.722,1.8657-1.0107,2.8271-.2926.9575-.5358,1.9265-.7296,2.9106-.1938.9803-.342,1.9721-.4408,2.9676-.0988.9993-.1482,1.9987-.1482,2.998,0,1.0031.0494,2.0025.1482,2.998.0988.9993.247,1.9873.4408,2.9714.1938.9803.437,1.9531.7296,2.9106.2888.9575.627,1.8999,1.0107,2.8271.3838.9234.8132,1.8277,1.2843,2.7131.4712.8816.9841,1.7403,1.5427,2.5725.5548.836,1.1513,1.6377,1.7897,2.4129.6346.7752,1.3071,1.5161,2.0139,2.2229.7068.7106,1.4515,1.3793,2.2229,2.0177.7752.6346,1.5807,1.2311,2.4129,1.7859.8322.5586,1.6909,1.0715,2.5725,1.5427.8854.475,1.7897.9006,2.7131,1.2843.9272.3838,1.8695.722,2.8271,1.0107.9613.2926,1.9303.5358,2.9144.7296.9803.1976,1.9721.342,2.9676.4408s1.9949.1482,2.998.1482,2.0025-.0494,2.998-.1482,1.9873-.2432,2.9676-.4408c.9841-.1938,1.9531-.437,2.9144-.7296.9575-.2888,1.8999-.627,2.8233-1.0107.9272-.3838,1.8315-.8094,2.7131-1.2843.8854-.4712,1.7441-.9841,2.5763-1.5427.8322-.5548,1.6377-1.1513,2.4129-1.7859.7714-.6384,1.5123-1.3071,2.2229-2.0177.7068-.7068,1.3793-1.4477,2.0139-2.2229.6384-.7752,1.2311-1.5769,1.7897-2.4129.5548-.8322,1.0715-1.6909,1.5427-2.5725.4712-.8854.9006-1.7897,1.2843-2.7131.3838-.9272.7182-1.8695,1.0107-2.8271.2888-.9575.532-1.9303.7296-2.9106.1938-.9841.342-1.9721.4408-2.9714.0988-.9955.1444-1.9949.1444-2.998,0-.9993-.0456-1.9987-.1444-2.998-.0988-.9955-.247-1.9873-.4408-2.9676-.1976-.9841-.4408-1.9531-.7296-2.9106-.2926-.9613-.6308-1.8999-1.0145-2.8271-.38-.9272-.8094-1.8315-1.2805-2.7131-.475-.8854-.9879-1.7403-1.5427-2.5763-.5586-.8322-1.1551-1.6339-1.7897-2.4091s-1.3071-1.5161-2.0139-2.2229c-.7106-.7106-1.4515-1.3831-2.2267-2.0177s-1.5769-1.2311-2.4091-1.7859c-.8322-.5586-1.6909-1.0715-2.5763-1.5465-.8816-.4712-1.7859-.8968-2.7131-1.2805-.9234-.3838-1.8657-.722-2.8271-1.0107-.9575-.2926-1.9265-.5358-2.9106-.7296-.9803-.1976-1.9721-.3458-2.9676-.4408-.9955-.0988-1.9949-.1482-2.998-.1482ZM36.1676,55.3999c-.1824.1368-.3838.209-.6118.209s-.4332-.0722-.6118-.209c-.5548-.4218-13.5653-10.514-13.5653-23.8399,0-.931.0912-1.8505.2736-2.7663.1824-.912.4484-1.7973.8056-2.6599.3572-.8588.7942-1.6757,1.3109-2.4509s1.1019-1.4895,1.7631-2.1469c.6574-.6612,1.3717-1.2463,2.1469-1.7669.7752-.5168,1.5921-.9537,2.4509-1.3071.8588-.3572,1.7479-.627,2.6599-.8094s1.8353-.2736,2.7663-.2736,1.8543.0912,2.7663.2736,1.7973.4522,2.6599.8094c.8588.3534,1.6757.7904,2.4509,1.3071.7752.5206,1.4895,1.1057,2.1469,1.7669.6574.6574,1.2463,1.3717,1.7631,2.1469s.9537,1.5921,1.3109,2.4509c.3572.8626.6232,1.7479.8056,2.6599.1824.9158.2698,1.8353.2698,2.7663,0,13.3259-13.0067,23.4182-13.5615,23.8399Z"/>
  </g>
</svg>