<svg xmlns="http://www.w3.org/2000/svg" xmlns:xlink="http://www.w3.org/1999/xlink" width="500" zoomAndPan="magnify" viewBox="0 0 375 374.999991" height="500" preserveAspectRatio="xMidYMid meet" version="1.0"><defs><clipPath id="0a25afe867"><path d="M 17.25 0 L 357.75 0 C 362.324219 0 366.710938 1.816406 369.949219 5.050781 C 373.183594 8.289062 375 12.675781 375 17.25 L 375 357.75 C 375 362.324219 373.183594 366.710938 369.949219 369.949219 C 366.710938 373.183594 362.324219 375 357.75 375 L 17.25 375 C 12.675781 375 8.289062 373.183594 5.050781 369.949219 C 1.816406 366.710938 0 362.324219 0 357.75 L 0 17.25 C 0 12.675781 1.816406 8.289062 5.050781 5.050781 C 8.289062 1.816406 12.675781 0 17.25 0 Z M 17.25 0 " clip-rule="nonzero"/></clipPath><clipPath id="5d8bdc2d88"><path d="M 0 0 L 375 0 L 375 375 L 0 375 Z M 0 0 " clip-rule="nonzero"/></clipPath><clipPath id="1392f13636"><path d="M 17.25 0 L 357.75 0 C 362.324219 0 366.710938 1.816406 369.949219 5.050781 C 373.183594 8.289062 375 12.675781 375 17.25 L 375 357.75 C 375 362.324219 373.183594 366.710938 369.949219 369.949219 C 366.710938 373.183594 362.324219 375 357.75 375 L 17.25 375 C 12.675781 375 8.289062 373.183594 5.050781 369.949219 C 1.816406 366.710938 0 362.324219 0 357.75 L 0 17.25 C 0 12.675781 1.816406 8.289062 5.050781 5.050781 C 8.289062 1.816406 12.675781 0 17.25 0 Z M 17.25 0 " clip-rule="nonzero"/></clipPath><clipPath id="74193d3b83"><rect x="0" width="375" y="0" height="375"/></clipPath><clipPath id="1426a12b86"><path d="M 75 290.742188 L 300.726562 290.742188 L 300.726562 302.613281 L 75 302.613281 Z M 75 290.742188 " clip-rule="nonzero"/></clipPath><clipPath id="7cda871223"><path d="M 0 0.742188 L 225.726562 0.742188 L 225.726562 12.613281 L 0 12.613281 Z M 0 0.742188 " clip-rule="nonzero"/></clipPath><clipPath id="c96c25c588"><rect x="0" width="226" y="0" height="13"/></clipPath><clipPath id="c4d6ce3851"><path d="M 68.285156 86 L 119 86 L 119 293.660156 L 68.285156 293.660156 Z M 68.285156 86 " clip-rule="nonzero"/></clipPath><clipPath id="cca6310eb2"><path d="M 188.160156 44.25 L 240 44.25 L 240 294.640625 L 188.160156 294.640625 Z M 188.160156 44.25 " clip-rule="nonzero"/></clipPath></defs><g clip-path="url(#0a25afe867)"><g transform="matrix(1, 0, 0, 1, 0, 0)"><g clip-path="url(#74193d3b83)"><g clip-path="url(#5d8bdc2d88)"><g clip-path="url(#1392f13636)"><rect x="-82.5" width="540" fill="#ffffff" height="539.999987" y="-82.499998" fill-opacity="1"/></g></g></g></g><path stroke-linecap="butt" transform="matrix(0.75, 0, 0, 0.75, 0.0000045, 0)" fill="none" stroke-linejoin="miter" d="M 22.999997 0 L 477.000056 0 C 483.099015 0 488.947974 2.421875 493.265683 6.734376 C 497.578184 11.052085 500.000059 16.901044 500.000059 23.000003 L 500.000059 477.000062 C 500.000059 483.099021 497.578184 488.94798 493.265683 493.265689 C 488.947974 497.57819 483.099015 500.000065 477.000056 500.000065 L 22.999997 500.000065 C 16.901038 500.000065 11.052079 497.57819 6.73437 493.265689 C 2.421869 488.94798 -0.000006 483.099021 -0.000006 477.000062 L -0.000006 23.000003 C -0.000006 16.901044 2.421869 11.052085 6.73437 6.734376 C 11.052079 2.421875 16.901038 0 22.999997 0 Z M 22.999997 0 " stroke="#2b3d2d" stroke-width="1" stroke-opacity="1" stroke-miterlimit="4"/></g><g clip-path="url(#1426a12b86)"><g transform="matrix(1, 0, 0, 1, 75, 290)"><g clip-path="url(#c96c25c588)"><g clip-path="url(#7cda871223)"><path fill="#ffffff" d="M 0 0.742188 L 225.746094 0.742188 L 225.746094 12.613281 L 0 12.613281 Z M 0 0.742188 " fill-opacity="1" fill-rule="nonzero"/></g></g></g></g><g clip-path="url(#c4d6ce3851)"><path fill="#000000" d="M 118.921875 86.875 L 68.421875 123.824219 L 68.285156 141.953125 L 87.007812 129.324219 L 87.007812 129.394531 C 87.207031 129.140625 88.710938 128.027344 90.628906 126.636719 L 94.632812 293.480469 L 109.890625 293.585938 L 105.078125 116.394531 L 118.921875 105.582031 Z M 118.921875 86.875 " fill-opacity="1" fill-rule="nonzero"/></g><path fill="#000000" d="M 165.238281 55.195312 L 178.84375 45.019531 L 179.042969 294.042969 L 165.238281 293.953125 L 165.238281 179.164062 L 142.453125 179.164062 L 142.453125 293.796875 L 130.578125 293.71875 L 128.414062 81.015625 L 142.453125 70.945312 L 142.453125 164.152344 L 165.238281 164.152344 Z M 165.238281 55.195312 " fill-opacity="1" fill-rule="nonzero"/><g clip-path="url(#cca6310eb2)"><path fill="#000000" d="M 225.648438 69.910156 L 239.289062 79.929688 L 239.398438 294.441406 L 225.648438 294.355469 L 225.648438 180.253906 L 202.800781 180.253906 L 202.800781 294.179688 L 188.6875 294.105469 L 188.652344 44.34375 L 202.769531 54.546875 L 202.800781 164.882812 L 225.648438 164.882812 Z M 225.648438 69.910156 " fill-opacity="1" fill-rule="nonzero"/></g><path fill="#000000" d="M 249.179688 88.285156 L 249.179688 294.507812 L 263.445312 294.601562 C 263.445312 256.855469 262.492188 217.941406 262.335938 180.269531 L 292.59375 180.269531 C 292.632812 180.269531 292.757812 180.273438 292.863281 180.273438 L 292.867188 180.273438 C 292.894531 180.226562 292.929688 180.179688 292.953125 180.132812 C 292.984375 180.085938 293.015625 180.039062 293.046875 179.992188 C 293.109375 179.894531 293.167969 179.804688 293.230469 179.707031 C 293.296875 179.613281 293.355469 179.515625 293.417969 179.421875 C 293.484375 179.324219 293.542969 179.230469 293.609375 179.132812 C 293.671875 179.035156 293.734375 178.9375 293.796875 178.839844 C 293.863281 178.742188 293.925781 178.640625 293.988281 178.546875 L 294.183594 178.246094 C 294.25 178.148438 294.3125 178.046875 294.375 177.949219 L 294.570312 177.648438 C 294.636719 177.550781 294.699219 177.445312 294.765625 177.347656 L 295.351562 176.445312 C 295.414062 176.347656 295.476562 176.25 295.542969 176.148438 C 295.609375 176.050781 295.671875 175.949219 295.734375 175.851562 C 295.800781 175.75 295.863281 175.65625 295.925781 175.554688 C 295.992188 175.457031 296.050781 175.359375 296.117188 175.261719 C 296.179688 175.164062 296.242188 175.070312 296.304688 174.96875 C 296.367188 174.875 296.425781 174.777344 296.492188 174.683594 C 296.554688 174.585938 296.613281 174.496094 296.675781 174.398438 C 296.734375 174.304688 296.792969 174.210938 296.855469 174.121094 C 296.914062 174.023438 296.972656 173.933594 297.03125 173.839844 C 297.09375 173.753906 297.152344 173.660156 297.207031 173.570312 L 297.378906 173.304688 C 297.4375 173.214844 297.492188 173.132812 297.546875 173.042969 C 297.601562 172.960938 297.660156 172.871094 297.714844 172.789062 C 297.765625 172.707031 297.820312 172.621094 297.875 172.539062 C 297.921875 172.457031 297.976562 172.378906 298.03125 172.296875 L 298.179688 172.0625 C 298.230469 171.988281 298.277344 171.914062 298.324219 171.839844 L 298.46875 171.621094 C 298.511719 171.546875 298.558594 171.476562 298.601562 171.410156 C 298.648438 171.339844 298.6875 171.273438 298.730469 171.207031 C 298.773438 171.140625 298.816406 171.082031 298.859375 171.015625 L 298.972656 170.832031 C 299.011719 170.773438 299.050781 170.714844 299.082031 170.660156 L 299.1875 170.5 C 299.222656 170.449219 299.253906 170.398438 299.285156 170.347656 C 299.316406 170.304688 299.34375 170.253906 299.375 170.207031 C 299.402344 170.164062 299.433594 170.125 299.457031 170.082031 C 299.480469 170.042969 299.507812 170.003906 299.53125 169.964844 C 299.554688 169.933594 299.578125 169.898438 299.597656 169.863281 L 299.652344 169.769531 C 299.671875 169.746094 299.6875 169.722656 299.703125 169.695312 C 299.71875 169.675781 299.730469 169.652344 299.746094 169.632812 C 299.753906 169.617188 299.765625 169.601562 299.777344 169.582031 C 299.785156 169.574219 299.792969 169.5625 299.8125 169.53125 L 299.8125 124.617188 Z M 262.492188 164.804688 C 262.667969 150.972656 262.933594 129.769531 263.003906 118.589844 C 268.128906 121.800781 285.730469 132.824219 285.730469 132.824219 C 285.730469 143.488281 285.738281 154.144531 285.792969 164.804688 Z M 262.492188 164.804688 " fill-opacity="1" fill-rule="nonzero"/><path fill="#000000" d="M 189.8125 310.992188 C 189.734375 310.800781 189.636719 310.613281 189.53125 310.433594 C 189.101562 309.707031 188.507812 309.140625 187.753906 308.730469 C 186.996094 308.328125 186.148438 308.121094 185.210938 308.121094 C 184.269531 308.121094 183.425781 308.328125 182.671875 308.730469 C 181.914062 309.140625 181.324219 309.707031 180.894531 310.433594 C 180.753906 310.675781 180.640625 310.929688 180.546875 311.191406 C 180.355469 311.714844 180.246094 312.269531 180.246094 312.867188 C 180.246094 313.441406 180.347656 313.976562 180.523438 314.480469 C 180.621094 314.765625 180.742188 315.039062 180.894531 315.300781 C 181.324219 316.027344 181.914062 316.59375 182.671875 317 C 183.425781 317.410156 184.269531 317.613281 185.210938 317.613281 C 186.148438 317.613281 186.996094 317.410156 187.753906 317 C 188.507812 316.59375 189.101562 316.03125 189.53125 315.316406 C 189.734375 314.976562 189.886719 314.613281 189.992188 314.226562 C 190.113281 313.800781 190.175781 313.347656 190.175781 312.867188 C 190.175781 312.191406 190.054688 311.566406 189.8125 310.992188 Z M 182.394531 314.535156 L 182.382812 314.511719 C 182.117188 314.023438 181.980469 313.472656 181.980469 312.867188 C 181.980469 312.253906 182.121094 311.703125 182.394531 311.210938 C 182.410156 311.1875 182.433594 311.164062 182.449219 311.132812 C 182.554688 310.957031 182.679688 310.796875 182.816406 310.644531 C 182.878906 310.582031 182.9375 310.519531 183.003906 310.457031 C 183.136719 310.335938 183.285156 310.226562 183.445312 310.125 C 183.480469 310.101562 183.519531 310.070312 183.558594 310.046875 C 183.714844 309.960938 183.878906 309.886719 184.046875 309.828125 C 184.410156 309.699219 184.796875 309.632812 185.210938 309.632812 C 185.652344 309.632812 186.058594 309.703125 186.4375 309.847656 C 186.582031 309.902344 186.726562 309.972656 186.867188 310.046875 C 186.894531 310.0625 186.914062 310.082031 186.9375 310.097656 C 187.136719 310.214844 187.316406 310.347656 187.480469 310.5 L 187.5625 310.585938 C 187.722656 310.753906 187.871094 310.945312 187.992188 311.15625 C 188.003906 311.175781 188.019531 311.195312 188.03125 311.210938 C 188.085938 311.308594 188.132812 311.410156 188.175781 311.511719 C 188.355469 311.929688 188.449219 312.375 188.449219 312.867188 C 188.449219 313.484375 188.308594 314.039062 188.03125 314.535156 C 187.75 315.027344 187.363281 315.414062 186.871094 315.691406 C 186.378906 315.972656 185.824219 316.109375 185.210938 316.109375 C 184.601562 316.109375 184.046875 315.972656 183.550781 315.691406 C 183.4375 315.625 183.347656 315.535156 183.246094 315.457031 C 182.929688 315.222656 182.660156 314.949219 182.453125 314.613281 C 182.4375 314.585938 182.410156 314.5625 182.394531 314.535156 Z M 182.394531 314.535156 " fill-opacity="1" fill-rule="nonzero"/><path fill="#000000" d="M 44.351562 309.710938 L 47.414062 309.710938 L 47.414062 317.476562 L 49.128906 317.476562 L 49.128906 309.710938 L 52.175781 309.710938 L 52.175781 308.257812 L 44.351562 308.257812 Z M 44.351562 309.710938 " fill-opacity="1" fill-rule="nonzero"/><path fill="#000000" d="M 70.484375 308.261719 L 70.480469 308.261719 L 70.480469 312.066406 L 65.722656 312.066406 L 65.722656 308.257812 L 64.007812 308.257812 L 64.007812 308.261719 L 64.003906 308.261719 L 64.003906 317.476562 L 65.722656 317.476562 L 65.722656 313.523438 L 70.480469 313.523438 L 70.480469 317.476562 L 72.199219 317.476562 L 72.199219 308.257812 L 70.484375 308.257812 Z M 70.484375 308.261719 " fill-opacity="1" fill-rule="nonzero"/><path fill="#000000" d="M 91.679688 308.261719 L 91.679688 312.066406 L 86.917969 312.066406 L 86.917969 308.257812 L 85.203125 308.257812 L 85.203125 317.476562 L 86.917969 317.476562 L 86.917969 313.523438 L 91.679688 313.523438 L 91.679688 317.476562 L 93.394531 317.476562 L 93.394531 308.257812 L 91.679688 308.257812 Z M 91.679688 308.261719 " fill-opacity="1" fill-rule="nonzero"/><path fill="#000000" d="M 113.0625 309.136719 C 112.914062 309.015625 112.742188 308.90625 112.566406 308.808594 C 112.472656 308.753906 112.382812 308.703125 112.28125 308.65625 C 111.6875 308.390625 110.996094 308.257812 110.199219 308.257812 L 106.402344 308.257812 L 106.402344 308.261719 L 106.398438 308.261719 L 106.398438 317.476562 L 108.117188 317.476562 L 108.117188 314.820312 L 110.191406 314.820312 C 110.679688 314.820312 111.117188 314.765625 111.527344 314.664062 C 111.796875 314.605469 112.050781 314.53125 112.28125 314.429688 C 112.871094 314.164062 113.328125 313.78125 113.644531 313.28125 C 113.960938 312.78125 114.121094 312.199219 114.121094 311.535156 C 114.121094 310.859375 113.960938 310.277344 113.644531 309.789062 C 113.484375 309.542969 113.289062 309.328125 113.0625 309.136719 Z M 111.808594 312.898438 C 111.421875 313.210938 110.859375 313.367188 110.113281 313.367188 L 108.117188 313.367188 L 108.117188 309.710938 L 110.109375 309.710938 C 110.851562 309.710938 111.417969 309.871094 111.808594 310.1875 C 112.195312 310.503906 112.390625 310.953125 112.390625 311.535156 C 112.390625 311.832031 112.339844 312.09375 112.246094 312.324219 C 112.144531 312.542969 112 312.738281 111.808594 312.898438 Z M 111.808594 312.898438 " fill-opacity="1" fill-rule="nonzero"/><path fill="#000000" d="M 146.953125 308.875 L 146.945312 308.875 C 146.820312 308.792969 146.683594 308.71875 146.539062 308.65625 C 145.945312 308.390625 145.253906 308.257812 144.457031 308.257812 L 140.660156 308.257812 L 140.660156 308.261719 L 140.65625 308.261719 L 140.65625 317.476562 L 142.375 317.476562 L 142.375 314.820312 L 144.449219 314.820312 C 144.9375 314.820312 145.378906 314.765625 145.789062 314.664062 C 146.054688 314.605469 146.308594 314.53125 146.539062 314.429688 C 147.128906 314.164062 147.585938 313.78125 147.902344 313.28125 C 148.21875 312.78125 148.378906 312.199219 148.378906 311.535156 C 148.378906 310.859375 148.21875 310.277344 147.902344 309.789062 C 147.667969 309.421875 147.347656 309.117188 146.953125 308.875 Z M 146.066406 312.898438 C 145.683594 313.210938 145.117188 313.367188 144.371094 313.367188 L 142.375 313.367188 L 142.375 309.710938 L 144.367188 309.710938 C 145.109375 309.710938 145.675781 309.871094 146.066406 310.1875 C 146.34375 310.417969 146.523438 310.71875 146.597656 311.085938 C 146.628906 311.226562 146.648438 311.378906 146.648438 311.542969 C 146.648438 311.835938 146.597656 312.097656 146.503906 312.324219 C 146.40625 312.542969 146.261719 312.738281 146.066406 312.898438 Z M 146.066406 312.898438 " fill-opacity="1" fill-rule="nonzero"/><path fill="#000000" d="M 167.964844 313.324219 C 168.304688 312.828125 168.472656 312.230469 168.472656 311.535156 C 168.472656 310.859375 168.3125 310.277344 167.996094 309.789062 C 167.796875 309.484375 167.546875 309.234375 167.242188 309.015625 C 167.132812 308.933594 167.011719 308.859375 166.882812 308.789062 C 166.804688 308.746094 166.722656 308.699219 166.632812 308.65625 C 166.042969 308.390625 165.347656 308.257812 164.550781 308.257812 L 160.753906 308.257812 L 160.753906 308.261719 L 160.75 308.261719 L 160.75 317.476562 L 162.46875 317.476562 L 162.46875 314.796875 L 164.550781 314.796875 C 164.703125 314.796875 164.816406 314.792969 164.898438 314.78125 L 166.78125 317.476562 L 168.625 317.476562 L 166.511719 314.445312 C 167.144531 314.199219 167.625 313.828125 167.964844 313.324219 Z M 166.160156 312.90625 C 165.773438 313.222656 165.207031 313.382812 164.464844 313.382812 L 162.46875 313.382812 L 162.46875 309.710938 L 164.460938 309.710938 C 165.203125 309.710938 165.769531 309.871094 166.160156 310.1875 C 166.546875 310.503906 166.742188 310.953125 166.742188 311.535156 C 166.742188 311.832031 166.691406 312.097656 166.59375 312.328125 C 166.496094 312.550781 166.351562 312.742188 166.160156 312.90625 Z M 166.160156 312.90625 " fill-opacity="1" fill-rule="nonzero"/><path fill="#000000" d="M 209.1875 309.136719 C 209.023438 309 208.835938 308.886719 208.636719 308.777344 C 208.558594 308.734375 208.488281 308.695312 208.40625 308.65625 C 207.8125 308.390625 207.121094 308.257812 206.324219 308.257812 L 202.527344 308.257812 L 202.527344 317.476562 L 204.242188 317.476562 L 204.242188 314.820312 L 206.316406 314.820312 C 206.8125 314.820312 207.265625 314.761719 207.683594 314.660156 C 207.941406 314.601562 208.183594 314.527344 208.40625 314.429688 C 208.996094 314.164062 209.453125 313.78125 209.769531 313.28125 C 210.082031 312.78125 210.246094 312.199219 210.246094 311.535156 C 210.246094 310.859375 210.082031 310.277344 209.769531 309.789062 C 209.613281 309.542969 209.417969 309.324219 209.1875 309.136719 Z M 208.019531 312.8125 C 207.988281 312.839844 207.964844 312.871094 207.9375 312.898438 C 207.550781 313.210938 206.984375 313.367188 206.238281 313.367188 L 204.242188 313.367188 L 204.242188 309.710938 L 206.234375 309.710938 C 206.976562 309.710938 207.542969 309.871094 207.933594 310.1875 C 208.320312 310.503906 208.515625 310.953125 208.515625 311.535156 C 208.515625 311.976562 208.40625 312.34375 208.1875 312.632812 C 208.140625 312.699219 208.078125 312.753906 208.019531 312.8125 Z M 208.019531 312.8125 " fill-opacity="1" fill-rule="nonzero"/><path fill="#000000" d="M 229.527344 316.035156 L 224.335938 316.035156 L 224.335938 313.5 L 228.78125 313.5 L 228.78125 312.09375 L 228.777344 312.09375 L 228.777344 312.085938 L 224.335938 312.085938 L 224.335938 309.695312 L 229.347656 309.695312 L 229.347656 308.261719 L 229.34375 308.261719 L 229.34375 308.257812 L 222.621094 308.257812 L 222.621094 308.261719 L 222.617188 308.261719 L 222.617188 317.476562 L 229.527344 317.476562 Z M 229.527344 316.035156 " fill-opacity="1" fill-rule="nonzero"/><path fill="#000000" d="M 249.1875 313.324219 C 249.523438 312.828125 249.691406 312.230469 249.691406 311.535156 C 249.691406 310.859375 249.53125 310.277344 249.21875 309.789062 C 249.058594 309.542969 248.863281 309.328125 248.636719 309.136719 C 248.527344 309.046875 248.40625 308.960938 248.28125 308.886719 C 248.277344 308.882812 248.273438 308.882812 248.273438 308.878906 C 248.230469 308.855469 248.183594 308.832031 248.144531 308.808594 C 248.046875 308.753906 247.957031 308.703125 247.855469 308.65625 C 247.261719 308.390625 246.570312 308.257812 245.773438 308.257812 L 241.976562 308.257812 L 241.976562 308.261719 L 241.972656 308.261719 L 241.972656 317.476562 L 243.691406 317.476562 L 243.691406 314.796875 L 245.773438 314.796875 C 245.921875 314.796875 246.039062 314.792969 246.121094 314.78125 L 248 317.476562 L 249.847656 317.476562 L 247.734375 314.445312 C 248.363281 314.199219 248.851562 313.828125 249.1875 313.324219 Z M 247.382812 312.90625 C 246.996094 313.222656 246.433594 313.382812 245.683594 313.382812 L 243.691406 313.382812 L 243.691406 309.710938 L 245.679688 309.710938 C 246.425781 309.710938 246.992188 309.871094 247.382812 310.1875 C 247.769531 310.503906 247.964844 310.953125 247.964844 311.535156 C 247.964844 311.832031 247.914062 312.09375 247.816406 312.324219 C 247.71875 312.546875 247.574219 312.742188 247.382812 312.90625 Z M 247.382812 312.90625 " fill-opacity="1" fill-rule="nonzero"/><path fill="#000000" d="M 268.761719 308.257812 L 260.9375 308.257812 L 260.9375 309.710938 L 264 309.710938 L 264 317.476562 L 265.714844 317.476562 L 265.714844 309.710938 L 268.761719 309.710938 L 268.761719 309.707031 L 268.765625 309.707031 L 268.765625 308.261719 L 268.761719 308.261719 Z M 268.761719 308.257812 " fill-opacity="1" fill-rule="nonzero"/><path fill="#000000" d="M 280.589844 308.261719 L 280.589844 317.476562 L 282.304688 317.476562 L 282.304688 308.257812 L 280.589844 308.257812 Z M 280.589844 308.261719 " fill-opacity="1" fill-rule="nonzero"/><path fill="#000000" d="M 302.230469 316.035156 L 297.039062 316.035156 L 297.039062 313.5 L 301.484375 313.5 L 301.484375 312.09375 L 301.480469 312.09375 L 301.480469 312.085938 L 297.039062 312.085938 L 297.039062 309.695312 L 302.050781 309.695312 L 302.050781 308.261719 L 302.046875 308.261719 L 302.046875 308.257812 L 295.324219 308.257812 L 295.324219 308.261719 L 295.320312 308.261719 L 295.320312 317.476562 L 302.234375 317.476562 L 302.234375 316.042969 L 302.230469 316.042969 Z M 302.230469 316.035156 " fill-opacity="1" fill-rule="nonzero"/><path fill="#000000" d="M 320.90625 313.613281 C 320.871094 313.558594 320.835938 313.496094 320.789062 313.449219 C 320.757812 313.414062 320.71875 313.390625 320.6875 313.355469 C 320.433594 313.09375 320.136719 312.886719 319.804688 312.738281 C 319.753906 312.71875 319.714844 312.683594 319.664062 312.664062 C 319.511719 312.605469 319.339844 312.546875 319.160156 312.492188 C 318.816406 312.378906 318.429688 312.269531 317.988281 312.160156 C 317.484375 312.039062 317.085938 311.933594 316.792969 311.839844 C 316.527344 311.75 316.304688 311.625 316.121094 311.476562 C 316.105469 311.464844 316.089844 311.457031 316.078125 311.445312 C 315.984375 311.367188 315.910156 311.269531 315.867188 311.164062 C 315.820312 311.054688 315.796875 310.933594 315.796875 310.800781 C 315.796875 310.425781 315.957031 310.121094 316.289062 309.894531 C 316.320312 309.871094 316.367188 309.855469 316.40625 309.832031 C 316.734375 309.648438 317.195312 309.550781 317.800781 309.550781 C 318.207031 309.550781 318.632812 309.613281 319.074219 309.738281 C 319.453125 309.84375 319.8125 309.996094 320.160156 310.1875 C 320.222656 310.21875 320.285156 310.242188 320.34375 310.277344 L 320.882812 308.945312 C 320.484375 308.683594 320.011719 308.480469 319.472656 308.332031 C 318.929688 308.191406 318.378906 308.121094 317.820312 308.121094 C 317.054688 308.121094 316.40625 308.238281 315.871094 308.460938 C 315.835938 308.472656 315.796875 308.484375 315.761719 308.5 C 315.757812 308.5 315.753906 308.503906 315.753906 308.503906 L 315.75 308.503906 C 315.722656 308.515625 315.695312 308.53125 315.664062 308.546875 C 315.558594 308.597656 315.460938 308.648438 315.363281 308.703125 C 315.339844 308.714844 315.324219 308.730469 315.300781 308.746094 C 314.96875 308.953125 314.707031 309.203125 314.511719 309.492188 C 314.335938 309.757812 314.21875 310.046875 314.15625 310.355469 C 314.148438 310.40625 314.132812 310.453125 314.125 310.503906 C 314.105469 310.625 314.097656 310.753906 314.097656 310.878906 C 314.097656 310.984375 314.109375 311.074219 314.117188 311.171875 C 314.121094 311.214844 314.121094 311.265625 314.128906 311.308594 C 314.136719 311.378906 314.15625 311.433594 314.171875 311.5 C 314.1875 311.566406 314.191406 311.632812 314.210938 311.695312 C 314.226562 311.738281 314.246094 311.769531 314.265625 311.8125 C 314.292969 311.886719 314.324219 311.960938 314.359375 312.03125 L 314.390625 312.078125 C 314.441406 312.160156 314.496094 312.242188 314.558594 312.316406 C 314.871094 312.675781 315.246094 312.9375 315.675781 313.109375 C 316.03125 313.25 316.488281 313.382812 317.023438 313.511719 C 317.140625 313.542969 317.257812 313.574219 317.390625 313.605469 C 317.613281 313.660156 317.808594 313.710938 317.988281 313.761719 C 318.210938 313.824219 318.410156 313.882812 318.570312 313.9375 C 318.863281 314.03125 319.105469 314.164062 319.289062 314.335938 C 319.375 314.417969 319.4375 314.507812 319.488281 314.605469 C 319.542969 314.722656 319.574219 314.847656 319.574219 314.992188 C 319.574219 315.351562 319.40625 315.636719 319.066406 315.859375 C 318.730469 316.078125 318.214844 316.1875 317.535156 316.1875 C 316.980469 316.1875 316.429688 316.09375 315.882812 315.90625 C 315.5 315.773438 315.171875 315.601562 314.875 315.414062 C 314.746094 315.335938 314.609375 315.257812 314.496094 315.164062 L 314.492188 315.171875 L 314.289062 315.621094 L 313.898438 316.496094 C 313.898438 316.496094 313.898438 316.5 313.902344 316.5 L 313.898438 316.503906 C 314.101562 316.679688 314.347656 316.835938 314.628906 316.972656 C 314.878906 317.101562 315.160156 317.210938 315.476562 317.308594 C 316.136719 317.507812 316.824219 317.613281 317.527344 317.613281 C 318.34375 317.613281 319.03125 317.492188 319.59375 317.246094 C 320.152344 316.992188 320.574219 316.660156 320.851562 316.25 C 321.125 315.84375 321.265625 315.386719 321.265625 314.871094 C 321.265625 314.359375 321.136719 313.941406 320.90625 313.613281 Z M 320.90625 313.613281 " fill-opacity="1" fill-rule="nonzero"/></svg>