<?xml version="1.0" encoding="UTF-8"?>
<svg id="Layer_1" data-name="Layer 1" xmlns="http://www.w3.org/2000/svg" xmlns:xlink="http://www.w3.org/1999/xlink" viewBox="0 0 1366 1102.7291">
  <defs>
    <style>
      .cls-1 {
        clip-path: url(#clippath-1);
      }

      .cls-2 {
        clip-path: url(#clippath-2);
      }

      .cls-3 {
        fill: #fff;
      }

      .cls-4 {
        fill: #2c6560;
      }

      .cls-5 {
        clip-path: url(#clippath);
      }
    </style>
    <clipPath id="clippath">
      <rect class="cls-3" width="1365.3334" height="1102.7295"/>
    </clipPath>
    <clipPath id="clippath-1">
      <rect class="cls-3" y="-.6511" width="1365.3334" height="1103.9998"/>
    </clipPath>
    <clipPath id="clippath-2">
      <rect class="cls-3" width="1365.3334" height="1102.729"/>
    </clipPath>
  </defs>
  <g>
    <rect class="cls-3" width="1365.3334" height="1102.7295"/>
    <g class="cls-5">
      <g>
        <rect class="cls-3" y="-.6511" width="1365.3334" height="1103.9998"/>
        <g class="cls-1">
          <g>
            <rect class="cls-3" width="1365.3334" height="1102.729"/>
            <g class="cls-2">
              <path class="cls-3" d="M-9.4687,0h1382.724v1102.7292H-9.4687V0Z"/>
            </g>
          </g>
        </g>
      </g>
    </g>
  </g>
  <path class="cls-4" d="M413.1341,466.0508c10.3177,0,18.0052,2.4271,23.0625,7.2708,5.0521,4.8333,7.5833,11.9792,7.5833,21.4375,0,5.0417-1.2396,9.474-3.7083,13.2917-2.474,3.8229-6.1354,6.7813-10.9792,8.875-4.8333,2.099-10.8021,3.1458-17.8958,3.1458l.6458-7.25c3.3333,0,7.1458.4583,11.4375,1.375,4.3021.9063,8.4688,2.5156,12.5,4.8333,4.0417,2.3073,7.375,5.5313,10,9.6667,2.6354,4.1406,3.9583,9.4323,3.9583,15.875,0,7.099-1.1615,12.9063-3.4792,17.4167-2.3073,4.5156-5.3438,8.0104-9.1042,10.4792-3.7656,2.474-7.8021,4.1667-12.1042,5.0833-4.2917.9167-8.4271,1.375-12.3958,1.375h-40.1458c-2.8073,0-5.1458-.9375-7.0208-2.8125-1.875-1.8854-2.8125-4.2292-2.8125-7.0208v-93.2083c0-2.7917.9375-5.125,2.8125-7,1.875-1.8854,4.2135-2.8333,7.0208-2.8333h40.625ZM410.2383,485.0716h-28.7083l2.1042-2.5833v29.1875l-1.9375-1.4375h29.0208c3.1094,0,5.901-1.0208,8.375-3.0625,2.4844-2.0417,3.7292-5,3.7292-8.875,0-4.625-1.1615-7.9844-3.4792-10.0833-2.3073-2.0938-5.3438-3.1458-9.1042-3.1458ZM411.53,529.2591h-29.3542l1.4583-1.2917v34.0208l-1.625-1.6042h30.6458c4.9427,0,8.8646-1.3125,11.7708-3.9375,2.901-2.6354,4.3542-6.5938,4.3542-11.875,0-4.8333-.974-8.3229-2.9167-10.4792-1.9323-2.151-4.2448-3.4896-6.9375-4.0208-2.6823-.5417-5.1458-.8125-7.3958-.8125Z"/>
  <path class="cls-4" d="M473.1316,578.9258c-2.8073,0-5.125-.9375-6.9583-2.8125-1.8229-1.8854-2.7292-4.2292-2.7292-7.0208v-66.6042c0-2.7917.9062-5.125,2.7292-7,1.8333-1.8854,4.151-2.8333,6.9583-2.8333,2.7917,0,5.0938.9479,6.9167,2.8333,1.8333,1.875,2.75,4.2083,2.75,7v15.1667l-1.125-10.8125c1.1771-2.5833,2.7083-4.8646,4.5833-6.8542,1.8854-1.9844,4.0104-3.6458,6.375-4.9792,2.3594-1.3438,4.8802-2.3385,7.5625-2.9792,2.6927-.651,5.3854-.9792,8.0833-.9792,3.2188,0,5.9271.9167,8.125,2.75,2.2083,1.8229,3.3125,3.9688,3.3125,6.4375,0,3.5417-.9167,6.099-2.75,7.6667-1.8229,1.5573-3.8073,2.3333-5.9583,2.3333-2.0417,0-3.8958-.375-5.5625-1.125-1.6667-.7604-3.5729-1.1458-5.7083-1.1458-1.9479,0-3.9115.4583-5.8958,1.375-1.9896.9167-3.8125,2.349-5.4792,4.2917-1.6667,1.9323-3.0156,4.3229-4.0417,7.1667-1.0156,2.849-1.5208,6.2031-1.5208,10.0625v38.2292c0,2.7917-.9167,5.1354-2.75,7.0208-1.8229,1.875-4.125,2.8125-6.9167,2.8125Z"/>
  <path class="cls-4" d="M600.8262,491.0508c2.7917,0,5.1042.9167,6.9375,2.75,1.8333,1.8229,2.75,4.1823,2.75,7.0833v68.2083c0,2.7917-.9167,5.1354-2.75,7.0208-1.8333,1.875-4.1458,2.8125-6.9375,2.8125s-5.1042-.9375-6.9375-2.8125c-1.8229-1.8854-2.7292-4.2292-2.7292-7.0208v-7.8958l3.5417,1.4375c0,1.4063-.7604,3.099-2.2708,5.0833-1.5,1.9896-3.5417,3.9531-6.125,5.8958-2.5729,1.9323-5.6042,3.5729-9.1042,4.9167-3.4896,1.3333-7.2708,2-11.3542,2-7.4167,0-14.1406-1.901-20.1667-5.7083-6.0156-3.8177-10.7708-9.0885-14.2708-15.8125-3.4896-6.7188-5.2292-14.4375-5.2292-23.1458,0-8.8021,1.7396-16.5677,5.2292-23.2917,3.5-6.7188,8.1979-11.9844,14.1042-15.7917,5.9167-3.8177,12.4792-5.7292,19.6875-5.7292,4.625,0,8.8646.7031,12.7292,2.1042,3.875,1.3906,7.2344,3.1615,10.0833,5.3125,2.8438,2.1563,5.0469,4.3333,6.6042,6.5417,1.5521,2.1979,2.3333,4.0417,2.3333,5.5417l-5.7917,2.1042v-11.7708c0-2.7917.9063-5.125,2.7292-7,1.8333-1.8854,4.1458-2.8333,6.9375-2.8333ZM568.2637,562.8008c4.7188,0,8.8542-1.1771,12.3958-3.5417,3.5521-2.375,6.3229-5.6042,8.3125-9.6875,2-4.0833,3-8.651,3-13.7083,0-5.151-1-9.7708-3-13.8542-1.9896-4.0833-4.7604-7.3021-8.3125-9.6667-3.5417-2.375-7.6771-3.5625-12.3958-3.5625-4.625,0-8.7188,1.1875-12.2708,3.5625-3.5417,2.3646-6.3073,5.5833-8.2917,9.6667-1.9896,4.0833-2.9792,8.7031-2.9792,13.8542,0,5.0573.9896,9.625,2.9792,13.7083,1.9844,4.0833,4.75,7.3125,8.2917,9.6875,3.5521,2.3646,7.6458,3.5417,12.2708,3.5417Z"/>
  <path class="cls-4" d="M674.3658,491.0508c7.9583,0,14,1.6667,18.125,5,4.1354,3.3333,6.9844,7.7708,8.5417,13.3125,1.5677,5.5313,2.3542,11.6771,2.3542,18.4375v41.2917c0,2.7917-.9167,5.1354-2.75,7.0208-1.8229,1.875-4.125,2.8125-6.9167,2.8125-2.8073,0-5.125-.9375-6.9583-2.8125-1.8229-1.8854-2.7292-4.2292-2.7292-7.0208v-41.2917c0-3.5417-.4583-6.7344-1.375-9.5833-.9063-2.8438-2.5417-5.1302-4.9167-6.8542-2.3646-1.7188-5.7448-2.5833-10.1458-2.5833-4.3073,0-7.9375.8646-10.8958,2.5833-2.9583,1.724-5.2188,4.0104-6.7708,6.8542-1.5573,2.849-2.3333,6.0417-2.3333,9.5833v41.2917c0,2.7917-.9167,5.1354-2.75,7.0208-1.8229,1.875-4.125,2.8125-6.9167,2.8125-2.8073,0-5.125-.9375-6.9583-2.8125-1.8229-1.8854-2.7292-4.2292-2.7292-7.0208v-66.6042c0-2.7917.9062-5.125,2.7292-7,1.8333-1.8854,4.151-2.8333,6.9583-2.8333,2.7917,0,5.0938.9479,6.9167,2.8333,1.8333,1.875,2.75,4.2083,2.75,7v6.9375l-2.4167-.4792c.9583-1.8333,2.3542-3.7969,4.1875-5.8958,1.8333-2.0938,3.9844-4.0521,6.4583-5.875,2.4688-1.8333,5.2604-3.3125,8.375-4.4375,3.125-1.125,6.5104-1.6875,10.1667-1.6875Z"/>
  <path class="cls-4" d="M791.7453,459.5924c2.7917,0,5.1042.9167,6.9375,2.75s2.75,4.2031,2.75,7.1042v99.6458c0,2.7917-.9167,5.1354-2.75,7.0208-1.8333,1.875-4.1458,2.8125-6.9375,2.8125s-5.1042-.9375-6.9375-2.8125c-1.8229-1.8854-2.7292-4.2292-2.7292-7.0208v-7.8958l3.5417,1.4375c0,1.4063-.7604,3.099-2.2708,5.0833-1.5,1.9896-3.5417,3.9531-6.125,5.8958-2.5729,1.9323-5.6042,3.5729-9.1042,4.9167-3.4896,1.3333-7.2708,2-11.3542,2-7.4167,0-14.1406-1.901-20.1667-5.7083-6.0156-3.8177-10.7708-9.0885-14.2708-15.8125-3.4896-6.7188-5.2292-14.4375-5.2292-23.1458,0-8.8021,1.7396-16.5677,5.2292-23.2917,3.5-6.7188,8.1979-11.9844,14.1042-15.7917,5.9167-3.8177,12.4792-5.7292,19.6875-5.7292,4.625,0,8.8646.7031,12.7292,2.1042,3.875,1.3906,7.2344,3.1615,10.0833,5.3125,2.8438,2.1563,5.0469,4.3333,6.6042,6.5417,1.5521,2.1979,2.3333,4.0417,2.3333,5.5417l-5.7917,2.1042v-43.2083c0-2.8021.9063-5.1458,2.7292-7.0208,1.8333-1.8854,4.1458-2.8333,6.9375-2.8333ZM759.1828,562.8008c4.7188,0,8.8542-1.1771,12.3958-3.5417,3.5521-2.375,6.3229-5.6042,8.3125-9.6875,2-4.0833,3-8.651,3-13.7083,0-5.151-1-9.7708-3-13.8542-1.9896-4.0833-4.7604-7.3021-8.3125-9.6667-3.5417-2.375-7.6771-3.5625-12.3958-3.5625-4.625,0-8.7188,1.1875-12.2708,3.5625-3.5417,2.3646-6.3073,5.5833-8.2917,9.6667-1.9896,4.0833-2.9792,8.7031-2.9792,13.8542,0,5.0573.9896,9.625,2.9792,13.7083,1.9844,4.0833,4.75,7.3125,8.2917,9.6875,3.5521,2.3646,7.6458,3.5417,12.2708,3.5417Z"/>
  <path class="cls-4" d="M837.3889,569.0924c0,2.7917-.9167,5.1354-2.75,7.0208-1.8229,1.875-4.1354,2.8125-6.9375,2.8125-2.7917,0-5.1042-.9375-6.9375-2.8125-1.8229-1.8854-2.7292-4.2292-2.7292-7.0208v-66.6042c0-2.7917.9062-5.125,2.7292-7,1.8333-1.8854,4.1458-2.8333,6.9375-2.8333,2.8021,0,5.1146.9479,6.9375,2.8333,1.8333,1.875,2.75,4.2083,2.75,7v66.6042ZM827.5556,482.1758c-3.6563,0-6.2396-.5885-7.75-1.7708-1.5-1.1771-2.25-3.276-2.25-6.2917v-3.0625c0-3.125.8333-5.25,2.5-6.375s4.2187-1.6875,7.6667-1.6875c3.7604,0,6.3958.5938,7.8958,1.7708,1.5,1.1823,2.25,3.2813,2.25,6.2917v3.0625c0,3.1146-.8073,5.2396-2.4167,6.375-1.6146,1.125-4.2448,1.6875-7.8958,1.6875Z"/>
  <path class="cls-4" d="M900.1146,491.0508c7.9583,0,14,1.6667,18.125,5,4.1354,3.3333,6.9844,7.7708,8.5417,13.3125,1.5677,5.5313,2.3542,11.6771,2.3542,18.4375v41.2917c0,2.7917-.9167,5.1354-2.75,7.0208-1.8229,1.875-4.125,2.8125-6.9167,2.8125-2.8073,0-5.125-.9375-6.9583-2.8125-1.8229-1.8854-2.7292-4.2292-2.7292-7.0208v-41.2917c0-3.5417-.4583-6.7344-1.375-9.5833-.9063-2.8438-2.5417-5.1302-4.9167-6.8542-2.3646-1.7188-5.7448-2.5833-10.1458-2.5833-4.3073,0-7.9375.8646-10.8958,2.5833-2.9583,1.724-5.2188,4.0104-6.7708,6.8542-1.5573,2.849-2.3333,6.0417-2.3333,9.5833v41.2917c0,2.7917-.9167,5.1354-2.75,7.0208-1.8229,1.875-4.125,2.8125-6.9167,2.8125-2.8073,0-5.125-.9375-6.9583-2.8125-1.8229-1.8854-2.7292-4.2292-2.7292-7.0208v-66.6042c0-2.7917.9062-5.125,2.7292-7,1.8333-1.8854,4.151-2.8333,6.9583-2.8333,2.7917,0,5.0938.9479,6.9167,2.8333,1.8333,1.875,2.75,4.2083,2.75,7v6.9375l-2.4167-.4792c.9583-1.8333,2.3542-3.7969,4.1875-5.8958,1.8333-2.0938,3.9844-4.0521,6.4583-5.875,2.4688-1.8333,5.2604-3.3125,8.375-4.4375,3.125-1.125,6.5104-1.6875,10.1667-1.6875Z"/>
  <path class="cls-4" d="M982.6608,491.0508c4.5104,0,8.651.7031,12.4167,2.1042,3.7604,1.3906,7.0104,3.1615,9.75,5.3125,2.75,2.1563,4.901,4.3333,6.4583,6.5417,1.5521,2.1979,2.3333,4.0417,2.3333,5.5417l-4.1875,2.1042v-11.7708c0-2.7917.9063-5.125,2.7292-7,1.8333-1.8854,4.151-2.8333,6.9583-2.8333,2.7917,0,5.0938.9167,6.9167,2.75,1.8333,1.8229,2.75,4.1823,2.75,7.0833v71.75c0,9.3594-2.0156,16.8594-6.0417,22.5-4.0313,5.6354-9.3281,9.7188-15.8958,12.25-6.5573,2.526-13.599,3.7917-21.125,3.7917-2.1406,0-4.9323-.2708-8.375-.8125-3.4479-.5313-6.7292-1.1771-9.8542-1.9375-3.1146-.75-5.474-1.4479-7.0833-2.0833-3.224-1.4063-5.4531-3.1563-6.6875-5.25-1.2396-2.099-1.4792-4.3281-.7292-6.6875.9688-3.1146,2.526-5.2396,4.6667-6.375,2.151-1.125,4.4167-1.2604,6.7917-.3958,1.0677.3177,2.8385.9635,5.3125,1.9375,2.4688.9688,5.1875,1.8594,8.1458,2.6667,2.9583.8021,5.5625,1.2083,7.8125,1.2083,8.0677,0,14.0313-1.6198,17.8958-4.8542,3.875-3.224,5.8125-7.6823,5.8125-13.375v-14.0208l1.9375,1.4375c0,1.4063-.7292,3.099-2.1875,5.0833-1.4479,1.9896-3.4323,3.9531-5.9583,5.8958-2.5313,1.9323-5.5156,3.5729-8.9583,4.9167-3.4323,1.3333-7.0833,2-10.9583,2-7.625,0-14.5104-1.901-20.6458-5.7083-6.125-3.8177-10.9583-9.0885-14.5-15.8125-3.5417-6.7188-5.3125-14.4375-5.3125-23.1458,0-8.8021,1.7708-16.5677,5.3125-23.2917,3.5417-6.7188,8.3177-11.9844,14.3333-15.7917,6.026-3.8177,12.75-5.7292,20.1667-5.7292ZM985.7233,508.7799c-4.8333,0-9.0781,1.1875-12.7292,3.5625-3.6563,2.3646-6.5,5.5833-8.5417,9.6667s-3.0625,8.7031-3.0625,13.8542c0,5.0573,1.0208,9.625,3.0625,13.7083s4.8854,7.3125,8.5417,9.6875c3.651,2.3646,7.8958,3.5417,12.7292,3.5417,4.9427,0,9.2396-1.1771,12.8958-3.5417,3.6667-2.375,6.5208-5.6042,8.5625-9.6875s3.0625-8.651,3.0625-13.7083c0-5.151-1.0208-9.7708-3.0625-13.8542s-4.8958-7.3021-8.5625-9.6667c-3.6563-2.375-7.9531-3.5625-12.8958-3.5625Z"/>
</svg>