<?xml version="1.0" encoding="UTF-8"?>
<svg id="Layer_1" data-name="Layer 1" xmlns="http://www.w3.org/2000/svg" viewBox="0 0 1440 132.1542">
  <defs>
    <style>
      .cls-1 {
        fill: #2c6560;
      }

      .cls-2 {
        fill: #407b7b;
      }

      .cls-3 {
        fill: #2b6661;
      }
    </style>
  </defs>
  <path class="cls-1" d="M438.2959,53.0472h9.36l-2.5281-14.4263-6.8319,14.4263h0ZM448.6892,58.5449h-12.9014l-3.8223,7.6947c-.311.6621-.7223,1.1437-1.254,1.4647-.5217.321-1.0634.4815-1.6553.4815-.7725,0-1.3744-.2408-1.8158-.7323-.4514-.4815-.6722-1.0735-.6722-1.7556,0-.1806.01-.3612.0401-.5618.0301-.2107.1003-.4414.2307-.6922l14.2758-29.3642c.4214-.8929,1.0534-1.6453,1.9262-2.2572.8628-.612,1.866-.923,3.0097-.923,1.0433,0,1.9362.2909,2.6786.8828.7323.5819,1.1938,1.3744,1.3844,2.3576l5.6883,29.3642c.0301.0803.0401.1806.0401.2909v.2508c0,.8327-.311,1.565-.943,2.1971s-1.3945.943-2.2773.943c-.622,0-1.1537-.1806-1.565-.5217-.4113-.3612-.6722-.8126-.7925-1.3544l-1.5751-7.7649h0Z"/>
  <path class="cls-1" d="M465.3107,34.9893c.1204-.8628.5317-1.5951,1.2139-2.1971.6922-.5919,1.4747-.9029,2.3375-.9029.7925,0,1.4346.2608,1.9262.7725.5016.5016.7524,1.1437.7524,1.9061,0,.0702-.01.1505-.0201.2307-.0201.0702-.0201.1405-.0201.1906l-3.8423,27.2976h10.7244c.7123,0,1.2941.2408,1.7556.7123s.6922,1.0634.6922,1.7757c0,.8628-.3311,1.6052-.9832,2.2171-.6421.612-1.3945.923-2.2572.923h-15.0082c-.5417,0-.9531-.1906-1.2139-.5618-.2709-.3913-.4013-.8327-.4013-1.3343l4.3439-31.0296h.0002Z"/>
  <path class="cls-1" d="M489.3144,34.9893c.1204-.8628.5317-1.5951,1.2139-2.1971.6922-.5919,1.4747-.9029,2.3375-.9029.7925,0,1.4346.2608,1.9262.7725.5016.5016.7524,1.1437.7524,1.9061,0,.0702-.01.1505-.0201.2307-.0201.0702-.0201.1405-.0201.1906l-3.8423,27.2976h10.7244c.7123,0,1.2941.2408,1.7556.7123s.6922,1.0634.6922,1.7757c0,.8628-.3311,1.6052-.9832,2.2171-.6421.612-1.3945.923-2.2572.923h-15.0082c-.5417,0-.9531-.1906-1.2139-.5618-.2709-.3913-.4013-.8327-.4013-1.3343l4.3439-31.0296h.0002Z"/>
  <path class="cls-1" d="M515.3446,31.8993c.7925,0,1.4446.2608,1.9462.7725.5116.5016.7725,1.1236.7725,1.856,0,.0602-.01.1204-.0201.2107-.0201.0702-.0201.1405-.0201.2107l-4.2436,30.1768c-.1204.8327-.5317,1.555-1.2139,2.1569-.6722.6019-1.4346.9029-2.2974.9029-.7725,0-1.4145-.2508-1.9462-.7524-.5217-.5116-.7725-1.1437-.7725-1.8861,0-.0502.01-.1104.0201-.1906.01-.0803.0201-.1605.0201-.2307l4.2436-30.1768c.1204-.8327.5217-1.555,1.1938-2.1569.6722-.5919,1.4547-.8929,2.3174-.8929h0Z"/>
  <path class="cls-1" d="M546.0111,55.8462c0,2.3375-.6019,4.4643-1.7958,6.3704-1.1838,1.9162-2.8893,3.431-5.0964,4.5546-2.2171,1.1236-4.8756,1.6954-7.9856,1.6954-2.7087,0-5.0763-.4314-7.1229-1.2741s-3.6116-1.8459-4.685-2.9896c-.1204-.1505-.2408-.321-.3511-.5217-.1104-.1906-.1705-.4314-.1705-.7123,0-.933.3812-1.7155,1.1236-2.3576.7624-.6421,1.5951-.9631,2.488-.9631.3913,0,.7323.0702,1.0433.2107.321.1204.6521.3311.9832.6019.8929.7123,1.866,1.3243,2.9495,1.8359,1.0835.5016,2.5783.7524,4.4944.7524,2.5983,0,4.5747-.5016,5.919-1.5048s2.0265-2.3977,2.0265-4.1834c0-1.0433-.321-1.866-.9631-2.488-.622-.612-1.565-1.1537-2.799-1.6052-1.2239-.4615-2.7589-.943-4.5947-1.4446-1.1437-.3311-2.2974-.6922-3.4711-1.0634-1.1738-.3913-2.2372-.8828-3.2003-1.4848-.9531-.5919-1.7155-1.3644-2.2974-2.3174-.5819-.9631-.8828-2.167-.8828-3.6116,0-1.8259.3612-3.4511,1.1035-4.8656.7323-1.4346,1.7556-2.6686,3.0498-3.7019s2.7589-1.8058,4.3941-2.3375c1.6252-.5417,3.3307-.8126,5.1164-.8126,1.1437,0,2.3475.1204,3.6116.3511,1.2841.2207,2.4679.5618,3.5715,1.0032,1.1136.4514,2.0165.9731,2.7187,1.5851.6922.612,1.0433,1.3243,1.0433,2.1268,0,.7424-.3311,1.4446-1.0032,2.1068-.6621.6621-1.4747.9832-2.4679.9832-.3812,0-.7223-.0602-1.0233-.1906-.311-.1204-.6421-.2909-1.0032-.5016-.7825-.5317-1.6052-.9832-2.488-1.3544-.8628-.3913-2.0867-.5819-3.6617-.5819-2.3375,0-4.063.4514-5.1666,1.3343-1.0835.8929-1.6252,2.0666-1.6252,3.5113,0,1.3243.6421,2.2873,1.9262,2.8893s3.2203,1.254,5.8287,1.9663c1.1938.311,2.4077.6621,3.6316,1.0433,1.234.3812,2.3676.8929,3.4109,1.5249,1.0333.622,1.8459,1.4547,2.4679,2.488.6421,1.0434.9531,2.3475.9531,3.9326v.0002Z"/>
  <path class="cls-1" d="M565.3052,68.4767c-2.4679,0-4.6951-.4314-6.6714-1.2741-1.9663-.8427-3.6517-2.0165-5.0562-3.4912-1.3945-1.4747-2.4579-3.2003-3.2003-5.1666-.7424-1.9763-1.1035-4.0731-1.1035-6.2902,0-2.7288.5417-5.3371,1.6252-7.8151,1.0935-2.478,2.6084-4.685,4.5346-6.6012,1.9262-1.9262,4.1634-3.431,6.7316-4.5346,2.5783-1.1136,5.3371-1.6754,8.2966-1.6754,2.4679,0,4.685.4314,6.6413,1.2741,1.9763.8327,3.6617,1.9964,5.0562,3.4912,1.4045,1.4948,2.478,3.2304,3.2203,5.2067.7323,1.9663,1.1035,4.053,1.1035,6.2701,0,2.7789-.5518,5.3973-1.6553,7.8552-1.0835,2.4679-2.5883,4.665-4.5145,6.5811-1.9262,1.9262-4.1734,3.441-6.7517,4.5346-2.5482,1.0935-5.3071,1.6352-8.2565,1.6352v.0002ZM580.203,48.3923c0-2.2171-.4615-4.1634-1.3844-5.8287-.923-1.6854-2.187-2.9996-3.7821-3.9527-1.6052-.9631-3.421-1.4446-5.4575-1.4446-1.8359,0-3.6116.3712-5.307,1.1035-1.6854.7424-3.1902,1.7757-4.4944,3.0899-1.3142,1.3243-2.3375,2.8792-3.0899,4.665s-1.1236,3.722-1.1236,5.8086c0,2.0666.4113,3.9426,1.234,5.618.8327,1.6754,2.0265,2.9996,3.5715,3.9928,1.555.9731,3.431,1.4647,5.618,1.4647,2.0064,0,3.8624-.3812,5.5779-1.1236,1.7255-.7524,3.2304-1.7958,4.5145-3.13,1.2941-1.3343,2.3074-2.8893,3.0297-4.6349.7323-1.7657,1.0935-3.6317,1.0935-5.6281h-.0002Z"/>
  <path class="cls-1" d="M595.6279,65.1962c-.1204.8226-.5217,1.5249-1.1938,2.1068-.6621.5819-1.4145.8828-2.2773.8828-.7725,0-1.4045-.2408-1.9061-.7323-.4916-.4815-.7323-1.0935-.7323-1.8359,0-.0702.01-.1405.0201-.2107.01-.0803.0201-.1505.0201-.2107l3.9728-28.0701c.1204-.9631.4715-1.8259,1.0433-2.6084.5718-.7925,1.2841-1.4246,2.1569-1.9061.8628-.4715,1.7857-.7123,2.7589-.7123.9832,0,1.8459.2408,2.5883.7123.7323.4715,1.2641,1.1637,1.565,2.0666l7.8151,20.7165,2.8592-20.4857c.1104-.8327.4916-1.545,1.1537-2.1268.6722-.5819,1.4246-.8828,2.2572-.8828.7624,0,1.3945.2508,1.8861.7524.5016.4916.7524,1.1035.7524,1.8359,0,.0602-.01.1204-.0201.2107-.0201.0702-.0201.1405-.0201.2107l-4.2035,29.9461c-.1204.923-.5618,1.7055-1.2941,2.3576-.7424.6421-1.565.9631-2.488.9631-1.3644,0-2.2673-.5819-2.6987-1.7556l-10.4736-26.6254-3.5414,25.4015-.0002-.0002Z"/>
  <path class="cls-1" d="M166.2457,67.2144c-.612,0-1.1136-.2006-1.5048-.6019-.3812-.4013-.5618-.8929-.5618-1.4647v-31.2703c0-.5718.1906-1.0433.5618-1.4246.3913-.3913.8628-.5819,1.4446-.5819h17.7269c.5718,0,1.0534.1906,1.4647.5618.4013.3612.6019.8327.6019,1.4045,0,.5417-.2006,1.0032-.6019,1.3844-.4113.3612-.8929.5417-1.4647.5417h-15.9111l.311-.4013v12.3496l-.2508-.5417h13.5836c.5718,0,1.0534.2006,1.4647.5819.4013.3812.6019.8527.6019,1.4246,0,.5217-.2006.9731-.6019,1.3544-.4113.3812-.8929.5618-1.4647.5618h-13.6839l.3511-.4414v14.4865c0,.5718-.2006,1.0634-.6019,1.4647-.4113.4113-.8929.612-1.4647.612h0Z"/>
  <path class="cls-1" d="M211.1675,63.2215c.5718,0,1.0534.2006,1.4647.5819.4013.3913.6019.8728.6019,1.4446s-.2006,1.0433-.6019,1.4246c-.4113.3612-.8929.5417-1.4647.5417h-17.4761c-.5718,0-1.0534-.2006-1.4446-.6019-.3812-.4013-.5618-.8929-.5618-1.4647v-31.2703c0-.5718.2006-1.0433.6019-1.4246.4013-.3913.9029-.5819,1.5048-.5819.5718,0,1.0534.2006,1.4647.5819.4013.3812.6019.8527.6019,1.4246v30.2671l-1.0032-.923h16.3124,0Z"/>
  <path class="cls-1" d="M249.8914,49.5376c0,2.5883-.4314,4.996-1.2741,7.2131-.8327,2.2071-2.0165,4.1333-3.5313,5.7886-1.5048,1.6453-3.3006,2.9194-5.3973,3.8223-2.0867.9029-4.364,1.3544-6.8119,1.3544-2.498,0-4.7854-.4514-6.852-1.3544-2.0666-.9029-3.8524-2.177-5.3672-3.8223-1.5048-1.6553-2.6886-3.5815-3.5313-5.7886-.8327-2.2171-1.254-4.6148-1.254-7.2131,0-2.6184.4214-5.0261,1.254-7.2332.8427-2.2171,2.0265-4.1333,3.5313-5.7685,1.5149-1.6252,3.3106-2.8993,5.3672-3.8022,2.0767-.9029,4.354-1.3544,6.852-1.3544,2.4479,0,4.7252.4514,6.8119,1.3544,2.0867.9129,3.8925,2.177,5.3973,3.8022,1.5149,1.6252,2.6987,3.5514,3.5313,5.7685.8427,2.2071,1.2741,4.6148,1.2741,7.2332ZM245.5375,49.5376c0-2.7589-.5518-5.1967-1.6553-7.3135-1.0835-2.1168-2.5682-3.7821-4.4543-4.996-1.886-1.2139-4.0731-1.8158-6.5611-1.8158-2.498,0-4.6951.6019-6.6012,1.8158-1.8961,1.2139-3.3909,2.8792-4.4744,4.996-1.0734,2.1168-1.6051,4.5546-1.6051,7.3135,0,2.7288.5317,5.1766,1.6051,7.3135,1.0835,2.1268,2.5783,3.8022,4.4744,5.0161,1.9061,1.2139,4.1032,1.8158,6.6012,1.8158,2.488,0,4.685-.6019,6.5611-1.8158s3.3608-2.8893,4.4543-5.0161c1.1035-2.1469,1.6553-4.5847,1.6553-7.3135Z"/>
  <path class="cls-1" d="M257.9148,67.2144c-.6421,0-1.1938-.2006-1.6553-.6019-.4514-.4013-.6722-.8929-.6722-1.4647v-31.2703c0-.5718.1906-1.0433.5618-1.4246.3913-.3913.8628-.5819,1.4446-.5819h13.9447c1.886,0,3.5815.4314,5.0964,1.2941,1.5149.8527,2.7187,2.0265,3.6116,3.5313.8929,1.4948,1.3343,3.2103,1.3343,5.1666,0,1.4246-.2709,2.7488-.8126,3.9728-.5317,1.2239-1.2741,2.2873-2.2171,3.1802-.9531.8929-2.0265,1.5751-3.2404,2.0466l-1.1035-.8126c1.1437.2809,2.167.7725,3.0698,1.4647.923.6822,1.6653,1.555,2.2372,2.6084.5718,1.0634.8628,2.2974.9029,3.7019.0702,1.254.1505,2.2472.2508,2.9896.1104.7424.2608,1.3142.4615,1.7356.2107.4214.4916.7424.8527.9832.4715.311.7825.7223.943,1.234.1505.5016.0602.9832-.2709,1.4446-.2107.311-.5016.5217-.8828.6521-.3612.1104-.7324.1605-1.1035.1204-.3612-.0401-.6822-.1505-.9631-.311-.5317-.301-1.0534-.7524-1.565-1.3343-.5016-.5819-.923-1.4346-1.254-2.5482s-.5016-2.6184-.5016-4.5346c0-1.0835-.1705-1.9763-.5016-2.6786-.3311-.7123-.7925-1.2841-1.3543-1.7155-.5718-.4414-1.2139-.7524-1.9262-.923s-1.4346-.2508-2.177-.2508h-11.2561l.6019-.923v13.1923c0,.5718-.1705,1.0634-.5016,1.4647-.3311.3913-.7825.5919-1.3543.5919h-.0001ZM259.1689,49.2367h12.3697c.9731-.0702,1.886-.4013,2.7388-1.0032.8628-.612,1.5751-1.4647,2.1268-2.5482.5518-1.0935.8327-2.3375.8327-3.722,0-1.7857-.5618-3.2605-1.6954-4.4342-1.1236-1.1838-2.5482-1.7757-4.2637-1.7757h-11.8982l.4013-.9631v15.3392l-.612-.8928Z"/>
  <path class="cls-1" d="M290.7167,31.8709h17.9777c.5718,0,1.0534.1906,1.4647.5618.4013.3612.6019.8327.6019,1.4045s-.2006,1.0433-.6019,1.4045c-.4113.3511-.8929.5217-1.4647.5217h-16.2622l.4615-.8527v12.771l-.5016-.5618h14.0451c.5718,0,1.0534.1906,1.4647.5618.4013.3812.6019.8527.6019,1.4246s-.2006,1.0333-.6019,1.3844c-.4113.3511-.8929.5217-1.4647.5217h-13.9046l.3511-.4414v13.0619l-.2909-.3311h16.1017c.5718,0,1.0534.2006,1.4647.6019.4013.4113.6019.8527.6019,1.3544,0,.5718-.2006,1.0433-.6019,1.4246-.4113.3612-.8929.5417-1.4647.5417h-17.9777c-.5718,0-1.0534-.2006-1.4446-.6019-.3812-.4013-.5618-.8929-.5618-1.4647v-31.2703c0-.5718.1906-1.0433.5618-1.4246.3913-.3912.8728-.5919,1.4446-.5919h-.0001Z"/>
  <path class="cls-1" d="M342.6196,31.8709c.5718,0,1.0233.1806,1.3543.5417.3311.3511.5016.7925.5016,1.3142v31.3707c0,.622-.2006,1.1437-.6019,1.5249-.3913.3913-.8828.5819-1.4647.5819-.2909,0-.5919-.0502-.9029-.1705-.311-.1204-.5417-.2809-.7123-.4815l-21.6093-28.5917,1.0032-.6019v27.9898c0,.5317-.1806.9731-.5217,1.3343-.3511.3511-.8126.5217-1.3844.5217-.5417,0-.9832-.1705-1.3142-.5217-.3311-.3612-.5016-.8026-.5016-1.3343v-31.481c0-.5919.1906-1.0735.5618-1.4446.3913-.3812.8527-.5618,1.4045-.5618.301,0,.612.0602.923.1906.321.1104.5718.2909.7524.5217l21.2983,28.1704-.6521.7925v-27.8193c0-.5317.1705-.9631.5217-1.3142s.8026-.5317,1.3443-.5317v-.0002Z"/>
  <path class="cls-1" d="M377.7469,34.1884c.5718.311.9029.7725.9832,1.3844.0803.6019-.0803,1.1537-.4815,1.6553-.2909.4314-.6822.6722-1.1537.7123-.4715.0301-.9531-.0702-1.4246-.311-1.1136-.6722-2.3174-1.1938-3.5915-1.5851-1.2741-.3913-2.6084-.5819-4.0329-.5819-1.9763,0-3.8022.3511-5.4575,1.0433-1.6453.6822-3.0698,1.6553-4.2837,2.9093-1.2139,1.244-2.167,2.7288-2.8391,4.4543-.6722,1.7155-1.0032,3.6116-1.0032,5.6883,0,2.2271.3511,4.2236,1.0634,5.9792.7123,1.7456,1.6754,3.2304,2.9093,4.4543,1.2239,1.2239,2.6585,2.167,4.2837,2.799,1.6453.6421,3.421.9631,5.3271.9631,1.3844,0,2.7087-.1806,3.9928-.5417,1.2841-.3812,2.488-.923,3.6317-1.6252.4715-.2307.943-.321,1.4246-.2508.4715.0702.8828.311,1.2139.7123.4013.5417.5518,1.1035.4414,1.6954-.1003.5819-.4113,1.0233-.943,1.2941-.8527.5016-1.8158.9631-2.8893,1.3844s-2.1971.7424-3.3608.9832c-1.1637.2307-2.3275.3511-3.5113.3511-2.4278,0-4.7151-.4214-6.8721-1.254-2.1469-.8427-4.053-2.0566-5.7083-3.6316-1.6453-1.5851-2.9495-3.4912-3.9126-5.7284-.9531-2.2372-1.4246-4.7653-1.4246-7.5643,0-2.6184.4514-5.0261,1.3543-7.2131.9029-2.187,2.177-4.0831,3.8022-5.7083,1.6453-1.6152,3.5414-2.8692,5.7083-3.7821,2.177-.923,4.5245-1.3844,7.0426-1.3844,1.7556,0,3.4611.2408,5.1164.7123,1.6954.4414,3.2203,1.1136,4.5947,1.9864h.0001Z"/>
  <path class="cls-1" d="M385.8697,31.8709h17.9777c.5718,0,1.0534.1906,1.4647.5618.4013.3612.6019.8327.6019,1.4045s-.2006,1.0433-.6019,1.4045c-.4113.3511-.8929.5217-1.4647.5217h-16.2622l.4615-.8527v12.771l-.5016-.5618h14.0451c.5718,0,1.0534.1906,1.4647.5618.4013.3812.6019.8527.6019,1.4246s-.2006,1.0333-.6019,1.3844c-.4113.3511-.8929.5217-1.4647.5217h-13.9046l.3511-.4414v13.0619l-.2909-.3311h16.0916c.5718,0,1.0534.2006,1.4647.6019.4013.4113.6019.8527.6019,1.3544,0,.5718-.2006,1.0433-.6019,1.4246-.4113.3612-.8929.5417-1.4647.5417h-17.9777c-.5718,0-1.0534-.2006-1.4446-.6019-.3812-.4013-.5618-.8929-.5618-1.4647v-31.2703c0-.5718.1906-1.0433.5618-1.4246.4013-.3912.8828-.5919,1.4547-.5919h-.0001Z"/>
  <path class="cls-1" d="M694.6363,31.2343c-1.2641,0-2.5181.1204-3.752.3712-1.244.2408-2.4479.612-3.6216,1.0935s-2.2773,1.0835-3.3307,1.7857-2.0265,1.5048-2.9193,2.3977c-.8929.9029-1.6954,1.866-2.3977,2.9194s-1.2941,2.167-1.7858,3.3307c-.4815,1.1738-.8527,2.3776-1.0935,3.6216-.2408,1.234-.3712,2.488-.3712,3.7621,0,1.2641.1204,2.5181.3712,3.7621.2508,1.234.6119,2.4479,1.0935,3.6116.4815,1.1738,1.0835,2.2773,1.7858,3.3307.7023,1.0534,1.5048,2.0265,2.3977,2.9194.9029.8929,1.866,1.6954,2.9294,2.3977,1.0534.7023,2.1669,1.2942,3.3307,1.7857,1.1637.4816,2.3676.8427,3.6116,1.0935,1.2339.2408,2.488.3712,3.7621.3712,1.2641,0,2.5181-.1204,3.7621-.3712,1.2339-.2508,2.4479-.6119,3.6116-1.0935,1.1737-.4816,2.2773-1.0835,3.3307-1.7857s2.0265-1.4948,2.9193-2.3977c.8929-.9029,1.6954-1.866,2.3977-2.9294.7023-1.0534,1.2941-2.167,1.7858-3.3307.4815-1.1738.8527-2.3676,1.0935-3.6116s.3712-2.498.3712-3.7621-.1204-2.5181-.3712-3.7621c-.2508-1.234-.6119-2.4479-1.0935-3.6116-.4815-1.1738-1.0835-2.2773-1.7858-3.3307s-1.5048-2.0265-2.3977-2.9194c-.9029-.8929-1.866-1.6954-2.9294-2.3977-1.0534-.7023-2.1669-1.2941-3.3307-1.7857-1.1737-.4815-2.3776-.8527-3.6216-1.0935-1.224-.2508-2.478-.3712-3.752-.3712h-.0001ZM694.6363,66.4372c-.9731,0-1.9362-.0903-2.8993-.2709s-1.8961-.4414-2.809-.7926-1.7858-.7825-2.6083-1.2942c-.8327-.5117-1.6051-1.0835-2.3275-1.7356-.7223-.6521-1.3844-1.3644-1.9763-2.1369s-1.1136-1.5951-1.555-2.4579-.8026-1.7757-1.0835-2.7087-.4715-1.8861-.5718-2.8491h15.7004c-1.0534,1.0534-1.866,2.2773-2.4378,3.6617-.5718,1.3844-.8527,2.809-.8527,4.3038h3.3508c0-.5217.0501-1.0433.1505-1.555.1003-.5116.2608-1.0132.4515-1.4948.2007-.4815.4515-.943.7323-1.3744.2909-.4314.622-.8327.9932-1.2039.3611-.3712.7725-.7023,1.2039-.9932.4314-.2909.8929-.5317,1.3744-.7323s.9831-.3511,1.4948-.4514,1.0333-.1505,1.555-.1505v-3.3507c-.5217,0-1.0433-.0502-1.555-.1505s-1.0133-.2608-1.4948-.4514-.943-.4414-1.3744-.7323c-.4414-.2909-.8327-.622-1.2039-.9832-.3712-.3712-.7023-.7725-.9932-1.2039s-.5317-.8929-.7323-1.3844c-.2007-.4815-.3511-.9731-.4515-1.4848-.1003-.5217-.1505-1.0333-.1505-1.555h-3.3508c0,1.4948.2809,2.9294.8527,4.3138.5718,1.3844,1.3844,2.5983,2.4378,3.6517h-15.7004c.1003-1.0132.311-2.0165.6119-2.9896s.6922-1.9162,1.1737-2.819,1.0433-1.7456,1.6854-2.5482c.6521-.7925,1.3543-1.5149,2.1469-2.177s1.6252-1.234,2.5181-1.7255,1.8259-.9029,2.799-1.2139,1.9663-.5317,2.9795-.6621c1.0133-.1204,2.0366-.1505,3.0498-.0803,1.0233.0702,2.0265.2408,3.0097.5116.9831.2608,1.9362.622,2.8592,1.0735.9229.4414,1.7858.9731,2.5984,1.5951.8126.612,1.565,1.3042,2.2472,2.0666s1.2842,1.5751,1.8158,2.4579c.5317.8728.9631,1.7958,1.3142,2.7488.3511.9631.6019,1.9462.7625,2.9595.1605,1.0132.2207,2.0265.1906,3.0498-.0401,1.0233-.1705,2.0265-.4013,3.0297-.2307.9932-.5518,1.9563-.9631,2.8993-.4213.933-.9229,1.8158-1.5048,2.6585-.5819.8327-1.244,1.6152-1.9763,2.3174-.7323.7123-1.535,1.3443-2.3977,1.9061-.8527.5518-1.7657,1.0233-2.7087,1.4145-.943.3812-1.9262.6722-2.9294.8628-1.0132.1405-2.0265.2308-3.0497.2308l-.0003.0003Z"/>
  <path class="cls-3" d="M778.1891,29.1648c.4815,0,.9531.1906,1.4045.5618.4615.3812.6922.8929.6922,1.5249,0,.2006-.0301.4113-.0803.6521l-6.3704,18.7301c-.1204.3913-.3511.6922-.6922.9029-.3311.2006-.6822.311-1.0433.3311-.3612,0-.7223-.1003-1.0835-.311-.3511-.2207-.622-.5317-.8126-.943l-4.7854-10.8448.2909.1906-4.7252,10.6542c-.2006.4113-.4715.7223-.8327.943-.3511.2107-.7023.311-1.0634.311-.3511-.0301-.7023-.1405-1.0433-.3311-.3311-.2107-.5618-.5116-.6922-.9029l-6.3704-18.7301c-.0602-.2307-.0803-.4514-.0803-.6521,0-.6421.2307-1.1537.6922-1.5249s.943-.5618,1.4446-.5618c.4013,0,.7825.1104,1.1236.3311.3612.2107.6019.5217.7323.923l5.1365,15.57-.7123-.0401,4.5747-11.0153c.1806-.3812.4314-.6722.7524-.9029s.6822-.3411,1.0835-.311c.4214-.0301.7825.0803,1.1035.311.321.2207.5518.5217.7123.9029l4.2035,10.5338-.5217.3311,5.0763-15.3794c.1204-.4013.3612-.7123.7323-.923.3411-.2107.7324-.3311,1.1537-.3311h.0004Z"/>
  <path class="cls-3" d="M790.5546,52.1787c-1.8359,0-3.441-.3812-4.7854-1.1236-1.3343-.7624-2.3676-1.8058-3.0899-3.11-.7123-1.3243-1.0634-2.809-1.0634-4.4744,0-1.9362.3913-3.5815,1.1738-4.9559.7925-1.3644,1.8259-2.4077,3.0899-3.13,1.2641-.7323,2.6084-1.1035,4.0329-1.1035,1.0935,0,2.1369.2307,3.11.6922.9731.4514,1.8359,1.0634,2.5883,1.856.7524.7825,1.3443,1.6854,1.7958,2.7187.4414,1.0333.6722,2.1268.6722,3.2805-.0301.5217-.2408.943-.622,1.2741-.3812.321-.8226.4815-1.3343.4815h-12.3496l-.9631-3.2404h11.848l-.7123.6521v-.8527c-.0401-.622-.2709-1.1838-.6722-1.6754-.3913-.5016-.8929-.9029-1.4848-1.1938-.5819-.2909-1.2139-.4414-1.8861-.4414-.6421,0-1.244.0903-1.8158.2709-.5618.1705-1.0433.4514-1.4647.8527-.4113.4113-.7223.9531-.9631,1.6553-.2408.6822-.3511,1.555-.3511,2.6084,0,1.1637.2408,2.1469.7323,2.9495.4815.8126,1.1136,1.4346,1.8861,1.856.7624.4214,1.5751.622,2.4278.622.8026,0,1.4446-.0602,1.9262-.1906.4715-.1405.8427-.301,1.1236-.4815.2909-.1806.5518-.3411.7925-.4815.3913-.1806.7624-.2709,1.1035-.2709.4715,0,.8628.1605,1.1738.4815.321.321.4815.7023.4815,1.1236,0,.5718-.311,1.0935-.923,1.565-.5618.4715-1.3443.8929-2.3576,1.254-1.0132.3511-2.0566.5317-3.12.5317h0Z"/>
  <path class="cls-3" d="M805.6418,49.9014c0,.5618-.1906,1.0233-.5618,1.4045s-.8427.5618-1.4045.5618c-.5417,0-.9932-.1906-1.3544-.5618-.3612-.3812-.5417-.8427-.5417-1.4045v-19.9641c0-.5518.1906-1.0233.5618-1.4045s.8427-.5618,1.4045-.5618c.5518,0,1.0132.1906,1.3544.5618.3612.3812.5417.8427.5417,1.4045v19.9641Z"/>
  <path class="cls-3" d="M817.5247,34.2612c1.2239,0,2.2974.1405,3.2203.4013.923.2508,1.6252.6019,2.1268,1.0634.5016.4615.7524,1.0233.7524,1.6754,0,.4314-.1405.8327-.4013,1.2139-.2508.3812-.622.5618-1.1035.5618-.3511,0-.6421-.0502-.8828-.1505-.2207-.0903-.4214-.2207-.5819-.3812-.1705-.1505-.3712-.2909-.6019-.4214-.2207-.1204-.5618-.2207-1.0032-.2909-.4314-.0803-.7624-.1204-.9832-.1204-1.0835,0-2.0165.2408-2.7789.7123-.7725.4715-1.3544,1.1136-1.7757,1.9262-.4113.8126-.6019,1.7356-.6019,2.7789s.2107,1.9763.622,2.7789c.4214.8126.9932,1.4547,1.7356,1.9262.7524.4715,1.6152.7123,2.5883.7123.5317,0,.9832-.0301,1.3844-.1003.3913-.0702.7123-.1705.9631-.2909.301-.1705.5718-.3411.8126-.5417.2307-.1906.5919-.2909,1.0634-.2909.5518,0,.9832.1806,1.2741.5417.301.3511.4615.7825.4615,1.2941,0,.5317-.301,1.0233-.9029,1.4647-.6019.4514-1.3945.8026-2.3877,1.0634-.9731.2608-2.0365.4013-3.1802.4013-1.7055,0-3.1802-.3913-4.4342-1.1738-1.244-.7825-2.2071-1.8459-2.8893-3.2003-.6722-1.3644-1.0032-2.8893-1.0032-4.5747,0-1.7556.3511-3.3006,1.0634-4.6349.7223-1.3443,1.7255-2.4077,3.0097-3.1802,1.3042-.7725,2.7789-1.1638,4.4342-1.1638h0Z"/>
  <path class="cls-3" d="M843.387,43.23c0,1.7757-.4013,3.3307-1.1938,4.685-.7825,1.3343-1.8359,2.3877-3.1601,3.13-1.3243.7524-2.799,1.1236-4.4342,1.1236s-3.11-.3812-4.4342-1.1236c-1.3243-.7524-2.3877-1.7958-3.1802-3.13-.7825-1.3443-1.1738-2.9093-1.1738-4.685,0-1.7556.3913-3.3006,1.1738-4.6349.7925-1.3443,1.8459-2.4077,3.1802-3.1802,1.3243-.7624,2.799-1.1537,4.4342-1.1537s3.0999.3913,4.4342,1.1537c1.3243.7725,2.3676,1.8259,3.1601,3.1802.7926,1.3343,1.1938,2.8792,1.1938,4.6349ZM839.5246,43.23c0-1.0835-.2207-2.0365-.6722-2.8391-.4314-.8026-1.0233-1.4346-1.7757-1.8861-.7424-.4615-1.565-.6922-2.4679-.6922-.9129,0-1.7255.2307-2.4679.6922-.7424.4514-1.3343,1.0735-1.7757,1.8861-.4514.8126-.6722,1.7556-.6722,2.8391s.2207,2.0365.6722,2.8391c.4414.8126,1.0333,1.4446,1.7757,1.9061.7323.4514,1.555.6722,2.4679.6722.9029,0,1.7255-.2207,2.4679-.6722.7524-.4615,1.3443-1.0935,1.7757-1.9061.4414-.8026.6722-1.7556.6722-2.8391Z"/>
  <path class="cls-3" d="M855.8564,34.2612c1.7155,0,2.9796.4214,3.8022,1.254.8226.8226,1.3544,1.8961,1.6052,3.2003l-.5417-.2909.2508-.5016c.2608-.5016.6621-1.0333,1.1938-1.6052.5417-.5718,1.1938-1.0534,1.9663-1.4446.7624-.4013,1.6152-.6019,2.5682-.6019,1.545,0,2.7187.3311,3.5313,1.0032.8026.6722,1.3544,1.565,1.6553,2.6786.301,1.1035.4615,2.3275.4615,3.6818v8.2766c0,.5618-.1806,1.0233-.5417,1.4045-.3612.3812-.8327.5618-1.4045.5618-.5618,0-1.0233-.1906-1.3844-.5618-.3612-.3812-.5417-.8427-.5417-1.4045v-8.2766c0-.7123-.0903-1.3443-.2709-1.9262-.1705-.5718-.4815-1.0233-.943-1.3544-.4514-.3411-1.0835-.5217-1.9262-.5217-.8226,0-1.5249.1806-2.1068.5217-.5718.3311-1.0032.7925-1.2941,1.3544-.2909.5718-.4414,1.2139-.4414,1.9262v8.2766c0,.5618-.1906,1.0233-.5618,1.4045-.3612.3812-.8226.5618-1.3844.5618s-1.0233-.1906-1.3844-.5618c-.3612-.3812-.5417-.8427-.5417-1.4045v-8.2766c0-.7123-.0903-1.3443-.2709-1.9262-.1705-.5718-.4815-1.0233-.943-1.3544-.4514-.3411-1.0835-.5217-1.9262-.5217-.8226,0-1.5249.1806-2.1068.5217-.5718.3311-1.0032.7925-1.2941,1.3544-.2909.5718-.4414,1.2139-.4414,1.9262v8.2766c0,.5618-.1906,1.0233-.5618,1.4045-.3612.3812-.8226.5618-1.3844.5618s-1.0233-.1906-1.4045-.5618c-.3612-.3812-.5417-.8427-.5417-1.4045v-13.3328c0-.5518.1806-1.0233.5417-1.4045.3812-.3913.8427-.5819,1.4045-.5819.5518,0,1.0132.2006,1.3844.5819.3812.3812.5618.8427.5618,1.4045v1.3844l-.4815-.1003c.1906-.3612.4615-.7524.7925-1.1738.3411-.4214.7624-.8026,1.254-1.1738.5016-.3812,1.0534-.6722,1.6553-.9029.622-.2308,1.2941-.3511,1.9964-.3511h-.0001Z"/>
  <path class="cls-3" d="M884.68,52.1787c-1.8359,0-3.441-.3812-4.7854-1.1236-1.3343-.7624-2.3676-1.8058-3.0899-3.11-.7123-1.3243-1.0634-2.809-1.0634-4.4744,0-1.9362.3913-3.5815,1.1738-4.9559.7925-1.3644,1.8259-2.4077,3.0899-3.13,1.2641-.7323,2.6084-1.1035,4.0329-1.1035,1.0935,0,2.1369.2307,3.11.6922.9731.4514,1.8359,1.0634,2.5883,1.856.7524.7825,1.3443,1.6854,1.7958,2.7187.4414,1.0333.6722,2.1268.6722,3.2805-.0301.5217-.2408.943-.622,1.2741-.3812.321-.8226.4815-1.3343.4815h-12.3496l-.9631-3.2404h11.848l-.7123.6521v-.8527c-.0401-.622-.2709-1.1838-.6722-1.6754-.3913-.5016-.8929-.9029-1.4848-1.1938-.5819-.2909-1.2139-.4414-1.8861-.4414-.6421,0-1.244.0903-1.8158.2709-.5618.1705-1.0433.4514-1.4647.8527-.4113.4113-.7223.9531-.9631,1.6553-.2408.6822-.3511,1.555-.3511,2.6084,0,1.1637.2408,2.1469.7323,2.9495.4815.8126,1.1136,1.4346,1.8861,1.856.7624.4214,1.5751.622,2.4278.622.8026,0,1.4446-.0602,1.9262-.1906.4715-.1405.8427-.301,1.1236-.4815.2909-.1806.5518-.3411.7925-.4815.3913-.1806.7624-.2709,1.1035-.2709.4715,0,.8628.1605,1.1738.4815.321.321.4815.7023.4815,1.1236,0,.5718-.311,1.0935-.923,1.565-.5618.4715-1.3443.8929-2.3576,1.254-1.0032.3511-2.0465.5317-3.12.5317h0Z"/>
  <path class="cls-3" d="M904.8308,34.9133h7.6445c.5116,0,.943.1806,1.2741.5217.3411.3311.5217.7624.5217,1.2741,0,.5016-.1806.923-.5217,1.254-.3311.3311-.7624.5016-1.2741.5016h-7.6445c-.5217,0-.9531-.1705-1.2941-.5217-.3511-.3411-.5217-.7825-.5217-1.2941,0-.4815.1705-.9029.5217-1.234.3411-.3311.7725-.5016,1.2941-.5016ZM908.2718,30.8803c.5518,0,1.0132.1906,1.3544.5618.3612.3812.5417.8427.5417,1.4045v14.3761c0,.2909.0502.5417.1705.7323.1204.2006.2909.3311.5016.4214.2107.0803.4314.1204.6722.1204.2508,0,.4815-.0502.6922-.1505.2207-.0903.4715-.1505.7524-.1505.301,0,.5718.1505.8126.4414.2508.2809.3812.6621.3812,1.1537,0,.6019-.3311,1.0935-.9832,1.4848-.6621.3913-1.3544.5819-2.1068.5819-.4615,0-.9631-.0301-1.5048-.1003-.5417-.0803-1.0634-.2709-1.545-.5618-.4916-.2909-.8929-.7323-1.2139-1.3343-.321-.5919-.4815-1.4246-.4815-2.488v-14.5266c0-.5518.1906-1.0233.5618-1.4045s.8427-.5618,1.3945-.5618h.0002Z"/>
  <path class="cls-3" d="M934.4256,43.23c0,1.7757-.4013,3.3307-1.1938,4.685-.7825,1.3343-1.8359,2.3877-3.1601,3.13-1.3243.7524-2.799,1.1236-4.4342,1.1236s-3.11-.3812-4.4342-1.1236c-1.3243-.7524-2.3877-1.7958-3.1802-3.13-.7825-1.3443-1.1738-2.9093-1.1738-4.685,0-1.7556.3913-3.3006,1.1738-4.6349.7925-1.3443,1.8459-2.4077,3.1802-3.1802,1.3243-.7624,2.799-1.1537,4.4342-1.1537s3.0999.3913,4.4342,1.1537c1.3243.7725,2.3676,1.8259,3.1601,3.1802.7926,1.3343,1.1938,2.8792,1.1938,4.6349ZM930.5532,43.23c0-1.0835-.2207-2.0365-.6722-2.8391-.4314-.8026-1.0233-1.4346-1.7757-1.8861-.7424-.4615-1.565-.6922-2.4679-.6922-.9129,0-1.7255.2307-2.4679.6922-.7424.4514-1.3343,1.0735-1.7757,1.8861-.4514.8126-.6722,1.7556-.6722,2.8391s.2207,2.0365.6722,2.8391c.4414.8126,1.0333,1.4446,1.7757,1.9061.7323.4514,1.555.6722,2.4679.6722.9029,0,1.7255-.2207,2.4679-.6722.7524-.4615,1.3443-1.0935,1.7757-1.9061.4514-.8026.6722-1.7556.6722-2.8391Z"/>
  <path class="cls-3" d="M955.9313,34.2612c1.7155,0,2.9796.4214,3.8022,1.254.8226.8226,1.3544,1.8961,1.6052,3.2003l-.5417-.2909.2508-.5016c.2608-.5016.6621-1.0333,1.1938-1.6052.5417-.5718,1.1938-1.0534,1.9663-1.4446.7624-.4013,1.6152-.6019,2.5683-.6019,1.545,0,2.7187.3311,3.5313,1.0032.8026.6722,1.3544,1.565,1.6553,2.6786.301,1.1035.4615,2.3275.4615,3.6818v8.2766c0,.5618-.1806,1.0233-.5417,1.4045s-.8327.5618-1.4045.5618c-.5618,0-1.0233-.1906-1.3844-.5618-.3611-.3812-.5417-.8427-.5417-1.4045v-8.2766c0-.7123-.0903-1.3443-.2709-1.9262-.1706-.5718-.4816-1.0233-.943-1.3544-.4515-.3411-1.0835-.5217-1.9262-.5217-.8226,0-1.5249.1806-2.1068.5217-.5718.3311-1.0032.7925-1.2941,1.3544-.2909.5718-.4414,1.2139-.4414,1.9262v8.2766c0,.5618-.1906,1.0233-.5618,1.4045-.3612.3812-.8226.5618-1.3844.5618s-1.0233-.1906-1.3844-.5618c-.3612-.3812-.5417-.8427-.5417-1.4045v-8.2766c0-.7123-.0903-1.3443-.2709-1.9262-.1705-.5718-.4815-1.0233-.943-1.3544-.4514-.3411-1.0835-.5217-1.9262-.5217-.8226,0-1.5249.1806-2.1068.5217-.5718.3311-1.0032.7925-1.2941,1.3544-.2909.5718-.4414,1.2139-.4414,1.9262v8.2766c0,.5618-.1906,1.0233-.5618,1.4045-.3612.3812-.8226.5618-1.3844.5618s-1.0233-.1906-1.4045-.5618c-.3612-.3812-.5417-.8427-.5417-1.4045v-13.3328c0-.5518.1806-1.0233.5417-1.4045.3812-.3913.8427-.5819,1.4045-.5819.5518,0,1.0132.2006,1.3844.5819.3812.3812.5618.8427.5618,1.4045v1.3844l-.4815-.1003c.1906-.3612.4615-.7524.7925-1.1738.3411-.4214.7624-.8026,1.254-1.1738.5016-.3812,1.0534-.6722,1.6553-.9029.622-.2308,1.2842-.3511,1.9964-.3511h-.0002Z"/>
  <path class="cls-3" d="M989.2787,34.5822c.5518,0,1.0133.2006,1.3844.5819.3611.3812.5417.8427.5417,1.4045v13.714c0,1.9763-.3712,3.5514-1.1035,4.7252-.7424,1.1838-1.7356,2.0365-2.9896,2.5482-1.244.5116-2.6485.7725-4.2035.7725-.6822,0-1.4145-.0602-2.1971-.1705-.7725-.1003-1.4045-.2608-1.9061-.4815-.6421-.2809-1.0835-.622-1.3343-1.0433s-.301-.8628-.1505-1.3343c.1906-.622.5116-1.0534.943-1.2741.4314-.2207.8828-.2508,1.3544-.0803.3411.1104.8026.2809,1.3544.5016s1.1938.3311,1.9262.3311c.9832,0,1.8058-.1405,2.4679-.4214.6722-.2709,1.1738-.7223,1.5048-1.3544.3311-.622.5016-1.4848.5016-2.5883v-2.1569l.6722.7725c-.3611.7123-.8226,1.2941-1.3844,1.7556-.5417.4615-1.1938.8126-1.9462,1.0433s-1.6152.3511-2.5883.3511c-1.1437,0-2.1469-.2608-2.9896-.7725-.8527-.5317-1.5149-1.2641-1.9864-2.1971-.4715-.943-.7123-2.0165-.7123-3.2203v-9.4303c0-.5518.1806-1.0233.5417-1.4045.3812-.3913.8427-.5819,1.4045-.5819.5518,0,1.0132.2006,1.3844.5819.3812.3812.5618.8427.5618,1.4045v8.2565c0,1.4145.301,2.3977.923,2.9695.612.5718,1.4647.8527,2.5682.8527.7524,0,1.3844-.1505,1.9061-.4414.5116-.2909.9129-.7223,1.1938-1.2941s.4214-1.2641.4214-2.0867v-8.2565c0-.5518.1806-1.0233.5417-1.4045.3712-.3813.8327-.5719,1.3945-.5719h.0004Z"/>
  <path class="cls-3" d="M1021.1949,43.23c0,1.7757-.4013,3.3307-1.1938,4.685-.7825,1.3343-1.8359,2.3877-3.1601,3.13-1.3243.7524-2.799,1.1236-4.4342,1.1236s-3.11-.3812-4.4342-1.1236c-1.3243-.7524-2.3776-1.7958-3.1802-3.13-.7825-1.3443-1.1738-2.9093-1.1738-4.685,0-1.7556.3913-3.3006,1.1738-4.6349.7925-1.3443,1.8459-2.4077,3.1802-3.1802,1.3242-.7624,2.799-1.1537,4.4342-1.1537s3.0999.3913,4.4342,1.1537c1.3243.7725,2.3676,1.8259,3.1601,3.1802.7926,1.3343,1.1938,2.8792,1.1938,4.6349ZM1017.3225,43.23c0-1.0835-.2207-2.0365-.6722-2.8391-.4314-.8026-1.0233-1.4346-1.7757-1.8861-.7424-.4615-1.565-.6922-2.4679-.6922-.9129,0-1.7255.2307-2.4679.6922-.7424.4514-1.3343,1.0735-1.7757,1.8861-.4514.8126-.6722,1.7556-.6722,2.8391s.2207,2.0365.6722,2.8391c.4414.8126,1.0333,1.4446,1.7757,1.9061.7324.4514,1.555.6722,2.4679.6722.9029,0,1.7255-.2207,2.4679-.6722.7524-.4615,1.3443-1.0935,1.7757-1.9061.4515-.8026.6722-1.7556.6722-2.8391Z"/>
  <path class="cls-3" d="M1033.8147,34.2612c1.5951,0,2.809.3311,3.6316,1.0032.8326.6722,1.4045,1.565,1.7155,2.6786.301,1.1035.4615,2.3275.4615,3.6818v8.2766c0,.5618-.1805,1.0233-.5417,1.4045-.3611.3812-.8226.5618-1.3844.5618s-1.0233-.1906-1.4045-.5618c-.3611-.3812-.5417-.8427-.5417-1.4045v-8.2766c0-.7123-.0903-1.3443-.2709-1.9262-.1805-.5718-.5117-1.0233-.9832-1.3544-.4716-.3411-1.1637-.5217-2.0466-.5217-.8527,0-1.5751.1806-2.177.5217-.5819.3311-1.0435.7925-1.3544,1.3544-.311.5718-.4615,1.2139-.4615,1.9262v8.2766c0,.5618-.1906,1.0233-.5618,1.4045-.3611.3812-.8226.5618-1.3844.5618s-1.0233-.1906-1.4045-.5618c-.3611-.3812-.5417-.8427-.5417-1.4045v-13.3328c0-.5518.1805-1.0233.5417-1.4045.3812-.3913.8427-.5819,1.4045-.5819.5518,0,1.0133.2006,1.3844.5819.3812.3812.5618.8427.5618,1.4045v1.3844l-.4816-.1003c.1906-.3612.4716-.7524.8326-1.1738s.7825-.8026,1.274-1.1738c.5016-.3812,1.0634-.6722,1.6954-.9029.6321-.2207,1.3043-.3411,2.0366-.3411h.0002Z"/>
  <path class="cls-3" d="M1048.0138,49.9014c0,.5618-.1906,1.0233-.5618,1.4045s-.8427.5618-1.4045.5618c-.5417,0-.9932-.1906-1.3544-.5618-.3611-.3812-.5417-.8427-.5417-1.4045v-19.9641c0-.5518.1906-1.0233.5618-1.4045s.8427-.5618,1.4045-.5618c.5518,0,1.0133.1906,1.3544.5618.3611.3812.5417.8427.5417,1.4045v19.9641Z"/>
  <path class="cls-3" d="M1056.1862,49.9014c0,.5618-.1906,1.0233-.5618,1.4045-.3611.3812-.8226.5618-1.3844.5618s-1.0233-.1906-1.3844-.5618c-.3611-.3812-.5417-.8427-.5417-1.4045v-13.3328c0-.5518.1805-1.0233.5417-1.4045.3611-.3913.8226-.5819,1.3844-.5819.5518,0,1.0133.2006,1.3844.5819.3812.3812.5618.8427.5618,1.4045,0,0,0,13.3328,0,13.3328ZM1054.2198,32.4855c-.7223,0-1.244-.1104-1.545-.3511-.311-.2307-.4615-.6521-.4615-1.254v-.622c0-.612.1707-1.0333.5016-1.254.3311-.2307.8427-.3511,1.545-.3511.7524,0,1.274.1204,1.5649.3511.301.2408.4615.6621.4615,1.254v.622c0,.622-.1605,1.0534-.4816,1.2741s-.8427.3311-1.5851.3311h.0001Z"/>
  <path class="cls-3" d="M1069.384,34.2612c1.5951,0,2.809.3311,3.6316,1.0032.8326.6722,1.4045,1.565,1.7155,2.6786.301,1.1035.4615,2.3275.4615,3.6818v8.2766c0,.5618-.1805,1.0233-.5417,1.4045-.3611.3812-.8226.5618-1.3844.5618s-1.0233-.1906-1.4045-.5618c-.3611-.3812-.5417-.8427-.5417-1.4045v-8.2766c0-.7123-.0903-1.3443-.2709-1.9262-.1805-.5718-.5117-1.0233-.9832-1.3544-.4716-.3411-1.1637-.5217-2.0466-.5217-.8527,0-1.5751.1806-2.177.5217-.5819.3311-1.0435.7925-1.3544,1.3544-.311.5718-.4615,1.2139-.4615,1.9262v8.2766c0,.5618-.1906,1.0233-.5618,1.4045-.3611.3812-.8226.5618-1.3844.5618s-1.0233-.1906-1.4045-.5618c-.3611-.3812-.5417-.8427-.5417-1.4045v-13.3328c0-.5518.1805-1.0233.5417-1.4045.3812-.3913.8427-.5819,1.4045-.5819.5518,0,1.0133.2006,1.3844.5819.3812.3812.5618.8427.5618,1.4045v1.3844l-.4816-.1003c.1906-.3612.4716-.7524.8326-1.1738s.7825-.8026,1.274-1.1738c.5016-.3812,1.0634-.6722,1.6954-.9029.6422-.2207,1.3143-.3411,2.0366-.3411h.0002Z"/>
  <path class="cls-3" d="M1087.5358,52.1787c-1.8359,0-3.441-.3812-4.7853-1.1236-1.3344-.7624-2.3676-1.8058-3.0898-3.11-.7123-1.3243-1.0634-2.809-1.0634-4.4744,0-1.9362.3914-3.5815,1.1738-4.9559.7926-1.3644,1.8259-2.4077,3.0898-3.13,1.2642-.7323,2.6084-1.1035,4.033-1.1035,1.0935,0,2.1368.2307,3.11.6922.9731.4514,1.8359,1.0634,2.5883,1.856.7524.7825,1.3444,1.6854,1.7958,2.7187.4414,1.0333.6722,2.1268.6722,3.2805-.0302.5217-.2408.943-.6219,1.2741-.3812.321-.8226.4815-1.3344.4815h-12.3597l-.9631-3.2404h11.848l-.7123.6521v-.8527c-.04-.622-.2709-1.1838-.6722-1.6754-.3914-.5016-.8929-.9029-1.4847-1.1938-.5819-.2909-1.2139-.4414-1.8861-.4414-.6421,0-1.244.0903-1.8158.2709-.5618.1705-1.0435.4514-1.4647.8527-.4113.4113-.7223.9531-.9631,1.6553-.2408.6822-.3511,1.555-.3511,2.6084,0,1.1637.2408,2.1469.7324,2.9495.4816.8126,1.1136,1.4346,1.8861,1.856.7625.4214,1.5751.622,2.4279.622.8026,0,1.4446-.0602,1.9261-.1906.4716-.1405.8427-.301,1.1237-.4815.2909-.1806.5518-.3411.7926-.4815.3914-.1806.7625-.2709,1.1035-.2709.4716,0,.8628.1605,1.1738.4815.321.321.4816.7023.4816,1.1236,0,.5718-.311,1.0935-.923,1.565-.5618.4715-1.3444.8929-2.3575,1.254-.9932.3511-2.0366.5317-3.11.5317h-.0004Z"/>
  <path class="cls-3" d="M1116.4247,34.2612c1.5149,0,2.8691.3913,4.053,1.1537,1.1938.7725,2.1469,1.8158,2.8391,3.1601.6923,1.3243,1.0435,2.8692,1.0435,4.6349,0,1.7757-.3511,3.3307-1.0435,4.685-.7023,1.3343-1.6252,2.3977-2.799,3.1601-1.1738.7524-2.488,1.1236-3.9528,1.1236-.8628,0-1.6754-.1405-2.4279-.4214s-1.4146-.632-1.9865-1.0634-1.0233-.8628-1.3344-1.2941c-.311-.4414-.4615-.8126-.4615-1.1035l1.0032-.4414v8.5073c0,.5518-.1906,1.0233-.5618,1.4045-.3611.3812-.8226.5618-1.3844.5618s-1.0233-.1906-1.4045-.5618c-.3611-.3612-.5417-.8327-.5417-1.4045v-19.7935c0-.5518.1805-1.0233.5417-1.4045.3812-.3913.8427-.5819,1.4045-.5819.5518,0,1.0133.2006,1.3844.5819.3812.3812.5618.8427.5618,1.4045v1.5651l-.5417-.2909c0-.2809.1505-.612.4414-1.0032.301-.4013.7123-.8026,1.234-1.1938.5117-.4013,1.1035-.7323,1.7758-.9832.6823-.2608,1.4045-.4013,2.1569-.4013h.0004ZM1115.9431,37.8226c-.9531,0-1.7758.2408-2.488.7123s-1.274,1.1136-1.6754,1.9262c-.3914.8126-.5819,1.7255-.5819,2.7589,0,1.0233.1906,1.9462.5819,2.7789.4012.8226.9631,1.4747,1.6754,1.9462s1.5349.7123,2.488.7123c.943,0,1.7657-.2307,2.4679-.7123.7123-.4715,1.2642-1.1136,1.6553-1.9462.4012-.8327.6019-1.7657.6019-2.7789,0-1.0333-.2007-1.9462-.6019-2.7589-.3914-.8026-.943-1.4446-1.6553-1.9262-.7021-.4715-1.5249-.7123-2.4679-.7123Z"/>
  <path class="cls-3" d="M1144.5106,43.23c0,1.7757-.4012,3.3307-1.1938,4.685-.7825,1.3343-1.8359,2.3877-3.1602,3.13-1.3243.7524-2.799,1.1236-4.4342,1.1236s-3.11-.3812-4.4342-1.1236c-1.3243-.7524-2.3877-1.7958-3.1802-3.13-.7825-1.3443-1.1738-2.9093-1.1738-4.685,0-1.7556.3914-3.3006,1.1738-4.6349.7926-1.3443,1.8459-2.4077,3.1802-3.1802,1.3243-.7624,2.799-1.1537,4.4342-1.1537s3.0999.3913,4.4342,1.1537c1.3243.7725,2.3676,1.8259,3.1602,3.1802.7926,1.3343,1.1938,2.8792,1.1938,4.6349ZM1140.6382,43.23c0-1.0835-.2207-2.0365-.6722-2.8391-.4314-.8026-1.0233-1.4346-1.7758-1.8861-.7424-.4615-1.5649-.6922-2.4679-.6922-.9128,0-1.7255.2307-2.4679.6922-.7424.4514-1.3344,1.0735-1.7758,1.8861-.4515.8126-.6722,1.7556-.6722,2.8391s.2207,2.0365.6722,2.8391c.4414.8126,1.0333,1.4446,1.7758,1.9061.7324.4514,1.5551.6722,2.4679.6722.903,0,1.7255-.2207,2.4679-.6722.7524-.4615,1.3444-1.0935,1.7758-1.9061.4515-.8026.6722-1.7556.6722-2.8391Z"/>
  <path class="cls-3" d="M1149.837,51.8677c-.5618,0-1.0233-.1906-1.4045-.5618-.3611-.3812-.5417-.8427-.5417-1.4045v-13.3328c0-.5518.1805-1.0233.5417-1.4045.3812-.3913.8427-.5819,1.4045-.5819.5518,0,1.0133.2006,1.3844.5819.3812.3812.5618.8427.5618,1.4045v3.0297l-.2308-2.177c.2308-.5116.5417-.9631.923-1.3544.3812-.4013.8026-.7323,1.274-1.0032.4716-.2608.9731-.4615,1.5048-.5819.5417-.1405,1.0835-.2107,1.6252-.2107.6421,0,1.1838.1906,1.6252.5618.4414.3612.6722.7925.6722,1.2741,0,.7123-.1906,1.2239-.5618,1.545-.3611.311-.7625.4615-1.1938.4615-.4113,0-.7725-.0702-1.1035-.2307-.3311-.1505-.7223-.2307-1.1537-.2307-.3914,0-.7926.0903-1.1938.2709-.3914.1806-.7524.4715-1.0835.8527-.3311.3913-.6019.8728-.8126,1.4446-.2007.5718-.2909,1.244-.2909,2.0265v7.6445c0,.5618-.1906,1.0233-.5618,1.4045s-.8326.5718-1.3844.5718h0Z"/>
  <path class="cls-3" d="M1162.1104,34.9133h7.6445c.5117,0,.943.1806,1.274.5217.3411.3311.5217.7624.5217,1.2741,0,.5016-.1805.923-.5217,1.254-.3311.3311-.7625.5016-1.274.5016h-7.6445c-.5217,0-.9531-.1705-1.2942-.5217-.3511-.3411-.5217-.7825-.5217-1.2941,0-.4815.1707-.9029.5217-1.234.3411-.3311.7725-.5016,1.2942-.5016ZM1165.5614,30.8803c.5518,0,1.0133.1906,1.3544.5618.3611.3812.5417.8427.5417,1.4045v14.3761c0,.2909.05.5417.1707.7323.1204.2006.2909.3311.5016.4214.2107.0803.4314.1204.6722.1204.2509,0,.4816-.0502.6923-.1505.2207-.0903.4716-.1505.7524-.1505.301,0,.5718.1505.8126.4414.2509.2809.3812.6621.3812,1.1537,0,.6019-.3311,1.0935-.9832,1.4848-.6621.3913-1.3544.5819-2.1068.5819-.4615,0-.9631-.0301-1.5048-.1003-.5417-.0803-1.0634-.2709-1.545-.5618-.4916-.2909-.8929-.7323-1.2139-1.3343-.321-.5919-.4816-1.4246-.4816-2.488v-14.5266c0-.5518.1906-1.0233.5618-1.4045s.8326-.5618,1.3945-.5618h-.0002Z"/>
  <path class="cls-3" d="M1183.1752,27.971c.4716,0,.933.0602,1.3844.1906.4615.1204.8326.3311,1.1237.622.301.2909.4615.6822.4615,1.1537,0,.5417-.1605.9731-.4615,1.2741-.311.311-.6722.4615-1.0835.4615-.2007,0-.4916-.0502-.8828-.1505-.3812-.0903-.7524-.1505-1.1237-.1505-.5317,0-.943.1204-1.234.3511-.2909.2408-.4916.5217-.6019.8327-.1003.311-.1505.5819-.1505.8126v16.513c0,.5618-.1906,1.0233-.5618,1.4045-.3611.3812-.8226.5618-1.3844.5618s-1.0233-.1906-1.4045-.5618c-.3611-.3812-.5417-.8427-.5417-1.4045v-16.4729c0-1.5349.5317-2.819,1.6052-3.8624,1.0935-1.0434,2.7087-1.5751,4.8556-1.5751h0ZM1183.5363,34.9133c.5117,0,.943.1705,1.2942.5016.3411.3311.5217.7624.5217,1.2741,0,.5217-.1805.943-.5217,1.2741-.3511.3311-.7825.5016-1.2942.5016h-8.5474c-.5217,0-.9531-.1705-1.2942-.5016-.3511-.3311-.5217-.7624-.5217-1.2741s.1707-.943.5217-1.2741c.3411-.3311.7825-.5016,1.2942-.5016h8.5474Z"/>
  <path class="cls-3" d="M1204.1949,43.23c0,1.7757-.4012,3.3307-1.1938,4.685-.7825,1.3343-1.8359,2.3877-3.1602,3.13-1.3243.7524-2.799,1.1236-4.4342,1.1236s-3.11-.3812-4.4342-1.1236c-1.3243-.7524-2.3877-1.7958-3.1802-3.13-.7825-1.3443-1.1738-2.9093-1.1738-4.685,0-1.7556.3914-3.3006,1.1738-4.6349.7926-1.3443,1.8459-2.4077,3.1802-3.1802,1.3243-.7624,2.799-1.1537,4.4342-1.1537s3.0999.3913,4.4342,1.1537c1.3243.7725,2.3676,1.8259,3.1602,3.1802.8026,1.3343,1.1938,2.8792,1.1938,4.6349ZM1200.3325,43.23c0-1.0835-.2207-2.0365-.6722-2.8391-.4314-.8026-1.0233-1.4346-1.7758-1.8861-.7424-.4615-1.5649-.6922-2.4679-.6922-.9128,0-1.7255.2307-2.4679.6922-.7424.4514-1.3344,1.0735-1.7758,1.8861-.4515.8126-.6722,1.7556-.6722,2.8391s.2207,2.0365.6722,2.8391c.4414.8126,1.0333,1.4446,1.7758,1.9061.7324.4514,1.5551.6722,2.4679.6722.903,0,1.7255-.2207,2.4679-.6722.7524-.4615,1.3444-1.0935,1.7758-1.9061.4414-.8026.6722-1.7556.6722-2.8391Z"/>
  <path class="cls-3" d="M1211.7784,49.9014c0,.5618-.1906,1.0233-.5618,1.4045s-.8427.5618-1.4045.5618c-.5417,0-.9932-.1906-1.3544-.5618-.3611-.3812-.5417-.8427-.5417-1.4045v-19.9641c0-.5518.1906-1.0233.5618-1.4045s.8427-.5618,1.4045-.5618c.5518,0,1.0133.1906,1.3544.5618.3611.3812.5417.8427.5417,1.4045v19.9641Z"/>
  <path class="cls-3" d="M1219.9508,49.9014c0,.5618-.1906,1.0233-.5618,1.4045-.3611.3812-.8226.5618-1.3844.5618s-1.0233-.1906-1.3844-.5618c-.3611-.3812-.5417-.8427-.5417-1.4045v-13.3328c0-.5518.1805-1.0233.5417-1.4045.3611-.3913.8226-.5819,1.3844-.5819.5518,0,1.0133.2006,1.3844.5819.3812.3812.5618.8427.5618,1.4045,0,0,0,13.3328,0,13.3328ZM1217.9845,32.4855c-.7223,0-1.244-.1104-1.545-.3511-.311-.2307-.4615-.6521-.4615-1.254v-.622c0-.612.1707-1.0333.5016-1.254.3311-.2307.8427-.3511,1.545-.3511.7524,0,1.274.1204,1.5649.3511.301.2408.4615.6621.4615,1.254v.622c0,.622-.1605,1.0534-.4816,1.2741s-.8427.3311-1.5851.3311h.0001Z"/>
  <path class="cls-3" d="M1240.6729,43.23c0,1.7757-.4012,3.3307-1.1938,4.685-.7825,1.3343-1.8359,2.3877-3.1602,3.13-1.3243.7524-2.799,1.1236-4.4342,1.1236s-3.11-.3812-4.4342-1.1236c-1.3243-.7524-2.3877-1.7958-3.1802-3.13-.7825-1.3443-1.1738-2.9093-1.1738-4.685,0-1.7556.3914-3.3006,1.1738-4.6349.7926-1.3443,1.8459-2.4077,3.1802-3.1802,1.3243-.7624,2.799-1.1537,4.4342-1.1537s3.0999.3913,4.4342,1.1537c1.3243.7725,2.3676,1.8259,3.1602,3.1802.8026,1.3343,1.1938,2.8792,1.1938,4.6349ZM1236.8104,43.23c0-1.0835-.2207-2.0365-.6722-2.8391-.4314-.8026-1.0233-1.4346-1.7758-1.8861-.7424-.4615-1.5649-.6922-2.4679-.6922-.9128,0-1.7255.2307-2.4679.6922-.7424.4514-1.3344,1.0735-1.7758,1.8861-.4515.8126-.6722,1.7556-.6722,2.8391s.2207,2.0365.6722,2.8391c.4414.8126,1.0333,1.4446,1.7758,1.9061.7324.4514,1.5551.6722,2.4679.6722.903,0,1.7255-.2207,2.4679-.6722.7524-.4615,1.3444-1.0935,1.7758-1.9061.4515-.8026.6722-1.7556.6722-2.8391Z"/>
  <path class="cls-3" d="M1254.5842,43.8118c-.5618,0-1.0233-.1705-1.4045-.5217-.3812-.3612-.5618-.8026-.5618-1.3343,0-.5417.1906-.9832.5618-1.3142.3812-.3411.8427-.5217,1.4045-.5217h21.4489c.5718,0,1.0435.1806,1.4246.5217.3812.3311.5618.7725.5618,1.3142,0,.5317-.1906.9731-.5618,1.3343-.3812.3511-.8527.5217-1.4246.5217h-21.4489Z"/>
  <path class="cls-2" d="M792.3426,93.4116c-.5016,0-.9029-.1705-1.1938-.5217-.2909-.3612-.4013-.7825-.311-1.2741l1.4246-7.464c.1705-.9631-.0401-1.7857-.6019-2.4679-.5718-.6922-1.3343-1.0433-2.2974-1.0433-.622,0-1.244.1605-1.8359.4815-.5819.321-1.0835.7424-1.4848,1.2741-.4113.5217-.6822,1.1035-.8126,1.7556l-1.4045,7.464c-.1003.4916-.3511.9129-.7725,1.2741-.4113.3511-.8628.5217-1.3844.5217-.5016,0-.9029-.1705-1.1938-.5217-.2909-.3612-.4013-.7825-.311-1.2741l1.4446-7.464,1.9864-11.9383c.0803-.5016.3311-.923.7524-1.2741.4214-.3411.8828-.5217,1.3844-.5217s.9029.1806,1.1938.5217c.2909.3511.4013.7725.311,1.2741l-.8828,5.6883c1.1537-.612,2.3877-.923,3.6818-.923,1.3042,0,2.4479.3311,3.4109.9832.9631.6421,1.6754,1.4948,2.1268,2.5682.4615,1.0735.5718,2.2773.3311,3.6116l-1.4246,7.464c-.0803.4916-.3311.9129-.7524,1.2741s-.8828.5317-1.3844.5317h0Z"/>
  <path class="cls-2" d="M805.6512,93.4518c-1.4948-.0301-2.7789-.4113-3.8423-1.1537-1.0735-.7323-1.8459-1.7255-2.3174-2.9695-.4615-1.234-.5618-2.5983-.311-4.0931.2107-1.1136.6019-2.167,1.1938-3.1601.5919-.9832,1.3243-1.866,2.177-2.6284.8427-.7624,1.7958-1.3544,2.8391-1.7757,1.0534-.4314,2.1469-.6521,3.2605-.6521,1.4446,0,2.6886.3311,3.722.9832,1.0433.6621,1.8259,1.555,2.3375,2.6987s.6722,2.4579.4815,3.9527c0,.0803-.0201.1405-.0401.1705,0,.1003-.0201.2006-.0602.2909-.1104.3913-.3511.7123-.7323.9631-.3612.2408-.7624.3511-1.1938.3511h-10.4937c0,.3612.0602.7424.1906,1.1537.1405.3913.321.7223.5417,1.0032.2608.4113.6722.7424,1.234,1.0233.5518.2709,1.1035.4214,1.6553.4615.6421.0401,1.3142-.0301,2.0265-.2307.7123-.1906,1.3343-.5317,1.8861-1.0233.4214-.3913.8026-.5718,1.1537-.5618.3411.0201.632.1003.8527.2508.2207.1605.3411.2408.3511.2508.2909.311.4214.6722.3812,1.0835-.0301.4214-.2006.7825-.5016,1.0835-.9932.923-1.9964,1.5751-3.0097,1.9663-1.0434.3712-2.2974.5618-3.7822.5618v-.0002ZM808.069,80.1391c-.933.0401-1.7556.2709-2.4679.6722-.7023.3913-1.2741.8427-1.7155,1.3544-.4314.5217-.7323,1.0032-.9029,1.4647h9.2998c-.0301-.4314-.2006-.9029-.5016-1.4246-.311-.5116-.7725-.9631-1.3844-1.3544-.6019-.4013-1.3744-.6421-2.3275-.7123Z"/>
  <path class="cls-2" d="M820.6344,77.019c.5016,0,.8828.1806,1.1537.5217.2809.3311.3812.7424.2909,1.2139l-.0602.2307c.2508-.2107.5518-.4214.923-.622.612-.3913,1.2841-.7123,2.0064-.9631.7323-.2508,1.5149-.3812,2.3174-.3812.5016,0,.8929.1806,1.1738.5217.2809.3311.3612.7424.2709,1.2139-.0803.4916-.3311.9129-.7323,1.254-.3913.3511-.8226.5217-1.2941.5217-.3913,0-.7624.0602-1.1035.1705-.3311.1104-.6722.2508-1.0032.4214-.321.1806-.6421.4214-.943.7123-.2909.2809-.5819.5718-.8527.8828-.4916.5417-.9029,1.0835-1.234,1.6252-.321.5317-.5417.923-.6521,1.1738l-1.0835,6.2099c-.0803.4715-.3311.8929-.7323,1.234-.4113.3311-.8527.5016-1.3343.5016-.4715,0-.8527-.1705-1.1537-.5016-.2809-.3411-.3812-.7624-.2909-1.234l2.2974-12.9616c.0702-.4715.301-.8828.7123-1.2139.3913-.3511.8327-.5317,1.3242-.5317h-.0002Z"/>
  <path class="cls-2" d="M836.6858,93.4518c-1.4948-.0301-2.7789-.4113-3.8423-1.1537-1.0735-.7323-1.8459-1.7255-2.3174-2.9695-.4615-1.234-.5618-2.5983-.311-4.0931.2107-1.1136.6019-2.167,1.1938-3.1601.5919-.9832,1.3243-1.866,2.177-2.6284.8427-.7624,1.7958-1.3544,2.8391-1.7757,1.0534-.4314,2.1469-.6521,3.2605-.6521,1.4446,0,2.6886.3311,3.722.9832,1.0433.6621,1.8259,1.555,2.3375,2.6987s.6722,2.4579.4815,3.9527c0,.0803-.0201.1405-.0401.1705,0,.1003-.0201.2006-.0602.2909-.1104.3913-.3511.7123-.7323.9631-.3612.2408-.7624.3511-1.1938.3511h-10.5037c0,.3612.0602.7424.1906,1.1537.1405.3913.321.7223.5417,1.0032.2608.4113.6722.7424,1.234,1.0233.5518.2709,1.1035.4214,1.6553.4615.6421.0401,1.3142-.0301,2.0265-.2307.7123-.1906,1.3343-.5317,1.8861-1.0233.4214-.3913.8026-.5718,1.1537-.5618.3411.0201.632.1003.8527.2508.2207.1605.3411.2408.3511.2508.2909.311.4214.6722.3812,1.0835-.0301.4214-.2006.7825-.5016,1.0835-.9932.923-1.9964,1.5751-3.0097,1.9663-1.0233.3712-2.2773.5618-3.7721.5618l-.0002-.0002ZM839.1136,80.1391c-.933.0401-1.7556.2709-2.4679.6722-.7023.3913-1.2741.8427-1.7155,1.3544-.4314.5217-.7323,1.0032-.9029,1.4647h9.2998c-.0301-.4314-.2006-.9029-.5016-1.4246-.311-.5116-.7725-.9631-1.3844-1.3544-.6019-.4013-1.3844-.6421-2.3275-.7123Z"/>
  <path class="cls-2" d="M860.6035,91.6761l2.3877-12.8512c.0903-.5016.3411-.923.7524-1.2741.4214-.3411.8828-.5217,1.4045-.5217.5016,0,.9029.1806,1.1938.5217.2909.3511.3812.7725.2709,1.2741l-2.3576,12.8512c-.0803.4916-.3311.9129-.7524,1.2741s-.8828.5417-1.3844.5417-.9129-.1806-1.2139-.5417c-.301-.3612-.3912-.7825-.301-1.2741h.0001ZM867.5257,72.9861c-.0803.5016-.3311.933-.7524,1.2941s-.8828.5417-1.3844.5417c-.4715,0-.8628-.1806-1.1738-.5417-.2909-.3612-.4013-.7925-.311-1.2941l.1003-.6922c.1104-.5116.3812-.943.7925-1.2941.4214-.3411.8628-.5217,1.3343-.5217.5016,0,.9029.1806,1.1938.5217.301.3511.4214.7825.3311,1.2941l-.1304.6922Z"/>
  <path class="cls-2" d="M880.056,91.656l1.3844-7.7549c.1705-.943-.0201-1.7456-.5618-2.4077-.5417-.6521-1.2941-.9832-2.2372-.9832-.612,0-1.2039.1605-1.7757.4615-.5718.311-1.0534.7123-1.4446,1.2139-.3812.5016-.622,1.0735-.7323,1.7155l-1.4045,7.7549c-.0702.4715-.311.8929-.7123,1.234-.4113.3511-.8527.5217-1.3343.5217-.4715,0-.8527-.1705-1.1537-.5217-.2809-.3411-.3812-.7624-.2909-1.234l1.3844-7.7549.9029-5.1365c.0903-.4715.3411-.8828.7323-1.2139.4013-.3411.8427-.5217,1.3343-.5217.7323,0,1.1938.3411,1.3844,1.0233,1.1738-.6822,2.4077-1.0233,3.7019-1.0233,1.2641,0,2.3676.311,3.3006.923s1.6152,1.4446,2.0466,2.488c.4414,1.0333.5518,2.187.311,3.4711l-1.3844,7.7549c-.0702.4715-.311.8929-.7123,1.234-.3913.3511-.8226.5217-1.2941.5217-.4916,0-.8828-.1705-1.1738-.5217-.2809-.3612-.3712-.7725-.2709-1.244Z"/>
  <path class="cls-2" d="M900.1931,91.656l1.3844-7.7549c.1705-.943-.0201-1.7456-.5618-2.4077-.5417-.6521-1.2941-.9832-2.2372-.9832-.612,0-1.2039.1605-1.7757.4615-.5718.311-1.0534.7123-1.4446,1.2139-.3812.5016-.622,1.0735-.7323,1.7155l-1.4045,7.7549c-.0702.4715-.311.8929-.7123,1.234-.4113.3511-.8527.5217-1.3343.5217-.4715,0-.8527-.1705-1.1537-.5217-.2809-.3411-.3812-.7624-.2909-1.234l1.3844-7.7549.9029-5.1365c.0903-.4715.3411-.8828.7323-1.2139.4013-.3411.8427-.5217,1.3343-.5217.7323,0,1.1938.3411,1.3844,1.0233,1.1738-.6822,2.4077-1.0233,3.7019-1.0233,1.2641,0,2.3676.311,3.3006.923s1.6152,1.4446,2.0466,2.488c.4414,1.0333.5518,2.187.311,3.4711l-1.3844,7.7549c-.0702.4715-.311.8929-.7123,1.234-.3913.3511-.8226.5217-1.2941.5217-.4916,0-.8828-.1705-1.1738-.5217-.2809-.3612-.3712-.7725-.2709-1.244Z"/>
  <path class="cls-2" d="M918.8455,77.019c1.0835,0,2.0767.2207,2.9695.6722s1.6252,1.0433,2.2171,1.7958c.5718.7424.9631,1.6052,1.1738,2.6084.2207.9932.2307,2.0466.0401,3.1802-.2006,1.1236-.5819,2.187-1.1738,3.1802-.5718.9932-1.2741,1.856-2.1068,2.5883-.8126.7524-1.7456,1.3544-2.799,1.7958-1.0433.4514-2.1168.6722-3.2203.6722-1.0835,0-2.0767-.2207-2.9695-.6722-.8828-.4414-1.6152-1.0433-2.2171-1.7958-.5417-.7323-.933-1.5951-1.1738-2.5883-.2207-.9832-.2408-2.0466-.0401-3.1802.1906-1.1236.5718-2.187,1.1537-3.1802.5819-1.0032,1.2841-1.866,2.1068-2.6084.8226-.7524,1.7556-1.3443,2.799-1.7958,1.0534-.4414,2.1369-.6722,3.2404-.6722ZM921.7649,85.2755c.2307-1.3644-.0201-2.488-.7524-3.3608-.6722-.923-1.5951-1.3844-2.7789-1.3844-1.1738,0-2.2773.4615-3.3006,1.3844-.4615.4214-.8628.923-1.2139,1.5048-.3311.5718-.5618,1.1938-.6922,1.856-.1104.6722-.1003,1.2941.0201,1.8861.1405.5819.3612,1.0835.6922,1.4848.3311.4214.7323.7624,1.2139,1.0233.4815.2508,1.0132.3812,1.5851.3812.5819,0,1.1637-.1204,1.7356-.3812.5718-.2608,1.0935-.6019,1.5851-1.0233.4615-.4013.8527-.9029,1.1938-1.4848.3411-.5819.5718-1.2139.7123-1.8861h0Z"/>
  <path class="cls-2" d="M941.7896,77.3601c.4013.2006.6521.5217.7524.9631.1104.4314.0301.8628-.2508,1.2941l-7.6245,12.8111c-.0201.0401-.0702.1405-.1705.2709-.0201,0-.0201.01-.0201.0201h-.0401c-.0201.0301-.0401.0602-.0602.1003l-.1003.1003c-.0201,0-.0201.01-.0201.0201h-.0401c-.0702.0702-.1505.1204-.2307.1705-.0201.0301-.0401.0401-.0602.0401-.1204.0803-.2207.1405-.2909.1705h-.0401c0,.0201-.01.0201-.0201.0201-.0401.0301-.0903.0502-.1505.0602h-.1204c-.0201,0-.0301.01-.0401.0201l-.0201.0201c-.0401,0-.0903.01-.1505.0201-.0602.01-.1003.0201-.1505.0201h-.0401c-.0401,0-.0903-.01-.1505-.0201-.0602-.0201-.1003-.0201-.1505-.0201-.0201,0-.0301-.01-.0401-.0201-.0201-.01-.0201-.0201-.0201-.0201h-.1204c-.0401-.01-.0903-.0301-.1505-.0602l-.0201-.0201c-.0702-.0301-.1505-.0803-.2307-.1705-.0301,0-.0401-.01-.0401-.0401-.0401-.01-.1003-.0702-.1906-.1705h-.0201c-.0201-.01-.0201-.0201-.0201-.0201-.0401-.0401-.0803-.1104-.1204-.2107h-.0201c-.0201-.01-.0201-.0201-.0201-.0201-.0401-.1405-.0702-.2307-.0803-.2709l-3.13-12.8111c-.1104-.4314-.0401-.8628.2107-1.2941.2608-.4414.632-.7624,1.1035-.9631.4815-.1806.943-.1806,1.3544,0,.4214.1705.6722.4715.7524.923l2.2372,8.9889,5.3472-8.9889c.2608-.4414.622-.7524,1.0835-.923.4614-.1705.9129-.1705,1.3242.01h0Z"/>
  <path class="cls-2" d="M951.6538,93.4116c-1.0735,0-2.0566-.2107-2.9495-.6521-.8929-.4314-1.6252-1.0233-2.1971-1.7757-.5417-.7624-.933-1.6353-1.1738-2.6084-.2408-.9832-.2508-2.0365-.0401-3.13.1806-1.1136.5518-2.167,1.1236-3.1601.5819-1.0032,1.2841-1.8861,2.0867-2.6284.8327-.7323,1.7757-1.3142,2.819-1.7356,1.0534-.4314,2.1168-.6521,3.2003-.6521.8026,0,1.555.1204,2.2372.3511.6922.2408,1.3243.5819,1.8861,1.0233.1505-.4013.4013-.7323.7524-.9832.3612-.2608.7524-.4013,1.1738-.4013.5016,0,.8929.1705,1.1738.5016.2809.321.3612.7323.2508,1.234l-2.2372,12.8512c-.0803.4715-.3311.8929-.7323,1.234-.3913.3511-.8226.5217-1.2941.5217-.4514,0-.8026-.1304-1.0634-.4013-.2709-.2809-.4113-.612-.4214-1.0032-.6822.4214-1.4246.7624-2.2171,1.0233-.7725.2608-1.565.3912-2.3776.3912ZM950.6707,81.8546c-.4916.4214-.9129.923-1.254,1.5048-.3311.5718-.5618,1.2039-.6722,1.8861-.1003.6621-.0803,1.2741.0401,1.8359.1204.5718.3511,1.0735.6922,1.5048.6521.9129,1.5851,1.3544,2.799,1.3544,1.1738,0,2.2372-.4514,3.2203-1.3544,1.0333-.8929,1.6653-2.0064,1.9061-3.3407.1204-.6822.1104-1.3042-.0201-1.8861-.1405-.5819-.3812-1.0835-.7123-1.5048-.311-.4214-.7023-.7424-1.1738-.9832-.4615-.2307-.9932-.3511-1.5851-.3511-.5819,0-1.1637.1204-1.7155.3511-.5417.2408-1.0534.5618-1.5249.9832h.0002Z"/>
  <path class="cls-2" d="M971.4271,70.4179c.5016,0,.9029.1806,1.1938.5217.301.3511.4113.7725.311,1.2741l-.7123,4.8054h.8527c.5016,0,.9029.1806,1.1938.5417.2909.3612.3812.7925.2709,1.2941-.0803.4916-.3311.9129-.7524,1.2741-.4214.3511-.8828.5217-1.3844.5217h-.8527l-1.6954,9.1092c.5016,0,.9029.1806,1.1938.5417.2909.3612.4013.7925.311,1.2941-.0803.4916-.3311.9129-.7524,1.2741-.4214.3511-.8828.5217-1.3844.5217-1.0233,0-1.8259-.3511-2.4278-1.0634-.5819-.7123-.7925-1.565-.6019-2.5682l1.7356-9.1092h-.9832c-.4715,0-.8628-.1705-1.1738-.5217-.2909-.3612-.4013-.7825-.311-1.2741.0903-.5016.3411-.933.7524-1.2941.4214-.3612.8828-.5417,1.4045-.5417h.943l.7323-4.8054c.1104-.5016.3612-.923.7725-1.2741.4214-.3411.8728-.5217,1.3644-.5217h.0001Z"/>
  <path class="cls-2" d="M976.1258,91.6761l2.3877-12.8512c.0903-.5016.3411-.923.7524-1.2741.4214-.3411.8828-.5217,1.4045-.5217.5016,0,.9029.1806,1.1938.5217.2909.3511.3812.7725.2709,1.2741l-2.3576,12.8512c-.0803.4916-.3311.9129-.7524,1.2741s-.8828.5417-1.3844.5417-.9129-.1806-1.2139-.5417c-.301-.3612-.4013-.7825-.301-1.2741h.0001ZM983.0481,72.9861c-.0803.5016-.3311.933-.7524,1.2941s-.8828.5417-1.3844.5417c-.4715,0-.8628-.1806-1.1738-.5417-.2909-.3612-.4013-.7925-.311-1.2941l.1003-.6922c.1104-.5116.3812-.943.7925-1.2941.4214-.3411.8628-.5217,1.3343-.5217.5016,0,.9029.1806,1.1938.5217.301.3511.4214.7825.3311,1.2941l-.1304.6922Z"/>
  <path class="cls-2" d="M994.0936,77.019c1.0835,0,2.0767.2207,2.9695.6722.8929.4514,1.6252,1.0433,2.2171,1.7958.5718.7424.9631,1.6052,1.1738,2.6084.2207.9932.2308,2.0466.0401,3.1802-.2007,1.1236-.5819,2.187-1.1738,3.1802-.5718.9932-1.2741,1.856-2.1068,2.5883-.8126.7524-1.7456,1.3544-2.799,1.7958-1.0434.4514-2.1168.6722-3.2203.6722-1.0835,0-2.0767-.2207-2.9695-.6722-.8828-.4414-1.6152-1.0433-2.2171-1.7958-.5417-.7323-.933-1.5951-1.1738-2.5883-.2207-.9832-.2408-2.0466-.0401-3.1802.1906-1.1236.5718-2.187,1.1537-3.1802.5819-1.0032,1.2841-1.866,2.1068-2.6084.8226-.7524,1.7556-1.3443,2.799-1.7958,1.0534-.4414,2.1369-.6722,3.2404-.6722ZM997.023,85.2755c.2308-1.3644-.0201-2.488-.7524-3.3608-.6722-.923-1.5951-1.3844-2.7789-1.3844-1.1738,0-2.2773.4615-3.3006,1.3844-.4615.4214-.8628.923-1.2139,1.5048-.3311.5718-.5618,1.1938-.6922,1.856-.1104.6722-.1003,1.2941.0201,1.8861.1405.5819.3612,1.0835.6922,1.4848.3311.4214.7323.7624,1.2139,1.0233.4815.2508,1.0132.3812,1.5851.3812.5819,0,1.1637-.1204,1.7356-.3812.5718-.2608,1.0935-.6019,1.5851-1.0233.4615-.4013.8527-.9029,1.1938-1.4848.331-.5819.5718-1.2139.7123-1.8861h0Z"/>
  <path class="cls-2" d="M1014.4684,91.656l1.3844-7.7549c.1706-.943-.0201-1.7456-.5618-2.4077-.5417-.6521-1.2942-.9832-2.2372-.9832-.6119,0-1.2039.1605-1.7757.4615-.5718.311-1.0534.7123-1.4446,1.2139-.3812.5016-.622,1.0735-.7324,1.7155l-1.4045,7.7549c-.0702.4715-.311.8929-.7123,1.234-.4113.3511-.8527.5217-1.3343.5217-.4715,0-.8527-.1705-1.1537-.5217-.2809-.3411-.3812-.7624-.2909-1.234l1.3844-7.7549.9029-5.1365c.0903-.4715.3411-.8828.7324-1.2139.4013-.3411.8427-.5217,1.3343-.5217.7324,0,1.1938.3411,1.3844,1.0233,1.1738-.6822,2.4077-1.0233,3.7019-1.0233,1.2641,0,2.3676.311,3.3006.923s1.6152,1.4446,2.0466,2.488c.4414,1.0333.5518,2.187.311,3.4711l-1.3844,7.7549c-.0702.4715-.311.8929-.7123,1.234-.3913.3511-.8226.5217-1.2942.5217-.4916,0-.8828-.1705-1.1738-.5217-.2809-.3612-.3712-.7725-.2709-1.244h0Z"/>
  <path class="cls-2" d="M1049.2792,83.861l-1.3544,7.7549c-.0802.4916-.3311.9129-.7324,1.254-.3914.3511-.8326.5217-1.3344.5217-.4716,0-.8527-.1705-1.1237-.5217-.2809-.3411-.3914-.7624-.311-1.254l1.3844-7.7549v-.0602c.1505-.923-.05-1.6954-.6019-2.3375-.5417-.6521-1.274-.9832-2.1971-.9832-.5819,0-1.1637.1605-1.7356.4615-.5718.311-1.0533.7123-1.4446,1.2139s-.6421,1.0735-.7524,1.7155l-1.3844,7.7549c-.1003.4916-.3411.9129-.7324,1.254-.3914.3511-.8326.5217-1.3142.5217-.4716,0-.8527-.1705-1.1237-.5217-.2809-.3411-.3712-.7624-.2709-1.254l1.3344-7.7549.903-5.0964c.0903-.5016.3411-.9129.7324-1.234.4012-.3311.8427-.5016,1.3344-.5016.7123,0,1.1738.3311,1.4045.9832,1.1838-.6521,2.4077-.9832,3.6818-.9832,1.0333,0,1.9462.2006,2.7589.6019.8026.4113,1.4647.9531,1.9865,1.6553.7625-.6922,1.6152-1.244,2.5482-1.6553.943-.4013,1.9362-.6019,2.9695-.6019,1.2642,0,2.3575.311,3.2805.923s1.5851,1.4346,2.0063,2.4679c.4314,1.0333.5417,2.187.3311,3.4511l-1.4045,7.7549c-.0602.4916-.2909.9129-.6923,1.254-.4113.3511-.8527.5217-1.3344.5217-.4916,0-.8728-.1705-1.1537-.5217-.2709-.3411-.3511-.7624-.2709-1.254l1.3544-7.7549c.1707-.943-.0201-1.7456-.5618-2.4077-.5317-.6521-1.2642-.9832-2.1971-.9832-.923,0-1.7657.3311-2.5281.9832-.7725.6421-1.244,1.4246-1.4246,2.3375v.0201c-.01-.0101-.0201,0-.0302.03h.0004Z"/>
  <path class="cls-2" d="M1070.0359,93.4518c-1.4948-.0301-2.7789-.4113-3.8423-1.1537-1.0735-.7323-1.8459-1.7255-2.3174-2.9695-.4615-1.234-.5618-2.5983-.311-4.0931.2107-1.1136.6019-2.167,1.1938-3.1601.5919-.9832,1.3243-1.866,2.177-2.6284.8427-.7624,1.7958-1.3544,2.8391-1.7757,1.0533-.4314,2.1469-.6521,3.2605-.6521,1.4446,0,2.6886.3311,3.7219.9832,1.0435.6621,1.8259,1.555,2.3375,2.6987.5117,1.1437.6722,2.4579.4816,3.9527,0,.0803-.0201.1405-.04.1705,0,.1003-.0201.2006-.0602.2909-.1104.3913-.3511.7123-.7324.9631-.3611.2408-.7625.3511-1.1938.3511h-10.5037c0,.3612.0602.7424.1906,1.1537.1405.3913.321.7223.5417,1.0032.2607.4113.6722.7424,1.234,1.0233.5518.2709,1.1035.4214,1.6553.4615.6421.0401,1.3142-.0301,2.0265-.2307.7123-.1906,1.3344-.5317,1.8861-1.0233.4214-.3913.8026-.5718,1.1537-.5618.3411.0201.632.1003.8527.2508.2207.1605.3411.2408.3511.2508.2909.311.4214.6722.3812,1.0835-.0302.4214-.2007.7825-.5016,1.0835-.9932.923-1.9965,1.5751-3.0096,1.9663-1.0233.3712-2.2773.5618-3.7721.5618v-.0002ZM1072.4637,80.1391c-.933.0401-1.7556.2709-2.4679.6722-.7023.3913-1.274.8427-1.7155,1.3544-.4314.5217-.7324,1.0032-.903,1.4647h9.2998c-.0302-.4314-.2007-.9029-.5016-1.4246-.311-.5116-.7725-.9631-1.3844-1.3544-.6019-.4013-1.3844-.6421-2.3275-.7123Z"/>
  <path class="cls-2" d="M1090.0444,93.4518c-1.4948-.0301-2.7789-.4113-3.8423-1.1537-1.0735-.7323-1.8459-1.7255-2.3174-2.9695-.4615-1.234-.5618-2.5983-.311-4.0931.2107-1.1136.6019-2.167,1.1938-3.1601.5919-.9832,1.3243-1.866,2.177-2.6284.8427-.7624,1.7958-1.3544,2.8391-1.7757,1.0533-.4314,2.1469-.6521,3.2605-.6521,1.4446,0,2.6886.3311,3.7219.9832,1.0435.6621,1.8259,1.555,2.3375,2.6987.5117,1.1437.6722,2.4579.4816,3.9527,0,.0803-.0201.1405-.04.1705,0,.1003-.0201.2006-.0602.2909-.1104.3913-.3511.7123-.7324.9631-.3611.2408-.7625.3511-1.1938.3511h-10.4937c0,.3612.0602.7424.1906,1.1537.1405.3913.321.7223.5417,1.0032.2607.4113.6722.7424,1.234,1.0233.5518.2709,1.1035.4214,1.6553.4615.6421.0401,1.3142-.0301,2.0265-.2307.7123-.1906,1.3344-.5317,1.8861-1.0233.4214-.3913.8026-.5718,1.1537-.5618.3411.0201.632.1003.8527.2508.2207.1605.3411.2408.3511.2508.2909.311.4214.6722.3812,1.0835-.0302.4214-.2007.7825-.5016,1.0835-.9932.923-1.9965,1.5751-3.0096,1.9663-1.0435.3712-2.2974.5618-3.7822.5618v-.0002ZM1092.4622,80.1391c-.933.0401-1.7556.2709-2.4679.6722-.7023.3913-1.274.8427-1.7155,1.3544-.4314.5217-.7324,1.0032-.903,1.4647h9.2998c-.0302-.4314-.2007-.9029-.5016-1.4246-.311-.5116-.7725-.9631-1.3844-1.3544-.6019-.4013-1.3744-.6421-2.3275-.7123Z"/>
  <path class="cls-2" d="M1108.3676,70.4179c.5016,0,.903.1806,1.1938.5217.301.3511.4113.7725.311,1.2741l-.7123,4.8054h.8527c.5016,0,.903.1806,1.1938.5417s.3812.7925.2709,1.2941c-.0802.4916-.3311.9129-.7524,1.2741-.4214.3511-.8828.5217-1.3844.5217h-.8527l-1.6954,9.1092c.5016,0,.903.1806,1.1938.5417s.4012.7925.311,1.2941c-.0802.4916-.3311.9129-.7524,1.2741-.4214.3511-.8828.5217-1.3844.5217-1.0233,0-1.8259-.3511-2.4279-1.0634-.5819-.7123-.7926-1.565-.6019-2.5682l1.7356-9.1092h-.9832c-.4716,0-.8628-.1705-1.1738-.5217-.2909-.3612-.4012-.7825-.311-1.2741.0903-.5016.3411-.933.7524-1.2941.4214-.3612.8828-.5417,1.4045-.5417h.943l.7324-4.8054c.1104-.5016.3611-.923.7725-1.2741.4314-.3411.8829-.5217,1.3644-.5217h-.0001Z"/>
  <path class="cls-2" d="M1113.1431,91.1544c-.3311-.301-.4816-.6922-.4414-1.1738.04-.4715.2308-.8828.5819-1.234.3812-.3913.8126-.6019,1.3142-.6521.5117-.0401.933.1003,1.254.4214.3311.3511.8026.6822,1.4246.9832.6119.2909,1.2239.4314,1.8359.4013.4615,0,.8929-.0502,1.2942-.1705.4214-.1204.7725-.2608,1.0634-.4214.2809-.1906.4816-.3612.6019-.5217.1204-.1505.1906-.301.2107-.4414,0-.1505-.01-.2709-.0201-.3511-.0302-.0401-.0702-.0903-.1204-.1705-.0602-.0803-.1405-.1705-.2509-.2508-.2107-.1505-.5417-.311-1.0032-.4815-.4515-.1705-.9531-.301-1.5249-.4214h-.0201c-.4916-.1104-.9731-.2307-1.4446-.3511-.4615-.1405-.8929-.301-1.2942-.5016-.3511-.2107-.7023-.4615-1.0435-.7725-.3311-.301-.6019-.6922-.7926-1.1537-.2408-.6421-.311-1.3243-.2308-2.0466.1505-.7323.4615-1.4145.943-2.0265s1.0333-1.1236,1.6252-1.545c.6219-.4013,1.3042-.7123,2.0265-.923.7223-.2207,1.4647-.3311,2.217-.3311,1.1237,0,2.0566.2207,2.799.6521.7324.4214,1.3344.8126,1.7958,1.1938.3611.2408.5518.6019.5618,1.0835.01.4715-.1605.9129-.5016,1.3142-.311.3913-.7123.6421-1.2139.7323-.4916.1003-.9128.0201-1.254-.2508-.4615-.3411-.9128-.6421-1.3544-.8828-.4314-.2307-.9128-.3511-1.4446-.3511-.4214,0-.8126.0602-1.1738.1906-.3511.1104-.6521.2508-.903.4214-.2408.1705-.4113.311-.5016.4414-.0802.1204-.1405.2207-.1505.2909-.0302.0702-.04.1204-.0201.1705.01.0301.0201.0602.0201.1003.0702.1104.1805.2207.3311.311.3611.3311,1.0935.5919,2.1971.7725l.0201.0201h.04c.5417.0803,1.0533.2006,1.5249.3511.4816.1605.943.3511,1.3544.6019.4214.2107.8026.4715,1.1537.7925.3611.321.6421.7123.8326,1.1738.2809.6421.3511,1.3744.2308,2.1971-.1605.7725-.4916,1.4747-1.0032,2.1268-.5016.6421-1.0634,1.1838-1.6954,1.6252-.6621.4113-1.3744.7223-2.1569.9631-.7825.2207-1.5649.3311-2.3575.3311-1.244-.01-2.3174-.2608-3.2203-.7323-.8627-.4715-1.575-.9731-2.1167-1.5048h.0001Z"/>
  <path class="cls-2" d="M1146.6385,93.4518c-1.5649,0-2.9294-.3612-4.0931-1.1035-1.1738-.7524-2.0265-1.7657-2.5682-3.0297-.5417-1.2641-.6923-2.6786-.4414-4.2436.2207-1.1537.6521-2.2372,1.274-3.2605.6219-1.0132,1.4045-1.9061,2.3174-2.6786.923-.7624,1.9261-1.3644,3.0297-1.7958,1.1136-.4314,2.2673-.6521,3.451-.6521,1.0032,0,1.9261.1605,2.7789.4815.8427.321,1.5751.7725,2.1971,1.3343.3311.311.4816.7023.4615,1.1938-.0201.4916-.2107.933-.5819,1.3343-.3511.3812-.7725.5919-1.274.6521-.5016.0401-.933-.0702-1.274-.3511-.7725-.6922-1.7456-1.0433-2.9294-1.0433-.923,0-1.8058.2207-2.6584.6722-.8326.4314-1.545,1.0132-2.1068,1.7356-.5718.7123-.933,1.5048-1.0835,2.3877-.1605.8828-.0802,1.6854.2308,2.4278.321.7223.8226,1.3142,1.5048,1.7556.6823.4314,1.4847.6521,2.4077.6521,1.1838,0,2.2874-.3612,3.3207-1.0835.4314-.301.8828-.4214,1.3544-.3511.4816.0702.8427.301,1.0634.6922.2308.3913.2809.8327.1204,1.3142-.1605.4916-.4515.8929-.8828,1.1938-.8126.5618-1.7054.9932-2.6786,1.3142-.953.2909-1.9362.4515-2.9395.4515h0Z"/>
  <path class="cls-2" d="M1163.1327,77.019c.5016,0,.8828.1806,1.1537.5217.2809.3311.3812.7424.2909,1.2139l-.0602.2307c.2509-.2107.5518-.4214.923-.622.6119-.3913,1.2841-.7123,2.0063-.9631.7324-.2508,1.5149-.3812,2.3174-.3812.5016,0,.8929.1806,1.1738.5217.2809.3311.3611.7424.2709,1.2139-.0802.4916-.3311.9129-.7324,1.254-.3914.3511-.8226.5217-1.2942.5217-.3914,0-.7625.0602-1.1035.1705-.3311.1104-.6722.2508-1.0032.4214-.321.1806-.6421.4214-.943.7123-.2909.2809-.5819.5718-.8527.8828-.4916.5417-.903,1.0835-1.234,1.6252-.321.5317-.5417.923-.6521,1.1738l-1.0835,6.2099c-.0802.4715-.3311.8929-.7324,1.234-.4113.3311-.8527.5016-1.3344.5016-.4716,0-.8527-.1705-1.1537-.5016-.2809-.3411-.3812-.7624-.2909-1.234l2.2974-12.9616c.0702-.4715.301-.8828.7123-1.2139.3914-.3511.8326-.5317,1.3243-.5317h.0001Z"/>
  <path class="cls-2" d="M1179.1841,93.4518c-1.4948-.0301-2.7789-.4113-3.8423-1.1537-1.0735-.7323-1.8459-1.7255-2.3174-2.9695-.4615-1.234-.5618-2.5983-.311-4.0931.2107-1.1136.6019-2.167,1.1938-3.1601.5919-.9832,1.3243-1.866,2.177-2.6284.8427-.7624,1.7958-1.3544,2.8391-1.7757,1.0533-.4314,2.1469-.6521,3.2605-.6521,1.4446,0,2.6886.3311,3.7219.9832,1.0435.6621,1.8259,1.555,2.3375,2.6987.5117,1.1437.6722,2.4579.4816,3.9527,0,.0803-.0201.1405-.04.1705,0,.1003-.0201.2006-.0602.2909-.1104.3913-.3511.7123-.7324.9631-.3611.2408-.7625.3511-1.1938.3511h-10.5037c0,.3612.0602.7424.1906,1.1537.1405.3913.321.7223.5417,1.0032.2607.4113.6722.7424,1.234,1.0233.5518.2709,1.1035.4214,1.6553.4615.6421.0401,1.3142-.0301,2.0265-.2307.7123-.1906,1.3344-.5317,1.8861-1.0233.4214-.3913.8026-.5718,1.1537-.5618.3411.0201.632.1003.8527.2508.2207.1605.3411.2408.3511.2508.2909.311.4214.6722.3812,1.0835-.0302.4214-.2007.7825-.5016,1.0835-.9932.923-1.9965,1.5751-3.0096,1.9663-1.0233.3712-2.2773.5618-3.7721.5618v-.0002ZM1181.6119,80.1391c-.933.0401-1.7556.2709-2.4679.6722-.7023.3913-1.274.8427-1.7155,1.3544-.4314.5217-.7324,1.0032-.903,1.4647h9.2998c-.0302-.4314-.2007-.9029-.5016-1.4246-.311-.5116-.7725-.9631-1.3844-1.3544-.6019-.4013-1.3844-.6421-2.3275-.7123Z"/>
  <path class="cls-2" d="M1198.0789,93.4116c-1.0735,0-2.0566-.2107-2.9495-.6521-.8929-.4314-1.6252-1.0233-2.1971-1.7757-.5417-.7624-.933-1.6353-1.1738-2.6084-.2408-.9832-.2509-2.0365-.04-3.13.1805-1.1136.5518-2.167,1.1237-3.1601.5819-1.0032,1.2841-1.8861,2.0867-2.6284.8326-.7323,1.7758-1.3142,2.819-1.7356,1.0533-.4314,2.1168-.6521,3.2003-.6521.8026,0,1.5551.1204,2.2372.3511.6923.2408,1.3243.5819,1.8861,1.0233.1505-.4013.4012-.7323.7524-.9832.3611-.2608.7524-.4013,1.1738-.4013.5016,0,.8929.1705,1.1738.5016.2809.321.3611.7323.2509,1.234l-2.2372,12.8512c-.0802.4715-.3311.8929-.7324,1.234-.3914.3511-.8226.5217-1.2942.5217-.4515,0-.8026-.1304-1.0634-.4013-.2709-.2809-.4113-.612-.4214-1.0032-.6823.4214-1.4246.7624-2.217,1.0233-.7725.2608-1.575.3912-2.3776.3912h-.0002ZM1197.0958,81.8546c-.4916.4214-.9128.923-1.254,1.5048-.3311.5718-.5618,1.2039-.6722,1.8861-.1003.6621-.0802,1.2741.04,1.8359.1204.5718.3511,1.0735.6923,1.5048.6521.9129,1.5851,1.3544,2.799,1.3544,1.1738,0,2.2372-.4514,3.2203-1.3544,1.0333-.8929,1.6653-2.0064,1.9061-3.3407.1204-.6822.1104-1.3042-.0201-1.8861-.1405-.5819-.3812-1.0835-.7123-1.5048-.311-.4214-.7023-.7424-1.1738-.9832-.4615-.2307-.9932-.3511-1.5851-.3511-.5819,0-1.1637.1204-1.7155.3511-.5417.2408-1.0533.5618-1.5249.9832h.0002Z"/>
  <path class="cls-2" d="M1217.8523,70.4179c.5016,0,.903.1806,1.1938.5217.301.3511.4113.7725.311,1.2741l-.7123,4.8054h.8527c.5016,0,.903.1806,1.1938.5417s.3812.7925.2709,1.2941c-.0802.4916-.3311.9129-.7524,1.2741-.4214.3511-.8828.5217-1.3844.5217h-.8527l-1.6954,9.1092c.5016,0,.903.1806,1.1938.5417s.4012.7925.311,1.2941c-.0802.4916-.3311.9129-.7524,1.2741-.4214.3511-.8828.5217-1.3844.5217-1.0233,0-1.8259-.3511-2.4279-1.0634-.5819-.7123-.7926-1.565-.6019-2.5682l1.7356-9.1092h-.9832c-.4716,0-.8628-.1705-1.1738-.5217-.2909-.3612-.4012-.7825-.311-1.2741.0903-.5016.3411-.933.7524-1.2941.4214-.3612.8828-.5417,1.4045-.5417h.943l.7324-4.8054c.1104-.5016.3611-.923.7725-1.2741.4214-.3411.8729-.5217,1.3644-.5217h-.0001Z"/>
  <path class="cls-2" d="M1222.5511,91.6761l2.3877-12.8512c.0903-.5016.3411-.923.7524-1.2741.4214-.3411.8828-.5217,1.4045-.5217.5016,0,.903.1806,1.1938.5217.2909.3511.3812.7725.2709,1.2741l-2.3575,12.8512c-.0802.4916-.3311.9129-.7524,1.2741s-.8828.5417-1.3844.5417-.9128-.1806-1.2139-.5417-.4012-.7825-.301-1.2741h-.0001ZM1229.4733,72.9861c-.0802.5016-.3311.933-.7524,1.2941s-.8828.5417-1.3844.5417c-.4716,0-.8628-.1806-1.1738-.5417-.2909-.3612-.4012-.7925-.311-1.2941l.1003-.6922c.1104-.5116.3812-.943.7926-1.2941.4214-.3411.8628-.5217,1.3344-.5217.5016,0,.903.1806,1.1938.5217.301.3511.4214.7825.3311,1.2941l-.1304.6922h-.0001Z"/>
  <path class="cls-2" d="M1245.5034,77.3601c.4012.2006.6521.5217.7524.9631.1104.4314.0302.8628-.2509,1.2941l-7.6245,12.8111c-.0201.0401-.0702.1405-.1707.2709-.0201,0-.0201.01-.0201.0201h-.04c-.0201.0301-.04.0602-.0602.1003l-.1003.1003c-.0201,0-.0201.01-.0201.0201h-.04c-.0702.0702-.1505.1204-.2308.1705-.0201.0301-.04.0401-.0602.0401-.1204.0803-.2207.1405-.2909.1705h-.04c0,.0201-.01.0201-.0201.0201-.04.0301-.0903.0502-.1505.0602h-.1204c-.0201,0-.0302.01-.04.0201l-.0201.0201c-.04,0-.0903.01-.1505.0201-.0602.01-.1003.0201-.1505.0201h-.04c-.04,0-.0903-.01-.1505-.0201-.0602-.0201-.1003-.0201-.1505-.0201-.0201,0-.0302-.01-.04-.0201-.0201-.01-.0201-.0201-.0201-.0201h-.1204c-.04-.01-.0903-.0301-.1505-.0602,0,0-.01-.01-.0201-.0201-.0702-.0301-.1505-.0803-.2308-.1705-.0302,0-.04-.01-.04-.0401-.04-.01-.1003-.0702-.1906-.1705h-.0201c-.0201-.01-.0201-.0201-.0201-.0201-.04-.0401-.0802-.1104-.1204-.2107h-.0201c-.0201-.01-.0201-.0201-.0201-.0201-.04-.1405-.0702-.2307-.0802-.2709l-3.13-12.8111c-.1104-.4314-.04-.8628.2107-1.2941.2607-.4414.632-.7624,1.1035-.9631.4816-.1806.943-.1806,1.3544,0,.4214.1705.6722.4715.7524.923l2.2372,8.9889,5.347-8.9889c.2607-.4414.6219-.7524,1.0835-.923.4514-.1705.9028-.1705,1.3242.01h.0005Z"/>
  <path class="cls-2" d="M1249.389,91.6761l2.3877-12.8512c.0903-.5016.3411-.923.7524-1.2741.4214-.3411.8828-.5217,1.4045-.5217.5016,0,.903.1806,1.1938.5217.2909.3511.3812.7725.2709,1.2741l-2.3575,12.8512c-.0802.4916-.3311.9129-.7524,1.2741s-.8828.5417-1.3844.5417-.9128-.1806-1.2139-.5417-.4012-.7825-.301-1.2741h-.0001ZM1256.3011,72.9861c-.0802.5016-.3311.933-.7524,1.2941s-.8828.5417-1.3844.5417c-.4716,0-.8628-.1806-1.1738-.5417-.2909-.3612-.4012-.7925-.311-1.2941l.1003-.6922c.1104-.5116.3812-.943.7926-1.2941.4214-.3411.8628-.5217,1.3344-.5217.5016,0,.903.1806,1.1938.5217.301.3511.4214.7825.3311,1.2941l-.1304.6922h-.0001Z"/>
  <path class="cls-2" d="M1264.1888,70.4179c.5016,0,.903.1806,1.1938.5217.301.3511.4113.7725.311,1.2741l-.7123,4.8054h.8527c.5016,0,.903.1806,1.1938.5417s.3812.7925.2709,1.2941c-.0802.4916-.3311.9129-.7524,1.2741-.4214.3511-.8828.5217-1.3844.5217h-.8527l-1.6954,9.1092c.5016,0,.903.1806,1.1938.5417s.4012.7925.311,1.2941c-.0802.4916-.3311.9129-.7524,1.2741-.4214.3511-.8828.5217-1.3844.5217-1.0233,0-1.8259-.3511-2.4279-1.0634-.5819-.7123-.7926-1.565-.6019-2.5682l1.7356-9.1092h-.9832c-.4716,0-.8628-.1705-1.1738-.5217-.2909-.3612-.4012-.7825-.311-1.2741.0903-.5016.3411-.933.7524-1.2941.4214-.3612.8828-.5417,1.4045-.5417h.943l.7324-4.8054c.1104-.5016.3611-.923.7725-1.2741.4314-.3411.8829-.5217,1.3644-.5217h-.0001Z"/>
  <path class="cls-2" d="M1285.8026,78.7546l-.4615,2.5281-1.7758,10.1325c-.2007,1.0835-.5819,2.0967-1.1537,3.0498-.5718.9631-1.2841,1.8058-2.1268,2.5281-.8527.7323-1.7958,1.3042-2.819,1.7155-1.0333.4013-2.0967.6019-3.2003.6019-1.244,0-2.3575-.2709-3.3407-.8126-.3914-.2207-.6219-.5618-.7123-1.0233-.0702-.4615.0302-.9129.311-1.3343.301-.4514.7023-.7424,1.1938-.9029.5016-.1605.943-.1204,1.3344.1003.5718.2909,1.1838.4414,1.8359.4414.9631,0,1.866-.2909,2.7188-.8527.8628-.5618,1.5149-1.2741,1.9462-2.1268-1.0435.5217-2.1469.7725-3.3007.7725-1.274,0-2.3776-.301-3.3207-.923-.9531-.622-1.6453-1.4647-2.0867-2.508-.4314-1.0534-.5417-2.2171-.311-3.4912l1.3844-7.9054c.1104-.5016.3611-.9129.7524-1.234.4012-.3311.8427-.5016,1.3142-.5016.5016,0,.8929.1705,1.1738.5016.2909.321.4012.7323.311,1.234l-1.4246,7.9054c-.1605.933.04,1.7356.5819,2.4077.5518.6722,1.3042,1.0032,2.2572,1.0032.9631,0,1.8259-.3311,2.5883-1.0032.7825-.6722,1.2642-1.4647,1.4446-2.4077l1.3344-7.9054c.0702-.3411.2207-.6521.4615-.923.4816-.5417,1.0233-.8126,1.6052-.8126.4214,0,.7324.1104.9631.3311.4615.321.6321.7925.5217,1.4145h-.0002Z"/>
  <path class="cls-2" d="M775.4399,70.1172c.1806-.4314.4615-.7725.8327-1.0233.3913-.2508.8026-.3812,1.254-.3812.5317,0,.943.1705,1.254.5016.321.3311.4815.7424.4815,1.234,0,.2508-.0702.5217-.2107.8126l-8.9286,20.1246c-.2006.4314-.4916.7825-.8828,1.0433-.3812.2508-.7925.3812-1.234.3812-.4514,0-.8226-.1204-1.1236-.3812-.2909-.2608-.4815-.612-.5618-1.0433l-2.3174-13.5435-6.1397,13.6638c-.1605.3913-.4214.7023-.7925.943-.3612.2307-.7424.3511-1.1537.3511-.4214,0-.7725-.1204-1.0634-.3511s-.4715-.5518-.5417-.943l-3.4511-20.2149c-.0301-.0301-.0401-.0702-.0401-.1505v-.2107c0-.5919.2307-1.1136.6922-1.565.4615-.4414,1.0132-.6722,1.6553-.6722.4414,0,.8226.1405,1.1236.4013.301.2709.4815.612.5417,1.0433l2.3576,14.8978,6.8319-15.4696c.2608-.5819.6922-.8828,1.2941-.8828.612,0,.9631.2909,1.0634.8828l2.5281,15.6302,6.5309-15.0784h0Z"/>
</svg>