<?xml version="1.0" encoding="UTF-8"?>
<svg id="Layer_1" data-name="Layer 1" xmlns="http://www.w3.org/2000/svg" viewBox="0 0 1440 581.3643">
  <defs>
    <style>
      .cls-1 {
        fill: #004b18;
      }

      .cls-2 {
        fill: #0f524c;
      }

      .cls-3 {
        fill: #2c6560;
      }

      .cls-4 {
        fill: #2b6661;
      }
    </style>
  </defs>
  <path class="cls-3" d="M438.2959,53.0472h9.36l-2.5281-14.4263-6.8319,14.4263ZM448.6892,58.5449h-12.9014l-3.8223,7.6947c-.311.6621-.7223,1.1437-1.254,1.4647-.5217.321-1.0634.4815-1.6553.4815-.7725,0-1.3744-.2408-1.8158-.7323-.4514-.4815-.6722-1.0735-.6722-1.7556,0-.1806.01-.3612.0401-.5618.0301-.2107.1003-.4414.2307-.6922l14.2758-29.3642c.4214-.8929,1.0534-1.6453,1.9262-2.2572.8628-.612,1.866-.923,3.0097-.923,1.0433,0,1.9362.2909,2.6786.8828.7323.5819,1.1938,1.3744,1.3844,2.3576l5.6883,29.3642c.0301.0803.0401.1806.0401.2909v.2508c0,.8327-.311,1.565-.943,2.1971s-1.3945.943-2.2773.943c-.622,0-1.1537-.1806-1.565-.5217-.4113-.3612-.6722-.8126-.7925-1.3544l-1.5751-7.7649Z"/>
  <path class="cls-3" d="M465.3107,34.9893c.1204-.8628.5317-1.5951,1.2139-2.1971.6922-.5919,1.4747-.9029,2.3375-.9029.7925,0,1.4346.2608,1.9262.7725.5016.5016.7524,1.1437.7524,1.9061,0,.0702-.01.1505-.0201.2307-.0201.0702-.0201.1405-.0201.1906l-3.8423,27.2976h10.7244c.7123,0,1.2941.2408,1.7556.7123s.6922,1.0634.6922,1.7757c0,.8628-.3311,1.6052-.9832,2.2171-.6421.612-1.3945.923-2.2572.923h-15.0082c-.5417,0-.9531-.1906-1.2139-.5618-.2709-.3913-.4013-.8327-.4013-1.3343l4.3439-31.0296Z"/>
  <path class="cls-3" d="M489.3144,34.9893c.1204-.8628.5317-1.5951,1.2139-2.1971.6922-.5919,1.4747-.9029,2.3375-.9029.7925,0,1.4346.2608,1.9262.7725.5016.5016.7524,1.1437.7524,1.9061,0,.0702-.01.1505-.0201.2307-.0201.0702-.0201.1405-.0201.1906l-3.8423,27.2976h10.7244c.7123,0,1.2941.2408,1.7556.7123s.6922,1.0634.6922,1.7757c0,.8628-.3311,1.6052-.9832,2.2171-.6421.612-1.3945.923-2.2572.923h-15.0082c-.5417,0-.9531-.1906-1.2139-.5618-.2709-.3913-.4013-.8327-.4013-1.3343l4.3439-31.0296Z"/>
  <path class="cls-3" d="M515.3446,31.8993c.7925,0,1.4446.2608,1.9462.7725.5116.5016.7725,1.1236.7725,1.856,0,.0602-.01.1204-.0201.2107-.0201.0702-.0201.1405-.0201.2107l-4.2436,30.1768c-.1204.8327-.5317,1.555-1.2139,2.1569-.6722.6019-1.4346.9029-2.2974.9029-.7725,0-1.4145-.2508-1.9462-.7524-.5217-.5116-.7725-1.1437-.7725-1.8861,0-.0502.01-.1104.0201-.1906.01-.0803.0201-.1605.0201-.2307l4.2436-30.1768c.1204-.8327.5217-1.555,1.1938-2.1569.6722-.5919,1.4547-.8929,2.3174-.8929Z"/>
  <path class="cls-3" d="M546.0111,55.8462c0,2.3375-.6019,4.4643-1.7958,6.3704-1.1838,1.9162-2.8893,3.431-5.0964,4.5546-2.2171,1.1236-4.8756,1.6954-7.9856,1.6954-2.7087,0-5.0763-.4314-7.1229-1.2741s-3.6116-1.8459-4.685-2.9896c-.1204-.1505-.2408-.321-.3511-.5217-.1104-.1906-.1705-.4314-.1705-.7123,0-.933.3812-1.7155,1.1236-2.3576.7624-.6421,1.5951-.9631,2.488-.9631.3913,0,.7323.0702,1.0433.2107.321.1204.6521.3311.9832.6019.8929.7123,1.866,1.3243,2.9495,1.8359,1.0835.5016,2.5783.7524,4.4944.7524,2.5983,0,4.5747-.5016,5.919-1.5048s2.0265-2.3977,2.0265-4.1834c0-1.0433-.321-1.866-.9631-2.488-.622-.612-1.565-1.1537-2.799-1.6052-1.2239-.4615-2.7589-.943-4.5947-1.4446-1.1437-.3311-2.2974-.6922-3.4711-1.0634-1.1738-.3913-2.2372-.8828-3.2003-1.4848-.9531-.5919-1.7155-1.3644-2.2974-2.3174-.5819-.9631-.8828-2.167-.8828-3.6116,0-1.8259.3612-3.4511,1.1035-4.8656.7323-1.4346,1.7556-2.6686,3.0498-3.7019s2.7589-1.8058,4.3941-2.3375c1.6252-.5417,3.3307-.8126,5.1164-.8126,1.1437,0,2.3475.1204,3.6116.3511,1.2841.2207,2.4679.5618,3.5715,1.0032,1.1136.4514,2.0165.9731,2.7187,1.5851.6922.612,1.0433,1.3243,1.0433,2.1268,0,.7424-.3311,1.4446-1.0032,2.1068-.6621.6621-1.4747.9832-2.4679.9832-.3812,0-.7223-.0602-1.0233-.1906-.311-.1204-.6421-.2909-1.0032-.5016-.7825-.5317-1.6052-.9832-2.488-1.3544-.8628-.3913-2.0867-.5819-3.6617-.5819-2.3375,0-4.063.4514-5.1666,1.3343-1.0835.8929-1.6252,2.0666-1.6252,3.5113,0,1.3243.6421,2.2873,1.9262,2.8893s3.2203,1.254,5.8287,1.9663c1.1938.311,2.4077.6621,3.6316,1.0433,1.234.3812,2.3676.8929,3.4109,1.5249,1.0333.622,1.8459,1.4547,2.4679,2.488.6421,1.0434.9531,2.3475.9531,3.9326Z"/>
  <path class="cls-3" d="M565.3052,68.4767c-2.4679,0-4.6951-.4314-6.6714-1.2741-1.9663-.8427-3.6517-2.0165-5.0562-3.4912-1.3945-1.4747-2.4579-3.2003-3.2003-5.1666-.7424-1.9763-1.1035-4.0731-1.1035-6.2902,0-2.7288.5417-5.3371,1.6252-7.8151,1.0935-2.478,2.6084-4.685,4.5346-6.6012,1.9262-1.9262,4.1634-3.431,6.7316-4.5346,2.5783-1.1136,5.3371-1.6754,8.2966-1.6754,2.4679,0,4.685.4314,6.6413,1.2741,1.9763.8327,3.6617,1.9964,5.0562,3.4912,1.4045,1.4948,2.478,3.2304,3.2203,5.2067.7323,1.9663,1.1035,4.053,1.1035,6.2701,0,2.7789-.5518,5.3973-1.6553,7.8552-1.0835,2.4679-2.5883,4.665-4.5145,6.5811-1.9262,1.9262-4.1734,3.441-6.7517,4.5346-2.5482,1.0935-5.3071,1.6352-8.2565,1.6352ZM580.203,48.3923c0-2.2171-.4615-4.1634-1.3844-5.8287-.923-1.6854-2.187-2.9996-3.7821-3.9527-1.6052-.9631-3.421-1.4446-5.4575-1.4446-1.8359,0-3.6116.3712-5.307,1.1035-1.6854.7424-3.1902,1.7757-4.4944,3.0899-1.3142,1.3243-2.3375,2.8792-3.0899,4.665s-1.1236,3.722-1.1236,5.8086c0,2.0666.4113,3.9426,1.234,5.618.8327,1.6754,2.0265,2.9996,3.5715,3.9928,1.555.9731,3.431,1.4647,5.618,1.4647,2.0064,0,3.8624-.3812,5.5779-1.1236,1.7255-.7524,3.2304-1.7958,4.5145-3.13,1.2941-1.3343,2.3074-2.8893,3.0297-4.6349.7323-1.7657,1.0935-3.6317,1.0935-5.6281Z"/>
  <path class="cls-3" d="M595.6279,65.1962c-.1204.8226-.5217,1.5249-1.1938,2.1068-.6621.5819-1.4145.8828-2.2773.8828-.7725,0-1.4045-.2408-1.9061-.7323-.4916-.4815-.7323-1.0935-.7323-1.8359,0-.0702.01-.1405.0201-.2107.01-.0803.0201-.1505.0201-.2107l3.9728-28.0701c.1204-.9631.4715-1.8259,1.0433-2.6084.5718-.7925,1.2841-1.4246,2.1569-1.9061.8628-.4715,1.7857-.7123,2.7589-.7123.9832,0,1.8459.2408,2.5883.7123.7323.4715,1.2641,1.1637,1.565,2.0666l7.8151,20.7165,2.8592-20.4857c.1104-.8327.4916-1.545,1.1537-2.1268.6722-.5819,1.4246-.8828,2.2572-.8828.7624,0,1.3945.2508,1.8861.7524.5016.4916.7524,1.1035.7524,1.8359,0,.0602-.01.1204-.0201.2107-.0201.0702-.0201.1405-.0201.2107l-4.2035,29.9461c-.1204.923-.5618,1.7055-1.2941,2.3576-.7424.6421-1.565.9631-2.488.9631-1.3644,0-2.2673-.5819-2.6987-1.7556l-10.4736-26.6254-3.5414,25.4015Z"/>
  <path class="cls-3" d="M166.2457,67.2144c-.612,0-1.1136-.2006-1.5048-.6019-.3812-.4013-.5618-.8929-.5618-1.4647v-31.2703c0-.5718.1906-1.0433.5618-1.4246.3913-.3913.8628-.5819,1.4446-.5819h17.7269c.5718,0,1.0534.1906,1.4647.5618.4013.3612.6019.8327.6019,1.4045,0,.5417-.2006,1.0032-.6019,1.3844-.4113.3612-.8929.5417-1.4647.5417h-15.9111l.311-.4013v12.3496l-.2508-.5417h13.5836c.5718,0,1.0534.2006,1.4647.5819.4013.3812.6019.8527.6019,1.4246,0,.5217-.2006.9731-.6019,1.3544-.4113.3812-.8929.5618-1.4647.5618h-13.6839l.3511-.4414v14.4865c0,.5718-.2006,1.0634-.6019,1.4647-.4113.4113-.8929.612-1.4647.612Z"/>
  <path class="cls-3" d="M211.1675,63.2215c.5718,0,1.0534.2006,1.4647.5819.4013.3913.6019.8728.6019,1.4446s-.2006,1.0433-.6019,1.4246c-.4113.3612-.8929.5417-1.4647.5417h-17.4761c-.5718,0-1.0534-.2006-1.4446-.6019-.3812-.4013-.5618-.8929-.5618-1.4647v-31.2703c0-.5718.2006-1.0433.6019-1.4246.4013-.3913.9029-.5819,1.5048-.5819.5718,0,1.0534.2006,1.4647.5819.4013.3812.6019.8527.6019,1.4246v30.2671l-1.0032-.923h16.3124Z"/>
  <path class="cls-3" d="M249.8914,49.5376c0,2.5883-.4314,4.996-1.2741,7.2131-.8327,2.2071-2.0165,4.1333-3.5313,5.7886-1.5048,1.6453-3.3006,2.9194-5.3973,3.8223-2.0867.9029-4.364,1.3544-6.8119,1.3544-2.498,0-4.7854-.4514-6.852-1.3544-2.0666-.9029-3.8524-2.177-5.3672-3.8223-1.5048-1.6553-2.6886-3.5815-3.5313-5.7886-.8327-2.2171-1.254-4.6148-1.254-7.2131,0-2.6184.4214-5.0261,1.254-7.2332.8427-2.2171,2.0265-4.1333,3.5313-5.7685,1.5149-1.6252,3.3106-2.8993,5.3672-3.8022,2.0767-.9029,4.354-1.3544,6.852-1.3544,2.4479,0,4.7252.4514,6.8119,1.3544,2.0867.9129,3.8925,2.177,5.3973,3.8022,1.5149,1.6252,2.6987,3.5514,3.5313,5.7685.8427,2.2071,1.2741,4.6148,1.2741,7.2332ZM245.5375,49.5376c0-2.7589-.5518-5.1967-1.6553-7.3135-1.0835-2.1168-2.5682-3.7821-4.4543-4.996-1.886-1.2139-4.0731-1.8158-6.5611-1.8158-2.498,0-4.6951.6019-6.6012,1.8158-1.8961,1.2139-3.3909,2.8792-4.4744,4.996-1.0734,2.1168-1.6051,4.5546-1.6051,7.3135,0,2.7288.5317,5.1766,1.6051,7.3135,1.0835,2.1268,2.5783,3.8022,4.4744,5.0161,1.9061,1.2139,4.1032,1.8158,6.6012,1.8158,2.488,0,4.685-.6019,6.5611-1.8158s3.3608-2.8893,4.4543-5.0161c1.1035-2.1469,1.6553-4.5847,1.6553-7.3135Z"/>
  <path class="cls-3" d="M257.9148,67.2144c-.6421,0-1.1938-.2006-1.6553-.6019-.4514-.4013-.6722-.8929-.6722-1.4647v-31.2703c0-.5718.1906-1.0433.5618-1.4246.3913-.3913.8628-.5819,1.4446-.5819h13.9447c1.886,0,3.5815.4314,5.0964,1.2941,1.5149.8527,2.7187,2.0265,3.6116,3.5313.8929,1.4948,1.3343,3.2103,1.3343,5.1666,0,1.4246-.2709,2.7488-.8126,3.9728-.5317,1.2239-1.2741,2.2873-2.2171,3.1802-.9531.8929-2.0265,1.5751-3.2404,2.0466l-1.1035-.8126c1.1437.2809,2.167.7725,3.0698,1.4647.923.6822,1.6653,1.555,2.2372,2.6084.5718,1.0634.8628,2.2974.9029,3.7019.0702,1.254.1505,2.2472.2508,2.9896.1104.7424.2608,1.3142.4615,1.7356.2107.4214.4916.7424.8527.9832.4715.311.7825.7223.943,1.234.1505.5016.0602.9832-.2709,1.4446-.2107.311-.5016.5217-.8828.6521-.3612.1104-.7324.1605-1.1035.1204-.3612-.0401-.6822-.1505-.9631-.311-.5317-.301-1.0534-.7524-1.565-1.3343-.5016-.5819-.923-1.4346-1.254-2.5482s-.5016-2.6184-.5016-4.5346c0-1.0835-.1705-1.9763-.5016-2.6786-.3311-.7123-.7925-1.2841-1.3543-1.7155-.5718-.4414-1.2139-.7524-1.9262-.923s-1.4346-.2508-2.177-.2508h-11.2561l.6019-.923v13.1923c0,.5718-.1705,1.0634-.5016,1.4647-.3311.3913-.7825.5919-1.3543.5919ZM259.1689,49.2367h12.3697c.9731-.0702,1.886-.4013,2.7388-1.0032.8628-.612,1.5751-1.4647,2.1268-2.5482.5518-1.0935.8327-2.3375.8327-3.722,0-1.7857-.5618-3.2605-1.6954-4.4342-1.1236-1.1838-2.5482-1.7757-4.2637-1.7757h-11.8982l.4013-.9631v15.3392l-.612-.8928Z"/>
  <path class="cls-3" d="M290.7167,31.8709h17.9777c.5718,0,1.0534.1906,1.4647.5618.4013.3612.6019.8327.6019,1.4045s-.2006,1.0433-.6019,1.4045c-.4113.3511-.8929.5217-1.4647.5217h-16.2622l.4615-.8527v12.771l-.5016-.5618h14.0451c.5718,0,1.0534.1906,1.4647.5618.4013.3812.6019.8527.6019,1.4246s-.2006,1.0333-.6019,1.3844c-.4113.3511-.8929.5217-1.4647.5217h-13.9046l.3511-.4414v13.0619l-.2909-.3311h16.1017c.5718,0,1.0534.2006,1.4647.6019.4013.4113.6019.8527.6019,1.3544,0,.5718-.2006,1.0433-.6019,1.4246-.4113.3612-.8929.5417-1.4647.5417h-17.9777c-.5718,0-1.0534-.2006-1.4446-.6019-.3812-.4013-.5618-.8929-.5618-1.4647v-31.2703c0-.5718.1906-1.0433.5618-1.4246.3913-.3912.8728-.5919,1.4446-.5919Z"/>
  <path class="cls-3" d="M342.6196,31.8709c.5718,0,1.0233.1806,1.3543.5417.3311.3511.5016.7925.5016,1.3142v31.3707c0,.622-.2006,1.1437-.6019,1.5249-.3913.3913-.8828.5819-1.4647.5819-.2909,0-.5919-.0502-.9029-.1705-.311-.1204-.5417-.2809-.7123-.4815l-21.6093-28.5917,1.0032-.6019v27.9898c0,.5317-.1806.9731-.5217,1.3343-.3511.3511-.8126.5217-1.3844.5217-.5417,0-.9832-.1705-1.3142-.5217-.3311-.3612-.5016-.8026-.5016-1.3343v-31.481c0-.5919.1906-1.0735.5618-1.4446.3913-.3812.8527-.5618,1.4045-.5618.301,0,.612.0602.923.1906.321.1104.5718.2909.7524.5217l21.2983,28.1704-.6521.7925v-27.8193c0-.5317.1705-.9631.5217-1.3142s.8026-.5317,1.3443-.5317Z"/>
  <path class="cls-3" d="M377.7469,34.1884c.5718.311.9029.7725.9832,1.3844.0803.6019-.0803,1.1537-.4815,1.6553-.2909.4314-.6822.6722-1.1537.7123-.4715.0301-.9531-.0702-1.4246-.311-1.1136-.6722-2.3174-1.1938-3.5915-1.5851-1.2741-.3913-2.6084-.5819-4.0329-.5819-1.9763,0-3.8022.3511-5.4575,1.0433-1.6453.6822-3.0698,1.6553-4.2837,2.9093-1.2139,1.244-2.167,2.7288-2.8391,4.4543-.6722,1.7155-1.0032,3.6116-1.0032,5.6883,0,2.2271.3511,4.2236,1.0634,5.9792.7123,1.7456,1.6754,3.2304,2.9093,4.4543,1.2239,1.2239,2.6585,2.167,4.2837,2.799,1.6453.6421,3.421.9631,5.3271.9631,1.3844,0,2.7087-.1806,3.9928-.5417,1.2841-.3812,2.488-.923,3.6317-1.6252.4715-.2307.943-.321,1.4246-.2508.4715.0702.8828.311,1.2139.7123.4013.5417.5518,1.1035.4414,1.6954-.1003.5819-.4113,1.0233-.943,1.2941-.8527.5016-1.8158.9631-2.8893,1.3844s-2.1971.7424-3.3608.9832c-1.1637.2307-2.3275.3511-3.5113.3511-2.4278,0-4.7151-.4214-6.8721-1.254-2.1469-.8427-4.053-2.0566-5.7083-3.6316-1.6453-1.5851-2.9495-3.4912-3.9126-5.7284-.9531-2.2372-1.4246-4.7653-1.4246-7.5643,0-2.6184.4514-5.0261,1.3543-7.2131.9029-2.187,2.177-4.0831,3.8022-5.7083,1.6453-1.6152,3.5414-2.8692,5.7083-3.7821,2.177-.923,4.5245-1.3844,7.0426-1.3844,1.7556,0,3.4611.2408,5.1164.7123,1.6954.4414,3.2203,1.1136,4.5947,1.9864Z"/>
  <path class="cls-3" d="M385.8697,31.8709h17.9777c.5718,0,1.0534.1906,1.4647.5618.4013.3612.6019.8327.6019,1.4045s-.2006,1.0433-.6019,1.4045c-.4113.3511-.8929.5217-1.4647.5217h-16.2622l.4615-.8527v12.771l-.5016-.5618h14.0451c.5718,0,1.0534.1906,1.4647.5618.4013.3812.6019.8527.6019,1.4246s-.2006,1.0333-.6019,1.3844c-.4113.3511-.8929.5217-1.4647.5217h-13.9046l.3511-.4414v13.0619l-.2909-.3311h16.0916c.5718,0,1.0534.2006,1.4647.6019.4013.4113.6019.8527.6019,1.3544,0,.5718-.2006,1.0433-.6019,1.4246-.4113.3612-.8929.5417-1.4647.5417h-17.9777c-.5718,0-1.0534-.2006-1.4446-.6019-.3812-.4013-.5618-.8929-.5618-1.4647v-31.2703c0-.5718.1906-1.0433.5618-1.4246.4013-.3912.8828-.5919,1.4547-.5919Z"/>
  <path class="cls-1" d="M694.6363,31.2343c-1.2641,0-2.5181.1204-3.752.3712-1.244.2408-2.4479.612-3.6216,1.0935s-2.2773,1.0835-3.3307,1.7857-2.0265,1.5048-2.9193,2.3977c-.8929.9029-1.6954,1.866-2.3977,2.9194s-1.2941,2.167-1.7858,3.3307c-.4815,1.1738-.8527,2.3776-1.0935,3.6216-.2408,1.234-.3712,2.488-.3712,3.7621,0,1.2641.1204,2.5181.3712,3.7621.2508,1.234.6119,2.4479,1.0935,3.6116.4815,1.1738,1.0835,2.2773,1.7858,3.3307.7023,1.0534,1.5048,2.0265,2.3977,2.9194.9029.8929,1.866,1.6954,2.9294,2.3977,1.0534.7023,2.1669,1.2942,3.3307,1.7857,1.1637.4816,2.3676.8427,3.6116,1.0935,1.2339.2408,2.488.3712,3.7621.3712,1.2641,0,2.5181-.1204,3.7621-.3712,1.2339-.2508,2.4479-.6119,3.6116-1.0935,1.1737-.4816,2.2773-1.0835,3.3307-1.7857s2.0265-1.4948,2.9193-2.3977c.8929-.9029,1.6954-1.866,2.3977-2.9294.7023-1.0534,1.2941-2.167,1.7858-3.3307.4815-1.1738.8527-2.3676,1.0935-3.6116.2408-1.244.3712-2.498.3712-3.7621s-.1204-2.5181-.3712-3.7621c-.2508-1.234-.6119-2.4479-1.0935-3.6116-.4815-1.1738-1.0835-2.2773-1.7858-3.3307s-1.5048-2.0265-2.3977-2.9194c-.9029-.8929-1.866-1.6954-2.9294-2.3977-1.0534-.7023-2.1669-1.2941-3.3307-1.7857-1.1737-.4815-2.3776-.8527-3.6216-1.0935-1.224-.2508-2.478-.3712-3.752-.3712ZM694.6363,66.4372c-.9731,0-1.9362-.0903-2.8993-.2709s-1.8961-.4414-2.809-.7926-1.7858-.7825-2.6083-1.2942c-.8327-.5117-1.6051-1.0835-2.3275-1.7356-.7223-.6521-1.3844-1.3644-1.9763-2.1369-.5919-.7725-1.1136-1.5951-1.555-2.4579s-.8026-1.7757-1.0835-2.7087-.4715-1.8861-.5718-2.8491h15.7004c-1.0534,1.0534-1.866,2.2773-2.4378,3.6617-.5718,1.3844-.8527,2.809-.8527,4.3038h3.3508c0-.5217.0501-1.0433.1505-1.555.1003-.5116.2608-1.0132.4515-1.4948.2007-.4815.4515-.943.7323-1.3744.2909-.4314.622-.8327.9932-1.2039.3611-.3712.7725-.7023,1.2039-.9932.4314-.2909.8929-.5317,1.3744-.7323s.9831-.3511,1.4948-.4514c.5117-.1003,1.0333-.1505,1.555-.1505v-3.3507c-.5217,0-1.0433-.0502-1.555-.1505-.5117-.1003-1.0133-.2608-1.4948-.4514s-.943-.4414-1.3744-.7323c-.4414-.2909-.8327-.622-1.2039-.9832-.3712-.3712-.7023-.7725-.9932-1.2039s-.5317-.8929-.7323-1.3844c-.2007-.4815-.3511-.9731-.4515-1.4848-.1003-.5217-.1505-1.0333-.1505-1.555h-3.3508c0,1.4948.2809,2.9294.8527,4.3138.5718,1.3844,1.3844,2.5983,2.4378,3.6517h-15.7004c.1003-1.0132.311-2.0165.6119-2.9896s.6922-1.9162,1.1737-2.819,1.0433-1.7456,1.6854-2.5482c.6521-.7925,1.3543-1.5149,2.1469-2.177s1.6252-1.234,2.5181-1.7255,1.8259-.9029,2.799-1.2139,1.9663-.5317,2.9795-.6621c1.0133-.1204,2.0366-.1505,3.0498-.0803,1.0233.0702,2.0265.2408,3.0097.5116.9831.2608,1.9362.622,2.8592,1.0735.9229.4414,1.7858.9731,2.5984,1.5951.8126.612,1.565,1.3042,2.2472,2.0666s1.2842,1.5751,1.8158,2.4579c.5317.8728.9631,1.7958,1.3142,2.7488.3511.9631.6019,1.9462.7625,2.9595.1605,1.0132.2207,2.0265.1906,3.0498-.0401,1.0233-.1705,2.0265-.4013,3.0297-.2307.9932-.5518,1.9563-.9631,2.8993-.4213.933-.9229,1.8158-1.5048,2.6585-.5819.8327-1.244,1.6152-1.9763,2.3174-.7323.7123-1.535,1.3443-2.3977,1.9061-.8527.5518-1.7657,1.0233-2.7087,1.4145-.943.3812-1.9262.6722-2.9294.8628-1.0132.1405-2.0265.2308-3.0497.2308Z"/>
  <path class="cls-1" d="M778.1891,29.1648c.4815,0,.9531.1906,1.4045.5618.4615.3812.6922.8929.6922,1.5249,0,.2006-.0301.4113-.0803.6521l-6.3704,18.7301c-.1204.3913-.3511.6922-.6922.9029-.3311.2006-.6822.311-1.0433.3311-.3612,0-.7223-.1003-1.0835-.311-.3511-.2207-.622-.5317-.8126-.943l-4.7854-10.8448.2909.1906-4.7252,10.6542c-.2006.4113-.4715.7223-.8327.943-.3511.2107-.7023.311-1.0634.311-.3511-.0301-.7023-.1405-1.0433-.3311-.3311-.2107-.5618-.5116-.6922-.9029l-6.3704-18.7301c-.0602-.2307-.0803-.4514-.0803-.6521,0-.6421.2307-1.1537.6922-1.5249s.943-.5618,1.4446-.5618c.4013,0,.7825.1104,1.1236.3311.3612.2107.6019.5217.7323.923l5.1365,15.57-.7123-.0401,4.5747-11.0153c.1806-.3812.4314-.6722.7524-.9029s.6822-.3411,1.0835-.311c.4214-.0301.7825.0803,1.1035.311.321.2207.5518.5217.7123.9029l4.2035,10.5338-.5217.3311,5.0763-15.3794c.1204-.4013.3612-.7123.7323-.923.3411-.2107.7324-.3311,1.1537-.3311Z"/>
  <path class="cls-1" d="M790.5546,52.1787c-1.8359,0-3.441-.3812-4.7854-1.1236-1.3343-.7624-2.3676-1.8058-3.0899-3.11-.7123-1.3243-1.0634-2.809-1.0634-4.4744,0-1.9362.3913-3.5815,1.1738-4.9559.7925-1.3644,1.8259-2.4077,3.0899-3.13,1.2641-.7323,2.6084-1.1035,4.0329-1.1035,1.0935,0,2.1369.2307,3.11.6922.9731.4514,1.8359,1.0634,2.5883,1.856.7524.7825,1.3443,1.6854,1.7958,2.7187.4414,1.0333.6722,2.1268.6722,3.2805-.0301.5217-.2408.943-.622,1.2741-.3812.321-.8226.4815-1.3343.4815h-12.3496l-.9631-3.2404h11.848l-.7123.6521v-.8527c-.0401-.622-.2709-1.1838-.6722-1.6754-.3913-.5016-.8929-.9029-1.4848-1.1938-.5819-.2909-1.2139-.4414-1.8861-.4414-.6421,0-1.244.0903-1.8158.2709-.5618.1705-1.0433.4514-1.4647.8527-.4113.4113-.7223.9531-.9631,1.6553-.2408.6822-.3511,1.555-.3511,2.6084,0,1.1637.2408,2.1469.7323,2.9495.4815.8126,1.1136,1.4346,1.8861,1.856.7624.4214,1.5751.622,2.4278.622.8026,0,1.4446-.0602,1.9262-.1906.4715-.1405.8427-.301,1.1236-.4815.2909-.1806.5518-.3411.7925-.4815.3913-.1806.7624-.2709,1.1035-.2709.4715,0,.8628.1605,1.1738.4815.321.321.4815.7023.4815,1.1236,0,.5718-.311,1.0935-.923,1.565-.5618.4715-1.3443.8929-2.3576,1.254-1.0132.3511-2.0566.5317-3.12.5317Z"/>
  <path class="cls-1" d="M805.6418,49.9014c0,.5618-.1906,1.0233-.5618,1.4045s-.8427.5618-1.4045.5618c-.5417,0-.9932-.1906-1.3544-.5618-.3612-.3812-.5417-.8427-.5417-1.4045v-19.9641c0-.5518.1906-1.0233.5618-1.4045s.8427-.5618,1.4045-.5618c.5518,0,1.0132.1906,1.3544.5618.3612.3812.5417.8427.5417,1.4045v19.9641Z"/>
  <path class="cls-1" d="M817.5247,34.2612c1.2239,0,2.2974.1405,3.2203.4013.923.2508,1.6252.6019,2.1268,1.0634.5016.4615.7524,1.0233.7524,1.6754,0,.4314-.1405.8327-.4013,1.2139-.2508.3812-.622.5618-1.1035.5618-.3511,0-.6421-.0502-.8828-.1505-.2207-.0903-.4214-.2207-.5819-.3812-.1705-.1505-.3712-.2909-.6019-.4214-.2207-.1204-.5618-.2207-1.0032-.2909-.4314-.0803-.7624-.1204-.9832-.1204-1.0835,0-2.0165.2408-2.7789.7123-.7725.4715-1.3544,1.1136-1.7757,1.9262-.4113.8126-.6019,1.7356-.6019,2.7789s.2107,1.9763.622,2.7789c.4214.8126.9932,1.4547,1.7356,1.9262.7524.4715,1.6152.7123,2.5883.7123.5317,0,.9832-.0301,1.3844-.1003.3913-.0702.7123-.1705.9631-.2909.301-.1705.5718-.3411.8126-.5417.2307-.1906.5919-.2909,1.0634-.2909.5518,0,.9832.1806,1.2741.5417.301.3511.4615.7825.4615,1.2941,0,.5317-.301,1.0233-.9029,1.4647-.6019.4514-1.3945.8026-2.3877,1.0634-.9731.2608-2.0365.4013-3.1802.4013-1.7055,0-3.1802-.3913-4.4342-1.1738-1.244-.7825-2.2071-1.8459-2.8893-3.2003-.6722-1.3644-1.0032-2.8893-1.0032-4.5747,0-1.7556.3511-3.3006,1.0634-4.6349.7223-1.3443,1.7255-2.4077,3.0097-3.1802,1.3042-.7725,2.7789-1.1638,4.4342-1.1638Z"/>
  <path class="cls-1" d="M843.387,43.23c0,1.7757-.4013,3.3307-1.1938,4.685-.7825,1.3343-1.8359,2.3877-3.1601,3.13-1.3243.7524-2.799,1.1236-4.4342,1.1236s-3.11-.3812-4.4342-1.1236c-1.3243-.7524-2.3877-1.7958-3.1802-3.13-.7825-1.3443-1.1738-2.9093-1.1738-4.685,0-1.7556.3913-3.3006,1.1738-4.6349.7925-1.3443,1.8459-2.4077,3.1802-3.1802,1.3243-.7624,2.799-1.1537,4.4342-1.1537s3.0999.3913,4.4342,1.1537c1.3243.7725,2.3676,1.8259,3.1601,3.1802.7926,1.3343,1.1938,2.8792,1.1938,4.6349ZM839.5246,43.23c0-1.0835-.2207-2.0365-.6722-2.8391-.4314-.8026-1.0233-1.4346-1.7757-1.8861-.7424-.4615-1.565-.6922-2.4679-.6922-.9129,0-1.7255.2307-2.4679.6922-.7424.4514-1.3343,1.0735-1.7757,1.8861-.4514.8126-.6722,1.7556-.6722,2.8391s.2207,2.0365.6722,2.8391c.4414.8126,1.0333,1.4446,1.7757,1.9061.7323.4514,1.555.6722,2.4679.6722.9029,0,1.7255-.2207,2.4679-.6722.7524-.4615,1.3443-1.0935,1.7757-1.9061.4414-.8026.6722-1.7556.6722-2.8391Z"/>
  <path class="cls-1" d="M855.8564,34.2612c1.7155,0,2.9796.4214,3.8022,1.254.8226.8226,1.3544,1.8961,1.6052,3.2003l-.5417-.2909.2508-.5016c.2608-.5016.6621-1.0333,1.1938-1.6052.5417-.5718,1.1938-1.0534,1.9663-1.4446.7624-.4013,1.6152-.6019,2.5682-.6019,1.545,0,2.7187.3311,3.5313,1.0032.8026.6722,1.3544,1.565,1.6553,2.6786.301,1.1035.4615,2.3275.4615,3.6818v8.2766c0,.5618-.1806,1.0233-.5417,1.4045-.3612.3812-.8327.5618-1.4045.5618-.5618,0-1.0233-.1906-1.3844-.5618-.3612-.3812-.5417-.8427-.5417-1.4045v-8.2766c0-.7123-.0903-1.3443-.2709-1.9262-.1705-.5718-.4815-1.0233-.943-1.3544-.4514-.3411-1.0835-.5217-1.9262-.5217-.8226,0-1.5249.1806-2.1068.5217-.5718.3311-1.0032.7925-1.2941,1.3544-.2909.5718-.4414,1.2139-.4414,1.9262v8.2766c0,.5618-.1906,1.0233-.5618,1.4045-.3612.3812-.8226.5618-1.3844.5618s-1.0233-.1906-1.3844-.5618c-.3612-.3812-.5417-.8427-.5417-1.4045v-8.2766c0-.7123-.0903-1.3443-.2709-1.9262-.1705-.5718-.4815-1.0233-.943-1.3544-.4514-.3411-1.0835-.5217-1.9262-.5217-.8226,0-1.5249.1806-2.1068.5217-.5718.3311-1.0032.7925-1.2941,1.3544-.2909.5718-.4414,1.2139-.4414,1.9262v8.2766c0,.5618-.1906,1.0233-.5618,1.4045-.3612.3812-.8226.5618-1.3844.5618s-1.0233-.1906-1.4045-.5618c-.3612-.3812-.5417-.8427-.5417-1.4045v-13.3328c0-.5518.1806-1.0233.5417-1.4045.3812-.3913.8427-.5819,1.4045-.5819.5518,0,1.0132.2006,1.3844.5819.3812.3812.5618.8427.5618,1.4045v1.3844l-.4815-.1003c.1906-.3612.4615-.7524.7925-1.1738.3411-.4214.7624-.8026,1.254-1.1738.5016-.3812,1.0534-.6722,1.6553-.9029.622-.2308,1.2941-.3511,1.9964-.3511Z"/>
  <path class="cls-1" d="M884.68,52.1787c-1.8359,0-3.441-.3812-4.7854-1.1236-1.3343-.7624-2.3676-1.8058-3.0899-3.11-.7123-1.3243-1.0634-2.809-1.0634-4.4744,0-1.9362.3913-3.5815,1.1738-4.9559.7925-1.3644,1.8259-2.4077,3.0899-3.13,1.2641-.7323,2.6084-1.1035,4.0329-1.1035,1.0935,0,2.1369.2307,3.11.6922.9731.4514,1.8359,1.0634,2.5883,1.856.7524.7825,1.3443,1.6854,1.7958,2.7187.4414,1.0333.6722,2.1268.6722,3.2805-.0301.5217-.2408.943-.622,1.2741-.3812.321-.8226.4815-1.3343.4815h-12.3496l-.9631-3.2404h11.848l-.7123.6521v-.8527c-.0401-.622-.2709-1.1838-.6722-1.6754-.3913-.5016-.8929-.9029-1.4848-1.1938-.5819-.2909-1.2139-.4414-1.8861-.4414-.6421,0-1.244.0903-1.8158.2709-.5618.1705-1.0433.4514-1.4647.8527-.4113.4113-.7223.9531-.9631,1.6553-.2408.6822-.3511,1.555-.3511,2.6084,0,1.1637.2408,2.1469.7323,2.9495.4815.8126,1.1136,1.4346,1.8861,1.856.7624.4214,1.5751.622,2.4278.622.8026,0,1.4446-.0602,1.9262-.1906.4715-.1405.8427-.301,1.1236-.4815.2909-.1806.5518-.3411.7925-.4815.3913-.1806.7624-.2709,1.1035-.2709.4715,0,.8628.1605,1.1738.4815.321.321.4815.7023.4815,1.1236,0,.5718-.311,1.0935-.923,1.565-.5618.4715-1.3443.8929-2.3576,1.254-1.0032.3511-2.0465.5317-3.12.5317Z"/>
  <path class="cls-1" d="M904.8308,34.9133h7.6445c.5116,0,.943.1806,1.2741.5217.3411.3311.5217.7624.5217,1.2741,0,.5016-.1806.923-.5217,1.254-.3311.3311-.7624.5016-1.2741.5016h-7.6445c-.5217,0-.9531-.1705-1.2941-.5217-.3511-.3411-.5217-.7825-.5217-1.2941,0-.4815.1705-.9029.5217-1.234.3411-.3311.7725-.5016,1.2941-.5016ZM908.2718,30.8803c.5518,0,1.0132.1906,1.3544.5618.3612.3812.5417.8427.5417,1.4045v14.3761c0,.2909.0502.5417.1705.7323.1204.2006.2909.3311.5016.4214.2107.0803.4314.1204.6722.1204.2508,0,.4815-.0502.6922-.1505.2207-.0903.4715-.1505.7524-.1505.301,0,.5718.1505.8126.4414.2508.2809.3812.6621.3812,1.1537,0,.6019-.3311,1.0935-.9832,1.4848-.6621.3913-1.3544.5819-2.1068.5819-.4615,0-.9631-.0301-1.5048-.1003-.5417-.0803-1.0634-.2709-1.545-.5618-.4916-.2909-.8929-.7323-1.2139-1.3343-.321-.5919-.4815-1.4246-.4815-2.488v-14.5266c0-.5518.1906-1.0233.5618-1.4045s.8427-.5618,1.3945-.5618Z"/>
  <path class="cls-1" d="M934.4256,43.23c0,1.7757-.4013,3.3307-1.1938,4.685-.7825,1.3343-1.8359,2.3877-3.1601,3.13-1.3243.7524-2.799,1.1236-4.4342,1.1236s-3.11-.3812-4.4342-1.1236c-1.3243-.7524-2.3877-1.7958-3.1802-3.13-.7825-1.3443-1.1738-2.9093-1.1738-4.685,0-1.7556.3913-3.3006,1.1738-4.6349.7925-1.3443,1.8459-2.4077,3.1802-3.1802,1.3243-.7624,2.799-1.1537,4.4342-1.1537s3.0999.3913,4.4342,1.1537c1.3243.7725,2.3676,1.8259,3.1601,3.1802.7926,1.3343,1.1938,2.8792,1.1938,4.6349ZM930.5532,43.23c0-1.0835-.2207-2.0365-.6722-2.8391-.4314-.8026-1.0233-1.4346-1.7757-1.8861-.7424-.4615-1.565-.6922-2.4679-.6922-.9129,0-1.7255.2307-2.4679.6922-.7424.4514-1.3343,1.0735-1.7757,1.8861-.4514.8126-.6722,1.7556-.6722,2.8391s.2207,2.0365.6722,2.8391c.4414.8126,1.0333,1.4446,1.7757,1.9061.7323.4514,1.555.6722,2.4679.6722.9029,0,1.7255-.2207,2.4679-.6722.7524-.4615,1.3443-1.0935,1.7757-1.9061.4514-.8026.6722-1.7556.6722-2.8391Z"/>
  <path class="cls-1" d="M955.9313,34.2612c1.7155,0,2.9796.4214,3.8022,1.254.8226.8226,1.3544,1.8961,1.6052,3.2003l-.5417-.2909.2508-.5016c.2608-.5016.6621-1.0333,1.1938-1.6052.5417-.5718,1.1938-1.0534,1.9663-1.4446.7624-.4013,1.6152-.6019,2.5683-.6019,1.545,0,2.7187.3311,3.5313,1.0032.8026.6722,1.3544,1.565,1.6553,2.6786.301,1.1035.4615,2.3275.4615,3.6818v8.2766c0,.5618-.1806,1.0233-.5417,1.4045-.3611.3812-.8327.5618-1.4045.5618-.5618,0-1.0233-.1906-1.3844-.5618-.3611-.3812-.5417-.8427-.5417-1.4045v-8.2766c0-.7123-.0903-1.3443-.2709-1.9262-.1706-.5718-.4816-1.0233-.943-1.3544-.4515-.3411-1.0835-.5217-1.9262-.5217-.8226,0-1.5249.1806-2.1068.5217-.5718.3311-1.0032.7925-1.2941,1.3544-.2909.5718-.4414,1.2139-.4414,1.9262v8.2766c0,.5618-.1906,1.0233-.5618,1.4045-.3612.3812-.8226.5618-1.3844.5618s-1.0233-.1906-1.3844-.5618c-.3612-.3812-.5417-.8427-.5417-1.4045v-8.2766c0-.7123-.0903-1.3443-.2709-1.9262-.1705-.5718-.4815-1.0233-.943-1.3544-.4514-.3411-1.0835-.5217-1.9262-.5217-.8226,0-1.5249.1806-2.1068.5217-.5718.3311-1.0032.7925-1.2941,1.3544-.2909.5718-.4414,1.2139-.4414,1.9262v8.2766c0,.5618-.1906,1.0233-.5618,1.4045-.3612.3812-.8226.5618-1.3844.5618s-1.0233-.1906-1.4045-.5618c-.3612-.3812-.5417-.8427-.5417-1.4045v-13.3328c0-.5518.1806-1.0233.5417-1.4045.3812-.3913.8427-.5819,1.4045-.5819.5518,0,1.0132.2006,1.3844.5819.3812.3812.5618.8427.5618,1.4045v1.3844l-.4815-.1003c.1906-.3612.4615-.7524.7925-1.1738.3411-.4214.7624-.8026,1.254-1.1738.5016-.3812,1.0534-.6722,1.6553-.9029.622-.2308,1.2842-.3511,1.9964-.3511Z"/>
  <path class="cls-1" d="M989.2787,34.5822c.5518,0,1.0133.2006,1.3844.5819.3611.3812.5417.8427.5417,1.4045v13.714c0,1.9763-.3712,3.5514-1.1035,4.7252-.7424,1.1838-1.7356,2.0365-2.9896,2.5482-1.244.5116-2.6485.7725-4.2035.7725-.6822,0-1.4145-.0602-2.1971-.1705-.7725-.1003-1.4045-.2608-1.9061-.4815-.6421-.2809-1.0835-.622-1.3343-1.0433s-.301-.8628-.1505-1.3343c.1906-.622.5116-1.0534.943-1.2741.4314-.2207.8828-.2508,1.3544-.0803.3411.1104.8026.2809,1.3544.5016s1.1938.3311,1.9262.3311c.9832,0,1.8058-.1405,2.4679-.4214.6722-.2709,1.1738-.7223,1.5048-1.3544.3311-.622.5016-1.4848.5016-2.5883v-2.1569l.6722.7725c-.3611.7123-.8226,1.2941-1.3844,1.7556-.5417.4615-1.1938.8126-1.9462,1.0433s-1.6152.3511-2.5883.3511c-1.1437,0-2.1469-.2608-2.9896-.7725-.8527-.5317-1.5149-1.2641-1.9864-2.1971-.4715-.943-.7123-2.0165-.7123-3.2203v-9.4303c0-.5518.1806-1.0233.5417-1.4045.3812-.3913.8427-.5819,1.4045-.5819.5518,0,1.0132.2006,1.3844.5819.3812.3812.5618.8427.5618,1.4045v8.2565c0,1.4145.301,2.3977.923,2.9695.612.5718,1.4647.8527,2.5682.8527.7524,0,1.3844-.1505,1.9061-.4414.5116-.2909.9129-.7223,1.1938-1.2941.2809-.5718.4214-1.2641.4214-2.0867v-8.2565c0-.5518.1806-1.0233.5417-1.4045.3712-.3813.8327-.5719,1.3945-.5719Z"/>
  <path class="cls-1" d="M1021.1949,43.23c0,1.7757-.4013,3.3307-1.1938,4.685-.7825,1.3343-1.8359,2.3877-3.1601,3.13-1.3243.7524-2.799,1.1236-4.4342,1.1236s-3.11-.3812-4.4342-1.1236c-1.3243-.7524-2.3776-1.7958-3.1802-3.13-.7825-1.3443-1.1738-2.9093-1.1738-4.685,0-1.7556.3913-3.3006,1.1738-4.6349.7925-1.3443,1.8459-2.4077,3.1802-3.1802,1.3242-.7624,2.799-1.1537,4.4342-1.1537s3.0999.3913,4.4342,1.1537c1.3243.7725,2.3676,1.8259,3.1601,3.1802.7926,1.3343,1.1938,2.8792,1.1938,4.6349ZM1017.3225,43.23c0-1.0835-.2207-2.0365-.6722-2.8391-.4314-.8026-1.0233-1.4346-1.7757-1.8861-.7424-.4615-1.565-.6922-2.4679-.6922-.9129,0-1.7255.2307-2.4679.6922-.7424.4514-1.3343,1.0735-1.7757,1.8861-.4514.8126-.6722,1.7556-.6722,2.8391s.2207,2.0365.6722,2.8391c.4414.8126,1.0333,1.4446,1.7757,1.9061.7324.4514,1.555.6722,2.4679.6722.9029,0,1.7255-.2207,2.4679-.6722.7524-.4615,1.3443-1.0935,1.7757-1.9061.4515-.8026.6722-1.7556.6722-2.8391Z"/>
  <path class="cls-1" d="M1033.8147,34.2612c1.5951,0,2.809.3311,3.6316,1.0032.8327.6722,1.4045,1.565,1.7155,2.6786.301,1.1035.4615,2.3275.4615,3.6818v8.2766c0,.5618-.1806,1.0233-.5417,1.4045-.3611.3812-.8226.5618-1.3844.5618s-1.0233-.1906-1.4045-.5618c-.3611-.3812-.5417-.8427-.5417-1.4045v-8.2766c0-.7123-.0903-1.3443-.2709-1.9262-.1806-.5718-.5117-1.0233-.9832-1.3544-.4715-.3411-1.1637-.5217-2.0466-.5217-.8527,0-1.5751.1806-2.177.5217-.5819.3311-1.0434.7925-1.3544,1.3544-.311.5718-.4615,1.2139-.4615,1.9262v8.2766c0,.5618-.1906,1.0233-.5618,1.4045-.3611.3812-.8226.5618-1.3844.5618s-1.0233-.1906-1.4045-.5618c-.3611-.3812-.5417-.8427-.5417-1.4045v-13.3328c0-.5518.1806-1.0233.5417-1.4045.3812-.3913.8427-.5819,1.4045-.5819.5518,0,1.0133.2006,1.3844.5819.3812.3812.5618.8427.5618,1.4045v1.3844l-.4816-.1003c.1906-.3612.4715-.7524.8327-1.1738s.7825-.8026,1.2741-1.1738c.5016-.3812,1.0634-.6722,1.6954-.9029.6321-.2207,1.3043-.3411,2.0366-.3411Z"/>
  <path class="cls-1" d="M1048.0138,49.9014c0,.5618-.1906,1.0233-.5618,1.4045s-.8427.5618-1.4045.5618c-.5417,0-.9932-.1906-1.3544-.5618-.3611-.3812-.5417-.8427-.5417-1.4045v-19.9641c0-.5518.1906-1.0233.5618-1.4045s.8427-.5618,1.4045-.5618c.5518,0,1.0133.1906,1.3544.5618.3611.3812.5417.8427.5417,1.4045v19.9641Z"/>
  <path class="cls-1" d="M1056.1861,49.9014c0,.5618-.1906,1.0233-.5618,1.4045-.3611.3812-.8226.5618-1.3844.5618s-1.0233-.1906-1.3844-.5618c-.3611-.3812-.5417-.8427-.5417-1.4045v-13.3328c0-.5518.1806-1.0233.5417-1.4045.3611-.3913.8226-.5819,1.3844-.5819.5518,0,1.0133.2006,1.3844.5819.3812.3812.5618.8427.5618,1.4045v13.3328ZM1054.2198,32.4855c-.7223,0-1.244-.1104-1.545-.3511-.311-.2307-.4615-.6521-.4615-1.254v-.622c0-.612.1706-1.0333.5016-1.254.331-.2307.8427-.3511,1.545-.3511.7524,0,1.2741.1204,1.565.3511.301.2408.4615.6621.4615,1.254v.622c0,.622-.1605,1.0534-.4816,1.2741s-.8427.3311-1.5851.3311Z"/>
  <path class="cls-1" d="M1069.384,34.2612c1.5951,0,2.809.3311,3.6316,1.0032.8327.6722,1.4045,1.565,1.7155,2.6786.301,1.1035.4615,2.3275.4615,3.6818v8.2766c0,.5618-.1806,1.0233-.5417,1.4045-.3611.3812-.8226.5618-1.3844.5618s-1.0233-.1906-1.4045-.5618c-.3611-.3812-.5417-.8427-.5417-1.4045v-8.2766c0-.7123-.0903-1.3443-.2709-1.9262-.1806-.5718-.5117-1.0233-.9832-1.3544-.4715-.3411-1.1637-.5217-2.0466-.5217-.8527,0-1.5751.1806-2.177.5217-.5819.3311-1.0434.7925-1.3544,1.3544-.311.5718-.4615,1.2139-.4615,1.9262v8.2766c0,.5618-.1906,1.0233-.5618,1.4045-.3611.3812-.8226.5618-1.3844.5618s-1.0233-.1906-1.4045-.5618c-.3611-.3812-.5417-.8427-.5417-1.4045v-13.3328c0-.5518.1806-1.0233.5417-1.4045.3812-.3913.8427-.5819,1.4045-.5819.5518,0,1.0133.2006,1.3844.5819.3812.3812.5618.8427.5618,1.4045v1.3844l-.4816-.1003c.1906-.3612.4715-.7524.8327-1.1738s.7825-.8026,1.2741-1.1738c.5016-.3812,1.0634-.6722,1.6954-.9029.6422-.2207,1.3143-.3411,2.0366-.3411Z"/>
  <path class="cls-1" d="M1087.5358,52.1787c-1.8359,0-3.441-.3812-4.7853-1.1236-1.3343-.7624-2.3676-1.8058-3.0899-3.11-.7123-1.3243-1.0634-2.809-1.0634-4.4744,0-1.9362.3913-3.5815,1.1738-4.9559.7926-1.3644,1.8259-2.4077,3.0899-3.13,1.2641-.7323,2.6084-1.1035,4.0329-1.1035,1.0935,0,2.1369.2307,3.11.6922.9731.4514,1.8359,1.0634,2.5883,1.856.7524.7825,1.3443,1.6854,1.7958,2.7187.4414,1.0333.6722,2.1268.6722,3.2805-.0301.5217-.2408.943-.622,1.2741-.3812.321-.8226.4815-1.3343.4815h-12.3597l-.9631-3.2404h11.848l-.7123.6521v-.8527c-.0401-.622-.2709-1.1838-.6722-1.6754-.3913-.5016-.8929-.9029-1.4848-1.1938-.5819-.2909-1.2139-.4414-1.8861-.4414-.6421,0-1.244.0903-1.8158.2709-.5618.1705-1.0434.4514-1.4647.8527-.4113.4113-.7223.9531-.9631,1.6553-.2408.6822-.3511,1.555-.3511,2.6084,0,1.1637.2408,2.1469.7324,2.9495.4816.8126,1.1136,1.4346,1.8861,1.856.7625.4214,1.5751.622,2.4278.622.8026,0,1.4446-.0602,1.9262-.1906.4715-.1405.8427-.301,1.1236-.4815.2909-.1806.5518-.3411.7926-.4815.3913-.1806.7625-.2709,1.1035-.2709.4715,0,.8628.1605,1.1738.4815.321.321.4816.7023.4816,1.1236,0,.5718-.311,1.0935-.923,1.565-.5618.4715-1.3443.8929-2.3576,1.254-.9932.3511-2.0366.5317-3.11.5317Z"/>
  <path class="cls-1" d="M1116.4247,34.2612c1.5149,0,2.8692.3913,4.053,1.1537,1.1938.7725,2.1469,1.8158,2.8391,3.1601.6922,1.3243,1.0434,2.8692,1.0434,4.6349,0,1.7757-.3511,3.3307-1.0434,4.685-.7023,1.3343-1.6252,2.3977-2.799,3.1601-1.1738.7524-2.488,1.1236-3.9527,1.1236-.8628,0-1.6754-.1405-2.4278-.4214s-1.4145-.632-1.9864-1.0634-1.0233-.8628-1.3343-1.2941c-.311-.4414-.4615-.8126-.4615-1.1035l1.0032-.4414v8.5073c0,.5518-.1906,1.0233-.5618,1.4045-.3611.3812-.8226.5618-1.3844.5618s-1.0233-.1906-1.4045-.5618c-.3611-.3612-.5417-.8327-.5417-1.4045v-19.7935c0-.5518.1806-1.0233.5417-1.4045.3812-.3913.8427-.5819,1.4045-.5819.5518,0,1.0133.2006,1.3844.5819.3812.3812.5618.8427.5618,1.4045v1.5651l-.5417-.2909c0-.2809.1505-.612.4414-1.0032.301-.4013.7123-.8026,1.234-1.1938.5117-.4013,1.1035-.7323,1.7757-.9832.6822-.2608,1.4045-.4013,2.1569-.4013ZM1115.9431,37.8226c-.9531,0-1.7757.2408-2.488.7123-.7123.4715-1.2741,1.1136-1.6754,1.9262-.3913.8126-.5819,1.7255-.5819,2.7589,0,1.0233.1906,1.9462.5819,2.7789.4013.8226.9631,1.4747,1.6754,1.9462.7123.4715,1.5349.7123,2.488.7123.943,0,1.7657-.2307,2.4679-.7123.7123-.4715,1.2641-1.1136,1.6553-1.9462.4013-.8327.6019-1.7657.6019-2.7789,0-1.0333-.2007-1.9462-.6019-2.7589-.3913-.8026-.943-1.4446-1.6553-1.9262-.7022-.4715-1.5249-.7123-2.4679-.7123Z"/>
  <path class="cls-1" d="M1144.5106,43.23c0,1.7757-.4013,3.3307-1.1938,4.685-.7825,1.3343-1.8359,2.3877-3.1601,3.13-1.3243.7524-2.799,1.1236-4.4342,1.1236s-3.11-.3812-4.4342-1.1236c-1.3243-.7524-2.3877-1.7958-3.1802-3.13-.7825-1.3443-1.1738-2.9093-1.1738-4.685,0-1.7556.3913-3.3006,1.1738-4.6349.7926-1.3443,1.8459-2.4077,3.1802-3.1802,1.3243-.7624,2.799-1.1537,4.4342-1.1537s3.0999.3913,4.4342,1.1537c1.3243.7725,2.3676,1.8259,3.1601,3.1802.7926,1.3343,1.1938,2.8792,1.1938,4.6349ZM1140.6382,43.23c0-1.0835-.2207-2.0365-.6722-2.8391-.4314-.8026-1.0233-1.4346-1.7757-1.8861-.7424-.4615-1.565-.6922-2.4679-.6922-.9129,0-1.7255.2307-2.4679.6922-.7424.4514-1.3343,1.0735-1.7757,1.8861-.4515.8126-.6722,1.7556-.6722,2.8391s.2207,2.0365.6722,2.8391c.4414.8126,1.0333,1.4446,1.7757,1.9061.7324.4514,1.555.6722,2.4679.6722.9029,0,1.7255-.2207,2.4679-.6722.7524-.4615,1.3443-1.0935,1.7757-1.9061.4515-.8026.6722-1.7556.6722-2.8391Z"/>
  <path class="cls-1" d="M1149.837,51.8677c-.5618,0-1.0233-.1906-1.4045-.5618-.3611-.3812-.5417-.8427-.5417-1.4045v-13.3328c0-.5518.1806-1.0233.5417-1.4045.3812-.3913.8427-.5819,1.4045-.5819.5518,0,1.0133.2006,1.3844.5819.3812.3812.5618.8427.5618,1.4045v3.0297l-.2308-2.177c.2308-.5116.5417-.9631.923-1.3544.3812-.4013.8026-.7323,1.2741-1.0032.4715-.2608.9731-.4615,1.5048-.5819.5417-.1405,1.0835-.2107,1.6252-.2107.6421,0,1.1838.1906,1.6252.5618.4414.3612.6722.7925.6722,1.2741,0,.7123-.1906,1.2239-.5618,1.545-.3611.311-.7625.4615-1.1938.4615-.4113,0-.7725-.0702-1.1035-.2307-.331-.1505-.7223-.2307-1.1537-.2307-.3913,0-.7926.0903-1.1938.2709-.3913.1806-.7524.4715-1.0835.8527-.331.3913-.6019.8728-.8126,1.4446-.2007.5718-.2909,1.244-.2909,2.0265v7.6445c0,.5618-.1906,1.0233-.5618,1.4045-.3712.3812-.8327.5718-1.3844.5718Z"/>
  <path class="cls-1" d="M1162.1103,34.9133h7.6445c.5117,0,.943.1806,1.2741.5217.3411.3311.5217.7624.5217,1.2741,0,.5016-.1806.923-.5217,1.254-.331.3311-.7625.5016-1.2741.5016h-7.6445c-.5217,0-.9531-.1705-1.2942-.5217-.3511-.3411-.5217-.7825-.5217-1.2941,0-.4815.1706-.9029.5217-1.234.3411-.3311.7725-.5016,1.2942-.5016ZM1165.5614,30.8803c.5518,0,1.0133.1906,1.3544.5618.3611.3812.5417.8427.5417,1.4045v14.3761c0,.2909.0501.5417.1706.7323.1204.2006.2909.3311.5016.4214.2107.0803.4314.1204.6722.1204.2508,0,.4816-.0502.6922-.1505.2207-.0903.4715-.1505.7524-.1505.301,0,.5718.1505.8126.4414.2508.2809.3812.6621.3812,1.1537,0,.6019-.331,1.0935-.9832,1.4848-.6621.3913-1.3544.5819-2.1068.5819-.4615,0-.9631-.0301-1.5048-.1003-.5417-.0803-1.0634-.2709-1.545-.5618-.4916-.2909-.8929-.7323-1.2139-1.3343-.321-.5919-.4816-1.4246-.4816-2.488v-14.5266c0-.5518.1906-1.0233.5618-1.4045s.8327-.5618,1.3945-.5618Z"/>
  <path class="cls-1" d="M1183.1752,27.971c.4715,0,.933.0602,1.3844.1906.4615.1204.8327.3311,1.1236.622.301.2909.4615.6822.4615,1.1537,0,.5417-.1605.9731-.4615,1.2741-.311.311-.6722.4615-1.0835.4615-.2007,0-.4916-.0502-.8828-.1505-.3812-.0903-.7524-.1505-1.1236-.1505-.5317,0-.943.1204-1.234.3511-.2909.2408-.4916.5217-.6019.8327-.1003.311-.1505.5819-.1505.8126v16.513c0,.5618-.1906,1.0233-.5618,1.4045-.3611.3812-.8226.5618-1.3844.5618s-1.0233-.1906-1.4045-.5618c-.3611-.3812-.5417-.8427-.5417-1.4045v-16.4729c0-1.5349.5317-2.819,1.6052-3.8624,1.0935-1.0434,2.7087-1.5751,4.8556-1.5751ZM1183.5363,34.9133c.5117,0,.943.1705,1.2942.5016.3411.3311.5217.7624.5217,1.2741,0,.5217-.1806.943-.5217,1.2741-.3511.3311-.7825.5016-1.2942.5016h-8.5474c-.5217,0-.9531-.1705-1.2942-.5016-.3511-.3311-.5217-.7624-.5217-1.2741s.1706-.943.5217-1.2741c.3411-.3311.7825-.5016,1.2942-.5016h8.5474Z"/>
  <path class="cls-1" d="M1204.1949,43.23c0,1.7757-.4013,3.3307-1.1938,4.685-.7825,1.3343-1.8359,2.3877-3.1601,3.13-1.3243.7524-2.799,1.1236-4.4342,1.1236s-3.11-.3812-4.4342-1.1236c-1.3243-.7524-2.3877-1.7958-3.1802-3.13-.7825-1.3443-1.1738-2.9093-1.1738-4.685,0-1.7556.3913-3.3006,1.1738-4.6349.7926-1.3443,1.8459-2.4077,3.1802-3.1802,1.3243-.7624,2.799-1.1537,4.4342-1.1537s3.0999.3913,4.4342,1.1537c1.3243.7725,2.3676,1.8259,3.1601,3.1802.8026,1.3343,1.1938,2.8792,1.1938,4.6349ZM1200.3325,43.23c0-1.0835-.2207-2.0365-.6722-2.8391-.4314-.8026-1.0233-1.4346-1.7757-1.8861-.7424-.4615-1.565-.6922-2.4679-.6922-.9129,0-1.7255.2307-2.4679.6922-.7424.4514-1.3343,1.0735-1.7757,1.8861-.4515.8126-.6722,1.7556-.6722,2.8391s.2207,2.0365.6722,2.8391c.4414.8126,1.0333,1.4446,1.7757,1.9061.7324.4514,1.555.6722,2.4679.6722.9029,0,1.7255-.2207,2.4679-.6722.7524-.4615,1.3443-1.0935,1.7757-1.9061.4414-.8026.6722-1.7556.6722-2.8391Z"/>
  <path class="cls-1" d="M1211.7785,49.9014c0,.5618-.1906,1.0233-.5618,1.4045s-.8427.5618-1.4045.5618c-.5417,0-.9932-.1906-1.3544-.5618-.3611-.3812-.5417-.8427-.5417-1.4045v-19.9641c0-.5518.1906-1.0233.5618-1.4045s.8427-.5618,1.4045-.5618c.5518,0,1.0133.1906,1.3544.5618.3611.3812.5417.8427.5417,1.4045v19.9641Z"/>
  <path class="cls-1" d="M1219.9508,49.9014c0,.5618-.1906,1.0233-.5618,1.4045-.3611.3812-.8226.5618-1.3844.5618s-1.0233-.1906-1.3844-.5618c-.3611-.3812-.5417-.8427-.5417-1.4045v-13.3328c0-.5518.1806-1.0233.5417-1.4045.3611-.3913.8226-.5819,1.3844-.5819.5518,0,1.0133.2006,1.3844.5819.3812.3812.5618.8427.5618,1.4045v13.3328ZM1217.9845,32.4855c-.7223,0-1.244-.1104-1.545-.3511-.311-.2307-.4615-.6521-.4615-1.254v-.622c0-.612.1706-1.0333.5016-1.254.331-.2307.8427-.3511,1.545-.3511.7524,0,1.2741.1204,1.565.3511.301.2408.4615.6621.4615,1.254v.622c0,.622-.1605,1.0534-.4816,1.2741s-.8427.3311-1.5851.3311Z"/>
  <path class="cls-1" d="M1240.6728,43.23c0,1.7757-.4013,3.3307-1.1938,4.685-.7825,1.3343-1.8359,2.3877-3.1601,3.13-1.3243.7524-2.799,1.1236-4.4342,1.1236s-3.11-.3812-4.4342-1.1236c-1.3243-.7524-2.3877-1.7958-3.1802-3.13-.7825-1.3443-1.1738-2.9093-1.1738-4.685,0-1.7556.3913-3.3006,1.1738-4.6349.7926-1.3443,1.8459-2.4077,3.1802-3.1802,1.3243-.7624,2.799-1.1537,4.4342-1.1537s3.0999.3913,4.4342,1.1537c1.3243.7725,2.3676,1.8259,3.1601,3.1802.8026,1.3343,1.1938,2.8792,1.1938,4.6349ZM1236.8104,43.23c0-1.0835-.2207-2.0365-.6722-2.8391-.4314-.8026-1.0233-1.4346-1.7757-1.8861-.7424-.4615-1.565-.6922-2.4679-.6922-.9129,0-1.7255.2307-2.4679.6922-.7424.4514-1.3343,1.0735-1.7757,1.8861-.4515.8126-.6722,1.7556-.6722,2.8391s.2207,2.0365.6722,2.8391c.4414.8126,1.0333,1.4446,1.7757,1.9061.7324.4514,1.555.6722,2.4679.6722.9029,0,1.7255-.2207,2.4679-.6722.7524-.4615,1.3443-1.0935,1.7757-1.9061.4515-.8026.6722-1.7556.6722-2.8391Z"/>
  <path class="cls-1" d="M1254.5842,43.8118c-.5618,0-1.0233-.1705-1.4045-.5217-.3812-.3612-.5618-.8026-.5618-1.3343,0-.5417.1906-.9832.5618-1.3142.3812-.3411.8427-.5217,1.4045-.5217h21.4488c.5718,0,1.0434.1806,1.4246.5217.3812.3311.5618.7725.5618,1.3142,0,.5317-.1906.9731-.5618,1.3343-.3812.3511-.8527.5217-1.4246.5217h-21.4488Z"/>
  <path class="cls-2" d="M792.3426,93.4116c-.5016,0-.9029-.1705-1.1938-.5217-.2909-.3612-.4013-.7825-.311-1.2741l1.4246-7.464c.1705-.9631-.0401-1.7857-.6019-2.4679-.5718-.6922-1.3343-1.0433-2.2974-1.0433-.622,0-1.244.1605-1.8359.4815-.5819.321-1.0835.7424-1.4848,1.2741-.4113.5217-.6822,1.1035-.8126,1.7556l-1.4045,7.464c-.1003.4916-.3511.9129-.7725,1.2741-.4113.3511-.8628.5217-1.3844.5217-.5016,0-.9029-.1705-1.1938-.5217-.2909-.3612-.4013-.7825-.311-1.2741l1.4446-7.464,1.9864-11.9383c.0803-.5016.3311-.923.7524-1.2741.4214-.3411.8828-.5217,1.3844-.5217s.9029.1806,1.1938.5217c.2909.3511.4013.7725.311,1.2741l-.8828,5.6883c1.1537-.612,2.3877-.923,3.6818-.923,1.3042,0,2.4479.3311,3.4109.9832.9631.6421,1.6754,1.4948,2.1268,2.5682.4615,1.0735.5718,2.2773.3311,3.6116l-1.4246,7.464c-.0803.4916-.3311.9129-.7524,1.2741s-.8828.5317-1.3844.5317Z"/>
  <path class="cls-2" d="M805.6512,93.4518c-1.4948-.0301-2.7789-.4113-3.8423-1.1537-1.0735-.7323-1.8459-1.7255-2.3174-2.9695-.4615-1.234-.5618-2.5983-.311-4.0931.2107-1.1136.6019-2.167,1.1938-3.1601.5919-.9832,1.3243-1.866,2.177-2.6284.8427-.7624,1.7958-1.3544,2.8391-1.7757,1.0534-.4314,2.1469-.6521,3.2605-.6521,1.4446,0,2.6886.3311,3.722.9832,1.0433.6621,1.8259,1.555,2.3375,2.6987s.6722,2.4579.4815,3.9527c0,.0803-.0201.1405-.0401.1705,0,.1003-.0201.2006-.0602.2909-.1104.3913-.3511.7123-.7323.9631-.3612.2408-.7624.3511-1.1938.3511h-10.4937c0,.3612.0602.7424.1906,1.1537.1405.3913.321.7223.5417,1.0032.2608.4113.6722.7424,1.234,1.0233.5518.2709,1.1035.4214,1.6553.4615.6421.0401,1.3142-.0301,2.0265-.2307.7123-.1906,1.3343-.5317,1.8861-1.0233.4214-.3913.8026-.5718,1.1537-.5618.3411.0201.632.1003.8527.2508.2207.1605.3411.2408.3511.2508.2909.311.4214.6722.3812,1.0835-.0301.4214-.2006.7825-.5016,1.0835-.9932.923-1.9964,1.5751-3.0097,1.9663-1.0434.3712-2.2974.5618-3.7822.5618ZM808.069,80.1391c-.933.0401-1.7556.2709-2.4679.6722-.7023.3913-1.2741.8427-1.7155,1.3544-.4314.5217-.7323,1.0032-.9029,1.4647h9.2998c-.0301-.4314-.2006-.9029-.5016-1.4246-.311-.5116-.7725-.9631-1.3844-1.3544-.6019-.4013-1.3744-.6421-2.3275-.7123Z"/>
  <path class="cls-2" d="M820.6344,77.019c.5016,0,.8828.1806,1.1537.5217.2809.3311.3812.7424.2909,1.2139l-.0602.2307c.2508-.2107.5518-.4214.923-.622.612-.3913,1.2841-.7123,2.0064-.9631.7323-.2508,1.5149-.3812,2.3174-.3812.5016,0,.8929.1806,1.1738.5217.2809.3311.3612.7424.2709,1.2139-.0803.4916-.3311.9129-.7323,1.254-.3913.3511-.8226.5217-1.2941.5217-.3913,0-.7624.0602-1.1035.1705-.3311.1104-.6722.2508-1.0032.4214-.321.1806-.6421.4214-.943.7123-.2909.2809-.5819.5718-.8527.8828-.4916.5417-.9029,1.0835-1.234,1.6252-.321.5317-.5417.923-.6521,1.1738l-1.0835,6.2099c-.0803.4715-.3311.8929-.7323,1.234-.4113.3311-.8527.5016-1.3343.5016-.4715,0-.8527-.1705-1.1537-.5016-.2809-.3411-.3812-.7624-.2909-1.234l2.2974-12.9616c.0702-.4715.301-.8828.7123-1.2139.3913-.3511.8327-.5317,1.3242-.5317Z"/>
  <path class="cls-2" d="M836.6858,93.4518c-1.4948-.0301-2.7789-.4113-3.8423-1.1537-1.0735-.7323-1.8459-1.7255-2.3174-2.9695-.4615-1.234-.5618-2.5983-.311-4.0931.2107-1.1136.6019-2.167,1.1938-3.1601.5919-.9832,1.3243-1.866,2.177-2.6284.8427-.7624,1.7958-1.3544,2.8391-1.7757,1.0534-.4314,2.1469-.6521,3.2605-.6521,1.4446,0,2.6886.3311,3.722.9832,1.0433.6621,1.8259,1.555,2.3375,2.6987s.6722,2.4579.4815,3.9527c0,.0803-.0201.1405-.0401.1705,0,.1003-.0201.2006-.0602.2909-.1104.3913-.3511.7123-.7323.9631-.3612.2408-.7624.3511-1.1938.3511h-10.5037c0,.3612.0602.7424.1906,1.1537.1405.3913.321.7223.5417,1.0032.2608.4113.6722.7424,1.234,1.0233.5518.2709,1.1035.4214,1.6553.4615.6421.0401,1.3142-.0301,2.0265-.2307.7123-.1906,1.3343-.5317,1.8861-1.0233.4214-.3913.8026-.5718,1.1537-.5618.3411.0201.632.1003.8527.2508.2207.1605.3411.2408.3511.2508.2909.311.4214.6722.3812,1.0835-.0301.4214-.2006.7825-.5016,1.0835-.9932.923-1.9964,1.5751-3.0097,1.9663-1.0233.3712-2.2773.5618-3.7721.5618ZM839.1136,80.1391c-.933.0401-1.7556.2709-2.4679.6722-.7023.3913-1.2741.8427-1.7155,1.3544-.4314.5217-.7323,1.0032-.9029,1.4647h9.2998c-.0301-.4314-.2006-.9029-.5016-1.4246-.311-.5116-.7725-.9631-1.3844-1.3544-.6019-.4013-1.3844-.6421-2.3275-.7123Z"/>
  <path class="cls-2" d="M860.6035,91.6761l2.3877-12.8512c.0903-.5016.3411-.923.7524-1.2741.4214-.3411.8828-.5217,1.4045-.5217.5016,0,.9029.1806,1.1938.5217.2909.3511.3812.7725.2709,1.2741l-2.3576,12.8512c-.0803.4916-.3311.9129-.7524,1.2741s-.8828.5417-1.3844.5417-.9129-.1806-1.2139-.5417c-.301-.3612-.3912-.7825-.301-1.2741ZM867.5257,72.9861c-.0803.5016-.3311.933-.7524,1.2941s-.8828.5417-1.3844.5417c-.4715,0-.8628-.1806-1.1738-.5417-.2909-.3612-.4013-.7925-.311-1.2941l.1003-.6922c.1104-.5116.3812-.943.7925-1.2941.4214-.3411.8628-.5217,1.3343-.5217.5016,0,.9029.1806,1.1938.5217.301.3511.4214.7825.3311,1.2941l-.1304.6922Z"/>
  <path class="cls-2" d="M880.056,91.656l1.3844-7.7549c.1705-.943-.0201-1.7456-.5618-2.4077-.5417-.6521-1.2941-.9832-2.2372-.9832-.612,0-1.2039.1605-1.7757.4615-.5718.311-1.0534.7123-1.4446,1.2139-.3812.5016-.622,1.0735-.7323,1.7155l-1.4045,7.7549c-.0702.4715-.311.8929-.7123,1.234-.4113.3511-.8527.5217-1.3343.5217-.4715,0-.8527-.1705-1.1537-.5217-.2809-.3411-.3812-.7624-.2909-1.234l1.3844-7.7549.9029-5.1365c.0903-.4715.3411-.8828.7323-1.2139.4013-.3411.8427-.5217,1.3343-.5217.7323,0,1.1938.3411,1.3844,1.0233,1.1738-.6822,2.4077-1.0233,3.7019-1.0233,1.2641,0,2.3676.311,3.3006.923s1.6152,1.4446,2.0466,2.488c.4414,1.0333.5518,2.187.311,3.4711l-1.3844,7.7549c-.0702.4715-.311.8929-.7123,1.234-.3913.3511-.8226.5217-1.2941.5217-.4916,0-.8828-.1705-1.1738-.5217-.2809-.3612-.3712-.7725-.2709-1.244Z"/>
  <path class="cls-2" d="M900.1931,91.656l1.3844-7.7549c.1705-.943-.0201-1.7456-.5618-2.4077-.5417-.6521-1.2941-.9832-2.2372-.9832-.612,0-1.2039.1605-1.7757.4615-.5718.311-1.0534.7123-1.4446,1.2139-.3812.5016-.622,1.0735-.7323,1.7155l-1.4045,7.7549c-.0702.4715-.311.8929-.7123,1.234-.4113.3511-.8527.5217-1.3343.5217-.4715,0-.8527-.1705-1.1537-.5217-.2809-.3411-.3812-.7624-.2909-1.234l1.3844-7.7549.9029-5.1365c.0903-.4715.3411-.8828.7323-1.2139.4013-.3411.8427-.5217,1.3343-.5217.7323,0,1.1938.3411,1.3844,1.0233,1.1738-.6822,2.4077-1.0233,3.7019-1.0233,1.2641,0,2.3676.311,3.3006.923s1.6152,1.4446,2.0466,2.488c.4414,1.0333.5518,2.187.311,3.4711l-1.3844,7.7549c-.0702.4715-.311.8929-.7123,1.234-.3913.3511-.8226.5217-1.2941.5217-.4916,0-.8828-.1705-1.1738-.5217-.2809-.3612-.3712-.7725-.2709-1.244Z"/>
  <path class="cls-2" d="M918.8455,77.019c1.0835,0,2.0767.2207,2.9695.6722s1.6252,1.0433,2.2171,1.7958c.5718.7424.9631,1.6052,1.1738,2.6084.2207.9932.2307,2.0466.0401,3.1802-.2006,1.1236-.5819,2.187-1.1738,3.1802-.5718.9932-1.2741,1.856-2.1068,2.5883-.8126.7524-1.7456,1.3544-2.799,1.7958-1.0433.4514-2.1168.6722-3.2203.6722-1.0835,0-2.0767-.2207-2.9695-.6722-.8828-.4414-1.6152-1.0433-2.2171-1.7958-.5417-.7323-.933-1.5951-1.1738-2.5883-.2207-.9832-.2408-2.0466-.0401-3.1802.1906-1.1236.5718-2.187,1.1537-3.1802.5819-1.0032,1.2841-1.866,2.1068-2.6084.8226-.7524,1.7556-1.3443,2.799-1.7958,1.0534-.4414,2.1369-.6722,3.2404-.6722ZM921.7649,85.2755c.2307-1.3644-.0201-2.488-.7524-3.3608-.6722-.923-1.5951-1.3844-2.7789-1.3844-1.1738,0-2.2773.4615-3.3006,1.3844-.4615.4214-.8628.923-1.2139,1.5048-.3311.5718-.5618,1.1938-.6922,1.856-.1104.6722-.1003,1.2941.0201,1.8861.1405.5819.3612,1.0835.6922,1.4848.3311.4214.7323.7624,1.2139,1.0233.4815.2508,1.0132.3812,1.5851.3812.5819,0,1.1637-.1204,1.7356-.3812.5718-.2608,1.0935-.6019,1.5851-1.0233.4615-.4013.8527-.9029,1.1938-1.4848.3411-.5819.5718-1.2139.7123-1.8861Z"/>
  <path class="cls-2" d="M941.7896,77.3601c.4013.2006.6521.5217.7524.9631.1104.4314.0301.8628-.2508,1.2941l-7.6245,12.8111c-.0201.0401-.0702.1405-.1705.2709-.0201,0-.0201.01-.0201.0201h-.0401c-.0201.0301-.0401.0602-.0602.1003l-.1003.1003c-.0201,0-.0201.01-.0201.0201h-.0401c-.0702.0702-.1505.1204-.2307.1705-.0201.0301-.0401.0401-.0602.0401-.1204.0803-.2207.1405-.2909.1705h-.0401c0,.0201-.01.0201-.0201.0201-.0401.0301-.0903.0502-.1505.0602h-.1204c-.0201,0-.0301.01-.0401.0201l-.0201.0201c-.0401,0-.0903.01-.1505.0201-.0602.01-.1003.0201-.1505.0201h-.0401c-.0401,0-.0903-.01-.1505-.0201-.0602-.0201-.1003-.0201-.1505-.0201-.0201,0-.0301-.01-.0401-.0201-.0201-.01-.0201-.0201-.0201-.0201h-.1204c-.0401-.01-.0903-.0301-.1505-.0602l-.0201-.0201c-.0702-.0301-.1505-.0803-.2307-.1705-.0301,0-.0401-.01-.0401-.0401-.0401-.01-.1003-.0702-.1906-.1705h-.0201c-.0201-.01-.0201-.0201-.0201-.0201-.0401-.0401-.0803-.1104-.1204-.2107h-.0201c-.0201-.01-.0201-.0201-.0201-.0201-.0401-.1405-.0702-.2307-.0803-.2709l-3.13-12.8111c-.1104-.4314-.0401-.8628.2107-1.2941.2608-.4414.632-.7624,1.1035-.9631.4815-.1806.943-.1806,1.3544,0,.4214.1705.6722.4715.7524.923l2.2372,8.9889,5.3472-8.9889c.2608-.4414.622-.7524,1.0835-.923.4614-.1705.9129-.1705,1.3242.01Z"/>
  <path class="cls-2" d="M951.6538,93.4116c-1.0735,0-2.0566-.2107-2.9495-.6521-.8929-.4314-1.6252-1.0233-2.1971-1.7757-.5417-.7624-.933-1.6353-1.1738-2.6084-.2408-.9832-.2508-2.0365-.0401-3.13.1806-1.1136.5518-2.167,1.1236-3.1601.5819-1.0032,1.2841-1.8861,2.0867-2.6284.8327-.7323,1.7757-1.3142,2.819-1.7356,1.0534-.4314,2.1168-.6521,3.2003-.6521.8026,0,1.555.1204,2.2372.3511.6922.2408,1.3243.5819,1.8861,1.0233.1505-.4013.4013-.7323.7524-.9832.3612-.2608.7524-.4013,1.1738-.4013.5016,0,.8929.1705,1.1738.5016.2809.321.3612.7323.2508,1.234l-2.2372,12.8512c-.0803.4715-.3311.8929-.7323,1.234-.3913.3511-.8226.5217-1.2941.5217-.4514,0-.8026-.1304-1.0634-.4013-.2709-.2809-.4113-.612-.4214-1.0032-.6822.4214-1.4246.7624-2.2171,1.0233-.7725.2608-1.565.3912-2.3776.3912ZM950.6707,81.8546c-.4916.4214-.9129.923-1.254,1.5048-.3311.5718-.5618,1.2039-.6722,1.8861-.1003.6621-.0803,1.2741.0401,1.8359.1204.5718.3511,1.0735.6922,1.5048.6521.9129,1.5851,1.3544,2.799,1.3544,1.1738,0,2.2372-.4514,3.2203-1.3544,1.0333-.8929,1.6653-2.0064,1.9061-3.3407.1204-.6822.1104-1.3042-.0201-1.8861-.1405-.5819-.3812-1.0835-.7123-1.5048-.311-.4214-.7023-.7424-1.1738-.9832-.4615-.2307-.9932-.3511-1.5851-.3511-.5819,0-1.1637.1204-1.7155.3511-.5417.2408-1.0534.5618-1.5249.9832Z"/>
  <path class="cls-2" d="M971.4271,70.4179c.5016,0,.9029.1806,1.1938.5217.301.3511.4113.7725.311,1.2741l-.7123,4.8054h.8527c.5016,0,.9029.1806,1.1938.5417.2909.3612.3812.7925.2709,1.2941-.0803.4916-.3311.9129-.7524,1.2741-.4214.3511-.8828.5217-1.3844.5217h-.8527l-1.6954,9.1092c.5016,0,.9029.1806,1.1938.5417.2909.3612.4013.7925.311,1.2941-.0803.4916-.3311.9129-.7524,1.2741-.4214.3511-.8828.5217-1.3844.5217-1.0233,0-1.8259-.3511-2.4278-1.0634-.5819-.7123-.7925-1.565-.6019-2.5682l1.7356-9.1092h-.9832c-.4715,0-.8628-.1705-1.1738-.5217-.2909-.3612-.4013-.7825-.311-1.2741.0903-.5016.3411-.933.7524-1.2941.4214-.3612.8828-.5417,1.4045-.5417h.943l.7323-4.8054c.1104-.5016.3612-.923.7725-1.2741.4214-.3411.8728-.5217,1.3644-.5217Z"/>
  <path class="cls-2" d="M976.1258,91.6761l2.3877-12.8512c.0903-.5016.3411-.923.7524-1.2741.4214-.3411.8828-.5217,1.4045-.5217.5016,0,.9029.1806,1.1938.5217.2909.3511.3812.7725.2709,1.2741l-2.3576,12.8512c-.0803.4916-.3311.9129-.7524,1.2741s-.8828.5417-1.3844.5417-.9129-.1806-1.2139-.5417c-.301-.3612-.4013-.7825-.301-1.2741ZM983.0481,72.9861c-.0803.5016-.3311.933-.7524,1.2941s-.8828.5417-1.3844.5417c-.4715,0-.8628-.1806-1.1738-.5417-.2909-.3612-.4013-.7925-.311-1.2941l.1003-.6922c.1104-.5116.3812-.943.7925-1.2941.4214-.3411.8628-.5217,1.3343-.5217.5016,0,.9029.1806,1.1938.5217.301.3511.4214.7825.3311,1.2941l-.1304.6922Z"/>
  <path class="cls-2" d="M994.0936,77.019c1.0835,0,2.0767.2207,2.9695.6722.8929.4514,1.6252,1.0433,2.2171,1.7958.5718.7424.9631,1.6052,1.1738,2.6084.2207.9932.2308,2.0466.0401,3.1802-.2007,1.1236-.5819,2.187-1.1738,3.1802-.5718.9932-1.2741,1.856-2.1068,2.5883-.8126.7524-1.7456,1.3544-2.799,1.7958-1.0434.4514-2.1168.6722-3.2203.6722-1.0835,0-2.0767-.2207-2.9695-.6722-.8828-.4414-1.6152-1.0433-2.2171-1.7958-.5417-.7323-.933-1.5951-1.1738-2.5883-.2207-.9832-.2408-2.0466-.0401-3.1802.1906-1.1236.5718-2.187,1.1537-3.1802.5819-1.0032,1.2841-1.866,2.1068-2.6084.8226-.7524,1.7556-1.3443,2.799-1.7958,1.0534-.4414,2.1369-.6722,3.2404-.6722ZM997.023,85.2755c.2308-1.3644-.0201-2.488-.7524-3.3608-.6722-.923-1.5951-1.3844-2.7789-1.3844-1.1738,0-2.2773.4615-3.3006,1.3844-.4615.4214-.8628.923-1.2139,1.5048-.3311.5718-.5618,1.1938-.6922,1.856-.1104.6722-.1003,1.2941.0201,1.8861.1405.5819.3612,1.0835.6922,1.4848.3311.4214.7323.7624,1.2139,1.0233.4815.2508,1.0132.3812,1.5851.3812.5819,0,1.1637-.1204,1.7356-.3812.5718-.2608,1.0935-.6019,1.5851-1.0233.4615-.4013.8527-.9029,1.1938-1.4848.331-.5819.5718-1.2139.7123-1.8861Z"/>
  <path class="cls-2" d="M1014.4684,91.656l1.3844-7.7549c.1706-.943-.0201-1.7456-.5618-2.4077-.5417-.6521-1.2942-.9832-2.2372-.9832-.6119,0-1.2039.1605-1.7757.4615-.5718.311-1.0534.7123-1.4446,1.2139-.3812.5016-.622,1.0735-.7324,1.7155l-1.4045,7.7549c-.0702.4715-.311.8929-.7123,1.234-.4113.3511-.8527.5217-1.3343.5217-.4715,0-.8527-.1705-1.1537-.5217-.2809-.3411-.3812-.7624-.2909-1.234l1.3844-7.7549.9029-5.1365c.0903-.4715.3411-.8828.7324-1.2139.4013-.3411.8427-.5217,1.3343-.5217.7324,0,1.1938.3411,1.3844,1.0233,1.1738-.6822,2.4077-1.0233,3.7019-1.0233,1.2641,0,2.3676.311,3.3006.923.933.612,1.6152,1.4446,2.0466,2.488.4414,1.0333.5518,2.187.311,3.4711l-1.3844,7.7549c-.0702.4715-.311.8929-.7123,1.234-.3913.3511-.8226.5217-1.2942.5217-.4916,0-.8828-.1705-1.1738-.5217-.2809-.3612-.3712-.7725-.2709-1.244Z"/>
  <path class="cls-2" d="M1049.2792,83.861l-1.3544,7.7549c-.0802.4916-.331.9129-.7324,1.254-.3913.3511-.8327.5217-1.3343.5217-.4715,0-.8527-.1705-1.1236-.5217-.2809-.3411-.3913-.7624-.311-1.254l1.3844-7.7549v-.0602c.1505-.923-.0501-1.6954-.6019-2.3375-.5417-.6521-1.2741-.9832-2.1971-.9832-.5819,0-1.1637.1605-1.7356.4615-.5718.311-1.0534.7123-1.4446,1.2139s-.6421,1.0735-.7524,1.7155l-1.3844,7.7549c-.1003.4916-.3411.9129-.7324,1.254-.3913.3511-.8327.5217-1.3142.5217-.4715,0-.8527-.1705-1.1236-.5217-.2809-.3411-.3712-.7624-.2709-1.254l1.3343-7.7549.9029-5.0964c.0903-.5016.3411-.9129.7324-1.234.4013-.3311.8427-.5016,1.3343-.5016.7123,0,1.1738.3311,1.4045.9832,1.1838-.6521,2.4077-.9832,3.6818-.9832,1.0333,0,1.9462.2006,2.7589.6019.8026.4113,1.4647.9531,1.9864,1.6553.7625-.6922,1.6152-1.244,2.5482-1.6553.943-.4013,1.9362-.6019,2.9695-.6019,1.2641,0,2.3576.311,3.2805.923.923.612,1.5851,1.4346,2.0064,2.4679.4314,1.0333.5417,2.187.331,3.4511l-1.4045,7.7549c-.0602.4916-.2909.9129-.6922,1.254-.4113.3511-.8527.5217-1.3343.5217-.4916,0-.8728-.1705-1.1537-.5217-.2709-.3411-.3511-.7624-.2709-1.254l1.3544-7.7549c.1706-.943-.0201-1.7456-.5618-2.4077-.5317-.6521-1.2641-.9832-2.1971-.9832-.923,0-1.7657.3311-2.5281.9832-.7725.6421-1.244,1.4246-1.4246,2.3375v.0201c-.01-.0101-.0201,0-.0301.03Z"/>
  <path class="cls-2" d="M1070.0359,93.4518c-1.4948-.0301-2.7789-.4113-3.8423-1.1537-1.0735-.7323-1.8459-1.7255-2.3174-2.9695-.4615-1.234-.5618-2.5983-.311-4.0931.2107-1.1136.6019-2.167,1.1938-3.1601.5919-.9832,1.3243-1.866,2.177-2.6284.8427-.7624,1.7958-1.3544,2.8391-1.7757,1.0534-.4314,2.1469-.6521,3.2605-.6521,1.4446,0,2.6886.3311,3.7219.9832,1.0434.6621,1.8259,1.555,2.3375,2.6987.5117,1.1437.6722,2.4579.4816,3.9527,0,.0803-.0201.1405-.0401.1705,0,.1003-.0201.2006-.0602.2909-.1103.3913-.3511.7123-.7324.9631-.3611.2408-.7625.3511-1.1938.3511h-10.5037c0,.3612.0602.7424.1906,1.1537.1405.3913.321.7223.5417,1.0032.2608.4113.6722.7424,1.234,1.0233.5518.2709,1.1035.4214,1.6553.4615.6421.0401,1.3142-.0301,2.0265-.2307.7123-.1906,1.3343-.5317,1.8861-1.0233.4214-.3913.8026-.5718,1.1537-.5618.3411.0201.632.1003.8527.2508.2207.1605.3411.2408.3511.2508.2909.311.4214.6722.3812,1.0835-.0301.4214-.2007.7825-.5016,1.0835-.9932.923-1.9964,1.5751-3.0097,1.9663-1.0233.3712-2.2773.5618-3.7721.5618ZM1072.4637,80.1391c-.933.0401-1.7556.2709-2.4679.6722-.7023.3913-1.2741.8427-1.7155,1.3544-.4314.5217-.7324,1.0032-.9029,1.4647h9.2998c-.0301-.4314-.2007-.9029-.5016-1.4246-.311-.5116-.7725-.9631-1.3844-1.3544-.6019-.4013-1.3844-.6421-2.3275-.7123Z"/>
  <path class="cls-2" d="M1090.0444,93.4518c-1.4948-.0301-2.7789-.4113-3.8423-1.1537-1.0735-.7323-1.8459-1.7255-2.3174-2.9695-.4615-1.234-.5618-2.5983-.311-4.0931.2107-1.1136.6019-2.167,1.1938-3.1601.5919-.9832,1.3243-1.866,2.177-2.6284.8427-.7624,1.7958-1.3544,2.8391-1.7757,1.0534-.4314,2.1469-.6521,3.2605-.6521,1.4446,0,2.6886.3311,3.7219.9832,1.0434.6621,1.8259,1.555,2.3375,2.6987.5117,1.1437.6722,2.4579.4816,3.9527,0,.0803-.0201.1405-.0401.1705,0,.1003-.0201.2006-.0602.2909-.1103.3913-.3511.7123-.7324.9631-.3611.2408-.7625.3511-1.1938.3511h-10.4937c0,.3612.0602.7424.1906,1.1537.1405.3913.321.7223.5417,1.0032.2608.4113.6722.7424,1.234,1.0233.5518.2709,1.1035.4214,1.6553.4615.6421.0401,1.3142-.0301,2.0265-.2307.7123-.1906,1.3343-.5317,1.8861-1.0233.4214-.3913.8026-.5718,1.1537-.5618.3411.0201.632.1003.8527.2508.2207.1605.3411.2408.3511.2508.2909.311.4214.6722.3812,1.0835-.0301.4214-.2007.7825-.5016,1.0835-.9932.923-1.9964,1.5751-3.0097,1.9663-1.0434.3712-2.2974.5618-3.7822.5618ZM1092.4621,80.1391c-.933.0401-1.7556.2709-2.4679.6722-.7023.3913-1.2741.8427-1.7155,1.3544-.4314.5217-.7324,1.0032-.9029,1.4647h9.2998c-.0301-.4314-.2007-.9029-.5016-1.4246-.311-.5116-.7725-.9631-1.3844-1.3544-.6019-.4013-1.3744-.6421-2.3275-.7123Z"/>
  <path class="cls-2" d="M1108.3675,70.4179c.5016,0,.9029.1806,1.1938.5217.301.3511.4113.7725.311,1.2741l-.7123,4.8054h.8527c.5016,0,.9029.1806,1.1938.5417s.3812.7925.2709,1.2941c-.0802.4916-.331.9129-.7524,1.2741-.4214.3511-.8828.5217-1.3844.5217h-.8527l-1.6954,9.1092c.5016,0,.9029.1806,1.1938.5417s.4013.7925.311,1.2941c-.0802.4916-.331.9129-.7524,1.2741-.4214.3511-.8828.5217-1.3844.5217-1.0233,0-1.8259-.3511-2.4278-1.0634-.5819-.7123-.7926-1.565-.6019-2.5682l1.7356-9.1092h-.9832c-.4715,0-.8628-.1705-1.1738-.5217-.2909-.3612-.4013-.7825-.311-1.2741.0903-.5016.3411-.933.7524-1.2941.4214-.3612.8828-.5417,1.4045-.5417h.943l.7324-4.8054c.1103-.5016.3611-.923.7725-1.2741.4314-.3411.8829-.5217,1.3644-.5217Z"/>
  <path class="cls-2" d="M1113.1431,91.1544c-.331-.301-.4816-.6922-.4414-1.1738.0401-.4715.2308-.8828.5819-1.234.3812-.3913.8126-.6019,1.3142-.6521.5117-.0401.933.1003,1.254.4214.331.3511.8026.6822,1.4246.9832.6119.2909,1.2239.4314,1.8359.4013.4615,0,.8929-.0502,1.2942-.1705.4214-.1204.7725-.2608,1.0634-.4214.2809-.1906.4816-.3612.6019-.5217.1204-.1505.1906-.301.2107-.4414,0-.1505-.01-.2709-.0201-.3511-.0301-.0401-.0702-.0903-.1204-.1705-.0602-.0803-.1405-.1705-.2508-.2508-.2107-.1505-.5417-.311-1.0032-.4815-.4515-.1705-.9531-.301-1.5249-.4214h-.0201c-.4916-.1104-.9731-.2307-1.4446-.3511-.4615-.1405-.8929-.301-1.2942-.5016-.3511-.2107-.7023-.4615-1.0434-.7725-.331-.301-.6019-.6922-.7926-1.1537-.2408-.6421-.311-1.3243-.2308-2.0466.1505-.7323.4615-1.4145.943-2.0265s1.0333-1.1236,1.6252-1.545c.622-.4013,1.3042-.7123,2.0265-.923.7223-.2207,1.4647-.3311,2.2171-.3311,1.1236,0,2.0566.2207,2.799.6521.7324.4214,1.3343.8126,1.7958,1.1938.3611.2408.5518.6019.5618,1.0835.01.4715-.1605.9129-.5016,1.3142-.311.3913-.7123.6421-1.2139.7323-.4916.1003-.9129.0201-1.254-.2508-.4615-.3411-.9129-.6421-1.3544-.8828-.4314-.2307-.9129-.3511-1.4446-.3511-.4214,0-.8126.0602-1.1738.1906-.3511.1104-.6521.2508-.9029.4214-.2408.1705-.4113.311-.5016.4414-.0802.1204-.1405.2207-.1505.2909-.0301.0702-.0401.1204-.0201.1705.01.0301.0201.0602.0201.1003.0702.1104.1806.2207.331.311.3611.3311,1.0935.5919,2.1971.7725l.0201.0201h.0401c.5417.0803,1.0534.2006,1.5249.3511.4816.1605.943.3511,1.3544.6019.4214.2107.8026.4715,1.1537.7925.3611.321.6421.7123.8327,1.1738.2809.6421.3511,1.3744.2308,2.1971-.1605.7725-.4916,1.4747-1.0032,2.1268-.5016.6421-1.0634,1.1838-1.6954,1.6252-.6621.4113-1.3744.7223-2.1569.9631-.7825.2207-1.565.3311-2.3576.3311-1.244-.01-2.3174-.2608-3.2203-.7323-.8627-.4715-1.575-.9731-2.1167-1.5048Z"/>
  <path class="cls-2" d="M1146.6386,93.4518c-1.565,0-2.9294-.3612-4.0931-1.1035-1.1738-.7524-2.0265-1.7657-2.5682-3.0297-.5417-1.2641-.6922-2.6786-.4414-4.2436.2207-1.1537.6521-2.2372,1.2741-3.2605.622-1.0132,1.4045-1.9061,2.3174-2.6786.923-.7624,1.9262-1.3644,3.0297-1.7958,1.1136-.4314,2.2673-.6521,3.4511-.6521,1.0032,0,1.9262.1605,2.7789.4815.8427.321,1.5751.7725,2.1971,1.3343.331.311.4816.7023.4615,1.1938-.0201.4916-.2107.933-.5819,1.3343-.3511.3812-.7725.5919-1.2741.6521-.5016.0401-.933-.0702-1.2741-.3511-.7725-.6922-1.7456-1.0433-2.9294-1.0433-.923,0-1.8058.2207-2.6585.6722-.8327.4314-1.545,1.0132-2.1068,1.7356-.5718.7123-.933,1.5048-1.0835,2.3877-.1605.8828-.0802,1.6854.2308,2.4278.321.7223.8226,1.3142,1.5048,1.7556.6822.4314,1.4848.6521,2.4077.6521,1.1838,0,2.2873-.3612,3.3207-1.0835.4314-.301.8828-.4214,1.3544-.3511.4816.0702.8427.301,1.0634.6922.2308.3913.2809.8327.1204,1.3142-.1605.4916-.4515.8929-.8828,1.1938-.8126.5618-1.7055.9932-2.6786,1.3142-.953.2909-1.9362.4515-2.9394.4515Z"/>
  <path class="cls-2" d="M1163.1327,77.019c.5016,0,.8828.1806,1.1537.5217.2809.3311.3812.7424.2909,1.2139l-.0602.2307c.2508-.2107.5518-.4214.923-.622.6119-.3913,1.2841-.7123,2.0064-.9631.7324-.2508,1.5149-.3812,2.3174-.3812.5016,0,.8929.1806,1.1738.5217.2809.3311.3611.7424.2709,1.2139-.0802.4916-.331.9129-.7324,1.254-.3913.3511-.8226.5217-1.2942.5217-.3913,0-.7625.0602-1.1035.1705-.331.1104-.6722.2508-1.0032.4214-.321.1806-.6421.4214-.943.7123-.2909.2809-.5819.5718-.8527.8828-.4916.5417-.9029,1.0835-1.234,1.6252-.321.5317-.5417.923-.6521,1.1738l-1.0835,6.2099c-.0802.4715-.331.8929-.7324,1.234-.4113.3311-.8527.5016-1.3343.5016-.4715,0-.8527-.1705-1.1537-.5016-.2809-.3411-.3812-.7624-.2909-1.234l2.2974-12.9616c.0702-.4715.301-.8828.7123-1.2139.3913-.3511.8327-.5317,1.3243-.5317Z"/>
  <path class="cls-2" d="M1179.1841,93.4518c-1.4948-.0301-2.7789-.4113-3.8423-1.1537-1.0735-.7323-1.8459-1.7255-2.3174-2.9695-.4615-1.234-.5618-2.5983-.311-4.0931.2107-1.1136.6019-2.167,1.1938-3.1601.5919-.9832,1.3243-1.866,2.177-2.6284.8427-.7624,1.7958-1.3544,2.8391-1.7757,1.0534-.4314,2.1469-.6521,3.2605-.6521,1.4446,0,2.6886.3311,3.7219.9832,1.0434.6621,1.8259,1.555,2.3375,2.6987.5117,1.1437.6722,2.4579.4816,3.9527,0,.0803-.0201.1405-.0401.1705,0,.1003-.0201.2006-.0602.2909-.1103.3913-.3511.7123-.7324.9631-.3611.2408-.7625.3511-1.1938.3511h-10.5037c0,.3612.0602.7424.1906,1.1537.1405.3913.321.7223.5417,1.0032.2608.4113.6722.7424,1.234,1.0233.5518.2709,1.1035.4214,1.6553.4615.6421.0401,1.3142-.0301,2.0265-.2307.7123-.1906,1.3343-.5317,1.8861-1.0233.4214-.3913.8026-.5718,1.1537-.5618.3411.0201.632.1003.8527.2508.2207.1605.3411.2408.3511.2508.2909.311.4214.6722.3812,1.0835-.0301.4214-.2007.7825-.5016,1.0835-.9932.923-1.9964,1.5751-3.0097,1.9663-1.0233.3712-2.2773.5618-3.7721.5618ZM1181.6119,80.1391c-.933.0401-1.7556.2709-2.4679.6722-.7023.3913-1.2741.8427-1.7155,1.3544-.4314.5217-.7324,1.0032-.9029,1.4647h9.2998c-.0301-.4314-.2007-.9029-.5016-1.4246-.311-.5116-.7725-.9631-1.3844-1.3544-.6019-.4013-1.3844-.6421-2.3275-.7123Z"/>
  <path class="cls-2" d="M1198.0789,93.4116c-1.0735,0-2.0566-.2107-2.9495-.6521-.8929-.4314-1.6252-1.0233-2.1971-1.7757-.5417-.7624-.933-1.6353-1.1738-2.6084-.2408-.9832-.2508-2.0365-.0401-3.13.1806-1.1136.5518-2.167,1.1236-3.1601.5819-1.0032,1.2841-1.8861,2.0867-2.6284.8327-.7323,1.7757-1.3142,2.819-1.7356,1.0534-.4314,2.1168-.6521,3.2003-.6521.8026,0,1.555.1204,2.2372.3511.6922.2408,1.3243.5819,1.8861,1.0233.1505-.4013.4013-.7323.7524-.9832.3611-.2608.7524-.4013,1.1738-.4013.5016,0,.8929.1705,1.1738.5016.2809.321.3611.7323.2508,1.234l-2.2372,12.8512c-.0802.4715-.331.8929-.7324,1.234-.3913.3511-.8226.5217-1.2942.5217-.4515,0-.8026-.1304-1.0634-.4013-.2709-.2809-.4113-.612-.4214-1.0032-.6822.4214-1.4246.7624-2.2171,1.0233-.7724.2608-1.575.3912-2.3776.3912ZM1197.0958,81.8546c-.4916.4214-.9129.923-1.254,1.5048-.331.5718-.5618,1.2039-.6722,1.8861-.1003.6621-.0802,1.2741.0401,1.8359.1204.5718.3511,1.0735.6922,1.5048.6521.9129,1.5851,1.3544,2.799,1.3544,1.1738,0,2.2372-.4514,3.2203-1.3544,1.0333-.8929,1.6653-2.0064,1.9061-3.3407.1204-.6822.1103-1.3042-.0201-1.8861-.1405-.5819-.3812-1.0835-.7123-1.5048-.311-.4214-.7023-.7424-1.1738-.9832-.4615-.2307-.9932-.3511-1.5851-.3511-.5819,0-1.1637.1204-1.7155.3511-.5418.2408-1.0534.5618-1.5249.9832Z"/>
  <path class="cls-2" d="M1217.8523,70.4179c.5016,0,.9029.1806,1.1938.5217.301.3511.4113.7725.311,1.2741l-.7123,4.8054h.8527c.5016,0,.9029.1806,1.1938.5417s.3812.7925.2709,1.2941c-.0802.4916-.331.9129-.7524,1.2741-.4214.3511-.8828.5217-1.3844.5217h-.8527l-1.6954,9.1092c.5016,0,.9029.1806,1.1938.5417s.4013.7925.311,1.2941c-.0802.4916-.331.9129-.7524,1.2741-.4214.3511-.8828.5217-1.3844.5217-1.0233,0-1.8259-.3511-2.4278-1.0634-.5819-.7123-.7926-1.565-.6019-2.5682l1.7356-9.1092h-.9832c-.4715,0-.8628-.1705-1.1738-.5217-.2909-.3612-.4013-.7825-.311-1.2741.0903-.5016.3411-.933.7524-1.2941.4214-.3612.8828-.5417,1.4045-.5417h.943l.7324-4.8054c.1103-.5016.3611-.923.7725-1.2741.4214-.3411.8729-.5217,1.3644-.5217Z"/>
  <path class="cls-2" d="M1222.5511,91.6761l2.3877-12.8512c.0903-.5016.3411-.923.7524-1.2741.4214-.3411.8828-.5217,1.4045-.5217.5016,0,.9029.1806,1.1938.5217.2909.3511.3812.7725.2709,1.2741l-2.3576,12.8512c-.0802.4916-.331.9129-.7524,1.2741s-.8828.5417-1.3844.5417-.9129-.1806-1.2139-.5417-.4013-.7825-.301-1.2741ZM1229.4733,72.9861c-.0802.5016-.331.933-.7524,1.2941s-.8828.5417-1.3844.5417c-.4715,0-.8628-.1806-1.1738-.5417-.2909-.3612-.4013-.7925-.311-1.2941l.1003-.6922c.1103-.5116.3812-.943.7926-1.2941.4214-.3411.8628-.5217,1.3343-.5217.5016,0,.9029.1806,1.1938.5217.301.3511.4214.7825.331,1.2941l-.1304.6922Z"/>
  <path class="cls-2" d="M1245.5034,77.3601c.4013.2006.6521.5217.7524.9631.1103.4314.0301.8628-.2508,1.2941l-7.6245,12.8111c-.0201.0401-.0702.1405-.1706.2709-.0201,0-.0201.01-.0201.0201h-.0401c-.0201.0301-.0401.0602-.0602.1003l-.1003.1003c-.0201,0-.0201.01-.0201.0201h-.0401c-.0702.0702-.1505.1204-.2308.1705-.0201.0301-.0401.0401-.0602.0401-.1204.0803-.2207.1405-.2909.1705h-.0401c0,.0201-.01.0201-.0201.0201-.0401.0301-.0903.0502-.1505.0602h-.1204c-.0201,0-.0301.01-.0401.0201l-.0201.0201c-.0401,0-.0903.01-.1505.0201-.0602.01-.1003.0201-.1505.0201h-.0401c-.0401,0-.0903-.01-.1505-.0201-.0602-.0201-.1003-.0201-.1505-.0201-.0201,0-.0301-.01-.0401-.0201-.0201-.01-.0201-.0201-.0201-.0201h-.1204c-.0401-.01-.0903-.0301-.1505-.0602,0,0-.01-.01-.0201-.0201-.0702-.0301-.1505-.0803-.2308-.1705-.0301,0-.0401-.01-.0401-.0401-.0401-.01-.1003-.0702-.1906-.1705h-.0201c-.0201-.01-.0201-.0201-.0201-.0201-.0401-.0401-.0802-.1104-.1204-.2107h-.0201c-.0201-.01-.0201-.0201-.0201-.0201-.0401-.1405-.0702-.2307-.0802-.2709l-3.13-12.8111c-.1103-.4314-.0401-.8628.2107-1.2941.2608-.4414.632-.7624,1.1035-.9631.4816-.1806.943-.1806,1.3544,0,.4214.1705.6722.4715.7524.923l2.2372,8.9889,5.3471-8.9889c.2608-.4414.622-.7524,1.0835-.923.4514-.1705.9028-.1705,1.3242.01Z"/>
  <path class="cls-2" d="M1249.389,91.6761l2.3877-12.8512c.0903-.5016.3411-.923.7524-1.2741.4214-.3411.8828-.5217,1.4045-.5217.5016,0,.9029.1806,1.1938.5217.2909.3511.3812.7725.2709,1.2741l-2.3576,12.8512c-.0802.4916-.331.9129-.7524,1.2741s-.8828.5417-1.3844.5417-.9129-.1806-1.2139-.5417-.4013-.7825-.301-1.2741ZM1256.3012,72.9861c-.0802.5016-.331.933-.7524,1.2941s-.8828.5417-1.3844.5417c-.4715,0-.8628-.1806-1.1738-.5417-.2909-.3612-.4013-.7925-.311-1.2941l.1003-.6922c.1103-.5116.3812-.943.7926-1.2941.4214-.3411.8628-.5217,1.3343-.5217.5016,0,.9029.1806,1.1938.5217.301.3511.4214.7825.331,1.2941l-.1304.6922Z"/>
  <path class="cls-2" d="M1264.1888,70.4179c.5016,0,.9029.1806,1.1938.5217.301.3511.4113.7725.311,1.2741l-.7123,4.8054h.8527c.5016,0,.9029.1806,1.1938.5417s.3812.7925.2709,1.2941c-.0802.4916-.331.9129-.7524,1.2741-.4214.3511-.8828.5217-1.3844.5217h-.8527l-1.6954,9.1092c.5016,0,.9029.1806,1.1938.5417s.4013.7925.311,1.2941c-.0802.4916-.331.9129-.7524,1.2741-.4214.3511-.8828.5217-1.3844.5217-1.0233,0-1.8259-.3511-2.4278-1.0634-.5819-.7123-.7926-1.565-.6019-2.5682l1.7356-9.1092h-.9832c-.4715,0-.8628-.1705-1.1738-.5217-.2909-.3612-.4013-.7825-.311-1.2741.0903-.5016.3411-.933.7524-1.2941.4214-.3612.8828-.5417,1.4045-.5417h.943l.7324-4.8054c.1103-.5016.3611-.923.7725-1.2741.4314-.3411.8829-.5217,1.3644-.5217Z"/>
  <path class="cls-2" d="M1285.8026,78.7546l-.4615,2.5281-1.7757,10.1325c-.2007,1.0835-.5819,2.0967-1.1537,3.0498-.5718.9631-1.2841,1.8058-2.1268,2.5281-.8527.7323-1.7958,1.3042-2.819,1.7155-1.0333.4013-2.0967.6019-3.2003.6019-1.244,0-2.3576-.2709-3.3407-.8126-.3913-.2207-.622-.5618-.7123-1.0233-.0702-.4615.0301-.9129.311-1.3343.301-.4514.7023-.7424,1.1938-.9029.5016-.1605.943-.1204,1.3343.1003.5718.2909,1.1838.4414,1.8359.4414.9631,0,1.866-.2909,2.7187-.8527.8628-.5618,1.5149-1.2741,1.9462-2.1268-1.0434.5217-2.1469.7725-3.3006.7725-1.2741,0-2.3776-.301-3.3207-.923-.9531-.622-1.6453-1.4647-2.0867-2.508-.4314-1.0534-.5417-2.2171-.311-3.4912l1.3844-7.9054c.1103-.5016.3611-.9129.7524-1.234.4013-.3311.8427-.5016,1.3142-.5016.5016,0,.8929.1705,1.1738.5016.2909.321.4013.7323.311,1.234l-1.4246,7.9054c-.1605.933.0401,1.7356.5819,2.4077.5518.6722,1.3042,1.0032,2.2572,1.0032.9631,0,1.8259-.3311,2.5883-1.0032.7825-.6722,1.2641-1.4647,1.4446-2.4077l1.3343-7.9054c.0702-.3411.2207-.6521.4615-.923.4816-.5417,1.0233-.8126,1.6052-.8126.4214,0,.7324.1104.9631.3311.4615.321.6321.7925.5217,1.4145Z"/>
  <path class="cls-2" d="M775.4399,70.1172c.1806-.4314.4615-.7725.8327-1.0233.3913-.2508.8026-.3812,1.254-.3812.5317,0,.943.1705,1.254.5016.321.3311.4815.7424.4815,1.234,0,.2508-.0702.5217-.2107.8126l-8.9286,20.1246c-.2006.4314-.4916.7825-.8828,1.0433-.3812.2508-.7925.3812-1.234.3812-.4514,0-.8226-.1204-1.1236-.3812-.2909-.2608-.4815-.612-.5618-1.0433l-2.3174-13.5435-6.1397,13.6638c-.1605.3913-.4214.7023-.7925.943-.3612.2307-.7424.3511-1.1537.3511-.4214,0-.7725-.1204-1.0634-.3511s-.4715-.5518-.5417-.943l-3.4511-20.2149c-.0301-.0301-.0401-.0702-.0401-.1505v-.2107c0-.5919.2307-1.1136.6922-1.565.4615-.4414,1.0132-.6722,1.6553-.6722.4414,0,.8226.1405,1.1236.4013.301.2709.4815.612.5417,1.0433l2.3576,14.8978,6.8319-15.4696c.2608-.5819.6922-.8828,1.2941-.8828.612,0,.9631.2909,1.0634.8828l2.5281,15.6302,6.5309-15.0784Z"/>
  <g>
    <g>
      <g>
        <path class="cls-4" d="M1442.1851,273.903l-48.586,16.513-47.5927-46.1882h0l-51.0438,48.2548-110.6751-134.3511c-31.1098,31.9124-44.252,52.669-67.4866,75.3819l-55.3175,26.475-74.0275-24.8397-32.6447,33.1564-115.3101-139.8087-116.2028,138.8957-25.0203-24.2378-1.4547,1.565-68.4597,72.613-49.9302-42.376c-26.3947,23.1443-60.5242,56.2906-87.1095,81.7122-2.7288-2.187-16.0615-19.1414-17.125-20.5259-7.2834-9.4303-14.4564-18.9107-22.0407-28.1102-4.9058-5.9491-9.8115-11.8982-14.7172-17.8472-5.9792-7.2533-11.9584-14.4965-17.9376-21.7498-6.4106-7.7649-12.8111-15.5399-19.2217-23.3048-6.1899-7.5041-12.3898-15.0182-18.5796-22.5223l-16.0014-19.4023c-3.8323-4.6449-7.6646-9.2898-11.4969-13.9347-1.6854-2.0466-3.3708-4.0831-5.0562-6.1297-.0301-.0301-.0602-.0702-.0802-.1003l-116.1928,138.9258-24.9501-24.4384-1.5249,1.7757-68.4597,72.613-49.9302-42.376c-28.3108,24.8196-65.5905,61.2365-92.8379,87.1898.2909.5819,11.3163,12.0085,12.791,13.5836,6.852,7.3436,13.6438,14.8778,19.954,22.7029l-30.3474,5.317v4.7854l31.3004-5.0161-32.8053,61.9287.6421,3.9527-.4615,4.4643,85.5947-25.8931-35.4538,60.2032h-10.7445l-38.3731-32.3739-2.7288,3.11,35.5742,29.2739H-3.4338v3.7019l248.9388.01.2307.4615.933-.4615,268.4916.01h926.9946v-6.4808l-48.1846-32.3037c4.4944-3.7319,42.3659-33.2667,48.1846-38.0621v-8.3267l-56.712-60.6346,56.712,11.5571v-3.7019l-59.491-13.4331,24.6391-33.6881,34.8619,27.6688v-5.5478l-31.5813-25.4617,31.5813-25.4617v-5.5478l-34.8518,27.8092-35.7849-32.4241,70.6267.9229v-3.7019l-73.4256-1.3945,25.562-40.9615,47.8736,37.7311v-5.5478l-44.6131-36.1059,44.6131-15.7506v-3.7417h.0201ZM1300.0591,294.8502l42.687-42.2455-8.4472,63.6442c-8.407-4.9058-30.9895-18.1382-34.6613-20.9472l.4214-.4515ZM1015.2451,482.1813l-54.4748-88.8451,80.8594,19.4324h0c1.2139,1.244-9.9118,28.8927-11.3664,32.6447-3.8624,9.9319-10.2529,27.0468-15.0182,36.768ZM1015.827,488.3411c-.2608-.1003-.3712-.1405-.0401-.0903l.0401.0903ZM240.7699,388.6412l-46.5694,73.0745-53.7826-19.8337,100.352-53.2409ZM142.2638,435.8627l72.0612-85.1733,30.1668,31.0195-102.2281,54.1538ZM246.3779,387.7283l1.2941-1.9061,31.2101,75.9738h0l-80.8494.9229,48.3452-74.9906ZM251.9357,384.9493l101.2951,13.8946-70.6166,62.019-30.6784-75.9136ZM401.2047,472.8313l-37.7311-70.2956h0l98.5864,40.7909c-16.4528,8.096-44.4025,21.4087-60.8553,29.5047ZM461.9797,439.5545l-97.5731-42.1051,59.9524-31.8221,37.6207,73.9272h0ZM359.8219,394.1287l-27.0368-75.8434,89.2163,44.4326-62.1795,31.4108ZM356.0197,395.122h0l-102.228-13.8946,75.2715-61.0961,26.9565,74.9907ZM357.3841,402.5357l38.6039,70.3558h0l-108.7289-10.6341,70.125-59.7217ZM398.4358,479.4526h0c1.9362-.3411,28.7824,43.4293,30.0765,45.2954l-86.6079,33.8687,56.5314-79.1641ZM402.5089,477.0649l59.4006-28.1904-30.5881,72.1716-28.8125-43.9812ZM430.3783,366.4399l89.2163,34.2699-52.3781,38.7443h0l-36.8382-73.0143ZM526.7375,397.941h0l33.1463-45.2753,57.9359,32.3337-91.0823,12.9416ZM620.5987,389.6343l-43.3491,49.8399h0l-48.6461-37.3599,91.9952-12.48ZM523.0557,396.677h0c-2.3375-2.9696-7.0928-9.0791-8.5474-11.0956-.8126-1.1336-12.6606-16.5732-18.5094-24.2177l58.6181-9.7011-31.5612,45.0144ZM471.2796,442.815l51.5053-38.4935,37.9518,62.9119-89.4571-24.4184h0ZM564.3482,472.1792l69.7739,18.3288-81.4915,31.4108,11.7176-49.7396h0ZM565.6625,468.1964h0l-33.6179-58.1165,46.2584,36.2062,57.5948,40.3695-70.2353-18.4593ZM582.4964,443.7781l98.5061-29.1535-36.7981,71.2286-61.708-42.075ZM686.5804,413.2301h0l79.9265-1.3744-116.1528,73.1347,36.2263-71.7603ZM704.7387,296.1143l30.1668,31.0195-102.218,54.1538h0l72.0512-85.1733ZM671.3215,329.9929c.0401-.01.0501-.02,0,0q.01,0,0,0ZM850.2456,339.5536l-27.0267-75.8434,89.2163,44.4326-62.1896,31.4109ZM914.7827,311.0422l37.6207,73.9373-97.5731-42.1051h0l59.9524-31.8322ZM886.4117,418.3264h0l-108.7289-10.6341,70.125-59.7217,38.6039,70.3558ZM846.4534,340.5468h0l-102.238-13.8946,75.2716-61.0961,26.9665,74.9906ZM843.6645,344.2688l-70.6166,62.019-30.6785-75.9136,101.2951,13.8946ZM769.3059,407.2108l-80.8494.9229,48.3451-74.9806,1.1136-1.5951,31.3907,75.6528ZM731.1936,334.066l-46.5694,73.0745-53.7826-19.8337,100.352-53.2409ZM767.4499,416.4805h0l-40.0485,101.7666-75.1712-29.0934,115.2197-72.6732ZM773.4893,415.5676h0l44.1416,69.4027-85.5044,32.414,41.3627-101.8167ZM777.6828,412.7786h0l106.883,9.2497-62.7313,60.153-44.1517-69.4027ZM888.8595,424.8774h0c2.0767,2.9394,28.7824,43.4293,30.0765,45.2954l-91.0823,12.0286,61.0058-57.324ZM892.9326,422.4898h0l59.4006-28.1904-30.5881,72.1716-28.8125-43.9812ZM891.6284,418.2562l-37.7311-70.2956h0l98.9174,40.9213c-16.7939,8.2164-45.3455,21.5793-61.1863,29.3743ZM920.8021,311.8648h0l89.2163,34.2699-52.3781,38.7443-36.8382-73.0143ZM1031.0358,290.6868l47.7633,18.409-56.8123,19.4123c-.3611.0903-13.4732,4.5446-13.7542,4.665l22.8032-42.4863ZM1003.989,328.5082h0c-4.4744-5.8588-12.771-14.8978-17.446-21.3485l38.3531-15.6803-20.9071,37.0289ZM1262.358,351.6825v-.01l-56.2305-14.8276,40.4799-30.5982.7424-.6019,55.8692,42.3559,4.2436,3.6718h-45.1046v.0101ZM1311.6261,355.3844v-.01c5.5478,4.4142,16.3525,12.4299,23.4954,17.5865l-61.1262-17.5764h37.6308ZM1263.3011,467.2334l-46.0076-44.7536,92.9382-14.326-46.9306,59.0796ZM1312.1177,412.3372h0l2.3075-3.2504,17.1852,54.6052-62.2698,2.7789,42.7772-54.1337ZM1159.8792,383.7454l95.5064-25.5821-43.3591,58.2469-52.1473-32.6648ZM1199.6167,413.7116h0ZM1199.6167,413.7116l-76.1945-20.3653c13.5535-3.4511,23.8666-6.1598,31.6215-8.2766,14.1655,8.7983,30.548,21.4087,44.573,28.6419ZM1161.5245,378.4986h0l24.1474-23.6058,16.6333-14.8075,53.0804,13.4331-93.8611,24.9802ZM1170.8344,365.1056h0c-2.9896,2.799-12.5503,11.7477-15.8107,14.1655l-16.7338-42.4061,58.5479,1.8559c-8.5073,8.8786-17.0246,17.9577-26.0034,26.3847ZM1150.3586,379.4316l-61.3368-14.7874,45.0947-25.8329,16.2422,40.6203ZM1146.5465,381.9497c-1.4747.3913-6.4508,1.6653-29.906,8.407l-26.6856-20.1647,56.5916,11.7577ZM1116.4399,398.9041l39.4967,46.2584-69.6936-2.2974,30.1969-43.9611ZM1081.3171,442.504l-32.2535-29.284,63.1928-16.192-30.9392,45.4759ZM1121.5563,397.9711l84.5614,22.2213-44.9843,23.9869-39.5771-46.2083ZM1212.0466,423.1118h0l43.3491,43.3491-87.3603-20.8268,44.0112-22.5223ZM1216.3605,416.4704h0l46.0478-58.3673,47.8135,46.3287-93.8613,12.0386ZM1210.1505,328.3477c-1.9162,1.2641-6.4508,5.0763-8.5474,3.7621l-26.1339-64.6876,69.0515,35.1528c-7.5942,6.8821-25.8227,20.1346-34.3702,25.7727ZM1198.6938,334.989l-59.4709-1.846,32.0628-64.7979,27.408,66.6438ZM1135.4809,331.2972l-46.4491-21.7699,77.1275-42.1252-30.6784,63.895ZM1120.0313,328.6487c1.3945.6922,8.8584,4.053,12.5302,6.4908l-47.2416,26.6956.9631-50.0406c10.915,4.986,26.1138,13.1121,33.7483,16.8541ZM1111.3235,393.3161h0l-64.1158,15.7506.933-68.5199,63.1827,52.7693ZM1081.588,361.8451h0l-35.1929-29.0833c-11.527,3.7922-4.2135,1.4145-31.3105,10.4736-.7925-1.6152-3.2404-5.8688-3.6718-6.7115l70.6667-24.5889-.4916,49.9102ZM1016.6195,345.6733l.6922,1.4647c9.9519-3.8624,23.4152-7.9255,27.0969-9.3601l-1.3844,63.875-26.4047-55.9796ZM1041.6297,409.0566h0l-79.9265-20.8168,51.5755-38.4132,28.351,59.23ZM1046.7262,416.4905h0l31.1199,28.2306-57.5948,36.5674,26.4749-64.798ZM1080.2136,448.8744h0l1.3042-.8527,29.8156,47.1413-88.2833-9.7011,57.1634-36.5874ZM1085.3099,447.0386l70.6267,1.846-39.4967,45.3455-31.1299-47.1915ZM1161.053,450.7504l52.5185,60.143-93.8611-14.336,41.3426-45.807ZM1167.0924,450.7405h0l91.0723,20.3653-39.3764,38.8146-51.6959-59.1799ZM1263.2911,472.9718h0l39.4967,37.0088-78.0705.9229,38.5737-37.9317ZM1267.1735,470.875c19.623-1.9061,44.1115-1.8259,63.4938-3.4511l-22.8935,39.7175-40.6003-36.2664ZM1334.3993,468.3269l48.3151,55.5482-70.6267-13.8946,22.3116-41.6537ZM1319.5315,409.0868l54.836,9.2597-39.9682,41.6436-14.8678-50.9033ZM1315.7393,403.1276l-45.4759-44.0413,73.5459,19.3922c-4.5445,4.3339-22.8834,20.2751-28.0701,24.6491ZM1314.8766,353.047h0l47.1312-9.9419c-1.4647,2.9193-13.9046,28.9429-15.2489,31.5813-9.0791-5.3873-26.9967-18.67-31.8823-21.6394ZM1314.8665,348.8836l20.897-26.796c7.795,5.7685,10.1224,7.6044,23.7061,17.5363l-44.6031,9.2598ZM1331.5601,319.8303l.9831.4715c-4.3841,7.4238-10.7946,15.0684-20.4557,26.7258l-12.9916-46.2886,32.4642,19.0913ZM1306.4997,345.1817l-54.826-41.2123,42.6268-4.9659,12.1992,46.1782ZM1291.632,295.1813l-42.7873,4.2637-15.7605-75.5424,58.5479,71.2787ZM1228.058,218.5554l16.1719,79.4048-68.7707-35.1929-1.4146-.622,52.0771-41.9546,1.9363-1.6353ZM1185.6821,166.9598l.301-2.4278,39.6071,50.4418-51.9668,42.2556,12.0587-90.2696ZM1181.0472,166.4983h0l-12.5503,91.624-43.1987-26.3144,55.749-65.3096ZM1120.7436,236.9845h0l.9932-2.0767,44.4226,26.0536,1.1136.7625c-24.8698,13.5334-51.0036,29.284-76.3751,41.8041l29.8458-66.5435ZM1115.0353,238.71h0l-29.3442,65.0487c-2.177-3.1701-5.608-8.2766-7.0527-10.7244-2.0667-3.4511-14.4363-26.6455-15.5499-28.6821l51.9467-25.6422ZM1080.655,305.374h0l-47.382-18.9809,25.5419-19.8939,21.8401,38.8747ZM1057.1997,262.998c-7.5943,6.3604-20.5258,14.9981-27.1973,20.9171l-32.9859-41.4831,60.1831,20.566ZM990.5158,242.422h0l35.3133,43.951-41.2223,17.9376c-5.939-8.3267,0,0-3.8423-5.4876l9.7514-56.401ZM985.8508,243.3449h0l-8.3568,51.8464c-3.2303-3.7119-18.2285-20.5459-19.2317-22.6828l27.5885-29.1636ZM1007.2394,340.5468h0l-87.3603-33.7784,34.7114-30.9493,52.649,64.7277ZM952.3834,271.5855h0l-35.2932,31.9425-20.4456-98.1349,55.7389,66.1924ZM913.3682,302.585h0l-89.2062-43.0381,67.3662-57.8556,21.84,100.8938ZM841.7885,136.8833l48.2548,60.464-67.7574,58.0362,19.5026-118.5003ZM836.2106,137.7862l-18.5796,117.5873-38.1424-47.6429,56.7221-69.9445ZM815.7249,262.1854h0l-74.2884,60.775,36.6877-109.2406,37.6006,48.4655ZM772.0849,216.4888h0l-35.7748,106.4516-28.2808-30.8691,64.0555-75.5825ZM700.0637,250.7487h0c13.393,13.102,18.0178,16.8641,21.3084,20.1547l-42.2154,49.2781,20.9071-69.4328ZM694.9373,253.5276l-23.8566,76.3952c-5.3371-1.7757-18.7101-5.3772-39.3462-9.7413l63.2028-66.6539ZM628.9756,322.9604h0l37.5706,10.7545c-11.1759,13.7341-26.7157,32.9758-38.5036,45.7268l.933-56.4812ZM642.2181,395.4129h0c10.2128,3.5915,28.6419,10.5338,38.8246,15.2289l-96.6802,28.05,42.5766-49.1477c6.7717,2.7889,11.5771,4.5747,15.279,5.8688ZM623.3576,383.1235h0l-60.9556-34.6913c16.4929-7.1129,46.2183-19.0411,62.8517-24.5287l-1.8961,59.2201ZM579.7176,281.2967l.1605-.8026c8.2665,6.0695,21.4789,17.9576,28.662,24.4083,3.411,3.0698,11.7677,9.8516,13.9448,12.9616.5417.7925,1.2941.9229.9129,2.3174l-60.4039,23.1543,16.7237-62.0391ZM575.0526,284.0756l-18.8204,62.7213-62.0291,11.3564,80.8495-74.0777ZM516.8157,395.122l-87.3603-33.7784,34.7114-30.9493,52.649,64.7277ZM461.9597,326.1606h0l-35.2932,31.9425-20.4456-98.1349,55.7389,66.1924ZM401.1044,256.2664l21.8401,100.9038-89.2063-43.0381,67.3662-57.8657ZM351.3648,191.4584l48.2549,60.464-67.7574,58.0362,19.5026-118.5003ZM345.7869,192.3613h0l-18.5796,117.5873-38.1424-47.6429,56.722-69.9445ZM325.3011,316.7605h0l-74.2884,60.775,36.6877-109.2406,37.6007,48.4655ZM281.6611,271.0638l-35.7748,106.4516-28.2808-30.8691,64.0556-75.5825ZM209.63,305.3238h0c4.6048,4.5847,14.7774,13.8244,21.3686,20.0945l-42.2656,49.3383,20.8971-69.4328ZM204.5135,308.1027l-24.6391,77.4184c-12.2794-3.2705-11.6373-2.8391-38.5638-10.7645l63.2028-66.6539ZM138.5519,377.5355l38.1524,10.915c-11.1959,13.724-27.3377,32.8655-39.0754,45.5662l.923-56.4812ZM151.7944,449.988h0c10.5739,3.7119,29.0833,10.4937,38.9851,15.1787l-96.8408,28.1002,41.5734-47.984c3.1501-.9029,12.5804,3.4109,16.2822,4.7051ZM130.175,444.2095l-43.3491,49.8399-48.6461-37.3599,91.9952-12.48ZM36.3138,452.5161l33.1464-45.2753h0l57.9359,32.3337-91.0823,12.9416ZM132.9338,437.6986h0l-61.688-34.571c16.5531-7.1329,46.9908-19.1715,63.584-24.6491l-1.8961,59.2201ZM89.2938,335.8718c1.4045-.3812,1.5349.3511,2.3275.9129,8.0859,5.6381,18.8706,15.8509,26.485,22.6828,3.4109,3.0698,11.7678,9.8516,13.9447,12.9616.5417.7925,1.2941.9229.9129,2.3174l-60.4038,23.1543,16.7337-62.029h0ZM84.6288,338.6507h0l-18.8204,62.7213-62.019,11.3564,80.8394-74.0777ZM.9804,416.7112l63.2128-10.4636-31.9124,45.506h0l-1.6152-1.6854c-10.0121-11.1558-17.3055-20.7365-29.6853-33.357ZM-1.7483,523.524l34.3402-64.4969,51.104,38.8747L-1.7483,523.524ZM51.2517,562.7599l36.6275-61.9087,52.2376,61.9087H51.2517ZM92.0727,498.3532l98.5061-29.1535-46.7901,90.9619-51.716-61.8083ZM147.1595,562.6295l48.9972-94.8343,79.9265-1.3744-128.4221,95.8275h0l-.5016.3812ZM153.7506,562.7599l61.8685-46.0277h0l23.0038,46.0277h-84.8724ZM242.2245,559.4693l-22.7731-45.5762,57.5748-42.8375h0l-34.8017,88.4137ZM245.9064,561.6363l37.1592-91.4836h0l29.6853,58.3372-66.8445,33.1463ZM254.1729,562.7699l60.7048-30.1066,15.3191,30.1066h-76.024ZM287.2591,467.3538h0l106.883,9.2497-59.6414,86.1565-47.2416-95.4061ZM341.4931,562.7599l89.8082-34.3202.7324,34.3202h-90.5405ZM435.7756,562.7599h0l-.7524-34.3101,93.3997,34.3101h-92.6473ZM434.6922,524.4068c4.9158-13.4833,21.0275-51.2946,29.6351-71.6901h0l1.8861-4.1734,64.196,109.9428-95.7172-34.0793ZM538.0939,562.3486l-68.7506-116.0624,90.1493,24.4585c.0602,0,.1204-.01.1906-.01l-21.5893,91.614h0ZM575.0526,562.7599h-32.0428l7.1931-30.5179c8.417,5.6682,16.844,11.3464,25.2611,17.0146l20.0444,13.5033h-20.4557ZM551.8983,527.4967h0l88.203-34.1696-37.7612,68.3995-50.4418-34.2298ZM647.2242,492.5947h0l74.6897,28.5215-113.3839,39.7777,38.6942-68.2992ZM616.8868,562.7599l110.9962-38.8848c21.0375,12.771,42.6268,24.7996,62.8015,38.8848h-173.7977ZM733.0696,521.5577l84.5613-31.9425-21.3786,71.2787-63.1827-39.3362ZM799.9743,562.7599l23.696-74.9806,96.1987,74.9806h-119.8947ZM828.7868,486.3748l92.9382-12.5001,1.846,86.1063-94.7842-73.6062ZM954.751,398.1316h0l1.8861-4.1734,55.2573,89.1661-86.7684-13.2927c4.9057-13.4833,21.0175-51.2947,29.625-71.7001ZM927.333,561.6764h0v-.8026c.01-.0201.01-.0301.0201-.0401l-.0201-1.0233v-.0903h0l-1.8861-85.8455,87.3603,13.2525c-61.9087,50.1911-81.7223,70.6367-85.4743,74.5492ZM931.9579,562.7699h0c.1806-.2508.3311-.4715.4615-.6521,21.7999-20.5058,61.1563-54.3143,84.0196-72.4725l34.4707,73.1247h-118.9518ZM1021.1842,488.6922h0l90.1393,11.1157-56.2305,61.076-33.9088-72.1917ZM1059.2865,562.7599l57.1333-61.1563,56.2605,61.1563h-113.3938ZM1121.5563,501.6638h0l92.9382,12.9616-38.4334,45.2954-54.5049-58.2569ZM1181.0372,562.7599h0l38.7042-46.2284,70.0447,46.2284h-108.7489ZM1224.7072,515.9999h0l81.8025-2.3074-9.7814,48.1545-72.0211-45.8471ZM1310.2316,513.6824h0l72.4826,14.8276-80.8494,32.3939,8.3668-47.2215ZM1438.4833,562.7498h-128.2515l79.8462-32.0629,48.4053,32.0629ZM1390.75,524.7078h0l-49.8499-56.3709,96.6501,18.5094-46.8002,37.8615ZM1437.5603,483.1344h0l-98.5062-19.8939c4.1333-5.2669,37.9318-40.7307,40.2893-42.9879l58.2168,62.8818ZM1377.4373,414.5142h0l-56.9829-10.0823,26.475-23.1443,1.4847-1.4647,53.8227.5518-24.7996,34.1396ZM1402.2269,376.6527c-9.37-.2608-39.9481-.4414-50.9335-.7524l15.1586-31.6516,35.7748,32.404ZM1364.4155,335.8317l-.4614.632c-6.1497-4.063-20.0443-13.3729-24.8799-17.3858l49.2279-22.0407-23.8866,38.7945ZM1338.1212,315.5567h0l8.3568-63.875,42.7472,41.6537-51.1039,22.2213Z"/>
        <path class="cls-4" d="M1159.8592,383.7354l.0201.01c.2709-.0803.5818-.1705.7625-.2207l-.7825.2106Z"/>
      </g>
      <polygon class="cls-4" points="1017.5324 347.5995 1017.3117 347.138 1017.3117 347.138 1017.5324 347.5995"/>
    </g>
    <path class="cls-4" d="M149.6876,547.9022c-.0803.0301-.0702.0401-.0201.0301l.0201-.0301Z"/>
  </g>
</svg>