<?xml version="1.0" encoding="UTF-8"?>
<svg id="Layer_1" data-name="Layer 1" xmlns="http://www.w3.org/2000/svg" xmlns:xlink="http://www.w3.org/1999/xlink" viewBox="0 0 32 32">
  <defs>
    <style>
      .cls-1 {
        fill: #3e6c4c;
      }

      .cls-2 {
        clip-path: url(#clippath);
      }
    </style>
    <clipPath id="clippath">
      <path class="cls-1" d="M16.4799,12.8937c-.0111.4181-.0158.8208-.0342,1.2231-.0235.5086-.0991,1.0117-.202,1.5101-.0137.0662-.0286.132-.0448.1973-.0265.1098-.085.149-.1922.1204-.2814-.0747-.5646-.1448-.8422-.2332-.3109-.0995-.6214-.2046-.9233-.3288-.3062-.126-.6047-.2716-.9007-.4215-.5121-.2592-.9946-.5676-1.4563-.9084-.5543-.4087-1.0638-.8686-1.5349-1.3713-.4416-.4719-.8362-.9805-1.1894-1.5221-.4134-.6346-.7597-1.3043-1.0386-2.0085-.228-.5761-.4121-1.1663-.5334-1.7736-.0722-.36-.132-.7239-.1695-1.089-.0423-.4087-.0675-.8204-.0735-1.2312-.0077-.5078.029-1.0151.1063-1.5178.0466-.3028.1038-.6047.1572-.9067.0167-.0931.094-.1495.1871-.1256.2844.0735.5727.1388.8503.2327.395.1341.7888.275,1.1702.4429.3861.17.7662.3596,1.1313.5701.5847.3374,1.13.7328,1.6421,1.1753.5449.4706,1.0438.984,1.4823,1.5532.2665.3463.5074.7128.7482,1.0783.2648.4019.4843.8306.6756,1.2718.1555.3592.293.7269.4202,1.0967.0986.287.1785.5812.2503.8759.0671.2759.1251.5552.1653.8358.0602.4211.1012.8447.1486,1.2539h0ZM7.8438,2.7894c-.6432,3.4648.1012,6.5678,2.3322,9.278,1.5139,1.8389,3.4644,3.0112,5.791,3.5908.5548-2.8148.1354-5.4528-1.341-7.8913-1.5618-2.5803-3.8402-4.2156-6.7822-4.9774h0Z"/>
    </clipPath>
  </defs>
  <path class="cls-1" d="M26.4489,23.8467c-.6606,0-1.3447-.0668-2.0337-.1987-.7433-.1419-1.4444-.3474-2.0839-.6108-.3992-.1645-.7906-.3608-1.1692-.5504l-.0266-.0133c-.4039-.2023-.8094-.4558-1.2398-.7747-.2856-.2123-.5864-.4562-.9195-.746-.2029-.1764-.4074-.3741-.6631-.6413-.2208-.2313-.4068-.444-.5688-.6504-.1858-.2364-.3646-.4801-.5376-.7158-.0737-.1004-.1469-.2002-.22-.2986l-.0097-.0152c-.0609-.1122-.1215-.2229-.1816-.3326-.14-.2552-.272-.4963-.4012-.7459-.2137-.4131-.4059-.8801-.5873-1.4277-.0218-.0649-.0424-.1311-.0617-.1977-.026-.0901-.0212-.1677.0143-.2307.0347-.0617.0956-.1047.181-.1278l.1729-.0471c.2212-.0605.4499-.1232.6791-.1734.2652-.0582.6157-.1312.9742-.179.3461-.0464.7001-.0697,1.0006-.0863.5443-.0304,1.1123-.0114,1.7362.0582.6689.0751,1.3542.218,2.0373.4249.6111.1853,1.2206.4314,1.8114.7314.6797.345,1.3273.7602,1.9249,1.2339.5253.4166.9718.8369,1.3652,1.285.2729.311.5014.5947.6985.8674.2433.3361.4738.6857.6851,1.0388.2595.434.4869.9006.6756,1.3868.0845.2174.1644.4398.2418.6547l.0764.2118c.0286.0792.0244.161-.0115.2305-.0348.0675-.0965.1163-.1736.1376-.0611.017-.1224.0346-.1836.0521-.2203.0629-.448.128-.6784.1738-.3671.0732-.8022.1548-1.2454.2037-.4443.0484-.8744.0729-1.2785.0729h0ZM16.3165,16.0062c.9333,2.6465,2.6157,4.6534,5.002,5.966,2.5267,1.3895,5.2626,1.7063,8.1334.9425-1.1812-3.2391-3.3794-5.4803-6.5354-6.6626-2.1092-.7899-4.3289-.8724-6.6-.246h0Z"/>
  <path class="cls-1" d="M23.3645,19.0573c-.3262,0-.6679-.021-1.0352-.0634-.3567-.0412-.7391-.1019-1.1692-.1856-.2622-.0512-.5466-.1223-.8949-.2239-.3081-.0905-.5756-.1816-.8176-.2787-.2765-.1112-.5512-.2317-.8168-.3483-.1161-.0509-.2314-.1015-.3457-.1509l-.0162-.0084c-.1124-.069-.2238-.1367-.3342-.2038-.245-.1488-.4765-.2894-.7096-.439-.3926-.2514-.7924-.5596-1.2223-.9422-.0515-.0459-.1022-.0926-.152-.1402-.0678-.0653-.1024-.1351-.1032-.2076-.0007-.0709.0305-.1387.0928-.2014l.1367-.1377c.158-.1596.3214-.3247.4909-.4794.2176-.198.4772-.429.7546-.6424.2742-.2116.5574-.4016.8227-.5753.4589-.2999.9605-.5673,1.5336-.8178.6176-.27,1.2827-.4891,1.9767-.6513.6206-.145,1.2713-.2367,1.934-.2727.762-.0411,1.5302-.0058,2.2834.1054.6612.0976,1.2579.2384,1.8244.4303.3892.1315.7289.2629,1.0384.4016.3824.1711.7568.3585,1.1125.5567.4412.2459.8713.5362,1.2784.8631.1815.1458.3614.2981.5355.4454l.1732.1463c.0642.054.1016.1269.1053.2053.0035.076-.0255.1492-.0818.2061-.0449.046-.0901.0926-.1352.1392-.1585.1639-.3224.3334-.498.4876-.2835.2487-.6213.5382-.9772.7992-.3584.2629-.7186.4993-1.0708.7028-.5703.3299-1.1963.6143-1.8603.8454-.7148.2489-1.4248.4216-2.1103.5133-.4371.0582-.8834.0843-1.315.1097-.14.0083-.2823.0125-.4277.0125h0,0ZM16.3844,15.8548c2.1318,1.8253,4.5932,2.7216,7.3137,2.6646,2.8826-.0604,5.4103-1.1545,7.5148-3.2521-2.6424-2.2143-5.6658-3.0558-8.9894-2.5009-2.2207.3707-4.1846,1.4096-5.8392,3.0884h0Z"/>
  <path class="cls-1" d="M18.9203,16.4283l-.0091-.0003c-.1289-.0034-.2562-.0062-.3825-.0089-.2894-.0063-.5629-.0123-.8423-.0254-.4682-.0216-.9687-.0886-1.53-.2049-.0669-.0134-.1345-.0288-.2017-.0455-.0908-.0223-.1557-.0652-.1926-.1275-.0362-.061-.043-.1355-.0201-.2214l.0457-.1737c.058-.2216.118-.4509.1892-.6744.0823-.2585.1944-.5983.3325-.9336.1333-.3242.2898-.642.4251-.9101.2465-.4878.5472-.9704.919-1.4752.3993-.542.8658-1.0644,1.3864-1.5527.4667-.4375.9844-.8425,1.5387-1.2036.6388-.4165,1.3219-.77,2.0303-1.0507.6228-.2467,1.21-.4235,1.7952-.5403.3982-.0799.758-.1361,1.0998-.1717.4182-.0429.836-.0678,1.242-.0741.5069-.0077,1.0242.0287,1.5384.1083.2231.0343.4486.0749.6667.1142l.2427.0434c.0822.0144.1509.0585.1933.1243.0413.064.0531.142.0331.2198-.0166.0641-.0326.1281-.0487.1922-.0551.22-.1121.4475-.1868.6678-.1214.3575-.2693.7773-.4465,1.1808-.1789.407-.3729.792-.5764,1.1443-.3294.5713-.7292,1.1306-1.1883,1.6624-.5022.5816-1.0163,1.0724-1.5714,1.5004-.3424.2642-.7084.5055-1.0622.739l-.023.0151c-.376.2482-.7983.4728-1.2907.6866-.3273.1418-.689.2805-1.1056.4238-.2529.0874-.5266.1658-.8871.254-.3115.0759-.5888.1307-.8475.1676-.3008.043-.6045.0766-.8982.1089-.1203.0132-.2398.0264-.3582.0401l-.009.0011h0,0ZM16.3081,15.688c2.758.5145,5.3363.0602,7.6653-1.3508,2.4664-1.4939,4.1087-3.7059,4.8831-6.5756-3.3946-.5962-6.4342.1877-9.035,2.331-1.7381,1.432-2.9196,3.314-3.5134,5.5954h0Z"/>
  <path class="cls-1" d="M16.0407,16.0272c-.0454,0-.0865-.0101-.1229-.0305-.0619-.0347-.1051-.0958-.1283-.1815l-.0465-.1706c-.0608-.2221-.1236-.4518-.1741-.6818-.0583-.2673-.1313-.6195-.1786-.9748-.047-.3501-.0702-.7023-.0868-1.0006-.0303-.5486-.0111-1.1168.0587-1.7372.0753-.6708.2182-1.3566.4249-2.0385.1845-.61.4303-1.2197.7305-1.8121.3452-.6802.7602-1.3279,1.2335-1.9254.4159-.5249.8361-.9716,1.2845-1.3657.3083-.2716.592-.5002.8671-.6989.3396-.2459.6891-.4766,1.0384-.6855.4335-.2592.8997-.4867,1.3857-.676.2176-.0845.4399-.1645.6549-.2419l.2118-.0765c.0789-.0285.1607-.0246.2303.0115.0676.0349.1165.0966.1378.1738.0179.0646.0364.1293.0549.194.0619.2171.126.4415.171.6684.0733.3698.1548.8069.2033,1.246.0479.4405.0725.8708.0729,1.2792,0,.6609-.0668,1.3453-.1987,2.0342-.1443.7561-.3441,1.4381-.6108,2.0852-.1624.3952-.3561.7825-.5434,1.1572l-.0194.0389c-.2028.4049-.4562.8105-.7747,1.2403-.2134.2876-.4572.5884-.7455.92-.178.2047-.3818.4156-.6415.6636-.2291.2191-.4417.4053-.6498.5691-.2205.1729-.4429.3423-.6671.5097-.4458.3328-.947.5853-1.4397.8405-.4138.2145-.8807.4069-1.4274.5882-.066.0216-.1314.042-.1977.0612-.038.0111-.0738.0167-.1073.0167h0s0,0,0,0ZM23.1323,2.2981c-3.2383,1.1823-5.4785,3.3815-6.6597,6.5383-.7895,2.1097-.8721,4.3306-.2459,6.6034,2.6455-.9343,4.6511-2.6174,5.9629-5.0044,1.3891-2.5278,1.706-5.2649.9426-8.1372h0Z"/>
  <path class="cls-1" d="M15.9289,16.3515c-.0697,0-.1366-.0311-.1987-.0926l-.1319-.131c-.1615-.1599-.3286-.3254-.4851-.4973-.1962-.2157-.4259-.4739-.6421-.7545-.2101-.2727-.4005-.5568-.5749-.8232-.3-.4596-.5675-.9613-.8177-1.534-.2702-.6194-.489-1.2847-.6505-1.9776-.1453-.6225-.2371-1.2735-.2731-1.9348-.0412-.7609-.0056-1.5296.1059-2.2846.0979-.663.2385-1.26.4298-1.8253.1313-.3888.2627-.7286.4016-1.0387.1709-.3822.3582-.7567.5567-1.113.2466-.4433.5369-.8736.8627-1.2789.1437-.1792.2941-.3571.4396-.5293l.1515-.1796c.0539-.0642.1267-.1016.2048-.1054.0752-.0036.1492.0252.2064.0814.047.0462.0945.0921.1419.138.163.1578.3315.3209.4848.4959.2493.2847.5393.6234.7986.9772.2624.3581.4987.7186.7024,1.0716.3293.5698.6135,1.1958.8449,1.8607.2489.7153.4216,1.4257.5133,2.1116.0581.4368.0842.883.1095,1.3145.0271.4553.0105.9333-.0508,1.4642-.0411.3569-.1019.7395-.1856,1.1697-.0521.2676-.1233.5521-.224.8955-.0895.3069-.1806.5745-.2787.818-.111.2773-.2319.5528-.3487.8192-.0506.1155-.101.2302-.15.3441l-.0084.0161c-.0667.1088-.1322.2167-.1972.3237-.151.2488-.2936.4837-.4451.7204-.2514.3929-.5597.7929-.9423,1.2229-.0451.0512-.0923.102-.1401.152-.0647.0675-.1342.1022-.2064.1032h-.0032s0,0,0,0ZM15.3337.8795c-2.2134,2.6431-3.0545,5.6681-2.5,8.9936.3707,2.2215,1.409,4.1862,3.0871,5.8417,1.8246-2.1328,2.7205-4.5936,2.6633-7.3166-.06-2.8837-1.1535-5.4126-3.2504-7.5186,0,0,0,0,0,0Z"/>
  <g>
    <path class="cls-1" d="M16.4799,12.8937c-.0111.4181-.0158.8208-.0342,1.2231-.0235.5086-.0991,1.0117-.202,1.5101-.0137.0662-.0286.132-.0448.1973-.0265.1098-.085.149-.1922.1204-.2814-.0747-.5646-.1448-.8422-.2332-.3109-.0995-.6214-.2046-.9233-.3288-.3062-.126-.6047-.2716-.9007-.4215-.5121-.2592-.9946-.5676-1.4563-.9084-.5543-.4087-1.0638-.8686-1.5349-1.3713-.4416-.4719-.8362-.9805-1.1894-1.5221-.4134-.6346-.7597-1.3043-1.0386-2.0085-.228-.5761-.4121-1.1663-.5334-1.7736-.0722-.36-.132-.7239-.1695-1.089-.0423-.4087-.0675-.8204-.0735-1.2312-.0077-.5078.029-1.0151.1063-1.5178.0466-.3028.1038-.6047.1572-.9067.0167-.0931.094-.1495.1871-.1256.2844.0735.5727.1388.8503.2327.395.1341.7888.275,1.1702.4429.3861.17.7662.3596,1.1313.5701.5847.3374,1.13.7328,1.6421,1.1753.5449.4706,1.0438.984,1.4823,1.5532.2665.3463.5074.7128.7482,1.0783.2648.4019.4843.8306.6756,1.2718.1555.3592.293.7269.4202,1.0967.0986.287.1785.5812.2503.8759.0671.2759.1251.5552.1653.8358.0602.4211.1012.8447.1486,1.2539h0ZM7.8438,2.7894c-.6432,3.4648.1012,6.5678,2.3322,9.278,1.5139,1.8389,3.4644,3.0112,5.791,3.5908.5548-2.8148.1354-5.4528-1.341-7.8913-1.5618-2.5803-3.8402-4.2156-6.7822-4.9774h0Z"/>
    <g class="cls-2">
      <path class="cls-1" d="M6.6715,2.5041l.5437,13.8352,9.8357-.3865-.5437-13.8352s-9.8357.3865-9.8357.3865Z"/>
    </g>
  </g>
  <path class="cls-1" d="M16.0681,16.0809c-.0296,0-.0611-.0044-.0942-.0133l-.1735-.0456c-.2216-.058-.4509-.118-.6744-.1892-.2791-.0894-.6081-.1987-.9331-.3324-.3255-.1339-.6426-.2904-.9098-.4257-.4899-.248-.9722-.5488-1.4744-.9195-.5424-.3999-1.0647-.8665-1.5522-1.3867-.4358-.4657-.8405-.9837-1.2031-1.5396-.4163-.6392-.7697-1.3225-1.0504-2.0311-.2462-.622-.4227-1.2093-.5399-1.7955-.0802-.4003-.1363-.7604-.1714-1.1009-.0432-.4182-.0682-.8362-.0741-1.2424-.0076-.5062.0286-1.024.1078-1.539.0346-.2251.0756-.4526.1152-.6726l.0424-.2369c.0148-.0829.0593-.1517.125-.194.0637-.0409.1415-.0527.219-.0327.0638.0165.1278.0325.1916.0486.2202.0553.4478.1124.6678.1869.3571.1212.7765.269,1.1806.4469.4042.1779.7889.3719,1.1436.5764.5701.3289,1.1292.7291,1.6617,1.1892.581.5018,1.0716,1.0159,1.5,1.5719.2655.3452.5084.7138.7433,1.0703l.0104.0156c.2483.3769.4728.7992.6861,1.2912.142.3282.2806.6899.4238,1.1059.0879.2555.1685.5375.2536.8872.0758.3117.1306.589.1676.8478.043.3006.0764.604.1087.8975.0133.1209.0266.2409.0404.3598l.0011.009-.0002.009c-.0034.1283-.0063.2551-.0091.3809-.0064.2902-.0124.5644-.0252.8446-.0217.4678-.0885.9683-.2046,1.53-.014.0678-.0293.1353-.0459.2023-.0218.0903-.0646.1553-.1269.1925-.0376.0223-.0802.0335-.1274.0335h0,0ZM7.7435,2.6325c-.0037.0037-.0077.0111-.0097.0225l-.0425.2374c-.0394.2184-.0801.4443-.1142.6662-.077.501-.1123,1.0045-.1048,1.4965.0058.3988.0303.8092.0728,1.2201.0342.3324.0891.6847.1678,1.0771.1141.5713.2864,1.1442.5269,1.7518.2743.6928.6198,1.3609,1.0269,1.9859.3544.5434.75,1.0497,1.1757,1.5045.4768.5088.9874.965,1.5175,1.3558.4907.3623.9611.6557,1.4383.8973.2628.1331.5742.2868.8916.4174.3167.1304.6396.2376.9137.3253.217.0691.4429.1283.6614.1855l.1746.046c.012.0031.0201.0043.0251.0046.0027-.0054.0067-.0153.0107-.0319.016-.0645.0306-.1287.044-.1932.1133-.5485.1785-1.036.1994-1.4902.0127-.2771.0187-.5498.0251-.8385.0027-.1233.0054-.2474.0088-.373-.0134-.1164-.0264-.2339-.0394-.3522-.0321-.2914-.0653-.5928-.1077-.8893-.0359-.2506-.0891-.5201-.1629-.8237-.0833-.3419-.1618-.6167-.247-.8646-.141-.4098-.2773-.7656-.4167-1.0875-.2074-.4782-.4249-.8879-.6651-1.2523l-.0103-.0157c-.2324-.3527-.4726-.7174-.7325-1.0551-.4177-.5421-.8968-1.0441-1.4647-1.5345-.5204-.4497-1.0663-.8404-1.6225-1.1614-.3467-.1999-.7232-.3896-1.119-.5639-.3952-.1739-.8081-.3194-1.1597-.4388-.2102-.0712-.4328-.1271-.6481-.1811-.0645-.0162-.1289-.0324-.1931-.049-.0046-.0011-.0133-.0026-.0179.0003-.0006.0004-.0012.0009-.0018.0014l.1318.0341c2.9995.7768,5.3072,2.4707,6.8592,5.0348,1.4668,2.4227,1.9233,5.1082,1.357,7.9818l-.0259.1312-.1297-.0324c-2.3934-.5961-4.3644-1.8186-5.8585-3.6334-2.2203-2.6972-3.014-5.8538-2.3591-9.3821l.0248-.1336h0ZM7.9446,2.9476c-.5957,3.3964.1878,6.4368,2.3298,9.0388,1.4314,1.7387,3.3126,2.9208,5.5932,3.515.5141-2.7597.0602-5.3391-1.3503-7.6687-1.4934-2.4674-3.7043-4.1103-6.5726-4.8851h0Z"/>
  <path class="cls-1" d="M24.3011,29.256c-.0273,0-.0552-.0038-.083-.0115l-.2076-.057c-.2235-.0611-.4544-.1242-.6808-.1924-.4987-.15-.9814-.3402-1.4348-.5651-.365-.1809-.7316-.3833-1.0893-.6015-.2894-.1769-.5901-.3827-.9191-.6291-.4796-.3593-.9335-.7716-1.3875-1.2606-.5183-.558-.9828-1.1712-1.3803-1.8229-.3452-.5652-.6381-1.1538-.8708-1.7491-.2598-.6648-.4561-1.3371-.5834-1.9983-.1182-.6142-.1818-1.1792-.1944-1.7272-.007-.3007-.0116-.6551.0074-1.0045.0195-.3542.0626-.6971.1022-.9858.0317-.2301.0756-.4609.118-.684l.0345-.1829c.0164-.0873.0546-.1516.1137-.1911.0604-.0404.1377-.051.2292-.0319.0672.0139.1345.0293.2015.0459.5586.1375,1.039.2925,1.4688.4739.2576.1086.507.2209.7711.3398.1152.0518.2314.1041.3491.1566l.016.0085c.1014.0637.2042.1274.3076.1916.2507.1555.5098.3162.7624.4841.218.1451.4447.314.6928.5164.2875.2352.5006.4238.6913.6114.3171.3118.5838.5927.8152.8587.3517.4035.6361.7879.8697,1.1751l.0177.0295c.2177.3614.443.7351.6376,1.119.3126.617.5725,1.3002.7725,2.0307.1853.6782.3056,1.3552.3572,2.0124.0318.407.0411.8379.0276,1.281-.0136.443-.0606.8846-.105,1.2581-.0276.233-.0744.4648-.1197.689-.0127.0629-.0254.1258-.0377.1887-.0158.0792-.0601.1445-.1249.1843-.0436.0268-.0932.0405-.1449.0405h0s0,0,0,0ZM16.1975,16.1238c-.4456,2.315-.189,4.5227.7633,6.5638,1.4254,3.0547,3.8313,5.0711,7.1521,5.9949.5354-2.9238.0048-5.6274-1.578-8.0378-1.4948-2.2765-3.6264-3.797-6.3373-4.521h0Z"/>
  <path class="cls-1" d="M16.6278,31.53c-.0756,0-.1479-.0316-.2045-.0897l-.1644-.1665c-.1587-.1601-.3227-.3257-.4802-.4933-.3564-.3787-.6796-.7849-.9605-1.2074-.2267-.3412-.4426-.6997-.6421-1.0657-.1634-.2997-.321-.6281-.4819-1.0041-.235-.5486-.422-1.1328-.5716-1.7859-.1699-.7418-.2656-1.5053-.2846-2.269-.0162-.6623.0242-1.3185.1201-1.9505.1066-.7024.2727-1.3829.4937-2.0224.2052-.5923.4325-1.1136.6949-1.5936.1422-.2602.3137-.5667.5085-.8659.198-.3032.4145-.5882.581-.8026.143-.1843.2971-.3628.4461-.5353l.1198-.1391c.0574-.0674.1226-.104.1935-.1088.0728-.0051.1447.0243.2147.0869.0514.0461.102.0928.1518.1408.4137.397.7524.7715,1.035,1.1448.17.2246.331.4484.5016.6854.0726.1009.1458.2027.2204.3053l.0096.0153c.0565.1069.1141.2144.1722.3227.1388.259.2823.5267.4165.7974.1161.234.2278.4937.3419.7938.1313.3464.2218.6163.2933.8753.1188.4281.2094.8048.2768,1.1515.1028.5254.157,1.0007.1659,1.453l.0009.0476c.0078.4175.0159.8492-.0075,1.2746-.0374.6893-.1537,1.4109-.346,2.1448-.1774.6789-.4117,1.3255-.6962,1.9217-.1754.3681-.3827.746-.616,1.123-.2339.3776-.4952.7363-.7199,1.0371-.1416.1897-.2997.3688-.4526.5419-.041.0464-.0821.0929-.1228.1395-.0521.0603-.123.095-.1992.0973-.0027.0001-.0053.0001-.008.0001h0,0ZM16.0348,16.0661c-1.5431,1.7815-2.424,3.8216-2.6191,6.0662-.2923,3.3582.7832,6.3079,3.1973,8.7694,1.9252-2.264,2.817-4.8708,2.6508-7.7502-.1567-2.7197-1.2429-5.1027-3.2289-7.0854h0Z"/>
  <path class="cls-1" d="M8.7549,29.784c-.0441,0-.0871-.0106-.1262-.0315-.0689-.0369-.1185-.102-.1396-.183l-.0589-.2258c-.0573-.2185-.1165-.4446-.1694-.6689-.1194-.5066-.1963-1.0199-.2286-1.5257-.0255-.4073-.0333-.8261-.0233-1.2446.0083-.3408.036-.7041.0846-1.1108.0711-.5952.2011-1.1946.3977-1.8323.2237-.7282.5223-1.4374.8875-2.1075.3165-.581.6794-1.1292,1.0787-1.629.4443-.5559.9283-1.0621,1.4386-1.5046.4725-.4096.9297-.7473,1.3979-1.0324.254-.1548.5566-.3348.8735-.4955.321-.1631.6519-.3019.9043-.4045.2162-.088.4391-.1658.6547-.2409l.1721-.0602c.0839-.0294.1585-.0284.222.0028.065.0319.1128.0933.1423.1823.0215.0658.042.1316.0611.1974.16.5517.266,1.0456.324,1.5098.0347.2776.0622.5499.0914.8381.0127.1257.0255.2525.0391.3806l.001.0091-.0003.0091c-.0045.1218-.0084.2448-.0123.3686-.0092.2929-.0188.5958-.0378.8963-.0167.2623-.0495.5432-.1005.8587-.0584.3587-.1167.6462-.1835.9046-.1101.4265-.2198.798-.3355,1.1355-.174.5071-.3647.9458-.583,1.3412l-.0154.028c-.2042.3702-.4154.7529-.6509,1.1139-.3819.5861-.8305,1.1373-1.3716,1.6847-.4942.4999-1.0202.9426-1.5636,1.3159-.3367.2312-.705.4547-1.0948.6644-.3888.2086-.7953.3892-1.1417.5382-.2158.0927-.4404.1681-.6576.2409-.0604.0203-.1207.0406-.1808.0612-.0316.0108-.0635.0161-.095.0161h0ZM15.8361,16.06c-2.2269.7712-4.0094,2.0972-5.2999,3.9429-1.9313,2.7621-2.4739,5.8546-1.6135,9.194,2.7986-.9974,4.8737-2.809,6.1692-5.386,1.2231-2.4332,1.4733-5.0403.7442-7.7509h0,0Z"/>
  <path class="cls-1" d="M5.3231,24.5512c-.1287,0-.2587-.0019-.3897-.006-.4425-.0136-.8841-.0606-1.2578-.105-.2308-.0274-.4607-.074-.683-.1189-.0647-.0131-.1294-.0263-.1942-.0389-.0783-.0153-.1434-.0591-.1834-.1235-.0413-.0664-.0518-.1474-.0298-.2283l.0652-.2375c.0585-.2141.119-.4354.1843-.652.1502-.4997.3403-.9827.5647-1.4355.1804-.3644.3829-.731.6015-1.0898.1761-.2887.3816-.5893.6286-.9193.358-.4792.7702-.9333,1.2602-1.3883.5586-.5195,1.1717-.9842,1.8221-1.3811.5637-.3445,1.1518-.6376,1.7482-.8713.6646-.2599,1.3366-.4562,1.9975-.5834.6138-.1182,1.1787-.1818,1.7268-.1944.3005-.007.6548-.0115,1.004.0074.2845.0157.5883.0472.9852.1023.2306.0318.4621.0758.6859.1184l.1805.0341c.0872.0164.1515.0546.191.1137.0404.0603.0511.1375.0319.2292-.014.0675-.0288.1344-.0455.2017-.1379.5601-.293,1.0408-.4739,1.4693-.1092.2589-.222.5098-.3415.7753-.0513.114-.103.229-.1548.3454l-.0085.016c-.0656.1044-.1312.2103-.1972.3169-.1535.2478-.3122.504-.4781.7536-.1468.2207-.3158.4472-.5165.6929-.2284.2804-.4224.5002-.6103.6918-.3106.316-.5914.5828-.8584.8157-.4051.3527-.7895.6372-1.1753.8698l-.0338.0204c-.3597.2171-.7318.4415-1.1137.6354-.6172.3127-1.3001.5726-2.0299.7725-.6767.1856-1.3535.3059-2.0116.3577-.2864.0224-.5848.0336-.8908.0336h0s0,0,0,0ZM3.1471,23.8245c2.9221.5363,5.6247.0053,8.0344-1.5784,2.2757-1.4955,3.7954-3.6282,4.5185-6.3403-2.3143-.4456-4.5208-.1889-6.5604.7637-3.0536,1.4263-5.0691,3.8331-5.9925,7.155h0Z"/>
  <path class="cls-1" d="M7.7211,19.585c-.2111,0-.4232-.0038-.6337-.0152-.6907-.0379-1.412-.1543-2.1441-.3461-.6799-.1783-1.3263-.4127-1.9209-.6967-.3692-.1765-.7468-.3839-1.1225-.6165-.38-.2356-.7373-.4964-1.0368-.7204-.1862-.1388-.3618-.294-.5316-.444-.0496-.0439-.0993-.0877-.1492-.1312-.0605-.0527-.0951-.1236-.0974-.1995-.0023-.0781.0294-.1536.0893-.2124l.1483-.1466c.1662-.1646.338-.3349.5118-.4983.3769-.3556.7829-.679,1.2065-.961.3354-.2234.6938-.4396,1.0652-.6425.3009-.164.6292-.3216,1.0039-.4819.5481-.2352,1.132-.4223,1.785-.5721.744-.1704,1.5072-.2662,2.2683-.2846.6617-.0164,1.3176.0242,1.9495.1201.7032.1068,1.3834.273,2.0216.4941.5927.2055,1.1136.4328,1.5927.6949.2779.1523.5751.3192.8657.5091.303.1979.588.4144.8024.5809.1847.1438.3636.2982.5366.4476l.1374.1183c.0673.0578.1038.1229.1086.1937.0049.0723-.0242.1445-.0865.2146-.0462.0516-.093.1023-.141.152-.3987.4156-.7731.7545-1.1444,1.0355-.2163.1638-.4341.3247-.6523.4853-.4544.3336-.9692.5862-1.4731.8358-.2349.1165-.4944.2283-.7932.3419-.3398.1289-.6177.2222-.8747.2936-.4243.1177-.8009.2083-1.1512.2769-.5239.1025-.999.1566-1.4522.1655l-.0161.0003c-.2211.0043-.446.0088-.672.0088h0ZM.7131,16.3929c2.2627,1.926,4.8683,2.8181,7.747,2.6521,2.7183-.1571,5.1003-1.2439,7.082-3.2306-1.7811-1.5439-3.8204-2.4254-6.0633-2.6204-3.3574-.2928-6.3055.7838-8.7656,3.199h0Z"/>
  <path class="cls-1" d="M12.7803,16.4884c-.3893.0082-.7787-.0094-1.1684-.0341-.2628-.0171-.5433-.0501-.8578-.1008-.3581-.0582-.6453-.1164-.904-.183-.4294-.1114-.8007-.2213-1.1352-.336-.5073-.1745-.9458-.3653-1.3407-.5834l-.0213-.0117c-.3721-.2054-.757-.4177-1.1201-.6546-.5794-.3782-1.1459-.8399-1.6839-1.3725-.4993-.494-.9418-1.0202-1.3154-1.5639-.2296-.3344-.453-.703-.664-1.0957-.2109-.3929-.3902-.7979-.5378-1.1422-.0914-.213-.1661-.4349-.2382-.6495-.0212-.0631-.0424-.1262-.0641-.189-.0261-.0756-.0206-.1542.0155-.2212.0371-.069.1022-.1186.1832-.1395l.2139-.056c.2223-.0585.4522-.1188.6804-.1727.5061-.1193,1.0191-.1962,1.5248-.2286.4074-.0258.8261-.0338,1.2443-.0233.3365.0078.6996.0355,1.1099.0846.5947.071,1.1939.2011,1.8318.3977.7292.2245,1.438.5233,2.1067.8879.5813.3174,1.1291.6806,1.6282,1.0796.5563.4449,1.0624.9291,1.5042,1.439.4096.4729.7469.9303,1.0315,1.3983.1557.2555.3363.5591.4955.8739.1603.3159.2944.6345.4045.9045.0887.2177.1667.4423.2423.6595l.0585.1676c.0295.0835.0287.1582-.0026.222-.0319.0652-.0934.1132-.1826.1426-.0652.0215-.1311.042-.1969.0612-.5537.1605-1.0474.2667-1.5094.3244-.2342.0293-.4692.0516-.7037.0765-.2096.0223-.4191.0342-.6287.0386h0ZM2.3,8.6449c.997,2.7998,2.8077,4.876,5.3836,6.1718,2.4327,1.2237,5.0388,1.474,7.7479.7447-.7711-2.2277-2.0966-4.0111-3.9413-5.3022-2.7608-1.9323-5.8521-2.4752-9.1901-1.6144h0Z"/>
</svg>