<?xml version="1.0" encoding="UTF-8"?>
<svg id="Layer_1" data-name="Layer 1" xmlns="http://www.w3.org/2000/svg" xmlns:xlink="http://www.w3.org/1999/xlink" viewBox="0 0 1366 1127.3299">
  <defs>
    <style>
      .cls-1 {
        clip-path: url(#clippath-1);
      }

      .cls-2 {
        clip-path: url(#clippath-2);
      }

      .cls-3 {
        fill: #fff;
      }

      .cls-4 {
        fill: #2c6560;
      }

      .cls-5 {
        clip-path: url(#clippath);
      }
    </style>
    <clipPath id="clippath">
      <rect class="cls-3" y="0" width="1365.3334" height="1126.7032"/>
    </clipPath>
    <clipPath id="clippath-1">
      <rect class="cls-3" y="-.1563" width="1365.3334" height="1127.9999"/>
    </clipPath>
    <clipPath id="clippath-2">
      <rect class="cls-3" y="0" width="1364" height="1126.703"/>
    </clipPath>
  </defs>
  <g>
    <rect class="cls-3" y="0" width="1365.3334" height="1126.7032"/>
    <g class="cls-5">
      <g>
        <rect class="cls-3" y="-.1563" width="1365.3334" height="1127.9999"/>
        <g class="cls-1">
          <g>
            <rect class="cls-3" y="0" width="1364" height="1126.703"/>
            <g class="cls-2">
              <path class="cls-3" d="M-.8958,0h1364.3646v1126.7032H-.8958V0Z"/>
            </g>
          </g>
        </g>
      </g>
    </g>
  </g>
  <path class="cls-4" d="M592.6301,475.7194c5.5938,0,10.8385,1.6146,15.7292,4.8333,4.8854,3.224,8.8385,7.5781,11.8542,13.0625,3.0104,5.4896,4.5208,11.6146,4.5208,18.375,0,6.6667-1.5104,12.7448-4.5208,18.2292-3.0156,5.4896-6.9688,9.8698-11.8542,13.1458-4.8906,3.2813-10.1354,4.9167-15.7292,4.9167h-29.6667l1.625-2.8958v33.375c0,2.7917-.8646,5.1354-2.5833,7.0208-1.724,1.875-3.9792,2.8125-6.7708,2.8125-2.6979,0-4.9063-.9375-6.625-2.8125-1.7083-1.8854-2.5625-4.2292-2.5625-7.0208v-93.2083c0-2.7917.9375-5.125,2.8125-7,1.875-1.8854,4.2135-2.8333,7.0208-2.8333h36.75ZM592.6301,529.9069c2.0417,0,4.026-.8594,5.9583-2.5833,1.9427-1.7188,3.5625-3.9479,4.8542-6.6875,1.2917-2.75,1.9375-5.6302,1.9375-8.6458,0-3.1094-.6458-6.0052-1.9375-8.6875-1.2917-2.6927-2.9115-4.875-4.8542-6.5417-1.9323-1.6667-3.9167-2.5-5.9583-2.5h-29.9792l1.9375-2.8958v41.1042l-1.7917-2.5625h29.8333Z"/>
  <path class="cls-4" d="M648.1176,588.5944c-2.8073,0-5.125-.9375-6.9583-2.8125-1.8229-1.8854-2.7292-4.2292-2.7292-7.0208v-66.6042c0-2.7917.9062-5.125,2.7292-7,1.8333-1.8854,4.151-2.8333,6.9583-2.8333,2.7917,0,5.0938.9479,6.9167,2.8333,1.8333,1.875,2.75,4.2083,2.75,7v15.1667l-1.125-10.8125c1.1771-2.5833,2.7083-4.8646,4.5833-6.8542,1.8854-1.9844,4.0104-3.6458,6.375-4.9792,2.3594-1.3438,4.8802-2.3385,7.5625-2.9792,2.6927-.651,5.3854-.9792,8.0833-.9792,3.2188,0,5.9271.9167,8.125,2.75,2.2083,1.8229,3.3125,3.9688,3.3125,6.4375,0,3.5417-.9167,6.099-2.75,7.6667-1.8229,1.5573-3.8073,2.3333-5.9583,2.3333-2.0417,0-3.8958-.375-5.5625-1.125-1.6667-.7604-3.5729-1.1458-5.7083-1.1458-1.9479,0-3.9115.4583-5.8958,1.375-1.9896.9167-3.8125,2.349-5.4792,4.2917-1.6667,1.9323-3.0156,4.3229-4.0417,7.1667-1.0156,2.849-1.5208,6.2031-1.5208,10.0625v38.2292c0,2.7917-.9167,5.1354-2.75,7.0208-1.8229,1.875-4.125,2.8125-6.9167,2.8125Z"/>
  <path class="cls-4" d="M723.4163,578.761c0,2.7917-.9167,5.1354-2.75,7.0208-1.8229,1.875-4.1354,2.8125-6.9375,2.8125-2.7917,0-5.1042-.9375-6.9375-2.8125-1.8229-1.8854-2.7292-4.2292-2.7292-7.0208v-66.6042c0-2.7917.9062-5.125,2.7292-7,1.8333-1.8854,4.1458-2.8333,6.9375-2.8333,2.8021,0,5.1146.9479,6.9375,2.8333,1.8333,1.875,2.75,4.2083,2.75,7v66.6042ZM713.583,491.8444c-3.6563,0-6.2396-.5885-7.75-1.7708-1.5-1.1771-2.25-3.276-2.25-6.2917v-3.0625c0-3.125.8333-5.25,2.5-6.375s4.2187-1.6875,7.6667-1.6875c3.7604,0,6.3958.5938,7.8958,1.7708,1.5,1.1823,2.25,3.2813,2.25,6.2917v3.0625c0,3.1146-.8073,5.2396-2.4167,6.375-1.6146,1.125-4.2448,1.6875-7.8958,1.6875Z"/>
  <path class="cls-4" d="M786.142,500.7194c7.9583,0,14,1.6667,18.125,5,4.1354,3.3333,6.9844,7.7708,8.5417,13.3125,1.5677,5.5313,2.3542,11.6771,2.3542,18.4375v41.2917c0,2.7917-.9167,5.1354-2.75,7.0208-1.8229,1.875-4.125,2.8125-6.9167,2.8125-2.8073,0-5.125-.9375-6.9583-2.8125-1.8229-1.8854-2.7292-4.2292-2.7292-7.0208v-41.2917c0-3.5417-.4583-6.7344-1.375-9.5833-.9063-2.8438-2.5417-5.1302-4.9167-6.8542-2.3646-1.7188-5.7448-2.5833-10.1458-2.5833-4.3073,0-7.9375.8646-10.8958,2.5833-2.9583,1.724-5.2188,4.0104-6.7708,6.8542-1.5573,2.849-2.3333,6.0417-2.3333,9.5833v41.2917c0,2.7917-.9167,5.1354-2.75,7.0208-1.8229,1.875-4.125,2.8125-6.9167,2.8125-2.8073,0-5.125-.9375-6.9583-2.8125-1.8229-1.8854-2.7292-4.2292-2.7292-7.0208v-66.6042c0-2.7917.9062-5.125,2.7292-7,1.8333-1.8854,4.151-2.8333,6.9583-2.8333,2.7917,0,5.0938.9479,6.9167,2.8333,1.8333,1.875,2.75,4.2083,2.75,7v6.9375l-2.4167-.4792c.9583-1.8333,2.3542-3.7969,4.1875-5.8958,1.8333-2.0938,3.9844-4.0521,6.4583-5.875,2.4688-1.8333,5.2604-3.3125,8.375-4.4375,3.125-1.125,6.5104-1.6875,10.1667-1.6875Z"/>
  <path class="cls-4" d="M833.8758,503.9277h38.2083c2.5833,0,4.7292.8646,6.4375,2.5833,1.7188,1.724,2.5833,3.875,2.5833,6.4583,0,2.474-.8646,4.5417-2.5833,6.2083-1.7083,1.6667-3.8542,2.5-6.4375,2.5h-38.2083c-2.5833,0-4.7396-.8594-6.4583-2.5833-1.724-1.7188-2.5833-3.875-2.5833-6.4583,0-2.4688.8594-4.5417,2.5833-6.2083,1.7187-1.6667,3.875-2.5,6.4583-2.5ZM851.1258,483.7819c2.7917,0,5.0677.9479,6.8333,2.8333,1.776,1.875,2.6667,4.2083,2.6667,7v71.75c0,1.5156.2969,2.7604.8958,3.7292.5938.9583,1.401,1.6563,2.4167,2.0833,1.026.4323,2.1302.6458,3.3125.6458,1.2917,0,2.4688-.2396,3.5417-.7292,1.0677-.4844,2.3021-.7292,3.7083-.7292,1.5,0,2.8646.7031,4.1042,2.1042,1.2344,1.4063,1.8542,3.3437,1.8542,5.8125,0,3-1.6406,5.474-4.9167,7.4167-3.2813,1.9323-6.8021,2.8958-10.5625,2.8958-2.25,0-4.75-.1875-7.5-.5625-2.7396-.375-5.3125-1.2812-7.7292-2.7292-2.4167-1.4583-4.4323-3.6927-6.0417-6.7083-1.6146-3.0104-2.4167-7.151-2.4167-12.4167v-72.5625c0-2.7917.9375-5.125,2.8125-7,1.875-1.8854,4.2135-2.8333,7.0208-2.8333Z"/>
</svg>