<?xml version="1.0" encoding="UTF-8"?>
<svg id="Layer_1" data-name="Layer 1" xmlns="http://www.w3.org/2000/svg" xmlns:xlink="http://www.w3.org/1999/xlink" viewBox="0 0 1366 1103.9997">
  <defs>
    <style>
      .cls-1 {
        fill: none;
      }

      .cls-2 {
        clip-path: url(#clippath-1);
      }

      .cls-3 {
        clip-path: url(#clippath-2);
      }

      .cls-4 {
        fill: #fff;
      }

      .cls-5 {
        fill: #2c6560;
      }

      .cls-6 {
        clip-path: url(#clippath);
      }
    </style>
    <clipPath id="clippath">
      <rect class="cls-1" x="-1.0336" width="1365.3334" height="1103.9997"/>
    </clipPath>
    <clipPath id="clippath-1">
      <rect class="cls-1" x="-1.0336" y="-.7136" width="1365.3334" height="1105.3188"/>
    </clipPath>
    <clipPath id="clippath-2">
      <rect class="cls-1" x="-1.0336" width="1365.3334" height="1104.0002"/>
    </clipPath>
  </defs>
  <g>
    <rect class="cls-4" x="-1.0336" width="1365.3334" height="1103.9997"/>
    <g class="cls-6">
      <g>
        <rect class="cls-4" x="-1.0336" y="-.7136" width="1365.3334" height="1105.3188"/>
        <g class="cls-2">
          <g>
            <rect class="cls-4" x="-1.0336" width="1365.3334" height="1104.0002"/>
            <g class="cls-3">
              <path class="cls-4" d="M-4.3357,0h1385.6667v1104.0001H-4.3357V0Z"/>
            </g>
          </g>
        </g>
      </g>
    </g>
  </g>
  <path class="cls-5" d="M319.3982,491.0244l-34.8333,81.9167c-.75,2.0417-1.9115,3.6354-3.4792,4.7708-1.5573,1.125-3.2448,1.6875-5.0625,1.6875-2.9063,0-5.0573-.8073-6.4583-2.4167-1.4063-1.625-2.1042-3.6146-2.1042-5.9792,0-.9583.1667-1.9792.5-3.0625l40.1458-96.4167c.8594-2.151,2.1719-3.8177,3.9375-5,1.776-1.1771,3.6875-1.6667,5.7292-1.4583,1.9427,0,3.75.5729,5.4167,1.7083,1.6667,1.125,2.875,2.7083,3.625,4.75l39.6667,94.4792c.526,1.4063.7917,2.6979.7917,3.875,0,2.9063-.9375,5.2187-2.8125,6.9375-1.875,1.724-3.9479,2.5833-6.2083,2.5833-1.9323,0-3.6823-.5938-5.25-1.7708-1.5573-1.1927-2.7656-2.8125-3.625-4.8542l-34.6667-80.7708,4.6875-.9792h0ZM289.5649,553.2744l8.8542-18.5417h43.5417l3.0625,18.5417h-55.4584Z"/>
  <path class="cls-5" d="M446.774,459.2536c2.7917,0,5.1042.9167,6.9375,2.75s2.75,4.2031,2.75,7.1042v99.6458c0,2.7917-.9167,5.1354-2.75,7.0208-1.8333,1.875-4.1458,2.8125-6.9375,2.8125s-5.1042-.9375-6.9375-2.8125c-1.8229-1.8854-2.7292-4.2292-2.7292-7.0208v-7.8958l3.5417,1.4375c0,1.4063-.7604,3.099-2.2708,5.0833-1.5,1.9896-3.5417,3.9531-6.125,5.8958-2.5729,1.9323-5.6042,3.5729-9.1042,4.9167-3.4896,1.3333-7.2708,2-11.3542,2-7.4167,0-14.1406-1.901-20.1667-5.7083-6.0156-3.8177-10.7708-9.0885-14.2708-15.8125-3.4896-6.7188-5.2292-14.4375-5.2292-23.1458,0-8.8021,1.7396-16.5677,5.2292-23.2917,3.5-6.7188,8.1979-11.9844,14.1042-15.7917,5.9167-3.8177,12.4792-5.7292,19.6875-5.7292,4.625,0,8.8646.7031,12.7292,2.1042,3.875,1.3906,7.2344,3.1615,10.0833,5.3125,2.8438,2.1563,5.0469,4.3333,6.6042,6.5417,1.5521,2.1979,2.3333,4.0417,2.3333,5.5417l-5.7917,2.1042v-43.2083c0-2.8021.9063-5.1458,2.7292-7.0208,1.8333-1.8854,4.1458-2.8333,6.9375-2.8333h0ZM414.2115,562.4619c4.7188,0,8.8542-1.1771,12.3958-3.5417,3.5521-2.375,6.3229-5.6042,8.3125-9.6875,2-4.0833,3-8.651,3-13.7083,0-5.151-1-9.7708-3-13.8542-1.9896-4.0833-4.7604-7.3021-8.3125-9.6667-3.5417-2.375-7.6771-3.5625-12.3958-3.5625-4.625,0-8.7188,1.1875-12.2708,3.5625-3.5417,2.3646-6.3073,5.5833-8.2917,9.6667-1.9896,4.0833-2.9792,8.7031-2.9792,13.8542,0,5.0573.9896,9.625,2.9792,13.7083,1.9844,4.0833,4.75,7.3125,8.2917,9.6875,3.5521,2.3646,7.6458,3.5417,12.2708,3.5417Z"/>
  <path class="cls-5" d="M478.0635,492.3161c2.0417,0,3.9219.5156,5.6458,1.5417,1.7188,1.0156,3.0104,2.5417,3.875,4.5833l23.6875,54.1875-3.5417,1.6042,24.1875-55.625c1.8333-4.3021,4.6771-6.3438,8.5417-6.125,2.6927,0,4.875.8333,6.5417,2.5s2.5,3.7396,2.5,6.2083c0,.75-.1406,1.5573-.4167,2.4167-.2656.8646-.5573,1.6667-.875,2.4167l-30.1667,66.4375c-1.7083,3.875-4.4479,5.9167-8.2083,6.125-2.0417.3177-4.0104-.0521-5.8958-1.125-1.875-1.0833-3.3021-2.75-4.2708-5l-30-66.4375c-.2083-.5417-.4531-1.2396-.7292-2.1042-.2656-.8594-.3958-1.8802-.3958-3.0625,0-1.9271.8594-3.8333,2.5833-5.7083,1.7187-1.8854,4.0313-2.8333,6.9375-2.8333h0Z"/>
  <path class="cls-5" d="M602.2314,580.1911c-9.1406,0-17.0729-1.901-23.7917-5.7083-6.724-3.8177-11.8854-9.0052-15.4792-15.5625-3.599-6.5521-5.3958-13.9688-5.3958-22.25,0-9.6771,1.9583-17.9271,5.875-24.75,3.9271-6.8333,9.0625-12.0729,15.3958-15.7292,6.3438-3.651,13.0677-5.4792,20.1667-5.4792,5.4844,0,10.6719,1.1354,15.5625,3.3958,4.8854,2.25,9.2135,5.3438,12.9792,9.2708,3.7604,3.9167,6.7396,8.4583,8.9375,13.625,2.2083,5.1563,3.3125,10.6354,3.3125,16.4375-.1146,2.5833-1.1354,4.6823-3.0625,6.2917-1.9323,1.6146-4.1875,2.4167-6.7708,2.4167h-61.6042l-4.8333-16.125h59.1875l-3.5625,3.2292v-4.3542c-.2083-3.125-1.3125-5.9219-3.3125-8.3958-1.9896-2.4688-4.4583-4.4271-7.4167-5.875-2.9479-1.4583-6.0833-2.1875-9.4167-2.1875-3.224,0-6.2396.4323-9.0417,1.2917-2.7917.8646-5.2083,2.3125-7.25,4.3542s-3.6563,4.7865-4.8333,8.2292c-1.1823,3.4323-1.7708,7.7865-1.7708,13.0625,0,5.8073,1.2083,10.724,3.625,14.75,2.4167,4.0313,5.5313,7.0938,9.3542,9.1875,3.8177,2.099,7.875,3.1458,12.1667,3.1458,3.9844,0,7.1563-.3177,9.5208-.9583,2.3594-.651,4.2604-1.4271,5.7083-2.3333,1.4583-.9167,2.776-1.6979,3.9583-2.3542,1.9427-.9688,3.7708-1.4583,5.4792-1.4583,2.375,0,4.3385.8125,5.8958,2.4375,1.5521,1.6146,2.3333,3.4896,2.3333,5.625,0,2.9063-1.5104,5.5417-4.5208,7.9167-2.7917,2.3646-6.7188,4.4323-11.7708,6.2083-5.0417,1.7604-10.25,2.6458-15.625,2.6458h0Z"/>
  <path class="cls-5" d="M663.1852,578.5869c-2.8073,0-5.125-.9375-6.9583-2.8125-1.8229-1.8854-2.7292-4.2292-2.7292-7.0208v-66.6042c0-2.7917.9062-5.125,2.7292-7,1.8333-1.8854,4.151-2.8333,6.9583-2.8333,2.7917,0,5.0938.9479,6.9167,2.8333,1.8333,1.875,2.75,4.2083,2.75,7v15.1667l-1.125-10.8125c1.1771-2.5833,2.7083-4.8646,4.5833-6.8542,1.8854-1.9844,4.0104-3.6458,6.375-4.9792,2.3594-1.3438,4.8802-2.3385,7.5625-2.9792,2.6927-.651,5.3854-.9792,8.0833-.9792,3.2188,0,5.9271.9167,8.125,2.75,2.2083,1.8229,3.3125,3.9688,3.3125,6.4375,0,3.5417-.9167,6.099-2.75,7.6667-1.8229,1.5573-3.8073,2.3333-5.9583,2.3333-2.0417,0-3.8958-.375-5.5625-1.125-1.6667-.7604-3.5729-1.1458-5.7083-1.1458-1.9479,0-3.9115.4583-5.8958,1.375-1.9896.9167-3.8125,2.349-5.4792,4.2917-1.6667,1.9323-3.0156,4.3229-4.0417,7.1667-1.0156,2.849-1.5208,6.2031-1.5208,10.0625v38.2292c0,2.7917-.9167,5.1354-2.75,7.0208-1.8229,1.875-4.125,2.8125-6.9167,2.8125Z"/>
  <path class="cls-5" d="M721.234,493.9202h38.2083c2.5833,0,4.7292.8646,6.4375,2.5833,1.7188,1.724,2.5833,3.875,2.5833,6.4583,0,2.474-.8646,4.5417-2.5833,6.2083-1.7083,1.6667-3.8542,2.5-6.4375,2.5h-38.2083c-2.5833,0-4.7396-.8594-6.4583-2.5833-1.724-1.7188-2.5833-3.875-2.5833-6.4583,0-2.4688.8594-4.5417,2.5833-6.2083,1.7187-1.6667,3.875-2.5,6.4583-2.5h0ZM738.484,473.7744c2.7917,0,5.0677.9479,6.8333,2.8333,1.776,1.875,2.6667,4.2083,2.6667,7v71.75c0,1.5156.2969,2.7604.8958,3.7292.5938.9583,1.401,1.6563,2.4167,2.0833,1.026.4323,2.1302.6458,3.3125.6458,1.2917,0,2.4688-.2396,3.5417-.7292,1.0677-.4844,2.3021-.7292,3.7083-.7292,1.5,0,2.8646.7031,4.1042,2.1042,1.2344,1.4063,1.8542,3.3437,1.8542,5.8125,0,3-1.6406,5.474-4.9167,7.4167-3.2813,1.9323-6.8021,2.8958-10.5625,2.8958-2.25,0-4.75-.1875-7.5-.5625-2.7396-.375-5.3125-1.2812-7.7292-2.7292-2.4167-1.4583-4.4323-3.6927-6.0417-6.7083-1.6146-3.0104-2.4167-7.151-2.4167-12.4167v-72.5625c0-2.7917.9375-5.125,2.8125-7,1.875-1.8854,4.2135-2.8333,7.0208-2.8333h0Z"/>
  <path class="cls-5" d="M801.2099,568.7536c0,2.7917-.9167,5.1354-2.75,7.0208-1.8229,1.875-4.1354,2.8125-6.9375,2.8125-2.7917,0-5.1042-.9375-6.9375-2.8125-1.8229-1.8854-2.7292-4.2292-2.7292-7.0208v-66.6042c0-2.7917.9062-5.125,2.7292-7,1.8333-1.8854,4.1458-2.8333,6.9375-2.8333,2.8021,0,5.1146.9479,6.9375,2.8333,1.8333,1.875,2.75,4.2083,2.75,7v66.6042ZM791.3766,481.8369c-3.6563,0-6.2396-.5885-7.75-1.7708-1.5-1.1771-2.25-3.276-2.25-6.2917v-3.0625c0-3.125.8333-5.25,2.5-6.375s4.2187-1.6875,7.6667-1.6875c3.7604,0,6.3958.5938,7.8958,1.7708,1.5,1.1823,2.25,3.2813,2.25,6.2917v3.0625c0,3.1146-.8073,5.2396-2.4167,6.375-1.6146,1.125-4.2448,1.6875-7.8958,1.6875Z"/>
  <path class="cls-5" d="M812.8105,565.2119c-1.0729-1.5104-1.5573-3.4479-1.4583-5.8125.1094-2.3594,1.5104-4.401,4.2083-6.125,1.7188-1.0833,3.5469-1.5417,5.4792-1.375,1.9271.1667,3.8125,1.1615,5.6458,2.9792,3.1094,3.125,6.3854,5.5521,9.8333,7.2708,3.4427,1.7083,7.7396,2.5625,12.8958,2.5625,1.6094-.0937,3.3802-.3333,5.3125-.7083,1.9427-.3854,3.6354-1.25,5.0833-2.5833,1.4583-1.3437,2.1875-3.4167,2.1875-6.2083,0-2.375-.8073-4.2552-2.4167-5.6458-1.6146-1.401-3.7396-2.5833-6.375-3.5417-2.6406-.9688-5.5729-1.8854-8.7917-2.75-3.3333-.9688-6.75-2.0469-10.25-3.2292-3.4896-1.1771-6.6823-2.7083-9.5833-4.5833-2.9063-1.8854-5.2708-4.3854-7.1042-7.5-1.8229-3.125-2.7292-7.0469-2.7292-11.7708,0-5.375,1.5-9.9427,4.5-13.7083,3.0104-3.7604,6.9063-6.6667,11.6875-8.7083,4.7917-2.0417,9.8229-3.0625,15.1042-3.0625,3.3333,0,6.8229.4063,10.4792,1.2083,3.651.8073,7.1458,2.099,10.4792,3.875,3.3333,1.7656,6.125,4.099,8.375,7,1.1771,1.6146,1.875,3.5521,2.0833,5.8125.2188,2.25-.7917,4.2917-3.0417,6.125-1.6146,1.2917-3.4948,1.8646-5.6458,1.7083-2.1563-.1667-3.9271-.8958-5.3125-2.1875-1.8333-2.375-4.2865-4.2552-7.3542-5.6458-3.0573-1.401-6.5781-2.1042-10.5625-2.1042-1.6146,0-3.3646.1875-5.25.5625-1.875.375-3.5156,1.1823-4.9167,2.4167-1.3906,1.2396-2.0833,3.2031-2.0833,5.8958,0,2.474.8021,4.4375,2.4167,5.8958,1.6094,1.4479,3.7813,2.625,6.5208,3.5417,2.75.9063,5.6875,1.7865,8.8125,2.6458,3.2188.8646,6.5,1.8906,9.8333,3.0833,3.3333,1.1823,6.3958,2.7396,9.1875,4.6667,2.7917,1.9323,5.0469,4.4323,6.7708,7.5,1.7188,3.0573,2.5833,6.9531,2.5833,11.6875,0,5.4896-1.6198,10.1667-4.8542,14.0417-3.224,3.8646-7.25,6.7865-12.0833,8.7708s-9.7813,2.9792-14.8333,2.9792c-6.349,0-12.6979-1.099-19.0417-3.2917-6.3333-2.2083-11.599-6.1042-15.7917-11.6875h.0002Z"/>
  <path class="cls-5" d="M910.5368,568.7536c0,2.7917-.9167,5.1354-2.75,7.0208-1.8229,1.875-4.1354,2.8125-6.9375,2.8125-2.7917,0-5.1042-.9375-6.9375-2.8125-1.8229-1.8854-2.7292-4.2292-2.7292-7.0208v-66.6042c0-2.7917.9062-5.125,2.7292-7,1.8333-1.8854,4.1458-2.8333,6.9375-2.8333,2.8021,0,5.1146.9479,6.9375,2.8333,1.8333,1.875,2.75,4.2083,2.75,7v66.6042ZM900.7035,481.8369c-3.6563,0-6.2396-.5885-7.75-1.7708-1.5-1.1771-2.25-3.276-2.25-6.2917v-3.0625c0-3.125.8333-5.25,2.5-6.375s4.2187-1.6875,7.6667-1.6875c3.7604,0,6.3958.5938,7.8958,1.7708,1.5,1.1823,2.25,3.2813,2.25,6.2917v3.0625c0,3.1146-.8073,5.2396-2.4167,6.375-1.6146,1.125-4.2448,1.6875-7.8958,1.6875Z"/>
  <path class="cls-5" d="M973.2624,490.7119c7.9583,0,14,1.6667,18.125,5,4.1354,3.3333,6.9844,7.7708,8.5417,13.3125,1.5677,5.5313,2.3542,11.6771,2.3542,18.4375v41.2917c0,2.7917-.9167,5.1354-2.75,7.0208-1.8229,1.875-4.125,2.8125-6.9167,2.8125-2.8073,0-5.125-.9375-6.9583-2.8125-1.8229-1.8854-2.7292-4.2292-2.7292-7.0208v-41.2917c0-3.5417-.4583-6.7344-1.375-9.5833-.9063-2.8438-2.5417-5.1302-4.9167-6.8542-2.3646-1.7188-5.7448-2.5833-10.1458-2.5833-4.3073,0-7.9375.8646-10.8958,2.5833-2.9583,1.724-5.2188,4.0104-6.7708,6.8542-1.5573,2.849-2.3333,6.0417-2.3333,9.5833v41.2917c0,2.7917-.9167,5.1354-2.75,7.0208-1.8229,1.875-4.125,2.8125-6.9167,2.8125-2.8073,0-5.125-.9375-6.9583-2.8125-1.8229-1.8854-2.7292-4.2292-2.7292-7.0208v-66.6042c0-2.7917.9062-5.125,2.7292-7,1.8333-1.8854,4.151-2.8333,6.9583-2.8333,2.7917,0,5.0938.9479,6.9167,2.8333,1.8333,1.875,2.75,4.2083,2.75,7v6.9375l-2.4167-.4792c.9583-1.8333,2.3542-3.7969,4.1875-5.8958,1.8333-2.0938,3.9844-4.0521,6.4583-5.875,2.4688-1.8333,5.2604-3.3125,8.375-4.4375,3.125-1.125,6.5104-1.6875,10.1667-1.6875h0Z"/>
  <path class="cls-5" d="M1055.8086,490.7119c4.5104,0,8.651.7031,12.4167,2.1042,3.7604,1.3906,7.0104,3.1615,9.75,5.3125,2.75,2.1563,4.901,4.3333,6.4583,6.5417,1.5521,2.1979,2.3333,4.0417,2.3333,5.5417l-4.1875,2.1042v-11.7708c0-2.7917.9062-5.125,2.7292-7,1.8333-1.8854,4.151-2.8333,6.9583-2.8333,2.7917,0,5.0938.9167,6.9167,2.75,1.8333,1.8229,2.75,4.1823,2.75,7.0833v71.75c0,9.3594-2.0156,16.8594-6.0417,22.5-4.0312,5.6354-9.3281,9.7188-15.8958,12.25-6.5573,2.526-13.599,3.7917-21.125,3.7917-2.1406,0-4.9323-.2708-8.375-.8125-3.4479-.5313-6.7292-1.1771-9.8542-1.9375-3.1146-.75-5.474-1.4479-7.0833-2.0833-3.224-1.4063-5.4531-3.1563-6.6875-5.25-1.2396-2.099-1.4792-4.3281-.7292-6.6875.9688-3.1146,2.526-5.2396,4.6667-6.375,2.151-1.125,4.4167-1.2604,6.7917-.3958,1.0677.3177,2.8385.9635,5.3125,1.9375,2.4688.9688,5.1875,1.8594,8.1458,2.6667,2.9583.8021,5.5625,1.2083,7.8125,1.2083,8.0677,0,14.0312-1.6198,17.8958-4.8542,3.875-3.224,5.8125-7.6823,5.8125-13.375v-14.0208l1.9375,1.4375c0,1.4063-.7292,3.099-2.1875,5.0833-1.4479,1.9896-3.4323,3.9531-5.9583,5.8958-2.5312,1.9323-5.5156,3.5729-8.9583,4.9167-3.4323,1.3333-7.0833,2-10.9583,2-7.625,0-14.5104-1.901-20.6458-5.7083-6.125-3.8177-10.9583-9.0885-14.5-15.8125-3.5417-6.7188-5.3125-14.4375-5.3125-23.1458,0-8.8021,1.7708-16.5677,5.3125-23.2917,3.5417-6.7188,8.3177-11.9844,14.3333-15.7917,6.026-3.8177,12.75-5.7292,20.1667-5.7292h-.0002ZM1058.8711,508.4411c-4.8333,0-9.0781,1.1875-12.7292,3.5625-3.6562,2.3646-6.5,5.5833-8.5417,9.6667s-3.0625,8.7031-3.0625,13.8542c0,5.0573,1.0208,9.625,3.0625,13.7083s4.8854,7.3125,8.5417,9.6875c3.651,2.3646,7.8958,3.5417,12.7292,3.5417,4.9427,0,9.2396-1.1771,12.8958-3.5417,3.6667-2.375,6.5208-5.6042,8.5625-9.6875s3.0625-8.651,3.0625-13.7083c0-5.151-1.0208-9.7708-3.0625-13.8542s-4.8958-7.3021-8.5625-9.6667c-3.6562-2.375-7.9531-3.5625-12.8958-3.5625Z"/>
</svg>