<?xml version="1.0" encoding="UTF-8"?>
<svg id="Layer_1" data-name="Layer 1" xmlns="http://www.w3.org/2000/svg" viewBox="0 0 738.9045 187.4339">
  <defs>
    <style>
      .cls-1 {
        fill: #2c6560;
      }

      .cls-2 {
        fill: #407b7b;
      }

      .cls-3 {
        fill: #2b6661;
      }
    </style>
  </defs>
  <path class="cls-1" d="M381.6065,50.329h8.8824l-2.3991-13.6902-6.4833,13.6902ZM391.4695,55.5463h-12.2431l-3.6272,7.3021c-.2951.6283-.6855,1.0853-1.19,1.39-.495.3046-1.0092.457-1.5708.457-.7331,0-1.3043-.2285-1.7232-.695-.4284-.457-.6379-1.0187-.6379-1.6661,0-.1714.0095-.3427.0381-.5331.0286-.1999.0952-.4189.219-.6569l13.5474-27.866c.3999-.8473.9996-1.5613,1.8279-2.1421.8187-.5807,1.7708-.8759,2.8561-.8759.9901,0,1.8374.2761,2.5419.8378.695.5522,1.1329,1.3043,1.3138,2.2373l5.398,27.866c.0286.0762.0381.1714.0381.2761v.238c0,.7902-.2951,1.4852-.8949,2.085s-1.3233.8949-2.1611.8949c-.5903,0-1.0948-.1714-1.4852-.4951-.3903-.3427-.6379-.7711-.7521-1.2852l-1.4947-7.3687h0Z"/>
  <path class="cls-1" d="M407.243,33.1925c.1142-.8187.5046-1.5137,1.152-2.0849.6569-.5617,1.3995-.8568,2.2182-.8568.7521,0,1.3614.2475,1.8279.7331.476.476.714,1.0853.714,1.8089,0,.0666-.0095.1428-.019.219-.019.0666-.019.1333-.019.1809l-3.6463,25.9048h10.1772c.6759,0,1.2281.2285,1.6661.6759s.6569,1.0092.6569,1.6851c0,.8187-.3142,1.5232-.933,2.104-.6093.5807-1.3233.8759-2.1421.8759h-14.2424c-.5141,0-.9044-.1809-1.152-.5331-.257-.3713-.3808-.7902-.3808-1.2662l4.1223-29.4463h0Z"/>
  <path class="cls-1" d="M430.0219,33.1925c.1142-.8187.5046-1.5137,1.152-2.0849.6569-.5617,1.3995-.8568,2.2182-.8568.7521,0,1.3614.2475,1.8279.7331.476.476.714,1.0853.714,1.8089,0,.0666-.0095.1428-.019.219-.019.0666-.019.1333-.019.1809l-3.6463,25.9048h10.1772c.6759,0,1.2281.2285,1.6661.6759s.6569,1.0092.6569,1.6851c0,.8187-.3142,1.5232-.933,2.104-.6093.5807-1.3233.8759-2.1421.8759h-14.2424c-.5141,0-.9044-.1809-1.152-.5331-.257-.3713-.3808-.7902-.3808-1.2662l4.1223-29.4463h0Z"/>
  <path class="cls-1" d="M454.724,30.2602c.7521,0,1.3709.2475,1.8469.7331.4855.476.7331,1.0663.7331,1.7613,0,.0571-.0095.1142-.0191.1999-.0191.0666-.0191.1333-.0191.1999l-4.0271,28.6371c-.1142.7902-.5046,1.4757-1.152,2.0469-.6378.5712-1.3614.8568-2.1802.8568-.7331,0-1.3424-.238-1.8469-.714-.495-.4855-.7331-1.0853-.7331-1.7898,0-.0476.0095-.1047.019-.1809.0095-.0762.019-.1523.019-.219l4.0271-28.6371c.1142-.7902.4951-1.4756,1.1329-2.0469.6378-.5617,1.3805-.8473,2.1992-.8473h0Z"/>
  <path class="cls-1" d="M483.8257,52.9853c0,2.2182-.5712,4.2365-1.7041,6.0454-1.1234,1.8184-2.7419,3.2559-4.8363,4.3222-2.104,1.0663-4.6269,1.6089-7.5782,1.6089-2.5705,0-4.8173-.4094-6.7594-1.2091s-3.4273-1.7517-4.446-2.8371c-.1142-.1428-.2285-.3046-.3332-.4951-.1047-.1809-.1618-.4094-.1618-.6759,0-.8854.3618-1.628,1.0663-2.2373.7236-.6093,1.5138-.9139,2.361-.9139.3713,0,.695.0666.9901.1999.3047.1142.6188.3142.933.5712.8473.6759,1.7708,1.2567,2.799,1.7422,1.0282.476,2.4467.714,4.2651.714,2.4658,0,4.3413-.476,5.617-1.428s1.9231-2.2754,1.9231-3.97c0-.9901-.3047-1.7708-.914-2.361-.5903-.5807-1.4852-1.0948-2.6561-1.5232-1.1615-.4379-2.6181-.8949-4.3603-1.3709-1.0853-.3142-2.1801-.6569-3.2941-1.0092-1.1139-.3713-2.123-.8378-3.037-1.409-.9044-.5617-1.628-1.2948-2.1801-2.1992-.5522-.9139-.8378-2.0564-.8378-3.4273,0-1.7327.3427-3.275,1.0472-4.6174.695-1.3614,1.6661-2.5324,2.8942-3.513s2.6181-1.7137,4.1699-2.2182c1.5423-.5141,3.1608-.7711,4.8553-.7711,1.0853,0,2.2278.1142,3.4273.3332,1.2186.2094,2.342.5331,3.3892.952,1.0567.4284,1.9136.9235,2.58,1.5042.6569.5807.9901,1.2567.9901,2.0183,0,.7045-.3142,1.3709-.952,1.9993-.6283.6283-1.3995.933-2.342.933-.3618,0-.6854-.0571-.9711-.1809-.2951-.1142-.6093-.2761-.952-.476-.7426-.5046-1.5232-.933-2.361-1.2852-.8187-.3713-1.9802-.5522-3.4749-.5522-2.2183,0-3.8557.4284-4.903,1.2662-1.0282.8473-1.5423,1.9612-1.5423,3.3321,0,1.2567.6093,2.1706,1.8279,2.7418s3.056,1.19,5.5313,1.866c1.1329.2951,2.2849.6283,3.4464.9901,1.171.3618,2.2468.8473,3.2369,1.4471.9806.5903,1.7518,1.3804,2.342,2.361.6093.9901.9044,2.2278.9044,3.732h.0001Z"/>
  <path class="cls-1" d="M502.1354,64.9713c-2.342,0-4.4555-.4094-6.331-1.2091-1.866-.7997-3.4654-1.9136-4.7982-3.3131-1.3233-1.3995-2.3325-3.037-3.037-4.903-.7045-1.8755-1.0472-3.8652-1.0472-5.9692,0-2.5895.5141-5.0648,1.5423-7.4163,1.0377-2.3515,2.4753-4.446,4.3032-6.2644,1.8279-1.8279,3.951-3.2559,6.3882-4.3032,2.4467-1.0568,5.0648-1.5899,7.8733-1.5899,2.342,0,4.446.4094,6.3024,1.2091,1.8755.7902,3.4749,1.8945,4.7982,3.3131,1.3329,1.4185,2.3515,3.0655,3.056,4.941.695,1.866,1.0472,3.8462,1.0472,5.9502,0,2.6371-.5236,5.1219-1.5709,7.4544-1.0282,2.342-2.4563,4.4269-4.2841,6.2453-1.8279,1.8279-3.9604,3.2655-6.4072,4.3032-2.4181,1.0377-5.0362,1.5518-7.8352,1.5518h0ZM516.2731,45.9116c0-2.104-.438-3.9509-1.3138-5.5313-.8759-1.5994-2.0754-2.8466-3.5892-3.751-1.5232-.9139-3.2464-1.3709-5.1791-1.3709-1.7422,0-3.4273.3523-5.0362,1.0472-1.5994.7045-3.0275,1.6851-4.2651,2.9323-1.2472,1.2567-2.2183,2.7323-2.9323,4.4269s-1.0663,3.532-1.0663,5.5123c0,1.9612.3903,3.7415,1.171,5.3314.7902,1.5899,1.9231,2.8466,3.3892,3.7891,1.4756.9235,3.2559,1.39,5.3314,1.39,1.9041,0,3.6653-.3618,5.2933-1.0663,1.6375-.714,3.0655-1.7041,4.2841-2.9703,1.2281-1.2662,2.1897-2.7418,2.8752-4.3984.695-1.6756,1.0377-3.4464,1.0377-5.3409Z"/>
  <path class="cls-1" d="M530.9109,61.8581c-.1142.7807-.4951,1.4471-1.1329,1.9993-.6283.5522-1.3423.8378-2.1611.8378-.7331,0-1.3329-.2285-1.8089-.695-.4665-.457-.695-1.0377-.695-1.7422,0-.0666.0095-.1333.0191-.1999.0095-.0762.0191-.1428.0191-.1999l3.7701-26.6378c.1142-.9139.4474-1.7327.9901-2.4753.5427-.7521,1.2186-1.3519,2.0469-1.8089.8187-.4475,1.6946-.6759,2.6181-.6759.933,0,1.7518.2285,2.4563.6759.695.4475,1.1996,1.1044,1.4852,1.9612l7.4163,19.6595,2.7133-19.4405c.1047-.7902.4665-1.4661,1.0949-2.0183.6378-.5522,1.3519-.8378,2.1421-.8378.7236,0,1.3233.238,1.7898.714.476.4665.714,1.0472.714,1.7422,0,.0571-.0095.1142-.0191.1999-.0191.0666-.0191.1333-.0191.1999l-3.989,28.4181c-.1142.8759-.5331,1.6185-1.2281,2.2373-.7045.6093-1.4852.9139-2.361.9139-1.2947,0-2.1516-.5522-2.561-1.6661l-9.9392-25.2669s-3.3607,24.1054-3.3607,24.1055Z"/>
  <path class="cls-1" d="M123.4372,63.7734c-.5807,0-1.0568-.1904-1.428-.5712-.3618-.3808-.5331-.8473-.5331-1.39v-29.6748c0-.5427.1809-.9901.5331-1.3519.3713-.3713.8187-.5522,1.3709-.5522h16.8224c.5427,0,.9996.1809,1.39.5331.3808.3427.5712.7902.5712,1.3328,0,.5141-.1904.952-.5712,1.3138-.3903.3427-.8473.5141-1.39.5141h-15.0992l.2951-.3808v11.7195l-.238-.5141h12.8905c.5427,0,.9996.1904,1.39.5522.3808.3618.5712.8092.5712,1.3519,0,.4951-.1904.9235-.5712,1.2852-.3903.3618-.8473.5331-1.39.5331h-12.9857l.3332-.4189v13.7473c0,.5427-.1904,1.0092-.5712,1.39-.3903.3903-.8473.5807-1.39.5807h0Z"/>
  <path class="cls-1" d="M166.067,59.9843c.5427,0,.9996.1904,1.39.5522.3808.3713.5712.8283.5712,1.3709s-.1904.9901-.5712,1.3519c-.3903.3427-.8473.5141-1.39.5141h-16.5844c-.5427,0-.9996-.1904-1.3709-.5712-.3618-.3808-.5331-.8473-.5331-1.39v-29.6748c0-.5427.1904-.9901.5712-1.3519.3808-.3713.8568-.5522,1.428-.5522.5427,0,.9996.1904,1.39.5522.3808.3618.5712.8092.5712,1.3519v28.7228l-.952-.8759h15.48,0Z"/>
  <path class="cls-1" d="M202.8151,46.9986c0,2.4562-.4094,4.7411-1.2091,6.8451-.7902,2.0945-1.9136,3.9224-3.3512,5.4932-1.428,1.5613-3.1322,2.7704-5.1219,3.6272-1.9802.8568-4.1413,1.2852-6.4643,1.2852-2.3706,0-4.5412-.4284-6.5024-1.2852s-3.6558-2.0659-5.0934-3.6272c-1.428-1.5709-2.5514-3.3988-3.3512-5.4932-.7902-2.104-1.19-4.3793-1.19-6.8451,0-2.4848.3999-4.7697,1.19-6.8641.7997-2.104,1.9231-3.9224,3.3512-5.4742,1.4376-1.5423,3.1417-2.7514,5.0934-3.6082,1.9707-.8568,4.1318-1.2852,6.5024-1.2852,2.323,0,4.4841.4284,6.4643,1.2852,1.9802.8663,3.6939,2.0659,5.1219,3.6082,1.4376,1.5423,2.561,3.3702,3.3512,5.4742.7997,2.0945,1.2091,4.3793,1.2091,6.8641ZM198.6833,46.9986c0-2.6181-.5236-4.9315-1.5708-6.9403-1.0282-2.0088-2.4372-3.5892-4.227-4.7411s-3.8652-1.7232-6.2263-1.7232c-2.3706,0-4.4555.5712-6.2644,1.7232-1.7993,1.152-3.2179,2.7323-4.2461,4.7411-1.0187,2.0088-1.5233,4.3222-1.5233,6.9403,0,2.5895.5046,4.9125,1.5233,6.9403,1.0282,2.0183,2.4467,3.6082,4.2461,4.7602,1.8089,1.152,3.8938,1.7232,6.2644,1.7232,2.361,0,4.446-.5712,6.2263-1.7232s3.1893-2.7418,4.227-4.7602c1.0472-2.0373,1.5708-4.3508,1.5708-6.9403Z"/>
  <path class="cls-1" d="M210.429,63.7734c-.6093,0-1.1329-.1904-1.5708-.5712-.4284-.3808-.6379-.8473-.6379-1.39v-29.6748c0-.5427.1809-.9901.5331-1.3519.3713-.3713.8187-.5522,1.3709-.5522h13.2332c1.7898,0,3.3988.4094,4.8363,1.2281,1.4376.8092,2.58,1.9231,3.4273,3.3512.8473,1.4185,1.2662,3.0465,1.2662,4.903,0,1.3519-.257,2.6086-.7711,3.77-.5046,1.1615-1.2091,2.1706-2.104,3.0179-.9044.8473-1.9231,1.4947-3.0751,1.9421l-1.0472-.7711c1.0853.2666,2.0564.7331,2.9132,1.39.8759.6474,1.5804,1.4757,2.123,2.4753.5427,1.0092.8187,2.1802.8568,3.513.0666,1.19.1428,2.1325.238,2.8371.1047.7045.2475,1.2472.4379,1.647.1999.3999.4665.7045.8092.933.4475.2951.7426.6855.8949,1.171.1428.476.0571.933-.257,1.3709-.1999.2951-.476.4951-.8378.6188-.3427.1047-.695.1523-1.0472.1142-.3427-.0381-.6474-.1428-.9139-.2951-.5046-.2856-.9996-.714-1.4852-1.2662-.476-.5522-.8759-1.3614-1.19-2.4182s-.476-2.4848-.476-4.3032c0-1.0282-.1619-1.8755-.476-2.5419-.3142-.6759-.7521-1.2186-1.2852-1.628-.5427-.4189-1.152-.714-1.8279-.8759s-1.3614-.238-2.0659-.238h-10.6818l.5712-.8759v12.5192c0,.5427-.1619,1.0092-.476,1.39-.3142.3713-.7426.5617-1.2852.5617h0ZM211.6191,46.7129h11.7385c.9235-.0666,1.7898-.3808,2.5991-.952.8187-.5807,1.4947-1.39,2.0183-2.4182.5236-1.0377.7902-2.2182.7902-3.532,0-1.6946-.5331-3.0941-1.6089-4.208-1.0663-1.1234-2.4182-1.6851-4.0461-1.6851h-11.2911l.3808-.9139v14.5566l-.5807-.8473Z"/>
  <path class="cls-1" d="M241.5574,30.2333h17.0604c.5427,0,.9996.1809,1.39.5331.3808.3427.5712.7902.5712,1.3328s-.1904.9901-.5712,1.3328c-.3903.3332-.8473.4951-1.39.4951h-15.4324l.4379-.8092v12.1194l-.476-.5331h13.3284c.5427,0,.9996.1809,1.39.5331.3808.3618.5712.8092.5712,1.3519s-.1904.9806-.5712,1.3138c-.3903.3332-.8473.4951-1.39.4951h-13.1951l.3332-.4189v12.3955l-.2761-.3142h15.2801c.5427,0,.9996.1904,1.39.5712.3808.3903.5712.8092.5712,1.2852,0,.5427-.1904.9901-.5712,1.3519-.3903.3427-.8473.5141-1.39.5141h-17.0604c-.5427,0-.9996-.1904-1.3709-.5712-.3618-.3808-.5331-.8473-.5331-1.39v-29.6748c0-.5427.1809-.9901.5331-1.3519.3713-.3713.8283-.5617,1.3709-.5617Z"/>
  <path class="cls-1" d="M290.812,30.2333c.5427,0,.9711.1714,1.2852.5141.3142.3332.476.7521.476,1.2472v29.77c0,.5903-.1904,1.0853-.5712,1.4471-.3713.3713-.8378.5522-1.39.5522-.2761,0-.5617-.0476-.8568-.1618-.2951-.1142-.5141-.2666-.6759-.457l-20.5068-27.1329.952-.5712v26.5617c0,.5046-.1714.9235-.495,1.2662-.3332.3332-.7711.4951-1.3138.4951-.5141,0-.933-.1618-1.2472-.4951-.3142-.3427-.476-.7616-.476-1.2662v-29.8748c0-.5617.1809-1.0187.5331-1.3709.3713-.3618.8092-.5331,1.3328-.5331.2856,0,.5807.0571.8759.1809.3047.1047.5427.2761.714.4951l20.2116,26.7331-.6188.7521v-26.3998c0-.5046.1619-.9139.495-1.2472s.7616-.5046,1.2757-.5046h0Z"/>
  <path class="cls-1" d="M324.147,32.4325c.5427.2951.8568.7331.933,1.3138.0761.5712-.0761,1.0948-.457,1.5709-.2761.4094-.6474.6379-1.0948.6759-.4475.0286-.9044-.0666-1.3519-.2951-1.0567-.6379-2.1992-1.1329-3.4083-1.5042-1.2091-.3713-2.4753-.5522-3.8272-.5522-1.8755,0-3.6082.3332-5.1791.9901-1.5613.6474-2.9132,1.5709-4.0652,2.7609-1.152,1.1805-2.0564,2.5895-2.6942,4.227-.6379,1.628-.952,3.4273-.952,5.398,0,2.1135.3332,4.0081,1.0092,5.6741.6759,1.6565,1.5899,3.0655,2.7609,4.227,1.1615,1.1615,2.5229,2.0564,4.0652,2.6562,1.5613.6093,3.2464.9139,5.0553.9139,1.3138,0,2.5705-.1714,3.7891-.5141,1.2186-.3618,2.361-.8759,3.4464-1.5423.4475-.219.8949-.3046,1.3519-.238.4475.0666.8378.2951,1.152.6759.3808.5141.5236,1.0472.4189,1.6089-.0952.5522-.3903.9711-.8949,1.2281-.8092.476-1.7232.9139-2.7419,1.3138s-2.085.7045-3.1893.933c-1.1044.219-2.2087.3332-3.3321.3332-2.3039,0-4.4746-.3999-6.5214-1.19-2.0374-.7997-3.8462-1.9517-5.4171-3.4464-1.5613-1.5042-2.799-3.3131-3.7129-5.4361-.9044-2.123-1.3519-4.5222-1.3519-7.1783,0-2.4848.4284-4.7697,1.2852-6.8451.8568-2.0754,2.0659-3.8748,3.6082-5.4171,1.5613-1.5328,3.3607-2.7228,5.4171-3.5892,2.0659-.8759,4.2937-1.3138,6.6833-1.3138,1.6661,0,3.2845.2285,4.8554.6759,1.6089.4189,3.056,1.0568,4.3603,1.885Z"/>
  <path class="cls-1" d="M331.8553,30.2333h17.0604c.5427,0,.9996.1809,1.39.5331.3808.3427.5712.7902.5712,1.3328s-.1904.9901-.5712,1.3328c-.3903.3332-.8473.4951-1.39.4951h-15.4324l.4379-.8092v12.1194l-.476-.5331h13.3284c.5427,0,.9996.1809,1.39.5331.3808.3618.5712.8092.5712,1.3519s-.1904.9806-.5712,1.3138c-.3903.3332-.8473.4951-1.39.4951h-13.1951l.3332-.4189v12.3955l-.2761-.3142h15.2706c.5427,0,.9996.1904,1.39.5712.3808.3903.5712.8092.5712,1.2852,0,.5427-.1904.9901-.5712,1.3519-.3903.3427-.8473.5141-1.39.5141h-17.0604c-.5427,0-.9996-.1904-1.3709-.5712-.3618-.3808-.5331-.8473-.5331-1.39v-29.6748c0-.5427.1809-.9901.5331-1.3519.3808-.3713.8378-.5617,1.3805-.5617h0Z"/>
  <path class="cls-1" d="M590.7181,29.6447c-1.1996,0-2.3896.1142-3.5606.3523-1.1805.2285-2.323.5807-3.4368,1.0377s-2.1611,1.0282-3.1608,1.6946-1.9231,1.428-2.7704,2.2754c-.8473.8568-1.6089,1.7708-2.2754,2.7704s-1.2281,2.0564-1.6946,3.1607c-.457,1.1139-.8092,2.2563-1.0377,3.4368-.2285,1.171-.3522,2.361-.3522,3.5701,0,1.1996.1142,2.3896.3522,3.5701.238,1.171.5807,2.323,1.0377,3.4273.457,1.1139,1.0282,2.1611,1.6946,3.1607s1.428,1.9231,2.2754,2.7704c.8569.8473,1.7708,1.6089,2.7799,2.2754.9996.6664,2.0564,1.2281,3.1608,1.6946,1.1043.457,2.2468.7997,3.4273,1.0377,1.171.2285,2.361.3523,3.5701.3523,1.1996,0,2.3896-.1142,3.5701-.3523,1.171-.238,2.323-.5807,3.4273-1.0377,1.1139-.457,2.1611-1.0282,3.1608-1.6946s1.9231-1.4185,2.7704-2.2754c.8473-.8568,1.6089-1.7708,2.2754-2.7799.6664-.9996,1.2281-2.0564,1.6946-3.1607.457-1.1139.8092-2.2468,1.0377-3.4273.2285-1.1805.3522-2.3706.3522-3.5701s-.1142-2.3896-.3522-3.5701c-.238-1.171-.5807-2.323-1.0377-3.4273-.457-1.1139-1.0282-2.1611-1.6946-3.1607s-1.428-1.9231-2.2754-2.7704c-.8569-.8473-1.7708-1.6089-2.7799-2.2754-.9996-.6664-2.0564-1.2281-3.1608-1.6946-1.1139-.457-2.2563-.8092-3.4368-1.0377-1.1615-.238-2.3515-.3523-3.5606-.3523ZM590.7181,63.0515c-.9234,0-1.8374-.0857-2.7514-.257s-1.7994-.4189-2.6657-.7521-1.6946-.7426-2.4753-1.2281c-.7902-.4855-1.5232-1.0282-2.2087-1.647-.6854-.6188-1.3138-1.2948-1.8755-2.0278-.5617-.7331-1.0567-1.5137-1.4756-2.3325s-.7616-1.6851-1.0282-2.5705-.4474-1.7898-.5427-2.7038h14.8993c-.9996.9996-1.7708,2.1611-2.3134,3.4749-.5427,1.3138-.8092,2.6657-.8092,4.0842h3.1798c0-.4951.0476-.9901.1428-1.4757.0952-.4855.2475-.9616.4284-1.4185.1904-.457.4284-.8949.695-1.3043.2761-.4094.5903-.7902.9425-1.1424.3427-.3523.7331-.6664,1.1424-.9425s.8473-.5046,1.3043-.695.933-.3332,1.4185-.4284.9806-.1428,1.4756-.1428v-3.1798c-.4951,0-.9901-.0476-1.4756-.1428s-.9616-.2475-1.4185-.4284-.8949-.4189-1.3043-.695c-.4189-.2761-.7902-.5903-1.1424-.933-.3522-.3523-.6664-.7331-.9425-1.1424s-.5046-.8473-.695-1.3138c-.1904-.457-.3332-.9235-.4284-1.409-.0952-.4951-.1428-.9806-.1428-1.4756h-3.1798c0,1.4185.2666,2.7799.8092,4.0937.5427,1.3138,1.3138,2.4658,2.3134,3.4654h-14.8993c.0952-.9616.2951-1.9136.5807-2.8371s.6569-1.8184,1.1139-2.6752.9901-1.6565,1.5994-2.4182c.6188-.7521,1.2852-1.4376,2.0374-2.0659s1.5423-1.171,2.3896-1.6375,1.7327-.8568,2.6561-1.152,1.866-.5046,2.8275-.6283c.9616-.1142,1.9327-.1428,2.8942-.0762.9711.0666,1.9231.2285,2.8561.4855.933.2475,1.8374.5903,2.7133,1.0187.8759.4189,1.6946.9235,2.4658,1.5137.7711.5807,1.4852,1.2376,2.1325,1.9612s1.2186,1.4947,1.7232,2.3325c.5046.8283.914,1.7041,1.2472,2.6086.3332.9139.5712,1.8469.7236,2.8085.1523.9616.2094,1.9231.1809,2.8942-.0381.9711-.1618,1.9231-.3808,2.8751-.2189.9425-.5236,1.8565-.914,2.7514-.3998.8854-.8759,1.7232-1.428,2.5229-.5522.7902-1.1805,1.5328-1.8755,2.1992-.695.6759-1.4566,1.2757-2.2754,1.8089-.8092.5236-1.6756.9711-2.5705,1.3424-.8949.3618-1.8279.6379-2.7799.8187-.9614.1333-1.9231.219-2.8941.219Z"/>
  <path class="cls-3" d="M125.6826,94.2917c.4871,0,.9641.1928,1.4208.5683.4668.3856.7002.9032.7002,1.5425,0,.203-.0305.4161-.0812.6596l-6.4441,18.9468c-.1218.3958-.3552.7002-.7002.9133-.3349.203-.6901.3146-1.0554.3349-.3653,0-.7306-.1015-1.096-.3146-.3552-.2233-.6292-.5379-.822-.9539l-4.8407-10.9703.2943.1928-4.7799,10.7775c-.203.4161-.4769.7307-.8423.9539-.3552.2131-.7104.3146-1.0757.3146-.3552-.0304-.7104-.1421-1.0554-.3349-.3349-.2131-.5683-.5176-.7002-.9133l-6.4441-18.9468c-.0609-.2334-.0812-.4567-.0812-.6596,0-.6495.2334-1.1671.7002-1.5425s.9539-.5683,1.4614-.5683c.406,0,.7916.1116,1.1366.3349.3653.2131.6089.5277.7408.9336l5.1959,15.7501-.7205-.0406,4.6276-11.1428c.1827-.3856.4364-.6799.7611-.9133s.6901-.345,1.096-.3146c.4262-.0304.7916.0812,1.1163.3146.3248.2233.5581.5277.7205.9133l4.2521,10.6557-.5277.3349,5.135-15.5573c.1218-.4059.3653-.7205.7408-.9336.3451-.2131.7408-.3349,1.1671-.3349h0Z"/>
  <path class="cls-3" d="M138.1911,117.5718c-1.8571,0-3.4808-.3856-4.8407-1.1366-1.3497-.7713-2.395-1.8267-3.1257-3.146-.7205-1.3396-1.0757-2.8415-1.0757-4.5261,0-1.9586.3958-3.6229,1.1873-5.0132.8017-1.3802,1.847-2.4356,3.1257-3.1663,1.2787-.7408,2.6385-1.1163,4.0796-1.1163,1.1062,0,2.1616.2334,3.1459.7002.9844.4567,1.8571,1.0757,2.6183,1.8774.7611.7916,1.3599,1.7049,1.8165,2.7502.4465,1.0453.6799,2.1514.6799,3.3185-.0305.5277-.2435.9539-.6292,1.2888-.3856.3247-.8322.4871-1.3497.4871h-12.4925l-.9743-3.2779h11.9851l-.7205.6596v-.8626c-.0406-.6292-.274-1.1975-.6799-1.6948-.3958-.5074-.9032-.9133-1.5019-1.2076-.5886-.2943-1.228-.4465-1.9079-.4465-.6495,0-1.2584.0913-1.8368.274-.5683.1725-1.0554.4567-1.4817.8626-.4161.4161-.7306.9641-.9743,1.6745-.2435.6901-.3552,1.573-.3552,2.6385,0,1.1772.2435,2.1717.7408,2.9836.4871.822,1.1264,1.4512,1.9079,1.8774.7713.4262,1.5933.6292,2.4559.6292.8118,0,1.4614-.0609,1.9484-.1928.4769-.1421.8525-.3045,1.1366-.4871.2943-.1827.5581-.345.8017-.4871.3958-.1827.7713-.274,1.1163-.274.4769,0,.8727.1624,1.1873.4871.3248.3247.4871.7104.4871,1.1366,0,.5785-.3146,1.1062-.9336,1.5831-.5683.477-1.3599.9032-2.3848,1.2685-1.025.3552-2.0804.5379-3.1561.5379h.0002Z"/>
  <path class="cls-3" d="M153.4529,115.2682c0,.5683-.1928,1.0351-.5683,1.4208s-.8525.5683-1.4208.5683c-.548,0-1.0047-.1928-1.37-.5683-.3653-.3856-.548-.8525-.548-1.4208v-20.195c0-.5582.1928-1.0351.5683-1.4208s.8525-.5683,1.4208-.5683c.5581,0,1.025.1928,1.37.5683.3653.3856.548.8525.548,1.4208v20.195Z"/>
  <path class="cls-3" d="M165.4732,99.447c1.2381,0,2.3239.1421,3.2576.4059.9336.2537,1.644.6089,2.1514,1.0757.5074.4668.7611,1.0351.7611,1.6948,0,.4364-.1421.8423-.406,1.2279-.2537.3856-.6292.5683-1.1163.5683-.3552,0-.6495-.0507-.8931-.1522-.2232-.0913-.4262-.2233-.5886-.3856-.1725-.1522-.3755-.2943-.6089-.4262-.2232-.1218-.5683-.2233-1.0148-.2943-.4364-.0812-.7713-.1218-.9945-.1218-1.096,0-2.0398.2436-2.8111.7205-.7814.477-1.37,1.1265-1.7963,1.9485-.4161.822-.6089,1.7556-.6089,2.8111s.2131,1.9992.6292,2.8111c.4262.822,1.0047,1.4715,1.7556,1.9485.7611.477,1.6339.7205,2.6183.7205.5379,0,.9945-.0304,1.4005-.1015.3958-.071.7205-.1725.9743-.2943.3044-.1725.5785-.345.822-.548.2334-.1928.5988-.2943,1.0757-.2943.5581,0,.9945.1827,1.2888.548.3044.3552.4668.7916.4668,1.3091,0,.5379-.3044,1.0351-.9134,1.4816-.6089.4567-1.4106.8119-2.4153,1.0757-.9844.2639-2.0601.4059-3.217.4059-1.7252,0-3.217-.3958-4.4855-1.1873-1.2584-.7916-2.2326-1.8673-2.9227-3.2373-.6799-1.3802-1.0148-2.9227-1.0148-4.6276,0-1.7759.3552-3.3388,1.0757-4.6885.7306-1.3599,1.7455-2.4356,3.0445-3.217,1.3193-.7814,2.8111-1.1772,4.4855-1.1772h0Z"/>
  <path class="cls-3" d="M191.6348,108.5196c0,1.7962-.406,3.3692-1.2076,4.7392-.7916,1.3497-1.8571,2.4153-3.1967,3.1663-1.3396.7611-2.8313,1.1366-4.4855,1.1366s-3.1459-.3856-4.4855-1.1366c-1.3396-.7611-2.4153-1.8165-3.217-3.1663-.7916-1.3599-1.1873-2.943-1.1873-4.7392,0-1.7759.3958-3.3388,1.1873-4.6885.8017-1.3599,1.8673-2.4356,3.217-3.217,1.3396-.7713,2.8313-1.1671,4.4855-1.1671s3.1358.3958,4.4855,1.1671c1.3396.7814,2.395,1.847,3.1967,3.217.8017,1.3497,1.2076,2.9126,1.2076,4.6885ZM187.7278,108.5196c0-1.096-.2232-2.0601-.6799-2.872-.4364-.8119-1.0351-1.4512-1.7963-1.9079-.751-.4668-1.5831-.7002-2.4965-.7002-.9235,0-1.7455.2334-2.4965.7002-.751.4567-1.3497,1.0859-1.7963,1.9079-.4567.822-.6799,1.7759-.6799,2.872s.2232,2.0601.6799,2.872c.4465.822,1.0453,1.4614,1.7963,1.9282.7408.4567,1.573.6799,2.4965.6799.9134,0,1.7455-.2233,2.4965-.6799.7611-.4668,1.3599-1.1062,1.7963-1.9282.4465-.8119.6799-1.7759.6799-2.872Z"/>
  <path class="cls-3" d="M204.2484,99.447c1.7354,0,3.014.4262,3.8462,1.2685.8322.8322,1.37,1.918,1.6237,3.2373l-.548-.2943.2537-.5074c.2639-.5074.6698-1.0453,1.2076-1.6237.548-.5785,1.2076-1.0656,1.9891-1.4613.7713-.4059,1.6339-.6089,2.598-.6089,1.5628,0,2.7502.3349,3.5722,1.0148.8118.6799,1.37,1.5831,1.6745,2.7096.3044,1.1163.4668,2.3544.4668,3.7244v8.3723c0,.5683-.1827,1.0351-.548,1.4208-.3653.3856-.8423.5683-1.4208.5683-.5683,0-1.0351-.1928-1.4005-.5683-.3653-.3856-.548-.8525-.548-1.4208v-8.3723c0-.7205-.0914-1.3599-.274-1.9485-.1725-.5785-.4871-1.0351-.9539-1.37-.4567-.345-1.096-.5277-1.9484-.5277-.8322,0-1.5426.1827-2.1311.5277-.5785.3349-1.0148.8017-1.3091,1.37-.2943.5785-.4465,1.2279-.4465,1.9485v8.3723c0,.5683-.1928,1.0351-.5683,1.4208-.3653.3856-.8322.5683-1.4005.5683s-1.0351-.1928-1.4005-.5683c-.3653-.3856-.548-.8525-.548-1.4208v-8.3723c0-.7205-.0914-1.3599-.274-1.9485-.1725-.5785-.4871-1.0351-.9539-1.37-.4567-.345-1.096-.5277-1.9484-.5277-.8322,0-1.5426.1827-2.1311.5277-.5785.3349-1.0148.8017-1.3091,1.37-.2943.5785-.4465,1.2279-.4465,1.9485v8.3723c0,.5683-.1928,1.0351-.5683,1.4208-.3653.3856-.8322.5683-1.4005.5683s-1.0351-.1928-1.4208-.5683c-.3653-.3856-.548-.8525-.548-1.4208v-13.487c0-.5582.1827-1.0351.548-1.4208.3856-.3958.8525-.5886,1.4208-.5886.5581,0,1.025.203,1.4005.5886.3856.3856.5683.8525.5683,1.4208v1.4005l-.4871-.1015c.1928-.3653.4668-.7611.8017-1.1873.3451-.4262.7713-.8119,1.2685-1.1873.5074-.3856,1.0656-.6799,1.6745-.9133.6292-.2334,1.3091-.3552,2.0195-.3552h-.0002Z"/>
  <path class="cls-3" d="M233.4055,117.5718c-1.8571,0-3.4808-.3856-4.8407-1.1366-1.3497-.7713-2.395-1.8267-3.1257-3.146-.7205-1.3396-1.0757-2.8415-1.0757-4.5261,0-1.9586.3958-3.6229,1.1873-5.0132.8017-1.3802,1.847-2.4356,3.1257-3.1663,1.2787-.7408,2.6385-1.1163,4.0796-1.1163,1.1062,0,2.1616.2334,3.1459.7002.9844.4567,1.8571,1.0757,2.6183,1.8774.7611.7916,1.3599,1.7049,1.8165,2.7502.4465,1.0453.6799,2.1514.6799,3.3185-.0305.5277-.2435.9539-.6292,1.2888-.3856.3247-.8322.4871-1.3497.4871h-12.4925l-.9743-3.2779h11.9851l-.7205.6596v-.8626c-.0406-.6292-.274-1.1975-.6799-1.6948-.3958-.5074-.9032-.9133-1.5019-1.2076-.5886-.2943-1.228-.4465-1.9079-.4465-.6495,0-1.2584.0913-1.8368.274-.5683.1725-1.0554.4567-1.4817.8626-.4161.4161-.7306.9641-.9743,1.6745-.2435.6901-.3552,1.573-.3552,2.6385,0,1.1772.2435,2.1717.7408,2.9836.4871.822,1.1264,1.4512,1.9079,1.8774.7713.4262,1.5933.6292,2.4559.6292.8118,0,1.4614-.0609,1.9484-.1928.4769-.1421.8525-.3045,1.1366-.4871.2943-.1827.5581-.345.8017-.4871.3958-.1827.7713-.274,1.1163-.274.4769,0,.8727.1624,1.1873.4871.3248.3247.4871.7104.4871,1.1366,0,.5785-.3146,1.1062-.9336,1.5831-.5683.477-1.3599.9032-2.3848,1.2685-1.0148.3552-2.0702.5379-3.1561.5379h.0002Z"/>
  <path class="cls-3" d="M253.7895,100.1067h7.733c.5176,0,.9539.1827,1.2888.5277.3451.3349.5277.7713.5277,1.2888,0,.5074-.1827.9336-.5277,1.2685-.3349.3349-.7713.5074-1.2888.5074h-7.733c-.5277,0-.9641-.1725-1.3091-.5277-.3552-.345-.5277-.7916-.5277-1.3091,0-.4871.1725-.9133.5277-1.2482.3451-.3349.7814-.5074,1.3091-.5074ZM257.2704,96.0271c.5581,0,1.025.1928,1.37.5683.3653.3856.548.8525.548,1.4208v14.5425c0,.2943.0507.548.1725.7408.1218.203.2943.3349.5074.4262.2131.0812.4364.1218.6799.1218.2537,0,.4871-.0507.7002-.1522.2232-.0913.4769-.1522.7611-.1522.3044,0,.5785.1522.822.4465.2537.2842.3856.6698.3856,1.1671,0,.6089-.3349,1.1062-.9945,1.5019-.6698.3958-1.37.5886-2.1311.5886-.4668,0-.9743-.0304-1.5222-.1015-.548-.0812-1.0757-.274-1.5628-.5683-.4973-.2943-.9032-.7408-1.228-1.3497-.3248-.5987-.4871-1.4411-.4871-2.5168v-14.6947c0-.5582.1928-1.0351.5683-1.4208s.8525-.5683,1.4106-.5683h0Z"/>
  <path class="cls-3" d="M283.7268,108.5196c0,1.7962-.406,3.3692-1.2076,4.7392-.7916,1.3497-1.8571,2.4153-3.1967,3.1663-1.3396.7611-2.8313,1.1366-4.4855,1.1366s-3.1459-.3856-4.4855-1.1366c-1.3396-.7611-2.4153-1.8165-3.217-3.1663-.7916-1.3599-1.1873-2.943-1.1873-4.7392,0-1.7759.3958-3.3388,1.1873-4.6885.8017-1.3599,1.8673-2.4356,3.217-3.217,1.3396-.7713,2.8313-1.1671,4.4855-1.1671s3.1358.3958,4.4855,1.1671c1.3396.7814,2.395,1.847,3.1967,3.217.8017,1.3497,1.2076,2.9126,1.2076,4.6885ZM279.8096,108.5196c0-1.096-.2232-2.0601-.6799-2.872-.4364-.8119-1.0351-1.4512-1.7963-1.9079-.751-.4668-1.5831-.7002-2.4965-.7002-.9235,0-1.7455.2334-2.4965.7002-.751.4567-1.3497,1.0859-1.7963,1.9079-.4567.822-.6799,1.7759-.6799,2.872s.2232,2.0601.6799,2.872c.4465.822,1.0453,1.4614,1.7963,1.9282.7408.4567,1.573.6799,2.4965.6799.9134,0,1.7455-.2233,2.4965-.6799.7611-.4668,1.3599-1.1062,1.7963-1.9282.4567-.8119.6799-1.7759.6799-2.872Z"/>
  <path class="cls-3" d="M305.4813,99.447c1.7354,0,3.014.4262,3.8462,1.2685.8322.8322,1.37,1.918,1.6237,3.2373l-.548-.2943.2537-.5074c.2639-.5074.6698-1.0453,1.2076-1.6237.548-.5785,1.2076-1.0656,1.9891-1.4613.7713-.4059,1.6339-.6089,2.598-.6089,1.5628,0,2.7502.3349,3.5722,1.0148.8118.6799,1.37,1.5831,1.6745,2.7096.3044,1.1163.4668,2.3544.4668,3.7244v8.3723c0,.5683-.1827,1.0351-.548,1.4208-.3653.3856-.8423.5683-1.4208.5683-.5683,0-1.0351-.1928-1.4005-.5683-.3653-.3856-.548-.8525-.548-1.4208v-8.3723c0-.7205-.0914-1.3599-.274-1.9485-.1725-.5785-.4871-1.0351-.9539-1.37-.4567-.345-1.096-.5277-1.9484-.5277-.8322,0-1.5426.1827-2.1311.5277-.5785.3349-1.0148.8017-1.3091,1.37-.2943.5785-.4465,1.2279-.4465,1.9485v8.3723c0,.5683-.1928,1.0351-.5683,1.4208-.3653.3856-.8322.5683-1.4005.5683s-1.0351-.1928-1.4005-.5683c-.3653-.3856-.548-.8525-.548-1.4208v-8.3723c0-.7205-.0914-1.3599-.274-1.9485-.1725-.5785-.4871-1.0351-.9539-1.37-.4567-.345-1.096-.5277-1.9484-.5277-.8322,0-1.5426.1827-2.1311.5277-.5785.3349-1.0148.8017-1.3091,1.37-.2943.5785-.4465,1.2279-.4465,1.9485v8.3723c0,.5683-.1928,1.0351-.5683,1.4208-.3653.3856-.8322.5683-1.4005.5683s-1.0351-.1928-1.4208-.5683c-.3653-.3856-.548-.8525-.548-1.4208v-13.487c0-.5582.1827-1.0351.548-1.4208.3856-.3958.8525-.5886,1.4208-.5886.5581,0,1.025.203,1.4005.5886.3856.3856.5683.8525.5683,1.4208v1.4005l-.4871-.1015c.1928-.3653.4668-.7611.8017-1.1873.3451-.4262.7713-.8119,1.2685-1.1873.5074-.3856,1.0656-.6799,1.6745-.9133.6292-.2334,1.299-.3552,2.0195-.3552h-.0002Z"/>
  <path class="cls-3" d="M339.2145,99.7718c.5581,0,1.025.203,1.4005.5886.3653.3856.548.8525.548,1.4208v13.8727c0,1.9992-.3755,3.5925-1.1163,4.7798-.751,1.1975-1.7556,2.0601-3.0242,2.5777-1.2584.5176-2.6792.7814-4.2521.7814-.6901,0-1.4309-.0609-2.2225-.1725-.7814-.1015-1.4208-.2639-1.9282-.4871-.6495-.2842-1.096-.6292-1.3497-1.0554s-.3044-.8728-.1522-1.3497c.1928-.6292.5176-1.0656.9539-1.2888.4364-.2233.8931-.2537,1.37-.0812.3451.1116.8118.2842,1.37.5074s1.2076.3349,1.9484.3349c.9945,0,1.8267-.1421,2.4965-.4262.6799-.274,1.1873-.7307,1.5222-1.37.3349-.6292.5074-1.5019.5074-2.6183v-2.1819l.6799.7814c-.3653.7205-.8322,1.3091-1.4005,1.7759-.548.4668-1.2076.822-1.9688,1.0554s-1.6339.3552-2.6183.3552c-1.1569,0-2.1717-.2639-3.0242-.7814-.8626-.5379-1.5324-1.2787-2.0093-2.2225-.4769-.9539-.7205-2.0398-.7205-3.2576v-9.5394c0-.5582.1827-1.0351.548-1.4208.3856-.3958.8525-.5886,1.4208-.5886.5581,0,1.025.203,1.4005.5886.3856.3856.5683.8525.5683,1.4208v8.352c0,1.4309.3044,2.4254.9336,3.0039.619.5785,1.4817.8626,2.598.8626.7611,0,1.4005-.1522,1.9282-.4465.5176-.2943.9235-.7307,1.2076-1.3091s.4262-1.2787.4262-2.1108v-8.352c0-.5582.1827-1.0351.548-1.4208.3755-.3856.8423-.5785,1.4106-.5785h.0001Z"/>
  <path class="cls-3" d="M371.4999,108.5196c0,1.7962-.406,3.3692-1.2076,4.7392-.7916,1.3497-1.8571,2.4153-3.1967,3.1663-1.3396.7611-2.8313,1.1366-4.4855,1.1366s-3.1459-.3856-4.4855-1.1366c-1.3396-.7611-2.4051-1.8165-3.217-3.1663-.7916-1.3599-1.1873-2.943-1.1873-4.7392,0-1.7759.3958-3.3388,1.1873-4.6885.8017-1.3599,1.8673-2.4356,3.217-3.217,1.3396-.7713,2.8313-1.1671,4.4855-1.1671s3.1358.3958,4.4855,1.1671c1.3396.7814,2.395,1.847,3.1967,3.217.8017,1.3497,1.2076,2.9126,1.2076,4.6885ZM367.5827,108.5196c0-1.096-.2232-2.0601-.6799-2.872-.4364-.8119-1.0351-1.4512-1.7963-1.9079-.751-.4668-1.5831-.7002-2.4965-.7002-.9235,0-1.7455.2334-2.4965.7002-.751.4567-1.3497,1.0859-1.7963,1.9079-.4567.822-.6799,1.7759-.6799,2.872s.2232,2.0601.6799,2.872c.4465.822,1.0453,1.4614,1.7963,1.9282.7408.4567,1.573.6799,2.4965.6799.9134,0,1.7455-.2233,2.4965-.6799.7611-.4668,1.3599-1.1062,1.7963-1.9282.4567-.8119.6799-1.7759.6799-2.872Z"/>
  <path class="cls-3" d="M384.2658,99.447c1.6135,0,2.8416.3349,3.6737,1.0148.8423.6799,1.4208,1.5831,1.7353,2.7096.3045,1.1163.4668,2.3544.4668,3.7244v8.3723c0,.5683-.1827,1.0351-.548,1.4208-.3653.3856-.8321.5683-1.4005.5683s-1.0351-.1928-1.4208-.5683c-.3653-.3856-.548-.8525-.548-1.4208v-8.3723c0-.7205-.0913-1.3599-.274-1.9485-.1827-.5785-.5176-1.0351-.9945-1.37-.4769-.345-1.1772-.5277-2.0703-.5277-.8626,0-1.5932.1827-2.2022.5277-.5886.3349-1.0555.8017-1.37,1.37-.3147.5785-.4668,1.2279-.4668,1.9485v8.3723c0,.5683-.1928,1.0351-.5684,1.4208-.3653.3856-.8321.5683-1.4005.5683s-1.0351-.1928-1.4208-.5683c-.3653-.3856-.548-.8525-.548-1.4208v-13.487c0-.5582.1827-1.0351.548-1.4208.3856-.3958.8524-.5886,1.4208-.5886.5582,0,1.025.203,1.4005.5886.3856.3856.5684.8525.5684,1.4208v1.4005l-.4871-.1015c.1928-.3653.4769-.7611.8423-1.1873s.7916-.8119,1.2888-1.1873c.5074-.3856,1.0758-.6799,1.715-.9133.6395-.2233,1.3193-.345,2.0603-.345h.0001Z"/>
  <path class="cls-3" d="M398.6292,115.2682c0,.5683-.1928,1.0351-.5684,1.4208s-.8524.5683-1.4208.5683c-.548,0-1.0047-.1928-1.37-.5683-.3653-.3856-.548-.8525-.548-1.4208v-20.195c0-.5582.1928-1.0351.5684-1.4208s.8524-.5683,1.4208-.5683c.5582,0,1.025.1928,1.37.5683.3653.3856.548.8525.548,1.4208v20.195Z"/>
  <path class="cls-3" d="M406.896,115.2682c0,.5683-.1928,1.0351-.5684,1.4208-.3653.3856-.8321.5683-1.4005.5683s-1.0351-.1928-1.4005-.5683c-.3653-.3856-.548-.8525-.548-1.4208v-13.487c0-.5582.1827-1.0351.548-1.4208.3653-.3958.8321-.5886,1.4005-.5886.5582,0,1.025.203,1.4005.5886.3856.3856.5684.8525.5684,1.4208v13.487ZM404.9069,97.6508c-.7306,0-1.2584-.1116-1.5629-.3552-.3147-.2334-.4668-.6596-.4668-1.2685v-.6292c0-.619.1726-1.0453.5074-1.2685.3348-.2334.8524-.3552,1.5629-.3552.7611,0,1.2888.1218,1.5832.3552.3045.2436.4668.6698.4668,1.2685v.6292c0,.6292-.1624,1.0656-.4871,1.2888s-.8524.3349-1.6034.3349h-.0001Z"/>
  <path class="cls-3" d="M420.2465,99.447c1.6135,0,2.8416.3349,3.6737,1.0148.8423.6799,1.4208,1.5831,1.7353,2.7096.3045,1.1163.4668,2.3544.4668,3.7244v8.3723c0,.5683-.1827,1.0351-.548,1.4208-.3653.3856-.8321.5683-1.4005.5683s-1.0351-.1928-1.4208-.5683c-.3653-.3856-.548-.8525-.548-1.4208v-8.3723c0-.7205-.0913-1.3599-.274-1.9485-.1827-.5785-.5176-1.0351-.9945-1.37-.4769-.345-1.1772-.5277-2.0703-.5277-.8626,0-1.5932.1827-2.2022.5277-.5886.3349-1.0555.8017-1.37,1.37-.3147.5785-.4668,1.2279-.4668,1.9485v8.3723c0,.5683-.1928,1.0351-.5684,1.4208-.3653.3856-.8321.5683-1.4005.5683s-1.0351-.1928-1.4208-.5683c-.3653-.3856-.548-.8525-.548-1.4208v-13.487c0-.5582.1827-1.0351.548-1.4208.3856-.3958.8524-.5886,1.4208-.5886.5582,0,1.025.203,1.4005.5886.3856.3856.5684.8525.5684,1.4208v1.4005l-.4871-.1015c.1928-.3653.4769-.7611.8423-1.1873s.7916-.8119,1.2888-1.1873c.5074-.3856,1.0758-.6799,1.715-.9133.6496-.2233,1.3295-.345,2.0603-.345h.0001Z"/>
  <path class="cls-3" d="M438.6084,117.5718c-1.8571,0-3.4809-.3856-4.8407-1.1366-1.3497-.7713-2.395-1.8267-3.1256-3.146-.7205-1.3396-1.0758-2.8415-1.0758-4.5261,0-1.9586.3958-3.6229,1.1874-5.0132.8018-1.3802,1.8469-2.4356,3.1256-3.1663,1.2787-.7408,2.6385-1.1163,4.0796-1.1163,1.1061,0,2.1616.2334,3.1459.7002.9844.4567,1.8571,1.0757,2.6182,1.8774.7611.7916,1.3598,1.7049,1.8166,2.7502.4465,1.0453.68,2.1514.68,3.3185-.0305.5277-.2435.9539-.6292,1.2888-.3856.3247-.8321.4871-1.3497.4871h-12.5026l-.9742-3.2779h11.9852l-.7205.6596v-.8626c-.0406-.6292-.274-1.1975-.68-1.6948-.3958-.5074-.9032-.9133-1.5019-1.2076-.5886-.2943-1.2279-.4465-1.9079-.4465-.6495,0-1.2584.0913-1.8369.274-.5684.1725-1.0555.4567-1.4816.8626-.4161.4161-.7306.9641-.9742,1.6745-.2435.6901-.3552,1.573-.3552,2.6385,0,1.1772.2435,2.1717.7408,2.9836.4871.822,1.1264,1.4512,1.9079,1.8774.7713.4262,1.5932.6292,2.4559.6292.8119,0,1.4613-.0609,1.9485-.1928.4769-.1421.8524-.3045,1.1366-.4871.2943-.1827.5582-.345.8018-.4871.3958-.1827.7713-.274,1.1163-.274.4769,0,.8727.1624,1.1874.4871.3247.3247.4871.7104.4871,1.1366,0,.5785-.3147,1.1062-.9337,1.5831-.5684.477-1.3598.9032-2.3848,1.2685-1.0048.3552-2.0603.5379-3.1461.5379h-.0002Z"/>
  <path class="cls-3" d="M467.8315,99.447c1.5324,0,2.9024.3958,4.0999,1.1671,1.2076.7814,2.1717,1.8368,2.8719,3.1967.7002,1.3396,1.0555,2.9024,1.0555,4.6885,0,1.7962-.3552,3.3692-1.0555,4.7392-.7103,1.3497-1.644,2.4254-2.8314,3.1967-1.1874.7611-2.5167,1.1366-3.9984,1.1366-.8727,0-1.6948-.1421-2.4559-.4262s-1.4309-.6393-2.0093-1.0757-1.0351-.8728-1.3497-1.3091c-.3147-.4465-.4668-.822-.4668-1.1163l1.0148-.4465v8.6057c0,.5582-.1928,1.0351-.5684,1.4208-.3653.3856-.8321.5683-1.4005.5683s-1.0351-.1928-1.4208-.5683c-.3653-.3653-.548-.8423-.548-1.4208v-20.0225c0-.5582.1827-1.0351.548-1.4208.3856-.3958.8524-.5886,1.4208-.5886.5582,0,1.025.203,1.4005.5886.3856.3856.5684.8525.5684,1.4208v1.5831l-.548-.2943c0-.2842.1522-.619.4465-1.0148.3045-.4059.7205-.8119,1.2482-1.2076.5176-.4059,1.1163-.7408,1.7963-.9945.6901-.2639,1.4208-.4059,2.1819-.4059h0ZM467.3444,103.0497c-.964,0-1.7963.2436-2.5167.7205-.7205.477-1.2888,1.1265-1.6948,1.9485-.3958.822-.5886,1.7455-.5886,2.7908,0,1.0351.1928,1.9688.5886,2.8111.406.8322.9742,1.4918,1.6948,1.9688.7205.477,1.5527.7205,2.5167.7205.9539,0,1.7861-.2334,2.4964-.7205.7205-.477,1.2787-1.1265,1.6745-1.9688.406-.8423.6089-1.7861.6089-2.8111,0-1.0453-.2029-1.9688-.6089-2.7908-.3958-.8119-.9539-1.4613-1.6745-1.9485-.7103-.477-1.5426-.7205-2.4964-.7205Z"/>
  <path class="cls-3" d="M496.2424,108.5196c0,1.7962-.406,3.3692-1.2076,4.7392-.7916,1.3497-1.8571,2.4153-3.1967,3.1663-1.3395.7611-2.8314,1.1366-4.4856,1.1366s-3.1459-.3856-4.4856-1.1366c-1.3395-.7611-2.4153-1.8165-3.217-3.1663-.7916-1.3599-1.1874-2.943-1.1874-4.7392,0-1.7759.3958-3.3388,1.1874-4.6885.8018-1.3599,1.8672-2.4356,3.217-3.217,1.3395-.7713,2.8314-1.1671,4.4856-1.1671s3.1358.3958,4.4856,1.1671c1.3395.7814,2.395,1.847,3.1967,3.217.8018,1.3497,1.2076,2.9126,1.2076,4.6885ZM492.3252,108.5196c0-1.096-.2232-2.0601-.68-2.872-.4364-.8119-1.0351-1.4512-1.7963-1.9079-.751-.4668-1.5832-.7002-2.4964-.7002-.9235,0-1.7455.2334-2.4964.7002-.751.4567-1.3497,1.0859-1.7963,1.9079-.4566.822-.68,1.7759-.68,2.872s.2232,2.0601.68,2.872c.4465.822,1.0453,1.4614,1.7963,1.9282.7408.4567,1.573.6799,2.4964.6799.9134,0,1.7455-.2233,2.4964-.6799.7611-.4668,1.3598-1.1062,1.7963-1.9282.4566-.8119.68-1.7759.68-2.872Z"/>
  <path class="cls-3" d="M501.6303,117.2572c-.5684,0-1.0351-.1928-1.4208-.5683-.3653-.3856-.548-.8525-.548-1.4208v-13.487c0-.5582.1827-1.0351.548-1.4208.3856-.3958.8524-.5886,1.4208-.5886.5582,0,1.025.203,1.4005.5886.3856.3856.5684.8525.5684,1.4208v3.0648l-.2334-2.2022c.2334-.5176.548-.9742.9337-1.37.3856-.4059.8119-.7408,1.2888-1.0148.4769-.2639.9844-.4668,1.5222-.5886.548-.1421,1.096-.2131,1.644-.2131.6495,0,1.1975.1928,1.644.5683.4465.3653.68.8017.68,1.2888,0,.7205-.1928,1.2381-.5684,1.5628-.3653.3146-.7713.4668-1.2076.4668-.4161,0-.7814-.071-1.1163-.2334-.3348-.1522-.7306-.2334-1.1671-.2334-.3958,0-.8018.0913-1.2076.274-.3958.1827-.7611.477-1.096.8626-.3348.3958-.6089.8829-.8221,1.4613-.2029.5785-.2943,1.2584-.2943,2.0499v7.733c0,.5683-.1928,1.0351-.5684,1.4208-.3755.3856-.8423.5785-1.4005.5785h-.0001Z"/>
  <path class="cls-3" d="M514.0457,100.1067h7.733c.5176,0,.9539.1827,1.2888.5277.345.3349.5277.7713.5277,1.2888,0,.5074-.1827.9336-.5277,1.2685-.3348.3349-.7713.5074-1.2888.5074h-7.733c-.5277,0-.964-.1725-1.3092-.5277-.3552-.345-.5277-.7916-.5277-1.3091,0-.4871.1726-.9133.5277-1.2482.345-.3349.7814-.5074,1.3092-.5074ZM517.5367,96.0271c.5582,0,1.025.1928,1.37.5683.3653.3856.548.8525.548,1.4208v14.5425c0,.2943.0508.548.1726.7408.1218.203.2943.3349.5074.4262.2131.0812.4364.1218.68.1218.2537,0,.4871-.0507.7002-.1522.2232-.0913.4769-.1522.7611-.1522.3045,0,.5784.1522.8221.4465.2537.2842.3856.6698.3856,1.1671,0,.6089-.3348,1.1062-.9945,1.5019-.6698.3958-1.37.5886-2.1311.5886-.4668,0-.9742-.0304-1.5222-.1015-.548-.0812-1.0758-.274-1.5629-.5683-.4973-.2943-.9032-.7408-1.2279-1.3497-.3247-.5987-.4871-1.4411-.4871-2.5168v-14.6947c0-.5582.1928-1.0351.5684-1.4208s.8423-.5683,1.4106-.5683h-.0002Z"/>
  <path class="cls-3" d="M535.3542,93.0841c.4769,0,.9438.0609,1.4005.1928.4668.1218.8423.3349,1.1366.6292.3045.2943.4668.6901.4668,1.1671,0,.548-.1624.9844-.4668,1.2888-.3147.3146-.68.4668-1.096.4668-.2029,0-.4973-.0507-.8931-.1522-.3856-.0913-.7611-.1522-1.1366-.1522-.5379,0-.9539.1218-1.2482.3552-.2943.2436-.4973.5277-.6089.8423-.1015.3146-.1522.5886-.1522.822v16.704c0,.5683-.1928,1.0351-.5684,1.4208-.3653.3856-.8321.5683-1.4005.5683s-1.0351-.1928-1.4208-.5683c-.3653-.3856-.548-.8525-.548-1.4208v-16.6634c0-1.5527.5379-2.8517,1.6237-3.9071,1.1061-1.0554,2.74-1.5933,4.9117-1.5933h.0001ZM535.7197,100.1067c.5176,0,.9539.1725,1.3092.5074.345.3349.5277.7713.5277,1.2888,0,.5277-.1827.9539-.5277,1.2888-.3552.3349-.7916.5074-1.3092.5074h-8.6463c-.5277,0-.964-.1725-1.3092-.5074-.3552-.3349-.5277-.7713-.5277-1.2888s.1726-.9539.5277-1.2888c.345-.3349.7916-.5074,1.3092-.5074h8.6463Z"/>
  <path class="cls-3" d="M556.6173,108.5196c0,1.7962-.406,3.3692-1.2076,4.7392-.7916,1.3497-1.8571,2.4153-3.1967,3.1663-1.3395.7611-2.8314,1.1366-4.4856,1.1366s-3.1459-.3856-4.4856-1.1366c-1.3395-.7611-2.4153-1.8165-3.217-3.1663-.7916-1.3599-1.1874-2.943-1.1874-4.7392,0-1.7759.3958-3.3388,1.1874-4.6885.8018-1.3599,1.8672-2.4356,3.217-3.217,1.3395-.7713,2.8314-1.1671,4.4856-1.1671s3.1358.3958,4.4856,1.1671c1.3395.7814,2.395,1.847,3.1967,3.217.8119,1.3497,1.2076,2.9126,1.2076,4.6885ZM552.7101,108.5196c0-1.096-.2232-2.0601-.68-2.872-.4364-.8119-1.0351-1.4512-1.7963-1.9079-.751-.4668-1.5832-.7002-2.4964-.7002-.9235,0-1.7455.2334-2.4964.7002-.751.4567-1.3497,1.0859-1.7963,1.9079-.4566.822-.68,1.7759-.68,2.872s.2232,2.0601.68,2.872c.4465.822,1.0453,1.4614,1.7963,1.9282.7408.4567,1.573.6799,2.4964.6799.9134,0,1.7455-.2233,2.4964-.6799.7611-.4668,1.3598-1.1062,1.7963-1.9282.4465-.8119.68-1.7759.68-2.872Z"/>
  <path class="cls-3" d="M564.2886,115.2682c0,.5683-.1928,1.0351-.5684,1.4208s-.8524.5683-1.4208.5683c-.548,0-1.0047-.1928-1.37-.5683-.3653-.3856-.548-.8525-.548-1.4208v-20.195c0-.5582.1928-1.0351.5684-1.4208s.8524-.5683,1.4208-.5683c.5582,0,1.025.1928,1.37.5683.3653.3856.548.8525.548,1.4208v20.195Z"/>
  <path class="cls-3" d="M572.5553,115.2682c0,.5683-.1928,1.0351-.5684,1.4208-.3653.3856-.8321.5683-1.4005.5683s-1.0351-.1928-1.4005-.5683c-.3653-.3856-.548-.8525-.548-1.4208v-13.487c0-.5582.1827-1.0351.548-1.4208.3653-.3958.8321-.5886,1.4005-.5886.5582,0,1.025.203,1.4005.5886.3856.3856.5684.8525.5684,1.4208v13.487ZM570.5663,97.6508c-.7306,0-1.2584-.1116-1.5629-.3552-.3147-.2334-.4668-.6596-.4668-1.2685v-.6292c0-.619.1726-1.0453.5074-1.2685.3348-.2334.8524-.3552,1.5629-.3552.7611,0,1.2888.1218,1.5832.3552.3045.2436.4668.6698.4668,1.2685v.6292c0,.6292-.1624,1.0656-.4871,1.2888s-.8524.3349-1.6034.3349h-.0001Z"/>
  <path class="cls-3" d="M593.5171,108.5196c0,1.7962-.406,3.3692-1.2076,4.7392-.7916,1.3497-1.8571,2.4153-3.1967,3.1663-1.3395.7611-2.8314,1.1366-4.4856,1.1366s-3.1459-.3856-4.4856-1.1366c-1.3395-.7611-2.4153-1.8165-3.217-3.1663-.7916-1.3599-1.1874-2.943-1.1874-4.7392,0-1.7759.3958-3.3388,1.1874-4.6885.8018-1.3599,1.8672-2.4356,3.217-3.217,1.3395-.7713,2.8314-1.1671,4.4856-1.1671s3.1358.3958,4.4856,1.1671c1.3395.7814,2.395,1.847,3.1967,3.217.8119,1.3497,1.2076,2.9126,1.2076,4.6885ZM589.61,108.5196c0-1.096-.2232-2.0601-.68-2.872-.4364-.8119-1.0351-1.4512-1.7963-1.9079-.751-.4668-1.5832-.7002-2.4964-.7002-.9235,0-1.7455.2334-2.4964.7002-.751.4567-1.3497,1.0859-1.7963,1.9079-.4566.822-.68,1.7759-.68,2.872s.2232,2.0601.68,2.872c.4465.822,1.0453,1.4614,1.7963,1.9282.7408.4567,1.573.6799,2.4964.6799.9134,0,1.7455-.2233,2.4964-.6799.7611-.4668,1.3598-1.1062,1.7963-1.9282.4566-.8119.68-1.7759.68-2.872Z"/>
  <path class="cls-3" d="M607.5894,109.1082c-.5684,0-1.0351-.1725-1.4208-.5277-.3856-.3653-.5684-.8119-.5684-1.3497,0-.548.1928-.9945.5684-1.3294.3856-.345.8524-.5277,1.4208-.5277h21.697c.5784,0,1.0555.1827,1.4411.5277.3856.3349.5684.7814.5684,1.3294,0,.5379-.1928.9844-.5684,1.3497-.3856.3552-.8626.5277-1.4411.5277h-21.697Z"/>
  <path class="cls-2" d="M139.3874,163.7633c-.5,0-.9-.17-1.19-.52-.29-.36-.4-.78-.31-1.27l1.42-7.44c.17-.96-.04-1.78-.6-2.46-.57-.69-1.33-1.04-2.29-1.04-.62,0-1.24.16-1.83.48-.58.32-1.08.74-1.48,1.27-.41.52-.68,1.1-.81,1.75l-1.4,7.44c-.1.49-.35.91-.77,1.27-.41.35-.86.52-1.38.52-.5,0-.9-.17-1.19-.52-.29-.36-.4-.78-.31-1.27l1.44-7.44,1.98-11.9c.08-.5.33-.92.75-1.27.42-.34.88-.52,1.38-.52s.9.18,1.19.52c.29.35.4.77.31,1.27l-.88,5.67c1.15-.61,2.38-.92,3.67-.92,1.3,0,2.44.33,3.4.98.96.64,1.67,1.49,2.12,2.56.46,1.07.57,2.27.33,3.6l-1.42,7.44c-.08.49-.33.91-.75,1.27s-.88.53-1.38.53Z"/>
  <path class="cls-2" d="M152.6533,163.8034c-1.49-.03-2.77-.41-3.83-1.15-1.07-.73-1.84-1.72-2.31-2.96-.46-1.23-.56-2.59-.31-4.08.21-1.11.6-2.16,1.19-3.15.59-.98,1.32-1.86,2.17-2.62.84-.76,1.79-1.35,2.83-1.77,1.05-.43,2.14-.65,3.25-.65,1.44,0,2.68.33,3.71.98,1.04.66,1.82,1.55,2.33,2.69s.67,2.45.48,3.94c0,.08-.02.14-.04.17,0,.1-.02.2-.06.29-.11.39-.35.71-.73.96-.36.24-.76.35-1.19.35h-10.46c0,.36.06.74.19,1.15.14.39.32.72.54,1,.26.41.67.74,1.23,1.02.55.27,1.1.42,1.65.46.64.04,1.31-.03,2.02-.23.71-.19,1.33-.53,1.88-1.02.42-.39.8-.57,1.15-.56.34.02.63.1.85.25.22.16.34.24.35.25.29.31.42.67.38,1.08-.03.42-.2.78-.5,1.08-.99.92-1.99,1.57-3,1.96-1.04.37-2.29.56-3.77.56ZM155.0633,150.5334c-.93.04-1.75.27-2.46.67-.7.39-1.27.84-1.71,1.35-.43.52-.73,1-.9,1.46h9.27c-.03-.43-.2-.9-.5-1.42-.31-.51-.77-.96-1.38-1.35-.6-.4-1.37-.64-2.32-.71h0Z"/>
  <path class="cls-2" d="M167.5885,147.4233c.5,0,.88.18,1.15.52.28.33.38.74.29,1.21l-.06.23c.25-.21.55-.42.92-.62.61-.39,1.28-.71,2-.96.73-.25,1.51-.38,2.31-.38.5,0,.89.18,1.17.52.28.33.36.74.27,1.21-.08.49-.33.91-.73,1.25-.39.35-.82.52-1.29.52-.39,0-.76.06-1.1.17-.33.11-.67.25-1,.42-.32.18-.64.42-.94.71-.29.28-.58.57-.85.88-.49.54-.9,1.08-1.23,1.62-.32.53-.54.92-.65,1.17l-1.08,6.19c-.08.47-.33.89-.73,1.23-.41.33-.85.5-1.33.5-.47,0-.85-.17-1.15-.5-.28-.34-.38-.76-.29-1.23l2.29-12.92c.07-.47.3-.88.71-1.21.39-.35.83-.53,1.32-.53h0Z"/>
  <path class="cls-2" d="M183.5883,163.8034c-1.49-.03-2.77-.41-3.83-1.15-1.07-.73-1.84-1.72-2.31-2.96-.46-1.23-.56-2.59-.31-4.08.21-1.11.6-2.16,1.19-3.15.59-.98,1.32-1.86,2.17-2.62.84-.76,1.79-1.35,2.83-1.77,1.05-.43,2.14-.65,3.25-.65,1.44,0,2.68.33,3.71.98,1.04.66,1.82,1.55,2.33,2.69s.67,2.45.48,3.94c0,.08-.02.14-.04.17,0,.1-.02.2-.06.29-.11.39-.35.71-.73.96-.36.24-.76.35-1.19.35h-10.47c0,.36.06.74.19,1.15.14.39.32.72.54,1,.26.41.67.74,1.23,1.02.55.27,1.1.42,1.65.46.64.04,1.31-.03,2.02-.23.71-.19,1.33-.53,1.88-1.02.42-.39.8-.57,1.15-.56.34.02.63.1.85.25.22.16.34.24.35.25.29.31.42.67.38,1.08-.03.42-.2.78-.5,1.08-.99.92-1.99,1.57-3,1.96-1.02.37-2.27.56-3.76.56h0ZM186.0083,150.5334c-.93.04-1.75.27-2.46.67-.7.39-1.27.84-1.71,1.35-.43.52-.73,1-.9,1.46h9.27c-.03-.43-.2-.9-.5-1.42-.31-.51-.77-.96-1.38-1.35-.6-.4-1.38-.64-2.32-.71h0Z"/>
  <path class="cls-2" d="M207.4292,162.0334l2.38-12.81c.09-.5.34-.92.75-1.27.42-.34.88-.52,1.4-.52.5,0,.9.18,1.19.52.29.35.38.77.27,1.27l-2.35,12.81c-.08.49-.33.91-.75,1.27s-.88.54-1.38.54-.91-.18-1.21-.54c-.3-.36-.39-.78-.3-1.27h0ZM214.3292,143.4033c-.08.5-.33.93-.75,1.29s-.88.54-1.38.54c-.47,0-.86-.18-1.17-.54-.29-.36-.4-.79-.31-1.29l.1-.69c.11-.51.38-.94.79-1.29.42-.34.86-.52,1.33-.52.5,0,.9.18,1.19.52.3.35.42.78.33,1.29l-.13.69Z"/>
  <path class="cls-2" d="M226.8194,162.0133l1.38-7.73c.17-.94-.02-1.74-.56-2.4-.54-.65-1.29-.98-2.23-.98-.61,0-1.2.16-1.77.46-.57.31-1.05.71-1.44,1.21-.38.5-.62,1.07-.73,1.71l-1.4,7.73c-.07.47-.31.89-.71,1.23-.41.35-.85.52-1.33.52-.47,0-.85-.17-1.15-.52-.28-.34-.38-.76-.29-1.23l1.38-7.73.9-5.12c.09-.47.34-.88.73-1.21.4-.34.84-.52,1.33-.52.73,0,1.19.34,1.38,1.02,1.17-.68,2.4-1.02,3.69-1.02,1.26,0,2.36.31,3.29.92s1.61,1.44,2.04,2.48c.44,1.03.55,2.18.31,3.46l-1.38,7.73c-.07.47-.31.89-.71,1.23-.39.35-.82.52-1.29.52-.49,0-.88-.17-1.17-.52-.28-.36-.37-.77-.27-1.24h0Z"/>
  <path class="cls-2" d="M246.8918,162.0133l1.38-7.73c.17-.94-.02-1.74-.56-2.4-.54-.65-1.29-.98-2.23-.98-.61,0-1.2.16-1.77.46-.57.31-1.05.71-1.44,1.21-.38.5-.62,1.07-.73,1.71l-1.4,7.73c-.07.47-.31.89-.71,1.23-.41.35-.85.52-1.33.52-.47,0-.85-.17-1.15-.52-.28-.34-.38-.76-.29-1.23l1.38-7.73.9-5.12c.09-.47.34-.88.73-1.21.4-.34.84-.52,1.33-.52.73,0,1.19.34,1.38,1.02,1.17-.68,2.4-1.02,3.69-1.02,1.26,0,2.36.31,3.29.92s1.61,1.44,2.04,2.48c.44,1.03.55,2.18.31,3.46l-1.38,7.73c-.07.47-.31.89-.71,1.23-.39.35-.82.52-1.29.52-.49,0-.88-.17-1.17-.52-.28-.36-.37-.77-.27-1.24h0Z"/>
  <path class="cls-2" d="M265.4843,147.4233c1.08,0,2.07.22,2.96.67s1.62,1.04,2.21,1.79c.57.74.96,1.6,1.17,2.6.22.99.23,2.04.04,3.17-.2,1.12-.58,2.18-1.17,3.17-.57.99-1.27,1.85-2.1,2.58-.81.75-1.74,1.35-2.79,1.79-1.04.45-2.11.67-3.21.67-1.08,0-2.07-.22-2.96-.67-.88-.44-1.61-1.04-2.21-1.79-.54-.73-.93-1.59-1.17-2.58-.22-.98-.24-2.04-.04-3.17.19-1.12.57-2.18,1.15-3.17.58-1,1.28-1.86,2.1-2.6.82-.75,1.75-1.34,2.79-1.79,1.05-.44,2.13-.67,3.23-.67ZM268.3943,155.6533c.23-1.36-.02-2.48-.75-3.35-.67-.92-1.59-1.38-2.77-1.38-1.17,0-2.27.46-3.29,1.38-.46.42-.86.92-1.21,1.5-.33.57-.56,1.19-.69,1.85-.11.67-.1,1.29.02,1.88.14.58.36,1.08.69,1.48.33.42.73.76,1.21,1.02.48.25,1.01.38,1.58.38.58,0,1.16-.12,1.73-.38.57-.26,1.09-.6,1.58-1.02.46-.4.85-.9,1.19-1.48s.57-1.21.71-1.88h0Z"/>
  <path class="cls-2" d="M288.3548,147.7633c.4.2.65.52.75.96.11.43.03.86-.25,1.29l-7.6,12.77c-.02.04-.07.14-.17.27-.02,0-.02.01-.02.02h-.04c-.02.03-.04.06-.06.1l-.1.1c-.02,0-.02.01-.02.02h-.04c-.07.07-.15.12-.23.17-.02.03-.04.04-.06.04-.12.08-.22.14-.29.17h-.04c0,.02-.01.02-.02.02-.04.03-.09.05-.15.06h-.12c-.02,0-.03.01-.04.02l-.02.02c-.04,0-.09.01-.15.02-.06.01-.1.02-.15.02h-.04c-.04,0-.09-.01-.15-.02-.06-.02-.1-.02-.15-.02-.02,0-.03-.01-.04-.02-.02-.01-.02-.02-.02-.02h-.12c-.04-.01-.09-.03-.15-.06l-.02-.02c-.07-.03-.15-.08-.23-.17-.03,0-.04-.01-.04-.04-.04-.01-.1-.07-.19-.17h-.02c-.02-.01-.02-.02-.02-.02-.04-.04-.08-.11-.12-.21h-.02c-.02-.01-.02-.02-.02-.02-.04-.14-.07-.23-.08-.27l-3.12-12.77c-.11-.43-.04-.86.21-1.29.26-.44.63-.76,1.1-.96.48-.18.94-.18,1.35,0,.42.17.67.47.75.92l2.23,8.96,5.33-8.96c.26-.44.62-.75,1.08-.92.4599-.17.9099-.17,1.3199.01h.0002Z"/>
  <path class="cls-2" d="M298.1875,163.7633c-1.07,0-2.05-.21-2.94-.65-.89-.43-1.62-1.02-2.19-1.77-.54-.76-.93-1.63-1.17-2.6-.24-.98-.25-2.03-.04-3.12.18-1.11.55-2.16,1.12-3.15.58-1,1.28-1.88,2.08-2.62.83-.73,1.77-1.31,2.81-1.73,1.05-.43,2.11-.65,3.19-.65.8,0,1.55.12,2.23.35.69.24,1.32.58,1.88,1.02.15-.4.4-.73.75-.98.36-.26.75-.4,1.17-.4.5,0,.89.17,1.17.5.28.32.36.73.25,1.23l-2.23,12.81c-.08.47-.33.89-.73,1.23-.39.35-.82.52-1.29.52-.45,0-.8-.13-1.06-.4-.27-.28-.41-.61-.42-1-.68.42-1.42.76-2.21,1.02-.77.26-1.56.39-2.37.39h0ZM297.2074,152.2434c-.49.42-.91.92-1.25,1.5-.33.57-.56,1.2-.67,1.88-.1.66-.08,1.27.04,1.83.12.57.35,1.07.69,1.5.65.91,1.58,1.35,2.79,1.35,1.17,0,2.23-.45,3.21-1.35,1.03-.89,1.66-2,1.9-3.33.12-.68.11-1.3-.02-1.88-.14-.58-.38-1.08-.71-1.5-.31-.42-.7-.74-1.17-.98-.46-.23-.99-.35-1.58-.35-.58,0-1.16.12-1.71.35-.54.24-1.05.56-1.52.98h0Z"/>
  <path class="cls-2" d="M317.8972,140.8433c.5,0,.9.18,1.19.52.3.35.41.77.31,1.27l-.71,4.79h.85c.5,0,.9.18,1.19.54s.38.79.27,1.29c-.08.49-.33.91-.75,1.27-.42.35-.88.52-1.38.52h-.85l-1.69,9.08c.5,0,.9.18,1.19.54s.4.79.31,1.29c-.08.49-.33.91-.75,1.27-.42.35-.88.52-1.38.52-1.02,0-1.82-.35-2.42-1.06-.58-.71-.79-1.56-.6-2.56l1.73-9.08h-.98c-.47,0-.86-.17-1.17-.52-.29-.36-.4-.78-.31-1.27.09-.5.34-.93.75-1.29.42-.36.88-.54,1.4-.54h.94l.73-4.79c.11-.5.36-.92.77-1.27.42-.34.87-.52,1.36-.52h0Z"/>
  <path class="cls-2" d="M322.5809,162.0334l2.38-12.81c.09-.5.34-.92.75-1.27.42-.34.88-.52,1.4-.52.5,0,.9.18,1.19.52.29.35.38.77.27,1.27l-2.35,12.81c-.08.49-.33.91-.75,1.27s-.88.54-1.38.54-.91-.18-1.21-.54c-.3-.36-.4-.78-.3-1.27h0ZM329.4809,143.4033c-.08.5-.33.93-.75,1.29s-.88.54-1.38.54c-.47,0-.86-.18-1.17-.54-.29-.36-.4-.79-.31-1.29l.1-.69c.11-.51.38-.94.79-1.29.42-.34.86-.52,1.33-.52.5,0,.9.18,1.19.52.3.35.42.78.33,1.29l-.13.69Z"/>
  <path class="cls-2" d="M340.491,147.4233c1.08,0,2.07.22,2.96.67s1.62,1.04,2.21,1.79c.57.74.96,1.6,1.17,2.6.22.99.23,2.04.04,3.17-.2,1.12-.58,2.18-1.17,3.17-.57.99-1.27,1.85-2.1,2.58-.81.75-1.74,1.35-2.79,1.79-1.04.45-2.11.67-3.21.67-1.08,0-2.07-.22-2.96-.67-.88-.44-1.61-1.04-2.21-1.79-.54-.73-.93-1.59-1.17-2.58-.22-.98-.24-2.04-.04-3.17.19-1.12.57-2.18,1.15-3.17.58-1,1.28-1.86,2.1-2.6.82-.75,1.75-1.34,2.79-1.79,1.05-.44,2.1301-.67,3.23-.67ZM343.411,155.6533c.23-1.36-.02-2.48-.75-3.35-.67-.92-1.59-1.38-2.77-1.38-1.17,0-2.27.46-3.29,1.38-.46.42-.86.92-1.21,1.5-.33.57-.56,1.19-.69,1.85-.11.67-.1,1.29.02,1.88.14.58.36,1.08.69,1.48.33.42.73.76,1.21,1.02.48.25,1.01.38,1.58.38.58,0,1.16-.12,1.73-.38.57-.26,1.09-.6,1.58-1.02.46-.4.85-.9,1.19-1.48.33-.58.57-1.21.71-1.88h0Z"/>
  <path class="cls-2" d="M360.8003,162.0133l1.38-7.73c.17-.94-.02-1.74-.56-2.4-.54-.65-1.29-.98-2.23-.98-.61,0-1.2.16-1.77.46-.57.31-1.05.71-1.44,1.21-.38.5-.62,1.07-.73,1.71l-1.4,7.73c-.07.47-.31.89-.71,1.23-.41.35-.85.52-1.33.52-.47,0-.85-.17-1.15-.52-.28-.34-.38-.76-.29-1.23l1.38-7.73.9-5.12c.09-.47.34-.88.73-1.21.4-.34.84-.52,1.33-.52.73,0,1.19.34,1.38,1.02,1.17-.68,2.4-1.02,3.69-1.02,1.26,0,2.36.31,3.29.92s1.61,1.44,2.04,2.48c.44,1.03.55,2.18.31,3.46l-1.38,7.73c-.07.47-.31.89-.71,1.23-.39.35-.82.52-1.29.52-.49,0-.88-.17-1.17-.52-.28-.36-.37-.77-.27-1.24h0Z"/>
  <path class="cls-2" d="M395.4996,154.2434l-1.35,7.73c-.08.49-.33.91-.73,1.25-.39.35-.83.52-1.33.52-.47,0-.85-.17-1.12-.52-.28-.34-.39-.76-.3101-1.25l1.38-7.73v-.06c.15-.92-.05-1.69-.6-2.33-.54-.65-1.27-.98-2.1899-.98-.58,0-1.16.16-1.73.46-.5699.31-1.05.71-1.4399,1.21s-.64,1.07-.75,1.71l-1.38,7.73c-.1.49-.34.91-.73,1.25-.39.35-.83.52-1.3101.52-.47,0-.85-.17-1.12-.52-.28-.34-.37-.76-.27-1.25l1.33-7.73.9-5.08c.09-.5.34-.91.73-1.23.4-.33.84-.5,1.33-.5.71,0,1.17.33,1.4.98,1.1801-.65,2.4-.98,3.67-.98,1.03,0,1.9399.2,2.75.6.8.41,1.46.95,1.98,1.65.76-.69,1.61-1.24,2.54-1.65.9399-.4,1.9301-.6,2.96-.6,1.26,0,2.35.31,3.27.92s1.58,1.43,2,2.46c.4301,1.03.54,2.18.33,3.44l-1.4,7.73c-.0601.49-.29.91-.6899,1.25-.41.35-.85.52-1.33.52-.49,0-.87-.17-1.15-.52-.27-.34-.35-.76-.27-1.25l1.35-7.73c.17-.94-.02-1.74-.5601-2.4-.53-.65-1.26-.98-2.1899-.98-.92,0-1.76.33-2.52.98-.77.64-1.24,1.42-1.42,2.33v.02c-.01-.0101-.02,0-.03.03h0Z"/>
  <path class="cls-2" d="M416.1897,163.8034c-1.49-.03-2.77-.41-3.83-1.15-1.0699-.73-1.84-1.72-2.3101-2.96-.46-1.23-.5601-2.59-.3101-4.08.21-1.11.6-2.16,1.1899-3.15.59-.98,1.3199-1.86,2.17-2.62.84-.76,1.79-1.35,2.83-1.77,1.05-.43,2.14-.65,3.25-.65,1.4399,0,2.6801.33,3.71.98,1.04.66,1.8199,1.55,2.33,2.69s.67,2.45.48,3.94c0,.08-.02.14-.04.17,0,.1-.02.2-.0601.29-.11.39-.35.71-.73.96-.36.24-.76.35-1.1899.35h-10.47c0,.36.0601.74.1899,1.15.14.39.3199.72.54,1,.26.41.67.74,1.23,1.02.55.27,1.1.42,1.65.46.64.04,1.3101-.03,2.02-.23.71-.19,1.33-.53,1.88-1.02.42-.39.8-.57,1.15-.56.34.02.63.1.85.25.22.16.34.24.35.25.29.31.42.67.38,1.08-.03.42-.2.78-.5,1.08-.99.92-1.99,1.57-3,1.96-1.02.37-2.27.56-3.76.56h.0002ZM418.6096,150.5334c-.9301.04-1.75.27-2.46.67-.7.39-1.27.84-1.71,1.35-.4301.52-.73,1-.9,1.46h9.27c-.03-.43-.2-.9-.5-1.42-.3101-.51-.77-.96-1.38-1.35-.6-.4-1.38-.64-2.3199-.71h-.0001Z"/>
  <path class="cls-2" d="M436.1339,163.8034c-1.49-.03-2.77-.41-3.83-1.15-1.0699-.73-1.84-1.72-2.3101-2.96-.46-1.23-.5601-2.59-.3101-4.08.21-1.11.6-2.16,1.1899-3.15.59-.98,1.3199-1.86,2.17-2.62.84-.76,1.79-1.35,2.83-1.77,1.05-.43,2.14-.65,3.25-.65,1.4399,0,2.6801.33,3.71.98,1.04.66,1.8199,1.55,2.33,2.69s.67,2.45.48,3.94c0,.08-.02.14-.04.17,0,.1-.02.2-.0601.29-.11.39-.35.71-.73.96-.36.24-.76.35-1.1899.35h-10.46c0,.36.0601.74.1899,1.15.14.39.3199.72.54,1,.26.41.67.74,1.23,1.02.55.27,1.1.42,1.65.46.64.04,1.3101-.03,2.02-.23.71-.19,1.33-.53,1.88-1.02.42-.39.8-.57,1.15-.56.34.02.63.1.85.25.22.16.34.24.35.25.29.31.42.67.38,1.08-.03.42-.2.78-.5,1.08-.99.92-1.99,1.57-3,1.96-1.04.37-2.29.56-3.77.56h.0002ZM438.5438,150.5334c-.9301.04-1.75.27-2.46.67-.7.39-1.27.84-1.71,1.35-.4301.52-.73,1-.9,1.46h9.27c-.03-.43-.2-.9-.5-1.42-.3101-.51-.77-.96-1.38-1.35-.6-.4-1.37-.64-2.3199-.71h-.0001Z"/>
  <path class="cls-2" d="M454.3983,140.8433c.5,0,.9.18,1.1899.52.3.35.41.77.3101,1.27l-.71,4.79h.85c.5,0,.9.18,1.1899.54s.38.79.27,1.29c-.08.49-.33.91-.75,1.27-.42.35-.88.52-1.38.52h-.85l-1.6899,9.08c.5,0,.9.18,1.1899.54s.4.79.3101,1.29c-.08.49-.33.91-.75,1.27-.42.35-.88.52-1.38.52-1.02,0-1.8199-.35-2.42-1.06-.58-.71-.79-1.56-.6-2.56l1.73-9.08h-.98c-.47,0-.86-.17-1.17-.52-.29-.36-.4-.78-.3101-1.27.09-.5.34-.93.75-1.29.42-.36.88-.54,1.4-.54h.9399l.73-4.79c.11-.5.36-.92.77-1.27.4301-.34.8801-.52,1.36-.52h.0001Z"/>
  <path class="cls-2" d="M459.1585,161.5133c-.33-.3-.48-.69-.4399-1.17.04-.47.23-.88.58-1.23.38-.39.8101-.6,1.3101-.65.51-.04.9301.1,1.25.42.33.35.8.68,1.42.98.61.29,1.22.43,1.83.4.46,0,.89-.05,1.29-.17.42-.12.77-.26,1.0601-.42.28-.19.48-.36.6-.52.12-.15.1899-.3.21-.44,0-.15-.01-.27-.02-.35-.03-.04-.0699-.09-.12-.17-.0601-.08-.14-.17-.25-.25-.21-.15-.54-.31-1-.48-.45-.17-.95-.3-1.52-.42h-.02c-.49-.11-.97-.23-1.4399-.35-.46-.14-.89-.3-1.29-.5-.35-.21-.7-.46-1.04-.77-.33-.3-.6-.69-.79-1.15-.24-.64-.3101-1.32-.23-2.04.15-.73.46-1.41.9399-2.02s1.03-1.12,1.62-1.54c.62-.4,1.3-.71,2.02-.92.72-.22,1.46-.33,2.21-.33,1.12,0,2.05.22,2.79.65.73.42,1.33.81,1.79,1.19.36.24.55.6.5601,1.08.01.47-.16.91-.5,1.31-.3101.39-.71.64-1.21.73-.49.1-.91.02-1.25-.25-.46-.34-.91-.64-1.35-.88-.4301-.23-.91-.35-1.4399-.35-.42,0-.8101.06-1.17.19-.35.11-.65.25-.9.42-.24.17-.41.31-.5.44-.08.12-.14.22-.15.29-.03.07-.04.12-.02.17.01.03.02.06.02.1.0699.11.1801.22.33.31.36.33,1.09.59,2.1899.77l.02.02h.04c.54.08,1.05.2,1.52.35.48.16.9399.35,1.35.6.42.21.8.47,1.15.79.36.32.64.71.83,1.17.28.64.35,1.37.23,2.19-.16.77-.49,1.47-1,2.12-.5.64-1.0601,1.18-1.6899,1.62-.66.41-1.37.72-2.15.96-.78.22-1.5601.33-2.35.33-1.24-.01-2.3101-.26-3.21-.73-.86-.47-1.5699-.97-2.11-1.5h-.0001Z"/>
  <path class="cls-2" d="M492.5465,163.8034c-1.5601,0-2.92-.36-4.08-1.1-1.17-.75-2.02-1.76-2.5601-3.02-.54-1.26-.6899-2.67-.4399-4.23.22-1.15.65-2.23,1.27-3.25.62-1.01,1.4-1.9,2.3101-2.67.92-.76,1.92-1.36,3.02-1.79,1.11-.43,2.26-.65,3.4399-.65,1,0,1.92.16,2.77.48.84.32,1.5699.77,2.1899,1.33.33.31.48.7.46,1.19-.02.49-.21.93-.58,1.33-.35.38-.77.59-1.27.65-.5.04-.9301-.07-1.27-.35-.77-.69-1.74-1.04-2.92-1.04-.92,0-1.8.22-2.65.67-.83.43-1.54,1.01-2.1,1.73-.5699.71-.9301,1.5-1.08,2.38-.16.88-.08,1.68.23,2.42.3199.72.8199,1.31,1.5,1.75.6801.43,1.48.65,2.4.65,1.1801,0,2.28-.36,3.3101-1.08.4301-.3.88-.42,1.35-.35.48.07.84.3,1.0601.69.23.39.28.83.12,1.31-.16.49-.45.89-.88,1.19-.8101.56-1.7.99-2.67,1.31-.95.29-1.9301.45-2.9301.45Z"/>
  <path class="cls-2" d="M508.9876,147.4233c.5,0,.88.18,1.15.52.28.33.38.74.29,1.21l-.0601.23c.25-.21.55-.42.92-.62.61-.39,1.28-.71,2-.96.73-.25,1.51-.38,2.3101-.38.5,0,.89.18,1.17.52.28.33.36.74.27,1.21-.08.49-.33.91-.73,1.25-.39.35-.8199.52-1.29.52-.39,0-.76.06-1.1.17-.33.11-.67.25-1,.42-.3199.18-.64.42-.9399.71-.29.28-.58.57-.85.88-.49.54-.9,1.08-1.23,1.62-.3199.53-.54.92-.65,1.17l-1.08,6.19c-.08.47-.33.89-.73,1.23-.41.33-.85.5-1.33.5-.47,0-.85-.17-1.15-.5-.28-.34-.38-.76-.29-1.23l2.29-12.92c.0699-.47.3-.88.71-1.21.39-.35.83-.53,1.3199-.53h-.0002Z"/>
  <path class="cls-2" d="M524.9875,163.8034c-1.49-.03-2.77-.41-3.83-1.15-1.0699-.73-1.84-1.72-2.3101-2.96-.46-1.23-.5601-2.59-.3101-4.08.21-1.11.6-2.16,1.1899-3.15.59-.98,1.3199-1.86,2.17-2.62.84-.76,1.79-1.35,2.83-1.77,1.05-.43,2.14-.65,3.25-.65,1.4399,0,2.6801.33,3.71.98,1.04.66,1.8199,1.55,2.33,2.69s.67,2.45.48,3.94c0,.08-.02.14-.04.17,0,.1-.02.2-.0601.29-.11.39-.35.71-.73.96-.36.24-.76.35-1.1899.35h-10.47c0,.36.0601.74.1899,1.15.14.39.3199.72.54,1,.26.41.67.74,1.23,1.02.55.27,1.1.42,1.65.46.64.04,1.3101-.03,2.02-.23.71-.19,1.33-.53,1.88-1.02.42-.39.8-.57,1.15-.56.34.02.63.1.85.25.22.16.34.24.35.25.29.31.42.67.38,1.08-.03.42-.2.78-.5,1.08-.99.92-1.99,1.57-3,1.96-1.02.37-2.27.56-3.76.56h.0002ZM527.4075,150.5334c-.9301.04-1.75.27-2.46.67-.7.39-1.27.84-1.71,1.35-.4301.52-.73,1-.9,1.46h9.27c-.03-.43-.2-.9-.5-1.42-.3101-.51-.77-.96-1.38-1.35-.6-.4-1.38-.64-2.3199-.71h-.0001Z"/>
  <path class="cls-2" d="M543.8217,163.7633c-1.0699,0-2.05-.21-2.9399-.65-.89-.43-1.62-1.02-2.1899-1.77-.54-.76-.9301-1.63-1.17-2.6-.24-.98-.25-2.03-.04-3.12.1801-1.11.55-2.16,1.12-3.15.58-1,1.28-1.88,2.08-2.62.83-.73,1.77-1.31,2.8101-1.73,1.05-.43,2.11-.65,3.1899-.65.8,0,1.55.12,2.23.35.6899.24,1.3199.58,1.88,1.02.15-.4.4-.73.75-.98.36-.26.75-.4,1.17-.4.5,0,.89.17,1.17.5.28.32.36.73.25,1.23l-2.23,12.81c-.08.47-.33.89-.73,1.23-.39.35-.8199.52-1.29.52-.45,0-.8-.13-1.0601-.4-.27-.28-.41-.61-.42-1-.6801.42-1.42.76-2.21,1.02-.77.26-1.5699.39-2.37.39h0ZM542.8419,152.2434c-.49.42-.91.92-1.25,1.5-.33.57-.5601,1.2-.67,1.88-.1.66-.08,1.27.04,1.83.12.57.35,1.07.6899,1.5.65.91,1.58,1.35,2.79,1.35,1.17,0,2.23-.45,3.21-1.35,1.03-.89,1.66-2,1.9-3.33.12-.68.11-1.3-.02-1.88-.14-.58-.38-1.08-.71-1.5-.3101-.42-.7-.74-1.17-.98-.46-.23-.99-.35-1.58-.35-.58,0-1.16.12-1.71.35-.54.24-1.05.56-1.52.98Z"/>
  <path class="cls-2" d="M563.5317,140.8433c.5,0,.9.18,1.1899.52.3.35.41.77.3101,1.27l-.71,4.79h.85c.5,0,.9.18,1.1899.54s.38.79.27,1.29c-.08.49-.33.91-.75,1.27-.42.35-.88.52-1.38.52h-.85l-1.6899,9.08c.5,0,.9.18,1.1899.54s.4.79.3101,1.29c-.08.49-.33.91-.75,1.27-.42.35-.88.52-1.38.52-1.02,0-1.8199-.35-2.42-1.06-.58-.71-.79-1.56-.6-2.56l1.73-9.08h-.98c-.47,0-.86-.17-1.17-.52-.29-.36-.4-.78-.3101-1.27.09-.5.34-.93.75-1.29.42-.36.88-.54,1.4-.54h.9399l.73-4.79c.11-.5.36-.92.77-1.27.42-.34.8701-.52,1.36-.52h.0001Z"/>
  <path class="cls-2" d="M568.2153,162.0334l2.38-12.81c.09-.5.34-.92.75-1.27.42-.34.88-.52,1.4-.52.5,0,.9.18,1.1899.52.29.35.38.77.27,1.27l-2.35,12.81c-.08.49-.33.91-.75,1.27s-.88.54-1.38.54-.91-.18-1.21-.54-.4-.78-.3-1.27ZM575.1153,143.4033c-.08.5-.33.93-.75,1.29s-.88.54-1.38.54c-.47,0-.86-.18-1.17-.54-.29-.36-.4-.79-.3101-1.29l.1-.69c.11-.51.38-.94.79-1.29.42-.34.86-.52,1.33-.52.5,0,.9.18,1.1899.52.3.35.42.78.33,1.29l-.13.69h.0002Z"/>
  <path class="cls-2" d="M591.0941,147.7633c.4.2.65.52.75.96.11.43.03.86-.25,1.29l-7.6,12.77c-.02.04-.0699.14-.17.27-.02,0-.02.01-.02.02h-.04c-.02.03-.04.06-.0601.1l-.1.1c-.02,0-.02.01-.02.02h-.04c-.0699.07-.15.12-.23.17-.02.03-.04.04-.0601.04-.12.08-.22.14-.29.17h-.04c0,.02-.01.02-.02.02-.04.03-.09.05-.15.06h-.12c-.02,0-.03.01-.04.02l-.02.02c-.04,0-.09.01-.15.02-.0601.01-.1.02-.15.02h-.04c-.04,0-.09-.01-.15-.02-.0601-.02-.1-.02-.15-.02-.02,0-.03-.01-.04-.02-.02-.01-.02-.02-.02-.02h-.12c-.04-.01-.09-.03-.15-.06,0,0-.01-.01-.02-.02-.0699-.03-.15-.08-.23-.17-.03,0-.04-.01-.04-.04-.04-.01-.1-.07-.1899-.17h-.02c-.02-.01-.02-.02-.02-.02-.04-.04-.08-.11-.12-.21h-.02c-.02-.01-.02-.02-.02-.02-.04-.14-.0699-.23-.08-.27l-3.12-12.77c-.11-.43-.04-.86.21-1.29.26-.44.63-.76,1.1-.96.48-.18.9399-.18,1.35,0,.42.17.67.47.75.92l2.23,8.96,5.33-8.96c.26-.44.62-.75,1.08-.92.45-.17.8999-.17,1.3199.01h.0009Z"/>
  <path class="cls-2" d="M594.9672,162.0334l2.38-12.81c.09-.5.34-.92.75-1.27.42-.34.88-.52,1.4-.52.5,0,.9.18,1.1899.52.29.35.38.77.27,1.27l-2.35,12.81c-.08.49-.33.91-.75,1.27s-.88.54-1.38.54-.91-.18-1.21-.54-.4-.78-.3-1.27ZM601.8571,143.4033c-.08.5-.33.93-.75,1.29s-.88.54-1.38.54c-.47,0-.86-.18-1.17-.54-.29-.36-.4-.79-.3101-1.29l.1-.69c.11-.51.38-.94.79-1.29.42-.34.86-.52,1.33-.52.5,0,.9.18,1.1899.52.3.35.42.78.33,1.29l-.13.69h.0002Z"/>
  <path class="cls-2" d="M609.7196,140.8433c.5,0,.9.18,1.1899.52.3.35.41.77.3101,1.27l-.71,4.79h.85c.5,0,.9.18,1.1899.54s.38.79.27,1.29c-.08.49-.33.91-.75,1.27-.42.35-.88.52-1.38.52h-.85l-1.6899,9.08c.5,0,.9.18,1.1899.54s.4.79.3101,1.29c-.08.49-.33.91-.75,1.27-.42.35-.88.52-1.38.52-1.02,0-1.8199-.35-2.42-1.06-.58-.71-.79-1.56-.6-2.56l1.73-9.08h-.98c-.47,0-.86-.17-1.17-.52-.29-.36-.4-.78-.3101-1.27.09-.5.34-.93.75-1.29.42-.36.88-.54,1.4-.54h.9399l.73-4.79c.11-.5.36-.92.77-1.27.4301-.34.88-.52,1.36-.52h.0001Z"/>
  <path class="cls-2" d="M631.2639,149.1533l-.46,2.52-1.77,10.1c-.2,1.08-.58,2.09-1.15,3.04-.5699.96-1.28,1.8-2.12,2.52-.85.73-1.79,1.3-2.8101,1.71-1.03.4-2.09.6-3.1899.6-1.24,0-2.35-.27-3.33-.81-.39-.22-.62-.56-.71-1.02-.0699-.46.03-.91.3101-1.33.3-.45.7-.74,1.1899-.9.5-.16.9399-.12,1.33.1.5699.29,1.1801.44,1.83.44.96,0,1.86-.29,2.71-.85.86-.56,1.51-1.27,1.9399-2.12-1.04.52-2.14.77-3.29.77-1.27,0-2.37-.3-3.3101-.92-.95-.62-1.64-1.46-2.08-2.5-.4301-1.05-.54-2.21-.3101-3.48l1.38-7.88c.11-.5.36-.91.75-1.23.4-.33.84-.5,1.3101-.5.5,0,.89.17,1.17.5.29.32.4.73.3101,1.23l-1.42,7.88c-.16.93.04,1.73.58,2.4.55.67,1.3,1,2.25,1,.96,0,1.8199-.33,2.58-1,.78-.67,1.26-1.46,1.4399-2.4l1.33-7.88c.0699-.34.22-.65.46-.92.48-.54,1.02-.81,1.6-.81.42,0,.73.11.96.33.46.32.63.79.52,1.41h.0004Z"/>
  <path class="cls-2" d="M122.4038,140.5437c.1864-.43.4764-.77.8595-1.02.4039-.25.8284-.38,1.2944-.38.5488,0,.9734.17,1.2944.5.3314.33.497.74.497,1.23,0,.25-.0725.52-.2175.81l-9.2159,20.06c-.2071.43-.5074.78-.9112,1.04-.3935.25-.818.38-1.2736.38-.466,0-.8491-.12-1.1598-.38-.3003-.26-.497-.61-.5799-1.04l-2.6271-11.7672-6.1021,11.8872c-.1657.39-.4349.7-.818.94-.3728.23-.7663.35-1.1908.35-.4349,0-.7974-.12-1.0976-.35s-.4867-.55-.5591-.94l-3.5621-20.15c-.0311-.03-.0414-.07-.0414-.15v-.21c0-.59.2381-1.11.7145-1.56.4764-.44,1.0459-.67,1.7086-.67.4556,0,.8491.14,1.1598.4.3106.27.497.61.5591,1.04,0,0,2.4334,14.85,2.4334,14.85,1.2935-2.8286,2.1475-4.7382,4.0472-8.412.2527-.4886.5651-.9513.953-1.3413,1.2128-1.2191,3.3741-1.4441,4.5318-.0391.526.6383.7897,1.4521.9615,2.2611.544,2.5608,1.0518,5.1284,1.6009,7.6913,0,0,6.7411-15.03,6.7411-15.03Z"/>
</svg>