<?xml version="1.0" encoding="UTF-8"?>
<svg id="Layer_1" data-name="Layer 1" xmlns="http://www.w3.org/2000/svg" xmlns:xlink="http://www.w3.org/1999/xlink" viewBox="0 0 1366 1080.2814">
  <defs>
    <style>
      .cls-1 {
        clip-path: url(#clippath-1);
      }

      .cls-2 {
        clip-path: url(#clippath-2);
      }

      .cls-3 {
        fill: #fff;
      }

      .cls-4 {
        fill: #2c6560;
      }

      .cls-5 {
        clip-path: url(#clippath);
      }
    </style>
    <clipPath id="clippath">
      <rect class="cls-3" width="1365.3334" height="1080.2812"/>
    </clipPath>
    <clipPath id="clippath-1">
      <rect class="cls-3" y="-.3696" width="1365.3334" height="1081.3333"/>
    </clipPath>
    <clipPath id="clippath-2">
      <rect class="cls-3" y=".0002" width="1365.3334" height="1080.2812"/>
    </clipPath>
  </defs>
  <g>
    <rect class="cls-3" width="1365.3334" height="1080.2812"/>
    <g class="cls-5">
      <g>
        <rect class="cls-3" y="-.3696" width="1365.3334" height="1081.3333"/>
        <g class="cls-1">
          <g>
            <rect class="cls-3" y=".0002" width="1365.3334" height="1080.2812"/>
            <g class="cls-2">
              <path class="cls-3" d="M-3.0052.0002h1384.1042v1080.2813H-3.0052V.0002Z"/>
            </g>
          </g>
        </g>
      </g>
    </g>
  </g>
  <path class="cls-4" d="M558.4482,544.4502c2.7917,0,5.125.8906,7,2.6667,1.8854,1.7813,2.8333,4.0625,2.8333,6.8542,0,2.6979-.9479,4.9323-2.8333,6.7083-1.875,1.7656-4.2083,2.6458-7,2.6458h-52.3958c-2.8073,0-5.1458-.9375-7.0208-2.8125-1.875-1.8854-2.8125-4.2292-2.8125-7.0208v-93.2083c0-2.7917.9635-5.125,2.8958-7,1.9271-1.8854,4.401-2.8333,7.4167-2.8333,2.5833,0,4.8646.9479,6.8542,2.8333,1.9844,1.875,2.9792,4.2083,2.9792,7v86.9167l-3.5417-2.75h45.625Z"/>
  <path class="cls-4" d="M665.6786,520.2627c0,8.8229-1.9688,16.5938-5.8958,23.3125-3.9167,6.724-9.1823,11.9687-15.7917,15.7292-6.6146,3.75-14,5.625-22.1667,5.625s-15.5573-1.875-22.1667-5.625c-6.6146-3.7604-11.8854-9.0052-15.8125-15.7292-3.9167-6.7188-5.875-14.4896-5.875-23.3125,0-8.8021,1.9583-16.5677,5.875-23.2917,3.9271-6.7188,9.1979-11.9844,15.8125-15.7917,6.6094-3.8177,14-5.7292,22.1667-5.7292s15.5521,1.9115,22.1667,5.7292c6.6094,3.8073,11.875,9.0729,15.7917,15.7917,3.9271,6.724,5.8958,14.4896,5.8958,23.2917ZM646.3245,520.2627c0-5.4688-1.1042-10.2188-3.3125-14.25-2.1979-4.0417-5.1458-7.1875-8.8542-9.4375-3.7083-2.2604-7.8229-3.3958-12.3333-3.3958-4.5156,0-8.625,1.1354-12.3333,3.3958-3.7083,2.25-6.6667,5.3958-8.875,9.4375-2.2083,4.0313-3.3125,8.7813-3.3125,14.25,0,5.375,1.1042,10.0833,3.3125,14.125,2.2083,4.0313,5.1667,7.1771,8.875,9.4375,3.7083,2.25,7.8177,3.375,12.3333,3.375,4.5104,0,8.625-1.125,12.3333-3.375,3.7083-2.2604,6.6563-5.4063,8.8542-9.4375,2.2083-4.0417,3.3125-8.75,3.3125-14.125Z"/>
  <path class="cls-4" d="M715.1773,475.4502c4.5104,0,8.651.7031,12.4167,2.1042,3.7604,1.3906,7.0104,3.1615,9.75,5.3125,2.75,2.1563,4.901,4.3333,6.4583,6.5417,1.5521,2.1979,2.3333,4.0417,2.3333,5.5417l-4.1875,2.1042v-11.7708c0-2.7917.9063-5.125,2.7292-7,1.8333-1.8854,4.151-2.8333,6.9583-2.8333,2.7917,0,5.0938.9167,6.9167,2.75,1.8333,1.8229,2.75,4.1823,2.75,7.0833v71.75c0,9.3594-2.0156,16.8594-6.0417,22.5-4.0313,5.6354-9.3281,9.7188-15.8958,12.25-6.5573,2.526-13.599,3.7917-21.125,3.7917-2.1406,0-4.9323-.2708-8.375-.8125-3.4479-.5313-6.7292-1.1771-9.8542-1.9375-3.1146-.75-5.474-1.4479-7.0833-2.0833-3.224-1.4063-5.4531-3.1563-6.6875-5.25-1.2396-2.099-1.4792-4.3281-.7292-6.6875.9688-3.1146,2.526-5.2396,4.6667-6.375,2.151-1.125,4.4167-1.2604,6.7917-.3958,1.0677.3177,2.8385.9635,5.3125,1.9375,2.4688.9688,5.1875,1.8594,8.1458,2.6667,2.9583.8021,5.5625,1.2083,7.8125,1.2083,8.0677,0,14.0313-1.6198,17.8958-4.8542,3.875-3.224,5.8125-7.6823,5.8125-13.375v-14.0208l1.9375,1.4375c0,1.4063-.7292,3.099-2.1875,5.0833-1.4479,1.9896-3.4323,3.9531-5.9583,5.8958-2.5313,1.9323-5.5156,3.5729-8.9583,4.9167-3.4323,1.3333-7.0833,2-10.9583,2-7.625,0-14.5104-1.901-20.6458-5.7083-6.125-3.8177-10.9583-9.0885-14.5-15.8125-3.5417-6.7188-5.3125-14.4375-5.3125-23.1458,0-8.8021,1.7708-16.5677,5.3125-23.2917,3.5417-6.7188,8.3177-11.9844,14.3333-15.7917,6.026-3.8177,12.75-5.7292,20.1667-5.7292ZM718.2398,493.1794c-4.8333,0-9.0781,1.1875-12.7292,3.5625-3.6563,2.3646-6.5,5.5833-8.5417,9.6667s-3.0625,8.7031-3.0625,13.8542c0,5.0573,1.0208,9.625,3.0625,13.7083s4.8854,7.3125,8.5417,9.6875c3.651,2.3646,7.8958,3.5417,12.7292,3.5417,4.9427,0,9.2396-1.1771,12.8958-3.5417,3.6667-2.375,6.5208-5.6042,8.5625-9.6875s3.0625-8.651,3.0625-13.7083c0-5.151-1.0208-9.7708-3.0625-13.8542s-4.8958-7.3021-8.5625-9.6667c-3.6563-2.375-7.9531-3.5625-12.8958-3.5625Z"/>
  <path class="cls-4" d="M862.7252,520.2627c0,8.8229-1.9688,16.5938-5.8958,23.3125-3.9167,6.724-9.1823,11.9687-15.7917,15.7292-6.6146,3.75-14,5.625-22.1667,5.625s-15.5573-1.875-22.1667-5.625c-6.6146-3.7604-11.8854-9.0052-15.8125-15.7292-3.9167-6.7188-5.875-14.4896-5.875-23.3125,0-8.8021,1.9583-16.5677,5.875-23.2917,3.9271-6.7188,9.1979-11.9844,15.8125-15.7917,6.6094-3.8177,14-5.7292,22.1667-5.7292s15.5521,1.9115,22.1667,5.7292c6.6094,3.8073,11.875,9.0729,15.7917,15.7917,3.9271,6.724,5.8958,14.4896,5.8958,23.2917ZM843.371,520.2627c0-5.4688-1.1042-10.2188-3.3125-14.25-2.1979-4.0417-5.1458-7.1875-8.8542-9.4375-3.7083-2.2604-7.8229-3.3958-12.3333-3.3958-4.5156,0-8.625,1.1354-12.3333,3.3958-3.7083,2.25-6.6667,5.3958-8.875,9.4375-2.2083,4.0313-3.3125,8.7813-3.3125,14.25,0,5.375,1.1042,10.0833,3.3125,14.125,2.2083,4.0313,5.1667,7.1771,8.875,9.4375,3.7083,2.25,7.8177,3.375,12.3333,3.375,4.5104,0,8.625-1.125,12.3333-3.375,3.7083-2.2604,6.6563-5.4063,8.8542-9.4375,2.2083-4.0417,3.3125-8.75,3.3125-14.125Z"/>
  <path class="cls-4" d="M871.4322,549.9502c-1.0729-1.5104-1.5573-3.4479-1.4583-5.8125.1094-2.3594,1.5104-4.401,4.2083-6.125,1.7188-1.0833,3.5469-1.5417,5.4792-1.375,1.9271.1667,3.8125,1.1615,5.6458,2.9792,3.1094,3.125,6.3854,5.5521,9.8333,7.2708,3.4427,1.7083,7.7396,2.5625,12.8958,2.5625,1.6094-.0937,3.3802-.3333,5.3125-.7083,1.9427-.3854,3.6354-1.25,5.0833-2.5833,1.4583-1.3437,2.1875-3.4167,2.1875-6.2083,0-2.375-.8073-4.2552-2.4167-5.6458-1.6146-1.401-3.7396-2.5833-6.375-3.5417-2.6406-.9688-5.5729-1.8854-8.7917-2.75-3.3333-.9688-6.75-2.0469-10.25-3.2292-3.4896-1.1771-6.6823-2.7083-9.5833-4.5833-2.9063-1.8854-5.2708-4.3854-7.1042-7.5-1.8229-3.125-2.7292-7.0469-2.7292-11.7708,0-5.375,1.5-9.9427,4.5-13.7083,3.0104-3.7604,6.9063-6.6667,11.6875-8.7083,4.7917-2.0417,9.8229-3.0625,15.1042-3.0625,3.3333,0,6.8229.4063,10.4792,1.2083,3.651.8073,7.1458,2.099,10.4792,3.875,3.3333,1.7656,6.125,4.099,8.375,7,1.1771,1.6146,1.875,3.5521,2.0833,5.8125.2188,2.25-.7917,4.2917-3.0417,6.125-1.6146,1.2917-3.4948,1.8646-5.6458,1.7083-2.1563-.1667-3.9271-.8958-5.3125-2.1875-1.8333-2.375-4.2865-4.2552-7.3542-5.6458-3.0573-1.401-6.5781-2.1042-10.5625-2.1042-1.6146,0-3.3646.1875-5.25.5625-1.875.375-3.5156,1.1823-4.9167,2.4167-1.3906,1.2396-2.0833,3.2031-2.0833,5.8958,0,2.474.8021,4.4375,2.4167,5.8958,1.6094,1.4479,3.7813,2.625,6.5208,3.5417,2.75.9063,5.6875,1.7865,8.8125,2.6458,3.2188.8646,6.5,1.8906,9.8333,3.0833,3.3333,1.1823,6.3958,2.7396,9.1875,4.6667,2.7917,1.9323,5.0469,4.4323,6.7708,7.5,1.7188,3.0573,2.5833,6.9531,2.5833,11.6875,0,5.4896-1.6198,10.1667-4.8542,14.0417-3.224,3.8646-7.25,6.7865-12.0833,8.7708s-9.7813,2.9792-14.8333,2.9792c-6.349,0-12.6979-1.099-19.0417-3.2917-6.3333-2.2083-11.599-6.1042-15.7917-11.6875Z"/>
</svg>