<?xml version="1.0" encoding="utf-8"?>
<!-- Generator: Adobe Illustrator 30.1.0, SVG Export Plug-In . SVG Version: 9.03 Build 0)  -->
<svg version="1.0" id="Layer_1" xmlns="http://www.w3.org/2000/svg" xmlns:xlink="http://www.w3.org/1999/xlink" x="0px" y="0px"
	 viewBox="0 0 500 500" style="enable-background:new 0 0 500 500;" xml:space="preserve">
<style type="text/css">
	.st0{clip-path:url(#SVGID_00000039094211517248269790000003892806863885239222_);}
	.st1{fill:#2C6560;}
</style>
<g>
	<defs>
		<rect id="SVGID_1_" x="63.74" y="64" width="373" height="371.97"/>
	</defs>
	<clipPath id="SVGID_00000054257791217530584720000003556777976011165608_">
		<use xlink:href="#SVGID_1_"  style="overflow:visible;"/>
	</clipPath>
	<g style="clip-path:url(#SVGID_00000054257791217530584720000003556777976011165608_);">
		<path class="st1" d="M104.18,64.29c-1.97,0.29-7.77,1.85-8.22,2.22c-0.21,0.2-0.66,0.37-1.03,0.37c-0.98,0-6.91,3.04-10.16,5.22
			c-3.95,2.68-9.5,7.98-12.05,11.64c-4.03,5.71-7.03,12.74-8.35,19.73c-0.61,3.38-0.9,285.59-0.29,290.32
			c1.48,11.1,5.92,20.23,13.69,28.09c5.68,5.71,13.9,10.57,21.05,12.42c6.7,1.73,0.78,1.65,151.54,1.65
			c135.74,0,143.88-0.04,146.92-0.74c16.9-3.83,29.32-14.31,35.66-30.1c1.35-3.41,2.3-7.6,2.83-12.62
			c0.62-5.59,0.62-279.62,0-285.21c-1.31-12.26-6-21.88-14.64-30.14c-6.87-6.54-14.1-10.36-23.36-12.34
			c-3.62-0.74-7.53-0.78-148.04-0.7C170.34,64.08,104.88,64.2,104.18,64.29z M380.93,105.57c3.21,0.86,5.96,2.51,8.14,4.9
			c2.47,2.63,3.66,4.89,4.36,8.14c0.62,3,0.62,43.63,0,46.63c-1.35,6.29-6.17,11.35-12.5,13.04c-2.26,0.61-47.49,0.61-49.76,0
			c-4.48-1.19-8.47-4.15-10.61-7.81c-2.34-3.99-2.34-3.99-2.34-28.58c0-15.09,0.16-23.11,0.45-24.06c1.85-5.84,5.43-9.7,10.77-11.72
			l2.55-0.95h23.64C371.34,105.12,379.82,105.29,380.93,105.57z M260.28,177.33c6.74,0.99,8.15,1.32,14.97,3.54
			c7.11,2.31,16.98,7.65,22.41,12.17c16.36,13.53,25.29,30.22,27.18,50.95c0.45,4.97,0.04,13.07-0.82,17.19
			c-0.2,0.91-0.58,2.67-0.86,3.91c-2.59,12.05-10.07,25.33-19.45,34.58c-3.58,3.54-11.97,10.24-12.83,10.24
			c-0.16,0-0.78,0.33-1.35,0.78c-1.23,0.86-6.79,3.7-9.33,4.77c-6.87,2.92-12.26,4.32-20.77,5.55c-3.42,0.49-16.24,0.38-19.95-0.16
			c-25.04-3.78-46.34-19.16-56.91-41.08c-9.33-19.45-9.38-41.91-0.12-61.15c1.6-3.33,6.66-11.72,7.44-12.33
			c0.12-0.12,0.98-1.15,1.89-2.27c5.96-7.56,15.79-15.3,25.08-19.69c8.59-4.07,13.24-5.43,24.47-7.2
			C245.19,176.51,255.63,176.63,260.28,177.33z M138.44,221.45c0.45,0.29,0.37,1.11-0.45,4.6c-2.06,8.52-2.59,12.09-3.21,20.23
			c-0.41,5.47-0.41,8.27,0,13.73c0.49,6.41,0.7,8.18,1.73,13.69c1.03,5.39,3.91,15.58,5.3,18.71c0.17,0.45,0.7,1.65,1.07,2.67
			c1.48,3.7,6.62,13.45,9.01,17.07c2.18,3.33,5.43,7.9,5.96,8.43c0.12,0.12,0.7,0.86,1.32,1.64c2.14,2.8,7.6,8.59,12.09,12.75
			c6.5,6.08,16.08,12.71,24.84,17.15c5.76,2.92,10.48,5.06,11.14,5.06c0.21,0,0.7,0.17,1.11,0.41c1.85,1.03,11.76,3.91,18.38,5.35
			c13.65,2.96,33.06,2.96,46.88,0c0.91-0.21,2.68-0.58,3.91-0.86c10.32-2.22,23.23-7.32,32.08-12.71c1.93-1.19,4.15-2.51,4.93-2.96
			c7.07-4.07,21.88-17.52,27.35-24.8c1.35-1.81,2.67-3.49,2.88-3.74c0.25-0.24,1.28-1.72,2.26-3.29c1.03-1.56,1.97-2.92,2.14-2.96
			c0.2-0.08,0.33-0.33,0.33-0.57c0-0.21,0.33-0.91,0.78-1.48c2.18-3.12,7.69-14.72,9.3-19.61c0.37-1.16,0.82-2.43,0.98-2.88
			c1.32-3.08,3.29-11.68,4.65-20.15c0.7-4.44,0.7-23.15,0-27.55c-0.98-6-1.72-9.83-2.76-13.78c-0.74-2.92-0.86-3.95-0.49-4.19
			c0.66-0.41,30.8-0.41,31.46,0c0.41,0.29,0.49,16.36,0.41,80.72l-0.12,80.35l-1.15,2.34c-1.48,2.92-4.53,5.84-7.53,7.16l-2.27,0.98
			H116.23l-2.59-1.23c-2.92-1.4-5.72-4.19-7.24-7.28l-0.98-1.97l-0.12-80.35c-0.08-64.44,0-80.44,0.41-80.72
			C106.4,221,137.73,221,138.44,221.45z"/>
	</g>
</g>
</svg>
