<svg xmlns="http://www.w3.org/2000/svg" xmlns:xlink="http://www.w3.org/1999/xlink" width="500" zoomAndPan="magnify" viewBox="0 0 375 374.999991" height="500" preserveAspectRatio="xMidYMid meet" version="1.0"><defs><clipPath id="5ceb24acb4"><path d="M 47.804688 48 L 327.554688 48 L 327.554688 326.980469 L 47.804688 326.980469 Z M 47.804688 48 " clip-rule="nonzero"/></clipPath></defs><g clip-path="url(#5ceb24acb4)"><path fill="#004908" d="M 78.136719 48.214844 C 76.65625 48.433594 72.308594 49.605469 71.96875 49.882812 C 71.8125 50.035156 71.472656 50.160156 71.195312 50.160156 C 70.457031 50.160156 66.015625 52.441406 63.578125 54.074219 C 60.617188 56.082031 56.453125 60.058594 54.542969 62.804688 C 51.519531 67.089844 49.269531 72.363281 48.28125 77.605469 C 47.820312 80.136719 47.605469 291.796875 48.066406 295.34375 C 49.175781 303.671875 52.507812 310.519531 58.335938 316.410156 C 62.59375 320.695312 68.761719 324.335938 74.125 325.722656 C 79.152344 327.019531 74.710938 326.957031 187.777344 326.957031 C 289.582031 326.957031 295.6875 326.925781 297.96875 326.402344 C 310.644531 323.53125 319.960938 315.667969 324.710938 303.824219 C 325.726562 301.265625 326.4375 298.121094 326.835938 294.355469 C 327.300781 290.164062 327.300781 84.640625 326.835938 80.445312 C 325.851562 71.253906 322.335938 64.039062 315.859375 57.839844 C 310.707031 52.933594 305.28125 50.066406 298.339844 48.585938 C 295.625 48.03125 292.695312 48 187.3125 48.0625 C 127.757812 48.0625 78.660156 48.152344 78.136719 48.214844 Z M 285.695312 79.179688 C 288.101562 79.828125 290.167969 81.0625 291.800781 82.851562 C 293.652344 84.824219 294.546875 86.519531 295.070312 88.957031 C 295.535156 91.207031 295.535156 121.679688 295.070312 123.929688 C 294.054688 128.648438 290.445312 132.441406 285.695312 133.707031 C 284 134.167969 250.074219 134.167969 248.378906 133.707031 C 245.015625 132.8125 242.023438 130.59375 240.421875 127.847656 C 238.664062 124.855469 238.664062 124.855469 238.664062 106.414062 C 238.664062 95.09375 238.785156 89.082031 239.003906 88.371094 C 240.390625 83.992188 243.074219 81.09375 247.082031 79.582031 L 248.996094 78.871094 L 266.726562 78.871094 C 278.507812 78.839844 284.863281 78.964844 285.695312 79.179688 Z M 195.207031 132.996094 C 200.265625 133.738281 201.316406 133.984375 206.433594 135.648438 C 211.769531 137.378906 219.171875 141.386719 223.242188 144.777344 C 235.515625 154.925781 242.210938 167.445312 243.628906 182.992188 C 243.96875 186.722656 243.660156 192.796875 243.011719 195.882812 C 242.859375 196.5625 242.578125 197.886719 242.363281 198.8125 C 240.421875 207.847656 234.808594 217.808594 227.777344 224.75 C 225.09375 227.402344 218.800781 232.429688 218.152344 232.429688 C 218.03125 232.429688 217.566406 232.675781 217.136719 233.015625 C 216.210938 233.664062 212.046875 235.789062 210.136719 236.59375 C 204.984375 238.78125 200.945312 239.832031 194.5625 240.753906 C 192 241.125 182.378906 241.035156 179.601562 240.632812 C 160.820312 237.796875 144.84375 226.261719 136.917969 209.824219 C 129.917969 195.234375 129.886719 178.394531 136.828125 163.960938 C 138.027344 161.464844 141.824219 155.171875 142.410156 154.710938 C 142.5 154.617188 143.148438 153.847656 143.828125 153.011719 C 148.300781 147.339844 155.671875 141.539062 162.640625 138.242188 C 169.085938 135.1875 172.570312 134.167969 180.992188 132.84375 C 183.890625 132.378906 191.722656 132.472656 195.207031 132.996094 Z M 103.828125 166.089844 C 104.164062 166.304688 104.105469 166.921875 103.488281 169.542969 C 101.945312 175.929688 101.542969 178.613281 101.082031 184.71875 C 100.773438 188.820312 100.773438 190.917969 101.082031 195.019531 C 101.453125 199.828125 101.605469 201.15625 102.378906 205.289062 C 103.148438 209.328125 105.308594 216.976562 106.355469 219.320312 C 106.480469 219.660156 106.878906 220.554688 107.15625 221.324219 C 108.269531 224.101562 112.121094 231.410156 113.910156 234.125 C 115.546875 236.625 117.984375 240.046875 118.382812 240.449219 C 118.476562 240.539062 118.90625 241.09375 119.371094 241.679688 C 120.972656 243.777344 125.074219 248.125 128.4375 251.242188 C 133.3125 255.804688 140.496094 260.773438 147.066406 264.101562 C 151.382812 266.292969 154.929688 267.894531 155.421875 267.894531 C 155.578125 267.894531 155.949219 268.019531 156.257812 268.203125 C 157.644531 268.976562 165.078125 271.132812 170.042969 272.214844 C 180.28125 274.433594 194.839844 274.433594 205.199219 272.214844 C 205.878906 272.058594 207.207031 271.78125 208.128906 271.566406 C 215.871094 269.902344 225.554688 266.078125 232.1875 262.035156 C 233.636719 261.140625 235.300781 260.15625 235.886719 259.816406 C 241.191406 256.761719 252.292969 246.675781 256.398438 241.21875 C 257.414062 239.863281 258.402344 238.597656 258.554688 238.410156 C 258.742188 238.226562 259.511719 237.117188 260.25 235.945312 C 261.023438 234.773438 261.730469 233.753906 261.855469 233.722656 C 262.007812 233.664062 262.101562 233.476562 262.101562 233.292969 C 262.101562 233.136719 262.347656 232.613281 262.6875 232.183594 C 264.324219 229.839844 268.457031 221.140625 269.660156 217.472656 C 269.9375 216.605469 270.273438 215.652344 270.398438 215.3125 C 271.386719 213 272.867188 206.554688 273.882812 200.199219 C 274.40625 196.871094 274.40625 182.835938 273.882812 179.535156 C 273.144531 175.035156 272.589844 172.164062 271.816406 169.203125 C 271.261719 167.015625 271.167969 166.242188 271.445312 166.058594 C 271.941406 165.75 294.546875 165.75 295.039062 166.058594 C 295.347656 166.273438 295.410156 178.332031 295.347656 226.601562 L 295.257812 286.863281 L 294.394531 288.621094 C 293.28125 290.8125 291 293 288.75 293.988281 L 287.050781 294.726562 L 87.171875 294.726562 L 85.230469 293.800781 C 83.039062 292.753906 80.941406 290.65625 79.800781 288.34375 L 79.0625 286.863281 L 78.96875 226.601562 C 78.90625 178.273438 78.96875 166.273438 79.277344 166.058594 C 79.800781 165.75 103.300781 165.75 103.828125 166.089844 Z M 103.828125 166.089844 " fill-opacity="1" fill-rule="nonzero"/></g></svg>