<svg xmlns="http://www.w3.org/2000/svg" xmlns:xlink="http://www.w3.org/1999/xlink" width="500" zoomAndPan="magnify" viewBox="0 0 375 374.999991" height="500" preserveAspectRatio="xMidYMid meet" version="1.0"><rect x="-37.5" width="450" fill="#ffffff" y="-37.499999" height="449.999989" fill-opacity="1"/><rect x="-37.5" width="450" fill="#f45800" y="-37.499999" height="449.999989" fill-opacity="1"/><path fill="#ffffff" d="M 88.539062 137.179688 L 88.539062 171.242188 C 88.539062 171.242188 100.542969 171.242188 106.96875 170.753906 C 112.019531 169.871094 112.949219 169.382812 113.878906 164.332031 L 115.738281 156.933594 L 121.234375 156.933594 L 120.304688 173.101562 L 120.792969 189.671875 L 115.25 189.671875 L 113.878906 183.199219 C 112.507812 178.597656 110.648438 177.660156 106.96875 177.21875 C 102.363281 176.730469 88.539062 176.730469 88.539062 176.730469 L 88.539062 205.300781 C 88.539062 210.796875 91.332031 213.144531 97.753906 213.144531 L 117.113281 213.144531 C 123.09375 213.144531 129.070312 212.65625 132.792969 203.929688 L 137.800781 192.855469 L 142.449219 192.855469 C 141.960938 195.160156 139.660156 215.445312 139.21875 220.011719 C 139.21875 220.011719 121.722656 219.566406 114.367188 219.566406 L 81.1875 219.566406 L 61.386719 220.011719 L 61.386719 215.003906 L 67.8125 213.585938 C 72.460938 212.65625 73.832031 211.285156 73.832031 207.605469 C 73.832031 207.605469 74.320312 195.160156 74.320312 174.425781 C 74.320312 153.738281 73.832031 141.289062 73.832031 141.289062 C 73.832031 137.167969 72.460938 136.238281 67.8125 135.308594 L 61.386719 133.945312 L 61.386719 128.894531 L 80.746094 129.292969 L 117.597656 129.292969 C 124.953125 129.292969 137.351562 127.964844 137.351562 127.964844 C 137.351562 127.964844 136.910156 135.761719 136.421875 154.1875 L 131.371094 154.1875 L 129.511719 147.71875 C 127.695312 139.433594 124.945312 135.3125 119.855469 135.3125 L 90.886719 135.3125 C 88.539062 135.320312 88.539062 135.761719 88.539062 137.179688 Z M 163.132812 140.8125 L 168.671875 140.8125 L 168.671875 160.167969 L 187.589844 159.238281 L 186.660156 168.011719 L 168.230469 166.59375 L 168.230469 200.703125 C 168.230469 210.359375 171.464844 214.078125 177.003906 214.078125 C 182.007812 214.078125 185.730469 211.289062 187.101562 208.988281 L 189.84375 212.21875 C 187.101562 218.644531 179.304688 221.875 171.90625 221.875 C 162.738281 221.875 155.292969 216.382812 155.292969 205.796875 L 155.292969 167.074219 L 144.304688 167.074219 L 144.304688 162.472656 C 153.523438 161.542969 160.390625 156.003906 163.132812 140.8125 Z M 202.777344 200.210938 L 206.453125 208.980469 C 207.824219 212.65625 211.054688 216.382812 218.410156 216.382812 C 226.25 216.382812 229.484375 212.21875 229.484375 207.167969 C 229.484375 191.484375 198.609375 196.09375 198.609375 174.917969 C 198.609375 162.960938 208.265625 157.375 220.710938 157.375 C 226.25 157.375 234.535156 158.304688 238.695312 160.164062 C 237.765625 164.769531 237.28125 170.75 237.28125 175.359375 L 232.714844 175.800781 L 229.484375 166.589844 C 228.554688 164.332031 224.835938 162.464844 220.269531 162.464844 C 214.730469 162.464844 209.195312 164.769531 209.195312 170.75 C 209.195312 185.015625 241 181.824219 241 203 C 241 215.003906 230.414062 221.429688 217.480469 221.429688 C 207.824219 221.429688 198.125 217.707031 198.125 217.707031 C 199.054688 212.214844 198.609375 206.238281 198.125 200.210938 Z M 238.703125 244.417969 C 240.074219 239.367188 241.003906 232.949219 241.933594 226.921875 L 246.988281 226.480469 L 248.847656 236.136719 C 249.289062 238.4375 250.660156 240.296875 254.339844 240.296875 C 260.320312 240.296875 268.164062 236.625 275.558594 223.730469 C 272.28125 215.886719 262.625 190.59375 253.851562 171.238281 C 251.550781 166.144531 251.109375 165.699219 247.917969 164.769531 L 245.570312 163.882812 L 245.570312 159.234375 L 259.433594 159.722656 L 276.441406 158.792969 L 276.441406 163.402344 L 272.28125 164.332031 C 269.046875 164.773438 267.714844 166.589844 267.714844 168.453125 C 267.714844 168.941406 267.714844 169.382812 268.15625 170.3125 C 269.042969 173.101562 276.441406 193.792969 281.980469 207.609375 C 286.546875 197.953125 295.316406 176.296875 296.6875 172.617188 C 297.175781 170.753906 297.617188 170.3125 297.617188 168.941406 C 297.617188 166.59375 296.246094 165.222656 293.054688 164.335938 L 289.777344 163.402344 L 289.777344 158.796875 L 302.710938 159.238281 L 314.667969 158.796875 L 314.667969 163.402344 L 312.367188 165.214844 C 307.761719 167.074219 307.273438 167.519531 305.453125 171.238281 L 285.214844 218.632812 C 273.210938 245.832031 260.765625 248.132812 252.03125 248.132812 C 246.5 248.140625 242.335938 246.722656 238.703125 244.417969 Z M 238.703125 244.417969 " fill-opacity="1" fill-rule="nonzero"/></svg>