<svg xmlns="http://www.w3.org/2000/svg" xmlns:xlink="http://www.w3.org/1999/xlink" width="500" zoomAndPan="magnify" viewBox="0 0 375 374.999991" height="500" preserveAspectRatio="xMidYMid meet" version="1.0"><defs><g/><clipPath id="c4e89e966b"><path d="M 48.515625 65.019531 L 326.765625 65.019531 L 326.765625 310 L 48.515625 310 Z M 48.515625 65.019531 " clip-rule="nonzero"/></clipPath><clipPath id="5ac8a21218"><rect x="0" width="169" y="0" height="24"/></clipPath></defs><rect x="-37.5" width="450" fill="#ffffff" y="-37.499999" height="449.999989" fill-opacity="1"/><rect x="-37.5" width="450" fill="#000000" y="-37.499999" height="449.999989" fill-opacity="1"/><g clip-path="url(#c4e89e966b)"><path fill="#ffffff" d="M 117.101562 65.511719 C 111.734375 65.953125 109.085938 66.839844 106.210938 69.109375 C 105.519531 69.648438 99.394531 75.613281 92.640625 82.300781 C 85.855469 89.023438 78.597656 96.15625 76.546875 98.144531 C 74.464844 100.132812 70.898438 103.539062 68.65625 105.71875 C 66.386719 107.894531 63.480469 110.640625 62.1875 111.871094 C 60.894531 113.070312 58.621094 115.1875 57.140625 116.605469 C 55.65625 117.996094 53.066406 120.457031 51.363281 122.035156 C 48.679688 124.558594 48.300781 125.03125 48.585938 125.570312 C 48.902344 126.136719 56.191406 135.855469 99.457031 193.449219 C 148.183594 258.304688 158.882812 272.503906 164.121094 279.449219 C 167.152344 283.421875 173.367188 291.660156 177.914062 297.75 C 187.757812 310.816406 187.03125 309.933594 187.539062 309.710938 C 187.757812 309.617188 188.800781 308.386719 189.84375 306.964844 C 190.882812 305.546875 191.894531 304.15625 192.113281 303.90625 C 192.335938 303.652344 193.566406 302.011719 194.890625 300.277344 C 196.183594 298.539062 199.75 293.839844 202.78125 289.863281 C 209.40625 281.152344 215.46875 273.136719 226.671875 258.144531 C 231.277344 251.992188 237.9375 243.09375 241.503906 238.421875 C 245.039062 233.71875 251.253906 225.484375 255.324219 220.117188 C 263.121094 209.765625 300.769531 159.683594 307.964844 150.058594 C 310.300781 146.933594 312.917969 143.460938 313.804688 142.328125 C 315.855469 139.644531 323.996094 128.722656 325.386719 126.769531 L 326.488281 125.222656 L 321.378906 120.296875 C 311.75 110.957031 304.652344 104.015625 286.566406 86.308594 C 267.414062 67.53125 267.378906 67.53125 265.644531 66.742188 C 264.730469 66.300781 263.183594 65.796875 262.238281 65.609375 C 259.839844 65.101562 123.191406 65.007812 117.101562 65.511719 Z M 261.796875 67.21875 C 265.078125 67.753906 266.496094 68.761719 273.410156 75.546875 C 288.871094 90.824219 296.445312 98.238281 309.859375 111.210938 C 317.683594 118.816406 324.121094 125.222656 324.121094 125.472656 C 324.121094 125.695312 318.914062 132.828125 312.539062 141.285156 C 300.582031 157.222656 299.570312 158.546875 272.808594 194.238281 C 257.976562 214.027344 253.496094 219.960938 237.054688 241.734375 C 233.835938 245.996094 228.878906 252.589844 226.007812 256.410156 C 216.257812 269.445312 204.011719 285.757812 201.359375 289.230469 C 199.910156 291.125 197.351562 294.46875 195.710938 296.648438 C 193.09375 300.117188 191.925781 301.601562 188.230469 306.367188 C 187.539062 307.25 187.347656 307.34375 186.9375 306.996094 C 186.65625 306.777344 182.867188 301.824219 178.480469 296.015625 C 174.125 290.207031 169.203125 283.707031 167.5625 281.5625 C 165.921875 279.414062 163.902344 276.703125 163.015625 275.503906 C 162.164062 274.335938 158.882812 269.980469 155.757812 265.878906 C 152.632812 261.773438 149.382812 257.453125 148.5 256.253906 C 147.648438 255.054688 143.988281 250.191406 140.421875 245.460938 C 128.335938 229.394531 81.945312 167.574219 80.648438 165.773438 C 80.144531 165.046875 76.988281 160.851562 73.675781 156.464844 C 61.242188 139.992188 50.511719 125.570312 50.511719 125.316406 C 50.511719 125.160156 52.59375 123.074219 55.152344 120.675781 C 57.738281 118.277344 61.242188 114.933594 62.976562 113.261719 C 64.714844 111.589844 67.617188 108.8125 69.445312 107.105469 C 75.851562 101.078125 80.777344 96.28125 93.746094 83.4375 C 100.941406 76.304688 107.441406 70.089844 108.199219 69.617188 C 110.347656 68.257812 112.683594 67.46875 115.046875 67.21875 C 118.582031 66.871094 259.617188 66.871094 261.796875 67.21875 Z M 261.796875 67.21875 " fill-opacity="1" fill-rule="nonzero"/></g><path fill="#ffffff" d="M 179.964844 106.886719 L 180.058594 108.402344 L 182.582031 108.402344 L 182.679688 106.886719 L 182.773438 105.402344 L 179.871094 105.402344 Z M 179.964844 106.886719 " fill-opacity="1" fill-rule="nonzero"/><path fill="#ffffff" d="M 165.542969 109.851562 C 163.648438 110.199219 161.628906 110.390625 161.09375 110.292969 C 160.207031 110.136719 160.050781 110.230469 159.894531 110.925781 C 159.765625 111.367188 159.765625 112.0625 159.894531 112.472656 C 160.050781 113.167969 160.238281 113.230469 162.007812 113.261719 C 163.082031 113.261719 164.722656 113.417969 165.667969 113.609375 C 166.582031 113.765625 167.402344 113.921875 167.46875 113.921875 C 167.53125 113.921875 167.59375 115.53125 167.59375 117.519531 C 167.59375 120.867188 167.65625 121.152344 168.222656 121.339844 C 168.570312 121.433594 169.140625 121.433594 169.488281 121.339844 C 170.054688 121.152344 170.117188 120.867188 170.117188 117.867188 L 170.117188 114.617188 L 171.222656 113.957031 C 173.335938 112.722656 173.398438 110.703125 171.316406 109.632812 C 170.242188 109.09375 169.832031 109.09375 165.542969 109.851562 Z M 165.542969 109.851562 " fill-opacity="1" fill-rule="nonzero"/><path fill="#ffffff" d="M 204.011719 113.386719 C 203.917969 113.640625 203.886719 114.746094 203.949219 115.847656 C 204.042969 117.679688 204.105469 117.898438 204.925781 118.277344 C 205.398438 118.5 205.777344 118.847656 205.777344 119.035156 C 205.777344 119.226562 205.179688 119.886719 204.484375 120.519531 L 203.191406 121.65625 L 203.035156 124.496094 C 202.8125 128.09375 202.90625 128.1875 206.472656 128.0625 L 209.09375 127.96875 L 209.15625 124.96875 C 209.25 121.71875 209.1875 121.59375 207.105469 119.855469 C 206.0625 118.972656 206.0625 118.910156 207.515625 118.183594 C 208.050781 117.898438 208.144531 117.519531 208.144531 115.5 L 208.144531 113.132812 L 206.15625 113.039062 C 204.707031 112.976562 204.136719 113.070312 204.011719 113.386719 Z M 204.011719 113.386719 " fill-opacity="1" fill-rule="nonzero"/><path fill="#ffffff" d="M 214.992188 117.519531 C 214.835938 117.710938 214.519531 118.785156 214.332031 119.917969 C 214.109375 121.054688 213.480469 123.960938 212.878906 126.390625 C 211.964844 130.175781 211.839844 131.34375 211.839844 134.5625 L 211.871094 138.285156 L 212.847656 138.886719 C 215.308594 140.402344 216.886719 138.886719 217.835938 134.027344 C 218.117188 132.480469 219.253906 128.535156 220.296875 125.253906 C 221.367188 121.972656 222.15625 119.164062 222.0625 119.035156 C 221.90625 118.753906 219.285156 117.996094 216.601562 117.425781 C 215.65625 117.238281 215.183594 117.269531 214.992188 117.519531 Z M 214.992188 117.519531 " fill-opacity="1" fill-rule="nonzero"/><path fill="#ffffff" d="M 152.980469 121.71875 C 152.855469 121.8125 152.761719 122.414062 152.761719 123.042969 C 152.730469 123.675781 152.539062 124.527344 152.289062 124.96875 C 151.71875 125.949219 151.625 131.121094 152.160156 131.46875 C 152.382812 131.597656 153.519531 131.691406 154.71875 131.722656 C 156.296875 131.722656 156.988281 131.597656 157.179688 131.28125 C 157.367188 131.027344 157.496094 129.640625 157.496094 128.25 C 157.496094 126.105469 157.367188 125.539062 156.832031 124.84375 C 156.390625 124.273438 156.230469 123.738281 156.359375 123.234375 C 156.707031 121.90625 156.296875 121.496094 154.6875 121.496094 C 153.867188 121.496094 153.078125 121.59375 152.980469 121.71875 Z M 152.980469 121.71875 " fill-opacity="1" fill-rule="nonzero"/><path fill="#ffffff" d="M 141.398438 131.628906 C 141.085938 132.355469 141.085938 132.859375 141.367188 133.773438 C 141.558594 134.4375 141.714844 135.699219 141.714844 136.613281 C 141.714844 137.84375 141.839844 138.222656 142.1875 138.222656 C 142.535156 138.222656 142.664062 137.875 142.664062 137.023438 C 142.664062 136.363281 142.820312 135.003906 143.007812 133.996094 C 143.578125 131.1875 142.347656 129.324219 141.398438 131.628906 Z M 141.398438 131.628906 " fill-opacity="1" fill-rule="nonzero"/><path fill="#ffffff" d="M 165.480469 134.34375 C 165.003906 137.71875 165.195312 143.242188 165.824219 145.167969 C 166.835938 148.164062 169.582031 153.054688 169.992188 152.644531 C 170.148438 152.519531 169.011719 149.523438 168.257812 148.039062 C 166.488281 144.566406 165.921875 141.539062 166.332031 137.496094 C 166.519531 135.730469 166.679688 133.933594 166.742188 133.488281 C 166.773438 132.984375 166.613281 132.667969 166.269531 132.605469 C 165.859375 132.542969 165.699219 132.859375 165.480469 134.34375 Z M 165.480469 134.34375 " fill-opacity="1" fill-rule="nonzero"/><path fill="#ffffff" d="M 169.550781 133.585938 C 168.855469 135.507812 169.203125 138.855469 170.085938 138.855469 C 170.339844 138.855469 170.464844 138.097656 170.8125 133.804688 C 170.9375 132.289062 170.085938 132.132812 169.550781 133.585938 Z M 169.550781 133.585938 " fill-opacity="1" fill-rule="nonzero"/><path fill="#ffffff" d="M 194.574219 133.554688 C 194.703125 134.121094 194.859375 135.574219 194.953125 136.742188 C 195.113281 139.203125 195.585938 139.421875 196.28125 137.308594 C 196.660156 136.140625 196.625 135.792969 196.121094 134.34375 C 195.710938 133.300781 195.300781 132.667969 194.921875 132.605469 C 194.417969 132.480469 194.355469 132.605469 194.574219 133.554688 Z M 194.574219 133.554688 " fill-opacity="1" fill-rule="nonzero"/><path fill="#ffffff" d="M 199.023438 134.152344 C 199.183594 135.097656 199.308594 137.402344 199.308594 139.328125 C 199.308594 143.082031 198.992188 144.347656 196.753906 149.207031 C 196.152344 150.5 195.679688 151.636719 195.679688 151.761719 C 195.679688 152.234375 193.851562 153.65625 191.894531 154.664062 C 189.558594 155.894531 184.414062 160.628906 184.792969 161.230469 C 185.046875 161.671875 184.761719 161.859375 189.777344 158.042969 C 194.796875 154.191406 196.375 152.488281 198.046875 149.109375 C 200.128906 144.945312 200.539062 142.957031 200.320312 138.382812 C 200.097656 134.277344 199.8125 132.828125 199.183594 132.605469 C 198.835938 132.480469 198.835938 132.828125 199.023438 134.152344 Z M 199.023438 134.152344 " fill-opacity="1" fill-rule="nonzero"/><path fill="#ffffff" d="M 224.808594 133.238281 C 224.902344 133.648438 225.34375 135.507812 225.785156 137.402344 C 227.964844 146.777344 227.617188 155.738281 224.683594 164.890625 C 220.359375 178.460938 208.871094 189.789062 194.703125 194.523438 C 185.109375 197.742188 176.746094 197.585938 166.234375 193.925781 C 157.558594 190.925781 148.5625 183.320312 142.789062 174.105469 C 141.9375 172.71875 141.050781 171.519531 140.832031 171.421875 C 140.230469 171.234375 140.359375 174.546875 141.085938 178.808594 C 142.125 184.898438 144.273438 190.671875 148.152344 197.804688 C 153.203125 207.148438 155.191406 217.71875 153.898438 228.164062 C 153.265625 233.183594 151.625 240.0625 149.859375 245.332031 C 148.375 249.71875 148.214844 249.277344 152.003906 251.078125 C 155 252.496094 159.324219 253.886719 162.292969 254.359375 C 165.351562 254.863281 173.875 254.609375 176.902344 253.917969 C 179.964844 253.222656 188.769531 250.320312 189.9375 249.625 L 190.882812 249.058594 L 191.007812 245.460938 C 191.105469 242.367188 191.230469 241.640625 192.019531 239.90625 C 193.816406 235.960938 197.542969 233.84375 202.65625 233.84375 C 205.148438 233.84375 209.882812 234.601562 214.363281 235.738281 C 220.707031 237.347656 226.101562 236.71875 228.910156 234.097656 C 231.5625 231.605469 232.636719 226.398438 231.5 221.695312 C 231.246094 220.652344 231.058594 219.171875 231.027344 218.414062 C 231.027344 217.183594 231.183594 216.898438 232.601562 215.511719 C 233.488281 214.65625 234.179688 213.835938 234.179688 213.679688 C 234.179688 213.523438 233.929688 212.953125 233.644531 212.417969 L 233.078125 211.46875 L 234.308594 210.238281 C 235.632812 208.851562 235.664062 208.976562 233.738281 206.105469 C 231.6875 203.074219 232.289062 201.78125 236.199219 200.550781 C 239.230469 199.636719 240.492188 198.53125 240.492188 196.828125 C 240.492188 196.195312 239.609375 193.988281 238.253906 191.242188 C 231.65625 177.796875 231.121094 176.1875 231.46875 171.171875 C 231.5625 169.625 231.75 164.890625 231.847656 160.628906 C 232.003906 154.285156 231.941406 152.296875 231.53125 149.585938 C 230.679688 144.21875 228.691406 138.316406 226.386719 134.34375 C 225.3125 132.511719 224.492188 131.945312 224.808594 133.238281 Z M 224.808594 133.238281 " fill-opacity="1" fill-rule="nonzero"/><path fill="#ffffff" d="M 146.226562 134.5625 L 145.34375 135.320312 L 145.4375 139.390625 C 145.503906 141.601562 145.660156 143.558594 145.785156 143.683594 C 145.945312 143.839844 146.671875 143.902344 147.425781 143.839844 L 148.816406 143.746094 L 148.910156 139.515625 C 148.972656 135.542969 148.941406 135.257812 148.3125 134.53125 C 147.425781 133.617188 147.332031 133.617188 146.226562 134.5625 Z M 146.226562 134.5625 " fill-opacity="1" fill-rule="nonzero"/><path fill="#ffffff" d="M 171.378906 141.726562 C 171.378906 141.980469 171.570312 142.925781 171.789062 143.871094 C 172.105469 145.230469 172.546875 145.988281 174.09375 147.722656 C 175.199219 148.953125 176.113281 150.308594 176.207031 150.847656 C 176.460938 152.046875 177.0625 152.109375 177.0625 150.910156 C 177.027344 149.867188 176.683594 149.207031 175.007812 147.25 C 174.316406 146.429688 173.398438 144.820312 172.957031 143.683594 C 172.230469 141.757812 171.378906 140.714844 171.378906 141.726562 Z M 171.378906 141.726562 " fill-opacity="1" fill-rule="nonzero"/><path fill="#ffffff" d="M 193.1875 142.074219 C 193.027344 142.484375 192.652344 143.492188 192.367188 144.347656 C 192.050781 145.167969 191.199219 146.585938 190.410156 147.4375 C 189.054688 148.984375 188.421875 150.121094 188.421875 151.035156 C 188.421875 151.921875 189.054688 151.445312 189.558594 150.214844 C 189.84375 149.488281 190.757812 148.355469 191.640625 147.566406 C 193.0625 146.335938 193.21875 146.019531 193.660156 144.03125 C 194.195312 141.441406 194.195312 141.378906 193.785156 141.378906 C 193.597656 141.378906 193.34375 141.695312 193.1875 142.074219 Z M 193.1875 142.074219 " fill-opacity="1" fill-rule="nonzero"/><path fill="#ffffff" d="M 169.800781 147.566406 C 169.800781 148.101562 171.316406 149.742188 172.894531 150.941406 C 174.820312 152.425781 175.796875 152.898438 175.796875 152.425781 C 175.796875 152.234375 175.671875 152.109375 175.546875 152.109375 C 175.386719 152.109375 174.125 151.035156 172.738281 149.742188 C 170.308594 147.5 169.800781 147.125 169.800781 147.566406 Z M 169.800781 147.566406 " fill-opacity="1" fill-rule="nonzero"/><path fill="#ffffff" d="M 192.777344 149.617188 C 190.410156 151.730469 190 152.488281 191.828125 151.476562 C 193.3125 150.625 194.511719 149.585938 195.207031 148.542969 C 196.152344 147.058594 195.050781 147.566406 192.777344 149.617188 Z M 192.777344 149.617188 " fill-opacity="1" fill-rule="nonzero"/><path fill="#ffffff" d="M 211.238281 149.332031 C 210.953125 149.679688 210.640625 153.054688 210.417969 157.949219 L 210.355469 159.210938 L 220.136719 159.210938 L 220.074219 157.789062 C 220.011719 157 219.886719 154.730469 219.757812 152.742188 L 219.507812 149.109375 L 215.53125 149.015625 C 212.59375 148.953125 211.460938 149.046875 211.238281 149.332031 Z M 218.210938 150.722656 C 218.527344 151.542969 218.433594 153.214844 218.023438 153.625 C 217.800781 153.84375 216.699219 154.003906 215.246094 154.003906 C 212.5625 154.003906 212.089844 153.75 212.089844 152.234375 C 212.089844 150.277344 212.214844 150.214844 215.246094 150.214844 C 217.488281 150.214844 218.054688 150.308594 218.210938 150.722656 Z M 218.085938 156.371094 C 218.589844 156.96875 218.210938 157.472656 217.265625 157.472656 C 216.445312 157.472656 216.257812 156.90625 216.886719 156.273438 C 217.390625 155.769531 217.613281 155.800781 218.085938 156.371094 Z M 213.605469 156.9375 C 213.667969 157.316406 213.511719 157.472656 213.070312 157.472656 C 212.59375 157.472656 212.40625 157.285156 212.40625 156.8125 C 212.40625 156.023438 213.449219 156.117188 213.605469 156.9375 Z M 213.605469 156.9375 " fill-opacity="1" fill-rule="nonzero"/><path fill="#ffffff" d="M 152.445312 152.742188 C 151.058594 154.445312 149.921875 155.582031 149.605469 155.519531 C 149.351562 155.453125 148.753906 154.632812 148.28125 153.6875 L 147.394531 151.953125 L 147.394531 153.277344 C 147.394531 154.035156 147.332031 154.632812 147.238281 154.632812 C 146.890625 154.632812 145.027344 153.625 144.460938 153.121094 C 144.175781 152.867188 143.828125 152.742188 143.734375 152.835938 C 143.609375 152.960938 144.082031 153.496094 144.746094 154.066406 C 145.945312 155.074219 147.363281 156.527344 148.375 157.726562 C 149.195312 158.703125 149.257812 159.589844 148.59375 160.820312 C 147.835938 162.238281 147.964844 163.058594 149.003906 163.878906 C 149.699219 164.355469 149.953125 164.417969 150.519531 164.132812 C 151.8125 163.4375 151.75 161.703125 150.394531 160.125 C 149.511719 159.082031 149.382812 158.359375 150.078125 157.789062 C 150.804688 157.191406 151.78125 157.757812 152.476562 159.242188 C 153.457031 161.261719 155.285156 161.609375 156.230469 159.9375 C 156.675781 159.117188 156.640625 159.019531 155.980469 158.359375 C 155.476562 157.820312 154.90625 157.632812 153.832031 157.632812 C 151.433594 157.632812 151.371094 157 153.550781 154.351562 C 154.589844 153.121094 155.507812 152.109375 155.601562 152.109375 C 155.695312 152.109375 155.949219 151.824219 156.167969 151.445312 C 156.484375 150.941406 156.484375 150.6875 156.199219 150.34375 C 155.476562 149.457031 154.75 149.933594 152.445312 152.742188 Z M 154.96875 159.367188 C 154.96875 159.527344 154.75 159.683594 154.496094 159.683594 C 154.242188 159.683594 154.023438 159.527344 154.023438 159.367188 C 154.023438 159.179688 154.242188 159.050781 154.496094 159.050781 C 154.75 159.050781 154.96875 159.179688 154.96875 159.367188 Z M 150.234375 162.082031 C 150.582031 162.460938 150.582031 162.648438 150.171875 163.058594 C 149.574219 163.628906 148.972656 163.375 148.972656 162.554688 C 148.972656 161.515625 149.605469 161.292969 150.234375 162.082031 Z M 150.234375 162.082031 " fill-opacity="1" fill-rule="nonzero"/><path fill="#ffffff" d="M 181.984375 150.183594 C 181.890625 150.308594 181.382812 150.53125 180.847656 150.625 C 180.089844 150.785156 179.902344 151.003906 179.902344 151.636719 C 179.902344 152.394531 179.964844 152.425781 180.972656 152.265625 C 181.890625 152.078125 182.109375 152.171875 182.457031 152.804688 C 182.648438 153.183594 182.992188 153.625 183.183594 153.75 C 183.6875 154.097656 184.382812 154.066406 184.160156 153.6875 C 184.035156 153.496094 183.8125 153.433594 183.625 153.5625 C 183.433594 153.6875 183.371094 153.464844 183.433594 153.023438 C 183.5 152.394531 183.75 152.234375 184.730469 152.171875 C 185.644531 152.078125 185.898438 151.953125 185.832031 151.542969 C 185.769531 151.257812 185.296875 150.878906 184.792969 150.753906 C 184.257812 150.59375 183.59375 150.34375 183.308594 150.183594 C 182.613281 149.835938 182.203125 149.835938 181.984375 150.183594 Z M 181.984375 150.183594 " fill-opacity="1" fill-rule="nonzero"/><path fill="#ffffff" d="M 221.023438 154.066406 C 221.085938 157.726562 221.117188 157.949219 221.714844 157.949219 C 222.316406 157.949219 222.347656 157.726562 222.347656 154.160156 C 222.347656 150.5 222.316406 150.375 221.652344 150.277344 C 220.957031 150.183594 220.957031 150.214844 221.023438 154.066406 Z M 221.023438 154.066406 " fill-opacity="1" fill-rule="nonzero"/><path fill="#ffffff" d="M 170.433594 153.214844 C 170.433594 153.65625 172.011719 155.042969 175.894531 157.980469 C 178.261719 159.777344 180.28125 161.261719 180.375 161.261719 C 180.753906 161.261719 180.46875 160.410156 179.679688 159.242188 C 179.175781 158.578125 177.816406 157.378906 176.617188 156.621094 C 174.253906 155.074219 170.433594 152.992188 170.433594 153.214844 Z M 170.433594 153.214844 " fill-opacity="1" fill-rule="nonzero"/><path fill="#ffffff" d="M 186.558594 155.582031 C 185.519531 156.433594 184.507812 157.441406 184.320312 157.757812 C 183.847656 158.640625 183.941406 159.367188 184.476562 159.367188 C 184.730469 159.367188 184.949219 159.242188 184.949219 159.117188 C 184.949219 158.957031 185.675781 158.011719 186.527344 156.96875 C 188.832031 154.285156 188.800781 154.285156 188.644531 154.128906 C 188.546875 154.035156 187.632812 154.695312 186.558594 155.582031 Z M 186.558594 155.582031 " fill-opacity="1" fill-rule="nonzero"/><path fill="#ffffff" d="M 177.027344 154.855469 C 177.1875 155.171875 177.691406 155.769531 178.164062 156.210938 C 178.636719 156.652344 179.425781 157.601562 179.964844 158.328125 C 181.035156 159.902344 181.480469 160.03125 181.480469 158.769531 C 181.480469 158.042969 181.070312 157.472656 179.460938 156.085938 C 177.4375 154.285156 176.460938 153.8125 177.027344 154.855469 Z M 177.027344 154.855469 " fill-opacity="1" fill-rule="nonzero"/><path fill="#ffffff" d="M 174.472656 161.007812 C 173.90625 161.734375 171.949219 162.492188 170.65625 162.523438 C 168.761719 162.523438 167.089844 164.101562 168.382812 164.605469 C 169.582031 165.078125 174.410156 162.679688 175.167969 161.261719 C 175.609375 160.441406 175.105469 160.21875 174.472656 161.007812 Z M 174.472656 161.007812 " fill-opacity="1" fill-rule="nonzero"/><path fill="#ffffff" d="M 181.824219 161.230469 C 181.574219 161.703125 181.605469 161.859375 181.984375 162.019531 C 183.308594 162.523438 184.382812 161.957031 183.6875 161.101562 C 183.152344 160.441406 182.203125 160.503906 181.824219 161.230469 Z M 181.824219 161.230469 " fill-opacity="1" fill-rule="nonzero"/><path fill="#ffffff" d="M 190.503906 161.039062 C 190.566406 161.261719 191.546875 162.050781 192.652344 162.777344 C 194.734375 164.195312 196.972656 164.828125 197.414062 164.101562 C 197.792969 163.46875 196.910156 162.933594 194.734375 162.523438 C 193.535156 162.300781 192.273438 161.828125 191.671875 161.386719 C 190.535156 160.535156 190.253906 160.441406 190.503906 161.039062 Z M 190.503906 161.039062 " fill-opacity="1" fill-rule="nonzero"/><path fill="#ffffff" d="M 208.207031 163.976562 C 207.765625 164.449219 207.988281 165.648438 208.585938 165.835938 C 209.566406 166.152344 210.230469 165.679688 210.132812 164.765625 C 210.070312 164.164062 209.851562 163.914062 209.25 163.847656 C 208.808594 163.785156 208.335938 163.847656 208.207031 163.976562 Z M 208.207031 163.976562 " fill-opacity="1" fill-rule="nonzero"/><path fill="#ffffff" d="M 211.996094 163.976562 C 211.207031 164.765625 212.25 166.183594 213.351562 165.835938 C 214.363281 165.523438 214.109375 163.976562 213.039062 163.847656 C 212.59375 163.785156 212.121094 163.847656 211.996094 163.976562 Z M 211.996094 163.976562 " fill-opacity="1" fill-rule="nonzero"/><path fill="#ffffff" d="M 191.484375 174.738281 C 191.355469 174.832031 191.261719 175.621094 191.261719 176.441406 C 191.261719 177.355469 190.914062 178.839844 190.316406 180.289062 C 189.148438 183.257812 188.988281 186.382812 190 187.992188 C 190.347656 188.558594 190.664062 189.03125 190.726562 189.03125 C 190.789062 189.03125 190.820312 187.359375 190.820312 185.308594 C 190.789062 181.933594 190.882812 181.457031 191.671875 179.753906 C 192.617188 177.703125 192.902344 174.515625 192.113281 174.515625 C 191.863281 174.515625 191.578125 174.609375 191.484375 174.738281 Z M 191.484375 174.738281 " fill-opacity="1" fill-rule="nonzero"/><path fill="#ffffff" d="M 197.859375 174.894531 C 197.699219 176.597656 198.078125 178.933594 198.742188 180.449219 C 199.59375 182.40625 199.8125 185.152344 199.371094 187.898438 C 199.023438 189.949219 199.71875 189.757812 200.476562 187.582031 C 201.265625 185.339844 201.171875 183.855469 200.035156 180.828125 C 199.4375 179.15625 199.058594 177.515625 199.023438 176.410156 C 198.992188 175.050781 198.867188 174.671875 198.457031 174.578125 C 198.140625 174.515625 197.859375 174.640625 197.859375 174.894531 Z M 197.859375 174.894531 " fill-opacity="1" fill-rule="nonzero"/><path fill="#ffffff" d="M 165.542969 176.1875 C 162.796875 178.964844 162.511719 180.417969 164.3125 182.40625 C 164.910156 183.066406 165.699219 183.730469 166.015625 183.824219 C 166.804688 184.078125 168.257812 183.289062 169.328125 182.027344 C 170.085938 181.144531 170.148438 180.828125 169.992188 179.597656 C 169.769531 178.082031 169.203125 177.230469 167.847656 176.535156 C 167.339844 176.28125 166.960938 175.871094 166.960938 175.621094 C 166.960938 174.957031 166.613281 175.082031 165.542969 176.1875 Z M 165.542969 176.1875 " fill-opacity="1" fill-rule="nonzero"/><path fill="#ffffff" d="M 178.921875 179.914062 C 177.566406 180.703125 176.429688 182.5625 176.429688 183.886719 C 176.429688 184.425781 176.777344 185.53125 177.25 186.351562 L 178.039062 187.863281 L 177.027344 188.90625 C 175.292969 190.707031 175.828125 192.597656 178.480469 193.796875 C 180.089844 194.554688 181.605469 194.523438 183.246094 193.796875 C 185.738281 192.660156 186.308594 190.609375 184.601562 188.84375 L 183.625 187.800781 L 184.289062 186.445312 C 185.457031 184.015625 185.011719 181.585938 183.121094 180.257812 C 181.730469 179.25 180.25 179.125 178.921875 179.914062 Z M 182.773438 182.058594 C 183.433594 182.753906 183.6875 183.289062 183.6875 184.140625 C 183.6875 186.445312 180.910156 187.960938 179.050781 186.664062 C 178.671875 186.414062 178.195312 185.65625 177.976562 185.023438 C 177.027344 182.089844 180.59375 179.878906 182.773438 182.058594 Z M 182.773438 182.058594 " fill-opacity="1" fill-rule="nonzero"/><path fill="#ffffff" d="M 194.859375 186.320312 C 194.765625 186.570312 194.828125 187.042969 195.015625 187.359375 C 195.300781 187.832031 195.332031 187.769531 195.363281 186.886719 C 195.363281 185.8125 195.144531 185.5625 194.859375 186.320312 Z M 194.859375 186.320312 " fill-opacity="1" fill-rule="nonzero"/><g transform="matrix(1, 0, 0, 1, 103, 77)"><g clip-path="url(#5ac8a21218)"><g fill="#ffffff" fill-opacity="1"><g transform="translate(0.253789, 17.982588)"><g><path d="M 6.25 0.171875 C 5.25 0.171875 4.367188 -0.0507812 3.609375 -0.5 C 2.847656 -0.957031 2.253906 -1.644531 1.828125 -2.5625 C 1.398438 -3.476562 1.1875 -4.601562 1.1875 -5.9375 C 1.1875 -7.269531 1.414062 -8.390625 1.875 -9.296875 C 2.332031 -10.210938 2.96875 -10.894531 3.78125 -11.34375 C 4.59375 -11.800781 5.523438 -12.03125 6.578125 -12.03125 C 7.710938 -12.03125 8.644531 -11.828125 9.375 -11.421875 C 10.113281 -11.015625 10.632812 -10.40625 10.9375 -9.59375 L 10.03125 -9.0625 L 9.828125 -9.0625 C 9.515625 -9.675781 9.09375 -10.113281 8.5625 -10.375 C 8.039062 -10.644531 7.378906 -10.78125 6.578125 -10.78125 C 3.972656 -10.78125 2.671875 -9.164062 2.671875 -5.9375 C 2.671875 -4.25 3 -3.019531 3.65625 -2.25 C 4.3125 -1.476562 5.226562 -1.09375 6.40625 -1.09375 C 7.488281 -1.09375 8.300781 -1.335938 8.84375 -1.828125 C 9.382812 -2.316406 9.65625 -3.09375 9.65625 -4.15625 L 9.65625 -5.203125 L 6.28125 -5.203125 L 6.28125 -6.328125 L 11 -6.328125 L 11 0 L 9.71875 0 L 9.71875 -1.59375 L 9.546875 -1.625 C 9.234375 -1.019531 8.796875 -0.566406 8.234375 -0.265625 C 7.671875 0.0234375 7.007812 0.171875 6.25 0.171875 Z M 6.25 0.171875 "/></g></g></g><g fill="#ffffff" fill-opacity="1"><g transform="translate(12.589743, 17.982588)"><g><path d="M 3.1875 -5.59375 L 3.1875 -1.15625 L 9.234375 -1.15625 L 9.234375 0 L 1.796875 0 L 1.796875 -11.875 L 9.109375 -11.875 L 9.109375 -10.71875 L 3.1875 -10.71875 L 3.1875 -6.75 L 8.40625 -6.75 L 8.40625 -5.59375 Z M 3.1875 -5.59375 "/></g></g></g><g fill="#ffffff" fill-opacity="1"><g transform="translate(22.612708, 17.982588)"><g><path d="M 3.15625 0 L 1.796875 0 L 1.796875 -11.875 L 3.5 -11.875 L 9.296875 -2.796875 L 9.5 -2.828125 L 9.5 -11.875 L 10.859375 -11.875 L 10.859375 0 L 9.390625 0 L 3.359375 -9.703125 L 3.15625 -9.671875 Z M 3.15625 0 "/></g></g></g><g fill="#ffffff" fill-opacity="1"><g transform="translate(35.265178, 17.982588)"><g><path d="M 3.1875 0 L 1.796875 0 L 1.796875 -11.875 L 3.1875 -11.875 Z M 3.1875 0 "/></g></g></g><g fill="#ffffff" fill-opacity="1"><g transform="translate(40.256373, 17.982588)"><g><path d="M 6.125 0.171875 C 4.664062 0.171875 3.5625 -0.195312 2.8125 -0.9375 C 2.070312 -1.675781 1.703125 -2.769531 1.703125 -4.21875 L 1.703125 -11.875 L 3.078125 -11.875 L 3.078125 -4.234375 C 3.078125 -3.191406 3.328125 -2.410156 3.828125 -1.890625 C 4.335938 -1.378906 5.101562 -1.125 6.125 -1.125 C 8.144531 -1.125 9.15625 -2.160156 9.15625 -4.234375 L 9.15625 -11.875 L 10.546875 -11.875 L 10.546875 -4.21875 C 10.546875 -2.769531 10.171875 -1.675781 9.421875 -0.9375 C 8.671875 -0.195312 7.570312 0.171875 6.125 0.171875 Z M 6.125 0.171875 "/></g></g></g><g fill="#ffffff" fill-opacity="1"><g transform="translate(52.486824, 17.982588)"><g><path d="M 5.1875 0.171875 C 4.4375 0.171875 3.765625 0.0703125 3.171875 -0.125 C 2.585938 -0.332031 2.097656 -0.597656 1.703125 -0.921875 C 1.304688 -1.253906 1.007812 -1.617188 0.8125 -2.015625 L 1.578125 -2.953125 L 1.78125 -2.953125 C 2.507812 -1.710938 3.644531 -1.09375 5.1875 -1.09375 C 6.082031 -1.09375 6.742188 -1.273438 7.171875 -1.640625 C 7.609375 -2.015625 7.828125 -2.535156 7.828125 -3.203125 C 7.828125 -3.597656 7.753906 -3.929688 7.609375 -4.203125 C 7.472656 -4.472656 7.238281 -4.703125 6.90625 -4.890625 C 6.570312 -5.078125 6.125 -5.242188 5.5625 -5.390625 L 4.171875 -5.734375 C 3.140625 -5.984375 2.378906 -6.378906 1.890625 -6.921875 C 1.398438 -7.460938 1.15625 -8.148438 1.15625 -8.984375 C 1.15625 -9.578125 1.304688 -10.101562 1.609375 -10.5625 C 1.910156 -11.03125 2.351562 -11.390625 2.9375 -11.640625 C 3.519531 -11.898438 4.21875 -12.03125 5.03125 -12.03125 C 5.925781 -12.03125 6.679688 -11.90625 7.296875 -11.65625 C 7.910156 -11.40625 8.398438 -11.03125 8.765625 -10.53125 L 8.078125 -9.609375 L 7.875 -9.609375 C 7.539062 -10.023438 7.140625 -10.332031 6.671875 -10.53125 C 6.203125 -10.726562 5.65625 -10.828125 5.03125 -10.828125 C 4.207031 -10.828125 3.585938 -10.664062 3.171875 -10.34375 C 2.753906 -10.019531 2.546875 -9.578125 2.546875 -9.015625 C 2.546875 -8.484375 2.695312 -8.054688 3 -7.734375 C 3.3125 -7.421875 3.832031 -7.175781 4.5625 -7 L 5.984375 -6.671875 C 7.140625 -6.398438 7.972656 -5.984375 8.484375 -5.421875 C 9.003906 -4.859375 9.265625 -4.140625 9.265625 -3.265625 C 9.265625 -2.597656 9.113281 -2.003906 8.8125 -1.484375 C 8.507812 -0.972656 8.050781 -0.566406 7.4375 -0.265625 C 6.832031 0.0234375 6.082031 0.171875 5.1875 0.171875 Z M 5.1875 0.171875 "/></g></g></g><g fill="#ffffff" fill-opacity="1"><g transform="translate(62.655872, 17.982588)"><g/></g></g><g fill="#ffffff" fill-opacity="1"><g transform="translate(66.729983, 17.982588)"><g><path d="M 1.796875 0 L 1.796875 -11.875 L 6.296875 -11.875 C 7.023438 -11.875 7.640625 -11.753906 8.140625 -11.515625 C 8.648438 -11.285156 9.035156 -10.953125 9.296875 -10.515625 C 9.554688 -10.085938 9.6875 -9.578125 9.6875 -8.984375 C 9.6875 -8.472656 9.546875 -8.007812 9.265625 -7.59375 C 8.984375 -7.175781 8.582031 -6.847656 8.0625 -6.609375 L 8.0625 -6.453125 C 8.851562 -6.253906 9.453125 -5.894531 9.859375 -5.375 C 10.273438 -4.863281 10.484375 -4.21875 10.484375 -3.4375 C 10.484375 -2.332031 10.160156 -1.484375 9.515625 -0.890625 C 8.867188 -0.296875 7.90625 0 6.625 0 Z M 6.21875 -6.890625 C 6.875 -6.890625 7.382812 -7.0625 7.75 -7.40625 C 8.113281 -7.75 8.296875 -8.21875 8.296875 -8.8125 C 8.296875 -9.445312 8.117188 -9.921875 7.765625 -10.234375 C 7.421875 -10.554688 6.90625 -10.71875 6.21875 -10.71875 L 3.1875 -10.71875 L 3.1875 -6.890625 Z M 6.53125 -1.15625 C 8.21875 -1.15625 9.0625 -1.914062 9.0625 -3.4375 C 9.0625 -4.96875 8.21875 -5.734375 6.53125 -5.734375 L 3.1875 -5.734375 L 3.1875 -1.15625 Z M 6.53125 -1.15625 "/></g></g></g><g fill="#ffffff" fill-opacity="1"><g transform="translate(78.148859, 17.982588)"><g><path d="M 3.1875 -5.59375 L 3.1875 -1.15625 L 9.234375 -1.15625 L 9.234375 0 L 1.796875 0 L 1.796875 -11.875 L 9.109375 -11.875 L 9.109375 -10.71875 L 3.1875 -10.71875 L 3.1875 -6.75 L 8.40625 -6.75 L 8.40625 -5.59375 Z M 3.1875 -5.59375 "/></g></g></g><g fill="#ffffff" fill-opacity="1"><g transform="translate(88.171823, 17.982588)"><g><path d="M 10.6875 0 L 9.1875 0 L 8.09375 -3.25 L 3.03125 -3.25 L 1.9375 0 L 0.46875 0 L 4.609375 -11.875 L 6.546875 -11.875 Z M 5.46875 -10.4375 L 3.421875 -4.421875 L 7.703125 -4.421875 L 5.671875 -10.4375 Z M 5.46875 -10.4375 "/></g></g></g><g fill="#ffffff" fill-opacity="1"><g transform="translate(98.981996, 17.982588)"><g><path d="M 6.125 0.171875 C 4.664062 0.171875 3.5625 -0.195312 2.8125 -0.9375 C 2.070312 -1.675781 1.703125 -2.769531 1.703125 -4.21875 L 1.703125 -11.875 L 3.078125 -11.875 L 3.078125 -4.234375 C 3.078125 -3.191406 3.328125 -2.410156 3.828125 -1.890625 C 4.335938 -1.378906 5.101562 -1.125 6.125 -1.125 C 8.144531 -1.125 9.15625 -2.160156 9.15625 -4.234375 L 9.15625 -11.875 L 10.546875 -11.875 L 10.546875 -4.21875 C 10.546875 -2.769531 10.171875 -1.675781 9.421875 -0.9375 C 8.671875 -0.195312 7.570312 0.171875 6.125 0.171875 Z M 6.125 0.171875 "/></g></g></g><g fill="#ffffff" fill-opacity="1"><g transform="translate(111.212447, 17.982588)"><g><path d="M 9.265625 -11.875 L 9.265625 -10.6875 L 5.546875 -10.6875 L 5.546875 0 L 4.15625 0 L 4.15625 -10.6875 L 0.4375 -10.6875 L 0.4375 -11.875 Z M 9.265625 -11.875 "/></g></g></g><g fill="#ffffff" fill-opacity="1"><g transform="translate(120.902668, 17.982588)"><g><path d="M 5.796875 0 L 4.40625 0 L 4.40625 -4.65625 L 0.3125 -11.875 L 1.828125 -11.875 L 5.03125 -6.3125 L 5.234375 -6.3125 L 8.40625 -11.875 L 9.90625 -11.875 L 5.796875 -4.65625 Z M 5.796875 0 "/></g></g></g><g fill="#ffffff" fill-opacity="1"><g transform="translate(131.104175, 17.982588)"><g/></g></g><g fill="#ffffff" fill-opacity="1"><g transform="translate(135.178291, 17.982588)"><g><path d="M 1.796875 0 L 1.796875 -11.875 L 6.296875 -11.875 C 7.023438 -11.875 7.640625 -11.753906 8.140625 -11.515625 C 8.648438 -11.285156 9.035156 -10.953125 9.296875 -10.515625 C 9.554688 -10.085938 9.6875 -9.578125 9.6875 -8.984375 C 9.6875 -8.472656 9.546875 -8.007812 9.265625 -7.59375 C 8.984375 -7.175781 8.582031 -6.847656 8.0625 -6.609375 L 8.0625 -6.453125 C 8.851562 -6.253906 9.453125 -5.894531 9.859375 -5.375 C 10.273438 -4.863281 10.484375 -4.21875 10.484375 -3.4375 C 10.484375 -2.332031 10.160156 -1.484375 9.515625 -0.890625 C 8.867188 -0.296875 7.90625 0 6.625 0 Z M 6.21875 -6.890625 C 6.875 -6.890625 7.382812 -7.0625 7.75 -7.40625 C 8.113281 -7.75 8.296875 -8.21875 8.296875 -8.8125 C 8.296875 -9.445312 8.117188 -9.921875 7.765625 -10.234375 C 7.421875 -10.554688 6.90625 -10.71875 6.21875 -10.71875 L 3.1875 -10.71875 L 3.1875 -6.890625 Z M 6.53125 -1.15625 C 8.21875 -1.15625 9.0625 -1.914062 9.0625 -3.4375 C 9.0625 -4.96875 8.21875 -5.734375 6.53125 -5.734375 L 3.1875 -5.734375 L 3.1875 -1.15625 Z M 6.53125 -1.15625 "/></g></g></g><g fill="#ffffff" fill-opacity="1"><g transform="translate(146.597166, 17.982588)"><g><path d="M 10.6875 0 L 9.1875 0 L 8.09375 -3.25 L 3.03125 -3.25 L 1.9375 0 L 0.46875 0 L 4.609375 -11.875 L 6.546875 -11.875 Z M 5.46875 -10.4375 L 3.421875 -4.421875 L 7.703125 -4.421875 L 5.671875 -10.4375 Z M 5.46875 -10.4375 "/></g></g></g><g fill="#ffffff" fill-opacity="1"><g transform="translate(157.748214, 17.982588)"><g><path d="M 1.796875 0 L 1.796875 -11.875 L 6.109375 -11.875 C 6.898438 -11.875 7.566406 -11.738281 8.109375 -11.46875 C 8.648438 -11.207031 9.054688 -10.835938 9.328125 -10.359375 C 9.597656 -9.878906 9.734375 -9.3125 9.734375 -8.65625 C 9.734375 -7.925781 9.546875 -7.320312 9.171875 -6.84375 C 8.804688 -6.363281 8.234375 -6.003906 7.453125 -5.765625 L 7.453125 -5.59375 C 7.835938 -5.4375 8.148438 -5.195312 8.390625 -4.875 C 8.640625 -4.550781 8.867188 -4.066406 9.078125 -3.421875 L 10.171875 0 L 8.734375 0 L 7.546875 -3.625 C 7.410156 -4.050781 7.25 -4.382812 7.0625 -4.625 C 6.875 -4.875 6.640625 -5.050781 6.359375 -5.15625 C 6.078125 -5.269531 5.722656 -5.328125 5.296875 -5.328125 L 3.1875 -5.328125 L 3.1875 0 Z M 6.078125 -6.515625 C 6.816406 -6.515625 7.363281 -6.6875 7.71875 -7.03125 C 8.082031 -7.375 8.265625 -7.894531 8.265625 -8.59375 C 8.265625 -9.300781 8.082031 -9.828125 7.71875 -10.171875 C 7.363281 -10.515625 6.816406 -10.6875 6.078125 -10.6875 L 3.1875 -10.6875 L 3.1875 -6.515625 Z M 6.078125 -6.515625 "/></g></g></g></g></g></svg>