<svg xmlns="http://www.w3.org/2000/svg" xmlns:xlink="http://www.w3.org/1999/xlink" width="500" zoomAndPan="magnify" viewBox="0 0 375 374.999991" height="500" preserveAspectRatio="xMidYMid meet" version="1.0"><defs><clipPath id="cf51127dbe"><path d="M 50.097656 139 L 325 139 L 325 230 L 50.097656 230 Z M 50.097656 139 " clip-rule="nonzero"/></clipPath><clipPath id="a1071ea559"><path d="M 324 205 L 348.597656 205 L 348.597656 231 L 324 231 Z M 324 205 " clip-rule="nonzero"/></clipPath></defs><rect x="-37.5" width="450" fill="#ffffff" y="-37.499999" height="449.999989" fill-opacity="1"/><rect x="-37.5" width="450" fill="#1dbf73" y="-37.499999" height="449.999989" fill-opacity="1"/><g clip-path="url(#cf51127dbe)"><path fill="#ffffff" d="M 324.082031 183.445312 L 313.671875 183.445312 C 306.957031 183.445312 303.261719 188.480469 303.261719 197.210938 L 303.261719 228.4375 L 283.117188 228.4375 L 283.117188 183.445312 L 274.722656 183.445312 C 268.007812 183.445312 264.316406 188.480469 264.316406 197.210938 L 264.316406 228.4375 L 244.167969 228.4375 L 244.167969 166.65625 L 264.316406 166.65625 L 264.316406 176.058594 C 267.671875 168.671875 272.039062 166.65625 278.753906 166.65625 L 303.261719 166.65625 L 303.261719 176.058594 C 306.621094 168.671875 310.984375 166.65625 317.699219 166.65625 L 324.417969 166.65625 Z M 239.46875 202.246094 L 197.835938 202.246094 C 198.839844 209.296875 203.207031 212.992188 210.257812 212.992188 C 215.628906 212.992188 219.324219 210.640625 220.664062 206.949219 L 238.460938 211.984375 C 234.097656 222.726562 223.351562 229.109375 210.257812 229.109375 C 188.433594 229.109375 178.359375 211.984375 178.359375 197.210938 C 178.359375 182.773438 187.089844 165.648438 208.914062 165.648438 C 232.082031 165.648438 239.804688 183.109375 239.804688 196.203125 C 239.804688 199.226562 239.804688 200.902344 239.46875 202.246094 Z M 220.332031 190.496094 C 219.996094 185.121094 215.964844 180.421875 209.25 180.421875 C 202.871094 180.421875 199.175781 183.109375 197.835938 190.496094 Z M 143.441406 228.4375 L 160.898438 228.4375 L 183.058594 166.992188 L 162.914062 166.992188 L 152.171875 202.917969 L 141.425781 166.65625 L 121.28125 166.65625 Z M 61.515625 228.4375 L 81.324219 228.4375 L 81.324219 183.445312 L 100.464844 183.445312 L 100.464844 228.4375 L 120.273438 228.4375 L 120.273438 166.65625 L 81.324219 166.65625 L 81.324219 162.960938 C 81.324219 158.933594 84.347656 156.246094 88.710938 156.246094 L 100.464844 156.246094 L 100.464844 139.460938 L 85.691406 139.460938 C 71.25 139.460938 61.515625 148.523438 61.515625 161.621094 L 61.515625 166.65625 L 50.097656 166.65625 L 50.097656 183.445312 L 61.515625 183.445312 Z M 61.515625 228.4375 " fill-opacity="1" fill-rule="nonzero"/></g><g clip-path="url(#a1071ea559)"><path fill="#1dbf73" d="M 336.503906 230.113281 C 343.21875 230.113281 348.925781 224.40625 348.925781 217.691406 C 348.925781 210.976562 343.21875 205.269531 336.503906 205.269531 C 329.789062 205.269531 324.082031 210.976562 324.082031 217.691406 C 324.082031 224.40625 329.789062 230.113281 336.503906 230.113281 Z M 336.503906 230.113281 " fill-opacity="1" fill-rule="nonzero"/></g></svg>