<svg xmlns="http://www.w3.org/2000/svg" xmlns:xlink="http://www.w3.org/1999/xlink" width="500" zoomAndPan="magnify" viewBox="0 0 375 374.999991" height="500" preserveAspectRatio="xMidYMid meet" version="1.0"><defs><clipPath id="e5f8458f4e"><path d="M 95 87.171875 L 300 87.171875 L 300 207 L 95 207 Z M 95 87.171875 " clip-rule="nonzero"/></clipPath><clipPath id="8fb29d1925"><path d="M 75 153 L 280 153 L 280 272.421875 L 75 272.421875 Z M 75 153 " clip-rule="nonzero"/></clipPath><clipPath id="80dbded367"><path d="M 37.21875 175 L 47 175 L 47 185 L 37.21875 185 Z M 37.21875 175 " clip-rule="nonzero"/></clipPath><clipPath id="8d2516b4e3"><path d="M 328 175 L 337.21875 175 L 337.21875 185 L 328 185 Z M 328 175 " clip-rule="nonzero"/></clipPath><clipPath id="a8b4cfb7f9"><path d="M 187.359375 179.882812 L 251.859375 179.882812 L 251.859375 218.882812 L 187.359375 218.882812 Z M 187.359375 179.882812 " clip-rule="nonzero"/></clipPath></defs><rect x="-37.5" width="450" fill="#ffffff" y="-37.499999" height="449.999989" fill-opacity="1"/><rect x="-37.5" width="450" fill="#303030" y="-37.499999" height="449.999989" fill-opacity="1"/><g clip-path="url(#e5f8458f4e)"><path fill="#ffffff" d="M 181.710938 87.234375 C 165.234375 88.472656 150.800781 93.160156 137.648438 101.519531 C 131.285156 105.554688 126.402344 109.550781 120.824219 115.238281 C 109.625 126.675781 101.960938 140.09375 97.621094 155.808594 C 96.988281 158.085938 95.753906 163.96875 95.601562 165.359375 L 95.535156 166.011719 L 104.847656 166.011719 L 105.433594 163.1875 C 107.300781 154.179688 110.40625 145.976562 114.855469 138.332031 C 127.054688 117.234375 147.828125 102.410156 171.507812 97.871094 C 177.347656 96.765625 179.886719 96.546875 187.464844 96.570312 C 195.214844 96.570312 197.558594 96.765625 203.613281 97.960938 C 216.941406 100.585938 229.03125 106.230469 239.992188 114.976562 C 243.226562 117.558594 249.371094 123.660156 251.953125 126.828125 C 260.855469 137.769531 266.695312 150.054688 269.386719 163.515625 C 270.425781 168.636719 270.839844 172.609375 270.96875 178.75 L 271.101562 184.570312 L 290.136719 184.570312 L 290.179688 195.574219 L 290.246094 206.601562 L 299.363281 206.601562 L 299.425781 179.945312 L 299.472656 153.3125 L 290.136719 153.3125 L 290.136719 175.234375 L 280.195312 175.234375 L 280.042969 173.109375 C 277.699219 140.179688 257.621094 110.699219 227.730469 96.308594 C 218.15625 91.707031 208.714844 88.996094 197.558594 87.625 C 194.886719 87.300781 184.273438 87.039062 181.710938 87.234375 Z M 181.710938 87.234375 " fill-opacity="1" fill-rule="nonzero"/></g><path fill="#ffffff" d="M 124.949219 144.976562 C 124.949219 145.085938 126.230469 147.34375 132.652344 158.519531 C 134 160.84375 137.015625 166.117188 139.382812 170.242188 C 141.75 174.367188 144.960938 179.96875 146.546875 182.722656 C 149.347656 187.585938 155.816406 198.851562 161.871094 209.421875 C 163.519531 212.289062 164.953125 214.65625 165.039062 214.675781 C 165.148438 214.71875 166.34375 212.808594 167.710938 210.464844 C 169.054688 208.097656 172.574219 202.023438 175.480469 196.941406 C 178.390625 191.863281 182.058594 185.371094 183.621094 182.507812 C 191.152344 168.59375 193.695312 164.640625 197.144531 161.34375 C 198.078125 160.429688 199.359375 159.347656 199.945312 158.933594 C 209.582031 152.097656 222.757812 152.746094 231.8125 160.539062 L 233.046875 161.605469 L 233.765625 160.972656 C 234.132812 160.625 235.609375 159.195312 237.019531 157.78125 L 239.582031 155.199219 L 238.867188 154.441406 C 237.78125 153.332031 234.894531 151.121094 232.9375 149.945312 C 221.347656 142.957031 206.695312 143.304688 195.386719 150.816406 C 191.980469 153.074219 188.355469 156.632812 186.140625 159.867188 C 185.660156 160.5625 181.753906 167.289062 177.457031 174.84375 C 165.496094 195.792969 165.214844 196.292969 165.105469 196.292969 C 164.953125 196.292969 165.429688 197.117188 155.945312 180.554688 C 151.214844 172.304688 145.289062 161.949219 142.746094 157.542969 C 140.207031 153.117188 137.539062 148.472656 136.800781 147.191406 L 135.476562 144.847656 L 130.222656 144.847656 C 127.3125 144.847656 124.949219 144.910156 124.949219 144.976562 Z M 124.949219 144.976562 " fill-opacity="1" fill-rule="nonzero"/><g clip-path="url(#8fb29d1925)"><path fill="#ffffff" d="M 75.457031 180.011719 L 75.457031 206.710938 L 84.574219 206.710938 L 84.574219 184.570312 L 94.515625 184.570312 L 94.667969 186.347656 C 94.949219 190.082031 95.664062 195.207031 96.296875 198.332031 C 101.179688 222.425781 115.355469 243.503906 135.910156 257.222656 C 147.828125 265.1875 161.066406 270.117188 175.851562 272.089844 C 179.085938 272.523438 180.472656 272.570312 187.136719 272.589844 C 194.648438 272.589844 195.886719 272.503906 201.574219 271.699219 C 215.550781 269.703125 230.183594 263.648438 242.121094 254.964844 C 247.289062 251.1875 253.625 245.371094 257.640625 240.703125 C 268.320312 228.332031 275.527344 213.484375 278.632812 197.550781 C 278.980469 195.660156 279.285156 194.078125 279.285156 194.011719 C 279.285156 193.945312 277.15625 193.925781 274.574219 193.945312 L 269.882812 194.011719 L 269.492188 195.964844 C 263.894531 225.117188 242.621094 249.40625 214.207031 259.109375 C 208.691406 261 201.464844 262.539062 195.167969 263.167969 C 191.804688 263.515625 182.882812 263.496094 179.539062 263.167969 C 159.332031 261.109375 141.378906 252.488281 127.445312 238.164062 C 114.074219 224.402344 106.128906 207.296875 104.085938 187.824219 C 103.9375 186.457031 103.804688 183.050781 103.804688 180.292969 L 103.785156 175.234375 L 84.574219 175.234375 L 84.574219 153.3125 L 75.457031 153.3125 Z M 75.457031 180.011719 " fill-opacity="1" fill-rule="nonzero"/></g><path fill="#ffffff" d="M 56.355469 179.902344 L 56.355469 194.554688 L 65.6875 194.554688 L 65.644531 179.945312 L 65.578125 165.359375 L 60.976562 165.292969 L 56.355469 165.25 Z M 56.355469 179.902344 " fill-opacity="1" fill-rule="nonzero"/><path fill="#ffffff" d="M 309.238281 179.902344 L 309.238281 194.554688 L 313.863281 194.511719 L 318.464844 194.445312 L 318.464844 165.359375 L 313.863281 165.292969 L 309.238281 165.25 Z M 309.238281 179.902344 " fill-opacity="1" fill-rule="nonzero"/><g clip-path="url(#80dbded367)"><path fill="#ffffff" d="M 37.253906 179.902344 L 37.253906 184.570312 L 46.585938 184.570312 L 46.585938 175.234375 L 37.253906 175.234375 Z M 37.253906 179.902344 " fill-opacity="1" fill-rule="nonzero"/></g><g clip-path="url(#8d2516b4e3)"><path fill="#ffffff" d="M 328.320312 175.324219 C 328.277344 175.367188 328.253906 177.472656 328.296875 179.988281 L 328.363281 184.570312 L 337.457031 184.570312 L 337.457031 175.234375 L 332.941406 175.234375 C 330.445312 175.234375 328.363281 175.277344 328.320312 175.324219 Z M 328.320312 175.324219 " fill-opacity="1" fill-rule="nonzero"/></g><g clip-path="url(#a8b4cfb7f9)"><path fill="#1dcd74" d="M 227.257812 184.402344 L 227.257812 188.921875 L 241.9375 188.921875 L 241.785156 189.609375 C 240.023438 198.175781 233.5 205.535156 225.109375 208.464844 C 220.136719 210.183594 213.742188 210.25 208.773438 208.59375 C 206.707031 207.925781 203.671875 206.375 201.863281 205.105469 C 198.679688 202.867188 195.257812 198.734375 193.554688 195.054688 L 192.78125 193.398438 L 192.414062 194 C 190.972656 196.367188 187.445312 202.675781 187.445312 202.867188 C 187.445312 203.253906 189.984375 206.527344 191.664062 208.292969 C 199.367188 216.363281 210.234375 220.191406 221.277344 218.730469 C 230.078125 217.566406 237.957031 213.199219 243.617188 206.355469 C 249.039062 199.789062 251.945312 190.964844 251.472656 182.507812 L 251.320312 179.882812 L 227.257812 179.882812 Z M 227.257812 184.402344 " fill-opacity="1" fill-rule="nonzero"/></g></svg>