<?xml version="1.0" encoding="UTF-8"?>
<svg id="Layer_1" data-name="Layer 1" xmlns="http://www.w3.org/2000/svg" viewBox="0 0 881.18 912.14">
  <defs>
    <style>
      .cls-1 {
        fill: #2b6560;
      }
    </style>
  </defs>
  <rect class="cls-1" x="695.0431" y="780.4047" width=".8464" height="2.3545"/>
  <g>
    <polygon class="cls-1" points="855.0767 386.2131 855.0767 386.2191 855.0887 386.2131 855.0767 386.2131"/>
    <path class="cls-1" d="M803.6545,370.2924l-27.2936,25.8989-59.177-72.1115c-16.636,17.1308-23.6636,28.2712-36.0856,40.4606l-31.0071,14.228-38.1539-13.3517-17.4527,17.7984-61.6625-75.0441-62.1335,74.5554-12.9465-12.4398-1.21.2742-36.6041,38.9764-26.6976-22.7457c-14.1153,12.4203-32.3626,30.215-46.5763,43.8585-1.4588-1.1713-8.586-10.2762-9.1544-11.0148-3.897-5.0642-7.7289-10.1478-11.7863-15.0858-2.6239-3.1933-5.2479-6.3867-7.8718-9.58-3.1971-3.891-6.3943-7.7819-9.5914-11.6729-3.4262-4.1697-6.8524-8.3395-10.2786-12.5092-3.3111-4.0296-6.6223-8.0593-9.9333-12.0889l-8.5554-10.4121c-2.0484-2.4929-4.0967-4.9858-6.1451-7.4787-.9008-1.0962-1.8015-2.1924-2.7023-3.2887-.015-.0181-.0298-.0363-.0448-.0545l-62.1335,74.5554-12.9465-12.4398-1.21.2742-36.6042,38.9764-26.6976-22.7457c-15.14,13.322-35.0723,32.8668-49.64,46.7968.155.3099,6.05,6.4434,6.8369,7.2899,3.6658,3.9399,7.2958,7.9872,10.6695,12.1835l-14.8896,3.2426-.0059,1.973,15.4022-2.4796-15.0208,28.4619-.3815,4.8281,17.3931-32.7953,27.3234,20.8681-44.6987,13.4531-.0238,1.9551,43.7271-12.9107-18.958,32.3155h-5.7361l-18.7945-15.9178-.1371,2.879,14.8584,13.0389h-16.822v1.9883l133.1093.0062.1241.2495.501-.2494,143.5648.0067c.0015.0005.0031.001.0046.0015h6.4221c.0014-.0004.0028-.0008.0042-.0012l13.1485.0006c.0007.0002.0014.0004.0021.0006h476.0886v-3.481l-25.3505-16.654c.0179-2.1697,22.2391-18.5435,25.3505-21.1185v-4.4705l-30.3217-32.545,30.3217,6.205v-1.9849l-31.8118-7.2123,13.1729-18.0845,18.6389,14.8539v-2.9803l-16.8864-13.6677,16.8864-13.6677v-2.9803l-18.6329,14.9254-19.1335-17.405,37.7664.4948v-1.9849l-39.2626-.751,13.6677-21.9887,25.6008,20.2542v-2.9803l-23.8544-19.378,23.8544-8.4521v-1.9968l-25.9764,8.8634-25.4459-24.7902ZM779.0848,397.4608l22.8232-22.6741-4.4705,33.7967c-.5483.5245-7.8799-3.8625-9.0959-4.5718-1.9789-1.1564-6.8369-3.8326-8.2554-5.1619-.4113-.3875-1.1326-.6557-1.0014-1.3889ZM316.9492,541.2667l-.4022-18.4153,49.9405,18.4153h-49.5383ZM335.9308,476.8831l27.1964-20.3312c.0534.1011.1255.1912.1724.2955l.2573-.485,20.2086,33.6273-47.8347-13.1066ZM386.3972,490.5076l-18.4145-30.8637,25.176,19.1018,30.7976,21.6666-37.5591-9.9047ZM392.5925,475.0919l-26.0121-20.0515,49.193-6.6997-23.1808,26.7512ZM365.585,452.7992l17.7209-24.3014,30.9773,17.3573-48.6982,6.9441ZM363.6147,452.1196c-1.2519-1.5942-3.7915-4.8721-4.5681-5.9554-.4352-.6071-6.7703-8.8942-9.8956-12.9968l31.3415-5.2061-16.8778,24.1583ZM333.7552,475.077l-19.6938-39.191,47.7028,18.3945-28.009,20.7966ZM295.6729,493.0303l-58.1399-5.7103,37.4983-32.0562,20.6416,37.7664ZM278.2857,455.2639l52.714,21.8937c-1.5916.9663-4.4623,2.7049-5.8218,3.3793-8.7979,4.3453-17.9176,8.1124-26.7155,12.4577l-20.1767-37.7307ZM296.9842,496.5471c1.0371-.1848,15.3903,23.312,16.0817,24.3134l-46.3091,18.1789,30.2274-42.4922ZM299.1598,495.2656l31.7641-15.134-16.3559,38.738-15.4082-23.6041ZM332.2114,482.1939l1.0073-2.2411,34.3281,59.0117-51.1788-18.2888c2.6286-7.2361,11.2417-27.532,15.8433-38.4818ZM330.9597,475.1306l-52.1733-22.6027,32.0562-17.0831,20.1171,39.6858ZM276.3366,450.7517l-14.4545-40.711,47.7028,23.8484-33.2483,16.8626ZM274.304,451.2822l-54.6648-7.4567,40.2461-32.7953,14.4187,40.252ZM272.8138,453.279l-37.7605,33.29-16.4036-40.7468,54.1641,7.4567ZM233.0566,487.0638l-43.2324.4947,25.8512-40.246,1.5795,1.1384,15.8016,38.6129ZM162.8941,540.9918l-.2717.2032,26.2004-50.9006,42.7376-.7391-68.6663,51.4365ZM232.0612,492.0409l-18.6058,47.4545-12.1781-24.4634,30.7839-22.9911ZM212.6772,447.8071l-24.9035,39.2209-28.7599-10.6456,53.6635-28.5753ZM160.0032,473.1517l38.5294-45.7179,16.1295,16.6479-54.6589,29.0699ZM160.8262,539.8724l-27.6576-33.1803,52.674-15.6466-25.0164,48.8269ZM199.23,516.5609l12.2986,24.7057h-45.3784l33.0797-24.7057ZM235.2918,491.5521l15.8749,31.3129-35.7448,17.7939,19.8698-49.1068ZM237.533,490.056l57.1504,4.9652-31.8914,46.2455-25.259-51.2107ZM314.5561,522.8453l.3943,18.4213h-48.4163l48.022-18.4213ZM371.6593,541.0416l-36.7626-62.2959,48.2023,13.1281c.033-.0021.067-.0027.1-.0049l-11.5397,49.1727ZM385.6954,492.6442l37.3062,9.838-43.5717,16.8605,6.2655-26.6985ZM428.3979,499.9835l-32.998-22.5848,52.674-15.6466-19.676,38.2314ZM540.5172,425.9705l52.1792,21.8695c.2682,1.2935-.2742.7689-.7153,1.0371-1.4246.8643-3.0697,1.6213-4.5718,2.3664-8.7979,4.3453-17.9176,8.1124-26.7155,12.4577l-20.1766-37.7307ZM557.9042,463.7369l-58.1398-5.7103,37.4982-32.0562,20.6416,37.7665ZM538.568,421.4583l-14.4545-40.711,47.7028,23.8484-33.2484,16.8625ZM536.5355,421.9888l-54.6648-7.4567,40.246-32.7953,14.4188,40.252ZM535.0453,423.9856l-37.7605,33.29-16.4036-40.7468,54.1641,7.4567ZM495.288,457.7703l-43.2324.4948,25.8512-40.2461,1.5796,1.1385,15.8016,38.6129ZM474.9086,418.5137l-24.9034,39.2209-28.76-10.6457,53.6635-28.5752ZM422.2347,443.8583l38.5294-45.718,16.1294,16.648-54.6588,29.0699ZM451.0543,461.001l42.7376-.7391-62.1096,39.2566,19.372-38.5175ZM494.2925,462.7474l-21.4164,54.6231-40.1924-15.6168,61.6089-39.0063ZM497.5232,462.2587l23.6041,37.2538-45.718,17.399,22.1139-54.6529ZM499.7644,460.7626l57.1504,4.9652-33.5404,32.2886-23.61-37.2538ZM559.2156,467.2537c1.0372-.1848,15.3903,23.312,16.0817,24.3134l-48.7042,6.4553,32.6224-30.7687ZM561.3912,465.9722l31.7642-15.134-16.356,38.738-15.4082-23.6041ZM541.0178,423.2346l32.0562-17.0831,20.1171,39.6858-52.1733-22.6027ZM576.2927,406.5925l47.7028,18.3945-28.0089,20.7966-19.6939-39.191ZM622.8988,416.1712l12.3385-20.9456,25.5412,9.8827-30.0534,11.9272c-2.3723.6199-9.9066,4.4705-7.8263-.8643ZM620.7709,415.5275c-2.5809-3.3916-6.354-6.6997-8.6965-10.1748-.2742-.4113-.7034-.4768-.4948-1.2397l20.3674-8.4581-11.1761,19.8727ZM758.926,427.9673v-.006l-30.0654-7.9574,21.643-16.4215,1.1981.2861,29.0759,22.1258,1.2577,1.973h-23.1093ZM785.266,429.9521v-.006c3.4274,2.736,6.9799,5.293,10.5503,7.8382.2265.1609,1.5617.7988.8762,1.1147l-31.5496-8.9469h20.123ZM759.4267,489.9875l-24.5995-24.0213,49.6937-7.6892-25.0942,31.7105ZM785.5283,460.5242l1.967-1.2577,8.4521,28.8196-33.296,1.4902,22.8768-29.0521ZM704.0109,445.1041l51.1838-13.6617-23.1868,31.2634-27.997-17.6017ZM725.3737,461.2633l-40.7408-10.9318c5.6507-1.0192,11.2834-3.8863,17.0176-3.8624,8.0409,4.691,15.4916,10.5264,23.7233,14.7943ZM705.0063,442.3622l12.9106-12.6723,8.8932-7.9455,28.3845,7.2123-50.1884,13.4055ZM709.9834,435.1736c-1.6749,1.5736-5.7162,5.7341-7.1885,6.7296-.4888.3278-.8583.6021-1.4962.4947l-8.7144-22.3821,31.3052.9954c-4.548,4.7625-9.1019,9.6383-13.9061,14.1624ZM699.0397,442.8629l-32.7953-7.9396,24.1107-13.8644,8.6846,21.804ZM696.5541,444.3649c-.006.6974-1.4365,1.0133-2.0027,1.2159-2.5214.918-11.3907,3.6241-13.5425,3.1472l-14.2697-10.8245,29.815,6.4613ZM680.9016,453.3118l21.1185,24.8319-37.2658-1.2339,16.1473-23.598ZM662.4236,476.1171l-1.4246-.4232-16.1234-14.6929,33.7907-8.6906-16.2427,23.8067ZM683.6375,452.8111l45.2172,11.9272-24.0511,12.8749-21.1661-24.8021ZM732.0198,466.306l23.1808,23.2703-46.7133-11.1762,23.5325-12.0941ZM734.3265,462.7415l21.3807-28.5573,3.2426-2.7717,25.5651,24.8677-50.1884,6.4613ZM747.4816,403.0936c-3.9817,3.6539-11.8557,9.2926-16.4752,12.3504-1.0252.6795-3.4512,2.724-4.5718,2.0206l-13.9717-34.7206,36.2763,18.3885c.1609.9716-.6556,1.4067-1.2577,1.9611ZM724.8849,419.0085l-31.7999-.9895,17.1428-34.7802,14.6571,35.7697ZM691.0823,417.0236l-24.8379-11.6828,41.2415-22.6086-16.4036,34.2914ZM666.2623,407.8145c4.1784,1.3113,12.2372,5.6625,16.5586,7.7905.7451.3695,6.7952,3.1412,6.2825,3.8983l-24.8438,13.918.4948-25.8393c.5483-.0954.9954.0715,1.508.2325ZM678.1656,450.3136l-34.2855,8.4521.5007-36.777,33.7848,28.3248ZM662.2628,433.4212l-18.2395-14.8062c-4.7804-.9716-13.4889,5.5434-17.6852,4.2738-.751-.2265-1.2577-1.1385-1.8418-1.6392l38.2612-13.6617-.4947,25.8333ZM628.013,425.7737c.2742-1.2338,12.4041-4.5002,14.371-5.2692l-.7391,34.2855-13.632-29.0163ZM640.8998,458.7658l-42.7376-11.1762,27.5798-20.6177,15.1578,31.7939ZM640.8998,460.7567c.6497.6675-5.299,15.5095-6.0798,17.5242-2.1279,5.5016-4.7446,12.9107-7.3196,18.0249-.2384.4709-.3099,1.1802-1.0073,1.2219l-28.8315-47.2021,43.2383,10.4312ZM643.6238,462.7534l16.642,15.1519-30.7985,19.6283,14.1564-34.7802ZM661.5295,480.1346l2.1399,1.8299,14.5022,23.0139-47.2081-5.2095,30.566-19.6343ZM664.2535,479.1511l37.7665.9895-21.1185,24.3372-16.648-25.3267ZM704.7559,481.1419l28.0805,32.2827-50.1884-7.6952,22.1079-24.5875ZM707.9866,481.136l48.6982,10.9318-21.0529,20.8323-27.6454-31.7641ZM759.4208,493.0691l21.1185,19.8668-41.7422.4948,20.6237-20.3615ZM762.1567,492.8068c-.2086-1.1623.5186-.6497,1.2458-.7212,10.6337-1.1146,21.3867-1.0967,32.0443-1.9968l-12.2371,21.3211-21.0529-18.6031ZM797.4435,490.5776l25.8333,29.815-37.7665-7.4567,11.9332-22.3583ZM789.4921,458.7777l29.3203,4.9711-21.3688,22.3523-7.9515-27.3234ZM786.9767,455.106l-23.8305-23.163,38.7619,10.4371c.155.9239-.6497,1.4365-1.2279,1.9968-2.1757,2.11-5.3288,4.7267-7.7071,6.7057-1.2219,1.0073-4.697,4.2737-5.9964,4.0234ZM787.0065,428.7004l24.8439-5.2156c.5126.5007-4.6553,11.8318-5.3765,13.2505-.5007.9894-1.3649,3.3081-2.42,3.5823-2.0505.5305-14.4366-10.0258-17.0474-11.6172ZM787.0005,426.4652l11.1762-14.383c4.1664,3.0936,9.078,5.7401,12.6782,9.4118l-23.8544,4.9712ZM795.9236,410.8723c.2145.7212-.1967.9656-.453,1.4424-2.3485,4.3513-7.8442,8.4521-9.9602,13.1551l-6.9442-24.8439,17.3574,10.2463ZM782.5241,424.4803l-29.3143-22.1198,22.7934-2.6644,6.5209,24.7842ZM774.5786,397.6396l-22.8768,2.2889-8.4283-40.55,31.3052,38.2612ZM740.6806,358.24l8.5535,40.8898-36.7711-18.8892.9835-1.7405,26.1075-21.1125,1.1266.8524ZM717.9229,328.8184l.9894-.2444,20.3495,26.0181-27.7884,22.6801,6.4494-48.4539ZM715.4493,328.5681l-6.7117,49.181-23.0974-14.1266,29.809-35.0544ZM683.2023,366.4001l2.6227.4888,21.6609,12.3802-.3099,1.0252c-13.2982,7.266-26.3698,15.1042-39.9362,21.8218l15.9625-35.716ZM680.1505,367.3299l-15.4082,34.7862c-1.1802.2742-.7987-.2146-1.1027-.6437-.9954-1.4365-2.0267-3.4155-2.9506-4.9831-1.1027-1.8538-8.5236-14.5439-8.3151-15.3962l27.7765-13.7631ZM661.768,403.1115l-25.3326-10.1867,13.6558-10.6755,11.6769,20.8622ZM648.3506,380.2585c.2325.9418-.3458.9537-.8286,1.3948-3.8148,3.487-8.9171,6.4494-12.8392,9.9363l-17.6375-22.2688,31.3052,10.9377ZM613.5704,369.3208l18.8832,23.5921-22.0424,9.6264c-.9954-.6259-2.1339-1.7047-2.0565-2.9446l5.2156-30.2739ZM611.0729,369.8155l-4.4705,27.8301c-.5842.5841-9.7456-11.0272-10.282-12.1776l14.7525-15.6526ZM622.5114,421.9888l-46.7133-18.1322,18.5613-16.6122,28.152,34.7444ZM593.1792,384.9733l-18.8713,17.1428-10.9318-52.674,29.8031,35.5312ZM572.317,401.6154l-47.6968-23.1034,36.02-31.0548,11.6768,54.1582ZM534.0439,312.6711l25.8035,32.4556-36.2286,31.1501,10.4251-63.6057ZM531.0636,313.1599l-9.9363,63.1169-20.3972-25.571,30.3336-37.5459ZM520.108,379.9307l-39.7216,32.6224,19.6164-58.6346,20.1052,26.0121ZM496.7722,355.4027l-19.1276,57.1385-15.1221-16.5705,34.2497-40.568ZM458.2606,373.7913c1.3173,1.6153,11.3669,9.8469,11.1464,11.1106l-22.3225,26.1552,11.1761-37.2657ZM455.5247,375.2814l-12.6544,40.7647c-.5305.6795-1.1563.4589-1.8597.3815-5.8951-.6437-13.0776-4.8937-19.2766-5.3705l33.7907-35.7756ZM420.2498,412.5531l19.8787,5.7103c.7749.5186-1.0431,2.3962-1.5081,2.9744-5.9963,7.3971-12.4457,14.6572-18.8653,21.6311l.4947-30.3157ZM427.331,451.4402c5.6745,2.0027,13.4769,4.5658,18.7581,7.0812.5782.2742,1.365.5067,1.4902,1.2398l-51.1838,14.9075,22.2272-25.7558c1.6868-.4828,6.7295,1.8299,8.7084,2.5273ZM417.2456,444.8418l-31.782-17.8819c-.8821-1.1981,5.1619-3.3499,5.9785-3.7015,8.7323-3.7969,17.7864-7.2123,26.8168-10.2045l-1.0133,31.788ZM393.9158,390.1889c.751-.2027.8226.1907,1.2458.4888,4.3214,3.028,10.0913,8.5058,14.1624,12.1775,1.8239,1.6451,6.2944,5.2871,7.4567,6.9561.2921.4232.6914.4948.4888,1.2458l-32.3006,12.4279,8.9469-33.296ZM391.4183,391.679l-10.0615,33.6656-33.1649,6.0977,43.2264-39.7633ZM360.28,451.2822l-46.7134-18.1322,18.5613-16.6122,28.152,34.7444ZM330.9478,414.2668l-18.8713,17.1427-10.9318-52.674,29.8031,35.5312ZM298.4088,376.7506l11.6769,54.1582-47.6969-23.1033,36.02-31.0549ZM271.8125,341.9645l25.8035,32.4556-36.2286,31.1501,10.4251-63.6057ZM268.8322,342.4532l-9.9364,63.1169-20.3972-25.571,30.3336-37.546ZM257.8766,409.2241l-39.7216,32.6225,19.6164-58.6346,20.1052,26.0121ZM234.5408,384.6962l-19.1276,57.1384-15.1221-16.5705,34.2497-40.5679ZM196.0292,403.0847c1.3173,1.6153,11.3669,9.8469,11.1463,11.1106l-22.3225,26.1552,11.1762-37.2658ZM193.2933,404.5748l-12.6544,40.7646c-.5305.6795-1.1564.4589-1.8597.3815-5.895-.6437-13.0776-4.8937-19.2766-5.3705l33.7907-35.7756ZM158.0184,441.8466l19.8787,5.7103c.7748.5186-1.0432,2.3961-1.5081,2.9743-5.9964,7.3972-12.4458,14.6572-18.8654,21.6311l.4948-30.3157ZM165.0995,480.7336c5.6746,2.0027,13.477,4.5659,18.7581,7.0812.5781.2742,1.3649.5067,1.4901,1.2398l-51.1838,14.9075,22.2271-25.7558c1.6868-.4828,6.7296,1.8299,8.7084,2.5273ZM155.0142,474.1352l-31.782-17.8818c-.8822-1.1981,5.1619-3.3499,5.9785-3.7015,8.7323-3.7969,17.7865-7.2123,26.8168-10.2046l-1.0133,31.788ZM131.6844,419.4823c.751-.2026.8226.1907,1.2457.4888,4.3215,3.028,10.0914,8.5058,14.1624,12.1776,1.824,1.6451,6.2944,5.287,7.4568,6.9561.2921.4232.6914.4947.4888,1.2457l-32.3006,12.4279,8.9469-33.296ZM129.1869,420.9725l-10.0615,33.6655-33.1649,6.0977,43.2264-39.7632ZM101.1958,481.6813l-.8643-.906c-5.3527-5.9845-9.2509-11.1285-15.8732-17.9057l33.8027-5.6149-17.0652,24.4266ZM121.0745,457.7912l30.9773,17.3573-48.6982,6.9441,17.7209-24.3014ZM104.349,484.3338l49.1929-6.6997-23.1808,26.7512-26.0121-20.0515ZM130.9274,508.0392l27.9291,33.2275h-47.5135l19.5844-33.2275ZM252.3036,525.1074l8.1924,16.1593h-40.6534l32.4611-16.1593ZM391.4183,541.2667h-17.1334l3.8443-16.3813c4.5032,3.0449,9.0064,6.0898,13.5097,9.1347l10.7172,7.2466h-10.9377ZM379.0399,522.3381l47.1645-18.3432-20.1886,36.7114-26.9759-18.3682ZM430.0073,503.6016l39.9361,15.3068-60.6254,21.3569,20.6893-36.6638ZM413.7885,541.2667l59.3499-20.8741c11.2477,6.8547,22.7934,13.3101,33.5821,20.8741h-92.9319ZM475.91,519.1468l45.2172-17.1427-11.4325,38.2612-33.7847-21.1185ZM511.6856,541.2667l12.6723-40.2461,51.4341,40.2461h-64.1064ZM527.0938,500.2636l49.6937-6.7117.9894,46.2186-50.6831-39.5069ZM594.4428,452.9005l1.0074-2.2412,29.5468,47.8578-46.3975-7.1348c2.6287-7.2362,11.2418-27.5321,15.8433-38.4818ZM579.7856,540.6849v-.4314c.004-.0082.0079-.0157.012-.024l-.012-.5478v-.0483h-.001l-1.0063-46.0755,45.7239,6.962c.0298.6914.2384,1.0431-.3398,1.514-33.1153,26.945-42.3712,36.55-44.3768,38.651ZM582.2593,541.2667c.0953-.1371.1788-.2504.2444-.3517,11.6947-11.045,30.0474-27.1804,42.2548-36.9022.5067-.4053,1.8895-1.5497,2.4081-1.4663l18.6984,38.7202h-63.6057ZM629.9681,501.5093l48.1976,5.9666-30.0654,32.7834-18.1322-38.75ZM650.3415,541.2667l30.5482-32.8251,30.0832,32.8251h-60.6313ZM683.6375,508.4714l49.6936,6.956-20.5522,24.3134-29.1414-31.2693ZM715.4433,541.2667l20.6953-24.8141,37.4506,24.8141h-58.1458ZM738.7911,516.1665l43.739-1.2398-5.2275,25.8453-38.5115-24.6055ZM784.5209,514.9207l38.7559,7.9575-43.2324,17.3871,4.4764-25.3445ZM830.6978,526.1446l22.4,15.1161h-68.5768l41.9926-16.9282,4.1843,1.8121ZM827.5744,520.8397l-26.6558-30.2561,51.6785,9.9363-25.0227,20.3198ZM852.603,498.5231l-52.674-10.6755c2.2114-2.8253,19.986-23.3417,21.5417-23.0735l31.1323,33.749ZM820.4575,461.6924l-30.4706-5.4122,14.1564-12.4219,1.7107-.7749,27.8599.2861-13.2564,18.3229ZM833.7139,441.3727c-5.2096-.1431-10.4669.2026-15.6764.0239-2.9148-.1013-7.7548-.1669-10.4252-.5186-.6855-.0894-.8643.2742-.7272-.7332l7.7011-16.1652,19.1276,17.3931ZM813.4955,419.4615c-.6021.2205-.9597-.1848-1.4246-.4053-2.1458-1.0312-8.2256-5.442-10.3178-7.0872-.304-.2385-2.0981-1.6273-1.824-1.8955l26.334-11.4324-12.7676,20.8204ZM799.4343,408.5774l4.4705-34.2855,22.8589,22.3583-27.3294,11.9272Z"/>
    <path class="cls-1" d="M163.973,533.2883c-.045.0184-.0388.0217-.0103.0186l.0103-.0186Z"/>
  </g>
</svg>