<svg xmlns="http://www.w3.org/2000/svg" xmlns:xlink="http://www.w3.org/1999/xlink" width="500" zoomAndPan="magnify" viewBox="0 0 375 374.999991" height="500" preserveAspectRatio="xMidYMid meet" version="1.0"><defs><clipPath id="63a142a18f"><path d="M 67.0625 49.378906 L 307.8125 49.378906 L 307.8125 325.378906 L 67.0625 325.378906 Z M 67.0625 49.378906 " clip-rule="nonzero"/></clipPath></defs><g clip-path="url(#63a142a18f)"><path fill="#004908" d="M 193.648438 147.480469 L 193.492188 245.628906 L 192.007812 249.980469 C 187.914062 262.261719 178.960938 271.625 167.394531 275.769531 C 162.023438 277.664062 157.46875 278.328125 151.222656 277.96875 C 133.824219 277.050781 119.035156 264.511719 114.890625 247.113281 C 114.023438 243.378906 113.867188 241.535156 114.074219 236.671875 C 114.378906 229.507812 115.25 226.082031 118.371094 219.785156 C 120.417969 215.691406 121.542969 214.15625 125.6875 210.0625 C 129.78125 205.96875 131.316406 204.84375 135.410156 202.796875 C 138.074219 201.464844 141.65625 200.035156 143.34375 199.574219 C 148.050781 198.292969 156.90625 198.039062 161.511719 199.011719 C 163.609375 199.472656 165.5 199.828125 165.757812 199.828125 C 165.960938 199.828125 166.117188 189.03125 166.117188 175.777344 L 166.117188 151.726562 L 164.988281 151.523438 C 159.257812 150.34375 145.339844 150.960938 136.84375 152.75 C 101.433594 160.171875 74.925781 187.597656 68.324219 223.625 C 66.636719 232.886719 66.738281 244.757812 68.582031 254.175781 C 73.953125 281.859375 90.890625 304.222656 115.710938 316.605469 C 128.042969 322.746094 143.703125 326.125 157.160156 325.5625 C 180.75 324.539062 201.375 315.328125 217.339844 298.746094 C 230.183594 285.339844 237.605469 270.550781 240.828125 251.820312 C 241.800781 245.988281 241.851562 243.683594 241.851562 193.894531 C 241.851562 165.339844 242.003906 142.003906 242.160156 142.003906 C 242.3125 142.003906 244.820312 143.4375 247.632812 145.226562 C 256.179688 150.550781 260.785156 152.75 270.765625 156.332031 C 280.179688 159.710938 294.917969 162.472656 303.667969 162.472656 L 307.863281 162.472656 L 307.761719 139.035156 L 307.609375 115.648438 L 305.050781 115.496094 C 287.394531 114.574219 272.964844 108.179688 260.785156 95.949219 C 252.804688 87.964844 247.632812 79.574219 244.257812 69.03125 C 242.671875 64.167969 241.339844 56.492188 241.339844 52.296875 L 241.339844 49.378906 L 193.75 49.378906 Z M 193.648438 147.480469 " fill-opacity="1" fill-rule="nonzero"/></g></svg>