<?xml version="1.0" encoding="UTF-8"?>
<svg id="Layer_1" data-name="Layer 1" xmlns="http://www.w3.org/2000/svg" xmlns:xlink="http://www.w3.org/1999/xlink" viewBox="0 0 500 500">
  <defs>
    <style>
      .cls-1 {
        fill: none;
      }

      .cls-2 {
        fill: #2c6560;
      }

      .cls-3 {
        clip-path: url(#clippath);
      }
    </style>
    <clipPath id="clippath">
      <rect class="cls-1" x="89.4167" y="65.8385" width="321" height="368"/>
    </clipPath>
  </defs>
  <g class="cls-3">
    <path class="cls-2" d="M258.1979,196.6406l-.2083,130.8646-1.9792,5.8021c-5.4583,16.375-17.3958,28.8594-32.8177,34.3854-7.1615,2.526-13.2344,3.4115-21.5625,2.9323-23.1979-1.224-42.9167-17.9427-48.4427-41.1406-1.1563-4.9792-1.3646-7.4375-1.0885-13.9219.4063-9.5521,1.5677-14.1198,5.7292-22.5156,2.7292-5.4583,4.2292-7.5052,9.7552-12.9635,5.4583-5.4583,7.5052-6.9583,12.9635-9.6875,3.5521-1.776,8.3281-3.6823,10.5781-4.2969,6.276-1.7083,18.0833-2.0469,24.224-.75,2.7969.6146,5.3177,1.0885,5.6615,1.0885.2708,0,.4792-14.3958.4792-32.0677v-32.0677l-1.5052-.2708c-7.6406-1.5729-26.1979-.75-37.526,1.6354-47.2135,9.8958-82.5573,46.4635-91.3594,94.5-2.25,12.349-2.1146,28.1771.3438,40.7344,7.1615,36.9115,29.7448,66.7292,62.8385,83.2396,16.4427,8.1875,37.3229,12.6927,55.2656,11.9427,31.4531-1.3646,58.9531-13.6458,80.2396-35.7552,17.125-17.875,27.0208-37.5938,31.3177-62.5677,1.2969-7.776,1.3646-10.849,1.3646-77.2344,0-38.0729.2031-69.1875.4115-69.1875.2031,0,3.5469,1.9115,7.2969,4.2969,11.3958,7.099,17.5365,10.0313,30.8438,14.8073,12.5521,4.5052,32.2031,8.1875,43.8698,8.1875h5.5938l-.1354-31.25-.2031-31.1823-3.4115-.2031c-23.5417-1.2292-42.7813-9.7552-59.0208-26.0625-10.6406-10.6458-17.5365-21.8333-22.0365-35.8906-2.1146-6.4844-3.8906-16.7188-3.8906-22.3125v-3.8906h-63.4531l-.1354,130.8021Z"/>
  </g>
</svg>